<svg width="60" height="60" viewBox="0 0 60 60" fill="none" xmlns="http://www.w3.org/2000/svg">
<path d="M10.0729 49.2154C10.1948 48.9885 10.5604 49.6054 10.7367 49.7207C11.2767 50.2071 11.9085 50.5804 12.5951 50.8187C13.2816 51.0569 14.0089 51.1554 14.734 51.1082C15.4592 51.061 16.1676 50.8692 16.8174 50.5439C17.4673 50.2187 18.0455 49.7667 18.5179 49.2145C18.5742 49.147 18.606 49.1039 18.7392 49.2595C19.461 50.0915 20.4184 50.6848 21.4848 50.9609C22.5511 51.2369 23.6762 51.1827 24.711 50.8054C24.9383 50.7154 25.1214 50.5402 25.2215 50.3172C25.3216 50.0942 25.3307 49.8409 25.2469 49.6113C25.1631 49.3817 24.993 49.1938 24.7728 49.0877C24.5527 48.9815 24.2997 48.9655 24.0679 49.0429C23.4654 49.2649 22.8139 49.3195 22.1828 49.2008C21.5517 49.0821 20.9646 48.7946 20.4838 48.3689C20.2951 48.0429 20.0244 47.7719 19.6986 47.5828C19.3728 47.3938 19.0032 47.2932 18.6265 47.2911C18.2498 47.289 17.8791 47.3855 17.5512 47.5709C17.2233 47.7564 16.9496 48.0243 16.7573 48.3482C16.1121 48.9339 15.2729 49.2601 14.4016 49.2639C13.5302 49.2677 12.6882 48.9489 12.0379 48.3689C11.8296 48.0567 11.5522 47.7967 11.2272 47.6091C10.9022 47.4215 10.5383 47.3113 10.1638 47.287C9.86837 47.2878 9.57677 47.3543 9.31019 47.4817C9.04361 47.6092 8.80873 47.7944 8.6226 48.0239C7.8328 48.84 6.8329 49.422 5.73322 49.7057C5.51313 49.7625 5.32106 49.8971 5.19255 50.0846C5.06405 50.2721 5.0078 50.4998 5.03421 50.7255C5.06063 50.9513 5.16793 51.1598 5.33625 51.3126C5.50458 51.4653 5.72253 51.5519 5.94979 51.5564C7.54253 51.2462 8.99034 50.4242 10.0729 49.2154ZM25.3467 52.8942C24.7132 53.5422 23.8544 53.9212 22.9487 53.9522C22.043 53.9833 21.1602 53.6641 20.4838 53.0611C20.2755 52.7487 19.998 52.4887 19.6728 52.301C19.3476 52.1134 18.9835 52.0033 18.6088 51.9792C18.3117 51.9804 18.0185 52.0479 17.7507 52.1769C17.4829 52.3058 17.2473 52.4929 17.061 52.7245C16.7555 53.0797 16.3823 53.3705 15.9632 53.58C15.5441 53.7896 15.0875 53.9136 14.62 53.9449C14.1525 53.9763 13.6834 53.9142 13.2401 53.7625C12.7968 53.6107 12.3881 53.3723 12.0379 53.0611C11.8704 52.7706 11.6362 52.5241 11.3547 52.3419C11.0732 52.1598 10.7525 52.0472 10.4189 52.0134C10.0853 51.9796 9.74841 52.0256 9.43609 52.1476C9.12377 52.2696 8.84494 52.4641 8.6226 52.7151C7.8328 53.5312 6.8329 54.1132 5.73322 54.397C5.51234 54.4531 5.31935 54.5875 5.19015 54.7752C5.06094 54.963 5.00431 55.1912 5.03078 55.4176C5.05726 55.6439 5.16504 55.853 5.33408 56.0058C5.50312 56.1587 5.72192 56.2449 5.94979 56.2486C7.54265 55.9381 8.99048 55.1158 10.0729 53.9067C10.1292 53.8382 10.161 53.7951 10.2942 53.9507C10.808 54.5375 11.442 55.0069 12.1532 55.3272C12.8644 55.6474 13.6361 55.811 14.4161 55.8068C15.1961 55.8027 15.966 55.6308 16.6737 55.303C17.3814 54.9751 18.0104 54.4989 18.5179 53.9067C18.6492 53.6826 18.9942 54.2911 19.1826 54.4129C20.2185 55.3486 21.5746 55.8501 22.9701 55.8134C24.3656 55.7768 25.6935 55.2048 26.6789 54.2161C26.8504 54.0386 26.9452 53.8008 26.9426 53.554C26.9401 53.3072 26.8404 53.0714 26.6652 52.8975C26.4901 52.7237 26.2534 52.6259 26.0066 52.6252C25.7598 52.6246 25.5227 52.7212 25.3467 52.8942Z" fill="#0181F5"/>
<path d="M52.1601 10.2689H37.147C36.4006 10.2697 35.6849 10.5665 35.1571 11.0943C34.6293 11.6221 34.3324 12.3378 34.3317 13.0842V39.3577C34.3324 40.1041 34.6293 40.8198 35.1571 41.3476C35.6849 41.8754 36.4006 42.1722 37.147 42.173H38.0845V43.1114C38.0852 43.8578 38.3821 44.5735 38.9099 45.1013C39.4377 45.6291 40.1534 45.926 40.8998 45.9267H43.717C43.8273 46.9843 43.716 48.0532 43.3902 49.0653C43.0643 50.0775 42.5311 51.0106 41.8246 51.8052C41.118 52.5998 40.2536 53.2384 39.2865 53.6803C38.3194 54.1222 37.2708 54.3577 36.2076 54.3717C34.2174 54.3695 32.3094 53.5779 30.9022 52.1706C29.4949 50.7634 28.7033 48.8553 28.7011 46.8652V11.2636C28.3308 1.26047 13.9523 1.23047 13.5698 11.2636V14.0227C13.2972 13.9812 13.0189 13.9985 12.7535 14.0733C12.488 14.1481 12.2417 14.2787 12.0308 14.4564C11.8199 14.6341 11.6494 14.8547 11.5307 15.1036C11.4119 15.3525 11.3477 15.6238 11.3423 15.8995V38.888C11.3448 39.5927 11.5743 40.2778 11.9969 40.8418C12.4194 41.4059 13.0124 41.8187 13.6879 42.0192V44.498C12.9128 44.3481 12.213 43.936 11.7061 43.3308C11.5191 43.1026 11.2838 42.9188 11.0172 42.7926C10.7506 42.6663 10.4593 42.6008 10.1643 42.6008C9.86937 42.6008 9.57806 42.6663 9.31145 42.7926C9.04485 42.9188 8.80958 43.1026 8.62263 43.3308C7.83286 44.1469 6.83294 44.729 5.73325 45.0127C5.49108 45.0702 5.28169 45.2216 5.15114 45.4336C5.0206 45.6455 4.9796 45.9006 5.03716 46.1428C5.09472 46.385 5.24613 46.5944 5.45807 46.7249C5.67002 46.8555 5.92514 46.8965 6.16732 46.8389C7.66512 46.4595 9.0214 45.6554 10.0729 44.5233C10.1292 44.4539 10.1611 44.4108 10.2942 44.5664C10.808 45.1532 11.4421 45.6226 12.1532 45.9429C12.8644 46.2631 13.6362 46.4267 14.4161 46.4225C15.1961 46.4183 15.966 46.2465 16.6737 45.9186C17.3815 45.5908 18.0104 45.1146 18.5179 44.5224C18.6379 44.3002 19.0036 44.9067 19.1836 45.0286C19.8574 45.6391 20.6731 46.0716 21.5565 46.2869C22.4399 46.5021 23.3631 46.4934 24.2423 46.2614C24.4831 46.1985 24.6891 46.0425 24.8149 45.8278C24.9407 45.613 24.976 45.3571 24.9131 45.1163C24.8502 44.8754 24.6942 44.6695 24.4794 44.5437C24.2647 44.4179 24.0087 44.3826 23.7679 44.4455C23.1996 44.5979 22.6024 44.6075 22.0294 44.4734C21.4564 44.3393 20.9255 44.0656 20.4839 43.6767C20.3 43.3573 20.0369 43.0907 19.72 42.9027C19.403 42.7146 19.043 42.6114 18.6746 42.603C18.3061 42.5946 17.9417 42.6813 17.6166 42.8548C17.2914 43.0283 17.0165 43.2826 16.8183 43.5933C16.4642 43.942 16.0356 44.2058 15.5648 44.3648V42.0192C16.2404 41.8187 16.8334 41.4059 17.2559 40.8418C17.6784 40.2778 17.9079 39.5927 17.9104 38.888V15.8995C17.9099 15.4019 17.712 14.9248 17.3602 14.5729C17.0083 14.2211 16.5312 14.0232 16.0336 14.0227H15.4467V11.2636C15.7064 3.75422 26.5542 3.72422 26.8251 11.2636V46.8661C26.8279 49.3539 27.8173 51.739 29.5765 53.4982C31.3356 55.2573 33.7208 56.2468 36.2086 56.2495C37.5178 56.2356 38.81 55.9518 40.0046 55.4158C41.1991 54.8798 42.2702 54.1032 43.151 53.1344C44.0317 52.1657 44.7032 51.0257 45.1234 49.7857C45.5435 48.5456 45.7034 47.2323 45.5929 45.9277H48.4064C49.1528 45.9269 49.8685 45.6301 50.3963 45.1023C50.9241 44.5744 51.2209 43.8588 51.2217 43.1123V42.1748H52.1601C52.9067 42.1741 53.6225 41.8771 54.1504 41.3491C54.6782 40.8211 54.9749 40.1052 54.9754 39.3586V13.0842C54.9747 12.3378 54.6778 11.6221 54.15 11.0943C53.6222 10.5665 52.9066 10.2697 52.1601 10.2689ZM16.0336 38.8889C16.0336 39.2622 15.8853 39.6203 15.6213 39.8843C15.3573 40.1483 14.9992 40.2966 14.6259 40.2966C14.2526 40.2966 13.8945 40.1483 13.6305 39.8843C13.3666 39.6203 13.2183 39.2622 13.2183 38.8889V19.6523H16.0336V38.8889ZM16.0336 15.8995V17.7764H13.2192V15.8995H16.0336ZM53.0986 39.3567C53.0983 39.6054 52.9995 39.8438 52.8238 40.0197C52.648 40.1956 52.4097 40.2947 52.1611 40.2952H50.2833C50.0345 40.2954 49.7961 40.3944 49.6203 40.5704C49.4445 40.7463 49.3458 40.9849 49.3458 41.2336V43.1105C49.3455 43.3594 49.2464 43.5981 49.0703 43.7741C48.8941 43.9501 48.6554 44.0489 48.4064 44.0489H40.8998C40.6512 44.0484 40.4129 43.9494 40.2371 43.7734C40.0614 43.5975 39.9626 43.3591 39.9623 43.1105V42.173H46.5304C46.7795 42.173 47.0183 42.0741 47.1943 41.898C47.3704 41.7219 47.4693 41.4831 47.4693 41.2341C47.4693 40.9851 47.3704 40.7462 47.1943 40.5702C47.0183 40.3941 46.7795 40.2952 46.5304 40.2952H37.1461C36.8976 40.2947 36.6594 40.1957 36.4837 40.02C36.308 39.8443 36.2091 39.6061 36.2086 39.3577V13.0833C36.2091 12.8348 36.308 12.5966 36.4837 12.4209C36.6594 12.2452 36.8976 12.1463 37.1461 12.1458H52.1601C52.4088 12.146 52.6472 12.2449 52.8231 12.4206C52.999 12.5963 53.0981 12.8346 53.0986 13.0833V39.3567Z" fill="#0181F5"/>
<path d="M50.2837 14.0227H39.0243C38.9011 14.0226 38.779 14.0467 38.6651 14.0938C38.5512 14.1408 38.4477 14.2099 38.3605 14.2969C38.2733 14.384 38.204 14.4873 38.1568 14.6012C38.1095 14.715 38.0851 14.837 38.085 14.9602V37.4818C38.0852 37.7305 38.1842 37.969 38.3602 38.1447C38.5361 38.3205 38.7747 38.4193 39.0234 38.4193H50.2837C50.5324 38.4193 50.771 38.3205 50.947 38.1447C51.1229 37.969 51.2219 37.7305 51.2221 37.4818V14.9611C51.2221 14.7124 51.1234 14.4739 50.9476 14.2979C50.7718 14.1219 50.5334 14.023 50.2846 14.0227H50.2837ZM49.3462 25.2821H42.7771C42.5281 25.2821 42.2893 25.381 42.1132 25.5571C41.9372 25.7332 41.8382 25.972 41.8382 26.221C41.8382 26.47 41.9372 26.7088 42.1132 26.8849C42.2893 27.061 42.5281 27.1599 42.7771 27.1599H49.3453V36.5433H39.9618V15.8996H49.3462V25.2821Z" fill="#0181F5"/>
</svg>
