<svg width="60" height="60" viewBox="0 0 60 60" fill="none" xmlns="http://www.w3.org/2000/svg">
<g clip-path="url(#clip0_1518_1835)">
<path d="M5.625 37.5H7.49998V54.375H5.625V37.5ZM9.37496 37.5H11.2499V54.375H9.37496V37.5ZM13.1249 37.5H14.9999V54.375H13.1249V37.5ZM16.8749 50.625H18.7499V54.375H16.8749V50.625ZM20.6249 50.625H22.4998V54.375H20.6249V50.625Z" fill="#0181F5"/>
<path d="M56.5804 43.9686L53.7913 41.4203C53.8147 41.0632 53.827 40.7107 53.827 40.3656C53.827 40.0209 53.8147 39.6683 53.7912 39.3118L57.1494 36.2425L55.8914 32.3813L51.3743 31.875C50.9994 31.2817 50.5861 30.7137 50.137 30.1744L51.0493 25.7213L47.7622 23.3258L43.8072 25.5656C43.154 25.3024 42.484 25.0832 41.8017 24.9093L39.9032 20.7252H35.8787L33.9803 24.9093C33.298 25.0832 32.628 25.3024 31.9749 25.5656L30.9372 24.9788V0H0V60H30.9372V55.752L31.9758 55.1632C32.6287 55.4264 33.2983 55.6457 33.9804 55.8197L35.8787 60H39.9015L41.7999 55.8156C42.4822 55.6416 43.1521 55.4224 43.8053 55.1596L47.0247 56.9829C49.7516 59.0726 53.5042 59.2016 56.3685 57.3047L57.4936 56.5622L52.2716 52.738L54.5433 49.6366L59.6442 53.3734L59.8927 51.8687C60.3959 48.8173 59.1095 45.7471 56.5813 43.9659L56.5804 43.9686ZM31.8588 27.6561L32.288 27.4686C33.1122 27.1097 33.9689 26.8309 34.8464 26.6359L35.3043 26.5348L37.0854 22.6057H38.6893L40.4705 26.5348L40.9283 26.6359C41.8058 26.8309 42.6625 27.1097 43.4867 27.4685L43.9161 27.6562L47.703 25.5121C48.1419 25.804 48.568 26.1146 48.9803 26.4431L48.1055 30.7086L48.4158 31.0593C49.0119 31.7322 49.5422 32.4608 49.9992 33.235L50.2372 33.6374L54.5658 34.1203C54.753 34.6106 54.9127 35.11 55.0524 35.6145L51.843 38.5519L51.8884 39.0206C51.9314 39.478 51.9528 39.9316 51.9528 40.3688C51.9528 40.8055 51.9314 41.2591 51.8884 41.7169L51.843 42.1856L52.1818 42.4956C52.088 42.4956 52.0046 42.4819 51.9136 42.4819C50.7628 42.4818 49.6252 42.7272 48.5769 43.2019L46.2332 41.5791C46.712 38.4082 45.3434 35.2418 42.7058 33.4186C40.0686 31.5948 36.6231 31.4323 33.8256 32.9998L31.7305 31.5513C31.9988 30.1685 31.8917 28.7388 31.4211 27.4113L31.8588 27.6561ZM44.4521 40.3423L35.6086 34.2288C36.5975 33.8525 37.6632 33.7223 38.7136 33.8496C39.764 33.9769 40.7677 34.3577 41.6382 34.9594C42.5086 35.5612 43.2195 36.3656 43.7097 37.3034C44.1999 38.2412 44.4547 39.2841 44.4521 40.3423ZM1.87498 1.875H29.0622V7.5H11.2499V5.625H1.87498V1.875ZM1.87498 7.5H9.37491V9.375H1.87498V7.5ZM1.87498 11.25H11.2499V9.375H29.0622V16.875H11.2499V15H1.87498V11.25ZM1.87498 16.875H9.37491V18.75H1.87498V16.875ZM29.0622 58.125H1.87498V20.625H11.2499V18.75H29.0622V23.9163L29.005 23.8847C26.2694 21.5597 22.3263 21.3236 19.3331 23.3052L18.2078 24.0477L23.43 27.8719L21.1581 30.9732L16.0591 27.236L15.811 28.7407C15.566 30.2226 15.7402 31.7435 16.314 33.1316C16.8878 34.5196 17.8384 35.7196 19.0583 36.5959L19.0404 36.6165L21.988 39.3109C21.9655 39.6648 21.9532 40.0172 21.9532 40.3647C21.9532 40.7126 21.9655 41.066 21.988 41.4184L18.6299 44.4878L18.7621 45.027C18.9961 45.9861 19.3018 46.9262 19.6768 47.8395L19.8888 48.3521L24.4077 48.8557C24.7827 49.449 25.196 50.017 25.6451 50.5563L24.7328 55.0095L25.1558 55.3697C25.9092 56.0087 26.7087 56.5912 27.5479 57.1124L28.0167 57.4049L29.0622 56.8121V58.125ZM43.9214 53.0745L43.4922 53.2622C42.6683 53.6215 41.8114 53.9002 40.9338 54.0943L40.4759 54.1969L38.6921 58.125H37.0881L35.307 54.1969L34.8464 54.0935C33.969 53.8994 33.1125 53.6207 32.2889 53.2612L31.8596 53.0735L28.0721 55.2186C27.6331 54.9267 27.2068 54.6161 26.7944 54.2876L27.6692 50.0221L27.3589 49.6714C26.763 48.9986 26.2328 48.2704 25.7755 47.4967L25.5375 47.0933L21.2089 46.6105C21.0212 46.121 20.8628 45.6217 20.7223 45.1164L23.9372 42.1779L23.8918 41.7091C23.8496 41.2582 23.8282 40.8046 23.8282 40.361C23.8282 39.9175 23.8498 39.4648 23.8918 39.0129L23.9372 38.5441L23.4684 38.1148C23.5751 38.1148 23.6808 38.1308 23.7898 38.1308C24.9201 38.1303 26.0378 37.8933 27.071 37.435L29.5533 39.1516C29.4937 39.5508 29.4624 39.9538 29.4596 40.3574C29.4533 41.8254 29.8317 43.2694 30.5572 44.5457C31.2827 45.8219 32.3299 46.8857 33.5945 47.6312C34.8592 48.3767 36.2971 48.7778 37.7651 48.7944C39.233 48.811 40.6797 48.4427 41.9609 47.726L43.9691 49.1135C43.9059 49.4664 43.8667 49.8232 43.852 50.1814C43.8419 50.3127 43.8341 50.4391 43.8341 50.5563C43.8341 50.8173 43.8493 51.075 43.8735 51.33C43.8803 51.4059 43.8932 51.4788 43.9028 51.5529C43.9239 51.7369 43.9513 51.9186 43.9852 52.0985C44.0003 52.1735 44.0181 52.2478 44.0351 52.3228C44.075 52.506 44.1211 52.6863 44.1737 52.8634C44.1925 52.9234 44.2104 52.9834 44.23 53.0425C44.2552 53.1234 44.2758 53.205 44.3038 53.2836L43.9214 53.0745ZM31.3292 40.3884L40.1717 46.4996C39.1829 46.8762 38.1174 47.0065 37.067 46.8794C36.0166 46.7523 35.013 46.3714 34.1426 45.7698C33.2722 45.1682 32.5613 44.3639 32.0711 43.4262C31.581 42.4885 31.3264 41.4457 31.3292 40.3876V40.3884ZM54.1375 47.0191L49.6505 53.145L54.0739 56.385C53.0649 56.7588 51.9759 56.8636 50.9141 56.6892C49.8523 56.5148 48.8542 56.0672 48.0177 55.3903C47.8927 55.29 47.7764 55.1829 47.6611 55.0753C47.5893 55.0068 47.517 54.9384 47.4473 54.8661C47.3302 54.7444 47.2157 54.6204 47.1099 54.4912C47.0349 54.3975 46.9666 54.3036 46.897 54.2098C46.8417 54.1337 46.7845 54.0578 46.7323 53.979C46.6651 53.8768 46.6025 53.7717 46.5447 53.664C46.4979 53.5843 46.4508 53.5048 46.4095 53.4224C46.3544 53.3156 46.3022 53.2074 46.253 53.0978C46.2134 53.0072 46.1753 52.916 46.1386 52.8241C46.1019 52.7316 46.057 52.6131 46.0214 52.5046C45.9871 52.397 45.956 52.2885 45.928 52.1791C45.8987 52.0706 45.8735 51.9832 45.852 51.8838C45.8227 51.7488 45.8022 51.611 45.7815 51.4741C45.7701 51.3945 45.7546 51.3157 45.7449 51.2351C45.7207 51.0119 45.7082 50.7877 45.7074 50.5632C45.7074 50.4291 45.7261 50.2922 45.7357 50.1562C45.7674 49.8578 45.8209 49.5131 45.8726 49.2188C45.8932 49.1304 45.9024 49.0425 45.9257 48.9541L46.0974 48.317L27.2125 35.2638L26.7081 35.533C25.8103 36.0111 24.8088 36.2612 23.7917 36.2615C22.7746 36.2619 21.7729 36.0123 20.8749 35.5348C19.9769 35.0571 19.2099 34.3661 18.6415 33.5226C18.073 32.6791 17.7204 31.7089 17.6147 30.6973L21.5623 33.5933L26.052 27.4684L21.6286 24.2293C22.7008 23.8276 23.8633 23.7308 24.9872 23.9496C26.1111 24.1685 27.1524 24.6943 27.9956 25.4689C28.8386 26.2436 29.4506 27.2366 29.7636 28.3378C30.0766 29.4391 30.0785 30.6055 29.769 31.7078L29.5908 32.3491L48.4401 45.3749L48.9474 45.0934C49.8456 44.6058 50.8501 44.3472 51.8721 44.3406C52.8941 44.3341 53.9019 44.5797 54.8062 45.0557C55.7105 45.5317 56.4835 46.2235 57.0566 47.0697C57.6297 47.9159 57.9852 48.8903 58.0916 49.9068L54.1375 47.0191Z" fill="#0181F5"/>
</g>
<defs>
<clipPath id="clip0_1518_1835">
<rect width="60" height="60" fill="white"/>
</clipPath>
</defs>
</svg>
