<svg width="50" height="50" viewBox="0 0 50 50" fill="none" xmlns="http://www.w3.org/2000/svg">
<g clip-path="url(#clip0_1666_1101)">
<path d="M49.6773 31.9386C49.343 31.7118 48.8871 31.7994 48.6589 32.133C48.5975 32.2229 47.122 34.3351 44.4124 34.3351C41.7028 34.3351 40.2274 32.2229 40.1674 32.1354C39.8975 31.7078 39.2186 31.7083 38.949 32.136C38.9342 32.158 37.4419 34.3352 34.7081 34.3352C32.4165 34.3352 31.008 32.8249 30.5915 32.3056V20.9339H49.2663C49.6716 20.9339 50.0001 20.6053 50.0001 20.2C50.0001 19.7946 49.6716 19.4661 49.2663 19.4661H43.3647V14.1174C43.3647 9.2651 39.4639 5.27975 34.6692 5.23337C32.3103 5.20964 30.0858 6.11413 28.4062 7.77751C27.593 8.58288 26.9584 9.51823 26.5183 10.5357C25.1618 7.44655 22.1111 5.26764 18.5733 5.23337C18.5442 5.23307 18.5151 5.23297 18.486 5.23297C16.1593 5.23297 13.9691 6.13463 12.3102 7.77751C10.6303 9.44128 9.70502 11.6564 9.70502 14.0148V19.4662H0.789596C0.384225 19.4662 0.055709 19.7947 0.055709 20.2001C0.055709 20.6054 0.384225 20.934 0.789596 20.934H9.70502V23.832C9.70502 24.2374 10.0335 24.5659 10.4389 24.5659C10.8443 24.5659 11.1728 24.2374 11.1728 23.832V14.0148C11.1728 12.051 11.9435 10.2063 13.3431 8.82028C14.7422 7.43473 16.5931 6.6777 18.5592 6.70104C22.5523 6.73962 25.801 10.0667 25.801 14.1174V19.4661H23.946V14.0148C23.946 11.0558 21.5396 8.60719 18.5818 8.55651C18.5505 8.55602 18.5197 8.55573 18.4885 8.55573C17.0721 8.55573 15.73 9.10973 14.7005 10.1217C13.6374 11.1668 13.0278 12.6163 13.0278 14.0986V33.7951C12.0495 33.3038 11.4224 32.6101 11.1727 32.2972V26.7673C11.1727 26.362 10.8442 26.0335 10.4388 26.0335C10.0334 26.0335 9.70493 26.362 9.70493 26.7673V32.3047C9.28696 32.8258 7.87856 34.3351 5.58794 34.3351C2.87827 34.3351 1.40288 32.2229 1.34292 32.1354C1.11674 31.7991 0.660787 31.7098 0.324459 31.9359C-0.0118691 32.162 -0.101225 32.6179 0.124947 32.9544C0.203072 33.0707 2.08042 35.8029 5.58784 35.8029C7.98579 35.8029 9.62172 34.5259 10.4417 33.6808C11.2618 34.5259 12.8978 35.8029 15.2957 35.8029C17.693 35.8029 19.3271 34.5266 20.1464 33.6812C20.9666 34.5264 22.6025 35.8029 24.9998 35.8029C27.3978 35.8029 29.0337 34.5259 29.8538 33.6808C30.6738 34.5259 32.3098 35.8029 34.7077 35.8029C37.105 35.8029 38.7391 34.5266 39.5584 33.6812C40.3787 34.5264 42.0145 35.8029 44.4119 35.8029C47.9194 35.8029 49.7966 33.0707 49.8748 32.9544C50.1007 32.6189 50.0118 32.1655 49.6773 31.9386ZM14.4956 26.0336H25.801V28.0882H14.4956V26.0336ZM25.801 24.5658H14.4956V20.9339H25.801V24.5658ZM15.7295 11.1685C16.4987 10.4125 17.5024 10.0061 18.5566 10.0241C20.7191 10.0612 22.4784 11.8514 22.4784 14.0149V19.4663H14.4957V14.0987C14.4956 13.0073 14.9454 11.9393 15.7295 11.1685ZM20.7552 32.1354C20.4856 31.7101 19.81 31.7098 19.5384 32.1337C19.4771 32.2235 18.005 34.3351 15.2959 34.3351C15.0156 34.3351 14.7493 34.3115 14.4956 34.2709V29.5559H25.801V34.2708C25.5472 34.3114 25.2807 34.3351 25.0001 34.3351C22.2906 34.3351 20.8151 32.2229 20.7552 32.1354ZM27.2687 33.7948V14.0148C27.2687 12.051 28.0394 10.2063 29.439 8.82028C30.8381 7.43473 32.6892 6.6777 34.655 6.70104C38.6482 6.73962 41.8969 10.0667 41.8969 14.1174V19.4661H40.0419V17.8347C40.0419 17.4294 39.7134 17.1008 39.3081 17.1008C38.9027 17.1008 38.5742 17.4294 38.5742 17.8347V19.4661H30.5914V14.0985C30.5914 13.0072 31.0412 11.9392 31.8253 11.1683C32.5945 10.4123 33.5963 10.0059 34.6524 10.0239C36.8149 10.061 38.5742 11.8512 38.5742 14.0147V14.8993C38.5742 15.3047 38.9027 15.6332 39.3081 15.6332C39.7134 15.6332 40.0419 15.3047 40.0419 14.8993V14.0147C40.0419 11.0557 37.6355 8.6071 34.6777 8.55641C34.6464 8.55592 34.6156 8.55563 34.5844 8.55563C33.168 8.55563 31.826 9.10963 30.7964 10.1216C29.7334 11.1667 29.1237 12.6162 29.1237 14.0985V32.2963C28.8733 32.6104 28.2462 33.3038 27.2687 33.7948Z" fill="#0181F5"/>
<path d="M20.1494 43.2995C17.4397 43.2995 15.9643 41.1873 15.9043 41.0998C15.6349 40.6747 14.9598 40.6743 14.6879 41.0974C14.6265 41.1874 13.151 43.2996 10.4415 43.2996C7.73188 43.2996 6.25639 41.1874 6.19643 41.0999C5.97026 40.7634 5.5143 40.6742 5.17797 40.9004C4.84165 41.1264 4.75229 41.5824 4.97846 41.9187C5.05659 42.035 6.93383 44.7673 10.4414 44.7673C12.8393 44.7673 14.4752 43.4903 15.2953 42.6452C16.1153 43.4903 17.7513 44.7673 20.1493 44.7673C20.5546 44.7673 20.8832 44.4387 20.8832 44.0334C20.8832 43.628 20.5547 43.2995 20.1494 43.2995Z" fill="#0181F5"/>
<path d="M44.823 40.9026C44.4883 40.6761 44.0327 40.7642 43.8047 41.098C43.7434 41.1878 42.2714 43.2994 39.5623 43.2994C36.8526 43.2994 35.3772 41.1872 35.3172 41.0997C35.0475 40.6724 34.369 40.6725 34.0993 41.0997C34.0844 41.1217 32.5886 43.2994 29.8542 43.2994C27.1446 43.2994 25.6692 41.1872 25.6092 41.0997C25.3396 40.6744 24.664 40.6741 24.3924 41.098C24.3866 41.1065 23.7944 41.9632 22.7019 42.6008C22.3519 42.8052 22.2337 43.2546 22.4381 43.6046C22.6425 43.9545 23.0917 44.0726 23.4419 43.8685C24.1161 43.4749 24.6373 43.0175 24.9997 42.6445C25.8196 43.4896 27.4557 44.7672 29.8542 44.7672C32.2522 44.7672 33.8881 43.4903 34.7081 42.6451C35.5282 43.4903 37.1642 44.7672 39.5621 44.7672C43.0701 44.7672 44.9438 42.0344 45.0218 41.9181C45.2472 41.5822 45.1578 41.129 44.823 40.9026Z" fill="#0181F5"/>
</g>
<defs>
<clipPath id="clip0_1666_1101">
<rect width="50" height="50" fill="white"/>
</clipPath>
</defs>
</svg>
