<svg width="50" height="50" viewBox="0 0 50 50" fill="none" xmlns="http://www.w3.org/2000/svg">
<g clip-path="url(#clip0_1666_1094)">
<path d="M37.5 50.0002C37.3625 50.0002 37.225 49.9731 37.0958 49.9169C36.6 49.7106 25 44.696 25 34.4502V25.7439C25 25.2981 25.2854 24.9002 25.7083 24.7564L37.1667 20.8877C37.3833 20.8148 37.6187 20.8148 37.8333 20.8877L49.2917 24.7564C49.7146 24.8981 50 25.296 50 25.7439V34.4502C50 44.696 38.4 49.7106 37.9042 49.9189C37.775 49.9731 37.6375 50.0002 37.5 50.0002ZM27.0833 26.4919V34.4502C27.0833 42.3356 35.5312 46.8627 37.5 47.8127C39.4667 46.8606 47.9167 42.3169 47.9167 34.4502V26.4919L37.5 22.9752L27.0833 26.4919Z" fill="#0181F5"/>
<path d="M36.4583 39.5835C36.4396 39.5835 36.4187 39.5835 36.4021 39.5814C36.1041 39.5648 35.8312 39.4231 35.6458 39.1919L31.4791 33.9835C31.1208 33.5335 31.1916 32.8794 31.6416 32.5189C32.0937 32.1627 32.7458 32.2335 33.1062 32.6814L36.5437 36.9814L43.0125 30.5127C43.4187 30.1064 44.0792 30.1064 44.4854 30.5127C44.8917 30.9189 44.8917 31.5794 44.4854 31.9856L37.1937 39.2773C37 39.4752 36.7333 39.5835 36.4583 39.5835Z" fill="#0181F5"/>
<path d="M26.0417 20.1877C25.4667 20.1877 25 19.721 25 19.146V6.25016C25 3.95225 26.8688 2.0835 29.1667 2.0835C31.4646 2.0835 33.3333 3.95225 33.3333 6.25016V17.0418C33.3333 17.6168 32.8667 18.0835 32.2917 18.0835C31.7167 18.0835 31.25 17.6189 31.25 17.0418V6.25016C31.25 5.10225 30.3167 4.16683 29.1667 4.16683C28.0167 4.16683 27.0833 5.10225 27.0833 6.25016V19.146C27.0833 19.721 26.6167 20.1877 26.0417 20.1877Z" fill="#0181F5"/>
<path d="M26.0417 20.1875C25.4667 20.1875 25 19.7208 25 19.1458V4.16667C25 3.01875 24.0667 2.08333 22.9167 2.08333C21.7667 2.08333 20.8333 3.01875 20.8333 4.16667V6.25C20.8333 6.825 20.3667 7.29167 19.7917 7.29167C19.2167 7.29167 18.75 6.825 18.75 6.25V4.16667C18.75 1.86875 20.6188 0 22.9167 0C25.2146 0 27.0833 1.86875 27.0833 4.16667V19.1458C27.0833 19.7208 26.6167 20.1875 26.0417 20.1875Z" fill="#0181F5"/>
<path d="M25.0208 50.0002H19.7917C13.7708 49.9523 9.49167 45.7606 6.31042 36.8064C4.50625 31.7293 2.77083 30.1189 1.62292 29.0522C0.789583 28.2772 0 27.5439 0 26.0418C0 25.521 0.25 22.9168 5.20833 22.9168C8.36667 22.9168 10.8917 25.0522 12.5 26.9314V6.25016C12.5 3.95225 14.3688 2.0835 16.6667 2.0835C18.9646 2.0835 20.8333 3.95225 20.8333 6.25016V23.9585C20.8333 24.5335 20.3667 25.0002 19.7917 25.0002C19.2167 25.0002 18.75 24.5335 18.75 23.9585V6.25016C18.75 5.10225 17.8167 4.16683 16.6667 4.16683C15.5167 4.16683 14.5833 5.10225 14.5833 6.25016V30.2085C14.5833 30.6856 14.2604 31.1002 13.7979 31.2168C13.3375 31.3335 12.8542 31.1231 12.625 30.7043C12.5958 30.6481 9.47917 25.0002 5.20833 25.0002C2.84583 25.0002 2.08333 25.7022 2.08333 26.0418C2.08333 26.6147 2.26667 26.8064 3.04167 27.5252C4.26042 28.6564 6.29792 30.5502 8.27292 36.1085C11.1208 44.1252 14.7833 47.8773 19.8 47.9168H25C25.4646 47.9168 25.9063 47.896 26.3458 47.8752C26.9146 47.8231 27.4083 48.2939 27.4333 48.8668C27.4625 49.4418 27.0167 49.9293 26.4417 49.9564C25.9708 49.9793 25.4958 50.0002 25.0208 50.0002Z" fill="#0181F5"/>
<path d="M32.2917 18.0835C31.7167 18.0835 31.25 17.6168 31.25 17.0418V12.5002C31.25 10.2022 33.1188 8.3335 35.4167 8.3335C37.7146 8.3335 39.5833 10.2022 39.5833 12.5002V15.7085C39.5833 16.2835 39.1167 16.7502 38.5417 16.7502C37.9667 16.7502 37.5 16.2835 37.5 15.7085V12.5002C37.5 11.3522 36.5667 10.4168 35.4167 10.4168C34.2667 10.4168 33.3333 11.3522 33.3333 12.5002V17.0418C33.3333 17.6189 32.8667 18.0835 32.2917 18.0835Z" fill="#0181F5"/>
</g>
<defs>
<clipPath id="clip0_1666_1094">
<rect width="50" height="50" fill="white"/>
</clipPath>
</defs>
</svg>
