<svg width="50" height="50" viewBox="0 0 50 50" fill="none" xmlns="http://www.w3.org/2000/svg">
<path d="M4.57977 27.6112C4.58977 28.2158 4.74579 28.8091 5.03454 29.3404C5.32329 29.8717 5.73621 30.3253 6.2381 30.6626C6.74 30.9999 7.31599 31.2108 7.91701 31.2775C8.51803 31.3441 9.12625 31.2645 9.68985 31.0454C19.5143 27.0957 30.4851 27.0957 40.3096 31.0454C40.8754 31.2649 41.486 31.344 42.0891 31.2758C42.6921 31.2077 43.2697 30.9943 43.7722 30.654C44.2747 30.3138 44.6873 29.8567 44.9745 29.3221C45.2617 28.7874 45.415 28.1911 45.4212 27.5843L45.4213 24.0798C45.4213 18.6637 43.2697 13.4693 39.4399 9.63955C35.6102 5.80976 30.4158 3.6582 24.9997 3.6582C19.5835 3.6582 14.3892 5.80976 10.5594 9.63955C6.72965 13.4693 4.5781 18.6637 4.5781 24.0798C4.58303 24.1062 4.57257 27.587 4.57977 27.6112ZM42.9078 29.3773C42.6159 29.5781 42.2787 29.703 41.9264 29.7409C41.5742 29.7788 41.2181 29.7284 40.8902 29.5943C30.6929 25.4958 19.3065 25.4958 9.1092 29.5943C8.8227 29.707 8.51556 29.7576 8.20805 29.7429C7.90054 29.7282 7.59964 29.6484 7.32522 29.5089C7.0508 29.3693 6.80909 29.1732 6.61605 28.9333C6.423 28.6935 6.283 28.4155 6.20529 28.1176C17.1977 23.0823 28.9865 22.159 40.3131 26.7201L43.7942 28.1177C43.666 28.6333 43.3499 29.0825 42.9078 29.3773ZM43.8588 24.0798V26.4595C39.4729 24.4668 34.8159 23.1349 30.0395 22.5073C30.8241 17.5121 33.0585 12.8574 36.4653 9.12094C38.764 10.8788 40.6267 13.1427 41.9089 15.737C43.1911 18.3312 43.8583 21.186 43.8588 24.0798ZM35.1634 8.20646C31.6056 12.1695 29.2789 17.0829 28.4676 22.3465C26.1595 22.1573 23.8399 22.1574 21.5318 22.3466C20.7205 17.083 18.3938 12.1695 14.836 8.20646C20.6109 4.2708 29.3886 4.27041 35.1634 8.20646ZM13.5341 9.12094C16.9409 12.8574 19.1753 17.5121 19.9599 22.5073C16.2362 22.95 12.5866 23.8787 9.10423 25.2696L6.1406 26.4596C5.6944 19.4866 8.18158 13.1952 13.5341 9.12094Z" fill="#0181F5"/>
<path d="M34.971 36.3599C28.2084 36.4782 28.2093 43.5624 34.9711 43.6803C41.7336 43.5619 41.7327 36.4777 34.971 36.3599ZM34.971 42.1178C30.2939 41.9891 30.2945 38.0508 34.9711 37.9224C39.6481 38.0511 39.6475 41.9893 34.971 42.1178Z" fill="#0181F5"/>
<path d="M15.0286 36.3599C8.26602 36.4782 8.26695 43.5624 15.0287 43.6803C21.7912 43.5619 21.7903 36.4777 15.0286 36.3599ZM15.0286 42.1178C10.3516 41.9891 10.3521 38.0508 15.0287 37.9224C19.7057 38.0511 19.7051 41.9893 15.0286 42.1178Z" fill="#0181F5"/>
<path d="M44.2614 36.5637L42.605 36.7519C39.3425 32.5863 30.4782 32.754 27.5513 37.1327L22.4485 37.1325C19.5297 32.7555 10.647 32.5872 7.39478 36.7521L5.74216 36.5641C5.41319 36.5287 5.08047 36.5629 4.76551 36.6642C4.45055 36.7655 4.16036 36.9318 3.91369 37.1523C3.66701 37.3728 3.46935 37.6426 3.33348 37.9443C3.19761 38.2459 3.12655 38.5728 3.12489 38.9036C3.1871 40.0911 2.80074 42.0562 3.91454 42.8983C4.76588 43.7965 6.32776 43.3916 7.393 43.2863C8.33236 44.2949 9.47765 45.0898 10.7512 45.6169C12.0247 46.1441 13.3967 46.3912 14.7742 46.3415C18.116 46.3415 21.0143 44.9427 22.45 42.9056H27.5498C28.9855 44.9427 31.8838 46.3415 35.2256 46.3415C36.603 46.3912 37.9751 46.144 39.2486 45.6169C40.5221 45.0898 41.6674 44.2949 42.6068 43.2863C43.6546 43.3917 45.2353 43.7933 46.0853 42.8983C47.1978 42.0537 46.8147 40.0925 46.8749 38.9036C46.8734 38.573 46.8025 38.2464 46.667 37.9449C46.5314 37.6434 46.3341 37.3737 46.0878 37.1532C45.8415 36.9327 45.5517 36.7663 45.2371 36.6648C44.9226 36.5632 44.5902 36.5288 44.2614 36.5637ZM5.55832 41.9222C5.44876 41.9339 5.33796 41.9225 5.23309 41.8887C5.12821 41.8549 5.03161 41.7994 4.94951 41.7259C4.86742 41.6524 4.80167 41.5625 4.75652 41.462C4.71136 41.3615 4.68782 41.2526 4.68739 41.1424V38.9036C4.68691 38.7925 4.70992 38.6825 4.7549 38.5809C4.79988 38.4793 4.86583 38.3884 4.94842 38.314C5.031 38.2397 5.12837 38.1836 5.23413 38.1496C5.33989 38.1155 5.45166 38.1041 5.56211 38.1163L6.49742 38.2226C6.2613 38.7921 6.1397 39.4025 6.13957 40.019C6.13943 40.6355 6.26077 41.246 6.49663 41.8156L5.55832 41.9222ZM14.7742 44.779C10.873 44.779 7.69913 42.6443 7.69913 40.0202C7.91782 34.489 18.8097 33.7001 21.3525 38.2805C23.3122 42.1342 18.8678 44.792 14.7742 44.779ZM23.2178 41.3431C23.4743 40.4789 23.4741 39.5589 23.2171 38.6949H26.7828C26.5258 39.5589 26.5255 40.4789 26.782 41.3431H23.2178ZM35.2256 44.779C31.1334 44.7933 26.6869 42.133 28.6472 38.2803C31.1889 33.6993 42.086 34.4911 42.3008 40.0203C42.3007 42.6443 39.1269 44.779 35.2256 44.779ZM45.3124 41.1425C45.312 41.253 45.2883 41.3622 45.2429 41.4629C45.1975 41.5637 45.1314 41.6538 45.0489 41.7273C44.9664 41.8008 44.8693 41.8561 44.764 41.8896C44.6587 41.9231 44.5475 41.9341 44.4377 41.9218L43.5031 41.8155C43.739 41.246 43.8603 40.6355 43.8602 40.019C43.8601 39.4025 43.7385 38.7921 43.5023 38.2226C43.9126 38.2164 44.7157 37.9416 45.0453 38.3066C45.13 38.3811 45.1977 38.473 45.2438 38.5761C45.2899 38.6791 45.3133 38.7908 45.3124 38.9036V41.1425Z" fill="#0181F5"/>
</svg>
