<svg width="30" height="30" viewBox="0 0 30 30" fill="none" xmlns="http://www.w3.org/2000/svg">
<path d="M21.5429 2.81257H8.4291C7.68563 2.81251 6.94954 2.9594 6.26354 3.24471C5.57754 3.53002 4.95529 3.94808 4.43285 4.47465C3.91041 5.0012 3.4982 5.62577 3.22013 6.31215C2.94205 6.99851 2.80365 7.73301 2.81294 8.47303V21.527C2.80365 22.267 2.94205 23.0015 3.22013 23.6879C3.4982 24.3742 3.91041 24.9989 4.43285 25.5254C4.95529 26.052 5.57754 26.47 6.26354 26.7554C6.94954 27.0406 7.68563 27.1875 8.4291 27.1875H14.3823V18.4801H12.1077C11.9662 18.4801 11.8305 18.4242 11.7304 18.3246C11.6304 18.225 11.5741 18.0899 11.5741 17.9491V15.1537C11.5741 15.0092 11.6318 14.8706 11.7345 14.7684C11.8372 14.6661 11.9765 14.6087 12.1217 14.6087H14.3823V11.8833C14.3194 11.2398 14.3983 10.5905 14.6134 9.98052C14.8285 9.37055 15.1748 8.81463 15.6279 8.35155C16.081 7.88847 16.6303 7.52937 17.2371 7.29931C17.8441 7.06925 18.4941 6.97375 19.1419 7.01948H21.4586C21.5299 7.01946 21.6004 7.03365 21.666 7.0612C21.7318 7.08876 21.7911 7.12913 21.8409 7.17995C21.8906 7.23075 21.9296 7.29096 21.9556 7.35702C21.9816 7.42308 21.994 7.49365 21.9921 7.56456V9.92658C21.9921 10.0674 21.9359 10.2025 21.8359 10.3021C21.7358 10.4017 21.6001 10.4577 21.4586 10.4577H20.0545C18.5101 10.4577 18.2153 11.1845 18.2153 12.2467V14.5947H21.585C21.6614 14.594 21.737 14.6097 21.8068 14.6406C21.8765 14.6716 21.9388 14.7171 21.9894 14.7741C22.04 14.8311 22.0776 14.8982 22.0999 14.971C22.1222 15.0436 22.1285 15.1204 22.1185 15.1957L21.7815 17.991C21.7676 18.122 21.7053 18.2431 21.6068 18.3309C21.5081 18.4187 21.3803 18.4669 21.248 18.4662H18.2293V27.1735H21.5709C22.3144 27.1736 23.0505 27.0267 23.7365 26.7414C24.4225 26.4561 25.0447 26.038 25.5671 25.5115C26.0896 24.9849 26.5018 24.3604 26.7799 23.674C27.058 22.9876 27.1964 22.2531 27.187 21.513V8.47303C27.1964 7.73065 27.0571 6.99385 26.7773 6.30563C26.4975 5.61743 26.0828 4.9916 25.5573 4.46466C25.0319 3.93773 24.4062 3.52025 23.717 3.2366C23.0278 2.95295 22.2886 2.8088 21.5429 2.81257Z" fill="white"/>
</svg>
