<svg width="30" height="30" viewBox="0 0 30 30" fill="none" xmlns="http://www.w3.org/2000/svg">
<path d="M17.2795 15.2925C17.2593 15.7298 17.1157 16.1523 16.8651 16.5113C16.6135 16.8821 16.2508 17.1636 15.8292 17.3156C15.412 17.4858 14.9526 17.524 14.513 17.4253C14.071 17.3309 13.6676 17.1059 13.3551 16.7794C13.0457 16.4388 12.8423 16.0151 12.7701 15.5606C12.6885 15.1199 12.7438 14.6649 12.9286 14.2565C13.1087 13.8469 13.4053 13.4993 13.7817 13.2571C14.1661 13.019 14.6092 12.8924 15.0613 12.8915C15.6575 12.9241 16.2191 13.181 16.6336 13.6106C16.8482 13.8336 17.0158 14.0973 17.1268 14.3861C17.2377 14.675 17.2897 14.9833 17.2795 15.2925Z" fill="white"/>
<path d="M21.5808 10.0031C21.4386 9.6518 21.2272 9.33266 20.9592 9.06467C20.6912 8.79669 20.3721 8.5853 20.0208 8.4431C19.6671 8.30484 19.2916 8.23056 18.9117 8.22372H11.2093C10.4474 8.22694 9.7177 8.531 9.17898 9.0697C8.64027 9.60841 8.33621 10.3381 8.33301 11.1V18.9488C8.33355 19.3275 8.40922 19.7025 8.55566 20.0519C8.7021 20.4012 8.9164 20.718 9.18613 20.984C9.72463 21.518 10.4509 21.8199 11.2093 21.825H18.9117C19.6702 21.8199 20.3963 21.518 20.9348 20.984C21.2046 20.718 21.4189 20.4012 21.5653 20.0519C21.7118 19.7025 21.7874 19.3275 21.7879 18.9488V11.1122C21.7853 10.7331 21.7152 10.3576 21.5808 10.0031ZM18.5339 16.8037C18.3504 17.2599 18.0769 17.6745 17.7296 18.0225C17.3787 18.3756 16.9654 18.6608 16.5108 18.8634C16.0512 19.0565 15.5589 19.1599 15.0604 19.1681C14.4896 19.1792 13.9233 19.0634 13.4027 18.8287C12.8821 18.5941 12.4202 18.2467 12.0504 17.8116C11.6806 17.3765 11.4122 16.8646 11.2646 16.313C11.117 15.7614 11.094 15.1837 11.1971 14.6221C11.3472 13.8752 11.7065 13.1862 12.233 12.6356C12.7704 12.0969 13.4542 11.7278 14.1994 11.5739C14.9447 11.4201 15.7187 11.4884 16.4254 11.7703C17.1349 12.0568 17.7392 12.5546 18.1561 13.1962C18.5777 13.8146 18.8067 14.5441 18.8142 15.2925C18.8321 15.8106 18.7363 16.3264 18.5339 16.8037ZM19.8746 10.7831C19.8877 10.8812 19.8796 10.981 19.8509 11.0757C19.8223 11.1705 19.7738 11.258 19.7087 11.3325C19.6434 11.407 19.5631 11.4667 19.4729 11.5076C19.3828 11.5484 19.2849 11.5696 19.1859 11.5696C19.0869 11.5696 18.9892 11.5484 18.8991 11.5076C18.8088 11.4667 18.7284 11.407 18.6633 11.3325C18.5981 11.258 18.5496 11.1705 18.5209 11.0757C18.4923 10.981 18.4843 10.8812 18.4973 10.7831C18.4843 10.685 18.4923 10.5852 18.5209 10.4904C18.5496 10.3957 18.5981 10.3081 18.6633 10.2337C18.7284 10.1592 18.8088 10.0995 18.8991 10.0586C18.9892 10.0177 19.0869 9.9966 19.1859 9.9966C19.2849 9.9966 19.3828 10.0177 19.4729 10.0586C19.5631 10.0995 19.6434 10.1592 19.7087 10.2337C19.7738 10.3081 19.8223 10.3957 19.8509 10.4904C19.8796 10.5852 19.8877 10.685 19.8746 10.7831Z" fill="white"/>
<path d="M21.0938 2.8125H8.90625C7.29009 2.8125 5.74011 3.45451 4.59731 4.59731C3.45451 5.74011 2.8125 7.29009 2.8125 8.90625V21.0938C2.8125 22.7099 3.45451 24.2599 4.59731 25.4026C5.74011 26.5455 7.29009 27.1875 8.90625 27.1875H21.0938C22.7099 27.1875 24.2599 26.5455 25.4026 25.4026C26.5455 24.2599 27.1875 22.7099 27.1875 21.0938V8.90625C27.1875 7.29009 26.5455 5.74011 25.4026 4.59731C24.2599 3.45451 22.7099 2.8125 21.0938 2.8125ZM23.6775 18.8269C23.689 19.4661 23.5686 20.1009 23.3241 20.6916C22.8296 21.8759 21.888 22.8174 20.7038 23.3119C20.113 23.5565 19.4783 23.6768 18.839 23.6654H11.3438C10.7046 23.6758 10.0701 23.5555 9.47906 23.3119C8.89325 23.0654 8.3597 22.7098 7.90688 22.2638C7.45831 21.813 7.10225 21.279 6.85875 20.6916C6.60161 20.1035 6.46884 19.4686 6.46875 18.8269V11.2706C6.45831 10.6315 6.57859 9.99694 6.82219 9.40594C7.30562 8.21703 8.23841 7.26673 9.41813 6.76125C10.0312 6.52276 10.6862 6.41083 11.3438 6.43219H18.9C19.5335 6.42659 20.1617 6.5477 20.7477 6.78839C21.3337 7.02909 21.8658 7.3845 22.3125 7.83375C22.7585 8.28658 23.1141 8.82013 23.3606 9.40594C23.6042 9.99694 23.7245 10.6315 23.7141 11.2706L23.6775 18.8269Z" fill="white"/>
</svg>
