<svg width="8" height="44" viewBox="0 0 8 44" fill="none" xmlns="http://www.w3.org/2000/svg">
<path opacity="0.3" d="M3.64644 43.3536C3.84171 43.5488 4.15829 43.5488 4.35355 43.3536L7.53553 40.1716C7.73079 39.9763 7.73079 39.6597 7.53553 39.4645C7.34027 39.2692 7.02369 39.2692 6.82843 39.4645L4 42.2929L1.17157 39.4645C0.976309 39.2692 0.659726 39.2692 0.464464 39.4645C0.269202 39.6597 0.269202 39.9763 0.464464 40.1716L3.64644 43.3536ZM3.5 0.5L3.5 1.46591L4.5 1.46591L4.5 0.5L3.5 0.5ZM3.5 3.39773L3.5 5.32955L4.5 5.32955L4.5 3.39773L3.5 3.39773ZM3.5 7.26136L3.5 9.19318L4.5 9.19318L4.5 7.26136L3.5 7.26136ZM3.5 11.125L3.5 13.0568L4.5 13.0568L4.5 11.125L3.5 11.125ZM3.5 14.9886L3.5 16.9205L4.5 16.9205L4.5 14.9886L3.5 14.9886ZM3.5 18.8523L3.5 20.7841L4.5 20.7841L4.5 18.8523L3.5 18.8523ZM3.5 22.7159L3.5 24.6477L4.5 24.6477L4.5 22.7159L3.5 22.7159ZM3.5 26.5795L3.5 28.5114L4.5 28.5114L4.5 26.5795L3.5 26.5795ZM3.5 30.4432L3.5 32.375L4.5 32.375L4.5 30.4432L3.5 30.4432ZM3.5 34.3068L3.5 36.2386L4.5 36.2386L4.5 34.3068L3.5 34.3068ZM3.5 38.1705L3.5 40.1023L4.5 40.1023L4.5 38.1705L3.5 38.1705ZM3.5 42.0341L3.5 43L4.5 43L4.5 42.0341L3.5 42.0341Z" fill="white"/>
</svg>
