<svg width="26" height="26" viewBox="0 0 26 26" fill="none" xmlns="http://www.w3.org/2000/svg">
<path d="M19.6287 0.8125H6.37122C4.89696 0.8125 3.48309 1.39815 2.44062 2.44061C1.39816 3.48307 0.8125 4.89696 0.8125 6.37122V19.6287C0.8125 21.103 1.39816 22.5169 2.44062 23.5594C3.48309 24.6019 4.89696 25.1875 6.37122 25.1875H19.6287C21.103 25.1875 22.517 24.6019 23.5594 23.5594C24.6019 22.5169 25.1875 21.103 25.1875 19.6287V6.37122C25.1875 4.89696 24.6019 3.48307 23.5594 2.44061C22.517 1.39815 21.103 0.8125 19.6287 0.8125ZM9.05331 20.4904C9.0571 20.5584 9.04696 20.6264 9.02353 20.6904C9.00009 20.7544 8.96383 20.8127 8.91699 20.8623C8.87015 20.9116 8.81371 20.951 8.75112 20.9779C8.68855 21.0047 8.62114 21.0186 8.55304 21.0185H6.32954C6.19559 21.0149 6.06835 20.9591 5.9749 20.863C5.88146 20.767 5.8292 20.6383 5.82925 20.5043V11.249C5.82739 11.1821 5.83897 11.1156 5.86329 11.0533C5.88759 10.991 5.92412 10.9341 5.97077 10.8862C6.01741 10.8383 6.07321 10.8003 6.13484 10.7741C6.19645 10.7481 6.26265 10.7347 6.32954 10.7349H8.55304C8.61991 10.7347 8.68611 10.7481 8.74774 10.7741C8.80936 10.8003 8.86515 10.8383 8.9118 10.8862C8.95844 10.9341 8.995 10.991 9.0193 11.0533C9.04361 11.1156 9.05518 11.1821 9.05331 11.249V20.4904ZM7.3996 8.78926C7.03739 8.78652 6.68411 8.67661 6.38429 8.47339C6.08446 8.27016 5.8515 7.98273 5.71479 7.6473C5.57808 7.31188 5.54374 6.94349 5.61608 6.58858C5.68841 6.23366 5.86421 5.90811 6.1213 5.65295C6.37839 5.3978 6.70525 5.22446 7.0607 5.15481C7.41615 5.08515 7.78428 5.12227 8.11865 5.26151C8.45303 5.40075 8.7387 5.63586 8.93966 5.93723C9.14061 6.23857 9.24786 6.59267 9.24787 6.95489C9.24787 7.19696 9.19998 7.43664 9.10693 7.6601C9.01388 7.88356 8.8775 8.08641 8.70569 8.25692C8.53388 8.42745 8.33001 8.56227 8.10584 8.65364C7.88168 8.74501 7.64165 8.7911 7.3996 8.78926ZM20.9211 20.4765C20.9213 20.6031 20.8719 20.7248 20.7836 20.8156C20.6955 20.9064 20.5752 20.9592 20.4487 20.9629H18.1001C17.9735 20.9592 17.8534 20.9064 17.7651 20.8156C17.6769 20.7248 17.6276 20.6031 17.6276 20.4765V16.1962C17.6276 15.557 17.8223 13.4169 15.9323 13.4169C14.4591 13.4169 14.1674 14.9177 14.1117 15.5847V20.5737C14.1117 20.7004 14.0625 20.822 13.9742 20.9129C13.886 21.0037 13.7659 21.0565 13.6392 21.0601H11.3603C11.2964 21.0601 11.2331 21.0476 11.174 21.0231C11.115 20.9986 11.0614 20.9629 11.0163 20.9177C10.9711 20.8725 10.9353 20.8189 10.9109 20.7599C10.8864 20.7009 10.8737 20.6376 10.8737 20.5737V11.2072C10.8774 11.0807 10.9302 10.9606 11.0211 10.8724C11.1119 10.7841 11.2336 10.7347 11.3603 10.7349H13.6392C13.7659 10.7347 13.8875 10.7841 13.9784 10.8724C14.0692 10.9606 14.122 11.0807 14.1256 11.2072V12.0134C14.4584 11.5265 14.9176 11.1399 15.454 10.895C15.9902 10.65 16.5833 10.5562 17.169 10.6236C20.9629 10.6236 20.949 14.1674 20.949 16.1824L20.9211 20.4765Z" fill="white"/>
</svg>
