<svg width="50" height="40" viewBox="0 0 50 40" fill="none" xmlns="http://www.w3.org/2000/svg">
<path d="M49.6773 26.9386C49.343 26.7118 48.8871 26.7994 48.6589 27.133C48.5975 27.2229 47.122 29.3351 44.4124 29.3351C41.7028 29.3351 40.2274 27.2229 40.1674 27.1354C39.8975 26.7078 39.2186 26.7083 38.949 27.136C38.9342 27.158 37.4419 29.3352 34.7081 29.3352C32.4165 29.3352 31.008 27.8249 30.5915 27.3056V15.9339H49.2663C49.6716 15.9339 50.0001 15.6053 50.0001 15.2C50.0001 14.7946 49.6716 14.4661 49.2663 14.4661H43.3647V9.11745C43.3647 4.2651 39.4639 0.279752 34.6692 0.233366C32.3103 0.209635 30.0858 1.11413 28.4062 2.77751C27.593 3.58288 26.9584 4.51823 26.5183 5.53571C25.1618 2.44655 22.1111 0.267643 18.5733 0.233366C18.5442 0.233073 18.5151 0.232975 18.486 0.232975C16.1593 0.232975 13.9691 1.13463 12.3102 2.77751C10.6303 4.44128 9.70502 6.65641 9.70502 9.01481V14.4662H0.789596C0.384225 14.4662 0.055709 14.7947 0.055709 15.2001C0.055709 15.6054 0.384225 15.934 0.789596 15.934H9.70502V18.832C9.70502 19.2374 10.0335 19.5659 10.4389 19.5659C10.8443 19.5659 11.1728 19.2374 11.1728 18.832V9.01481C11.1728 7.05104 11.9435 5.20631 13.3431 3.82028C14.7422 2.43473 16.5931 1.6777 18.5592 1.70104C22.5523 1.73962 25.801 5.06667 25.801 9.11745V14.4661H23.946V9.01481C23.946 6.05583 21.5396 3.60719 18.5818 3.55651C18.5505 3.55602 18.5197 3.55573 18.4885 3.55573C17.0721 3.55573 15.73 4.10973 14.7005 5.12174C13.6374 6.16676 13.0278 7.61628 13.0278 9.0986V28.7951C12.0495 28.3038 11.4224 27.6101 11.1727 27.2972V21.7673C11.1727 21.362 10.8442 21.0335 10.4388 21.0335C10.0334 21.0335 9.70493 21.362 9.70493 21.7673V27.3047C9.28696 27.8258 7.87856 29.3351 5.58794 29.3351C2.87827 29.3351 1.40288 27.2229 1.34292 27.1354C1.11674 26.7991 0.660787 26.7098 0.324459 26.9359C-0.0118691 27.162 -0.101225 27.6179 0.124947 27.9544C0.203072 28.0707 2.08042 30.8029 5.58784 30.8029C7.98579 30.8029 9.62172 29.5259 10.4417 28.6808C11.2618 29.5259 12.8978 30.8029 15.2957 30.8029C17.693 30.8029 19.3271 29.5266 20.1464 28.6812C20.9666 29.5264 22.6025 30.8029 24.9998 30.8029C27.3978 30.8029 29.0337 29.5259 29.8538 28.6808C30.6738 29.5259 32.3098 30.8029 34.7077 30.8029C37.105 30.8029 38.7391 29.5266 39.5584 28.6812C40.3787 29.5264 42.0145 30.8029 44.4119 30.8029C47.9194 30.8029 49.7966 28.0707 49.8748 27.9544C50.1007 27.6189 50.0118 27.1655 49.6773 26.9386ZM14.4956 21.0336H25.801V23.0882H14.4956V21.0336ZM25.801 19.5658H14.4956V15.9339H25.801V19.5658ZM15.7295 6.16852C16.4987 5.41247 17.5024 5.00612 18.5566 5.02409C20.7191 5.0612 22.4784 6.85143 22.4784 9.01491V14.4663H14.4957V9.0987C14.4956 8.00729 14.9454 6.93932 15.7295 6.16852ZM20.7552 27.1354C20.4856 26.7101 19.81 26.7098 19.5384 27.1337C19.4771 27.2235 18.005 29.3351 15.2959 29.3351C15.0156 29.3351 14.7493 29.3115 14.4956 29.2709V24.5559H25.801V29.2708C25.5472 29.3114 25.2807 29.3351 25.0001 29.3351C22.2906 29.3351 20.8151 27.2229 20.7552 27.1354ZM27.2687 28.7948V9.01481C27.2687 7.05104 28.0394 5.20631 29.439 3.82028C30.8381 2.43473 32.6892 1.6777 34.655 1.70104C38.6482 1.73962 41.8969 5.06667 41.8969 9.11745V14.4661H40.0419V12.8347C40.0419 12.4294 39.7134 12.1008 39.3081 12.1008C38.9027 12.1008 38.5742 12.4294 38.5742 12.8347V14.4661H30.5914V9.0985C30.5914 8.00719 31.0412 6.93922 31.8253 6.16833C32.5945 5.41227 33.5963 5.00592 34.6524 5.02389C36.8149 5.061 38.5742 6.85124 38.5742 9.01471V9.89928C38.5742 10.3047 38.9027 10.6332 39.3081 10.6332C39.7134 10.6332 40.0419 10.3047 40.0419 9.89928V9.01471C40.0419 6.05573 37.6355 3.6071 34.6777 3.55641C34.6464 3.55592 34.6156 3.55563 34.5844 3.55563C33.168 3.55563 31.826 4.10963 30.7964 5.12165C29.7334 6.16667 29.1237 7.61618 29.1237 9.0985V27.2963C28.8733 27.6104 28.2462 28.3038 27.2687 28.7948Z" fill="#0181F5"/>
<path d="M20.1494 38.2995C17.4397 38.2995 15.9643 36.1873 15.9043 36.0998C15.6349 35.6747 14.9598 35.6743 14.6879 36.0974C14.6265 36.1874 13.151 38.2996 10.4415 38.2996C7.73188 38.2996 6.25639 36.1874 6.19643 36.0999C5.97026 35.7634 5.5143 35.6742 5.17797 35.9004C4.84165 36.1264 4.75229 36.5824 4.97846 36.9187C5.05659 37.035 6.93383 39.7673 10.4414 39.7673C12.8393 39.7673 14.4752 38.4903 15.2953 37.6452C16.1153 38.4903 17.7513 39.7673 20.1493 39.7673C20.5546 39.7673 20.8832 39.4387 20.8832 39.0334C20.8832 38.628 20.5547 38.2995 20.1494 38.2995Z" fill="#0181F5"/>
<path d="M44.823 35.9026C44.4883 35.6761 44.0327 35.7642 43.8047 36.098C43.7434 36.1878 42.2714 38.2994 39.5622 38.2994C36.8526 38.2994 35.3772 36.1872 35.3172 36.0997C35.0475 35.6724 34.369 35.6725 34.0993 36.0997C34.0844 36.1217 32.5886 38.2994 29.8542 38.2994C27.1446 38.2994 25.6692 36.1872 25.6092 36.0997C25.3396 35.6744 24.664 35.6741 24.3924 36.098C24.3866 36.1065 23.7944 36.9632 22.7019 37.6008C22.3519 37.8052 22.2337 38.2546 22.4381 38.6046C22.6425 38.9545 23.0917 39.0726 23.4419 38.8685C24.1161 38.4749 24.6373 38.0175 24.9997 37.6445C25.8196 38.4896 27.4557 39.7672 29.8542 39.7672C32.2522 39.7672 33.8881 38.4903 34.7081 37.6451C35.5282 38.4903 37.1642 39.7672 39.562 39.7672C43.0701 39.7672 44.9438 37.0344 45.0218 36.9181C45.2472 36.5822 45.1578 36.129 44.823 35.9026Z" fill="#0181F5"/>
</svg>
