<svg width="50" height="50" viewBox="0 0 50 50" fill="none" xmlns="http://www.w3.org/2000/svg">
<g clip-path="url(#clip0_1593_1026)">
<path d="M18.2705 45.2759C17.8612 45.2759 17.4862 45.5408 17.3497 45.9268C17.2116 46.3169 17.341 46.7628 17.6654 47.0191C17.9866 47.273 18.4466 47.2973 18.7925 47.0781C19.1294 46.8647 19.3052 46.4567 19.2292 46.0652C19.1412 45.6121 18.7316 45.2759 18.2705 45.2759Z" fill="#0181F5"/>
<path d="M36.1829 35.5744C39.3852 32.3695 39.3852 27.1548 36.1829 23.9499C34.6313 22.3971 32.5684 21.542 30.3743 21.542C28.18 21.542 26.1171 22.3971 24.5658 23.9498C21.3635 27.1547 21.3635 32.3695 24.5658 35.5743C26.1172 37.1271 28.1801 37.9823 30.3743 37.9823C32.5684 37.9823 34.6313 37.1271 36.1829 35.5744ZM25.9474 25.3303C27.1298 24.1469 28.7019 23.4952 30.3742 23.4952C32.0465 23.4952 33.6187 24.147 34.8012 25.3305C37.2429 27.7741 37.2429 31.7502 34.8012 34.1938C33.6186 35.3773 32.0464 36.0291 30.3742 36.0291C28.702 36.0291 27.1297 35.3773 25.9474 34.1938C23.5057 31.7501 23.5058 27.774 25.9474 25.3303Z" fill="#0181F5"/>
<path d="M48.9073 43.0178L44.1833 38.2899C44 38.1066 43.7515 38.0036 43.4924 38.0036C43.2333 38.0036 42.9848 38.1066 42.8016 38.2899L41.5382 39.5543L40.1463 38.1607C44.4934 33.1021 44.2722 25.4411 39.4825 20.6475C37.6125 18.776 35.2688 17.5508 32.7219 17.0841C27.6215 8.34591 19.2631 1.13683 18.9062 0.831052C18.5406 0.517856 18.0013 0.517953 17.6357 0.831052C17.4565 0.984476 13.197 4.65054 8.86863 9.92918C6.31461 13.044 4.27635 16.0697 2.81027 18.9222C0.945547 22.5506 0 25.9225 0 28.9442C0 37.2525 5.6015 44.5259 13.6218 46.6319C13.705 46.6536 13.7884 46.6641 13.8705 46.6641C14.3036 46.6641 14.6992 46.3738 14.8144 45.9352C14.9514 45.4135 14.6396 44.8796 14.1179 44.7426C6.95556 42.862 1.95321 36.3654 1.95321 28.9442C1.95321 18.3202 15.1894 5.67891 18.2716 2.88016C20.2098 4.63726 26.1613 10.2788 30.309 16.8719C26.8926 16.8888 23.6834 18.2282 21.266 20.6476C16.2443 25.6734 16.2443 33.8511 21.266 38.8769C23.0283 40.6406 25.2113 41.8303 27.5886 42.3521C26.0247 43.4409 24.2739 44.255 22.4399 44.7386C21.9184 44.8761 21.6071 45.4103 21.7445 45.9319C21.8602 46.37 22.2555 46.6598 22.6882 46.6598C22.7707 46.6598 22.8545 46.6493 22.938 46.6273C25.6693 45.9071 28.235 44.5333 30.3628 42.6525H30.3744C33.4873 42.6525 36.4317 41.5549 38.766 39.5426L40.1578 40.9359L38.8932 42.2015C38.5122 42.5829 38.5122 43.2008 38.8932 43.5821L43.6141 48.3068C44.3209 49.0142 45.2607 49.4037 46.2608 49.4037C47.2607 49.4037 48.2006 49.0142 48.9074 48.3068C50.3643 46.8487 50.3643 44.476 48.9073 43.0178ZM22.6477 22.028C24.7116 19.9625 27.4555 18.8249 30.3742 18.8249C33.2929 18.8249 36.0368 19.9625 38.1007 22.028C42.3619 26.2925 42.3619 33.2315 38.1007 37.4961C36.0368 39.5617 33.2929 40.6993 30.3742 40.6993C27.4555 40.6993 24.7116 39.5617 22.6477 37.4961C18.3865 33.2316 18.3865 26.2926 22.6477 22.028ZM47.5256 46.9262C47.1878 47.2643 46.7385 47.4505 46.2607 47.4505C45.7827 47.4505 45.3336 47.2643 44.9958 46.9262L40.9647 42.8919L43.4925 40.3619L47.5257 44.3984C48.2219 45.0954 48.2219 46.2293 47.5256 46.9262Z" fill="#0181F5"/>
<path d="M31.1147 31.9855L33.1636 29.1547C33.4798 28.7178 33.3819 28.1072 32.9451 27.791C32.5083 27.4749 31.8977 27.5725 31.5814 28.0095L30.1884 29.9339L29.527 29.3024C29.1368 28.93 28.5187 28.9442 28.1462 29.3345C27.7737 29.7247 27.7882 30.3429 28.1782 30.7153L29.6491 32.1193C29.8316 32.2935 30.0734 32.3895 30.3233 32.3895C30.3529 32.3895 30.3825 32.3882 30.4122 32.3854C30.6932 32.3599 30.9492 32.2141 31.1147 31.9855Z" fill="#0181F5"/>
</g>
<defs>
<clipPath id="clip0_1593_1026">
<rect width="50" height="50" fill="white"/>
</clipPath>
</defs>
</svg>
