<svg width="50" height="50" viewBox="0 0 50 50" fill="none" xmlns="http://www.w3.org/2000/svg">
<g clip-path="url(#clip0_1593_1048)">
<path d="M7.4655 23.7192C7.43133 23.7933 7.39633 23.8633 7.36217 23.9392C6.68944 25.4493 5.5884 26.7288 4.1955 27.6192L1.893 29.0833C1.30779 29.4566 0.923391 30.0751 0.847751 30.7651C0.772112 31.4551 1.01339 32.1421 1.50383 32.6333L11.543 42.6733C11.9718 43.1012 12.5531 43.341 13.1588 43.34C13.2447 43.3424 13.3307 43.3402 13.4163 43.3333C14.1071 43.259 14.7262 42.8733 15.0972 42.2858C16.1615 40.6524 17.7449 39.425 19.5922 38.8017C20.2895 38.5535 20.9572 38.2287 21.583 37.8333L23.6138 39.8633C24.4831 40.7361 25.8603 40.8406 26.8513 40.1092L36.4938 49.7558C36.8208 50.0717 37.3406 50.0671 37.662 49.7457C37.9835 49.4242 37.988 48.9045 37.6722 48.5775L28.053 38.9583L31.458 35.5533L39.2022 43.2975C39.5291 43.6133 40.0489 43.6088 40.3703 43.2874C40.6918 42.9659 40.6963 42.4462 40.3805 42.1192L32.6363 34.375L35.6247 31.3867L38.7855 34.5475C39.1125 34.8633 39.6322 34.8588 39.9537 34.5374C40.2751 34.2159 40.2796 33.6962 39.9638 33.3692L36.803 30.2083L39.7913 27.22L46.2855 33.7142C46.6125 34.03 47.1322 34.0255 47.4537 33.704C47.7751 33.3826 47.7796 32.8628 47.4638 32.5358L40.943 26.015C41.6745 25.024 41.5699 23.6467 40.6972 22.7775L35.7655 17.8458C35.8139 17.6404 35.8393 17.4302 35.8413 17.2192C35.844 16.4724 35.5475 15.7557 35.018 15.2292C34.735 14.9502 34.3934 14.7379 34.018 14.6075L35.018 13.6075C36.1157 12.5079 36.1157 10.7271 35.018 9.6275C33.9051 8.56251 32.1509 8.56251 31.038 9.6275L30.5155 10.15C30.235 9.39589 29.6421 8.79994 28.8894 8.51561C28.1367 8.23128 27.2979 8.28636 26.5888 8.66667L18.6597 0.739169C17.6718 -0.213838 16.1067 -0.213838 15.1188 0.739169L1.57217 14.2817C1.0986 14.7491 0.832031 15.3867 0.832031 16.0521C0.832031 16.7175 1.0986 17.3551 1.57217 17.8225L7.4655 23.7192ZM39.7622 24.5458C39.7626 24.767 39.675 24.9793 39.5188 25.1358L25.9688 38.6858C25.6382 38.9999 25.1195 38.9999 24.7888 38.6858L22.9463 36.8433C23.1805 36.6442 23.3272 36.5033 23.3447 36.4858L30.3447 29.4817C30.8971 28.9285 31.1947 28.1707 31.1662 27.3894C31.1378 26.6082 30.7858 25.874 30.1947 25.3625C29.9451 25.1489 29.6584 24.9831 29.3488 24.8733L34.8905 19.3325L39.5147 23.9567C39.6727 24.112 39.7619 24.3242 39.7622 24.5458ZM28.7038 10.3375C29.15 10.7866 29.15 11.5117 28.7038 11.9608L22.1663 18.5C21.9497 18.7092 21.8628 19.0191 21.9391 19.3104C22.0153 19.6018 22.2429 19.8293 22.5342 19.9056C22.8256 19.9818 23.1354 19.895 23.3447 19.6783L29.8813 13.1417L32.2147 10.8083C32.6685 10.3736 33.3842 10.3736 33.838 10.8083C34.2846 11.2573 34.2846 11.9827 33.838 12.4317L24.968 21.2992C24.7514 21.5084 24.6645 21.8182 24.7408 22.1096C24.817 22.4009 25.0446 22.6285 25.3359 22.7048C25.6273 22.781 25.9371 22.6941 26.1463 22.4775L32.2163 16.4075C32.67 15.9724 33.386 15.9724 33.8397 16.4075C34.2863 16.8564 34.2863 17.5819 33.8397 18.0308L26.8397 25.035C26.7836 25.0965 26.7372 25.1662 26.7022 25.2417C26.5565 25.3427 26.4199 25.4562 26.2938 25.5808L22.633 29.2367C22.3072 29.5621 22.3068 30.09 22.6322 30.4158C22.9576 30.7417 23.4855 30.7421 23.8113 30.4167L27.468 26.76C27.8995 26.3024 28.6063 26.2432 29.108 26.6225C29.3492 26.8313 29.4928 27.1309 29.5047 27.4498C29.5165 27.7686 29.3955 28.078 29.1705 28.3042L22.1705 35.3042C21.2665 36.1439 20.2045 36.7954 19.0463 37.2208C16.843 37.9678 14.9558 39.4357 13.6897 41.3875C13.5881 41.5467 13.4198 41.6512 13.2321 41.6718C13.0444 41.6924 12.8575 41.6267 12.7238 41.4933L2.68217 31.455C2.54844 31.3214 2.4826 31.1342 2.50318 30.9463C2.52376 30.7583 2.62852 30.5899 2.788 30.4883L5.088 29.025C6.75644 27.9604 8.07592 26.4297 8.883 24.6225C9.54737 22.9797 10.4907 21.464 11.6713 20.1425L20.9313 10.8833C21.3622 10.4252 22.0693 10.3658 22.5705 10.7458C22.8117 10.9547 22.9553 11.2543 22.9672 11.5731C22.979 11.8919 22.858 12.2013 22.633 12.4275L19.3647 15.6958C19.148 15.9051 19.0612 16.2149 19.1374 16.5063C19.2137 16.7976 19.4412 17.0252 19.7326 17.1014C20.0239 17.1777 20.3338 17.0908 20.543 16.8742L23.8113 13.6058L27.083 10.3375C27.5365 9.90438 28.2504 9.90438 28.7038 10.3375ZM2.74967 15.4642L16.3013 1.91C16.6289 1.59066 17.1519 1.59251 17.4772 1.91417L25.3105 9.7475L24.4372 10.62C24.2765 10.1826 24.0093 9.79224 23.6597 9.48417C22.4994 8.52581 20.7972 8.62126 19.7513 9.70334L10.493 18.9642C9.59922 19.9136 8.84399 20.9844 8.24967 22.145L2.74383 16.645C2.58466 16.4894 2.49542 16.2759 2.49652 16.0534C2.49762 15.8308 2.58897 15.6182 2.74967 15.4642Z" fill="#0181F5"/>
<path d="M46.4937 41.839L47.7437 43.089C48.0707 43.4048 48.5904 43.4003 48.9119 43.0789C49.2333 42.7574 49.2378 42.2377 48.922 41.9107L47.672 40.6607C47.345 40.3449 46.8253 40.3494 46.5038 40.6708C46.1824 40.9923 46.1779 41.512 46.4937 41.839Z" fill="#0181F5"/>
<path d="M43.9937 39.339C44.3207 39.6548 44.8404 39.6503 45.1619 39.3289C45.4833 39.0074 45.4878 38.4877 45.172 38.1607L43.922 36.9107C43.595 36.5949 43.0753 36.5994 42.7538 36.9208C42.4324 37.2423 42.4279 37.762 42.7437 38.089L43.9937 39.339Z" fill="#0181F5"/>
<path d="M42.744 43.089C43.0694 43.4143 43.5969 43.4143 43.9223 43.089L45.1723 41.839C45.4881 41.512 45.4836 40.9923 45.1622 40.6708C44.8407 40.3494 44.321 40.3449 43.994 40.6607L42.744 41.9107C42.4187 42.2361 42.4187 42.7636 42.744 43.089Z" fill="#0181F5"/>
<path d="M46.494 39.339C46.8194 39.6643 47.3469 39.6643 47.6723 39.339L48.9223 38.089C49.2381 37.762 49.2336 37.2423 48.9122 36.9208C48.5907 36.5994 48.071 36.5949 47.744 36.9107L46.494 38.1607C46.1687 38.4861 46.1687 39.0136 46.494 39.339Z" fill="#0181F5"/>
<path d="M43.3333 14.3827C43.7936 14.3827 44.1667 14.0096 44.1667 13.5493V11.8826C44.1667 11.4224 43.7936 11.0493 43.3333 11.0493C42.8731 11.0493 42.5 11.4224 42.5 11.8826V13.5493C42.5 14.0096 42.8731 14.3827 43.3333 14.3827Z" fill="#0181F5"/>
<path d="M44.1667 18.5493V16.8826C44.1667 16.4224 43.7936 16.0493 43.3333 16.0493C42.8731 16.0493 42.5 16.4224 42.5 16.8826V18.5493C42.5 19.0096 42.8731 19.3826 43.3333 19.3826C43.7936 19.3826 44.1667 19.0096 44.1667 18.5493Z" fill="#0181F5"/>
<path d="M44.9993 16.049H46.666C47.1263 16.049 47.4993 15.6759 47.4993 15.2157C47.4993 14.7554 47.1263 14.3823 46.666 14.3823H44.9993C44.5391 14.3823 44.166 14.7554 44.166 15.2157C44.166 15.6759 44.5391 16.049 44.9993 16.049Z" fill="#0181F5"/>
<path d="M39.9993 16.049H41.666C42.1263 16.049 42.4993 15.6759 42.4993 15.2157C42.4993 14.7554 42.1263 14.3823 41.666 14.3823H39.9993C39.5391 14.3823 39.166 14.7554 39.166 15.2157C39.166 15.6759 39.5391 16.049 39.9993 16.049Z" fill="#0181F5"/>
</g>
<defs>
<clipPath id="clip0_1593_1048">
<rect width="50" height="50" fill="white"/>
</clipPath>
</defs>
</svg>
