<svg width="50" height="50" viewBox="0 0 50 50" fill="none" xmlns="http://www.w3.org/2000/svg">
<g clip-path="url(#clip0_1593_1063)">
<path d="M0.781548 49.9998H31.5746C31.7818 49.9998 31.9805 49.9174 32.127 49.7709C32.2736 49.6244 32.3559 49.4257 32.3559 49.2185V41.7471C32.3678 40.6122 32.0166 39.5032 31.3535 38.5822C30.6903 37.6611 29.75 36.9762 28.6699 36.6276L20.7793 33.9973V31.5057C20.7793 31.4788 20.7779 31.452 20.7753 31.4257C21.774 30.6386 22.5565 29.6109 23.0495 28.4387C23.6203 28.4372 24.1788 28.2733 24.6599 27.9663C25.141 27.6592 25.5247 27.2216 25.7664 26.7045C26.0081 26.1874 26.0976 25.6123 26.0247 25.0463C25.9517 24.4802 25.7191 23.9466 25.3542 23.5078C25.4706 22.9695 25.6657 21.976 25.75 21.4044C25.7757 21.2292 25.8012 21.0649 25.8253 20.9094C26.052 19.449 26.1886 18.5675 25.3103 16.9137C24.356 15.1183 22.8972 13.6414 21.1138 12.6648C19.3304 11.6883 17.3003 11.2549 15.2736 11.418C13.2469 11.581 11.3122 12.3335 9.7079 13.5826C8.10359 14.8317 6.89979 16.5229 6.24483 18.4478C6.23093 18.4887 6.22044 18.5306 6.21348 18.5732C5.95303 20.1626 6.17442 21.8219 6.87002 23.5092C6.50582 23.9478 6.27374 24.4808 6.20085 25.0462C6.12795 25.6116 6.21724 26.1861 6.4583 26.7027C6.69936 27.2193 7.08227 27.6568 7.56241 27.9641C8.04255 28.2715 8.60015 28.436 9.17022 28.4386C9.67728 29.6383 10.4854 30.6867 11.5164 31.4825C11.5359 31.4977 11.5565 31.5118 11.5765 31.5267V33.9974L3.68585 36.6276C2.60583 36.9763 1.66562 37.6612 1.00255 38.5823C0.339474 39.5033 -0.0117092 40.6123 0.000297953 41.7471V49.2185C0.000297953 49.4257 0.082608 49.6244 0.229121 49.7709C0.375634 49.9174 0.574348 49.9998 0.781548 49.9998ZM18.0978 39.5963L17.7835 41.3921H14.5725L14.2916 39.786C14.2773 39.7046 14.2502 39.626 14.2111 39.5532L16.1781 38.1567L18.1128 39.5306C18.1071 39.5519 18.1018 39.5738 18.0978 39.5963ZM14.7855 42.9546H17.5717L18.5301 48.4373H13.826L14.7855 42.9546ZM30.7939 41.7471V48.4373H27.0574V45.0187C27.0574 44.8115 26.9751 44.6128 26.8286 44.4663C26.6821 44.3198 26.4834 44.2374 26.2762 44.2374C26.069 44.2374 25.8703 44.3198 25.7237 44.4663C25.5772 44.6128 25.4949 44.8115 25.4949 45.0187V48.4373H20.1162L19.1269 42.7808L19.5206 40.5299L21.7569 42.118C21.8738 42.201 22.0113 42.2503 22.1543 42.2604C22.2973 42.2704 22.4403 42.241 22.5677 42.1752C22.6951 42.1095 22.8019 42.0099 22.8765 41.8875C22.9511 41.7651 22.9905 41.6245 22.9905 41.4811V36.3812L28.1761 38.1097C28.9433 38.3576 29.6111 38.8442 30.082 39.4987C30.5529 40.1531 30.8021 40.9409 30.7934 41.7471H30.7939ZM21.4286 35.8603V39.968L17.5281 37.1981L20.0562 35.4028L21.4286 35.8603ZM23.5341 26.788C23.6904 25.8844 23.6804 24.9599 23.5043 24.0599C23.7882 24.1558 24.0352 24.3376 24.2113 24.5801C24.3873 24.8226 24.4836 25.1138 24.4869 25.4134C24.4902 25.713 24.4002 26.0063 24.2295 26.2526C24.0588 26.4988 23.8158 26.686 23.5341 26.788ZM7.74532 18.8894C8.3123 17.2627 9.34136 15.8366 10.7065 14.7857C12.0716 13.7349 13.7135 13.105 15.4312 12.9731C17.1489 12.8412 18.8677 13.2131 20.3773 14.0432C21.8868 14.8733 23.1215 16.1256 23.9302 17.6467C24.5649 18.8415 24.4934 19.3023 24.2813 20.67C24.2565 20.8291 24.2305 20.9974 24.204 21.1769C24.1507 21.5391 24.0489 22.0862 23.9541 22.5622C23.6585 22.4676 23.3501 22.4195 23.0398 22.4197H23.0119C22.1286 19.5048 21.1309 17.9958 19.8816 17.6798C19.3339 17.5411 18.4804 17.5783 17.5271 18.5424C17.4819 18.5879 17.4426 18.6388 17.4099 18.6939C15.9812 21.1081 13.4296 22.2611 9.82774 22.1216C9.7046 22.1169 9.58208 22.1414 9.47023 22.1931C9.35838 22.2448 9.26039 22.3224 9.18428 22.4193C8.8445 22.4193 8.50721 22.4771 8.18682 22.5903C7.7128 21.3121 7.56417 20.0697 7.74532 18.8894ZM7.73848 25.4293C7.73896 25.1376 7.82751 24.8529 7.99254 24.6123C8.15757 24.3718 8.39139 24.1866 8.66338 24.0812C8.50866 24.975 8.51246 25.8891 8.67461 26.7816C8.39987 26.6777 8.16319 26.4928 7.996 26.2513C7.82881 26.0098 7.73899 25.7232 7.73848 25.4294V25.4293ZM10.3529 23.6959H10.415C14.2564 23.6959 17.0419 22.3125 18.7016 19.5785C18.9359 19.3539 19.2449 19.1298 19.4985 19.1946C19.7377 19.255 20.5956 19.717 21.591 23.1218C21.5992 23.1498 21.609 23.1774 21.6203 23.2042C22.1289 24.4194 22.2216 25.7686 21.8838 27.0418C21.5459 28.3151 20.7967 29.4409 19.7526 30.2441C18.7085 31.0473 17.4281 31.4828 16.1108 31.4827C14.7935 31.4827 13.5132 31.0472 12.4691 30.2439C11.5022 29.4892 10.7836 28.4618 10.4064 27.2946C10.0292 26.1274 10.0106 24.8739 10.3529 23.6959ZM16.1107 33.0431C17.1821 33.043 18.241 32.8146 19.2172 32.3732V34.0818L16.1781 36.24L13.139 34.0818V32.4343C14.0781 32.8364 15.0891 33.0435 16.1107 33.0431ZM12.3008 35.4028L14.8288 37.1981L10.928 39.968V35.8603L12.3008 35.4028ZM1.5628 41.7471C1.55404 40.941 1.80331 40.1531 2.27417 39.4987C2.74504 38.8443 3.41283 38.3577 4.17999 38.1098L9.36553 36.3813V41.4812C9.36554 41.6246 9.405 41.7652 9.47958 41.8876C9.55416 42.01 9.66099 42.1096 9.78837 42.1753C9.91575 42.2411 10.0588 42.2705 10.2018 42.2605C10.3448 42.2504 10.4822 42.2011 10.5991 42.1181L12.8355 40.5301L13.2291 42.7809L12.2398 48.4373H6.86114V45.0187C6.86114 44.8115 6.77883 44.6128 6.63232 44.4663C6.4858 44.3198 6.28709 44.2374 6.07989 44.2374C5.87269 44.2374 5.67397 44.3198 5.52746 44.4663C5.38095 44.6128 5.29864 44.8115 5.29864 45.0187V48.4373H1.5628V41.7471ZM50.0003 17.2986C50.0003 17.5058 49.918 17.7045 49.7715 17.851C49.625 17.9975 49.4262 18.0798 49.219 18.0798H28.6443C28.4371 18.0798 28.2384 17.9975 28.0919 17.851C27.9454 17.7045 27.8631 17.5058 27.8631 17.2986C27.8631 17.0914 27.9454 16.8927 28.0919 16.7462C28.2384 16.5996 28.4371 16.5173 28.6443 16.5173H31.6095V11.6541C31.6095 11.4469 31.6918 11.2481 31.8383 11.1016C31.9848 10.9551 32.1835 10.8728 32.3907 10.8728C32.5979 10.8728 32.7966 10.9551 32.9432 11.1016C33.0897 11.2481 33.172 11.4469 33.172 11.6541V16.5173H35.9701V7.68667C35.9701 7.47947 36.0524 7.28076 36.1989 7.13424C36.3455 6.98773 36.5442 6.90542 36.7514 6.90542C36.9586 6.90542 37.1573 6.98773 37.3038 7.13424C37.4503 7.28076 37.5326 7.47947 37.5326 7.68667V16.5173H40.3308V9.45591C40.3308 9.24871 40.4131 9.04999 40.5596 8.90348C40.7061 8.75697 40.9048 8.67466 41.112 8.67466C41.3192 8.67466 41.5179 8.75697 41.6644 8.90348C41.811 9.04999 41.8933 9.24871 41.8933 9.45591V16.5173H44.6915V5.43481C44.6915 5.22761 44.7738 5.0289 44.9203 4.88239C45.0668 4.73588 45.2656 4.65356 45.4728 4.65356C45.68 4.65356 45.8787 4.73588 46.0252 4.88239C46.1717 5.0289 46.254 5.22761 46.254 5.43481V16.5173H49.219C49.4262 16.5173 49.625 16.5996 49.7715 16.7462C49.918 16.8927 50.0003 17.0914 50.0003 17.2986ZM44.9431 0.20669C45.0957 0.0683642 45.2969 -0.00405984 45.5027 0.00518177C45.7085 0.0144234 45.9023 0.104583 46.042 0.256035C46.1816 0.407488 46.2558 0.607973 46.2484 0.813854C46.2409 1.01973 46.1525 1.21434 46.0023 1.35532L41.6416 5.37642C41.5327 5.47684 41.3975 5.54423 41.2517 5.57072C41.1059 5.59721 40.9557 5.58171 40.8184 5.52603L36.9134 3.94165L32.9165 7.57788C32.7631 7.71609 32.5611 7.78792 32.3549 7.77766C32.1486 7.76741 31.9548 7.67591 31.8158 7.52316C31.6768 7.37042 31.604 7.16886 31.6132 6.96255C31.6224 6.75625 31.7129 6.56198 31.8649 6.42222L36.2256 2.45474C36.3345 2.35554 36.4692 2.28916 36.6142 2.26324C36.7592 2.23732 36.9086 2.25292 37.0451 2.30825L40.9467 3.89116L44.9431 0.20669ZM28.4746 24.6384C28.3011 24.677 28.146 24.7736 28.0348 24.9122C27.9236 25.0509 27.863 25.2233 27.863 25.401V27.3728C27.863 27.5505 27.9236 27.7229 28.0348 27.8616C28.146 28.0002 28.3011 28.0968 28.4746 28.1354L29.0737 28.2687C29.1726 28.5738 29.2956 28.8705 29.4416 29.156L29.112 29.6741C29.0166 29.824 28.9752 30.0021 28.9946 30.1788C29.014 30.3555 29.0931 30.5203 29.2188 30.6459L30.613 32.0399C30.7387 32.1656 30.9034 32.2446 31.0801 32.264C31.2567 32.2834 31.4347 32.242 31.5847 32.1466L32.1027 31.8171C32.3883 31.9631 32.685 32.0861 32.9901 32.185L33.1233 32.784C33.1619 32.9575 33.2585 33.1127 33.3972 33.2239C33.5358 33.3351 33.7082 33.3957 33.8859 33.3957H35.8574C36.0352 33.3957 36.2076 33.3351 36.3462 33.2239C36.4848 33.1127 36.5814 32.9575 36.62 32.784L36.7532 32.185C37.0584 32.0862 37.3551 31.9632 37.6407 31.8171L38.1583 32.1466C38.3083 32.242 38.4862 32.2834 38.6629 32.264C38.8396 32.2446 39.0043 32.1656 39.13 32.0399L40.5242 30.6459C40.6499 30.5203 40.729 30.3555 40.7484 30.1788C40.7678 30.0021 40.7264 29.824 40.631 29.6741L40.3014 29.156C40.4473 28.8704 40.5704 28.5737 40.6693 28.2687L41.2684 28.1354C41.4418 28.0968 41.597 28.0002 41.7082 27.8616C41.8194 27.7229 41.88 27.5505 41.88 27.3728V25.4008C41.88 25.2231 41.8194 25.0507 41.7082 24.9121C41.597 24.7734 41.4418 24.6768 41.2684 24.6382L40.6692 24.505C40.5704 24.2 40.4473 23.9033 40.3014 23.6177L40.631 23.0996C40.7264 22.9496 40.7678 22.7716 40.7483 22.5949C40.7289 22.4182 40.6498 22.2535 40.5241 22.1278L39.1301 20.7337C39.0044 20.6081 38.8396 20.529 38.6629 20.5096C38.4863 20.4902 38.3083 20.5317 38.1583 20.6271L37.6407 20.9566C37.3551 20.8106 37.0583 20.6876 36.7532 20.5886L36.62 19.9896C36.5814 19.8161 36.4848 19.661 36.3462 19.5498C36.2075 19.4387 36.0351 19.3781 35.8574 19.3781H33.8859C33.7082 19.3781 33.5358 19.4387 33.3972 19.5498C33.2585 19.661 33.162 19.8161 33.1233 19.9896L32.9901 20.5886C32.685 20.6875 32.3883 20.8106 32.1027 20.9566L31.5847 20.6271C31.4347 20.5317 31.2567 20.4902 31.08 20.5096C30.9034 20.529 30.7386 20.6081 30.6129 20.7337L29.219 22.1278C29.0934 22.2535 29.0143 22.4182 28.9948 22.5949C28.9754 22.7716 29.0168 22.9496 29.1122 23.0996L29.4418 23.6177C29.2958 23.9033 29.1728 24.2 29.0738 24.5051L28.4746 24.6384ZM29.4255 26.0276L29.8691 25.9291C30.0126 25.8971 30.1441 25.8254 30.2486 25.7221C30.3531 25.6189 30.4264 25.4882 30.46 25.3452C30.5715 24.8712 30.7593 24.4184 31.016 24.0046C31.0934 23.8797 31.134 23.7355 31.1331 23.5885C31.1322 23.4416 31.0899 23.2979 31.011 23.1739L30.7669 22.7898L31.2747 22.282L31.6588 22.5261C31.7827 22.6049 31.9263 22.6471 32.0731 22.648C32.2199 22.6489 32.364 22.6084 32.4889 22.5311C32.9027 22.2744 33.3555 22.0866 33.8296 21.9751C33.9726 21.9415 34.1033 21.8683 34.2065 21.7638C34.3098 21.6593 34.3815 21.5278 34.4135 21.3844L34.512 20.9408H35.2304L35.329 21.3844C35.3609 21.5278 35.4326 21.6594 35.5359 21.7639C35.6392 21.8684 35.7699 21.9416 35.9129 21.9752C36.387 22.0867 36.8398 22.2745 37.2536 22.5312C37.3785 22.6084 37.5226 22.6489 37.6694 22.648C37.8162 22.6471 37.9598 22.6049 38.0837 22.5261L38.4678 22.282L38.9756 22.7898L38.7314 23.1739C38.6526 23.2979 38.6103 23.4416 38.6094 23.5885C38.6085 23.7355 38.6491 23.8797 38.7265 24.0046C38.9832 24.4185 39.171 24.8713 39.2825 25.3454C39.3162 25.4884 39.3894 25.619 39.4939 25.7222C39.5985 25.8255 39.7299 25.8972 39.8733 25.9291L40.317 26.0276V26.746L39.8733 26.8447C39.7299 26.8766 39.5984 26.9483 39.4939 27.0516C39.3894 27.1548 39.3162 27.2855 39.2825 27.4285C39.171 27.9025 38.9832 28.3553 38.7265 28.7691C38.6491 28.894 38.6085 29.0382 38.6094 29.1852C38.6103 29.3321 38.6526 29.4759 38.7314 29.5999L38.9756 29.9838L38.4678 30.4917L38.0837 30.2475C37.9598 30.1688 37.8162 30.1266 37.6694 30.1257C37.5225 30.1248 37.3785 30.1654 37.2536 30.2426C36.8397 30.4993 36.3869 30.687 35.9129 30.7985C35.7699 30.8321 35.6392 30.9054 35.536 31.0099C35.4327 31.1144 35.361 31.2459 35.3291 31.3893L35.2305 31.833H34.5121L34.4136 31.3893C34.3817 31.2459 34.3099 31.1143 34.2066 31.0098C34.1033 30.9053 33.9727 30.832 33.8296 30.7984C33.3556 30.6869 32.9028 30.4992 32.489 30.2425C32.3641 30.1653 32.22 30.1248 32.0732 30.1257C31.9264 30.1265 31.7828 30.1688 31.6589 30.2475L31.2748 30.4917L30.767 29.9838L31.0111 29.5999C31.09 29.4759 31.1323 29.3321 31.1332 29.1852C31.1341 29.0382 31.0935 28.894 31.0161 28.7691C30.7594 28.3552 30.5716 27.9024 30.4601 27.4283C30.4264 27.2853 30.3531 27.1547 30.2486 27.0515C30.1441 26.9482 30.0126 26.8766 29.8692 26.8447L29.4256 26.746L29.4255 26.0276ZM34.8717 29.697C35.5265 29.697 36.1665 29.5029 36.7109 29.1391C37.2553 28.7753 37.6797 28.2583 37.9302 27.6534C38.1808 27.0484 38.2464 26.3828 38.1186 25.7406C37.9909 25.0984 37.6756 24.5086 37.2126 24.0456C36.7496 23.5826 36.1597 23.2673 35.5175 23.1395C34.8754 23.0118 34.2097 23.0774 33.6048 23.3279C32.9999 23.5785 32.4828 24.0028 32.1191 24.5472C31.7553 25.0917 31.5611 25.7317 31.5611 26.3865C31.5621 27.2642 31.9112 28.1057 32.5318 28.7263C33.1525 29.347 33.994 29.6961 34.8717 29.697ZM34.8717 24.6384C35.2174 24.6384 35.5554 24.7409 35.8428 24.933C36.1303 25.1251 36.3544 25.3981 36.4867 25.7175C36.619 26.0369 36.6536 26.3884 36.5861 26.7275C36.5187 27.0666 36.3522 27.3781 36.1077 27.6225C35.8633 27.867 35.5518 28.0335 35.2127 28.1009C34.8736 28.1684 34.5222 28.1338 34.2027 28.0015C33.8833 27.8692 33.6103 27.6451 33.4182 27.3576C33.2262 27.0702 33.1236 26.7322 33.1236 26.3865C33.1241 25.923 33.3085 25.4787 33.6362 25.151C33.9639 24.8232 34.4082 24.6389 34.8717 24.6384Z" fill="#0181F5"/>
</g>
<defs>
<clipPath id="clip0_1593_1063">
<rect width="50" height="50" fill="white"/>
</clipPath>
</defs>
</svg>
