<svg width="60" height="60" viewBox="0 0 60 60" fill="none" xmlns="http://www.w3.org/2000/svg">
<g clip-path="url(#clip0_1713_1977)">
<path d="M43.2229 14.061L45.6229 15.375L46.9369 17.775C47.1394 18.1447 47.4375 18.453 47.8001 18.6678C48.1627 18.8826 48.5764 18.996 48.9979 18.996C49.4193 18.996 49.833 18.8826 50.1956 18.6678C50.5582 18.453 50.8564 18.1447 51.0589 17.775L52.3729 15.375L54.7729 14.061C55.1425 13.8585 55.4509 13.5604 55.6657 13.1978C55.8805 12.8352 55.9938 12.4215 55.9938 12C55.9938 11.5786 55.8805 11.1649 55.6657 10.8023C55.4509 10.4397 55.1425 10.1415 54.7729 9.93903L52.3729 8.62503L51.0589 6.22503C50.8564 5.85541 50.5582 5.54704 50.1956 5.33223C49.833 5.11743 49.4193 5.00409 48.9979 5.00409C48.5764 5.00409 48.1627 5.11743 47.8001 5.33223C47.4375 5.54704 47.1394 5.85541 46.9369 6.22503L45.6229 8.62503L43.2229 9.93903C42.8533 10.1415 42.5449 10.4397 42.3301 10.8023C42.1153 11.1649 42.002 11.5786 42.002 12C42.002 12.4215 42.1153 12.8352 42.3301 13.1978C42.5449 13.5604 42.8533 13.8585 43.2229 14.061ZM44.1819 11.694L46.8409 10.239C47.2409 10.023 47.2509 9.81303 48.6929 7.18203C48.7228 7.12668 48.7671 7.08046 48.8212 7.04824C48.8752 7.01602 48.937 6.99902 48.9999 6.99902C49.0628 6.99902 49.1246 7.01602 49.1786 7.04824C49.2326 7.08046 49.277 7.12668 49.3069 7.18203L50.7619 9.84203C50.9789 10.242 51.1799 10.252 53.8179 11.694C53.873 11.7239 53.9191 11.7681 53.9511 11.8219C53.9832 11.8758 54.0002 11.9373 54.0002 12C54.0002 12.0627 53.9832 12.1243 53.9511 12.1781C53.9191 12.232 53.873 12.2762 53.8179 12.306L51.1589 13.761C50.7589 13.977 50.7489 14.187 49.3069 16.818C49.277 16.8734 49.2326 16.9196 49.1786 16.9518C49.1246 16.984 49.0628 17.001 48.9999 17.001C48.937 17.001 48.8752 16.984 48.8212 16.9518C48.7671 16.9196 48.7228 16.8734 48.6929 16.818L47.2379 14.158C47.0209 13.758 46.8199 13.748 44.1819 12.306C44.1268 12.2762 44.0807 12.232 44.0486 12.1781C44.0166 12.1243 43.9996 12.0627 43.9996 12C43.9996 11.9373 44.0166 11.8758 44.0486 11.8219C44.0807 11.7681 44.1268 11.7239 44.1819 11.694Z" fill="#0181F5"/>
<path d="M7.62485 49.625L5.22485 50.939C4.85522 51.1415 4.54686 51.4396 4.33205 51.8022C4.11725 52.1648 4.00391 52.5785 4.00391 53C4.00391 53.4214 4.11725 53.8351 4.33205 54.1977C4.54686 54.5603 4.85522 54.8585 5.22485 55.061L7.62485 56.375L8.93885 58.775C9.14133 59.1446 9.4395 59.453 9.8021 59.6678C10.1647 59.8826 10.5784 59.9959 10.9998 59.9959C11.4213 59.9959 11.835 59.8826 12.1976 59.6678C12.5602 59.453 12.8584 59.1446 13.0608 58.775L14.3748 56.375L16.2128 55.37C20.1637 58.4074 25.0165 60.0371 29.9998 60C32.907 60.0659 35.7973 59.5419 38.4962 58.4596C41.1951 57.3773 43.6467 55.7592 45.7029 53.703C47.7591 51.6469 49.3771 49.1953 50.4594 46.4963C51.5417 43.7974 52.0657 40.9071 51.9998 38C51.9998 22.036 37.5128 17.9 31.8258 1.31499C31.6975 0.932339 31.4522 0.599682 31.1245 0.364001C30.7969 0.12832 30.4035 0.00152588 29.9998 0.00152588C29.5962 0.00152588 29.2028 0.12832 28.8752 0.364001C28.5475 0.599682 28.3022 0.932339 28.1738 1.31499C22.4998 17.88 7.99985 22.051 7.99985 38C7.98294 40.9099 8.51807 43.7965 9.57685 46.507C9.01485 46.94 9.04385 47.031 7.62485 49.625ZM13.1588 54.761C12.7588 54.977 12.7488 55.187 11.3068 57.818C11.2769 57.8733 11.2326 57.9196 11.1786 57.9518C11.1245 57.984 11.0628 58.001 10.9998 58.001C10.9369 58.001 10.8752 57.984 10.8211 57.9518C10.7671 57.9196 10.7228 57.8733 10.6928 57.818L9.23785 55.158C9.02085 54.758 8.81985 54.748 6.18185 53.306C6.12672 53.2761 6.08068 53.2319 6.0486 53.1781C6.01652 53.1242 5.99958 53.0627 5.99958 53C5.99958 52.9373 6.01652 52.8758 6.0486 52.8219C6.08068 52.768 6.12672 52.7239 6.18185 52.694L8.84085 51.239C9.24085 51.023 9.25085 50.813 10.6928 48.182C10.7228 48.1266 10.7671 48.0804 10.8211 48.0482C10.8752 48.016 10.9369 47.999 10.9998 47.999C11.0628 47.999 11.1245 48.016 11.1786 48.0482C11.2326 48.0804 11.2769 48.1266 11.3068 48.182L12.7618 50.842C12.9788 51.242 13.1798 51.252 15.8178 52.694C15.873 52.7239 15.919 52.768 15.9511 52.8219C15.9832 52.8758 16.0001 52.9373 16.0001 53C16.0001 53.0627 15.9832 53.1242 15.9511 53.1781C15.919 53.2319 15.873 53.2761 15.8178 53.306L13.1588 54.761ZM29.9998 58C25.5929 58.0332 21.2936 56.6391 17.7448 54.026C18.018 53.4868 18.0697 52.8623 17.8888 52.2856C17.708 51.7089 17.309 51.2256 16.7768 50.939L14.3768 49.625L13.0628 47.225C12.908 46.9431 12.6968 46.6962 12.4423 46.4995C12.1879 46.3029 11.8956 46.1608 11.5838 46.082C10.685 43.8923 10.1692 41.5644 10.0588 39.2C11.1798 39.665 11.8808 41 14.2478 41C15.4367 41.0113 16.5877 40.582 17.4788 39.795C18.0225 39.2757 18.7481 38.9903 19.4998 39C21.5788 39 21.7998 41 24.7478 41C25.9368 41.0117 27.0879 40.5823 27.9788 39.795C28.521 39.2778 29.2436 38.9925 29.9928 39C32.0668 39 32.3038 41 35.2388 41C38.1738 41 38.4389 39 40.4898 39C42.5409 39 42.8238 41 45.7448 41C48.1158 41 48.8139 39.66 49.9448 39.194C49.7613 44.3216 47.5652 49.1705 43.832 52.6904C40.0989 56.2104 35.1294 58.1179 29.9998 58ZM29.9998 2.15299C35.7888 18.753 49.4158 22.853 49.9708 37.1C47.9018 37.518 47.5788 39 45.7448 39C43.6948 39 43.4128 37 40.4898 37C37.5668 37 37.2948 39 35.2388 39C33.1658 39 32.9288 37 29.9928 37C28.8046 36.9871 27.6536 37.4146 26.7618 38.2C26.2197 38.7204 25.4953 39.0076 24.7438 39C22.6648 39 22.4438 37 19.4958 37C18.3079 36.9871 17.1572 37.4146 16.2658 38.2C15.7237 38.7204 14.9993 39.0076 14.2478 39C12.3818 39 12.1568 37.531 10.0288 37.1C10.5828 22.882 24.2278 18.7 29.9998 2.15299Z" fill="#0181F5"/>
</g>
<defs>
<clipPath id="clip0_1713_1977">
<rect width="60" height="60" fill="white"/>
</clipPath>
</defs>
</svg>
