<svg width="50" height="50" viewBox="0 0 50 50" fill="none" xmlns="http://www.w3.org/2000/svg">
<path d="M42.0003 8.0501H38.5087V7.41676C38.5087 5.85843 37.242 4.6001 35.692 4.6001C34.1337 4.6001 32.8753 5.86676 32.8753 7.41676V8.04176H27.8253V7.41676C27.8253 5.85843 26.5587 4.6001 25.0087 4.6001C23.4587 4.6001 22.192 5.86676 22.192 7.41676V8.04176H17.142V7.41676C17.142 5.85843 15.8753 4.6001 14.3253 4.6001C12.7753 4.6001 11.5087 5.86676 11.5087 7.41676V8.04176H8.00033C5.88366 8.04176 4.16699 9.75843 4.16699 11.8751V41.5584C4.16699 43.6751 5.88366 45.3918 8.00033 45.3918H42.0003C44.117 45.3918 45.8337 43.6751 45.8337 41.5584V11.8834C45.8337 9.76676 44.117 8.0501 42.0003 8.0501ZM34.5337 7.41676C34.5337 6.78343 35.0503 6.26676 35.6837 6.26676C36.317 6.26676 36.8337 6.78343 36.8337 7.41676V8.04176H34.5253V7.41676H34.5337ZM23.8503 7.41676C23.8503 6.78343 24.367 6.26676 25.0003 6.26676C25.6337 6.26676 26.1503 6.78343 26.1503 7.41676V8.04176H23.842V7.41676H23.8503ZM13.1587 7.41676C13.1587 6.78343 13.6753 6.26676 14.3087 6.26676C14.942 6.26676 15.4587 6.78343 15.4587 7.41676V8.04176H13.1503V7.41676H13.1587ZM8.00033 9.71676H11.492V10.3418C11.492 11.9001 12.7587 13.1584 14.3087 13.1584C14.767 13.1584 15.142 12.7834 15.142 12.3251C15.142 11.8668 14.767 11.4918 14.3087 11.4918C13.6753 11.4918 13.1587 10.9751 13.1587 10.3418V9.71676H22.1837V10.3418C22.1837 11.9001 23.4503 13.1584 25.0003 13.1584C25.4587 13.1584 25.8337 12.7834 25.8337 12.3251C25.8337 11.8668 25.4587 11.4918 25.0003 11.4918C24.367 11.4918 23.8503 10.9751 23.8503 10.3418V9.71676H32.867V10.3418C32.867 11.9001 34.1337 13.1584 35.6837 13.1584C36.142 13.1584 36.517 12.7834 36.517 12.3251C36.517 11.8668 36.142 11.4918 35.6837 11.4918C35.0503 11.4918 34.5337 10.9751 34.5337 10.3418V9.71676H42.0003C43.192 9.71676 44.167 10.6918 44.167 11.8834V15.1084H5.83366V11.8834C5.83366 10.6918 6.80866 9.71676 8.00033 9.71676ZM42.0003 43.7334H8.00033C6.80866 43.7334 5.83366 42.7584 5.83366 41.5668V16.7751H44.167V41.5668C44.167 42.7584 43.192 43.7334 42.0003 43.7334Z" fill="#0181F5"/>
<path d="M24.9997 26.3583C25.758 26.3583 26.3747 26.975 26.3747 27.7333C26.3747 28.1917 26.7497 28.5667 27.208 28.5667C27.6663 28.5667 28.0413 28.1917 28.0413 27.7333C28.0413 26.35 27.108 25.1917 25.833 24.825V24.3333C25.833 23.875 25.458 23.5 24.9997 23.5C24.5413 23.5 24.1663 23.875 24.1663 24.3333V24.825C22.8997 25.1917 21.958 26.35 21.958 27.7333C21.958 28.7333 22.4413 30.0583 24.7663 30.7417C26.3747 31.2167 26.3747 31.8917 26.3747 32.15C26.3747 32.9083 25.758 33.525 24.9997 33.525C24.2413 33.525 23.6247 32.9083 23.6247 32.15C23.6247 31.6917 23.2497 31.3167 22.7913 31.3167C22.333 31.3167 21.958 31.6917 21.958 32.15C21.958 33.5333 22.8913 34.6917 24.1663 35.0583V35.55C24.1663 36.0083 24.5413 36.3833 24.9997 36.3833C25.458 36.3833 25.833 36.0083 25.833 35.55V35.0583C27.0997 34.6917 28.0413 33.5333 28.0413 32.15C28.0413 31.15 27.558 29.825 25.233 29.1417C23.6247 28.6667 23.6247 27.9667 23.6247 27.7333C23.6247 26.975 24.2413 26.3583 24.9997 26.3583Z" fill="#0181F5"/>
<path d="M32.6665 36.6666L32.0915 37.2416V33.7249C32.0915 33.2666 31.7165 32.8916 31.2582 32.8916C30.7999 32.8916 30.4249 33.2666 30.4249 33.7249V37.2416L29.8582 36.6666C29.5332 36.3416 29.0082 36.3416 28.6832 36.6666C28.3582 36.9916 28.3582 37.5166 28.6832 37.8416L30.6749 39.8333C30.7499 39.9083 30.8415 39.9749 30.9415 40.0166C31.0415 40.0583 31.1499 40.0833 31.2665 40.0833C31.3832 40.0833 31.4832 40.0583 31.5915 40.0166C31.6915 39.9749 31.7832 39.9166 31.8582 39.8333L33.8499 37.8416C34.1749 37.5166 34.1749 36.9916 33.8499 36.6666C33.5249 36.3416 32.9915 36.3416 32.6665 36.6666Z" fill="#0181F5"/>
<path d="M25.0001 20.425C19.7501 20.425 15.4834 24.6917 15.4834 29.9417C15.4834 35.1917 19.7501 39.4584 25.0001 39.4584C25.7584 39.4584 26.5084 39.3667 27.2417 39.1917C27.6917 39.0834 27.9667 38.6334 27.8584 38.1834C27.7501 37.7334 27.2917 37.4584 26.8501 37.5667C26.2501 37.7084 25.6251 37.7834 25.0001 37.7834C20.6751 37.7834 17.1501 34.2584 17.1501 29.9334C17.1501 25.6084 20.6751 22.0834 25.0001 22.0834C29.3251 22.0834 32.8501 25.6084 32.8501 29.9334C32.8501 30.6167 32.7584 31.3 32.5834 31.9584C32.4667 32.4 32.7334 32.8584 33.1751 32.975C33.6167 33.0917 34.0751 32.825 34.1917 32.3834C34.4001 31.5917 34.5084 30.7667 34.5084 29.9334C34.5167 24.6917 30.2501 20.425 25.0001 20.425Z" fill="#0181F5"/>
</svg>
