<svg width="50" height="50" viewBox="0 0 50 50" fill="none" xmlns="http://www.w3.org/2000/svg">
<path d="M26.7737 49.1485C38.4691 48.2501 47.6566 38.2891 47.6566 26.5548C47.6566 23.7345 47.1487 21.0001 46.1409 18.3985C45.9847 17.9923 45.5081 17.797 45.1019 17.9688C44.7112 18.1329 44.5394 18.5782 44.6878 18.9766C45.5706 21.2579 46.0394 23.6563 46.0862 26.1329C46.2972 36.8438 38.2816 46.1876 27.6487 47.4923C14.8909 49.0548 4.00031 39.1485 3.90656 26.7188C3.82843 16.3985 11.3675 7.37508 21.555 5.74227C24.5081 5.26571 27.4769 5.40633 30.2894 6.13289C30.7034 6.24227 31.1253 6.01571 31.2425 5.60164C31.3675 5.17977 31.1253 4.73446 30.7034 4.62508C27.9691 3.91414 25.1097 3.72664 22.2503 4.06258C10.8128 5.43758 2.14875 15.4532 2.34406 26.9688C2.57062 39.8595 13.6175 50.1641 26.7737 49.1563V49.1485Z" fill="#0181F5"/>
<path d="M27.8906 25C30.2344 25 32.1328 23.0937 32.1328 20.7578C32.1328 19.7109 31.75 18.7187 31.0703 17.9453C31.3906 17.3906 31.5547 16.7734 31.5547 16.1328C31.5547 14.4766 30.4219 13.0312 28.8437 12.6016C28.1562 11.1172 26.6641 10.1484 25 10.1484C23.3359 10.1484 21.8437 11.1172 21.1562 12.6016C19.5781 13.0312 18.4453 14.4687 18.4453 16.1328C18.4453 16.7656 18.6172 17.3906 18.9297 17.9453C18.2422 18.7187 17.8672 19.7031 17.8672 20.7578C17.8672 23.1016 19.7734 25 22.1094 25C22.8672 25 23.5859 24.7891 24.2188 24.4297V28.125H9.375C8.94531 28.125 8.59375 28.4766 8.59375 28.9062C8.59375 37.9531 15.9531 45.3125 25 45.3125C34.0469 45.3125 41.4062 37.9531 41.4062 28.9062C41.4062 28.4766 41.0547 28.125 40.625 28.125H25.7812V24.4297C26.4141 24.7969 27.1328 25 27.8906 25ZM17.1484 41.4844C13.1641 38.9844 10.4375 34.6641 10.1797 29.6875H12.6875L15 30.8672C15.7969 31.2656 16.3125 32.1562 16.3203 33.1484L16.3516 34.2031C16.375 35.3359 16.9219 36.3828 17.8047 36.9922C18.6094 37.5469 19.5938 37.6797 20.5078 37.3594L21.4453 37.0234C21.8203 36.8984 22.2187 36.9219 22.5703 37.1016C22.9766 37.3125 23.2812 37.6875 23.4297 38.1641C23.6406 38.8516 23.4922 39.5937 23.0547 40.0859C22.8359 40.3125 22.5859 40.4766 22.3125 40.5547L20.4844 41.1094C19.3906 41.4453 18.2578 41.5625 17.1328 41.4844H17.1484ZM37.625 32.7031C38.0625 32.1094 38.2812 31.4062 38.2656 30.6719C38.2578 30.3125 38.3516 29.9687 38.5391 29.6875H39.8359C39.5625 34.9141 36.5703 39.4141 32.2578 41.8437C32.5781 41.3203 32.7422 40.7031 32.7188 40.0391C32.6797 38.9141 32.0859 37.9297 31.1484 37.4141L30.4922 37.0547C29.9609 36.7578 29.6563 36.0859 29.7578 35.4141L29.875 34.6406C29.9844 33.8594 30.6172 33.3125 31.3047 33.3828L35.0859 33.8125C36.0547 33.9141 37.0078 33.5078 37.6406 32.6875L37.625 32.7031ZM36.8516 29.6875C36.7578 30.0156 36.6953 30.3594 36.7031 30.7109C36.7109 31.1953 36.5234 31.5625 36.375 31.7578C36.0859 32.1328 35.6719 32.3125 35.2422 32.2734L31.4609 31.8437C29.9297 31.6641 28.5391 32.8047 28.3125 34.4219L28.1953 35.1875C28 36.5156 28.6094 37.8203 29.7266 38.4297L30.3828 38.7891C30.8359 39.0391 31.1172 39.5313 31.1406 40.1016C31.1641 40.6875 30.9063 41.2109 30.4609 41.5C29.7734 41.9453 29.1641 42.5078 28.6406 43.1953C28.6172 43.2266 28.6016 43.2578 28.5781 43.2891C27.4297 43.5781 26.2344 43.7422 25 43.7422C23.2266 43.7422 21.5391 43.4141 19.9609 42.8437C20.2891 42.7734 20.625 42.6953 20.9453 42.6016L22.7734 42.0547C23.2969 41.8984 23.7891 41.5937 24.2109 41.1484C25.0234 40.2422 25.3047 38.9219 24.9297 37.7109C24.6562 36.8203 24.0703 36.1094 23.2812 35.7109C22.5469 35.3359 21.7188 35.2812 20.9297 35.5547L19.9844 35.8906C19.5469 36.0469 19.0859 35.9844 18.6875 35.7109C18.2109 35.3828 17.9219 34.8047 17.9063 34.1641L17.875 33.1172C17.8594 31.6875 17.1641 30.4141 16.0469 29.6875H36.8281H36.8516ZM25.0078 17.1875C24.5781 17.1875 24.2266 17.5391 24.2266 17.9687V18.5391L22.9609 17.7266C22.5937 17.4922 22.1172 17.6016 21.8828 17.9609C21.6484 18.3281 21.7578 18.8047 22.1172 19.0391L24.2266 20.3906V22.3828C23.7188 23.0391 22.9531 23.4297 22.1172 23.4297C20.6406 23.4297 19.4375 22.2266 19.4375 20.75C19.4375 19.9297 19.8047 19.1641 20.4531 18.6484C20.6172 18.5156 20.7266 18.3203 20.7422 18.1016C20.7578 17.8828 20.6875 17.6797 20.5469 17.5156C20.3047 17.2422 20.0078 16.7734 20.0078 16.125C20.0078 15.0859 20.7891 14.1953 21.8281 14.0547C22.125 14.0156 22.3672 13.8125 22.4609 13.5312C22.8281 12.4453 23.8516 11.7109 25 11.7109C26.1484 11.7109 27.1641 12.4453 27.5391 13.5312C27.6328 13.8125 27.8828 14.0156 28.1719 14.0547C29.2109 14.1953 29.9922 15.0859 29.9922 16.125C29.9922 16.7734 29.7031 17.2344 29.4531 17.5156C29.3125 17.6797 29.2422 17.8906 29.2578 18.1016C29.2734 18.3125 29.3828 18.5156 29.5469 18.6484C30.1953 19.1641 30.5625 19.9297 30.5625 20.75C30.5625 22.2266 29.3594 23.4297 27.8828 23.4297C27.0469 23.4297 26.2813 23.0312 25.7734 22.3828V20.3906L27.8828 19.0391C28.25 18.8047 28.3516 18.3203 28.1172 17.9609C27.8828 17.5937 27.3984 17.4922 27.0391 17.7266L25.7734 18.5391V17.9687C25.7734 17.5391 25.4219 17.1875 24.9922 17.1875H25.0078Z" fill="#0181F5"/>
<path d="M47.9452 4.74219L46.4218 4.125C44.9374 3.53125 43.5155 2.65625 42.1952 1.53125L41.5233 0.960938C41.2343 0.71875 40.8046 0.71875 40.5155 0.960938L39.8437 1.53125C38.5233 2.65625 37.0937 3.52344 35.6171 4.125L34.0937 4.74219C33.7733 4.875 33.5702 5.20312 33.6093 5.54687C33.9765 9.19531 35.414 12.5391 37.5468 14.7344L40.4687 17.7344C40.6171 17.8828 40.8202 17.9688 41.0312 17.9688C41.2421 17.9688 41.4452 17.8828 41.5937 17.7344L44.5155 14.7344C46.6483 12.5469 48.078 9.19531 48.453 5.54687C48.4843 5.20312 48.289 4.875 47.9687 4.74219H47.9452ZM43.3749 13.6406L41.0155 16.0703L38.6562 13.6484C36.8749 11.8203 35.6405 9.04688 35.2265 5.97656L36.203 5.58594C37.8358 4.92188 39.4062 3.96875 40.8515 2.73438L41.0233 2.59375L41.1952 2.73438C42.6483 3.96094 44.2108 4.92188 45.8515 5.58594L46.828 5.97656C46.414 9.04688 45.1796 11.8203 43.3983 13.6484L43.3749 13.6406Z" fill="#0181F5"/>
</svg>
