<svg width="50" height="50" viewBox="0 0 50 50" fill="none" xmlns="http://www.w3.org/2000/svg">
<path d="M45 36.4434C42.877 36.4434 41.8 36.1049 40.76 35.7779C39.792 35.4734 38.877 35.1859 37 35.1859C35.123 35.1859 34.2095 35.4734 33.2415 35.7774L32.883 35.8889C32.8072 35.9123 32.7283 35.924 32.649 35.9239C32.4553 35.924 32.2681 35.8538 32.1223 35.7263C31.9764 35.5989 31.8817 35.4228 31.8558 35.2309C31.8299 35.0389 31.8746 34.844 31.9814 34.6825C32.0883 34.5209 32.2502 34.4036 32.437 34.3524C32.546 34.3191 32.6542 34.2857 32.7615 34.2524C33.8025 33.9254 34.8785 33.5874 37 33.5874C39.1215 33.5874 40.2 33.9259 41.24 34.2529C42.208 34.5574 43.123 34.8449 45 34.8449C45.2122 34.8449 45.4157 34.9292 45.5657 35.0792C45.7157 35.2292 45.8 35.4327 45.8 35.6449C45.8 35.8571 45.7157 36.0606 45.5657 36.2106C45.4157 36.3606 45.2122 36.4449 45 36.4449V36.4434Z" fill="#0181F5"/>
<path d="M13.0002 36.4434C10.8772 36.4434 9.8002 36.1049 8.7602 35.7779C7.7922 35.4734 6.8772 35.1859 5.0002 35.1859C4.78802 35.1859 4.58454 35.1017 4.43451 34.9516C4.28448 34.8016 4.2002 34.5981 4.2002 34.3859C4.2002 34.1738 4.28448 33.9703 4.43451 33.8203C4.58454 33.6702 4.78802 33.5859 5.0002 33.5859C7.1232 33.5859 8.2002 33.9244 9.2402 34.2514C10.2082 34.5559 11.1232 34.8434 13.0002 34.8434C14.8772 34.8434 15.7912 34.5564 16.7592 34.2519L16.8627 34.2194C17.0652 34.1559 17.2846 34.1754 17.4727 34.2737C17.6608 34.372 17.8022 34.5409 17.8657 34.7434C17.9292 34.9459 17.9097 35.1654 17.8114 35.3535C17.7132 35.5416 17.5442 35.6829 17.3417 35.7464L17.2387 35.7784C16.2002 36.1054 15.1222 36.4434 13.0002 36.4434Z" fill="#0181F5"/>
<path d="M45.0002 40.8646C42.8772 40.8646 41.8002 40.5261 40.7602 40.1991C39.7917 39.8946 38.8772 39.6071 37.0002 39.6071C35.1232 39.6071 34.2082 39.8946 33.2397 40.1991C32.1987 40.5261 31.1227 40.8646 28.9997 40.8646C26.8767 40.8646 25.7997 40.5261 24.7597 40.1991C23.7917 39.8946 22.8772 39.6071 20.9997 39.6071C19.1222 39.6071 18.2082 39.8946 17.2397 40.1991C16.2002 40.5261 15.1227 40.8646 13.0002 40.8646C10.8777 40.8646 9.80019 40.5261 8.76019 40.1991C7.79169 39.8946 6.8772 39.6071 5.0002 39.6071C4.78802 39.6071 4.58454 39.5228 4.43451 39.3728C4.28448 39.2227 4.2002 39.0193 4.2002 38.8071C4.2002 38.5949 4.28448 38.3914 4.43451 38.2414C4.58454 38.0914 4.78802 38.0071 5.0002 38.0071C7.1232 38.0071 8.2002 38.3451 9.2402 38.6726C10.2082 38.9771 11.1227 39.2646 13.0002 39.2646C14.8777 39.2646 15.7917 38.9771 16.7602 38.6726C17.8002 38.3451 18.8772 38.0071 21.0002 38.0071C23.1232 38.0071 24.2002 38.3451 25.2402 38.6726C26.2087 38.9771 27.1232 39.2646 29.0002 39.2646C30.8772 39.2646 31.7922 38.9771 32.7602 38.6726C33.8002 38.3451 34.8772 38.0071 37.0002 38.0071C39.1232 38.0071 40.2002 38.3451 41.2402 38.6726C42.2082 38.9771 43.1232 39.2646 45.0002 39.2646C45.2124 39.2646 45.4158 39.3489 45.5659 39.4989C45.7159 39.6489 45.8002 39.8524 45.8002 40.0646C45.8002 40.2768 45.7159 40.4802 45.5659 40.6303C45.4158 40.7803 45.2124 40.8646 45.0002 40.8646Z" fill="#0181F5"/>
<path d="M45.0002 45.2855C42.8772 45.2855 41.8002 44.947 40.7602 44.62C39.7917 44.3155 38.8772 44.028 37.0002 44.028C35.1232 44.028 34.2082 44.3155 33.2397 44.62C32.1987 44.947 31.1227 45.2855 28.9997 45.2855C26.8767 45.2855 25.7997 44.947 24.7597 44.62C23.7917 44.3155 22.8772 44.028 20.9997 44.028C19.1222 44.028 18.2082 44.3155 17.2397 44.62C16.2002 44.947 15.1227 45.2855 13.0002 45.2855C10.8777 45.2855 9.80019 44.947 8.76019 44.62C7.79169 44.3155 6.8772 44.028 5.0002 44.028C4.78802 44.028 4.58454 43.9437 4.43451 43.7937C4.28448 43.6436 4.2002 43.4402 4.2002 43.228C4.2002 43.0158 4.28448 42.8123 4.43451 42.6623C4.58454 42.5123 4.78802 42.428 5.0002 42.428C7.1232 42.428 8.2002 42.766 9.2402 43.0935C10.2082 43.398 11.1227 43.6855 13.0002 43.6855C14.8777 43.6855 15.7917 43.398 16.7602 43.0935C17.8007 42.766 18.8772 42.428 20.9997 42.428C23.1222 42.428 24.1997 42.766 25.2397 43.0935C26.2082 43.398 27.1227 43.6855 28.9997 43.6855C30.8767 43.6855 31.7917 43.398 32.7597 43.0935C33.8007 42.766 34.8772 42.428 37.0002 42.428C39.1232 42.428 40.2002 42.766 41.2402 43.0935C42.2082 43.398 43.1232 43.6855 45.0002 43.6855C45.2124 43.6855 45.4158 43.7698 45.5659 43.9198C45.7159 44.0698 45.8002 44.2733 45.8002 44.4855C45.8002 44.6977 45.7159 44.9011 45.5659 45.0512C45.4158 45.2012 45.2124 45.2855 45.0002 45.2855Z" fill="#0181F5"/>
<path d="M25.0005 37.8971C21.719 37.8972 18.5112 36.9241 15.7828 35.1011C13.0543 33.278 10.9278 30.6868 9.67205 27.6551C8.41631 24.6234 8.0878 21.2874 8.72805 18.069C9.36829 14.8506 10.9485 11.8944 13.269 9.57412C16.3804 6.46273 20.6004 4.7148 25.0006 4.71484C29.4009 4.71489 33.6208 6.46291 36.7322 9.57437C39.8436 12.6858 41.5915 16.9058 41.5915 21.306C41.5914 25.7063 39.8434 29.9262 36.732 33.0376C35.1949 34.583 33.3667 35.8083 31.353 36.6424C29.3392 37.4765 27.1801 37.903 25.0005 37.8971ZM25.0005 6.31462C16.7345 6.31462 10.0095 13.0396 10.0095 21.3061C10.0095 29.5726 16.7345 36.2971 25.0005 36.2971C33.2665 36.2971 39.9915 29.5721 39.9915 21.3061C39.9915 13.0401 33.2665 6.31462 25.0005 6.31462Z" fill="#0181F5"/>
<path d="M25.0002 30.5239C19.9172 30.5239 15.7822 26.3884 15.7822 21.3059C15.7822 16.2234 19.9172 12.0874 25.0002 12.0874C30.0832 12.0874 34.2182 16.2229 34.2182 21.3059C34.2182 26.3889 30.0832 30.5239 25.0002 30.5239ZM25.0002 13.6874C20.8002 13.6874 17.3822 17.1049 17.3822 21.3059C17.3822 25.5069 20.8002 28.9239 25.0002 28.9239C29.2002 28.9239 32.6182 25.5064 32.6182 21.3059C32.6182 17.1054 29.2002 13.6874 25.0002 13.6874Z" fill="#0181F5"/>
<path d="M21.7997 14.3161C21.6076 14.3158 21.422 14.2464 21.2769 14.1205C21.1317 13.9946 21.0367 13.8207 21.0092 13.6306L19.9392 6.2121C19.9229 6.10756 19.9276 6.00082 19.9528 5.89808C19.9781 5.79533 20.0235 5.69862 20.0864 5.61353C20.1493 5.52845 20.2284 5.45668 20.3192 5.4024C20.41 5.34811 20.5107 5.31237 20.6154 5.29726C20.7202 5.28215 20.8268 5.28796 20.9293 5.31436C21.0317 5.34076 21.128 5.38722 21.2123 5.45105C21.2967 5.51489 21.3676 5.59482 21.4209 5.68624C21.4741 5.77765 21.5088 5.87872 21.5227 5.9836L22.5947 13.4001C22.625 13.6101 22.5706 13.8235 22.4436 13.9934C22.3165 14.1633 22.1272 14.2758 21.9172 14.3061C21.8783 14.3122 21.8391 14.3156 21.7997 14.3161Z" fill="#0181F5"/>
<path d="M28.1999 14.3159C28.1613 14.3159 28.1227 14.3133 28.0844 14.3079C27.9801 14.2931 27.8797 14.2579 27.789 14.2042C27.6983 14.1506 27.6191 14.0795 27.556 13.9951C27.4928 13.9107 27.447 13.8147 27.4211 13.7126C27.3951 13.6104 27.3897 13.5042 27.4049 13.3999L28.4749 5.98141C28.5073 5.77328 28.6205 5.58632 28.7899 5.46112C28.9593 5.33591 29.1712 5.28256 29.3797 5.31265C29.5881 5.34273 29.7763 5.45382 29.9034 5.6218C30.0305 5.78979 30.0862 6.00111 30.0584 6.20991L28.9884 13.6284C28.9614 13.8186 28.8669 13.9927 28.7221 14.1189C28.5773 14.2451 28.392 14.3151 28.1999 14.3159Z" fill="#0181F5"/>
<path d="M29.24 37.321C29.048 37.3206 28.8625 37.2511 28.7175 37.1252C28.5724 36.9994 28.4775 36.8255 28.45 36.6355L27.38 29.2195C27.3634 29.1148 27.3677 29.0078 27.3928 28.9047C27.4179 28.8017 27.4632 28.7047 27.5261 28.6193C27.589 28.534 27.6683 28.462 27.7593 28.4075C27.8502 28.353 27.9511 28.3172 28.0561 28.3021C28.1611 28.287 28.268 28.2929 28.3706 28.3195C28.4733 28.3461 28.5696 28.3928 28.6541 28.4569C28.7385 28.5211 28.8093 28.6014 28.8625 28.6931C28.9156 28.7849 28.95 28.8863 28.9635 28.9915L30.033 36.407C30.0633 36.617 30.009 36.8304 29.8819 37.0003C29.7548 37.1702 29.5655 37.2827 29.3555 37.313C29.3173 37.3184 29.2787 37.321 29.24 37.321Z" fill="#0181F5"/>
<path d="M20.7602 37.321C20.7215 37.321 20.6829 37.3184 20.6447 37.313C20.4347 37.2827 20.2454 37.1702 20.1183 37.0003C19.9913 36.8304 19.9369 36.617 19.9672 36.407L21.0367 28.9915C21.0503 28.8863 21.0846 28.7849 21.1377 28.6931C21.1909 28.6014 21.2617 28.5211 21.3461 28.4569C21.4306 28.3928 21.5269 28.3461 21.6296 28.3195C21.7322 28.2929 21.8391 28.287 21.9441 28.3021C22.0491 28.3172 22.15 28.353 22.241 28.4075C22.3319 28.462 22.4112 28.534 22.4741 28.6193C22.537 28.7047 22.5823 28.8017 22.6074 28.9047C22.6325 29.0078 22.6368 29.1148 22.6202 29.2195L21.5502 36.6355C21.5227 36.8255 21.4278 36.9994 21.2827 37.1252C21.1377 37.2511 20.9522 37.3206 20.7602 37.321Z" fill="#0181F5"/>
<path d="M9.96714 26.9591C9.76475 26.9591 9.56986 26.8824 9.42176 26.7445C9.27365 26.6065 9.18333 26.4176 9.169 26.2157C9.15467 26.0138 9.21739 25.814 9.34453 25.6565C9.47167 25.499 9.65377 25.3956 9.85414 25.3671L17.3576 24.2851C17.4624 24.2684 17.5694 24.2728 17.6724 24.2978C17.7754 24.3229 17.8724 24.3682 17.9578 24.4311C18.0432 24.494 18.1152 24.5733 18.1696 24.6643C18.2241 24.7553 18.2599 24.8562 18.275 24.9611C18.2901 25.0661 18.2842 25.173 18.2576 25.2757C18.2311 25.3783 18.1843 25.4747 18.1202 25.5591C18.0561 25.6435 17.9758 25.7144 17.884 25.7675C17.7922 25.8206 17.6908 25.855 17.5856 25.8686L10.0826 26.9501C10.0444 26.956 10.0058 26.959 9.96714 26.9591Z" fill="#0181F5"/>
<path d="M16.9379 19.679C16.8994 19.6789 16.861 19.676 16.8229 19.6705L9.48087 18.612C9.27082 18.5817 9.08141 18.4692 8.95431 18.2992C8.8272 18.1293 8.77282 17.9158 8.80312 17.7057C8.83342 17.4957 8.94593 17.3063 9.11588 17.1792C9.28584 17.0521 9.49932 16.9977 9.70937 17.028L17.0499 18.087C17.2502 18.1155 17.4323 18.219 17.5595 18.3764C17.6866 18.5339 17.7493 18.7337 17.735 18.9356C17.7207 19.1375 17.6304 19.3265 17.4823 19.4644C17.3342 19.6023 17.1393 19.679 16.9369 19.679H16.9379Z" fill="#0181F5"/>
<path d="M33.0618 19.679C32.8595 19.6788 32.6648 19.6019 32.5169 19.4639C32.369 19.3259 32.2789 19.1369 32.2647 18.9351C32.2505 18.7333 32.3133 18.5336 32.4404 18.3762C32.5675 18.2189 32.7496 18.1155 32.9498 18.087L40.2913 17.028C40.5014 16.9977 40.7149 17.0521 40.8848 17.1792C41.0548 17.3063 41.1673 17.4957 41.1976 17.7057C41.2279 17.9158 41.1735 18.1293 41.0464 18.2992C40.9193 18.4692 40.7299 18.5817 40.5198 18.612L33.1768 19.6705C33.1388 19.676 33.1003 19.6789 33.0618 19.679Z" fill="#0181F5"/>
<path d="M40.0328 26.9591C39.9942 26.9592 39.9556 26.9564 39.9173 26.9506L32.4143 25.8686C32.3092 25.855 32.2078 25.8206 32.116 25.7675C32.0242 25.7144 31.9439 25.6435 31.8798 25.5591C31.8156 25.4747 31.7689 25.3783 31.7423 25.2757C31.7158 25.173 31.7099 25.0661 31.725 24.9611C31.7401 24.8562 31.7759 24.7553 31.8304 24.6643C31.8848 24.5733 31.9568 24.494 32.0422 24.4311C32.1275 24.3682 32.2246 24.3229 32.3276 24.2978C32.4306 24.2728 32.5376 24.2684 32.6423 24.2851L40.1458 25.3671C40.3462 25.3956 40.5283 25.499 40.6554 25.6565C40.7826 25.814 40.8453 26.0138 40.831 26.2157C40.8166 26.4176 40.7263 26.6065 40.5782 26.7445C40.4301 26.8824 40.2352 26.9591 40.0328 26.9591Z" fill="#0181F5"/>
</svg>
