<svg width="60" height="60" viewBox="0 0 60 60" fill="none" xmlns="http://www.w3.org/2000/svg">
<path d="M56.0003 52V10.858C57.761 10.4034 58.9935 8.81841 59.0003 7V4C59.0003 1.79086 57.2095 0 55.0003 0H41.0003C38.7912 0 37.0003 1.79086 37.0003 4V7C37.0072 8.81841 38.2397 10.4034 40.0003 10.858V21.444C37.349 17.7421 34.2019 14.4218 30.6473 11.576C29.6875 10.8156 28.3321 10.8102 27.3663 11.563C24.3624 13.9511 21.6444 16.6782 19.2663 19.69C17.4669 16.5207 15.0847 13.7199 12.2453 11.435C11.5221 10.8595 10.4979 10.8575 9.77234 11.43C8.00634 12.816 -0.677661 20.154 1.28234 28.422C2.23707 32.2805 5.3915 35.2039 9.31134 35.863C10.541 36.069 11.7984 36.0425 13.0183 35.785C13.057 36.8631 13.2007 37.9348 13.4473 38.985C15.0071 45.1215 20.0528 49.7518 26.3003 50.78C27.1823 50.925 28.0745 50.9986 28.9683 51C32.792 51.0089 36.4938 49.6557 39.4103 47.183C39.6183 47.006 39.8033 46.809 40.0003 46.623V52C40.0003 56.4183 43.5821 60 48.0003 60C52.4186 60 56.0003 56.4183 56.0003 52ZM39.0003 7V4C39.0003 2.89543 39.8958 2 41.0003 2H55.0003C56.1049 2 57.0003 2.89543 57.0003 4V7C57.0003 8.10457 56.1049 9 55.0003 9H41.0003C39.8958 9 39.0003 8.10457 39.0003 7ZM42.0003 11H54.0003V14H50.0003C49.4481 14 49.0003 14.4477 49.0003 15C49.0003 15.5523 49.4481 16 50.0003 16H54.0003V19H50.0003C49.4481 19 49.0003 19.4477 49.0003 20C49.0003 20.5523 49.4481 21 50.0003 21H54.0003V24H50.0003C49.4481 24 49.0003 24.4477 49.0003 25C49.0003 25.5523 49.4481 26 50.0003 26H54.0003V29H50.0003C49.4481 29 49.0003 29.4477 49.0003 30C49.0003 30.5523 49.4481 31 50.0003 31H54.0003V34H44.9623C44.6698 30.6997 43.6588 27.5033 42.0003 24.635V11ZM9.63534 33.891C6.50904 33.3672 3.99197 31.0375 3.22834 27.961C1.51334 20.726 10.0283 13.77 11.0003 13.005C11.8193 13.65 19.0003 19.495 19.0003 26.005C19.0026 29.3831 16.8809 32.3979 13.7003 33.536L13.6723 33.546C12.3778 34.0019 10.9885 34.1206 9.63534 33.891ZM38.1143 45.659C34.9322 48.3465 30.7287 49.4975 26.6213 48.806C21.1684 47.9133 16.7613 43.8768 15.3943 38.523C15.1337 37.4191 15.0048 36.2882 15.0103 35.154C18.6561 33.5729 21.0112 29.9738 21.0003 26C20.9832 24.5516 20.7103 23.1175 20.1943 21.764C22.6154 18.5422 25.4383 15.6431 28.5943 13.137C28.8383 12.9542 29.1749 12.9592 29.4133 13.149C33.6598 16.5198 37.2713 20.6206 40.0783 25.259C41.8868 28.2436 42.8933 31.6449 43.0003 35.133C42.9978 39.1892 41.2108 43.0389 38.1143 45.659ZM42.0003 52V44.356C43.7647 41.911 44.7897 39.0107 44.9533 36H54.0003V39H50.0003C49.4481 39 49.0003 39.4477 49.0003 40C49.0003 40.5523 49.4481 41 50.0003 41H54.0003V44H50.0003C49.4481 44 49.0003 44.4477 49.0003 45C49.0003 45.5523 49.4481 46 50.0003 46H54.0003V52C54.0003 55.3137 51.3141 58 48.0003 58C44.6866 58 42.0003 55.3137 42.0003 52Z" fill="#0181F5"/>
<path d="M10.2829 29.943C8.74411 29.6906 7.5015 28.5497 7.11889 27.038C7.04657 26.68 6.78483 26.3899 6.43613 26.2813C6.08743 26.1727 5.70725 26.2628 5.4444 26.5164C5.18155 26.7699 5.07785 27.1466 5.17389 27.499C5.74618 29.7933 7.6262 31.5288 9.95889 31.916C10.0127 31.9256 10.0672 31.9303 10.1219 31.93C10.643 31.9302 11.0768 31.5302 11.1189 31.0108C11.161 30.4914 10.7972 30.0268 10.2829 29.943Z" fill="#0181F5"/>
<path d="M27.2589 44.86C23.3908 44.239 20.2598 41.3822 19.2879 37.587C19.1534 37.0568 18.618 36.733 18.086 36.8602C17.5541 36.9874 17.223 37.5183 17.3429 38.052C18.5078 42.6282 22.2758 46.0777 26.9369 46.835C26.9904 46.8438 27.0446 46.8481 27.0989 46.848C27.6222 46.8509 28.0593 46.4499 28.1013 45.9282C28.1433 45.4066 27.776 44.9408 27.2589 44.86Z" fill="#0181F5"/>
<path d="M49.0007 55C49.0007 54.4477 48.553 54 48.0007 54C47.4594 54.0343 46.9296 53.8338 46.5467 53.4497C46.1637 53.0656 45.9648 52.5352 46.0007 51.994C45.999 51.4417 45.55 50.9954 44.9977 50.997C44.4454 50.9987 43.999 51.4477 44.0007 52C43.9694 53.0702 44.3808 54.1059 45.1378 54.8629C45.8948 55.6199 46.9305 56.0313 48.0007 56C48.553 56 49.0007 55.5523 49.0007 55Z" fill="#0181F5"/>
</svg>
