<svg width="50" height="50" viewBox="0 0 50 50" fill="none" xmlns="http://www.w3.org/2000/svg">
<path d="M47.1539 35.1941C44.7789 37.0919 41.4612 37.0916 39.0793 35.1884C38.794 34.9534 38.3755 34.958 38.0879 35.1888C35.711 37.0897 32.3918 37.0893 30.0301 35.1991C29.7448 34.9553 29.3194 34.953 29.0265 35.188C26.6503 37.0885 23.3303 37.0889 20.974 35.2044C20.6891 34.9557 20.2618 34.95 19.9654 35.1869C17.5889 37.0885 14.2689 37.0885 11.8863 35.1823C11.5963 34.9504 11.1855 34.9572 10.9028 35.1884C8.52512 37.0877 5.20825 37.0858 2.83207 35.1827C2.49562 34.9126 2.00313 34.9672 1.7342 35.304C1.46412 35.6404 1.51867 36.1322 1.85551 36.4019C4.64787 38.6396 8.49079 38.7601 11.3983 36.765C14.1384 38.648 17.7132 38.6495 20.4586 36.765C23.2006 38.6495 26.7769 38.6495 29.5212 36.765C32.2602 38.6472 35.8326 38.6506 38.5823 36.7646C39.9517 37.7076 41.5306 38.1799 43.1126 38.1799C44.8861 38.1799 46.6629 37.5859 48.1518 36.3961C48.4837 36.1238 48.5264 35.6404 48.256 35.3067C47.9859 34.9733 47.4884 34.926 47.1539 35.1941Z" fill="#0181F5"/>
<path d="M47.1539 42.4895C44.7789 44.3873 41.4612 44.387 39.0793 42.4838C38.794 42.2492 38.3755 42.2534 38.0879 42.4842C35.711 44.3851 32.3918 44.3847 30.0301 42.4945C29.7448 42.2504 29.3194 42.2488 29.0265 42.4834C26.6495 44.3851 23.3303 44.3839 20.9519 42.4815C20.6666 42.2492 20.2519 42.253 19.9658 42.4823C17.5892 44.3839 14.2697 44.3847 11.8863 42.4777C11.5963 42.2458 11.1855 42.2526 10.9028 42.4838C8.52512 44.3831 5.20825 44.3812 2.83207 42.4781C2.49562 42.208 2.00313 42.2626 1.7342 42.5994C1.46412 42.9359 1.51867 43.4276 1.85551 43.6973C4.64787 45.9354 8.49079 46.0551 11.3983 44.0604C14.1384 45.9434 17.7128 45.9445 20.459 44.06C23.2006 45.9445 26.7765 45.9449 29.5212 44.0604C32.2602 45.9426 35.8326 45.946 38.5823 44.06C39.9517 45.003 41.5306 45.4753 43.1126 45.4753C44.886 45.4753 46.6629 44.8813 48.1518 43.6915C48.4837 43.4192 48.5264 42.9358 48.256 42.6021C47.9859 42.2683 47.4884 42.2217 47.1539 42.4895Z" fill="#0181F5"/>
<path d="M9.83464 19.8777C9.40319 19.8777 9.05339 20.2275 9.05339 20.6589V28.872C6.95135 29.6927 4.53507 29.3682 2.68656 27.8877C2.35011 27.6176 1.85762 27.6722 1.58869 28.009C1.31862 28.3455 1.37316 28.8372 1.71 29.1069C4.50236 31.3446 8.34528 31.4651 11.2528 29.47C13.9929 31.353 17.5677 31.3545 20.3131 29.47C23.0551 31.3545 26.6314 31.3545 29.3757 29.47C32.1147 31.3522 35.6871 31.3556 38.4368 29.4697C39.8062 30.4126 41.3851 30.8849 42.9671 30.8849C44.7405 30.8849 46.5174 30.291 48.0063 29.1012C48.3382 28.8288 48.3809 28.3455 48.1105 28.0117C47.8404 27.6783 47.3429 27.631 47.0084 27.8991C44.6334 29.797 41.3157 29.7966 38.9338 27.8934C38.6485 27.6584 38.23 27.663 37.9424 27.8938C36.18 29.3032 33.9003 29.6648 31.8763 28.9884V18.3152H47.6562C48.0877 18.3152 48.4375 17.9654 48.4375 17.5339C48.4375 17.1025 48.0877 16.7527 47.6562 16.7527H40.5784V11.2336C40.5784 7.54207 37.5751 4.53876 33.8836 4.53876C30.1921 4.53876 27.1888 7.54207 27.1888 11.2336V16.7527H22.443V11.229C22.443 7.53749 19.4397 4.53418 15.7482 4.53418C12.0567 4.53418 9.05337 7.53749 9.05337 11.229V16.7527H2.34372C1.91227 16.7527 1.56247 17.1025 1.56247 17.5339C1.56247 17.9654 1.91227 18.3152 2.34372 18.3152H9.83464C10.2661 18.3152 10.6159 17.9654 10.6159 17.5339V11.229C10.6159 8.39885 12.9181 6.09668 15.7482 6.09668C18.5783 6.09668 20.8805 8.39885 20.8805 11.229V16.7481H19.318V11.229C19.318 9.26059 17.7166 7.65918 15.7482 7.65918C13.7798 7.65918 12.1784 9.26059 12.1784 11.229V28.208C12.0296 28.1076 11.8833 28.0013 11.7407 27.8873C11.4508 27.6554 11.04 27.6623 10.7573 27.8934C10.7113 27.9302 10.6626 27.9615 10.6159 27.9969V20.6589C10.6159 20.2275 10.2661 19.8777 9.83464 19.8777ZM13.7409 22.2344H27.1888V23.7969H13.7409V22.2344ZM28.7513 11.2336C28.7513 8.40343 31.0535 6.10126 33.8836 6.10126C36.7138 6.10126 39.0159 8.40343 39.0159 11.2336V16.7527H37.4534V11.2336C37.4534 9.26517 35.852 7.66376 33.8836 7.66376C31.9152 7.66376 30.3138 9.26516 30.3138 11.2336V14.4089C30.3138 14.8404 30.6636 15.1902 31.0951 15.1902C31.5265 15.1902 31.8763 14.8404 31.8763 14.4089V11.2336C31.8763 10.1269 32.777 9.22626 33.8836 9.22626C34.9903 9.22626 35.8909 10.1269 35.8909 11.2336V16.7527H31.0951C30.6637 16.7527 30.3138 17.1025 30.3138 17.5339V28.2185C30.1678 28.12 30.0243 28.0159 29.8846 27.9041C29.5993 27.6604 29.1739 27.6581 28.8809 27.893C28.8387 27.9268 28.7941 27.9554 28.7513 27.988L28.7513 11.2336ZM27.1888 20.6719H13.7409V18.3152H27.1888V20.6719ZM15.7482 9.22168C16.8548 9.22168 17.7555 10.1223 17.7555 11.229V16.7527H13.7409V11.229C13.7409 10.1223 14.6415 9.22168 15.7482 9.22168ZM13.7409 25.3594H27.1888V28.8683C25.0848 29.6963 22.6648 29.378 20.8285 27.9095C20.5435 27.6607 20.1163 27.655 19.8199 27.8919C18.0566 29.3028 15.7747 29.6644 13.7409 28.9798L13.7409 25.3594Z" fill="#0181F5"/>
</svg>
