<svg width="50" height="50" viewBox="0 0 50 50" fill="none" xmlns="http://www.w3.org/2000/svg">
<g clip-path="url(#clip0_1998_953)">
<path d="M28.123 33.4982C27.7186 33.4982 27.3906 33.1704 27.3906 32.7658V31.5471C27.3906 31.1425 27.7186 30.8147 28.123 30.8147C28.5275 30.8147 28.8555 31.1425 28.8555 31.5471V32.7658C28.8555 33.1703 28.5275 33.4982 28.123 33.4982Z" fill="#0181F5"/>
<path d="M40.8076 33.4982C40.4031 33.4982 40.0752 33.1704 40.0752 32.7658V31.5471C40.0752 31.1425 40.4031 30.8147 40.8076 30.8147C41.2121 30.8147 41.54 31.1425 41.54 31.5471V32.7658C41.54 33.1703 41.2121 33.4982 40.8076 33.4982Z" fill="#0181F5"/>
<path d="M34.465 34.2237C33.6125 34.2237 32.8017 33.8545 32.2408 33.2107C31.975 32.9057 32.0069 32.4431 32.3119 32.1774C32.6168 31.9115 33.0795 31.9434 33.3453 32.2484C33.6279 32.5728 34.036 32.7589 34.465 32.7589C34.8941 32.7589 35.3022 32.5729 35.5849 32.2483C35.8506 31.9435 36.3133 31.9116 36.6183 32.1774C36.9233 32.4432 36.955 32.9058 36.6893 33.2108C36.1284 33.8545 35.3176 34.2237 34.465 34.2237Z" fill="#0181F5"/>
<path d="M45.4621 30.8773L44.7268 25.422C44.6728 25.0212 44.3042 24.74 43.9031 24.794C43.5022 24.848 43.221 25.2167 43.275 25.6177L44.825 37.1175C43.2765 37.432 41.8215 38.1346 40.6082 39.1753C39.9395 39.7491 38.9685 39.7491 38.2997 39.1753C36.6107 37.7265 34.4541 36.9286 32.227 36.9286C29.9999 36.9286 27.8432 37.7265 26.1542 39.1753C25.9178 39.3781 25.6435 39.5077 25.3583 39.567L22.0315 7.81178C21.7707 5.32294 20.4363 3.17903 18.5027 1.83778L31.7088 1.8288H31.7151C36.4778 1.8288 40.5485 5.3871 41.1847 10.1076L42.8861 22.7312C42.9401 23.1321 43.309 23.4131 43.7099 23.3593C44.1108 23.3053 44.3919 22.9365 44.3379 22.5355L42.6365 9.91193C42.28 7.26606 40.9763 4.84158 38.9657 3.08508C36.957 1.33015 34.3822 0.364014 31.715 0.364014H31.7077L14.2781 0.37583C14.2775 0.37583 14.2769 0.375733 14.2763 0.375733H10.9913C6.57205 0.375733 2.92235 3.82944 2.68259 8.23845C2.66062 8.64237 2.9702 8.98759 3.37421 9.00956C3.38779 9.01025 3.40117 9.01064 3.41464 9.01064C3.80098 9.01064 4.12414 8.70828 4.14533 8.31794C4.34289 4.68581 7.35001 1.84062 10.9913 1.84062H14.2444C17.5662 2.07539 20.227 4.64782 20.5746 7.96442L22.97 30.8276H19.0257L16.6895 8.38933C16.5316 6.88294 15.2703 5.74688 13.7556 5.74688H10.9913C9.36471 5.74688 8.04143 7.07025 8.04143 8.69676V30.8275H5.25337C4.86957 30.8275 4.49563 30.87 4.13507 30.9485V11.3864C4.13507 10.9818 3.80714 10.6539 3.40263 10.6539C2.99813 10.6539 2.67019 10.9818 2.67019 11.3864V31.5094C1.07767 32.4128 0 34.1229 0 36.081V44.9974C0 47.5551 2.08101 49.6362 4.6388 49.6362H45.3612C47.919 49.6362 50 47.5551 50 44.9974V36.081C50 33.4333 48.0394 31.2275 45.4621 30.8773ZM45.668 32.4051C47.3231 32.8171 48.5352 34.3126 48.5352 36.081V37.1144C47.9269 36.9916 47.3066 36.9285 46.6812 36.9285C46.5468 36.9285 46.4127 36.9317 46.279 36.9375L45.668 32.4051ZM9.50631 17.4556H16.1606L16.5474 21.1704H9.50631V17.4556ZM16.0082 15.9907H9.50631V13.0648H15.7035L16.0082 15.9907ZM9.50631 22.6353H16.7L17.0047 25.5613H9.50641L9.50631 22.6353ZM10.9913 7.21186H13.7556C14.5182 7.21186 15.1531 7.78375 15.2325 8.54158L15.551 11.5999H9.50631V8.69686C9.50631 7.87799 10.1725 7.21186 10.9913 7.21186ZM9.50631 27.0262H17.1571L17.5529 30.8276H9.50631V27.0262ZM5.25337 32.2925H23.1233L23.8442 39.174C22.1554 37.7259 19.9994 36.9284 17.7728 36.9284C15.5457 36.9284 13.3891 37.7263 11.7001 39.1751C11.0313 39.749 10.0603 39.7489 9.39157 39.1751C7.70255 37.7263 5.54595 36.9284 3.31884 36.9284C2.69334 36.9284 2.07301 36.9916 1.46479 37.1143V36.0809C1.46488 33.992 3.16444 32.2925 5.25337 32.2925ZM48.5351 44.9974C48.5351 46.7475 47.1112 48.1713 45.3612 48.1713H4.6388C2.88875 48.1713 1.46488 46.7475 1.46488 44.9974V38.6134C2.06988 38.4673 2.69138 38.3934 3.31894 38.3934C5.19633 38.3934 7.01435 39.066 8.43793 40.2871C9.65935 41.3349 11.4324 41.3349 12.654 40.2871C14.0775 39.066 15.8956 38.3934 17.7729 38.3934C19.6503 38.3934 21.4684 39.066 22.8919 40.2871C24.1134 41.3349 25.8864 41.3349 27.108 40.2871C28.5316 39.066 30.3496 38.3934 32.227 38.3934C34.1043 38.3934 35.9224 39.066 37.3459 40.2871C38.5675 41.3349 40.3406 41.3349 41.562 40.2871C42.9855 39.066 44.8036 38.3934 46.681 38.3934C47.3086 38.3934 47.9301 38.4673 48.535 38.6134V44.9974H48.5351Z" fill="#0181F5"/>
</g>
<defs>
<clipPath id="clip0_1998_953">
<rect width="50" height="50" fill="white"/>
</clipPath>
</defs>
</svg>
