<svg width="60" height="60" viewBox="0 0 60 60" fill="none" xmlns="http://www.w3.org/2000/svg">
<g clip-path="url(#clip0_1709_1831)">
<path d="M17.6833 25.9137C15.1804 25.0259 13.2588 22.9707 12.5431 20.416C12.4021 19.9126 11.8798 19.6186 11.3761 19.7598C10.8726 19.9009 10.5788 20.4233 10.7199 20.9269C11.6014 24.0734 13.9641 26.6156 17.0502 27.6981C17.2243 27.7591 18.0025 27.799 18.2591 27.1224C18.4443 26.6335 18.176 26.0885 17.6833 25.9137Z" fill="#0181F5"/>
<path d="M48.4116 19.3431C45.1462 16.0778 40.8052 14.2797 36.1873 14.2797C34.6448 14.2797 33.1335 14.4814 31.6824 14.8704C28.7078 8.26474 20.6642 0.595722 20.3095 0.259587C19.9442 -0.0866105 19.3723 -0.0866105 19.007 0.259587C18.4975 0.742594 6.52539 12.1698 6.52539 19.226C6.52539 26.222 12.0243 31.9572 18.9267 32.3381C19.0652 35.4623 20.0436 38.556 21.863 41.2465L19.6939 43.4157C19.6935 43.416 19.693 43.4164 19.6927 43.4168L8.31172 54.7978C7.56901 55.5406 7.56901 56.7494 8.31172 57.4922L10.2622 59.4428C10.6336 59.8143 11.1216 60.0001 11.6095 60.0001C12.0974 60.0001 12.5853 59.8145 12.9568 59.4429L24.3378 48.0617L26.5054 45.8941C29.3411 47.8191 32.6844 48.8548 36.1873 48.8548C40.805 48.8548 45.1461 47.0565 48.4115 43.7913C51.6767 40.526 53.4748 36.1849 53.4748 31.5671C53.4749 26.9496 51.6768 22.6082 48.4116 19.3431ZM8.41877 19.226C8.41877 16.698 10.4477 12.8772 14.2859 8.17675C16.4341 5.54601 18.6061 3.31692 19.6581 2.27104C21.6008 4.20425 27.4819 10.2971 29.925 15.4443C27.7159 16.3016 25.6892 17.6173 23.9633 19.3431C20.8507 22.4556 19.1768 26.4692 18.9393 30.552C13.1295 30.1207 8.41877 25.1417 8.41877 19.226ZM11.6178 58.1039C11.6132 58.1085 11.6057 58.1085 11.6011 58.1039V58.104L9.6507 56.1534C9.64609 56.1489 9.64609 56.1413 9.6507 56.1368L20.3621 45.4252L22.3293 47.3925L11.6178 58.1039ZM23.6684 46.0535L21.7011 44.0862L22.9797 42.8078L23.9587 43.7868C23.9602 43.7883 23.9617 43.7899 23.9632 43.7914C23.9647 43.7929 23.9664 43.7945 23.968 43.7961L24.947 44.7751L23.6684 46.0535ZM47.0726 42.4523C44.1651 45.3599 40.2993 46.9613 36.1874 46.9613C32.0755 46.9613 28.2097 45.36 25.3023 42.4523C19.3001 36.4503 19.3001 26.6841 25.3023 20.6819C28.2097 17.7744 32.0755 16.1731 36.1875 16.1731C40.2993 16.1731 44.1651 17.7744 47.0726 20.6819C49.9802 23.5895 51.5815 27.4553 51.5815 31.5672C51.5815 35.679 49.9802 39.5449 47.0726 42.4523Z" fill="#0181F5"/>
<path d="M48.8707 29.3559C48.3084 26.3628 47.1921 24.3578 45.2947 22.4604C40.2732 17.4389 32.1027 17.4388 27.0808 22.4604C24.6483 24.8928 23.3086 28.1271 23.3086 31.5673C23.3087 35.0073 24.6483 38.2415 27.0809 40.6742C29.5917 43.1849 32.8897 44.4403 36.1878 44.4403C39.4859 44.4403 42.7839 43.1849 45.2947 40.6742C48.369 37.5999 49.5605 33.3456 48.8707 29.3559ZM25.2022 31.5673C25.2022 28.6328 26.3449 25.8742 28.4198 23.7992C32.703 19.516 39.6725 19.516 43.9557 23.7992C45.4735 25.317 46.4505 27.1724 46.8927 29.1255L44.0374 31.9807C43.2656 30.5347 41.7419 29.5481 39.9916 29.5481C38.4711 29.5481 37.1218 30.2929 36.2875 31.4363L35.0808 30.2297C35.3178 29.7403 35.451 29.1915 35.451 28.6122C35.451 26.5594 33.781 24.8893 31.7283 24.8893C29.6757 24.8893 28.0055 26.5594 28.0055 28.6122C28.0055 29.058 28.0844 29.4859 28.2289 29.8824L25.277 32.8342C25.2293 32.4166 25.2022 31.9941 25.2022 31.5673ZM42.6815 34.1317C42.6815 35.615 41.4748 36.8218 39.9915 36.8218C38.5081 36.8218 37.3013 35.615 37.3013 34.1317C37.3013 32.6485 38.5081 31.4417 39.9915 31.4417C41.4748 31.4416 42.6815 32.6485 42.6815 34.1317ZM33.5575 28.6124C33.5575 29.621 32.737 30.4416 31.7282 30.4416C30.7196 30.4416 29.8989 29.6211 29.8989 28.6124C29.8989 27.6037 30.7196 26.783 31.7282 26.783C32.7369 26.783 33.5575 27.6037 33.5575 28.6124ZM43.9558 39.3352C39.6727 43.6186 32.7031 43.6186 28.42 39.3352C27.1901 38.1054 26.2908 36.6341 25.7598 35.0297L29.3316 31.4579C29.9798 32.0046 30.816 32.335 31.7282 32.335C32.5143 32.335 33.2437 32.0895 33.8451 31.6721L35.483 33.3099C35.4345 33.5768 35.4077 33.8511 35.4077 34.1318C35.4077 36.6592 37.4639 38.7154 39.9914 38.7154C42.5187 38.7154 44.5749 36.6592 44.5749 34.1318C44.5749 34.1284 44.5747 34.125 44.5747 34.1215L47.1673 31.5288C47.1772 34.3548 46.1073 37.1837 43.9558 39.3352Z" fill="#0181F5"/>
</g>
<defs>
<clipPath id="clip0_1709_1831">
<rect width="60" height="60" fill="white"/>
</clipPath>
</defs>
</svg>
