<svg width="50" height="50" viewBox="0 0 50 50" fill="none" xmlns="http://www.w3.org/2000/svg">
<path d="M39.7136 9.14519C26.7203 -3.82224 3.96415 5.53653 4.0099 24.0975L4.00977 31.3993C4.01024 31.8137 4.17508 32.211 4.46812 32.5041C4.76117 32.7971 5.15848 32.962 5.57291 32.9624H44.4278C44.8423 32.962 45.2396 32.7971 45.5326 32.5041C45.8257 32.211 45.9905 31.8137 45.991 31.3993V24.0973C45.9922 21.3127 45.4376 18.5558 44.3597 15.9884C43.2818 13.4209 41.7022 11.0944 39.7136 9.14519ZM44.4278 24.0973L44.4282 27.3563H33.8652V24.0965C33.8459 19.1495 35.7368 14.386 39.1436 10.7992C42.5395 14.3939 44.4302 19.1522 44.4278 24.0973ZM25.782 4.69003C30.3272 4.8688 34.6642 6.64314 38.0314 9.7015C34.3346 13.5801 32.2815 18.7384 32.302 24.0965V27.3563H25.782V4.69003ZM24.2188 4.69003V27.3563H17.6987V24.0965C17.7111 18.7398 15.6599 13.5842 11.9712 9.7C15.3381 6.64257 19.6744 4.8688 24.2188 4.69003ZM5.57295 24.0973C5.57057 19.1515 7.46195 14.3925 10.8587 10.7976C14.2578 14.39 16.1469 19.1509 16.1356 24.0965V27.3563H5.57295V24.0973ZM5.57295 31.3993V28.9195H44.4284L44.4286 31.3993H5.57295Z" fill="#0181F5"/>
<path d="M43.7986 39.6027H41.9253C39.5888 35.3725 30.4592 35.3747 28.1263 39.6029L21.8732 39.6027C20.7621 37.7048 18.1257 36.4001 14.9736 36.4001C11.8216 36.4001 9.18522 37.7048 8.07417 39.6027H6.20081C5.66522 39.609 5.15369 39.8261 4.77715 40.207C4.40061 40.588 4.18945 41.102 4.18945 41.6376C4.18946 42.1732 4.40064 42.6872 4.77718 43.0682C5.15373 43.4491 5.66527 43.6662 6.20086 43.6724H8.07416C9.18522 45.5704 11.8216 46.875 14.9736 46.875C18.1257 46.875 20.7621 45.5704 21.8731 43.6724H28.1263C30.4506 47.8993 39.5998 47.901 41.9253 43.6722L43.7986 43.6724C44.3342 43.6662 44.8458 43.4491 45.2223 43.0682C45.5988 42.6872 45.81 42.1732 45.81 41.6376C45.81 41.102 45.5988 40.5879 45.2223 40.207C44.8458 39.8261 44.3342 39.609 43.7986 39.6027ZM7.54075 42.1093H6.20081C6.07734 42.1068 5.95976 42.056 5.87331 41.9678C5.78687 41.8796 5.73845 41.7611 5.73846 41.6376C5.73846 41.5141 5.78689 41.3955 5.87335 41.3073C5.9598 41.2191 6.07739 41.1684 6.20086 41.1659H7.54075C7.49829 41.4789 7.49829 41.7962 7.54075 42.1093ZM14.9736 45.3119C7.16275 45.0669 7.16384 38.2078 14.9737 37.9633C22.7845 38.2083 22.7834 45.0674 14.9736 45.3119ZM27.5929 42.1093H22.4065C22.449 41.7962 22.449 41.4789 22.4065 41.1659H27.5929C27.5505 41.4789 27.5505 41.7962 27.5929 42.1093ZM35.0258 45.3119C27.2149 45.0669 27.216 38.2078 35.0259 37.9633C42.8367 38.2083 42.8356 45.0674 35.0258 45.3119ZM43.7986 42.1093H42.4587C42.5011 41.7962 42.5011 41.4789 42.4587 41.1659H43.7986C43.9221 41.1684 44.0397 41.2191 44.1261 41.3073C44.2126 41.3955 44.261 41.5141 44.261 41.6376C44.261 41.7611 44.2126 41.8797 44.1261 41.9678C44.0397 42.056 43.9221 42.1068 43.7986 42.1093Z" fill="#0181F5"/>
</svg>
