<svg width="60" height="60" viewBox="0 0 60 60" fill="none" xmlns="http://www.w3.org/2000/svg">
<path d="M52.8318 56.2555H7.16914C6.69874 56.2555 6.31738 55.8743 6.31738 55.4038V50.9917C6.31738 50.5213 6.69874 50.14 7.16914 50.14H8.70706V34.2307C8.70706 31.5995 10.8475 29.4594 13.4784 29.4594C13.9488 29.4594 14.3301 29.8407 14.3301 30.3112C14.3301 38.9515 21.3597 45.9814 30.0005 45.9814C38.6412 45.9814 45.6708 38.9515 45.6708 30.3112C45.6708 29.8407 46.052 29.4594 46.5225 29.4594C49.1538 29.4594 51.2939 31.5995 51.2939 34.2307V50.1399H52.8317C53.3022 50.1399 53.6834 50.5212 53.6834 50.9916V55.4037C53.6837 55.8743 53.3023 56.2555 52.8318 56.2555ZM8.0209 54.5519H51.9801V51.8435H50.4422C49.9717 51.8435 49.5905 51.4623 49.5905 50.9917V34.2307C49.5905 32.8246 48.6402 31.6368 47.3478 31.2754C46.8461 40.4095 39.2571 47.685 30.0005 47.685C20.7439 47.685 13.1546 40.4095 12.6531 31.2754C11.3609 31.6368 10.4106 32.8246 10.4106 34.2307V50.9917C10.4106 51.4623 10.0292 51.8435 9.55882 51.8435H8.0209V54.5519Z" fill="#0181F5"/>
<path d="M44.0078 51.8435H9.55879C9.08827 51.8435 8.70703 51.4623 8.70703 50.9918C8.70703 50.5214 9.08827 50.14 9.55879 50.14H44.0078C44.4782 50.14 44.8596 50.5214 44.8596 50.9918C44.8597 51.4623 44.4783 51.8435 44.0078 51.8435Z" fill="#0181F5"/>
<path d="M56.1482 56.2555H3.85176C3.38124 56.2555 3 55.8743 3 55.4038C3 54.9332 3.38124 54.552 3.85176 54.552H56.1481C56.6186 54.552 56.9999 54.9332 56.9999 55.4038C57 55.8743 56.6188 56.2555 56.1482 56.2555Z" fill="#0181F5"/>
<path d="M34.6822 9.11283H25.319C24.2327 9.11283 23.3486 8.22903 23.3486 7.14231V5.71503C23.3486 4.62831 24.2327 3.74451 25.319 3.74451H34.6822C35.7685 3.74451 36.6526 4.62831 36.6526 5.71503V7.14243C36.6526 8.22903 35.7685 9.11283 34.6822 9.11283ZM25.3394 5.44815C25.172 5.44815 25.0523 5.56791 25.0523 5.71503V7.14243C25.0523 7.28955 25.172 7.40931 25.3192 7.40931H34.6823C34.8293 7.40931 34.949 7.28955 34.949 7.14243V5.71503C34.949 5.56791 34.8293 5.44815 34.6823 5.44815H25.3394Z" fill="#0181F5"/>
<path d="M30.0219 43.2837C29.5234 43.2837 29.0207 43.2557 28.5149 43.1999C22.3488 42.5205 17.4886 37.5335 16.9582 31.342C16.681 28.1058 17.595 24.9048 19.5322 22.3296C19.7178 22.0828 19.7146 21.7527 19.5245 21.5265L16.6128 18.0561C15.7155 16.9866 15.8551 15.3862 16.9248 14.4885C17.9952 13.5915 19.5953 13.7313 20.4927 14.7999L23.4127 18.2802C23.6087 18.5131 23.9371 18.583 24.2113 18.4486C25.1194 18.0021 25.6624 17.1297 25.6624 16.1554V8.26106C25.6624 7.79054 26.0437 7.4093 26.5141 7.4093H33.4861C33.9567 7.4093 34.3379 7.79054 34.3379 8.26106V16.1554C34.3379 17.1297 34.8809 18.0021 35.7551 18.4313C36.0612 18.5823 36.3929 18.5124 36.5916 18.2755L40.5881 13.5129C40.7332 13.3398 40.9414 13.2313 41.1664 13.212C41.3907 13.194 41.6152 13.2625 41.7882 13.4083L44.363 15.5692C44.7233 15.8712 44.7702 16.4083 44.4677 16.7691L40.4913 21.5079C40.2927 21.7449 40.288 22.0895 40.48 22.3457C42.1886 24.6235 43.0916 27.336 43.0916 30.1908C43.0916 33.9081 41.5024 37.4637 38.7318 39.9451C36.2988 42.1245 33.2503 43.2837 30.0219 43.2837ZM18.5523 15.5998C18.3642 15.5998 18.1749 15.663 18.0198 15.7935C17.6698 16.087 17.6239 16.6107 17.9176 16.9607L20.8294 20.4311C21.5321 21.2683 21.5584 22.4701 20.8933 23.3538C19.2087 25.5937 18.4141 28.3787 18.6557 31.1969C19.1165 36.5799 23.3416 40.9161 28.7019 41.5069C31.993 41.8696 35.152 40.8648 37.5952 38.6761C40.0054 36.5175 41.3879 33.4243 41.3879 30.1908C41.3879 27.708 40.6026 25.3482 39.1172 23.3679C38.4473 22.4748 38.4759 21.2597 39.1863 20.4126L42.615 16.3267L41.3453 15.2607L37.8966 19.3713C37.1932 20.2097 36.016 20.4586 35.0325 19.9755C33.5424 19.2429 32.6344 17.7849 32.6344 16.1557V9.11282H27.3659V16.1554C27.3659 17.7838 26.4582 19.2418 24.9965 19.9606C23.9826 20.4576 22.8084 20.2108 22.1077 19.3756L19.1877 15.8952C19.024 15.7002 18.7891 15.5998 18.5523 15.5998Z" fill="#0181F5"/>
<path d="M42.4766 15.9491C42.2797 15.9491 42.082 15.8813 41.9212 15.7428C41.5646 15.436 41.5243 14.8984 41.8313 14.5416L43.9564 12.0729C44.2642 11.7168 44.8019 11.6769 45.1576 11.983C45.5143 12.2898 45.5546 12.8275 45.2475 13.1842L43.1224 15.6531C42.9539 15.8487 42.7157 15.9491 42.4766 15.9491Z" fill="#0181F5"/>
<path d="M33.7895 34.5628C32.0273 34.5628 30.2139 34.3957 28.5942 33.9267C23.5494 32.4673 18.1069 33.15 18.0516 33.1567C17.5874 33.2226 17.1579 32.8885 17.0971 32.4227C17.0363 31.9563 17.3646 31.5291 17.8308 31.4679C18.0667 31.4352 23.6715 30.7293 29.0681 32.2903C34.131 33.7564 41.6976 31.9084 41.7732 31.8898C42.2294 31.7733 42.6915 32.0541 42.8053 32.5107C42.9188 32.9671 42.6409 33.4289 42.1848 33.5428C41.9533 33.6005 38.0201 34.5628 33.7895 34.5628Z" fill="#0181F5"/>
<path d="M33.3679 29.47C31.8553 29.47 30.5373 28.3952 30.2343 26.9153C30.1399 26.4541 30.437 26.0042 30.8981 25.9098C31.3567 25.8126 31.8092 26.1121 31.9033 26.5733C32.0447 27.2647 32.6609 27.7664 33.368 27.7664C34.1925 27.7664 34.8633 27.0956 34.8633 26.2718C34.8633 25.4473 34.1925 24.7765 33.368 24.7765C32.8976 24.7765 32.5162 24.3953 32.5162 23.9248C32.5162 23.4544 32.8976 23.0731 33.368 23.0731C35.1319 23.0731 36.5669 24.5077 36.5669 26.272C36.5668 28.0352 35.1317 29.47 33.3679 29.47Z" fill="#0181F5"/>
<path d="M26.6967 28.2016C26.4594 28.2016 26.2231 28.103 26.0548 27.9101C25.7453 27.556 25.7815 27.0176 26.1359 26.7082C26.3526 26.5186 26.4769 26.2457 26.4769 25.9583C26.4769 25.4099 26.0307 24.9641 25.4824 24.9641C24.934 24.9641 24.4878 25.4099 24.4878 25.9583C24.4878 26.1394 24.5367 26.3162 24.6288 26.4701C24.8713 26.8733 24.7407 27.3964 24.3373 27.6386C23.935 27.8808 23.4106 27.7511 23.1688 27.3472C22.9171 26.9286 22.7842 26.4481 22.7842 25.9584C22.7842 24.4711 23.9946 23.2607 25.4823 23.2607C26.9699 23.2607 28.1803 24.4712 28.1803 25.9584C28.1803 26.737 27.8436 27.4783 27.2562 27.9913C27.0952 28.1324 26.8955 28.2016 26.6967 28.2016Z" fill="#0181F5"/>
</svg>
