<svg width="60" height="60" viewBox="0 0 60 60" fill="none" xmlns="http://www.w3.org/2000/svg">
<path d="M56.7949 41.1486C55.7554 39.536 53.8209 39.024 52.0917 39.9029C51.7657 40.0684 51.4775 40.2061 51.2117 40.3232C48.5624 41.3485 45.7743 41.7996 42.8228 42.277C40.0482 42.7258 37.2015 43.1864 34.4733 44.1701C35.1368 42.6336 36.0104 41.1241 37.0846 39.6602C38.153 38.305 39.3667 37.1052 40.6921 36.0937C41.0381 35.8428 41.3895 35.5918 41.7433 35.3391C45.2891 32.8058 49.3079 29.9346 50.565 25.1925C50.8137 24.2817 50.666 23.2748 50.1595 22.4301C49.6768 21.6249 48.9339 21.0728 48.0677 20.8754C46.175 20.4441 44.3052 21.5253 43.8109 23.3366C43.7634 23.5108 43.7041 23.6968 43.6196 23.9366C43.4268 24.3899 43.0439 25.0371 42.7526 25.4012C42.1154 26.1547 41.347 26.8931 40.3367 27.7227C39.7365 28.1757 39.1075 28.6255 38.499 29.0607C37.3277 29.8983 36.1262 30.7574 34.9979 31.7287C34.0555 30.2093 33.1783 28.551 32.5186 27.0313C31.9882 25.7911 31.8272 24.6552 32.1083 24.1373C32.1113 24.1317 32.1144 24.1259 32.1173 24.1202C32.3532 23.6684 32.5565 23.3383 32.7741 23.0548C33.1905 22.5725 33.6266 22.1076 34.088 21.6159C35.7091 19.8879 37.3855 18.1012 38.0996 15.6012C38.3632 14.7116 38.229 13.7137 37.7316 12.8633C37.251 12.0419 36.4774 11.4575 35.609 11.2597C33.7317 10.8317 31.9104 11.8712 31.3646 13.6786C31.1967 14.1805 31.0051 14.5063 30.6513 14.9989C30.2374 15.4739 29.7964 15.9463 29.3695 16.4034C27.3235 18.5948 25.2077 20.8609 24.9729 24.4135C24.6985 28.2077 27.5922 33.3569 30.2594 37.2309C28.7624 39.5642 27.5867 42.1793 26.803 44.9108C25.721 43.9539 24.6074 42.8644 23.6297 41.6316C22.9639 40.7458 22.4141 39.8226 21.9954 38.8872C21.6576 38.0565 21.4007 37.1007 21.1879 35.8835C20.9957 34.2559 21.024 32.4901 21.2796 30.1669C21.5408 28.3839 21.9161 26.5686 22.279 24.8128C22.9592 21.5218 23.6626 18.1187 23.6963 14.6326C23.7472 10.5151 23.0143 6.31773 21.5769 2.49389C20.9711 0.882004 19.2499 -0.481936 17.2534 0.163944C16.2985 0.47294 15.4656 1.20225 15.0256 2.11506C14.6439 2.90706 14.5957 3.77428 14.8909 4.55972C15.6263 6.50193 16.1584 8.55171 16.4729 10.6523C16.7772 13.1075 16.769 15.5855 16.4485 18.0176C16.193 19.7762 15.8198 21.5567 15.4587 23.2787C15.2564 24.2436 15.0501 25.2277 14.8611 26.222C12.2469 24.4087 8.92506 24.2422 6.16917 24.3402C5.20211 24.3695 4.26505 24.7988 3.59819 25.5178C2.9829 26.1811 2.66546 27.0249 2.70437 27.8938C2.78885 29.7817 4.25989 31.2968 6.05364 31.343C6.19542 31.3458 6.32115 31.3367 6.43669 31.3259C10.9662 30.895 11.6962 32.8571 11.9358 33.502C12.2688 34.3978 12.7012 35.1824 13.2215 35.8343C13.5464 36.2416 13.9055 36.6117 14.2928 36.939C14.7184 40.2414 16.0615 43.2789 18.3893 46.2095C20.5531 48.9336 23.2933 51.189 25.5541 52.9008C25.5057 54.1155 25.5171 55.3449 25.5881 56.5645C25.7006 58.4889 27.216 59.9999 28.9989 59.9998C29.0458 59.9998 29.0931 59.9987 29.1403 59.9967C30.1175 59.9529 31.0915 59.4935 31.746 58.7679C32.3383 58.1112 32.6371 57.2802 32.5875 56.4279C32.5263 55.3791 32.5101 54.3495 32.539 53.3605C32.7369 53.1673 32.9411 52.9788 33.1494 52.7974C33.1513 52.7956 33.3418 52.6298 33.5321 52.4756C35.7369 50.6854 39.1783 50.0435 39.2117 50.0374L40.9898 49.7188C41.6268 49.6045 42.0508 48.9957 41.9366 48.3587C41.8225 47.7217 41.2146 47.298 40.5766 47.4119L38.7975 47.7308C38.6329 47.7604 34.7355 48.4798 32.0552 50.656C31.8326 50.8367 31.6191 51.0225 31.6102 51.0302C31.2394 51.3532 30.8797 51.6953 30.5407 52.0474C30.3429 52.2531 30.2267 52.5237 30.2142 52.8089C30.1615 54.013 30.1728 55.2765 30.248 56.5644C30.2612 56.7921 30.1798 57.0054 30.0059 57.1983C29.766 57.4643 29.3941 57.6395 29.0356 57.6554C28.4201 57.6858 27.9637 57.0429 27.9279 56.4279C27.8496 55.0868 27.8486 53.733 27.9246 52.4041C27.9471 52.0114 27.771 51.6336 27.4558 51.3983C22.1976 47.4723 17.2392 42.9142 16.5676 36.2041C16.5344 35.8726 16.3616 35.5707 16.0924 35.3743C15.7066 35.0928 15.3667 34.765 15.0535 34.3724C14.6888 33.9152 14.3789 33.3476 14.1329 32.6854C13.9295 32.1383 13.6294 31.5701 13.1891 31.0459C13.0476 30.7941 12.8512 30.568 12.5938 30.4467C11.3735 29.4016 9.40115 28.69 6.21487 28.9926C6.1612 28.9978 6.12476 29.0001 6.1141 29C5.48709 28.984 5.07169 28.3588 5.04615 27.7889C5.03256 27.4849 5.18582 27.2527 5.31683 27.1115C5.55282 26.8571 5.90681 26.6928 6.24686 26.6825C9.11559 26.5803 12.6739 26.7828 14.7537 29.2714C15.049 29.6247 15.5238 29.7722 15.9676 29.6486C16.4113 29.5249 16.7413 29.1527 16.811 28.6974C17.0637 27.0468 17.4139 25.3756 17.7528 23.7595C18.1217 21.9996 18.5032 20.18 18.7694 18.3465C18.7702 18.3415 18.7709 18.3366 18.7716 18.3315C19.1197 15.6947 19.1282 13.0089 18.7973 10.3488C18.796 10.3394 18.7949 10.33 18.7935 10.3206C18.4547 8.04995 17.8794 5.8325 17.0842 3.73233C17.0157 3.54977 17.0335 3.34799 17.1374 3.13239C17.2971 2.80089 17.6339 2.50397 17.9755 2.39347C18.6648 2.17013 19.205 2.84238 19.3839 3.31823C20.7197 6.87197 21.4009 10.7744 21.3536 14.6066C21.322 17.8676 20.6422 21.157 19.9847 24.3381C19.6135 26.1339 19.2297 27.9907 18.9583 29.8483C18.9562 29.8617 18.9546 29.8755 18.9531 29.8892C18.6734 32.4224 18.6463 34.3665 18.8652 36.1926C18.8675 36.2131 18.8706 36.2335 18.8741 36.2537C19.1191 37.6647 19.4239 38.7886 19.8335 39.7906C19.8382 39.8021 19.843 39.8132 19.8479 39.8245C20.3413 40.9308 20.9868 42.0169 21.7666 43.0524C21.7723 43.0599 21.7781 43.0674 21.7839 43.0747C23.3378 45.0375 25.1583 46.6291 26.734 47.9272C27.0493 48.1871 27.4772 48.2635 27.863 48.1298C28.2489 47.9958 28.5373 47.6708 28.624 47.2717C29.3592 43.8905 30.7493 40.6414 32.6437 37.8758C32.9207 37.4713 32.9167 36.9371 32.6336 36.5368C29.0663 31.4939 27.1262 27.1366 27.3114 24.5752C27.4916 21.8492 29.156 20.0665 31.0831 18.0024C31.5366 17.5167 32.0055 17.0145 32.4576 16.4934C33.0101 15.7607 33.3743 15.1258 33.6066 14.3622C33.7925 13.7349 34.4156 13.3912 35.0889 13.5444C35.3283 13.599 35.5545 13.7819 35.7093 14.0465C35.8783 14.3357 35.9321 14.6679 35.8498 14.9461C35.2882 16.9113 33.8752 18.4175 32.3792 20.0121C31.9142 20.5077 31.4335 21.0203 30.9784 21.5487C30.9656 21.5636 30.9532 21.5789 30.9412 21.5944C30.6331 21.9909 30.3479 22.4466 30.0441 23.0281C29.2215 24.5554 29.7637 26.5483 30.3669 27.9584C31.2674 30.0326 32.4854 32.2438 33.7967 34.1848C33.9914 34.473 34.3042 34.6598 34.6503 34.6947C34.9966 34.7286 35.3401 34.6087 35.5884 34.3651C36.8705 33.1066 38.3241 32.0673 39.8627 30.9667C40.49 30.5183 41.1384 30.0545 41.7688 29.5779C41.7811 29.5687 41.7933 29.5592 41.8053 29.5494C42.9427 28.617 43.8159 27.7756 44.5532 26.9017C44.5588 26.8951 44.5643 26.8885 44.5697 26.8817C45.0053 26.3419 45.5207 25.4699 45.7957 24.8088C45.8036 24.7896 45.8112 24.7702 45.818 24.7506C45.9285 24.439 46.0069 24.1932 46.0724 23.9536C46.254 23.2879 46.9655 23.0276 47.5478 23.1602C47.8679 23.2332 48.0628 23.4891 48.1503 23.6351C48.3245 23.9257 48.3837 24.2859 48.3026 24.5834C47.2595 28.5181 43.7629 31.0162 40.3816 33.432C40.0193 33.6909 39.6596 33.9478 39.3053 34.2048C39.2978 34.2102 39.2905 34.2157 39.2832 34.2213C37.7913 35.358 36.428 36.7055 35.2315 38.2261C35.2236 38.2361 35.2157 38.2463 35.2082 38.2568C33.3914 40.7287 32.0904 43.3333 31.3411 45.9982C31.2148 46.4476 31.3674 46.9292 31.7293 47.224C32.0912 47.5188 32.5936 47.5704 33.0083 47.3557C36.1416 45.7318 39.569 45.1774 43.1976 44.5903C46.1473 44.1132 49.1973 43.6197 52.0839 42.4985C52.0993 42.4925 52.1146 42.4863 52.1297 42.4796C52.4432 42.3423 52.7778 42.1829 53.1536 41.9921C53.8026 41.6621 54.4433 41.8253 54.8256 42.4183C54.9616 42.6292 54.9927 42.9573 54.9069 43.2745C54.8253 43.5768 54.6521 43.8205 54.4437 43.9264C53.1843 44.5664 51.6741 45.0978 49.691 45.599C49.0637 45.7575 48.6834 46.3947 48.8421 47.0222C49.0006 47.6496 49.6377 48.0304 50.2652 47.8711C52.4215 47.3263 54.0866 46.7365 55.5053 46.0156C56.3071 45.6082 56.9136 44.832 57.1693 43.8861C57.4301 42.9202 57.2937 41.9223 56.7949 41.1486Z" fill="#0181F5"/>
<path d="M45.3954 48.8934C46.0426 48.8934 46.5672 48.3688 46.5672 47.7216C46.5672 47.0745 46.0426 46.5499 45.3954 46.5499C44.7483 46.5499 44.2236 47.0745 44.2236 47.7216C44.2236 48.3688 44.7483 48.8934 45.3954 48.8934Z" fill="#0181F5"/>
</svg>
