<svg width="30" height="30" viewBox="0 0 30 30" fill="none" xmlns="http://www.w3.org/2000/svg">
<path d="M10.9752 8.63751L20.5752 21.275H19.0877L9.3877 8.63751H10.9752Z" fill="white"/>
<path d="M21.25 2.5H8.75C7.0924 2.5 5.50269 3.15847 4.33059 4.33059C3.15847 5.50269 2.5 7.0924 2.5 8.75V21.25C2.5 22.9076 3.15847 24.4974 4.33059 25.6694C5.50269 26.8415 7.0924 27.5 8.75 27.5H21.25C22.9076 27.5 24.4974 26.8415 25.6694 25.6694C26.8415 24.4974 27.5 22.9076 27.5 21.25V8.75C27.5 7.0924 26.8415 5.50269 25.6694 4.33059C24.4974 3.15847 22.9076 2.5 21.25 2.5ZM18.35 22.875L14.125 17.375L9.275 22.875H6.6L12.85 15.7375L6.25 7.125H11.7875L15.6125 12.125L20 7.125H22.675L16.85 13.75L23.75 22.875H18.35Z" fill="white"/>
</svg>
