<svg width="19" height="18" viewBox="0 0 19 18" fill="none" xmlns="http://www.w3.org/2000/svg">
<path d="M0.216369 8.4291L9.22384 0.220559C9.51943 -0.0735196 9.99873 -0.0735196 10.2943 0.220559C10.5899 0.514615 10.5899 0.991754 10.2943 1.28583L1.83001 9.00001L10.2936 16.7142C10.5892 17.0082 10.5892 17.4854 10.2936 17.7794C9.99803 18.0735 9.51863 18.0735 9.22311 17.7794L0.215619 9.5709C0.0580801 9.41413 -0.00946195 9.2063 0.00106005 9.00076C-0.00873495 8.79445 0.0587851 8.58664 0.216369 8.4291Z" fill="white"/>
<path d="M8.21637 8.4291L17.2238 0.220559C17.5194 -0.0735196 17.9987 -0.0735196 18.2943 0.220559C18.5899 0.514615 18.5899 0.991754 18.2943 1.28583L9.83001 9.00001L18.2936 16.7142C18.5892 17.0082 18.5892 17.4854 18.2936 17.7794C17.998 18.0735 17.5186 18.0735 17.2231 17.7794L8.21562 9.5709C8.05808 9.41413 7.99054 9.2063 8.00106 9.00076C7.99127 8.79445 8.05879 8.58664 8.21637 8.4291Z" fill="white"/>
</svg>
