<svg width="24" height="24" viewBox="0 0 24 24" fill="none" xmlns="http://www.w3.org/2000/svg">
<path d="M11.9998 19C11.8012 19.0012 11.6067 18.9432 11.4412 18.8333C11.2757 18.7236 11.1466 18.567 11.0705 18.3835C10.9943 18.2001 10.9745 17.9981 11.0136 17.8034C11.0526 17.6086 11.1488 17.4299 11.2898 17.29L16.5898 12L11.2898 6.71002C11.126 6.51872 11.0404 6.27267 11.0501 6.02095C11.0598 5.76928 11.1642 5.53055 11.3422 5.35247C11.5204 5.17439 11.7591 5.07005 12.0108 5.0603C12.2625 5.0506 12.5085 5.13619 12.6998 5.30002L18.6998 11.3C18.8861 11.4874 18.9906 11.7408 18.9906 12.005C18.9906 12.2692 18.8861 12.5227 18.6998 12.71L12.6998 18.71C12.5136 18.8948 12.2622 18.9989 11.9998 19Z" fill="black"/>
<path d="M5.99981 19C5.8012 19.0012 5.60672 18.9432 5.4412 18.8333C5.27568 18.7236 5.14664 18.567 5.07047 18.3835C4.99429 18.2001 4.97447 17.9981 5.01356 17.8034C5.05261 17.6086 5.14879 17.4299 5.28984 17.29L10.5898 12.0001L5.28984 6.71002C5.10154 6.52172 4.99575 6.26635 4.99575 6.00005C4.99575 5.73375 5.10154 5.47833 5.28984 5.29003C5.47814 5.10174 5.73351 4.99594 5.99981 4.99594C6.26615 4.99594 6.52153 5.10174 6.70983 5.29003L12.7098 11.29C12.8961 11.4774 13.0006 11.7308 13.0006 11.995C13.0006 12.2592 12.8961 12.5127 12.7098 12.7L6.70983 18.7C6.6172 18.7945 6.50676 18.8697 6.38489 18.9212C6.26301 18.9727 6.13214 18.9995 5.99981 19Z" fill="black"/>
</svg>
