<svg width="18" height="19" viewBox="0 0 18 19" fill="none" xmlns="http://www.w3.org/2000/svg">
<path d="M8.62497 7.24994H9.37496V8.37493H8.62497V7.24994ZM3 9.12493H3.75V10.2499H3V9.12493ZM4.87499 9.12493H5.62498V10.2499H4.87499V9.12493ZM6.74998 9.12493H7.49997V10.2499H6.74998V9.12493ZM8.62497 9.12493H9.37496V10.2499H8.62497V9.12493ZM3 10.9999H3.75V12.1249H3V10.9999ZM4.87499 10.9999H5.62498V12.1249H4.87499V10.9999ZM6.74998 10.9999H7.49997V12.1249H6.74998V10.9999ZM8.62497 10.9999H9.37496V12.1249H8.62497V10.9999ZM10.5 9.12493H11.25V10.2499H10.5V9.12493ZM12.3749 9.12493H13.1249V10.2499H12.3749V9.12493ZM14.2499 9.12493H14.9999V10.2499H14.2499V9.12493ZM10.5 10.9999H11.25V12.1249H10.5V10.9999ZM12.3749 10.9999H13.1249V12.1249H12.3749V10.9999ZM14.2499 10.9999H14.9999V12.1249H14.2499V10.9999ZM3 12.8749H3.75V13.9999H3V12.8749ZM4.87499 12.8749H5.62498V13.9999H4.87499V12.8749ZM6.74998 12.8749H7.49997V13.9999H6.74998V12.8749ZM8.62497 12.8749H9.37496V13.9999H8.62497V12.8749ZM10.5 12.8749H11.25V13.9999H10.5V12.8749ZM12.3749 12.8749H13.1249V13.9999H12.3749V12.8749ZM14.2499 12.8749H14.9999V13.9999H14.2499V12.8749ZM3 14.7499H3.75V15.8749H3V14.7499ZM4.87499 14.7499H5.62498V15.8749H4.87499V14.7499ZM6.74998 14.7499H7.49997V15.8749H6.74998V14.7499ZM10.5 7.24994H11.25V8.37493H10.5V7.24994ZM12.3749 7.24994H13.1249V8.37493H12.3749V7.24994ZM14.2499 7.24994H14.9999V8.37493H14.2499V7.24994Z" fill="#51BC98"/>
<path d="M14.6249 18.4999H0.374998C0.275542 18.4999 0.18016 18.4604 0.109834 18.3901C0.0395086 18.3198 0 18.2244 0 18.1249V5C0 4.90054 0.0395086 4.80516 0.109834 4.73483C0.18016 4.66451 0.275542 4.625 0.374998 4.625H17.6249C17.7244 4.625 17.8197 4.66451 17.8901 4.73483C17.9604 4.80516 17.9999 4.90054 17.9999 5V15.1249C18.0002 15.1743 17.9907 15.2232 17.9721 15.2689C17.9534 15.3146 17.9259 15.3561 17.8911 15.3912L14.8912 18.3912C14.8561 18.4259 14.8146 18.4534 14.7689 18.4721C14.7232 18.4907 14.6743 18.5002 14.6249 18.4999ZM0.749996 17.7499H14.4712L17.2499 14.9712V5.375H0.749996V17.7499Z" fill="#51BC98"/>
<path d="M17.6249 5.37498H0.374998C0.275542 5.37498 0.18016 5.33547 0.109834 5.26514C0.0395086 5.19482 0 5.09944 0 4.99998V2C0 1.90054 0.0395086 1.80516 0.109834 1.73483C0.18016 1.66451 0.275542 1.625 0.374998 1.625H17.6249C17.7244 1.625 17.8197 1.66451 17.8901 1.73483C17.9604 1.80516 17.9999 1.90054 17.9999 2V4.99998C17.9999 5.09944 17.9604 5.19482 17.8901 5.26514C17.8197 5.33547 17.7244 5.37498 17.6249 5.37498ZM0.749996 4.62498H17.2499V2.375H0.749996V4.62498Z" fill="#51BC98"/>
<path d="M2.625 0.5H3.375V3.49998H2.625V0.5ZM5.62498 0.5H6.37498V3.49998H5.62498V0.5ZM8.62497 0.5H9.37496V3.49998H8.62497V0.5ZM11.6249 0.5H12.3749V3.49998H11.6249V0.5ZM14.6249 0.5H15.3749V3.49998H14.6249V0.5ZM14.6249 18.4999C14.5757 18.5012 14.5269 18.4909 14.4824 18.4699C14.4139 18.4418 14.3553 18.394 14.314 18.3326C14.2726 18.2712 14.2503 18.1989 14.2499 18.1249V15.1249C14.2499 15.0255 14.2894 14.9301 14.3598 14.8598C14.4301 14.7894 14.5255 14.7499 14.6249 14.7499H17.6249C17.6989 14.7503 17.7712 14.7726 17.8326 14.8139C17.894 14.8553 17.9418 14.9139 17.9699 14.9824C17.9986 15.0507 18.0065 15.126 17.9925 15.1987C17.9784 15.2715 17.9432 15.3384 17.8912 15.3912L14.8912 18.3911C14.8561 18.4259 14.8146 18.4534 14.7689 18.4721C14.7232 18.4907 14.6743 18.5002 14.6249 18.4999ZM14.9999 15.4999V17.2212L16.7212 15.4999H14.9999Z" fill="#51BC98"/>
</svg>
