<svg width="24" height="24" viewBox="0 0 24 24" fill="none" xmlns="http://www.w3.org/2000/svg">
<path d="M15.1904 8.8095C14.3808 7.99999 13.238 7.47617 11.9999 7.47617C10.7618 7.47617 9.61897 7.97616 8.80943 8.8095C7.99992 9.61905 7.47609 10.7619 7.47609 12C7.47609 13.2381 7.99992 14.3809 8.80943 15.1905C9.61897 16 10.7618 16.5238 11.9999 16.5238C13.238 16.5238 14.3808 16.0238 15.1904 15.1905C15.9999 14.3809 16.5237 13.2381 16.5237 12C16.5237 10.7619 16.0237 9.61905 15.1904 8.8095ZM14.3332 14.3333C13.738 14.9286 12.9047 15.2857 11.9999 15.2857C11.0951 15.2857 10.2618 14.9286 9.66657 14.3333C9.07134 13.7381 8.71419 12.9047 8.71419 12C8.71419 11.0952 9.07134 10.2619 9.66657 9.66665C10.2618 9.07142 11.0951 8.71426 11.9999 8.71426C12.9047 8.71426 13.738 9.07142 14.3332 9.66665C14.9285 10.2619 15.2856 11.0952 15.2856 12C15.2856 12.9047 14.9285 13.7381 14.3332 14.3333Z" fill="black"/>
<path d="M20.3809 11.3809H18.5475C18.2142 11.3809 17.9285 11.6667 17.9285 12C17.9285 12.3333 18.2142 12.619 18.5475 12.619H20.3809C20.7142 12.619 20.9999 12.3333 20.9999 12C20.9999 11.6667 20.7142 11.3809 20.3809 11.3809Z" fill="black"/>
<path d="M12 17.9286C11.6667 17.9286 11.3809 18.2143 11.3809 18.5476V20.3809C11.3809 20.7143 11.6667 21 12 21C12.3333 21 12.619 20.7143 12.619 20.3809V18.5476C12.619 18.2143 12.3333 17.9286 12 17.9286Z" fill="black"/>
<path d="M18.3572 17.5L17.0476 16.1905C16.8333 15.9524 16.4286 15.9524 16.1905 16.1905C15.9524 16.4286 15.9524 16.8095 16.1905 17.0476L17.5 18.3572C17.7381 18.5953 18.1191 18.5953 18.3572 18.3572C18.5953 18.1191 18.5953 17.7381 18.3572 17.5Z" fill="black"/>
<path d="M12 3C11.6667 3 11.3809 3.28571 11.3809 3.61905V5.45238C11.3809 5.78571 11.6667 6.07143 12 6.07143C12.3333 6.07143 12.619 5.78571 12.619 5.45238V3.61905C12.619 3.28571 12.3333 3 12 3Z" fill="black"/>
<path d="M18.3811 5.64287C18.143 5.40477 17.762 5.40477 17.5239 5.64287L16.2144 6.9524C15.9763 7.19048 15.9763 7.57143 16.2144 7.80954C16.4287 8.04762 16.8335 8.04762 17.0715 7.80954L18.3811 6.50001C18.6192 6.26191 18.6192 5.88096 18.3811 5.64287Z" fill="black"/>
<path d="M5.45238 11.3809H3.61905C3.28571 11.3809 3 11.6667 3 12C3 12.3333 3.2619 12.619 3.61905 12.619H5.45238C5.78571 12.619 6.07143 12.3333 6.07143 12C6.07143 11.6667 5.78571 11.3809 5.45238 11.3809Z" fill="black"/>
<path d="M7.78585 16.1905C7.57158 15.9524 7.16679 15.9524 6.92871 16.1905L5.61918 17.5C5.38109 17.7381 5.38109 18.1191 5.61918 18.3572C5.85728 18.5953 6.23823 18.5953 6.47633 18.3572L7.78585 17.0476C8.02393 16.8095 8.02393 16.4286 7.78585 16.1905Z" fill="black"/>
<path d="M7.78585 6.9524L6.47633 5.64287C6.23823 5.40477 5.85728 5.40477 5.61918 5.64287C5.38109 5.88096 5.38109 6.26191 5.61918 6.50001L6.92871 7.80954C7.16679 8.04762 7.54774 8.04762 7.78585 7.80954C8.02393 7.57143 8.02393 7.19048 7.78585 6.9524Z" fill="black"/>
</svg>
