<svg width="19" height="18" viewBox="0 0 19 18" fill="none" xmlns="http://www.w3.org/2000/svg">
<path d="M18.3967 9.41484C18.3196 9.38841 18.2359 9.38869 18.159 9.41563C18.0822 9.44258 18.0166 9.49461 17.9729 9.56335C17.4551 10.3775 16.7611 11.065 15.942 11.575C15.1229 12.085 14.1998 12.4045 13.2407 12.51C12.2815 12.6154 11.311 12.504 10.4007 12.1841C9.49041 11.8642 8.66359 11.3439 7.98132 10.6616C7.29904 9.97933 6.77873 9.15252 6.45882 8.24221C6.1389 7.33191 6.02754 6.36138 6.13296 5.40227C6.23838 4.44317 6.55789 3.51999 7.0679 2.70091C7.57791 1.88183 8.26539 1.18778 9.07957 0.669988C9.14843 0.626274 9.20057 0.560662 9.22761 0.483714C9.25464 0.406765 9.255 0.322957 9.22862 0.245781C9.20234 0.168605 9.15065 0.102552 9.08217 0.058254C9.01369 0.0139562 8.93229 -0.00600846 8.85109 0.0015737C7.14341 0.155279 5.51494 0.792659 4.15663 1.83898C2.79832 2.8853 1.76646 4.29719 1.18206 5.90911C0.597649 7.52102 0.484911 9.26614 0.857061 10.9398C1.22921 12.6136 2.07082 14.1465 3.28322 15.3589C4.49561 16.5713 6.02853 17.4129 7.70224 17.785C9.37595 18.1572 11.1211 18.0444 12.733 17.46C14.3449 16.8756 15.7568 15.8438 16.8031 14.4855C17.8494 13.1271 18.4868 11.4987 18.6405 9.791C18.6478 9.71006 18.6277 9.62901 18.5835 9.56082C18.5393 9.49263 18.4735 9.44123 18.3967 9.41484ZM9.66116 17.273C7.64772 17.2719 5.70345 16.5383 4.19109 15.2092C2.67872 13.88 1.70158 12.046 1.44198 10.0494C1.18237 8.05273 1.65803 6.02984 2.7802 4.35812C3.90238 2.6864 5.59442 1.48004 7.54064 0.964107C6.85894 1.62629 6.31569 2.41739 5.94246 3.29141C5.56923 4.16542 5.37348 5.10491 5.36659 6.05526C5.35969 7.0056 5.54179 7.94783 5.9023 8.82717C6.26281 9.70651 6.79453 10.5054 7.46655 11.1774C8.13857 11.8494 8.93748 12.3811 9.81682 12.7416C10.6962 13.1021 11.6384 13.2842 12.5887 13.2773C13.5391 13.2704 14.4786 13.0746 15.3526 12.7013C16.2266 12.3281 17.0177 11.7848 17.6799 11.1031C17.2198 12.8769 16.1815 14.4466 14.7292 15.564C13.277 16.6815 11.4936 17.2828 9.66116 17.273Z" fill="#929292"/>
</svg>
