<svg width="60" height="61" viewBox="0 0 60 61" fill="none" xmlns="http://www.w3.org/2000/svg">
<g clip-path="url(#clip0_1208_827)">
<path d="M5.625 37.9199H7.49998V54.7949H5.625V37.9199ZM9.37496 37.9199H11.2499V54.7949H9.37496V37.9199ZM13.1249 37.9199H14.9999V54.7949H13.1249V37.9199ZM16.8749 51.0449H18.7499V54.7949H16.8749V51.0449ZM20.6249 51.0449H22.4998V54.7949H20.6249V51.0449Z" fill="#0181F5"/>
<path d="M56.5804 44.3886L53.7913 41.8402C53.8147 41.4831 53.827 41.1306 53.827 40.7855C53.827 40.4409 53.8147 40.0882 53.7912 39.7318L57.1494 36.6624L55.8914 32.8012L51.3743 32.2949C50.9994 31.7016 50.5861 31.1336 50.137 30.5943L51.0493 26.1412L47.7622 23.7457L43.8072 25.9855C43.154 25.7224 42.484 25.5031 41.8017 25.3292L39.9032 21.1451H35.8787L33.9803 25.3292C33.298 25.5031 32.628 25.7224 31.9749 25.9855L30.9372 25.3987V0.419922H0V60.4199H30.9372V56.1719L31.9758 55.5831C32.6287 55.8464 33.2983 56.0657 33.9804 56.2396L35.8787 60.4199H39.9015L41.7999 56.2355C42.4822 56.0615 43.1521 55.8424 43.8053 55.5795L47.0247 57.4028C49.7516 59.4925 53.5042 59.6215 56.3685 57.7246L57.4936 56.9821L52.2716 53.1579L54.5433 50.0566L59.6442 53.7933L59.8927 52.2886C60.3959 49.2372 59.1095 46.167 56.5813 44.3859L56.5804 44.3886ZM31.8588 28.0761L32.288 27.8886C33.1122 27.5296 33.9689 27.2508 34.8464 27.0558L35.3043 26.9547L37.0854 23.0256H38.6893L40.4705 26.9547L40.9283 27.0558C41.8058 27.2508 42.6625 27.5296 43.4867 27.8884L43.9161 28.0762L47.703 25.932C48.1419 26.2239 48.568 26.5346 48.9803 26.863L48.1055 31.1286L48.4158 31.4792C49.0119 32.1521 49.5422 32.8807 49.9992 33.6549L50.2372 34.0573L54.5658 34.5402C54.753 35.0305 54.9127 35.5299 55.0524 36.0344L51.843 38.9718L51.8884 39.4405C51.9314 39.8979 51.9528 40.3516 51.9528 40.7887C51.9528 41.2254 51.9314 41.6791 51.8884 42.1368L51.843 42.6055L52.1818 42.9155C52.088 42.9155 52.0046 42.9018 51.9136 42.9018C50.7628 42.9017 49.6252 43.1472 48.5769 43.6218L46.2332 41.999C46.712 38.8281 45.3434 35.6617 42.7058 33.8385C40.0686 32.0147 36.6231 31.8522 33.8256 33.4197L31.7305 31.9713C31.9988 30.5884 31.8917 29.1588 31.4211 27.8313L31.8588 28.0761ZM44.4521 40.7622L35.6086 34.6488C36.5975 34.2724 37.6632 34.1423 38.7136 34.2695C39.764 34.3968 40.7677 34.7777 41.6382 35.3793C42.5086 35.9811 43.2195 36.7855 43.7097 37.7233C44.1999 38.6611 44.4547 39.704 44.4521 40.7622ZM1.87498 2.29492H29.0622V7.91992H11.2499V6.04492H1.87498V2.29492ZM1.87498 7.91992H9.37491V9.79492H1.87498V7.91992ZM1.87498 11.6699H11.2499V9.79492H29.0622V17.2949H11.2499V15.4199H1.87498V11.6699ZM1.87498 17.2949H9.37491V19.1699H1.87498V17.2949ZM29.0622 58.5449H1.87498V21.0449H11.2499V19.1699H29.0622V24.3363L29.005 24.3046C26.2694 21.9796 22.3263 21.7435 19.3331 23.7251L18.2078 24.4676L23.43 28.2918L21.1581 31.3932L16.0591 27.6559L15.811 29.1606C15.566 30.6425 15.7402 32.1634 16.314 33.5515C16.8878 34.9396 17.8384 36.1395 19.0583 37.0158L19.0404 37.0364L21.988 39.7308C21.9655 40.0847 21.9532 40.4371 21.9532 40.7846C21.9532 41.1325 21.9655 41.4859 21.988 41.8383L18.6299 44.9077L18.7621 45.4469C18.9961 46.406 19.3018 47.3461 19.6768 48.2594L19.8888 48.7721L24.4077 49.2756C24.7827 49.8689 25.196 50.437 25.6451 50.9762L24.7328 55.4294L25.1558 55.7896C25.9092 56.4287 26.7087 57.0111 27.5479 57.5323L28.0167 57.8248L29.0622 57.2321V58.5449ZM43.9214 53.4944L43.4922 53.6821C42.6683 54.0414 41.8114 54.3201 40.9338 54.5143L40.4759 54.6168L38.6921 58.5449H37.0881L35.307 54.6168L34.8464 54.5134C33.969 54.3193 33.1125 54.0406 32.2889 53.6812L31.8596 53.4934L28.0721 55.6386C27.6331 55.3467 27.2068 55.036 26.7944 54.7075L27.6692 50.442L27.3589 50.0914C26.763 49.4185 26.2328 48.6903 25.7755 47.9166L25.5375 47.5132L21.2089 47.0304C21.0212 46.5409 20.8628 46.0416 20.7223 45.5363L23.9372 42.5978L23.8918 42.1291C23.8496 41.6781 23.8282 41.2245 23.8282 40.7809C23.8282 40.3374 23.8498 39.8847 23.8918 39.4328L23.9372 38.9641L23.4684 38.5347C23.5751 38.5347 23.6808 38.5507 23.7898 38.5507C24.9201 38.5502 26.0378 38.3132 27.071 37.8549L29.5533 39.5716C29.4937 39.9708 29.4624 40.3737 29.4596 40.7773C29.4533 42.2453 29.8317 43.6894 30.5572 44.9656C31.2827 46.2418 32.3299 47.3056 33.5945 48.0511C34.8592 48.7966 36.2971 49.1977 37.7651 49.2143C39.233 49.231 40.6797 48.8626 41.9609 48.1459L43.9691 49.5334C43.9059 49.8863 43.8667 50.2431 43.852 50.6014C43.8419 50.7326 43.8341 50.8591 43.8341 50.9762C43.8341 51.2372 43.8493 51.4949 43.8735 51.7499C43.8803 51.8259 43.8932 51.8988 43.9028 51.9728C43.9239 52.1568 43.9513 52.3386 43.9852 52.5184C44.0003 52.5934 44.0181 52.6677 44.0351 52.7427C44.075 52.9259 44.1211 53.1063 44.1737 53.2833C44.1925 53.3433 44.2104 53.4033 44.23 53.4624C44.2552 53.5434 44.2758 53.6249 44.3038 53.7036L43.9214 53.4944ZM31.3292 40.8084L40.1717 46.9196C39.1829 47.2961 38.1174 47.4265 37.067 47.2993C36.0166 47.1722 35.013 46.7914 34.1426 46.1898C33.2722 45.5882 32.5613 44.7838 32.0711 43.8461C31.581 42.9085 31.3264 41.8656 31.3292 40.8075V40.8084ZM54.1375 47.4391L49.6505 53.5649L54.0739 56.8049C53.0649 57.1787 51.9759 57.2835 50.9141 57.1091C49.8523 56.9347 48.8542 56.4871 48.0177 55.8102C47.8927 55.7099 47.7764 55.6028 47.6611 55.4952C47.5893 55.4267 47.517 55.3584 47.4473 55.2861C47.3302 55.1643 47.2157 55.0403 47.1099 54.9112C47.0349 54.8174 46.9666 54.7236 46.897 54.6297C46.8417 54.5536 46.7845 54.4777 46.7323 54.3989C46.6651 54.2968 46.6025 54.1917 46.5447 54.0839C46.4979 54.0043 46.4508 53.9247 46.4095 53.8423C46.3544 53.7355 46.3022 53.6273 46.253 53.5177C46.2134 53.4271 46.1753 53.3359 46.1386 53.2441C46.1019 53.1515 46.057 53.033 46.0214 52.9245C45.9871 52.8169 45.956 52.7084 45.928 52.5991C45.8987 52.4905 45.8735 52.4031 45.852 52.3037C45.8227 52.1688 45.8022 52.0309 45.7815 51.8941C45.7701 51.8144 45.7546 51.7356 45.7449 51.655C45.7207 51.4319 45.7082 51.2076 45.7074 50.9832C45.7074 50.849 45.7261 50.7121 45.7357 50.5762C45.7674 50.2777 45.8209 49.933 45.8726 49.6387C45.8932 49.5503 45.9024 49.4624 45.9257 49.3741L46.0974 48.7369L27.2125 35.6838L26.7081 35.9529C25.8103 36.431 24.8088 36.6812 23.7917 36.6815C22.7746 36.6818 21.7729 36.4322 20.8749 35.9547C19.9769 35.477 19.2099 34.7861 18.6415 33.9426C18.073 33.0991 17.7204 32.1289 17.6147 31.1172L21.5623 34.0132L26.052 27.8883L21.6286 24.6493C22.7008 24.2476 23.8633 24.1508 24.9872 24.3696C26.1111 24.5884 27.1524 25.1143 27.9956 25.8889C28.8386 26.6635 29.4506 27.6565 29.7636 28.7578C30.0766 29.859 30.0785 31.0255 29.769 32.1277L29.5908 32.7691L48.4401 45.7948L48.9474 45.5133C49.8456 45.0257 50.8501 44.7671 51.8721 44.7606C52.8941 44.754 53.9019 44.9996 54.8062 45.4756C55.7105 45.9517 56.4835 46.6434 57.0566 47.4896C57.6297 48.3358 57.9852 49.3103 58.0916 50.3267L54.1375 47.4391Z" fill="#0181F5"/>
</g>
<defs>
<clipPath id="clip0_1208_827">
<rect width="60" height="60" fill="white" transform="translate(0 0.419922)"/>
</clipPath>
</defs>
</svg>
