<svg width="60" height="61" viewBox="0 0 60 61" fill="none" xmlns="http://www.w3.org/2000/svg">
<path d="M10.0724 49.6353C10.1943 49.4085 10.5599 50.0253 10.7362 50.1407C11.2762 50.627 11.908 51.0003 12.5946 51.2386C13.2811 51.4769 14.0084 51.5753 14.7335 51.5281C15.4587 51.481 16.1671 51.2891 16.817 50.9639C17.4668 50.6386 18.045 50.1866 18.5174 49.6344C18.5737 49.5669 18.6055 49.5238 18.7387 49.6794C19.4605 50.5115 20.4179 51.1048 21.4843 51.3808C22.5506 51.6569 23.6757 51.6026 24.7105 51.2253C24.9378 51.1353 25.1209 50.9601 25.221 50.7371C25.3211 50.5141 25.3302 50.2609 25.2464 50.0312C25.1626 49.8016 24.9925 49.6137 24.7724 49.5076C24.5522 49.4014 24.2993 49.3854 24.0674 49.4628C23.4649 49.6849 22.8134 49.7394 22.1823 49.6207C21.5512 49.502 20.9641 49.2145 20.4834 48.7888C20.2946 48.4628 20.0239 48.1918 19.6981 48.0027C19.3723 47.8137 19.0027 47.7131 18.626 47.711C18.2493 47.709 17.8786 47.8054 17.5507 47.9909C17.2228 48.1763 16.9491 48.4443 16.7568 48.7682C16.1116 49.3538 15.2724 49.68 14.4011 49.6838C13.5297 49.6876 12.6877 49.3688 12.0374 48.7888C11.8291 48.4766 11.5517 48.2167 11.2267 48.029C10.9017 47.8414 10.5378 47.7312 10.1634 47.7069C9.86788 47.7077 9.57628 47.7742 9.3097 47.9017C9.04312 48.0291 8.80824 48.2143 8.62211 48.4438C7.83231 49.2599 6.83241 49.8419 5.73274 50.1257C5.51265 50.1824 5.32058 50.317 5.19207 50.5045C5.06356 50.692 5.00731 50.9197 5.03373 51.1454C5.06014 51.3712 5.16744 51.5797 5.33577 51.7325C5.50409 51.8852 5.72204 51.9718 5.9493 51.9763C7.54204 51.6661 8.98985 50.8441 10.0724 49.6353ZM25.3462 53.3141C24.7127 53.9621 23.8539 54.3411 22.9482 54.3722C22.0425 54.4032 21.1597 54.0841 20.4834 53.481C20.275 53.1687 19.9975 52.9086 19.6723 52.7209C19.3471 52.5333 18.983 52.4232 18.6084 52.3991C18.3112 52.4003 18.018 52.4679 17.7502 52.5968C17.4824 52.7257 17.2468 52.9128 17.0605 53.1444C16.755 53.4996 16.3818 53.7904 15.9627 54C15.5436 54.2095 15.087 54.3335 14.6195 54.3649C14.152 54.3962 13.6829 54.3342 13.2396 54.1824C12.7963 54.0307 12.3877 53.7922 12.0374 53.481C11.8699 53.1905 11.6358 52.944 11.3543 52.7619C11.0727 52.5797 10.752 52.4671 10.4184 52.4333C10.0848 52.3995 9.74792 52.4455 9.4356 52.5675C9.12329 52.6895 8.84445 52.8841 8.62211 53.135C7.83231 53.9511 6.83241 54.5332 5.73274 54.8169C5.51185 54.873 5.31887 55.0074 5.18966 55.1952C5.06045 55.3829 5.00382 55.6112 5.03029 55.8375C5.05677 56.0639 5.16455 56.2729 5.33359 56.4258C5.50263 56.5786 5.72143 56.6649 5.9493 56.6685C7.54216 56.358 8.98999 55.5357 10.0724 54.3266C10.1287 54.2582 10.1605 54.215 10.2937 54.3707C10.8075 54.9574 11.4415 55.4269 12.1527 55.7471C12.8639 56.0674 13.6357 56.2309 14.4156 56.2268C15.1956 56.2226 15.9655 56.0507 16.6732 55.7229C17.3809 55.395 18.0099 54.9188 18.5174 54.3266C18.6487 54.1025 18.9937 54.711 19.1821 54.8328C20.218 55.7685 21.5741 56.27 22.9696 56.2333C24.3651 56.1967 25.693 55.6248 26.6784 54.636C26.8499 54.4586 26.9447 54.2207 26.9422 53.9739C26.9396 53.7271 26.8399 53.4913 26.6648 53.3175C26.4896 53.1436 26.253 53.0458 26.0062 53.0452C25.7594 53.0445 25.5222 53.1412 25.3462 53.3141Z" fill="#0181F5"/>
<path d="M52.1596 10.6888H37.1465C36.4001 10.6896 35.6844 10.9864 35.1566 11.5142C34.6288 12.0421 34.3319 12.7577 34.3312 13.5041V39.7776C34.3319 40.524 34.6288 41.2397 35.1566 41.7675C35.6844 42.2953 36.4001 42.5922 37.1465 42.5929H38.084V43.5313C38.0848 44.2778 38.3816 44.9934 38.9094 45.5212C39.4372 46.049 40.1529 46.3459 40.8993 46.3466H43.7165C43.8268 47.4042 43.7155 48.4731 43.3897 49.4853C43.0638 50.4974 42.5306 51.4305 41.8241 52.2251C41.1175 53.0197 40.2531 53.6583 39.286 54.1002C38.3189 54.5421 37.2703 54.7776 36.2071 54.7916C34.217 54.7894 32.3089 53.9978 30.9017 52.5906C29.4944 51.1833 28.7028 49.2753 28.7006 47.2851V11.6835C28.3303 1.68039 13.9518 1.6504 13.5693 11.6835V14.4426C13.2967 14.4012 13.0184 14.4184 12.753 14.4932C12.4876 14.568 12.2412 14.6986 12.0303 14.8763C11.8194 15.054 11.6489 15.2746 11.5302 15.5235C11.4115 15.7724 11.3472 16.0438 11.3418 16.3195V39.3079C11.3443 40.0126 11.5739 40.6977 11.9964 41.2618C12.4189 41.8258 13.0119 42.2386 13.6875 42.4391V44.9179C12.9124 44.7681 12.2125 44.3559 11.7056 43.7507C11.5186 43.5225 11.2834 43.3387 11.0168 43.2125C10.7501 43.0862 10.4588 43.0208 10.1639 43.0208C9.86888 43.0208 9.57758 43.0862 9.31097 43.2125C9.04436 43.3387 8.80909 43.5225 8.62214 43.7507C7.83237 44.5668 6.83246 45.1489 5.73276 45.4326C5.49059 45.4901 5.2812 45.6416 5.15066 45.8535C5.02011 46.0654 4.97911 46.3206 5.03667 46.5627C5.09423 46.8049 5.24564 47.0143 5.45758 47.1448C5.66953 47.2754 5.92465 47.3164 6.16683 47.2588C7.66464 46.8794 9.02091 46.0753 10.0725 44.9432C10.1287 44.8738 10.1606 44.8307 10.2937 44.9863C10.8076 45.5731 11.4416 46.0425 12.1528 46.3628C12.8639 46.683 13.6357 46.8466 14.4156 46.8424C15.1956 46.8382 15.9655 46.6664 16.6733 46.3386C17.381 46.0107 18.0099 45.5345 18.5175 44.9423C18.6375 44.7201 19.0031 45.3266 19.1831 45.4485C19.857 46.059 20.6726 46.4915 21.556 46.7068C22.4395 46.9221 23.3626 46.9133 24.2418 46.6813C24.4826 46.6184 24.6886 46.4624 24.8144 46.2477C24.9402 46.0329 24.9755 45.777 24.9126 45.5362C24.8497 45.2954 24.6937 45.0894 24.479 44.9636C24.2642 44.8378 24.0083 44.8025 23.7675 44.8654C23.1991 45.0178 22.6019 45.0274 22.0289 44.8933C21.456 44.7592 20.925 44.4855 20.4834 44.0966C20.2995 43.7773 20.0364 43.5107 19.7195 43.3226C19.4026 43.1345 19.0425 43.0313 18.6741 43.0229C18.3056 43.0145 17.9413 43.1012 17.6161 43.2747C17.2909 43.4482 17.016 43.7025 16.8178 44.0132C16.4637 44.3619 16.0351 44.6258 15.5643 44.7848V42.4391C16.2399 42.2386 16.8329 41.8258 17.2554 41.2618C17.6779 40.6977 17.9074 40.0126 17.91 39.3079V16.3195C17.9095 15.8218 17.7116 15.3447 17.3597 14.9929C17.0078 14.641 16.5307 14.4431 16.0331 14.4426H15.4462V11.6835C15.7059 4.17414 26.5537 4.14414 26.8246 11.6835V47.286C26.8274 49.7738 27.8169 52.159 29.576 53.9181C31.3351 55.6772 33.7203 56.6667 36.2081 56.6695C37.5173 56.6556 38.8095 56.3717 40.0041 55.8357C41.1986 55.2998 42.2697 54.5231 43.1505 53.5544C44.0312 52.5856 44.7027 51.4456 45.1229 50.2056C45.543 48.9656 45.7029 47.6522 45.5925 46.3476H48.4059C49.1523 46.3468 49.868 46.05 50.3958 45.5222C50.9236 44.9944 51.2205 44.2787 51.2212 43.5323V42.5948H52.1596C52.9062 42.594 53.622 42.297 54.1499 41.769C54.6777 41.241 54.9745 40.5251 54.975 39.7785V13.5041C54.9742 12.7577 54.6774 12.0421 54.1495 11.5142C53.6217 10.9864 52.9061 10.6896 52.1596 10.6888ZM16.0331 39.3088C16.0331 39.6822 15.8848 40.0402 15.6208 40.3042C15.3568 40.5682 14.9988 40.7165 14.6254 40.7165C14.2521 40.7165 13.894 40.5682 13.6301 40.3042C13.3661 40.0402 13.2178 39.6822 13.2178 39.3088V20.0723H16.0331V39.3088ZM16.0331 16.3195V18.1963H13.2187V16.3195H16.0331ZM53.0981 39.7766C53.0978 40.0253 52.999 40.2637 52.8233 40.4396C52.6475 40.6155 52.4092 40.7146 52.1606 40.7151H50.2828C50.034 40.7153 49.7956 40.8143 49.6198 40.9903C49.444 41.1662 49.3453 41.4048 49.3453 41.6535V43.5304C49.345 43.7794 49.2459 44.0181 49.0698 44.194C48.8937 44.37 48.6549 44.4688 48.4059 44.4688H40.8993C40.6507 44.4683 40.4124 44.3693 40.2366 44.1934C40.0609 44.0175 39.9621 43.779 39.9618 43.5304V42.5929H46.53C46.779 42.5929 47.0178 42.494 47.1939 42.3179C47.3699 42.1418 47.4689 41.903 47.4689 41.654C47.4689 41.405 47.3699 41.1662 47.1939 40.9901C47.0178 40.814 46.779 40.7151 46.53 40.7151H37.1456C36.8971 40.7146 36.6589 40.6157 36.4832 40.4399C36.3075 40.2642 36.2086 40.0261 36.2081 39.7776V13.5032C36.2086 13.2547 36.3075 13.0166 36.4832 12.8408C36.6589 12.6651 36.8971 12.5662 37.1456 12.5657H52.1596C52.4083 12.566 52.6467 12.6648 52.8226 12.8405C52.9985 13.0162 53.0976 13.2546 53.0981 13.5032V39.7766Z" fill="#0181F5"/>
<path d="M50.2827 14.4426H39.0234C38.9001 14.4425 38.7781 14.4667 38.6642 14.5137C38.5503 14.5608 38.4467 14.6298 38.3595 14.7168C38.2723 14.8039 38.203 14.9073 38.1558 15.0211C38.1085 15.1349 38.0841 15.2569 38.084 15.3801V37.9017C38.0842 38.1504 38.1832 38.3889 38.3592 38.5647C38.5351 38.7404 38.7737 38.8392 39.0224 38.8392H50.2827C50.5315 38.8392 50.77 38.7404 50.946 38.5647C51.1219 38.3889 51.2209 38.1504 51.2212 37.9017V15.3811C51.2212 15.1323 51.1224 14.8938 50.9466 14.7178C50.7709 14.5419 50.5324 14.4429 50.2837 14.4426H50.2827ZM49.3452 25.702H42.7762C42.5272 25.702 42.2883 25.8009 42.1123 25.977C41.9362 26.1531 41.8373 26.3919 41.8373 26.6409C41.8373 26.8899 41.9362 27.1287 42.1123 27.3048C42.2883 27.4809 42.5272 27.5798 42.7762 27.5798H49.3443V36.9633H39.9609V16.3195H49.3452V25.702Z" fill="#0181F5"/>
</svg>
