<svg width="50" height="51" viewBox="0 0 50 51" fill="none" xmlns="http://www.w3.org/2000/svg">
<g clip-path="url(#clip0_1233_859)">
<path d="M39.5158 31.1304C38.4921 30.0646 37.2575 29.4947 35.9489 29.4947C34.6509 29.4947 33.4057 30.054 32.3398 31.1199L29.0051 34.444C28.7308 34.2963 28.4564 34.1591 28.1926 34.0219C27.8127 33.832 27.4539 33.6526 27.1478 33.4626C24.0242 31.4787 21.1855 28.8932 18.4629 25.548C17.1437 23.8806 16.2573 22.4771 15.6136 21.0525C16.4789 20.261 17.2809 19.4379 18.0618 18.6464C18.3573 18.3509 18.6528 18.0449 18.9483 17.7494C21.1644 15.5333 21.1644 12.663 18.9483 10.4469L16.0674 7.56594C15.7402 7.2388 15.4025 6.90111 15.0859 6.56342C14.4528 5.90914 13.7879 5.23376 13.102 4.60059C12.0784 3.58751 10.8543 3.04932 9.56681 3.04932C8.27936 3.04932 7.03412 3.58751 5.97884 4.60059L5.95773 4.62169L2.36977 8.24132C1.019 9.59208 0.248646 11.2383 0.0798003 13.1484C-0.173468 16.2298 0.734077 19.1002 1.43056 20.9786C3.14012 25.5902 5.69391 29.8641 9.50349 34.444C14.1256 39.9632 19.687 44.3215 26.0398 47.3924C28.4669 48.5426 31.7067 49.9039 35.3263 50.1361C35.5479 50.1467 35.7801 50.1572 35.9911 50.1572C38.4288 50.1572 40.4761 49.2813 42.0801 47.5401C42.0907 47.519 42.1118 47.5084 42.1223 47.4873C42.6711 46.8225 43.3042 46.221 43.9691 45.5773C44.4228 45.1446 44.8872 44.6908 45.3409 44.216C46.3857 43.129 46.9344 41.8627 46.9344 40.5647C46.9344 39.2561 46.3751 38.0003 45.3093 36.945L39.5158 31.1304ZM43.2937 42.2426C43.2831 42.2426 43.2831 42.2531 43.2937 42.2426C42.8821 42.6858 42.46 43.0868 42.0062 43.53C41.3203 44.1843 40.6238 44.8702 39.9695 45.6406C38.9037 46.7803 37.6479 47.3185 36.0017 47.3185C35.8434 47.3185 35.6745 47.3185 35.5162 47.3079C32.382 47.1074 29.4695 45.8833 27.285 44.8386C21.3121 41.9471 16.0674 37.842 11.709 32.6395C8.11051 28.3023 5.70447 24.2922 4.11099 19.9866C3.12957 17.359 2.77078 15.3117 2.92907 13.3806C3.0346 12.1459 3.50947 11.1222 4.38536 10.2464L7.98388 6.64784C8.50097 6.16241 9.04972 5.89859 9.58791 5.89859C10.2527 5.89859 10.7909 6.29959 11.1286 6.63728L11.1603 6.66894C11.804 7.27046 12.4161 7.89307 13.0598 8.5579C13.3869 8.89559 13.7246 9.23328 14.0623 9.58153L16.9432 12.4625C18.0618 13.5811 18.0618 14.6152 16.9432 15.7338C16.6372 16.0399 16.3417 16.3459 16.0357 16.6414C15.1493 17.5489 14.305 18.3932 13.3869 19.2163C13.3658 19.2374 13.3447 19.2479 13.3342 19.269C12.4266 20.1766 12.5955 21.063 12.7854 21.6645L12.8171 21.7595C13.5663 23.5746 14.6216 25.2842 16.2256 27.3209L16.2362 27.3314C19.1488 30.9194 22.2197 33.7159 25.6071 35.8581C26.0398 36.1325 26.483 36.3541 26.9051 36.5651C27.285 36.7551 27.6438 36.9345 27.9499 37.1244C27.9921 37.1456 28.0343 37.1772 28.0765 37.1983C28.4353 37.3777 28.773 37.4621 29.1212 37.4621C29.9971 37.4621 30.5459 36.9134 30.7253 36.734L34.3343 33.1249C34.6931 32.7661 35.263 32.3335 35.9278 32.3335C36.5821 32.3335 37.1203 32.745 37.4474 33.1038L37.4685 33.1249L43.2831 38.9395C44.3701 40.0159 44.3701 41.124 43.2937 42.2426ZM27.0212 12.0509C29.7861 12.5152 32.2976 13.8238 34.3027 15.8288C36.3077 17.8339 37.6057 20.3454 38.0806 23.1103C38.1967 23.8068 38.7982 24.2922 39.4841 24.2922C39.5685 24.2922 39.6424 24.2816 39.7268 24.2711C40.5077 24.1445 41.0248 23.4058 40.8982 22.6248C40.3283 19.2796 38.7454 16.2298 36.3288 13.8132C33.9122 11.3966 30.8624 9.81369 27.5172 9.24384C26.7363 9.1172 26.0081 9.63429 25.8709 10.4047C25.7338 11.175 26.2403 11.9243 27.0212 12.0509ZM49.942 22.2133C49.0028 16.7047 46.4068 11.6921 42.4178 7.70312C38.4288 3.71415 33.4162 1.11815 27.9076 0.178946C27.1373 0.0417589 26.4091 0.569401 26.272 1.33976C26.1453 2.12067 26.6624 2.84881 27.4433 2.986C32.3609 3.81968 36.8459 6.15185 40.4128 9.70816C43.9796 13.275 46.3013 17.76 47.1349 22.6776C47.251 23.3741 47.8525 23.8595 48.5385 23.8595C48.6229 23.8595 48.6967 23.849 48.7812 23.8384C49.5515 23.7223 50.0792 22.9836 49.942 22.2133Z" fill="#0181F5"/>
</g>
<defs>
<clipPath id="clip0_1233_859">
<rect width="50" height="50" fill="white" transform="translate(0 0.157227)"/>
</clipPath>
</defs>
</svg>
