<svg width="55" height="55" viewBox="0 0 55 55" fill="none" xmlns="http://www.w3.org/2000/svg">
<g clip-path="url(#clip0_1277_806)">
<path d="M34.1661 20.646V27.7331H34.4862V20.1065L34.5793 19.9495H55.0001V18.8251H33.2773L28.3797 26.2623L30.0848 27.5254L34.1661 20.646ZM9.45437 54.9997H55.0001V51.8268H15.6671L28.8101 29.6738L27.0108 28.3407L9.45437 54.9997ZM3.73039 9.16095L3.48438 9.75187L8.77511 13.6714C8.83758 13.4605 8.90335 13.2515 8.97235 13.0443L3.73039 9.16095Z" fill="#0181F5"/>
<path d="M35.4195 32.6372L19.6793 20.9764C19.5604 21.1665 19.4122 21.3204 19.2449 21.4277L35.1631 33.2205C34.8861 33.4539 34.5414 33.6526 33.738 33.1147C33.568 33.0008 33.3208 32.8951 33.0285 32.7987C31.6097 32.332 29.0986 32.097 28.8707 32.3339C28.8489 32.3558 28.8321 32.3856 28.8225 32.4197C28.8128 32.4539 28.8107 32.491 28.8163 32.5267C28.8377 32.6566 28.9328 32.7217 29.2406 32.8173C29.8184 32.9968 30.1788 33.9486 30.6351 35.154C31.3732 37.103 32.3839 39.7724 35.0631 41.2734C36.2792 41.9548 37.3559 42.2228 38.2982 42.2228C40.8378 42.2228 42.3979 40.2744 43.0566 39.2168C43.1723 39.1341 43.2617 39.0255 43.3188 38.8883C43.7433 37.8686 42.2785 35.7011 40.0466 34.0477C38.8087 33.1306 37.5955 32.565 36.6875 32.4165C36.1251 32.3249 35.6805 32.393 35.4195 32.6372ZM35.1909 33.5918C35.2527 33.9365 35.4169 34.3321 35.6667 34.7535C35.6959 34.803 35.7267 34.8529 35.7584 34.9029C35.6107 34.9107 35.4608 34.9203 35.3055 34.9311C35.0057 34.9519 34.6869 34.9739 34.3435 34.9784C34.1307 34.4912 34.019 34.0612 33.9228 33.691L33.8932 33.5781C34.0489 33.6619 34.1891 33.7187 34.3153 33.7525C34.7192 33.8599 34.9858 33.7428 35.1909 33.5918ZM36.3361 40.354C36.5166 40.1768 36.6925 39.9913 36.8635 39.7979C37.3176 39.9852 37.79 40.0809 38.2652 40.0818C38.6236 40.0818 38.9582 40.0259 39.2661 39.9393C39.0676 40.2423 38.8575 40.5315 38.6368 40.8059C37.852 40.8763 37.0838 40.7259 36.3361 40.354ZM38.3553 41.1455C38.1462 41.39 37.9295 41.6228 37.706 41.8434C37.0164 41.7621 36.2593 41.5325 35.4331 41.1051C35.661 40.9505 35.8813 40.7765 36.0924 40.5842C36.8542 40.9894 37.586 41.1479 38.2636 41.1479C38.2944 41.1479 38.3247 41.1462 38.3553 41.1455ZM31.5017 34.0049C31.3533 33.5198 31.219 33.0867 30.9807 32.7026C31.349 32.7526 31.7311 32.8165 32.0929 32.8932C32.3574 33.1963 32.4706 33.6286 32.6125 34.1747C32.6672 34.3853 32.7261 34.6116 32.7987 34.8525C32.4214 34.7835 32.0473 34.6867 31.6781 34.5627C31.6122 34.3659 31.5554 34.1803 31.5017 34.0049ZM33.6834 33.8015C33.7726 34.1448 33.8754 34.5379 34.0519 34.9772C33.73 34.9716 33.4084 34.9458 33.0883 34.9C32.9906 34.5982 32.9181 34.3194 32.8519 34.0641C32.7466 33.6588 32.65 33.2935 32.4905 32.9853C32.9499 33.1016 33.3472 33.2406 33.5976 33.4L33.5776 33.4106C33.6137 33.5324 33.6474 33.6629 33.6834 33.8015ZM35.1066 38.1552C34.66 37.6892 34.3079 37.2476 34.028 36.8314C34.3895 36.8268 34.7507 36.7986 35.1102 36.747C35.2963 36.977 35.4904 37.1954 35.6918 37.4014C35.7901 37.5018 35.8907 37.5979 35.9936 37.6897C35.7158 37.8462 35.4172 38.0047 35.1066 38.1552ZM36.257 37.9119C36.6775 38.2424 37.0859 38.4557 37.4751 38.5809C37.259 38.8691 37.0356 39.1474 36.8053 39.4153C36.3383 39.2046 35.851 38.877 35.3524 38.3989C35.657 38.2468 35.9586 38.0844 36.257 37.9119ZM33.8143 36.4962C33.5462 36.0523 33.3564 35.6393 33.2134 35.2588C33.5651 35.302 33.8927 35.3176 34.2006 35.3179C34.3648 35.6663 34.5813 36.0411 34.874 36.4408C34.5067 36.4839 34.1508 36.4992 33.8143 36.4962ZM32.9159 35.2155C33.0715 35.6655 33.2629 36.092 33.4865 36.4877C33.159 36.4728 32.832 36.441 32.5063 36.3924C32.1923 35.8581 31.9788 35.3824 31.8178 34.9561C32.1801 35.0686 32.5466 35.1552 32.9159 35.2155ZM33.6911 36.8308C33.9777 37.2865 34.3449 37.7725 34.824 38.2877C34.599 38.3907 34.372 38.4857 34.1432 38.5726C33.5392 37.9055 33.0841 37.3048 32.7338 36.7613C33.0252 36.7971 33.3469 36.8232 33.6911 36.8308ZM35.0643 38.538C35.5827 39.062 36.0909 39.4266 36.5797 39.6693C36.4098 39.8563 36.2348 40.0349 36.0551 40.2048C35.518 39.8957 34.9916 39.4724 34.4779 38.9332C34.446 38.8998 34.4156 38.8668 34.3844 38.8337C34.6145 38.7424 34.842 38.6426 35.0643 38.538ZM39.6839 39.7987C40.1051 39.6307 40.5093 39.3944 40.8874 39.0953C40.9909 39.1352 41.092 39.1706 41.1914 39.2033C41.2238 39.4045 41.2175 39.6127 41.1861 39.8167C40.8157 40.0771 40.3543 40.3456 39.8252 40.5385C39.5698 40.6313 39.3103 40.7021 39.0481 40.7504C39.2633 40.4628 39.4825 40.1424 39.6839 39.7987ZM41.4602 39.2837C41.5666 39.3124 41.6701 39.3366 41.7701 39.3557C41.6818 39.4336 41.5794 39.5189 41.465 39.6085C41.4707 39.5008 41.4695 39.3922 41.4602 39.2837ZM39.9382 39.3312C40.0272 39.1541 40.1092 38.9709 40.1838 38.7823C40.3101 38.8455 40.4346 38.9043 40.5569 38.9584C40.357 39.1008 40.1503 39.2253 39.9382 39.3312ZM39.5294 39.5096C38.8637 39.7578 38.0251 39.8672 37.0931 39.5326C37.3278 39.2528 37.5553 38.9625 37.7752 38.6622C37.9898 38.7083 38.1976 38.7288 38.3974 38.7288C38.8515 38.7288 39.2627 38.6226 39.6173 38.475C39.7279 38.5395 39.8377 38.6017 39.9463 38.6598C39.8288 38.9518 39.6857 39.2369 39.5294 39.5096ZM37.994 38.3584C38.1861 38.0858 38.3399 37.8531 38.4432 37.6921C38.4651 37.7085 38.4867 37.7252 38.5087 37.7416C38.7544 37.9235 39.0043 38.0951 39.258 38.256C38.8441 38.3858 38.4167 38.4205 37.994 38.3584ZM37.6861 38.2946C37.3235 38.199 36.9414 38.0241 36.5466 37.7414C36.9151 37.5204 37.2787 37.2853 37.637 37.0363C37.8277 37.2043 38.0218 37.3656 38.2189 37.5199C38.0462 37.7841 37.8686 38.0425 37.6861 38.2946ZM36.2728 37.5295C36.1259 37.4067 35.9834 37.2745 35.8461 37.1334C35.7084 36.992 35.5741 36.8448 35.4435 36.692C35.9176 36.603 36.3855 36.4625 36.8425 36.2718C37.0231 36.4619 37.2081 36.6445 37.3972 36.8193C37.0276 37.0704 36.6527 37.3073 36.2728 37.5295ZM35.1994 36.395C34.8994 36.0105 34.6758 35.6501 34.5036 35.3135C34.7915 35.3052 35.0618 35.2865 35.3187 35.2686C35.5486 35.2525 35.7664 35.2392 35.9797 35.2322C36.1628 35.4896 36.3737 35.7525 36.6082 36.0161C36.1364 36.1996 35.6615 36.3206 35.1994 36.395ZM29.4913 32.573C29.7784 32.5782 30.1669 32.6058 30.5945 32.6543C30.9369 33.0558 31.0833 33.5316 31.2673 34.1327C31.2987 34.2352 31.3312 34.3414 31.3657 34.4509C31.0865 34.3461 30.8101 34.2284 30.5369 34.0982L30.5261 34.1389C30.2195 33.3902 29.915 32.816 29.4913 32.573ZM30.6773 34.5203C30.9477 34.6426 31.2212 34.7525 31.4973 34.8497C31.6781 35.3722 31.898 35.8692 32.1535 36.333C31.7166 36.251 31.4126 36.1626 31.3007 36.1276C31.1391 35.736 30.9954 35.3566 30.8611 35.0017C30.7984 34.8361 30.7375 34.6758 30.6773 34.5203ZM31.4677 36.5207C31.6734 36.5756 31.9826 36.6488 32.371 36.7108C32.7251 37.2965 33.198 37.9493 33.8447 38.6796C33.5085 38.7935 33.1733 38.8837 32.85 38.9373L32.8501 38.938C32.2566 38.164 31.8197 37.3252 31.4677 36.5207ZM33.0886 39.234C33.4166 39.1664 33.7519 39.0666 34.0853 38.9464C34.162 39.0297 34.2402 39.1135 34.3214 39.1987C34.8253 39.7276 35.3244 40.1272 35.8127 40.424C35.5812 40.6234 35.3457 40.7971 35.1118 40.9329C34.2883 40.4633 33.6285 39.8768 33.0886 39.234ZM38.0955 41.8745C38.3248 41.6346 38.5467 41.3825 38.7608 41.1188C39.6801 41.0151 40.4779 40.6413 41.0856 40.2519C40.9189 40.7944 40.6497 41.2194 40.6449 41.2268L40.6501 41.2327C39.9489 41.643 39.0988 41.9147 38.0955 41.8745ZM41.1126 40.9284C41.2241 40.683 41.3421 40.3702 41.4105 40.0306C41.6693 39.8444 41.9188 39.636 42.1573 39.4067C42.3183 39.4174 42.4672 39.4126 42.6012 39.3913C42.256 39.8771 41.7616 40.4525 41.1126 40.9284ZM39.7791 34.6122C41.6529 36.0004 42.9361 37.6917 42.6454 38.39C42.3547 39.0884 40.6001 38.5292 38.7262 37.141C36.8528 35.753 35.5695 34.0615 35.8602 33.3633C36.151 32.6649 37.9056 33.2242 39.7791 34.6122ZM8.83523 33.8851C8.35233 34.8578 8.55197 36.1684 9.28114 36.8125C9.53975 37.0419 9.84341 37.1641 10.154 37.164C10.4158 37.1645 10.6736 37.0782 10.9043 36.9131C11.1349 36.7479 11.3313 36.509 11.4757 36.2177C13.2314 32.6815 13.8273 29.4234 13.8854 26.7268L10.3248 22.8661C10.9262 25.3558 11.1351 29.2525 8.83523 33.8851Z" fill="#0181F5"/>
<path d="M9.54151 12.3502C8.94966 13.877 8.56228 15.4717 8.21619 17.6442C8.13373 18.4646 8.1887 19.1157 8.33502 19.6397C8.41418 20.0941 8.60449 20.5003 8.87594 20.7944L14.6035 27.0045L16.6805 35.7523C16.8943 36.6523 17.5177 37.2273 18.1897 37.2273C18.3481 37.2273 18.5091 37.1954 18.6682 37.1281C19.5019 36.776 19.9638 35.5889 19.6998 34.4767L17.4797 25.1265C17.3863 24.7334 17.2088 24.3854 16.9689 24.1253L12.5228 19.3045C12.5877 18.9752 12.662 18.6493 12.7455 18.3276C12.5036 18.019 12.352 17.5945 12.3396 17.1337L12.1576 10.3347C12.132 9.37552 12.6961 8.56746 13.4151 8.53316C13.5865 8.52423 13.7575 8.56062 13.9183 8.64022C14.0791 8.71981 14.2265 8.84105 14.352 8.99695C14.4775 9.15285 14.5787 9.34032 14.6497 9.54859C14.7207 9.75686 14.7601 9.98179 14.7656 10.2105L14.8326 12.7185C14.9271 12.5016 15.0211 12.2842 15.1145 12.0665C15.8616 10.6283 15.8934 8.51829 14.9551 7.71631C14.8461 7.62398 14.7309 7.54518 14.6111 7.48092C14.5959 7.47129 14.5813 7.46064 14.5657 7.45202C14.5044 7.41789 13.9198 7.10139 13.1013 6.92785C11.7451 6.64024 9.74635 6.74518 8.42129 9.17984C8.28188 9.43598 8.21428 9.74925 8.23025 10.0651C8.24622 10.3809 8.34476 10.6792 8.5087 10.908L9.33185 12.0572L9.54151 12.3502Z" fill="#0181F5"/>
<path d="M13.2547 18.3197L18.2902 21.1079C18.4132 21.1762 18.5451 21.2115 18.6783 21.2114C18.9126 21.2112 19.1397 21.1027 19.3208 20.9044C19.5019 20.7061 19.626 20.4302 19.6718 20.1237C19.7177 19.8172 19.6825 19.4989 19.5723 19.2231C19.4621 18.9472 19.2837 18.7308 19.0674 18.6107L14.6328 16.1552L14.4742 10.224C14.4542 9.47797 13.9821 8.89499 13.4253 8.92118C13.2923 8.9275 13.1616 8.96871 13.0405 9.04245C12.9194 9.11618 12.8104 9.221 12.7198 9.35093C12.6291 9.48085 12.5584 9.63333 12.5119 9.79966C12.4654 9.966 12.4439 10.1429 12.4486 10.3203L12.6306 17.1191C12.6374 17.378 12.6998 17.6288 12.8105 17.8416C12.9211 18.0545 13.0753 18.2204 13.2547 18.3197ZM16.3834 7.50715C17.7903 7.94126 19.1938 6.9044 19.6904 5.1509C19.4302 5.05124 19.174 4.93376 18.9229 4.79891C17.5524 4.06537 16.5852 2.98406 16.7271 2.35732C16.8164 2.98491 17.8411 3.76239 19.1747 4.17385C20.1811 4.48444 21.0998 4.50539 21.6132 4.27727C21.8474 4.17318 21.9976 4.01721 22.0329 3.81308C22.1459 3.16132 21.0494 2.2664 19.5838 1.81404C19.5337 1.7985 19.4844 1.78566 19.4347 1.77163C19.0346 0.924544 18.3995 0.323064 17.6681 0.0985578C16.1345 -0.374756 14.6034 0.9002 14.2487 2.94587C13.894 4.99205 14.8498 7.03384 16.3834 7.50715ZM31.2283 39.717C30.9817 39.5718 30.7369 39.5164 30.5195 39.4797C30.0828 39.428 29.7376 39.4676 29.5023 39.5169C29.2668 39.5686 29.1391 39.6191 29.1415 39.6654C29.1439 39.7117 29.2754 39.7472 29.5081 39.7717C29.74 39.7979 30.076 39.8271 30.4679 39.9238C30.7995 40.0108 31.1454 40.1861 31.472 40.5325L31.5685 39.9532C31.4554 39.863 31.3458 39.7749 31.2283 39.717ZM44.3418 43.1855C44.4581 43.1258 44.5744 43.0678 44.6893 42.995C44.8103 42.9246 44.925 42.8362 45.0312 42.7314C45.2463 42.4923 45.3712 42.1677 45.4544 41.8456C45.6114 41.192 45.6264 40.5162 45.5931 39.8577C45.5564 39.1977 45.4613 38.5476 45.3215 37.9163C45.1817 37.285 44.9919 36.6725 44.7493 36.0978C44.6259 35.8112 44.496 35.5329 44.3319 35.2743C44.1681 35.0205 43.9809 34.8027 43.7887 34.5965C43.4011 34.1888 42.9827 33.8446 42.5551 33.5274C42.2778 33.3235 41.9966 33.1294 41.7116 32.9454L41.6747 33.0764C41.9524 33.264 42.2278 33.4569 42.4974 33.6634C42.9177 33.9865 43.3275 34.336 43.7009 34.7419C43.8858 34.9467 44.0648 35.1619 44.2165 35.4049C44.3651 35.6461 44.4917 35.9242 44.6072 36.2034C45.0626 37.3311 45.3238 38.6022 45.3855 39.876C45.4112 40.5107 45.3851 41.1601 45.2361 41.7457C45.1586 42.0335 45.0445 42.3034 44.8794 42.48C44.7098 42.6425 44.477 42.7605 44.2558 42.8676C43.8362 43.0562 43.406 43.2103 42.9706 43.3423L43.0599 43.6897C43.4914 43.5486 43.9193 43.385 44.3418 43.1855ZM35.597 44.2514C36.5774 44.528 37.5703 44.5631 38.5526 44.5238C39.536 44.4797 40.5127 44.3313 41.4803 44.1192C41.5865 44.0949 41.6927 44.0697 41.7989 44.044V43.6471C41.677 43.6743 41.555 43.7003 41.4331 43.7255C40.4752 43.9153 39.509 44.0415 38.5432 44.0647C37.5797 44.0841 36.6084 44.0265 35.6815 43.7439C35.5947 43.7168 35.5083 43.6875 35.4223 43.6561L35.3009 44.1567C35.3994 44.1911 35.4982 44.2228 35.597 44.2514ZM32.596 41.9722C32.7099 42.1168 32.8318 42.2552 32.9555 42.3941C33.0495 42.5026 33.1462 42.6069 33.2454 42.7067C33.3443 42.8069 33.4398 42.9132 33.5414 43.008C33.7264 43.1782 33.9004 43.3546 34.1021 43.515V42.8531C33.9995 42.7552 33.8969 42.6523 33.7944 42.5547C33.6974 42.4612 33.6069 42.3569 33.5128 42.2586C33.4185 42.1608 33.3267 42.0587 33.2378 41.9524C33.1205 41.8165 33.0046 41.6822 32.895 41.5418C32.8399 41.4745 32.7879 41.4056 32.7345 41.3373L32.4576 41.7991C32.5029 41.8569 32.5486 41.9147 32.596 41.9722ZM39.8975 31.8866C39.4554 31.6511 39.0087 31.431 38.5579 31.2267C38.4452 31.1756 38.3319 31.1269 38.218 31.0806C38.142 31.0501 38.1033 31.0378 38.1022 31.0419C38.1012 31.0461 38.1378 31.0667 38.2117 31.1051L38.5449 31.2747C38.8409 31.4254 39.2853 31.6512 39.8704 31.9751C40.1224 32.1157 40.3731 32.2602 40.6225 32.4087L40.6845 32.3209C40.4235 32.1717 40.1612 32.027 39.8975 31.8866ZM31.9279 43.6393C32.262 43.8467 32.4275 43.9572 32.438 43.9344C32.4481 43.9131 32.3012 43.7568 31.9771 43.5119C31.4778 43.1393 30.9553 42.8113 30.3956 42.5922C30.1158 42.4842 29.8262 42.4019 29.5247 42.3836C29.2251 42.3618 28.9078 42.4103 28.6099 42.5854C28.4651 42.6699 28.3139 42.8228 28.2243 42.8994C28.1179 42.983 28.0067 43.0474 27.8908 43.0885C27.6581 43.1677 27.4079 43.1523 27.1521 43.0819C26.6379 42.9416 26.1188 42.619 25.5295 42.4212C25.146 42.2888 24.7484 42.3019 24.4849 42.436C24.2186 42.5651 24.098 42.7625 24.1331 42.8886C24.1695 43.0232 24.3326 43.0636 24.5506 43.1043C24.7703 43.1403 25.0543 43.1961 25.3943 43.273C25.9194 43.3855 26.4605 43.6572 27.0719 43.7624C27.3758 43.8129 27.7098 43.8046 28.023 43.6596C28.1771 43.5861 28.3227 43.4843 28.4558 43.3573C28.5966 43.212 28.6669 43.1233 28.7784 43.0398C28.9942 42.884 29.2537 42.808 29.5214 42.7997C29.7894 42.7868 30.0646 42.8333 30.3363 42.9077C30.8813 43.0586 31.4142 43.3244 31.9279 43.6393Z" fill="#0181F5"/>
<path d="M41.1847 45.9872C41.5026 45.8047 41.8378 45.6621 42.1788 45.5404C42.8613 45.2957 43.5637 45.1195 44.2585 44.8755C44.6054 44.7504 44.9524 44.6137 45.2869 44.4218C45.4557 44.3276 45.6187 44.2161 45.7745 44.0882L45.8904 43.988L46.0015 43.8772C46.0393 43.8429 46.0723 43.792 46.1078 43.7499L46.1595 43.6832L46.2036 43.6081C46.2665 43.5113 46.3107 43.4001 46.358 43.2915C46.395 43.1774 46.4378 43.0654 46.4624 42.9466C46.5234 42.7129 46.5526 42.4711 46.577 42.2308C46.6169 41.7483 46.6084 41.2657 46.578 40.7885C46.5148 39.8331 46.3637 38.897 46.1819 37.9755C46.0927 37.5259 45.9915 37.0806 45.8786 36.6406C45.8504 36.5305 45.8204 36.4214 45.7886 36.3131C45.767 36.2411 45.7542 36.206 45.7512 36.2075C45.7481 36.209 45.7547 36.2467 45.7702 36.3214L45.8421 36.656C45.9061 36.9532 46.0021 37.399 46.1124 37.9992C46.2788 38.9215 46.414 39.8573 46.4612 40.8004C46.4838 41.2711 46.484 41.7445 46.4382 42.2073C46.4111 42.4369 46.3795 42.6668 46.3192 42.8814C46.2948 42.9919 46.2537 43.0916 46.2189 43.1948C46.1747 43.2903 46.1339 43.3891 46.0776 43.4709C45.9734 43.6387 45.8348 43.7739 45.684 43.89C45.5341 44.0072 45.3775 44.1086 45.2157 44.1935C44.8918 44.3687 44.5505 44.4933 44.2075 44.6065C43.5189 44.8277 42.8149 44.9836 42.1155 45.2129C41.7659 45.3273 41.4173 45.464 41.0767 45.6481C40.9072 45.7434 40.74 45.8503 40.579 45.9786C40.4193 46.1101 40.266 46.262 40.1285 46.4426L39.9465 46.7025C39.9212 46.7434 39.8884 46.7716 39.8591 46.8054C39.8303 46.8406 39.7977 46.8679 39.7645 46.8941C39.6337 47.0028 39.4839 47.068 39.3252 47.0974C39.0058 47.1533 38.6627 47.0781 38.3268 46.9712C37.6511 46.7507 36.9812 46.4046 36.2747 46.1689C35.9208 46.0535 35.5573 45.9578 35.1815 45.9335C34.9919 45.9204 34.8017 45.9274 34.613 45.9546C34.5207 45.9698 34.4163 45.9948 34.3344 46.0126C34.2524 46.0333 34.1699 46.0493 34.0869 46.0604C33.6555 46.1256 33.2675 46.0333 32.9419 45.8035C32.7765 45.6932 32.6223 45.5551 32.4587 45.4294C32.2973 45.3044 32.1178 45.1915 31.9355 45.1582C31.7759 45.1269 31.613 45.1477 31.4608 45.2189C31.3538 45.2677 31.2522 45.3358 31.1589 45.4213C31.0092 45.5587 30.9494 45.6697 30.9659 45.706C30.9851 45.7493 31.0806 45.7111 31.2408 45.6518C31.3985 45.595 31.6304 45.5065 31.868 45.5986C31.9875 45.6423 32.1114 45.7378 32.2525 45.8682C32.3933 45.9967 32.5514 46.1589 32.7427 46.3012C32.9461 46.4559 33.1677 46.5637 33.3981 46.62C33.6385 46.6809 33.89 46.6773 34.1364 46.6371C34.2306 46.6218 34.3243 46.601 34.4171 46.5748C34.5107 46.5514 34.5817 46.5325 34.666 46.5154C34.8316 46.4871 34.9986 46.4763 35.1654 46.4832C35.5029 46.495 35.8444 46.5736 36.1843 46.6745C36.8662 46.8804 37.5366 47.2061 38.2507 47.419C38.4292 47.4717 38.6118 47.5143 38.7991 47.5364C38.9859 47.5584 39.1782 47.5646 39.3728 47.5217C39.5663 47.4808 39.7616 47.3914 39.9312 47.2434C39.9743 47.2076 40.0161 47.1697 40.053 47.1239C40.0907 47.0795 40.1318 47.0393 40.1635 46.9879L40.3425 46.7213C40.4569 46.5646 40.5888 46.4271 40.7305 46.3046C40.8738 46.1851 41.0271 46.0813 41.1847 45.9872ZM3.21219 36.3577C3.1699 36.3185 3.1359 36.2654 3.11348 36.2036C3.09106 36.1418 3.08097 36.0733 3.08421 36.0047C3.08744 35.9361 3.10387 35.8699 3.13192 35.8123C3.15997 35.7546 3.19869 35.7077 3.24433 35.6759C3.28997 35.644 3.341 35.6285 3.39247 35.6307C3.44394 35.6328 3.49412 35.6527 3.53815 35.6883C3.58219 35.7239 3.61859 35.7741 3.64384 35.834C3.66909 35.8938 3.68234 35.9614 3.6823 36.0301C3.6823 36.2141 3.58856 36.3673 3.46162 36.4138C3.25083 38.1856 2.08678 39.5577 0.709655 39.5577C0.642642 39.5577 0.576389 39.5535 0.510642 39.5472L0.819865 42.7621C0.819865 43.1462 1.94718 43.4576 3.33773 43.4576C4.72829 43.4576 5.8556 43.1463 5.8556 42.7622L6.66926 34.3041C6.67306 34.2828 6.67547 34.2613 6.67547 34.2399C6.67547 33.6365 5.18116 33.1473 3.33773 33.1473C1.4943 33.1473 0 33.6363 0 34.2397C0 34.2613 0.0024069 34.2828 0.00620726 34.3041L0.477579 39.2038C0.554719 39.2138 0.632157 39.219 0.709655 39.2196C1.96263 39.2196 3.02167 37.9701 3.21219 36.3577ZM3.33773 33.6272C4.82988 33.6272 6.03954 33.9237 6.03954 34.2897C6.03954 34.6556 4.82988 34.9523 3.33773 34.9523C1.84558 34.9523 0.635928 34.6557 0.635928 34.2897C0.635928 33.9239 1.84558 33.6272 3.33773 33.6272ZM46.6473 32.5151L46.1672 31.9389L45.0631 32.5151V33.4115L46.1672 34.116L46.8392 33.5396L46.6473 32.5151ZM49.0635 41.42V42.0904L49.889 42.6171L50.3916 42.186L50.248 41.42L49.889 40.9891L49.0635 41.42ZM28.521 35.5033L28.1432 36.2448L28.7596 37.6553L29.5583 37.6825L29.8312 36.6911L29.677 35.8545L28.521 35.5033ZM34.2238 48.3686L34.2941 49.4417L35.6389 49.8063L35.9118 48.8151L35.7576 47.9785L34.6016 47.6272L34.2238 48.3686ZM39.5761 48.7818L39.9796 49.7049L40.5024 49.7227L40.681 49.0738L40.58 48.5263L39.8234 48.2965L39.5761 48.7818ZM37.9409 35.5432L38.2481 35.5537L38.3531 35.1725L38.2939 34.8507L37.8492 34.7156L37.7039 35.0008L37.9409 35.5432ZM39.75 35.8209L39.8278 35.4282L39.6885 35.2923L39.4117 35.491L39.3994 35.7641L39.5878 35.8663L39.75 35.8209ZM40.8298 37.4764L41.0287 37.2778L40.9482 36.6789L40.6945 36.612L40.4129 37.1152L40.5257 37.4965L40.8298 37.4764ZM42.0563 35.0008L42.2934 35.5432L42.6006 35.5537L42.7056 35.1725L42.6463 34.8507L42.2016 34.7156L42.0563 35.0008ZM35.1164 29.6497C35.1164 29.6497 35.6042 30.8444 36.1779 31.1812C36.7517 31.5178 37.0553 31.289 37.194 30.8687C37.3326 30.448 37.2536 29.9949 36.6801 29.6583C36.1064 29.3217 35.1164 29.6497 35.1164 29.6497ZM53.4345 41.176C53.3234 41.8371 53.5073 42.1235 53.7795 42.2049C54.0517 42.2862 54.3097 42.1314 54.4206 41.4702C54.5317 40.8097 54.1814 39.8105 54.1814 39.8105C54.1814 39.8105 53.5456 40.515 53.4345 41.176ZM50.821 36.8354C50.821 36.8354 49.8756 36.3246 49.2721 36.5495C48.6685 36.7748 48.5424 37.2084 48.6349 37.6507C48.7278 38.0933 49.0044 38.3769 49.6079 38.1516C50.2114 37.9267 50.821 36.8354 50.821 36.8354ZM52.2408 27.1817C52.1265 27.3663 52.1178 27.6083 52.3694 27.8857C52.6209 28.1632 53.152 28.1867 53.152 28.1867C53.152 28.1867 53.0348 27.4955 52.7834 27.2181C52.5317 26.9406 52.3551 26.9976 52.2408 27.1817ZM41.7747 30.7631C42.0304 30.4926 42.1577 29.8043 42.1577 29.8043C42.1577 29.8043 41.6265 29.8138 41.3709 30.0845C41.1152 30.3554 41.1204 30.5975 41.2318 30.7849C41.3434 30.9723 41.5191 31.034 41.7747 30.7631ZM28.7698 47.5307C27.7969 47.6802 26.655 49.1645 26.655 49.1645C26.655 49.1645 28.0198 50.2629 28.993 50.1137C29.9661 49.9642 30.2406 49.3359 30.1792 48.623C30.1172 47.9092 29.7427 47.3811 28.7698 47.5307ZM47.5633 24.1408C47.5633 24.096 47.55 24.053 47.5262 24.0213C47.5025 23.9896 47.4702 23.9718 47.4366 23.9718C46.4512 23.9718 45.9136 23.631 45.9136 23.4559C45.9136 23.4111 45.9002 23.3681 45.8765 23.3364C45.8527 23.3047 45.8205 23.2869 45.7869 23.2869C45.7533 23.2869 45.7211 23.3047 45.6973 23.3364C45.6736 23.3681 45.6602 23.4111 45.6602 23.4559C45.6602 23.631 45.1226 23.9718 44.1372 23.9718C43.1517 23.9718 42.6141 23.631 42.6141 23.4559C42.6141 23.4111 42.6008 23.3681 42.577 23.3364C42.5533 23.3047 42.521 23.2869 42.4874 23.2869C42.4538 23.2869 42.4216 23.3047 42.3979 23.3364C42.3741 23.3681 42.3608 23.4111 42.3608 23.4559C42.3608 23.631 41.8231 23.9718 40.8376 23.9718C39.8521 23.9718 39.3145 23.631 39.3145 23.4559C39.3145 23.4111 39.3012 23.3681 39.2774 23.3364C39.2537 23.3047 39.2214 23.2869 39.1878 23.2869C39.1542 23.2869 39.122 23.3047 39.0983 23.3364C39.0745 23.3681 39.0612 23.4111 39.0612 23.4559C39.0612 23.631 38.5235 23.9718 37.5381 23.9718C37.5045 23.9718 37.4723 23.9896 37.4485 24.0213C37.4248 24.053 37.4114 24.096 37.4114 24.1408C37.4114 24.1856 37.4248 24.2286 37.4485 24.2603C37.4723 24.292 37.5045 24.3098 37.5381 24.3098C38.2213 24.3098 38.9109 24.134 39.1878 23.7951C39.7418 24.4733 41.9333 24.4733 42.4876 23.7951C43.0415 24.4733 45.2332 24.4733 45.7872 23.7951C46.0642 24.1342 46.7538 24.3098 47.4369 24.3098C47.4705 24.3097 47.5026 24.2918 47.5263 24.2602C47.55 24.2285 47.5633 24.1855 47.5633 24.1408Z" fill="#0181F5"/>
</g>
<defs>
<clipPath id="clip0_1277_806">
<rect width="55" height="55" fill="white"/>
</clipPath>
</defs>
</svg>
