<svg width="55" height="55" viewBox="0 0 55 55" fill="none" xmlns="http://www.w3.org/2000/svg">
<path d="M38.4155 21.5049C38.535 21.7948 38.8151 21.9696 39.1106 21.9696C39.2065 21.9696 39.3039 21.9512 39.3979 21.9125C39.7818 21.7538 39.9641 21.3139 39.8051 20.93C38.9903 18.9614 37.8124 17.1981 36.3032 15.6893C33.2518 12.6376 29.1947 10.957 24.8796 10.957H21.8606V7.57317C21.8606 6.32907 20.8488 5.31732 19.6047 5.31732C18.3606 5.31732 17.3489 6.32907 17.3489 7.57317C17.3489 7.98825 17.6857 8.32512 18.1008 8.32512C18.5159 8.32512 18.8527 7.98825 18.8527 7.57317C18.8527 7.15847 19.19 6.82123 19.6047 6.82123C20.0194 6.82123 20.3566 7.15847 20.3566 7.57317V9.82903H13.5891V7.57317C13.5891 6.32907 12.5774 5.31732 11.3333 5.31732C10.0892 5.31732 9.07741 6.32907 9.07741 7.57317C9.07741 7.98825 9.41429 8.32512 9.82936 8.32512C10.2444 8.32512 10.5813 7.98825 10.5813 7.57317C10.5813 7.15847 10.9186 6.82123 11.3333 6.82123C11.748 6.82123 12.0852 7.15847 12.0852 7.57317V10.9569H11.4912C7.98407 10.9569 5.11087 13.6282 4.95032 17.0383C4.8661 18.8058 5.4906 20.4819 6.708 21.7587C7.92615 23.0363 9.56878 23.7401 11.3336 23.7401C14.0286 23.7401 16.2213 25.9328 16.2213 28.6278C16.2213 31.3227 14.0286 33.5154 11.3336 33.5154H10.9576C8.89954 33.5154 6.9787 34.3313 5.54849 35.8123C4.11791 37.294 3.37009 39.2464 3.44228 41.3097C3.58515 45.3045 7.02945 48.5544 11.1189 48.5544H22.6237C23.0388 48.5544 23.3757 48.2175 23.3757 47.8025C23.3757 47.3874 23.0388 47.0505 22.6237 47.0505H11.119C7.82919 47.0505 5.05976 44.451 4.94508 41.2567C4.88718 39.6051 5.48536 38.0425 6.62983 36.8571C7.77393 35.672 9.3109 35.0193 10.9573 35.0193H11.3333C14.8577 35.0193 17.7248 32.1521 17.7248 28.6278C17.7248 25.1034 14.8577 22.2362 11.3333 22.2362C9.98428 22.2362 8.72778 21.6978 7.79611 20.721C6.86519 19.7446 6.38808 18.4621 6.45237 17.1098C6.57306 14.5464 8.83342 12.4608 11.4912 12.4608H12.0852V17.3485C12.0852 17.7636 12.4221 18.1005 12.8372 18.1005C13.2522 18.1005 13.5891 17.7636 13.5891 17.3485V15.0927H20.3567V17.3485C20.3567 17.7636 20.6935 18.1005 21.1086 18.1005C21.5237 18.1005 21.8606 17.7636 21.8606 17.3485V12.4608H24.8796C28.7932 12.4608 32.4724 13.985 35.24 16.7522C36.6081 18.1208 37.6767 19.7198 38.4155 21.5049ZM13.5891 13.5888V11.3329H20.3567V13.5888H13.5891Z" fill="#0181F5"/>
<path d="M33.5157 26.3719C33.9308 26.3719 34.2677 26.035 34.2677 25.6199C34.2677 25.2049 33.9308 24.868 33.5157 24.868C32.9164 24.868 32.6514 24.6409 32.2502 24.2969C31.7652 23.8814 31.1614 23.3641 30.006 23.3641C28.8506 23.3641 28.2468 23.8814 27.7618 24.2969C27.3603 24.6409 27.0952 24.868 26.4959 24.868C25.8974 24.868 25.6327 24.6409 25.2315 24.2969C24.7469 23.8814 24.1434 23.3641 22.9884 23.3641C22.5734 23.3641 22.2365 23.7009 22.2365 24.116C22.2365 24.5311 22.5734 24.868 22.9884 24.868C23.587 24.868 23.8517 25.0951 24.2528 25.4391C24.7375 25.8545 25.3409 26.3719 26.4959 26.3719C27.6516 26.3719 28.2551 25.8545 28.7401 25.4391C29.1413 25.0954 29.4063 24.868 30.0056 24.868C30.6049 24.868 30.87 25.0951 31.2712 25.4391C31.7565 25.8545 32.36 26.3719 33.5157 26.3719ZM26.9978 33.1394C27.5972 33.1394 27.8622 33.3665 28.2634 33.7105C28.7484 34.126 29.3522 34.6433 30.5076 34.6433C30.9226 34.6433 31.2595 34.3064 31.2595 33.8914C31.2595 33.4763 30.9226 33.1394 30.5076 33.1394C29.9083 33.1394 29.6432 32.9123 29.242 32.5683C28.757 32.1529 28.1532 31.6355 26.9978 31.6355C25.8425 31.6355 25.2387 32.1529 24.7537 32.5683C24.3525 32.9123 24.0874 33.1394 23.4881 33.1394C22.8896 33.1394 22.6249 32.9123 22.2237 32.5683C21.7391 32.1529 21.1357 31.6355 19.9807 31.6355C19.5656 31.6355 19.2287 31.9724 19.2287 32.3875C19.2287 32.8025 19.5656 33.1394 19.9807 33.1394C20.5792 33.1394 20.8439 33.3665 21.2451 33.7105C21.7297 34.126 22.3331 34.6433 23.4881 34.6433C24.6439 34.6433 25.2473 34.126 25.7323 33.7105C26.1335 33.3665 26.3985 33.1394 26.9978 33.1394ZM19.4671 40.0878C18.9821 39.6723 18.3782 39.155 17.2229 39.155C16.0675 39.155 15.4637 39.6723 14.9787 40.0878C14.5771 40.4318 14.3121 40.6589 13.7128 40.6589C13.1142 40.6589 12.8495 40.4318 12.4484 40.0878C11.9637 39.6723 11.3603 39.155 10.2053 39.155C9.79024 39.155 9.45337 39.4919 9.45337 39.9069C9.45337 40.322 9.79024 40.6589 10.2053 40.6589C10.8039 40.6589 11.0686 40.886 11.4697 41.23C11.9543 41.6455 12.5578 42.1628 13.7128 42.1628C14.8685 42.1628 15.472 41.6455 15.957 41.23C16.3581 40.8864 16.6232 40.6589 17.2225 40.6589C17.8218 40.6589 18.0869 40.886 18.488 41.23C18.973 41.6455 19.5768 42.1628 20.7322 42.1628C21.1473 42.1628 21.4842 41.8259 21.4842 41.4109C21.4842 40.9958 21.1473 40.6589 20.7322 40.6589C20.1333 40.6589 19.8679 40.4318 19.4671 40.0878Z" fill="#0181F5"/>
<path d="M51.0982 27.181C50.8169 27.0644 50.4936 27.1287 50.2785 27.3441L46.4541 31.1682C46.1609 31.4614 45.6841 31.4614 45.3909 31.1682L43.0061 28.7834C42.8639 28.6412 42.7857 28.4525 42.7857 28.2517C42.7857 28.051 42.8639 27.8622 43.0061 27.7201L46.8301 23.8957C47.0452 23.6806 47.1094 23.3573 46.9933 23.0761C46.9363 22.9387 46.8399 22.8213 46.7162 22.7388C46.5925 22.6562 46.4472 22.6121 46.2985 22.6121H40.9059C40.3032 22.6121 39.737 22.8467 39.3106 23.2727L36.4318 26.1515C36.0058 26.5779 35.7712 27.1441 35.7712 27.7468V31.7649C35.7712 31.9656 35.693 32.1547 35.5509 32.2965L25.7755 42.0718C24.9476 42.8997 24.4919 44.0002 24.4919 45.171C24.4919 46.3418 24.9476 47.4422 25.7755 48.2698L25.9045 48.3991C26.7324 49.227 27.8328 49.6827 29.0036 49.6827C30.1744 49.6827 31.2749 49.227 32.1028 48.3991L41.8781 38.6237C42.0203 38.4816 42.209 38.4034 42.4098 38.4034H46.4278C47.0305 38.4034 47.5967 38.1688 48.0231 37.7428L50.9019 34.864C51.3279 34.4376 51.5625 33.8714 51.5625 33.2687V27.8758C51.5625 27.5716 51.379 27.2975 51.0982 27.181ZM50.0586 33.2684C50.0586 33.4691 49.9804 33.6583 49.8383 33.8L46.9594 36.6789C46.8173 36.821 46.6286 36.8992 46.4278 36.8992H42.4098C41.8071 36.8992 41.2409 37.1338 40.8145 37.5598L31.0392 47.3351C30.4955 47.8788 29.7725 48.1784 29.0036 48.1784C28.2348 48.1784 27.5118 47.8791 26.9681 47.3355L26.8391 47.2062C26.2955 46.6625 25.9958 45.9395 25.9958 45.1706C25.9958 44.4018 26.2951 43.6788 26.8391 43.1351L36.6145 33.3598C37.0405 32.9334 37.2751 32.3672 37.2751 31.7645V27.7465C37.2751 27.5457 37.3533 27.3566 37.4954 27.2148L40.3742 24.336C40.5163 24.1939 40.7051 24.1157 40.9059 24.1157H44.4832L41.9424 26.6561C41.5164 27.0821 41.2818 27.6487 41.2818 28.2514C41.2818 28.8541 41.5168 29.4203 41.9424 29.8467L44.3272 32.2315C45.2066 33.1109 46.638 33.1109 47.5174 32.2315L50.0578 29.6906V33.2684H50.0586V33.2684Z" fill="#0181F5"/>
</svg>
