<svg width="55" height="55" viewBox="0 0 55 55" fill="none" xmlns="http://www.w3.org/2000/svg">
<g clip-path="url(#clip0_1277_828)">
<path d="M7.54745 26.0906C7.50857 26.1722 7.46875 26.2492 7.42987 26.3326C6.66435 27.9937 5.41145 29.4012 3.82642 30.3806L1.20633 31.9912C0.877562 32.1939 0.600028 32.4653 0.394178 32.7855C0.188328 33.1057 0.0594064 33.4664 0.0169119 33.8411C-0.0255827 34.2158 0.0194323 34.595 0.14864 34.9506C0.277849 35.3063 0.487958 35.6294 0.763489 35.8962L12.1874 46.9402C12.429 47.1732 12.7157 47.3579 13.0312 47.4837C13.3467 47.6096 13.6848 47.674 14.0261 47.6735C14.1237 47.6763 14.2214 47.6735 14.3191 47.6662C14.7071 47.6258 15.0807 47.5013 15.4119 47.3017C15.7431 47.1022 16.0234 46.8329 16.2318 46.5139C17.4429 44.7171 19.2447 43.367 21.3468 42.6813C22.1403 42.4083 22.9001 42.0511 23.6122 41.6162L25.9231 43.8492C26.4017 44.3137 27.037 44.5965 27.7132 44.6461C28.3894 44.6958 29.0616 44.5089 29.6072 44.1196L40.5797 54.7309C40.7585 54.8979 40.9981 54.9903 41.2467 54.9882C41.4953 54.9861 41.7332 54.8897 41.909 54.7198C42.0848 54.5498 42.1846 54.3199 42.1867 54.0795C42.1889 53.8392 42.0933 53.6076 41.9206 53.4348L30.9746 42.8537L34.8493 39.1082L43.6616 47.6268C43.8404 47.7937 44.08 47.8861 44.3286 47.884C44.5772 47.882 44.8151 47.7856 44.9909 47.6156C45.1667 47.4456 45.2665 47.2157 45.2686 46.9754C45.2708 46.735 45.1752 46.5035 45.0025 46.3306L36.1901 37.812L39.5906 34.5248L43.1875 38.0018C43.3663 38.1687 43.6058 38.2611 43.8545 38.259C44.1031 38.257 44.341 38.1606 44.5168 37.9906C44.6926 37.8206 44.7923 37.5907 44.7945 37.3504C44.7966 37.11 44.7011 36.8785 44.5283 36.7056L40.9315 33.2287L44.332 29.9415L51.7219 37.0851C51.9008 37.2521 52.1403 37.3445 52.389 37.3424C52.6376 37.3403 52.8754 37.2439 53.0513 37.0739C53.2271 36.904 53.3268 36.6741 53.329 36.4337C53.3311 36.1934 53.2355 35.9618 53.0628 35.7889L45.6425 28.616C46.0453 28.0886 46.2386 27.4388 46.1872 26.7851C46.1359 26.1315 45.8433 25.5174 45.3628 25.0548L39.7509 19.6299C39.8059 19.4035 39.8353 19.1725 39.8372 18.9406C39.8387 18.5339 39.7567 18.131 39.5958 17.7553C39.435 17.3795 39.1986 17.0384 38.9003 16.7516C38.5779 16.4445 38.1891 16.2108 37.7624 16.0678L38.9003 14.9678C39.5002 14.3869 39.8372 13.5996 39.8372 12.7788C39.8372 11.9579 39.5002 11.1707 38.9003 10.5898C38.2907 10.0259 37.4795 9.71115 36.6358 9.71115C35.7921 9.71115 34.9809 10.0259 34.3713 10.5898L33.7768 11.1645C33.619 10.7545 33.3722 10.3819 33.0531 10.0718C32.7339 9.76171 32.3497 9.52127 31.9264 9.36669C31.503 9.2121 31.0504 9.14694 30.5988 9.1756C30.1473 9.20427 29.7073 9.32608 29.3085 9.53285L20.2856 0.812598C19.7448 0.308221 19.0226 0.0263672 18.271 0.0263672C17.5195 0.0263672 16.7973 0.308221 16.2564 0.812598L0.841247 15.7093C0.574463 15.9639 0.362633 16.2671 0.218054 16.6014C0.0734738 16.9357 -0.000976562 17.2945 -0.000976562 17.6568C-0.000976562 18.0192 0.0734738 18.3779 0.218054 18.7122C0.362633 19.0465 0.574463 19.3497 0.841247 19.6043L7.54745 26.0906ZM44.2988 26.9999C44.2991 27.1204 44.2747 27.2397 44.2272 27.3511C44.1797 27.4624 44.1099 27.5636 44.0219 27.6489L28.603 42.5539C28.4218 42.7203 28.1815 42.813 27.9316 42.813C27.6817 42.813 27.4414 42.7203 27.2602 42.5539L25.1636 40.5272C25.43 40.3081 25.5969 40.1532 25.6169 40.1339L33.5824 32.4293C33.8933 32.1283 34.1368 31.7687 34.2977 31.3727C34.4585 30.9767 34.5332 30.553 34.5172 30.1279C34.5012 29.7028 34.3948 29.2854 34.2046 28.9018C34.0144 28.5182 33.7445 28.1766 33.4117 27.8983C33.1277 27.6634 32.8014 27.481 32.4492 27.3602L38.7552 21.2653L44.0172 26.3518C44.1974 26.5223 44.2988 26.7561 44.2988 26.9999ZM31.7152 11.3708C31.9591 11.6081 32.096 11.9291 32.096 12.2636C32.096 12.5981 31.9591 12.9191 31.7152 13.1564L24.276 20.3495C24.1854 20.4341 24.1132 20.5352 24.0635 20.6471C24.0138 20.7589 23.9876 20.8792 23.9865 21.0009C23.9854 21.1226 24.0094 21.2433 24.0571 21.356C24.1048 21.4686 24.1752 21.571 24.2642 21.657C24.3533 21.7431 24.4591 21.8112 24.5757 21.8573C24.6922 21.9034 24.8171 21.9265 24.943 21.9255C25.0689 21.9244 25.1933 21.8991 25.309 21.8511C25.4247 21.8031 25.5294 21.7332 25.6169 21.6457L33.0551 14.4553L35.7103 11.8887C35.9588 11.6585 36.2897 11.53 36.6339 11.53C36.9781 11.53 37.309 11.6585 37.5575 11.8887C38.0658 12.3828 38.0658 13.1812 37.5575 13.6743L27.4641 23.4286C27.3735 23.5132 27.3013 23.6143 27.2516 23.7261C27.2019 23.838 27.1757 23.9583 27.1746 24.08C27.1735 24.2017 27.1975 24.3224 27.2452 24.4351C27.2929 24.5477 27.3633 24.6501 27.4523 24.7361C27.5414 24.8222 27.6473 24.8903 27.7638 24.9363C27.8803 24.9824 28.0052 25.0056 28.1311 25.0046C28.257 25.0035 28.3815 24.9782 28.4971 24.9302C28.6128 24.8821 28.7175 24.8123 28.805 24.7248L35.7122 18.0478C35.9606 17.8174 36.2916 17.6888 36.6358 17.6888C36.9801 17.6888 37.311 17.8174 37.5594 18.0478C38.0677 18.5418 38.0677 19.3403 37.5594 19.8334L29.5939 27.538C29.5301 27.6057 29.4774 27.6823 29.4375 27.7653C29.2717 27.8765 29.1162 28.0013 28.9728 28.1384L24.807 32.1598C24.7189 32.245 24.6489 32.346 24.6011 32.4573C24.5534 32.5685 24.5287 32.6878 24.5287 32.8082C24.5285 33.0514 24.6283 33.2848 24.8061 33.4569C24.9839 33.6291 25.2251 33.7259 25.4768 33.726C25.7284 33.7262 25.9698 33.6297 26.1479 33.4578L30.3089 29.4355C30.546 29.1925 30.8677 29.0426 31.2121 29.0147C31.5565 28.9868 31.8994 29.0828 32.1751 29.2843C32.3109 29.3979 32.421 29.5373 32.4987 29.6939C32.5764 29.8504 32.6199 30.0207 32.6265 30.1942C32.6332 30.3677 32.6029 30.5407 32.5375 30.7024C32.472 30.8641 32.3729 31.011 32.2463 31.1341L24.2807 38.8341C23.252 39.7577 22.0435 40.4744 20.7256 40.9424C18.2184 41.7641 16.0709 43.3788 14.6301 45.5258C14.5731 45.6122 14.4967 45.6852 14.4065 45.7393C14.3164 45.7934 14.2149 45.8273 14.1095 45.8385C14.004 45.8497 13.8973 45.8378 13.7972 45.8039C13.6971 45.7699 13.6062 45.7146 13.5311 45.6422L2.10435 34.6C2.02922 34.5274 1.97192 34.4395 1.93667 34.3426C1.90141 34.2458 1.88911 34.1425 1.90067 34.0404C1.91223 33.9384 1.94736 33.8401 2.00346 33.7529C2.05955 33.6657 2.13519 33.5918 2.22478 33.5367L4.84202 31.927C6.74059 30.7559 8.24207 29.0721 9.16047 27.0843C9.91647 25.2771 10.9899 23.6099 12.3334 22.1563L22.8706 11.9712C23.1074 11.7278 23.4289 11.5777 23.7733 11.5498C24.1176 11.5219 24.4605 11.6181 24.7359 11.8199C24.8717 11.9336 24.9818 12.073 25.0595 12.2296C25.1371 12.3861 25.1806 12.5564 25.1873 12.7299C25.194 12.9034 25.1637 13.0764 25.0982 13.2381C25.0328 13.3997 24.9337 13.5467 24.807 13.6698L21.0879 17.2649C20.9973 17.3495 20.9251 17.4506 20.8754 17.5625C20.8257 17.6743 20.7995 17.7946 20.7984 17.9163C20.7973 18.038 20.8213 18.1587 20.869 18.2714C20.9167 18.384 20.9871 18.4864 21.0761 18.5725C21.1652 18.6585 21.271 18.7266 21.3876 18.7727C21.5041 18.8188 21.629 18.842 21.7549 18.8409C21.8808 18.8399 22.0052 18.8146 22.1209 18.7665C22.2366 18.7185 22.3413 18.6486 22.4287 18.5611L26.1479 14.9659L29.8708 11.3708C30.3867 10.8941 31.1984 10.8941 31.7152 11.3708ZM2.18116 17.0101L17.602 2.10051C17.7812 1.93166 18.0218 1.83754 18.272 1.83839C18.5222 1.83925 18.7621 1.93502 18.94 2.1051L27.8538 10.7218L26.86 11.6815C26.6772 11.2004 26.3731 10.771 25.9753 10.4321C25.3387 9.92379 24.5272 9.66627 23.7028 9.71096C22.8784 9.75565 22.1017 10.0993 21.5279 10.6732L10.9925 20.8601C9.97548 21.9044 9.11608 23.0824 8.43978 24.359L2.17452 18.309C2.08488 18.2243 2.01377 18.123 1.96542 18.0112C1.91707 17.8994 1.89248 17.7794 1.8931 17.6582C1.89372 17.537 1.91954 17.4172 1.96902 17.3059C2.01851 17.1945 2.09065 17.0939 2.18116 17.0101ZM51.959 46.0226L53.3814 47.3976C53.5603 47.5646 53.7998 47.657 54.0484 47.6549C54.2971 47.6528 54.5349 47.5564 54.7107 47.3864C54.8866 47.2165 54.9863 46.9866 54.9884 46.7462C54.9906 46.5059 54.895 46.2743 54.7223 46.1014L53.2999 44.7264C53.121 44.5595 52.8815 44.4671 52.6328 44.4691C52.3842 44.4712 52.1464 44.5676 51.9706 44.7376C51.7947 44.9076 51.695 45.1375 51.6928 45.3778C51.6907 45.6182 51.7863 45.8497 51.959 46.0226Z" fill="#0181F5"/>
<path d="M49.1145 43.2723C49.2933 43.4393 49.5328 43.5317 49.7815 43.5296C50.0301 43.5275 50.268 43.4311 50.4438 43.2612C50.6196 43.0912 50.7193 42.8613 50.7215 42.6209C50.7236 42.3806 50.6281 42.149 50.4553 41.9762L49.0329 40.6012C48.8541 40.4342 48.6145 40.3418 48.3659 40.3439C48.1172 40.346 47.8794 40.4424 47.7036 40.6123C47.5278 40.7823 47.428 41.0122 47.4259 41.2525C47.4237 41.4929 47.5193 41.7244 47.692 41.8973L49.1145 43.2723ZM47.692 47.3973C47.8699 47.5692 48.111 47.6657 48.3625 47.6657C48.6139 47.6657 48.8551 47.5692 49.0329 47.3973L50.4553 46.0223C50.6281 45.8494 50.7236 45.6179 50.7215 45.3775C50.7193 45.1372 50.6196 44.9073 50.4438 44.7373C50.268 44.5674 50.0301 44.471 49.7815 44.4689C49.5328 44.4668 49.2933 44.5592 49.1145 44.7262L47.692 46.1012C47.5143 46.2731 47.4144 46.5062 47.4144 46.7492C47.4144 46.9923 47.5143 47.2254 47.692 47.3973ZM51.9593 43.2723C52.1371 43.4442 52.3783 43.5407 52.6297 43.5407C52.8812 43.5407 53.1223 43.4442 53.3001 43.2723L54.7226 41.8973C54.8953 41.7244 54.9909 41.4929 54.9887 41.2525C54.9866 41.0122 54.8868 40.7823 54.711 40.6123C54.5352 40.4424 54.2974 40.346 54.0487 40.3439C53.8001 40.3418 53.5605 40.4342 53.3817 40.6012L51.9593 41.9762C51.7815 42.1481 51.6816 42.3812 51.6816 42.6242C51.6816 42.8673 51.7815 43.1004 51.9593 43.2723ZM48.3625 15.82C48.614 15.82 48.8552 15.7234 49.033 15.5515C49.2108 15.3796 49.3107 15.1464 49.3107 14.9033V13.07C49.3107 12.8269 49.2108 12.5937 49.033 12.4218C48.8552 12.2499 48.614 12.1533 48.3625 12.1533C48.111 12.1533 47.8698 12.2499 47.6919 12.4218C47.5141 12.5937 47.4142 12.8269 47.4142 13.07V14.9033C47.4142 15.1464 47.5141 15.3796 47.6919 15.5515C47.8698 15.7234 48.111 15.82 48.3625 15.82ZM49.3107 20.4033V18.57C49.3107 18.3269 49.2108 18.0937 49.033 17.9218C48.8552 17.7499 48.614 17.6533 48.3625 17.6533C48.111 17.6533 47.8698 17.7499 47.6919 17.9218C47.5141 18.0937 47.4142 18.3269 47.4142 18.57V20.4033C47.4142 20.6464 47.5141 20.8796 47.6919 21.0515C47.8698 21.2234 48.111 21.32 48.3625 21.32C48.614 21.32 48.8552 21.2234 49.033 21.0515C49.2108 20.8796 49.3107 20.6464 49.3107 20.4033ZM50.259 17.6533H52.1556C52.4071 17.6533 52.6483 17.5567 52.8261 17.3848C53.0039 17.2129 53.1039 16.9798 53.1039 16.7367C53.1039 16.4935 53.0039 16.2604 52.8261 16.0885C52.6483 15.9166 52.4071 15.82 52.1556 15.82H50.259C50.0075 15.82 49.7663 15.9166 49.5885 16.0885C49.4107 16.2604 49.3107 16.4935 49.3107 16.7367C49.3107 16.9798 49.4107 17.2129 49.5885 17.3848C49.7663 17.5567 50.0075 17.6533 50.259 17.6533ZM44.5694 17.6533H46.4659C46.7174 17.6533 46.9586 17.5567 47.1365 17.3848C47.3143 17.2129 47.4142 16.9798 47.4142 16.7367C47.4142 16.4935 47.3143 16.2604 47.1365 16.0885C46.9586 15.9166 46.7174 15.82 46.4659 15.82H44.5694C44.3179 15.82 44.0767 15.9166 43.8988 16.0885C43.721 16.2604 43.6211 16.4935 43.6211 16.7367C43.6211 16.9798 43.721 17.2129 43.8988 17.3848C44.0767 17.5567 44.3179 17.6533 44.5694 17.6533Z" fill="#0181F5"/>
</g>
<defs>
<clipPath id="clip0_1277_828">
<rect width="55" height="55" fill="white"/>
</clipPath>
</defs>
</svg>
