<svg width="55" height="55" viewBox="0 0 55 55" fill="none" xmlns="http://www.w3.org/2000/svg">
<g clip-path="url(#clip0_1267_798)">
<path d="M54.6451 35.1323C54.2774 34.8828 53.7758 34.9792 53.5249 35.3461C53.4573 35.4451 51.8343 37.7685 48.8538 37.7685C45.8731 37.7685 44.2502 35.4451 44.1843 35.3488C43.8873 34.8784 43.1405 34.8789 42.844 35.3494C42.8277 35.3736 41.1862 37.7686 38.1789 37.7686C35.6583 37.7686 34.1088 36.1072 33.6507 35.536V23.0271H54.193C54.6389 23.0271 55.0002 22.6657 55.0002 22.2198C55.0002 21.7739 54.6389 21.4125 54.193 21.4125H47.7013V15.529C47.7013 10.1915 43.4104 5.80757 38.1362 5.75654C35.5414 5.73044 33.0945 6.72538 31.2469 8.5551C30.3524 9.44101 29.6544 10.4699 29.1702 11.5891C27.678 8.19105 24.3223 5.79425 20.4307 5.75654C20.3987 5.75624 20.3667 5.7561 20.3347 5.75611C17.7753 5.75611 15.3661 6.74794 13.5413 8.5551C11.6934 10.3852 10.6756 12.8219 10.6756 15.4161V21.4126H0.868642C0.422734 21.4126 0.0613664 21.774 0.0613664 22.2199C0.0613664 22.6658 0.422734 23.0272 0.868642 23.0272H10.6756V26.215C10.6756 26.6609 11.037 27.0223 11.4829 27.0223C11.9288 27.0223 12.2902 26.6609 12.2902 26.215V15.4161C12.2902 13.256 13.1379 11.2268 14.6775 9.70215C16.2165 8.17805 18.2525 7.34531 20.4152 7.37099C24.8076 7.41342 28.3812 11.0732 28.3812 15.529V21.4125H26.3407V15.4161C26.3407 12.1613 23.6936 9.46775 20.44 9.412C20.4057 9.41146 20.3717 9.41114 20.3375 9.41114C18.7794 9.41114 17.3031 10.0205 16.1707 11.1338C15.0013 12.2833 14.3306 13.8777 14.3306 15.5083V37.1744C13.2545 36.634 12.5647 35.871 12.2901 35.5268V29.4439C12.2901 28.998 11.9287 28.6367 11.4828 28.6367C11.0369 28.6367 10.6755 28.998 10.6755 29.4439V35.535C10.2157 36.1083 8.6665 37.7685 6.14682 37.7685C3.16618 37.7685 1.54325 35.4451 1.47729 35.3488C1.3568 35.1736 1.17205 35.053 0.963174 35.0133C0.7543 34.9735 0.538167 35.0177 0.361716 35.1364C0.185266 35.255 0.0627486 35.4385 0.0207729 35.6469C-0.0212028 35.8554 0.0207531 36.0719 0.137528 36.2496C0.223466 36.3776 2.28854 39.383 6.14671 39.383C8.78445 39.383 10.584 37.9784 11.486 37.0488C12.388 37.9784 14.1877 39.383 16.8253 39.383C19.4624 39.383 21.2599 37.9791 22.1612 37.0492C23.0634 37.9789 24.8628 39.383 27.4999 39.383C30.1377 39.383 31.9372 37.9784 32.8392 37.0488C33.7412 37.9784 35.5409 39.383 38.1785 39.383C40.8156 39.383 42.6131 37.9791 43.5144 37.0492C44.4166 37.9789 46.216 39.383 48.8531 39.383C52.7114 39.383 54.7764 36.3776 54.8623 36.2496C55.1109 35.8806 55.013 35.3819 54.6451 35.1323ZM15.9452 28.6368H28.3812V30.8969H15.9452V28.6368ZM28.3812 27.0222H15.9452V23.0271H28.3812V27.0222ZM17.3026 12.2852C18.1486 11.4536 19.2527 11.0066 20.4123 11.0263C22.7911 11.0672 24.7263 13.0364 24.7263 15.4162V21.4127H15.9453V15.5084C15.9452 14.3079 16.44 13.1331 17.3026 12.2852ZM22.8308 35.3488C22.5342 34.881 21.7911 34.8807 21.4924 35.3469C21.4249 35.4457 19.8056 37.7685 16.8256 37.7685C16.5172 37.7685 16.2243 37.7425 15.9452 37.6978V32.5114H28.3812V37.6977C28.0899 37.7446 27.7953 37.7683 27.5002 37.7685C24.5197 37.7685 22.8967 35.4451 22.8308 35.3488ZM29.9957 37.1741V15.4161C29.9957 13.256 30.8434 11.2268 32.383 9.70215C33.922 8.17805 35.9582 7.34531 38.1206 7.37099C42.5131 7.41342 46.0867 11.0732 46.0867 15.529V21.4125H44.0462V19.618C44.0462 19.1721 43.6849 18.8108 43.2389 18.8108C42.793 18.8108 42.4317 19.1721 42.4317 19.618V21.4125H33.6506V15.5082C33.6506 14.3078 34.1454 13.133 35.008 12.285C35.854 11.4533 36.9561 11.0064 38.1177 11.0261C40.4965 11.0669 42.4317 13.0362 42.4317 15.416V16.3891C42.4317 16.835 42.793 17.1963 43.2389 17.1963C43.6849 17.1963 44.0462 16.835 44.0462 16.3891V15.416C44.0462 12.1611 41.3991 9.46765 38.1455 9.41189C38.1112 9.41136 38.0772 9.41104 38.0429 9.41104C36.4849 9.41104 35.0087 10.0204 33.8762 11.1337C32.7069 12.2832 32.0361 13.8776 32.0361 15.5082V35.5257C31.7607 35.8713 31.0709 36.634 29.9957 37.1741ZM22.1649 47.6295C19.1843 47.6295 17.5614 45.3061 17.4954 45.2098C17.199 44.7422 16.4564 44.7418 16.1574 45.2072C16.0898 45.3062 14.4667 47.6296 11.4862 47.6296C8.50569 47.6296 6.88266 45.3062 6.8167 45.2099C6.75755 45.1219 6.68166 45.0465 6.59335 44.9878C6.50503 44.9292 6.40604 44.8885 6.302 44.8681C6.19797 44.8478 6.09094 44.8481 5.98703 44.8691C5.88312 44.89 5.78436 44.9313 5.6964 44.9905C5.60842 45.0496 5.53296 45.1255 5.47432 45.2138C5.41568 45.3021 5.375 45.4011 5.35463 45.5051C5.33425 45.6091 5.33456 45.7161 5.35554 45.82C5.37653 45.9239 5.41778 46.0227 5.47693 46.1106C5.56287 46.2386 7.62784 49.244 11.4861 49.244C14.1239 49.244 15.9234 47.8394 16.8254 46.9098C17.7274 47.8394 19.5271 49.244 22.1648 49.244C22.6107 49.244 22.9721 48.8827 22.9721 48.4368C22.9721 47.9909 22.6108 47.6295 22.1649 47.6295ZM49.3051 44.9929C48.9369 44.7438 48.4357 44.8407 48.185 45.2079C48.1175 45.3067 46.4983 47.6295 43.5182 47.6295C40.5376 47.6295 38.9147 45.3061 38.8487 45.2098C38.552 44.7397 37.8057 44.7398 37.509 45.2098C37.4926 45.234 35.8472 47.6295 32.8394 47.6295C29.8588 47.6295 28.2359 45.3061 28.1699 45.2098C27.8733 44.742 27.1302 44.7417 26.8314 45.2079C26.825 45.2172 26.1736 46.1596 24.9719 46.861C24.8803 46.9144 24.8002 46.9854 24.736 47.0698C24.6719 47.1542 24.625 47.2505 24.5981 47.353C24.5711 47.4555 24.5646 47.5624 24.579 47.6674C24.5933 47.7725 24.6282 47.8737 24.6817 47.9652C24.7351 48.0568 24.8061 48.1369 24.8905 48.2011C24.9749 48.2652 25.0711 48.3121 25.1737 48.339C25.2762 48.366 25.3831 48.3725 25.4881 48.3581C25.5931 48.3438 25.6943 48.3089 25.7859 48.2554C26.5274 47.8225 27.1008 47.3194 27.4995 46.909C28.4013 47.8386 30.201 49.244 32.8394 49.244C35.4772 49.244 37.2767 47.8394 38.1787 46.9098C39.0808 47.8394 40.8804 49.244 43.518 49.244C47.3768 49.244 49.4379 46.2379 49.5238 46.11C49.7717 45.7406 49.6733 45.242 49.3051 44.9929Z" fill="#0181F5"/>
</g>
<defs>
<clipPath id="clip0_1267_798">
<rect width="55" height="55" fill="white"/>
</clipPath>
</defs>
</svg>
