<svg width="60" height="60" viewBox="0 0 60 60" fill="none" xmlns="http://www.w3.org/2000/svg">
<path d="M8.95894 28.463C8.91794 28.552 8.87594 28.636 8.83494 28.727C8.02767 30.5391 6.70642 32.0745 5.03494 33.143L2.27194 34.9C1.56969 35.3479 1.10841 36.0901 1.01764 36.9181C0.926876 37.7461 1.21641 38.5706 1.80494 39.16L13.8519 51.208C14.3665 51.7214 15.0641 52.0092 15.7909 52.008C15.894 52.0109 15.9972 52.0083 16.0999 52C16.9289 51.9109 17.6717 51.4479 18.1169 50.743C19.3941 48.7829 21.2942 47.31 23.5109 46.562C24.3478 46.2642 25.149 45.8744 25.8999 45.4L28.3369 47.836C29.38 48.8833 31.0327 49.0088 32.2219 48.131L43.7929 59.707C44.1853 60.086 44.809 60.0806 45.1948 59.6948C45.5805 59.3091 45.5859 58.6854 45.2069 58.293L33.6639 46.75L37.7499 42.664L47.0429 51.957C47.4353 52.336 48.059 52.3306 48.4448 51.9448C48.8305 51.5591 48.8359 50.9354 48.4569 50.543L39.1639 41.25L42.7499 37.664L46.5429 41.457C46.9353 41.836 47.559 41.8306 47.9448 41.4448C48.3305 41.0591 48.3359 40.4354 47.9569 40.043L44.1639 36.25L47.7499 32.664L55.5429 40.457C55.9353 40.836 56.559 40.8306 56.9448 40.4448C57.3305 40.0591 57.3359 39.4354 56.9569 39.043L49.1319 31.218C50.0097 30.0288 49.8842 28.3761 48.8369 27.333L42.9189 21.415C42.977 21.1685 43.0075 20.9163 43.0099 20.663C43.0131 19.7669 42.6573 18.9069 42.0219 18.275C41.6823 17.9403 41.2724 17.6854 40.8219 17.529L42.0219 16.329C43.3392 15.0095 43.3392 12.8725 42.0219 11.553C40.6864 10.275 38.5815 10.275 37.2459 11.553L36.6189 12.18C36.2823 11.2751 35.5708 10.5599 34.6676 10.2187C33.7644 9.87754 32.7578 9.94364 31.9069 10.4L22.3919 0.887003C21.2065 -0.256605 19.3284 -0.256605 18.1429 0.887003L1.88694 17.138C1.31866 17.6989 0.998779 18.4641 0.998779 19.2625C0.998779 20.061 1.31866 20.8261 1.88694 21.387L8.95894 28.463ZM47.7149 29.455C47.7154 29.7204 47.6104 29.9751 47.4229 30.163L31.1629 46.423C30.7662 46.7999 30.1437 46.7999 29.7469 46.423L27.5359 44.212C27.8169 43.973 27.9929 43.804 28.0139 43.783L36.4139 35.378C37.0768 34.7142 37.4339 33.8048 37.3998 32.8673C37.3657 31.9299 36.9433 31.0488 36.2339 30.435C35.9345 30.1787 35.5904 29.9798 35.2189 29.848L41.8689 23.199L47.4179 28.748C47.6076 28.9344 47.7146 29.1891 47.7149 29.455ZM34.4449 12.405C34.9804 12.944 34.9804 13.814 34.4449 14.353L26.5999 22.2C26.34 22.4511 26.2357 22.8229 26.3272 23.1725C26.4188 23.5221 26.6918 23.7952 27.0414 23.8867C27.3911 23.9782 27.7629 23.874 28.0139 23.614L35.8579 15.77L38.6579 12.97C39.2025 12.4483 40.0614 12.4483 40.6059 12.97C41.1419 13.5087 41.1419 14.3793 40.6059 14.918L29.9619 25.559C29.702 25.8101 29.5977 26.1819 29.6892 26.5315C29.7808 26.8811 30.0538 27.1542 30.4034 27.2457C30.7531 27.3372 31.1249 27.233 31.3759 26.973L38.6599 19.689C39.2043 19.1668 40.0636 19.1668 40.6079 19.689C41.1439 20.2277 41.1439 21.0983 40.6079 21.637L32.2079 30.042C32.1407 30.1158 32.085 30.1994 32.0429 30.29C31.8681 30.4112 31.7042 30.5474 31.5529 30.697L27.1599 35.084C26.7689 35.4745 26.7685 36.108 27.1589 36.499C27.5494 36.89 28.1829 36.8905 28.5739 36.5L32.9619 32.112C33.4798 31.5629 34.3279 31.4918 34.9299 31.947C35.2194 32.1976 35.3918 32.5571 35.406 32.9397C35.4202 33.3223 35.275 33.6936 35.0049 33.965L26.6049 42.365C25.5201 43.3726 24.2457 44.1545 22.8559 44.665C20.2119 45.5613 17.9473 47.3229 16.4279 49.665C16.306 49.856 16.1041 49.9815 15.8789 50.0062C15.6536 50.0309 15.4293 49.9521 15.2689 49.792L3.21894 37.746C3.05847 37.5856 2.97946 37.3611 3.00416 37.1355C3.02885 36.91 3.15457 36.7079 3.34594 36.586L6.10594 34.83C8.10807 33.5524 9.69144 31.7156 10.6599 29.547C11.4572 27.5756 12.5892 25.7568 14.0059 24.171L25.1179 13.06C25.635 12.5102 26.4835 12.439 27.0849 12.895C27.3744 13.1456 27.5468 13.5051 27.561 13.8877C27.5752 14.2703 27.43 14.6416 27.1599 14.913L23.2379 18.835C22.978 19.0861 22.8737 19.4579 22.9652 19.8075C23.0568 20.1571 23.3298 20.4302 23.6794 20.5217C24.0291 20.6132 24.4009 20.509 24.6519 20.249L28.5739 16.327L32.4999 12.405C33.0441 11.8853 33.9008 11.8853 34.4449 12.405ZM3.29994 18.557L19.5619 2.292C19.955 1.90879 20.5826 1.91102 20.9729 2.297L30.3729 11.697L29.3249 12.744C29.1321 12.2192 28.8114 11.7507 28.3919 11.381C26.9996 10.231 24.9569 10.3455 23.7019 11.644L12.5919 22.757C11.5194 23.8963 10.6131 25.1813 9.89994 26.574L3.29294 19.974C3.10194 19.7873 2.99485 19.5311 2.99617 19.264C2.99749 18.9969 3.1071 18.7418 3.29994 18.557Z" fill="#0181F5"/>
<path d="M55.7932 50.2074L57.2932 51.7074C57.6855 52.0864 58.3093 52.081 58.695 51.6952C59.0807 51.3095 59.0861 50.6858 58.7072 50.2934L57.2072 48.7934C56.8148 48.4144 56.1911 48.4199 55.8053 48.8056C55.4196 49.1913 55.4142 49.815 55.7932 50.2074Z" fill="#0181F5"/>
<path d="M52.7932 47.2074C53.1855 47.5864 53.8093 47.581 54.195 47.1952C54.5807 46.8095 54.5861 46.1858 54.2072 45.7934L52.7072 44.2934C52.3148 43.9144 51.6911 43.9199 51.3053 44.3056C50.9196 44.6913 50.9142 45.315 51.2932 45.7074L52.7932 47.2074Z" fill="#0181F5"/>
<path d="M51.293 51.7074C51.6835 52.0978 52.3165 52.0978 52.707 51.7074L54.207 50.2074C54.586 49.815 54.5806 49.1913 54.1949 48.8056C53.8091 48.4199 53.1854 48.4144 52.793 48.7934L51.293 50.2934C50.9026 50.6839 50.9026 51.3169 51.293 51.7074Z" fill="#0181F5"/>
<path d="M55.793 47.2074C56.1835 47.5978 56.8165 47.5978 57.207 47.2074L58.707 45.7074C59.086 45.315 59.0806 44.6913 58.6949 44.3056C58.3091 43.9199 57.6854 43.9144 57.293 44.2934L55.793 45.7934C55.4026 46.1839 55.4026 46.8169 55.793 47.2074Z" fill="#0181F5"/>
<path d="M52 17.2588C52.5523 17.2588 53 16.8111 53 16.2588V14.2588C53 13.7065 52.5523 13.2588 52 13.2588C51.4477 13.2588 51 13.7065 51 14.2588V16.2588C51 16.8111 51.4477 17.2588 52 17.2588Z" fill="#0181F5"/>
<path d="M53 22.2588V20.2588C53 19.7065 52.5523 19.2588 52 19.2588C51.4477 19.2588 51 19.7065 51 20.2588V22.2588C51 22.8111 51.4477 23.2588 52 23.2588C52.5523 23.2588 53 22.8111 53 22.2588Z" fill="#0181F5"/>
<path d="M54 19.2588H56C56.5523 19.2588 57 18.8111 57 18.2588C57 17.7065 56.5523 17.2588 56 17.2588H54C53.4477 17.2588 53 17.7065 53 18.2588C53 18.8111 53.4477 19.2588 54 19.2588Z" fill="#0181F5"/>
<path d="M48 19.2588H50C50.5523 19.2588 51 18.8111 51 18.2588C51 17.7065 50.5523 17.2588 50 17.2588H48C47.4477 17.2588 47 17.7065 47 18.2588C47 18.8111 47.4477 19.2588 48 19.2588Z" fill="#0181F5"/>
</svg>
