<svg width="60" height="60" viewBox="0 0 60 60" fill="none" xmlns="http://www.w3.org/2000/svg">
<g clip-path="url(#clip0_1312_9551)">
<path d="M21.9251 54.3311C21.434 54.3311 20.984 54.649 20.8201 55.1121C20.6544 55.5803 20.8097 56.1154 21.199 56.423C21.5844 56.7275 22.1364 56.7567 22.5515 56.4938C22.9558 56.2376 23.1667 55.7481 23.0755 55.2783C22.9699 54.7345 22.4785 54.3311 21.9251 54.3311Z" fill="#0181F5"/>
<path d="M43.4196 42.6895C47.2623 38.8436 47.2623 32.586 43.4196 28.7401C41.5576 26.8767 39.0822 25.8506 36.4492 25.8506C33.816 25.8506 31.3406 26.8767 29.479 28.74C25.6362 32.5859 25.6362 38.8436 29.479 42.6894C31.3407 44.5527 33.8161 45.579 36.4492 45.579C39.0822 45.579 41.5576 44.5527 43.4196 42.6895ZM31.1369 30.3966C32.5559 28.9765 34.4423 28.1944 36.4491 28.1944C38.4558 28.1944 40.3425 28.9766 41.7614 30.3968C44.6915 33.3291 44.6915 38.1005 41.7614 41.0327C40.3424 42.453 38.4557 43.2351 36.4491 43.2351C34.4424 43.2351 32.5557 42.453 31.1369 41.0327C28.2069 38.1003 28.207 33.329 31.1369 30.3966Z" fill="#0181F5"/>
<path d="M58.6887 51.6218L53.0199 45.9483C52.8001 45.7283 52.5018 45.6047 52.1909 45.6047C51.88 45.6047 51.5817 45.7283 51.3619 45.9483L49.8459 47.4656L48.1755 45.7932C53.3921 39.7229 53.1267 30.5298 47.379 24.7774C45.135 22.5316 42.3226 21.0613 39.2663 20.5013C33.1459 10.0155 23.1157 1.36458 22.6875 0.997653C22.2487 0.621817 21.6016 0.621935 21.1628 0.997653C20.9478 1.18176 15.8364 5.58104 10.6424 11.9154C7.57754 15.6531 5.13162 19.284 3.37233 22.7071C1.13466 27.0611 0 31.1074 0 34.7335C0 44.7034 6.7218 53.4315 16.3461 55.9586C16.4459 55.9847 16.546 55.9973 16.6446 55.9973C17.1643 55.9973 17.6391 55.649 17.7773 55.1227C17.9417 54.4966 17.5675 53.856 16.9414 53.6915C8.34667 51.4348 2.34385 43.6389 2.34385 34.7335C2.34385 21.9847 18.2273 6.81508 21.9259 3.45658C24.2518 5.56511 31.3936 12.335 36.3708 20.2467C32.2711 20.267 28.4201 21.8742 25.5192 24.7775C19.4932 30.8084 19.4932 40.6217 25.5192 46.6526C27.6339 48.7691 30.2535 50.1967 33.1064 50.8229C31.2296 52.1295 29.1287 53.1064 26.9279 53.6867C26.3021 53.8517 25.9286 54.4928 26.0935 55.1187C26.2322 55.6444 26.7066 55.9921 27.2259 55.9921C27.3248 55.9921 27.4253 55.9796 27.5255 55.9531C30.8032 55.0889 33.8821 53.4404 36.4353 51.1834H36.4493C40.1848 51.1834 43.718 49.8663 46.5193 47.4515L48.1894 49.1235L46.6718 50.6422C46.2147 51.0998 46.2147 51.8413 46.6718 52.2989L52.3369 57.9686C53.185 58.8174 54.3129 59.2849 55.5129 59.2849C56.7129 59.2849 57.8407 58.8174 58.6889 57.9686C60.4371 56.2188 60.4371 53.3716 58.6887 51.6218ZM27.1772 26.434C29.6539 23.9554 32.9466 22.5902 36.449 22.5902C39.9514 22.5902 43.2442 23.9554 45.7208 26.434C50.8343 31.5514 50.8343 39.8782 45.7208 44.9957C43.2442 47.4745 39.9514 48.8395 36.449 48.8395C32.9466 48.8395 29.6539 47.4745 27.1772 44.9957C22.0638 39.8783 22.0638 31.5516 27.1772 26.434ZM57.0307 56.3118C56.6253 56.7176 56.0863 56.941 55.5128 56.941C54.9393 56.941 54.4003 56.7176 53.995 56.3118L49.1576 51.4706L52.191 48.4346L57.0308 53.2784C57.8663 54.1148 57.8663 55.4756 57.0307 56.3118Z" fill="#0181F5"/>
<path d="M37.3373 38.383L39.796 34.9861C40.1755 34.4618 40.0581 33.7291 39.5339 33.3496C39.0097 32.9703 38.277 33.0873 37.8974 33.6118L36.2259 35.921L35.4321 35.1633C34.964 34.7164 34.2223 34.7334 33.7752 35.2018C33.3282 35.67 33.3455 36.4118 33.8136 36.8587L35.5786 38.5436C35.7977 38.7526 36.0878 38.8678 36.3877 38.8678C36.4232 38.8678 36.4588 38.8662 36.4944 38.8629C36.8315 38.8322 37.1388 38.6573 37.3373 38.383Z" fill="#0181F5"/>
</g>
<defs>
<clipPath id="clip0_1312_9551">
<rect width="60" height="60" fill="white"/>
</clipPath>
</defs>
</svg>
