<svg width="60" height="60" viewBox="0 0 60 60" fill="none" xmlns="http://www.w3.org/2000/svg">
<g clip-path="url(#clip0_1312_9461)">
<path d="M0.937369 60.0003H37.889C38.1377 60.0003 38.3761 59.9015 38.552 59.7257C38.7278 59.5499 38.8265 59.3114 38.8265 59.0628V50.0971C38.8409 48.7353 38.4194 47.4045 37.6237 46.2992C36.8279 45.1939 35.6995 44.3721 34.4034 43.9537L24.9347 40.7974V37.8074C24.9347 37.7751 24.933 37.743 24.9299 37.7115C26.1283 36.767 27.0674 35.5336 27.6589 34.1271C28.3438 34.1252 29.0141 33.9286 29.5914 33.5601C30.1687 33.1916 30.6292 32.6665 30.9192 32.046C31.2092 31.4255 31.3167 30.7354 31.2291 30.0561C31.1415 29.3768 30.8625 28.7365 30.4246 28.2099C30.5642 27.564 30.7984 26.3718 30.8995 25.6859C30.9303 25.4757 30.9609 25.2785 30.9899 25.0919C31.2619 23.3394 31.4258 22.2816 30.3718 20.2971C29.2267 18.1426 27.4762 16.3702 25.3361 15.1984C23.196 14.0266 20.7599 13.5064 18.3278 13.7021C15.8958 13.8978 13.5742 14.8008 11.649 16.2997C9.72382 17.7987 8.27926 19.8281 7.49331 22.1379C7.47663 22.187 7.46404 22.2373 7.45569 22.2884C7.14315 24.1958 7.40881 26.1869 8.24354 28.2117C7.80649 28.7379 7.528 29.3776 7.44053 30.0561C7.35305 30.7346 7.4602 31.4239 7.74947 32.0438C8.03875 32.6638 8.49824 33.1887 9.07441 33.5575C9.65057 33.9263 10.3197 34.1238 11.0038 34.1269C11.6123 35.5665 12.582 36.8246 13.8192 37.7796C13.8426 37.7978 13.8674 37.8147 13.8913 37.8326V40.7975L4.42253 43.9537C3.12651 44.3721 1.99825 45.194 1.20257 46.2993C0.40688 47.4046 -0.0145393 48.7353 -0.000130738 50.0971V59.0628C-0.000130738 59.3114 0.0986413 59.5499 0.274457 59.7257C0.450272 59.9015 0.688729 60.0003 0.937369 60.0003ZM21.7168 47.5162L21.3397 49.6712H17.4865L17.1494 47.7438C17.1323 47.6461 17.0997 47.5518 17.0529 47.4644L19.4133 45.7886L21.7349 47.4373C21.7281 47.4629 21.7216 47.4891 21.7168 47.5162ZM17.7421 51.5462H21.0855L22.2356 58.1253H16.5907L17.7421 51.5462ZM36.9521 50.0971V58.1253H32.4684V54.023C32.4684 53.7744 32.3697 53.5359 32.1938 53.3601C32.018 53.1843 31.7796 53.0855 31.5309 53.0855C31.2823 53.0855 31.0438 53.1843 30.868 53.3601C30.6922 53.5359 30.5934 53.7744 30.5934 54.023V58.1253H24.139L22.9517 51.3376L23.4242 48.6365L26.1078 50.5422C26.2481 50.6418 26.4131 50.7009 26.5847 50.713C26.7563 50.7251 26.9279 50.6898 27.0807 50.6109C27.2336 50.5319 27.3618 50.4125 27.4513 50.2656C27.5408 50.1186 27.5881 49.9499 27.5882 49.7779V43.658L33.8108 45.7322C34.7314 46.0297 35.5328 46.6137 36.0979 47.399C36.6629 48.1843 36.9621 49.1297 36.9515 50.0971H36.9521ZM25.7139 43.033V47.9622L21.0333 44.6383L24.0669 42.4839L25.7139 43.033ZM28.2404 32.1462C28.4281 31.0619 28.4159 29.9524 28.2047 28.8725C28.5453 28.9876 28.8418 29.2057 29.0531 29.4967C29.2643 29.7877 29.3799 30.1371 29.3838 30.4967C29.3877 30.8562 29.2798 31.2081 29.075 31.5037C28.8701 31.7992 28.5785 32.0237 28.2404 32.1462ZM9.29389 22.6679C9.97427 20.7158 11.2091 19.0044 12.8473 17.7435C14.4854 16.4825 16.4558 15.7266 18.517 15.5683C20.5782 15.4101 22.6408 15.8563 24.4522 16.8524C26.2637 17.8486 27.7453 19.3513 28.7157 21.1767C29.4774 22.6103 29.3915 23.1633 29.137 24.8046C29.1074 24.9956 29.0761 25.1975 29.0443 25.4129C28.9803 25.8475 28.8582 26.504 28.7444 27.0752C28.3898 26.9617 28.0196 26.904 27.6472 26.9042H27.6138C26.5539 23.4064 25.3566 21.5956 23.8575 21.2164C23.2002 21.0499 22.176 21.0945 21.032 22.2515C20.9778 22.3061 20.9306 22.3671 20.8914 22.4333C19.1769 25.3303 16.115 26.7139 11.7928 26.5465C11.645 26.5408 11.498 26.5702 11.3638 26.6323C11.2296 26.6944 11.112 26.7874 11.0207 26.9037C10.6129 26.9038 10.2082 26.9731 9.8237 27.1089C9.25487 25.5751 9.07651 24.0842 9.29389 22.6679ZM9.28569 30.5158C9.28626 30.1657 9.39252 29.824 9.59056 29.5354C9.7886 29.2467 10.0692 29.0246 10.3956 28.898C10.2099 29.9706 10.2145 31.0675 10.409 32.1385C10.0794 32.0139 9.79535 31.7919 9.59471 31.5021C9.39408 31.2123 9.28631 30.8684 9.28569 30.5159V30.5158ZM12.423 28.4357H12.4976C17.1071 28.4357 20.4498 26.7756 22.4414 23.4947C22.7226 23.2252 23.0934 22.9564 23.3978 23.0341C23.6848 23.1066 24.7142 23.661 25.9087 27.7468C25.9186 27.7804 25.9303 27.8134 25.9439 27.8457C26.5542 29.3039 26.6654 30.9229 26.26 32.4508C25.8547 33.9787 24.9555 35.3297 23.7026 36.2935C22.4497 37.2574 20.9133 37.7799 19.3325 37.7799C17.7517 37.7798 16.2154 37.2572 14.9625 36.2933C13.8021 35.3876 12.9399 34.1548 12.4872 32.7541C12.0345 31.3534 12.0122 29.8492 12.423 28.4357ZM19.3324 39.6523C20.618 39.6522 21.8888 39.3781 23.0601 38.8484V40.8987L19.4133 43.4886L15.7663 40.8987V38.9218C16.8932 39.4043 18.1065 39.6528 19.3324 39.6523ZM14.7605 42.4839L17.7941 44.6383L13.1132 47.9622V43.033L14.7605 42.4839ZM1.87487 50.0971C1.86436 49.1298 2.16348 48.1844 2.72852 47.3991C3.29356 46.6138 4.09491 46.0298 5.01549 45.7324L11.2382 43.6581V49.778C11.2382 49.9501 11.2855 50.1188 11.375 50.2657C11.4645 50.4126 11.5927 50.5321 11.7456 50.611C11.8984 50.6899 12.07 50.7252 12.2416 50.7131C12.4132 50.701 12.5782 50.6419 12.7185 50.5423L15.4021 48.6367L15.8744 51.3377L14.6873 58.1253H8.23288V54.023C8.23288 53.7744 8.13411 53.5359 7.95829 53.3601C7.78247 53.1843 7.54402 53.0855 7.29538 53.0855C7.04674 53.0855 6.80828 53.1843 6.63246 53.3601C6.45665 53.5359 6.35788 53.7744 6.35788 54.023V58.1253H1.87487V50.0971ZM59.9999 20.7589C59.9999 21.0075 59.9011 21.246 59.7253 21.4218C59.5495 21.5976 59.311 21.6964 59.0624 21.6964H34.3727C34.1241 21.6964 33.8856 21.5976 33.7098 21.4218C33.534 21.246 33.4352 21.0075 33.4352 20.7589C33.4352 20.5102 33.534 20.2718 33.7098 20.096C33.8856 19.9202 34.1241 19.8214 34.3727 19.8214H37.9309V13.9854C37.9309 13.7368 38.0297 13.4984 38.2055 13.3225C38.3813 13.1467 38.6197 13.0479 38.8684 13.0479C39.117 13.0479 39.3555 13.1467 39.5313 13.3225C39.7071 13.4984 39.8059 13.7368 39.8059 13.9854V19.8214H43.1637V9.22459C43.1637 8.97595 43.2624 8.73749 43.4382 8.56168C43.6141 8.38586 43.8525 8.28709 44.1012 8.28709C44.3498 8.28709 44.5883 8.38586 44.7641 8.56168C44.9399 8.73749 45.0387 8.97595 45.0387 9.22459V19.8214H48.3964V11.3477C48.3964 11.099 48.4952 10.8606 48.671 10.6848C48.8468 10.5089 49.0853 10.4102 49.3339 10.4102C49.5826 10.4102 49.821 10.5089 49.9968 10.6848C50.1727 10.8606 50.2714 11.099 50.2714 11.3477V19.8214H53.6293V6.52236C53.6293 6.27372 53.7281 6.03527 53.9039 5.85945C54.0797 5.68364 54.3182 5.58486 54.5668 5.58486C54.8155 5.58486 55.0539 5.68364 55.2297 5.85945C55.4056 6.03527 55.5043 6.27372 55.5043 6.52236V19.8214H59.0624C59.311 19.8214 59.5495 19.9202 59.7253 20.096C59.9011 20.2718 59.9999 20.5102 59.9999 20.7589ZM53.9312 0.248614C54.1144 0.082623 54.3558 -0.00428587 54.6027 0.00680407C54.8497 0.017894 55.0823 0.126085 55.2499 0.307828C55.4175 0.489571 55.5065 0.730154 55.4976 0.977211C55.4886 1.22427 55.3825 1.4578 55.2022 1.62697L49.9694 6.45229C49.8387 6.5728 49.6765 6.65367 49.5016 6.68545C49.3266 6.71724 49.1463 6.69864 48.9815 6.63182L44.2956 4.73057L39.4993 9.09404C39.3152 9.25989 39.0729 9.34608 38.8254 9.33378C38.5779 9.32148 38.3453 9.21167 38.1785 9.02838C38.0117 8.84509 37.9243 8.60322 37.9353 8.35565C37.9464 8.10808 38.055 7.87496 38.2374 7.70725L43.4702 2.94627C43.6009 2.82724 43.7626 2.74757 43.9366 2.71647C44.1106 2.68537 44.2898 2.7041 44.4537 2.77049L49.1355 4.66998L53.9312 0.248614ZM34.169 29.5667C33.9609 29.613 33.7747 29.7289 33.6413 29.8953C33.5078 30.0617 33.4351 30.2685 33.4351 30.4818V32.8479C33.4351 33.0612 33.5078 33.2681 33.6413 33.4345C33.7747 33.6009 33.9609 33.7168 34.169 33.7631L34.888 33.923C35.0067 34.2891 35.1543 34.6451 35.3294 34.9878L34.9339 35.6095C34.8194 35.7894 34.7697 36.0031 34.793 36.2151C34.8163 36.4271 34.9112 36.6249 35.062 36.7757L36.7351 38.4485C36.8859 38.5992 37.0836 38.6941 37.2956 38.7174C37.5076 38.7407 37.7212 38.691 37.9011 38.5765L38.5228 38.1812C38.8655 38.3563 39.2216 38.504 39.5877 38.6226L39.7475 39.3414C39.7938 39.5496 39.9097 39.7358 40.0761 39.8692C40.2425 40.0026 40.4494 40.0754 40.6626 40.0754H43.0284C43.2417 40.0754 43.4486 40.0026 43.615 39.8692C43.7813 39.7358 43.8972 39.5496 43.9435 39.3414L44.1034 38.6226C44.4696 38.504 44.8257 38.3564 45.1684 38.1812L45.7895 38.5765C45.9694 38.691 46.183 38.7407 46.395 38.7174C46.607 38.6941 46.8047 38.5992 46.9555 38.4485L48.6286 36.7757C48.7794 36.6249 48.8743 36.4271 48.8976 36.2151C48.9209 36.0031 48.8712 35.7894 48.7567 35.6095L48.3612 34.9878C48.5363 34.6451 48.684 34.2891 48.8027 33.923L49.5215 33.7631C49.7297 33.7168 49.9159 33.6009 50.0493 33.4345C50.1828 33.2681 50.2555 33.0612 50.2555 32.8479V30.4816C50.2555 30.2683 50.1828 30.0614 50.0493 29.895C49.9159 29.7287 49.7297 29.6128 49.5215 29.5665L48.8026 29.4066C48.6839 29.0405 48.5363 28.6845 48.3612 28.3419L48.7567 27.7201C48.8711 27.5401 48.9208 27.3265 48.8975 27.1145C48.8742 26.9025 48.7793 26.7047 48.6285 26.5539L46.9556 24.8811C46.8048 24.7303 46.607 24.6354 46.395 24.6122C46.183 24.5889 45.9694 24.6386 45.7895 24.7531L45.1684 25.1485C44.8256 24.9733 44.4695 24.8257 44.1034 24.7069L43.9435 23.9881C43.8972 23.7799 43.7813 23.5938 43.6149 23.4604C43.4486 23.327 43.2417 23.2543 43.0284 23.2543H40.6626C40.4494 23.2543 40.2425 23.327 40.0761 23.4604C39.9098 23.5938 39.7939 23.7799 39.7475 23.9881L39.5877 24.7069C39.2216 24.8256 38.8655 24.9733 38.5228 25.1485L37.9011 24.7531C37.7212 24.6386 37.5076 24.5889 37.2956 24.6122C37.0836 24.6354 36.8858 24.7303 36.735 24.8811L35.0624 26.5539C34.9115 26.7047 34.8166 26.9025 34.7933 27.1145C34.77 27.3265 34.8197 27.5401 34.9342 27.7201L35.3297 28.3419C35.1545 28.6845 35.0068 29.0406 34.8881 29.4067L34.169 29.5667ZM35.3101 31.2337L35.8425 31.1154C36.0146 31.0771 36.1724 30.9911 36.2978 30.8672C36.4232 30.7432 36.5111 30.5864 36.5515 30.4148C36.6854 29.846 36.9107 29.3027 37.2187 28.8062C37.3116 28.6562 37.3603 28.4832 37.3592 28.3068C37.3582 28.1305 37.3074 27.958 37.2128 27.8092L36.9198 27.3483L37.5292 26.739L37.9901 27.0319C38.1388 27.1264 38.3111 27.1771 38.4873 27.1782C38.6634 27.1792 38.8363 27.1306 38.9862 27.0379C39.4828 26.7299 40.0261 26.5046 40.595 26.3708C40.7667 26.3304 40.9234 26.2425 41.0474 26.1172C41.1713 25.9918 41.2574 25.834 41.2957 25.6619L41.4139 25.1295H42.276L42.3943 25.6619C42.4326 25.834 42.5187 25.9918 42.6426 26.1172C42.7666 26.2426 42.9233 26.3305 43.095 26.3709C43.6639 26.5046 44.2073 26.7299 44.7039 27.038C44.8537 27.1307 45.0266 27.1793 45.2028 27.1782C45.379 27.1771 45.5513 27.1264 45.6999 27.0319L46.1608 26.739L46.7702 27.3483L46.4773 27.8092C46.3826 27.958 46.3318 28.1305 46.3308 28.3068C46.3297 28.4832 46.3784 28.6562 46.4713 28.8062C46.7793 29.3028 47.0047 29.8461 47.1385 30.415C47.1789 30.5866 47.2668 30.7434 47.3923 30.8672C47.5177 30.9911 47.6754 31.0772 47.8475 31.1154L48.3799 31.2337V32.0958L47.8475 32.2142C47.6754 32.2525 47.5176 32.3385 47.3922 32.4625C47.2668 32.5864 47.1789 32.7431 47.1385 32.9147C47.0047 33.4836 46.7793 34.0269 46.4713 34.5235C46.3784 34.6734 46.3297 34.8465 46.3308 35.0228C46.3318 35.1992 46.3826 35.3716 46.4773 35.5204L46.7702 35.9812L46.1608 36.5906L45.6999 36.2976C45.5512 36.2031 45.3789 36.1525 45.2027 36.1514C45.0266 36.1504 44.8537 36.199 44.7039 36.2917C44.2072 36.5997 43.6638 36.825 43.095 36.9588C42.9234 36.9991 42.7666 37.087 42.6427 37.2125C42.5188 37.3379 42.4327 37.4957 42.3944 37.6678L42.2761 38.2001H41.414L41.2958 37.6678C41.2575 37.4956 41.1714 37.3378 41.0475 37.2123C40.9235 37.0869 40.7667 36.999 40.595 36.9587C40.0262 36.8249 39.4829 36.5996 38.9863 36.2916C38.8365 36.1989 38.6635 36.1503 38.4874 36.1514C38.3112 36.1524 38.1389 36.2031 37.9902 36.2976L37.5293 36.5906L36.9199 35.9812L37.2129 35.5204C37.3075 35.3716 37.3583 35.1992 37.3594 35.0228C37.3604 34.8465 37.3117 34.6734 37.2189 34.5235C36.9108 34.0268 36.6854 33.4834 36.5516 32.9145C36.5112 32.7429 36.4233 32.5862 36.2979 32.4624C36.1725 32.3385 36.0147 32.2525 35.8426 32.2142L35.3102 32.0958L35.3101 31.2337ZM41.8455 35.637C42.6313 35.637 43.3993 35.404 44.0526 34.9675C44.7059 34.531 45.2151 33.9105 45.5158 33.1846C45.8165 32.4587 45.8951 31.6599 45.7419 30.8893C45.5886 30.1187 45.2102 29.4108 44.6546 28.8553C44.099 28.2997 43.3912 27.9213 42.6206 27.768C41.8499 27.6147 41.0512 27.6934 40.3253 27.9941C39.5994 28.2948 38.9789 28.804 38.5424 29.4573C38.1059 30.1106 37.8729 30.8786 37.8729 31.6644C37.874 32.7176 38.2929 33.7274 39.0377 34.4722C39.7825 35.2169 40.7923 35.6359 41.8455 35.637ZM41.8455 29.5667C42.2604 29.5667 42.666 29.6897 43.0109 29.9202C43.3559 30.1507 43.6247 30.4783 43.7835 30.8616C43.9423 31.2449 43.9838 31.6667 43.9029 32.0736C43.8219 32.4805 43.6222 32.8543 43.3288 33.1476C43.0354 33.441 42.6617 33.6408 42.2548 33.7217C41.8479 33.8026 41.4261 33.7611 41.0428 33.6023C40.6595 33.4436 40.3319 33.1747 40.1014 32.8298C39.8709 32.4848 39.7479 32.0792 39.7479 31.6644C39.7485 31.1082 39.9697 30.575 40.3629 30.1817C40.7562 29.7885 41.2894 29.5673 41.8455 29.5667Z" fill="#0181F5"/>
</g>
<defs>
<clipPath id="clip0_1312_9461">
<rect width="60" height="60" fill="white"/>
</clipPath>
</defs>
</svg>
