<svg width="50" height="51" viewBox="0 0 50 51" fill="none" xmlns="http://www.w3.org/2000/svg">
<path d="M37.5399 5.00445C40.473 5.00767 43.285 6.17424 45.359 8.24823C47.433 10.3222 48.5996 13.1342 48.6028 16.0673C48.6028 16.0855 48.6028 16.1044 48.6028 16.1227C48.6028 16.1592 48.6075 16.2139 48.6116 16.2862C48.8386 20.3038 48.1818 31.1511 37.2068 45.0504C37.108 45.1752 36.9682 45.2611 36.8122 45.293C36.6562 45.3248 36.494 45.3006 36.3541 45.2245C36.2143 45.1483 36.1058 45.0253 36.0478 44.877C35.9898 44.7287 35.9861 44.5647 36.0372 44.4139C36.0683 44.322 39.0676 35.3376 37.0183 27.1166C34.1319 26.9812 31.413 25.7217 29.4431 23.6076C27.4732 21.4935 26.4087 18.6925 26.4772 15.8037C26.5457 12.9149 27.7417 10.1675 29.8096 8.14914C31.8775 6.13076 34.653 5.00159 37.5426 5.0031L37.5399 5.00445ZM47.2514 16.0288C47.2439 14.1096 46.668 12.2358 45.5964 10.6437C44.5247 9.05165 43.0054 7.81279 41.2302 7.08355C39.455 6.35431 37.5036 6.16738 35.6222 6.54636C33.7409 6.92535 32.014 7.85324 30.6596 9.21291C29.3052 10.5726 28.384 12.3031 28.0124 14.1859C27.6407 16.0687 27.8352 18.0194 28.5714 19.7917C29.3075 21.5641 30.5523 23.0786 32.1485 24.144C33.7447 25.2095 35.6208 25.7781 37.5399 25.7781C37.6879 25.7781 37.8318 25.8267 37.9494 25.9165C38.0671 26.0062 38.1521 26.132 38.1913 26.2747C39.7453 31.9301 38.9832 37.8626 38.2109 41.4626C46.9163 29.268 47.4629 19.9599 47.2595 16.3619C47.2504 16.2511 47.2476 16.1399 47.2514 16.0288Z" fill="white"/>
<path d="M12.4142 5.00445C15.3473 5.00767 18.1593 6.17424 20.2333 8.24823C22.3072 10.3222 23.4738 13.1342 23.477 16.0673C23.477 16.0855 23.477 16.1044 23.477 16.1227C23.477 16.1592 23.4818 16.2139 23.4858 16.2862C23.7129 20.3038 23.0561 31.1511 12.0811 45.0504C11.9823 45.1752 11.8425 45.2611 11.6865 45.293C11.5305 45.3248 11.3682 45.3006 11.2284 45.2245C11.0885 45.1483 10.98 45.0253 10.9221 44.877C10.8641 44.7287 10.8603 44.5647 10.9115 44.4139C10.9426 44.322 13.9419 35.3376 11.8926 27.1166C9.00613 26.9812 6.28724 25.7217 4.31734 23.6076C2.34745 21.4935 1.28293 18.6925 1.35142 15.8037C1.41992 12.9149 2.616 10.1675 4.68387 8.14914C6.75175 6.13076 9.52727 5.00159 12.4169 5.0031L12.4142 5.00445ZM22.1257 16.0288C22.1182 14.1096 21.5423 12.2358 20.4706 10.6437C19.399 9.05165 17.8797 7.81279 16.1045 7.08355C14.3293 6.35431 12.3778 6.16738 10.4965 6.54636C8.61515 6.92535 6.88828 7.85324 5.53388 9.21291C4.17949 10.5726 3.25831 12.3031 2.88665 14.1859C2.51498 16.0687 2.7095 18.0194 3.44563 19.7917C4.18177 21.5641 5.42653 23.0786 7.02274 24.144C8.61896 25.2095 10.4951 25.7781 12.4142 25.7781C12.5622 25.7781 12.706 25.8267 12.8237 25.9165C12.9414 26.0062 13.0263 26.132 13.0656 26.2747C14.6196 31.9301 13.8574 37.8626 13.0851 41.4626C21.7906 29.268 22.3379 19.9599 22.1345 16.3619C22.1251 16.2511 22.1221 16.1399 22.1257 16.0288Z" fill="white"/>
</svg>
