<svg width="50" height="50" viewBox="0 0 50 50" fill="none" xmlns="http://www.w3.org/2000/svg">
<g clip-path="url(#clip0_1286_945)">
<path d="M7.46574 23.7192C7.43158 23.7933 7.39658 23.8633 7.36241 23.9392C6.68968 25.4493 5.58865 26.7288 4.19574 27.6192L1.89324 29.0833C1.30804 29.4566 0.923635 30.0751 0.847996 30.7651C0.772356 31.4551 1.01364 32.1421 1.50408 32.6333L11.5432 42.6733C11.9721 43.1012 12.5533 43.341 13.1591 43.34C13.245 43.3424 13.3309 43.3402 13.4166 43.3333C14.1074 43.259 14.7264 42.8733 15.0974 42.2858C16.1617 40.6524 17.7452 39.425 19.5924 38.8017C20.2898 38.5535 20.9575 38.2287 21.5832 37.8333L23.6141 39.8633C24.4833 40.7361 25.8605 40.8406 26.8516 40.1092L36.4941 49.7558C36.8211 50.0717 37.3408 50.0671 37.6623 49.7457C37.9837 49.4242 37.9882 48.9045 37.6724 48.5775L28.0532 38.9583L31.4582 35.5533L39.2024 43.2975C39.5294 43.6133 40.0491 43.6088 40.3706 43.2874C40.692 42.9659 40.6966 42.4462 40.3807 42.1192L32.6366 34.375L35.6249 31.3867L38.7857 34.5475C39.1127 34.8633 39.6325 34.8588 39.9539 34.5374C40.2754 34.2159 40.2799 33.6962 39.9641 33.3692L36.8032 30.2083L39.7916 27.22L46.2857 33.7142C46.6127 34.03 47.1325 34.0255 47.4539 33.704C47.7754 33.3826 47.7799 32.8628 47.4641 32.5358L40.9432 26.015C41.6747 25.024 41.5701 23.6467 40.6974 22.7775L35.7657 17.8458C35.8141 17.6404 35.8396 17.4302 35.8416 17.2192C35.8442 16.4724 35.5477 15.7557 35.0182 15.2292C34.7352 14.9502 34.3936 14.7379 34.0182 14.6075L35.0182 13.6075C36.116 12.5079 36.116 10.7271 35.0182 9.6275C33.9053 8.56251 32.1512 8.56251 31.0382 9.6275L30.5157 10.15C30.2352 9.39589 29.6423 8.79994 28.8896 8.51561C28.137 8.23128 27.2981 8.28636 26.5891 8.66667L18.6599 0.739169C17.672 -0.213838 16.107 -0.213838 15.1191 0.739169L1.57241 14.2817C1.09885 14.7491 0.832275 15.3867 0.832275 16.0521C0.832275 16.7175 1.09885 17.3551 1.57241 17.8225L7.46574 23.7192ZM39.7624 24.5458C39.7628 24.767 39.6753 24.9793 39.5191 25.1358L25.9691 38.6858C25.6384 38.9999 25.1197 38.9999 24.7891 38.6858L22.9466 36.8433C23.1807 36.6442 23.3274 36.5033 23.3449 36.4858L30.3449 29.4817C30.8973 28.9285 31.1949 28.1707 31.1665 27.3894C31.138 26.6082 30.7861 25.874 30.1949 25.3625C29.9454 25.1489 29.6586 24.9831 29.3491 24.8733L34.8907 19.3325L39.5149 23.9567C39.673 24.112 39.7621 24.3242 39.7624 24.5458ZM28.7041 10.3375C29.1503 10.7866 29.1503 11.5117 28.7041 11.9608L22.1666 18.5C21.9499 18.7092 21.8631 19.0191 21.9393 19.3104C22.0156 19.6018 22.2431 19.8293 22.5345 19.9056C22.8258 19.9818 23.1357 19.895 23.3449 19.6783L29.8816 13.1417L32.2149 10.8083C32.6687 10.3736 33.3844 10.3736 33.8382 10.8083C34.2849 11.2573 34.2849 11.9827 33.8382 12.4317L24.9682 21.2992C24.7516 21.5084 24.6647 21.8182 24.741 22.1096C24.8173 22.4009 25.0448 22.6285 25.3362 22.7048C25.6275 22.781 25.9373 22.6941 26.1466 22.4775L32.2166 16.4075C32.6702 15.9724 33.3863 15.9724 33.8399 16.4075C34.2866 16.8564 34.2866 17.5819 33.8399 18.0308L26.8399 25.035C26.7839 25.0965 26.7375 25.1662 26.7024 25.2417C26.5567 25.3427 26.4201 25.4562 26.2941 25.5808L22.6332 29.2367C22.3074 29.5621 22.307 30.09 22.6324 30.4158C22.9578 30.7417 23.4857 30.7421 23.8116 30.4167L27.4682 26.76C27.8998 26.3024 28.6066 26.2432 29.1082 26.6225C29.3494 26.8313 29.4931 27.1309 29.5049 27.4498C29.5168 27.7686 29.3958 28.078 29.1707 28.3042L22.1707 35.3042C21.2667 36.1439 20.2047 36.7954 19.0466 37.2208C16.8432 37.9678 14.9561 39.4357 13.6899 41.3875C13.5883 41.5467 13.4201 41.6512 13.2324 41.6718C13.0446 41.6924 12.8577 41.6267 12.7241 41.4933L2.68241 31.455C2.54868 31.3214 2.48285 31.1342 2.50342 30.9463C2.524 30.7583 2.62877 30.5899 2.78824 30.4883L5.08824 29.025C6.75669 27.9604 8.07616 26.4297 8.88324 24.6225C9.54761 22.9797 10.4909 21.464 11.6716 20.1425L20.9316 10.8833C21.3624 10.4252 22.0696 10.3658 22.5707 10.7458C22.8119 10.9547 22.9556 11.2543 22.9674 11.5731C22.9793 11.8919 22.8583 12.2013 22.6332 12.4275L19.3649 15.6958C19.1483 15.9051 19.0614 16.2149 19.1377 16.5063C19.2139 16.7976 19.4415 17.0252 19.7328 17.1014C20.0242 17.1777 20.334 17.0908 20.5432 16.8742L23.8116 13.6058L27.0832 10.3375C27.5367 9.90438 28.2506 9.90438 28.7041 10.3375ZM2.74991 15.4642L16.3016 1.91C16.6291 1.59066 17.1521 1.59251 17.4774 1.91417L25.3107 9.7475L24.4374 10.62C24.2767 10.1826 24.0095 9.79224 23.6599 9.48417C22.4997 8.52581 20.7974 8.62126 19.7516 9.70334L10.4932 18.9642C9.59946 19.9136 8.84423 20.9844 8.24991 22.145L2.74408 16.645C2.58491 16.4894 2.49566 16.2759 2.49676 16.0534C2.49786 15.8308 2.58921 15.6182 2.74991 15.4642Z" fill="#0181F5"/>
<path d="M46.4942 41.8393L47.7442 43.0893C48.0712 43.4051 48.5909 43.4006 48.9124 43.0791C49.2338 42.7577 49.2383 42.2379 48.9225 41.9109L47.6725 40.6609C47.3455 40.3451 46.8258 40.3496 46.5043 40.6711C46.1829 40.9925 46.1784 41.5123 46.4942 41.8393Z" fill="#0181F5"/>
<path d="M43.9942 39.3393C44.3212 39.6551 44.8409 39.6506 45.1624 39.3291C45.4838 39.0077 45.4883 38.4879 45.1725 38.1609L43.9225 36.9109C43.5955 36.5951 43.0758 36.5996 42.7543 36.9211C42.4329 37.2425 42.4284 37.7623 42.7442 38.0893L43.9942 39.3393Z" fill="#0181F5"/>
<path d="M42.744 43.0893C43.0694 43.4146 43.5969 43.4146 43.9223 43.0893L45.1723 41.8393C45.4881 41.5123 45.4836 40.9925 45.1622 40.6711C44.8407 40.3496 44.321 40.3451 43.994 40.6609L42.744 41.9109C42.4187 42.2363 42.4187 42.7638 42.744 43.0893Z" fill="#0181F5"/>
<path d="M46.494 39.3393C46.8194 39.6646 47.3469 39.6646 47.6723 39.3393L48.9223 38.0893C49.2381 37.7623 49.2336 37.2425 48.9122 36.9211C48.5907 36.5996 48.071 36.5951 47.744 36.9109L46.494 38.1609C46.1687 38.4863 46.1687 39.0138 46.494 39.3393Z" fill="#0181F5"/>
<path d="M43.3333 14.3824C43.7936 14.3824 44.1667 14.0093 44.1667 13.5491V11.8824C44.1667 11.4222 43.7936 11.0491 43.3333 11.0491C42.8731 11.0491 42.5 11.4222 42.5 11.8824V13.5491C42.5 14.0093 42.8731 14.3824 43.3333 14.3824Z" fill="#0181F5"/>
<path d="M44.1667 18.5491V16.8824C44.1667 16.4222 43.7936 16.0491 43.3333 16.0491C42.8731 16.0491 42.5 16.4222 42.5 16.8824V18.5491C42.5 19.0093 42.8731 19.3824 43.3333 19.3824C43.7936 19.3824 44.1667 19.0093 44.1667 18.5491Z" fill="#0181F5"/>
<path d="M44.9998 16.0492H46.6665C47.1267 16.0492 47.4998 15.6761 47.4998 15.2159C47.4998 14.7557 47.1267 14.3826 46.6665 14.3826H44.9998C44.5396 14.3826 44.1665 14.7557 44.1665 15.2159C44.1665 15.6761 44.5396 16.0492 44.9998 16.0492Z" fill="#0181F5"/>
<path d="M39.9998 16.0492H41.6665C42.1267 16.0492 42.4998 15.6761 42.4998 15.2159C42.4998 14.7557 42.1267 14.3826 41.6665 14.3826H39.9998C39.5396 14.3826 39.1665 14.7557 39.1665 15.2159C39.1665 15.6761 39.5396 16.0492 39.9998 16.0492Z" fill="#0181F5"/>
</g>
<defs>
<clipPath id="clip0_1286_945">
<rect width="50" height="50" fill="white"/>
</clipPath>
</defs>
</svg>
