<svg width="50" height="50" viewBox="0 0 50 50" fill="none" xmlns="http://www.w3.org/2000/svg">
<g clip-path="url(#clip0_1210_1127)">
<path d="M49.5033 42.887L47.0184 42.0417C44.3595 41.1371 41.4898 41.2848 38.9376 42.4573C37.798 42.9807 36.5658 43.2721 35.3125 43.3146V39.1989C35.3125 38.7944 34.9847 38.4666 34.5802 38.4666C34.1756 38.4666 33.8478 38.7944 33.8478 39.1989V43.2526C33.2802 43.1837 32.7199 43.0635 32.174 42.8935L28.2489 41.671C26.1233 41.0093 23.8767 41.0093 21.7511 41.671L17.826 42.8935C17.28 43.0634 16.7198 43.1836 16.1522 43.2526V21.5065C16.1522 20.1611 15.4811 18.9694 14.4561 18.2486C19.2567 16.7532 24.3815 16.291 29.3752 16.9133C29.4706 16.9252 29.5675 16.9182 29.6602 16.8927C29.753 16.8671 29.8398 16.8236 29.9157 16.7645C29.9916 16.7054 30.0551 16.632 30.1026 16.5483C30.1501 16.4647 30.1806 16.3725 30.1925 16.2771C30.2044 16.1817 30.1974 16.0848 30.1719 15.9921C30.1463 15.8994 30.1028 15.8126 30.0437 15.7367C29.9846 15.6608 29.9112 15.5973 29.8276 15.5498C29.7439 15.5023 29.6518 15.4717 29.5563 15.4598C23.9451 14.7601 18.1758 15.3767 12.8425 17.2401C12.8404 17.1468 12.8393 17.0535 12.8393 16.9601C12.8393 10.2547 18.2945 4.79948 24.9999 4.79948C31.7054 4.79948 37.1606 10.2547 37.1606 16.9601C37.1606 17.0537 37.1595 17.1472 37.1574 17.2406C35.7122 16.7359 34.2372 16.3213 32.7407 15.9992C32.5508 15.9584 32.3525 15.9947 32.1893 16.1001C32.0262 16.2055 31.9116 16.3714 31.8708 16.5613C31.83 16.7512 31.8663 16.9496 31.9717 17.1127C32.0771 17.2759 32.243 17.3905 32.4329 17.4313C33.4817 17.6567 34.5197 17.9295 35.5439 18.2486C34.5189 18.9694 33.8478 20.1611 33.8478 21.5065V36.0778C33.8478 36.4824 34.1756 36.8102 34.5802 36.8102C34.9847 36.8102 35.3125 36.4824 35.3125 36.0778V29.9098C37.1682 28.429 38.708 26.5418 39.7775 24.4301C40.9568 22.1014 41.5548 19.5882 41.5548 16.96C41.5548 7.83171 34.1284 0.405273 25 0.405273C20.6068 0.405273 16.4685 2.10863 13.3476 5.20169C13.2119 5.33886 13.1357 5.52409 13.1358 5.7171C13.1358 5.91011 13.2121 6.09529 13.3479 6.23239C13.4838 6.36948 13.6683 6.4474 13.8613 6.4492C14.0543 6.45101 14.2402 6.37655 14.3786 6.24202C17.2234 3.42266 20.9955 1.86998 24.9999 1.86998C33.3206 1.86998 40.09 8.63935 40.09 16.96C40.09 21.1934 38.3654 25.1299 35.3124 27.977V25.8553C37.4498 23.3805 38.6253 20.2299 38.6253 16.9601C38.6253 9.44708 32.513 3.33478 24.9999 3.33478C17.4869 3.33478 11.3747 9.44699 11.3747 16.9601C11.3747 20.2331 12.5492 23.3806 14.6876 25.8561V27.9771C11.6346 25.13 9.90998 21.1935 9.90998 16.9601C9.90998 13.9425 10.7978 11.0301 12.4773 8.53789C12.5858 8.37681 12.6259 8.17923 12.5888 7.98859C12.5516 7.79796 12.4403 7.62987 12.2793 7.52129C12.1182 7.41282 11.9206 7.37274 11.73 7.40988C11.5394 7.44701 11.3713 7.55831 11.2627 7.71932C9.4196 10.4542 8.44528 13.6496 8.44528 16.9601C8.44528 19.5883 9.04327 22.1015 10.2226 24.4302C11.2921 26.5418 12.8318 28.429 14.6876 29.9099V43.3147C13.4343 43.2722 12.202 42.9808 11.0625 42.4574C8.51031 41.2849 5.64057 41.1374 2.98174 42.0418L0.496821 42.8871C0.312922 42.9497 0.161401 43.0827 0.0755891 43.257C-0.0102226 43.4312 -0.023295 43.6325 0.0392476 43.8164C0.10179 44.0003 0.234825 44.1518 0.409085 44.2376C0.583345 44.3234 0.784557 44.3365 0.968456 44.2739L3.45347 43.4286C5.75599 42.6451 8.241 42.7731 10.451 43.7885C12.9027 44.9166 15.6854 45.096 18.2616 44.2922L22.1867 43.0697C24.0272 42.4965 25.9728 42.4965 27.8132 43.0697L31.7384 44.2922C32.7908 44.6203 33.8869 44.7873 34.9893 44.7875C36.5634 44.787 38.1188 44.4463 39.5489 43.7885C41.7589 42.7731 44.244 42.6452 46.5466 43.4286L49.0315 44.2739C49.2145 44.333 49.4134 44.3177 49.5852 44.2314C49.757 44.1451 49.888 43.9947 49.95 43.8127C50.0119 43.6306 49.9997 43.4315 49.9162 43.2584C49.8326 43.0852 49.6843 42.9518 49.5033 42.887ZM35.3125 21.5065C35.3125 20.4236 36.0007 19.4992 36.9624 19.1457C36.6861 20.6541 36.1263 22.0964 35.3125 23.3961V21.5065ZM13.0374 19.1444C13.9994 19.498 14.6875 20.4234 14.6875 21.5065V23.3964C13.8732 22.0963 13.3133 20.6534 13.0374 19.1444Z" fill="white"/>
<path d="M20.0599 23.4937C20.0599 23.0892 19.7321 22.7614 19.3276 22.7614C18.923 22.7614 18.5952 23.0892 18.5952 23.4937V24.8236C18.5952 25.2281 18.923 25.5559 19.3276 25.5559C19.7321 25.5559 20.0599 25.2281 20.0599 24.8236V23.4937ZM19.3276 28.5433C19.2314 28.5433 19.1361 28.5622 19.0473 28.599C18.9584 28.6358 18.8777 28.6898 18.8097 28.7578C18.7417 28.8258 18.6877 28.9065 18.6509 28.9954C18.6141 29.0843 18.5952 29.1795 18.5952 29.2757V38.9317C18.5952 39.3362 18.923 39.664 19.3276 39.664C19.7321 39.664 20.0599 39.3362 20.0599 38.9317V29.2757C20.0599 29.0814 19.9827 28.8952 19.8454 28.7578C19.7081 28.6205 19.5218 28.5433 19.3276 28.5433ZM31.4048 23.4937C31.4048 23.0892 31.077 22.7614 30.6725 22.7614C30.2679 22.7614 29.9401 23.0892 29.9401 23.4937V24.8236C29.9401 25.2281 30.2679 25.5559 30.6725 25.5559C31.077 25.5559 31.4048 25.2281 31.4048 24.8236V23.4937ZM30.6725 28.5433C30.5763 28.5433 30.481 28.5622 30.3922 28.599C30.3033 28.6358 30.2226 28.6898 30.1546 28.7578C30.0866 28.8258 30.0326 28.9065 29.9958 28.9954C29.959 29.0843 29.9401 29.1795 29.9401 29.2757V38.9317C29.9401 39.3362 30.2679 39.664 30.6725 39.664C31.077 39.664 31.4048 39.3362 31.4048 38.9317V29.2757C31.4048 28.8711 31.077 28.5433 30.6725 28.5433ZM24.2677 22.7997V34.9998C24.2677 35.4044 24.5955 35.7322 25.0001 35.7322C25.4046 35.7322 25.7324 35.4044 25.7324 34.9998V22.7997C25.7324 22.3952 25.4046 22.0674 25.0001 22.0674C24.5955 22.0674 24.2677 22.3953 24.2677 22.7997ZM34.9893 49.5946C33.8967 49.5946 32.8014 49.4303 31.7384 49.0994L27.8133 47.8769C25.9728 47.3036 24.0272 47.3036 22.1868 47.8769L18.2616 49.0994C15.6854 49.9031 12.9027 49.7237 10.4511 48.5957C8.24102 47.5802 5.7559 47.4526 3.45339 48.2358L0.968568 49.0812C0.785141 49.1419 0.585143 49.1277 0.412137 49.0417C0.23913 48.9557 0.107133 48.8047 0.0448956 48.6218C-0.0173417 48.4389 -0.00477611 48.2388 0.0798552 48.0651C0.164486 47.8914 0.314327 47.7581 0.496738 47.6944L2.98166 46.849C5.64068 45.9444 8.51062 46.0921 11.0625 47.2646C13.1855 48.2416 15.5953 48.397 17.8261 47.7008L21.7512 46.4783C23.8768 45.8166 26.1234 45.8166 28.249 46.4783L32.1741 47.7008C34.4049 48.397 36.8147 48.2416 38.9377 47.2646C41.4896 46.0921 44.3595 45.9445 47.0185 46.849L49.5035 47.6944C49.6859 47.7581 49.8357 47.8914 49.9204 48.0651C50.005 48.2388 50.0175 48.4389 49.9553 48.6218C49.8931 48.8047 49.7611 48.9557 49.5881 49.0417C49.4151 49.1277 49.2151 49.1419 49.0316 49.0812L46.5467 48.2358C44.2443 47.4525 41.7593 47.5802 39.5491 48.5957C38.119 49.2535 36.5635 49.5942 34.9893 49.5946Z" fill="white"/>
</g>
<defs>
<clipPath id="clip0_1210_1127">
<rect width="50" height="50" fill="white"/>
</clipPath>
</defs>
</svg>
