<svg width="50" height="50" viewBox="0 0 50 50" fill="none" xmlns="http://www.w3.org/2000/svg">
<g clip-path="url(#clip0_1285_818)">
<path d="M15.9342 28.5176C14.9579 27.5417 13.3754 27.5417 12.3992 28.5176C11.9898 28.9301 11.7388 29.4736 11.69 30.0526C11.4056 30.0202 11.1196 30.0027 10.8333 30.0001C7.24306 29.9954 4.05446 32.2936 2.92355 35.7011C1.79264 39.1086 2.97437 42.8572 5.855 45.0001H2.5C1.11929 45.0001 0 46.1194 0 47.5001C0 48.8808 1.11929 50.0001 2.5 50.0001H47.5C48.8807 50.0001 50 48.8808 50 47.5001C50 46.1194 48.8807 45.0001 47.5 45.0001H44.3333L46.5433 33.2176C47.7318 32.8659 48.4815 31.6946 48.3032 30.4681C48.1249 29.2416 47.0727 28.3322 45.8333 28.3335C45.8317 26.8139 44.8042 25.487 43.3333 25.1051C43.3333 25.0701 43.3333 25.0351 43.3333 25.0001C43.3314 23.188 42.1584 21.5848 40.4318 21.0346C38.7052 20.4844 36.8209 21.1132 35.7708 22.5901C35.5182 22.5306 35.2595 22.5004 35 22.5001C33.4479 22.5013 32.1013 23.5717 31.75 25.0835C30.2382 25.4348 29.1678 26.7814 29.1667 28.3335C27.9266 28.3306 26.8729 29.2394 26.6937 30.4665C26.5145 31.6935 27.2643 32.8657 28.4533 33.2176L30.6667 45.0001H25C24.9972 42.2398 22.7603 40.0029 20 40.0001H18.9917C19.172 39.1716 19.2134 38.3189 19.1142 37.4768C20.0778 37.3901 20.9039 36.7531 21.2328 35.8433C21.5617 34.9334 21.3338 33.9154 20.6483 33.2326L20.0592 32.6435L48.4342 4.26845C49.0744 3.63873 49.3277 2.71401 49.0977 1.84594C48.8677 0.977868 48.1899 0.299827 47.3218 0.0696568C46.4538 -0.160513 45.529 0.0925521 44.8992 0.73262L16.5242 29.1076L15.9342 28.5176ZM32.5 26.6668C32.9602 26.6668 33.3333 26.2937 33.3333 25.8335C33.333 25.2524 33.6353 24.7132 34.1312 24.4103C34.627 24.1074 35.2449 24.0846 35.7617 24.3501C35.9642 24.454 36.2005 24.4704 36.4155 24.3956C36.6305 24.3209 36.8055 24.1614 36.9 23.9543C37.394 22.8926 38.5587 22.316 39.7024 22.567C40.8462 22.8179 41.6626 23.8291 41.6667 25.0001C41.6653 25.2158 41.6374 25.4305 41.5833 25.6393C41.516 25.9083 41.5869 26.1931 41.7724 26.3992C41.9579 26.6053 42.2338 26.7056 42.5083 26.6668C43.4255 26.6714 44.1667 27.4162 44.1667 28.3335H30.8333C30.8333 27.413 31.5795 26.6668 32.5 26.6668ZM29.1667 30.0001H45.8333C46.2936 30.0001 46.6667 30.3732 46.6667 30.8335C46.6667 31.2937 46.2936 31.6668 45.8333 31.6668H29.1667C28.7064 31.6668 28.3333 31.2937 28.3333 30.8335C28.3333 30.3732 28.7064 30.0001 29.1667 30.0001ZM30.1667 33.3335H44.8333L42.6417 45.0001H32.3583L30.1667 33.3335ZM31.6667 46.6668H47.5C47.9602 46.6668 48.3333 47.0399 48.3333 47.5001C48.3333 47.9604 47.9602 48.3335 47.5 48.3335H2.5C2.03976 48.3335 1.66667 47.9604 1.66667 47.5001C1.66667 47.0399 2.03976 46.6668 2.5 46.6668H31.6667ZM15.8333 40.0001C15.3731 40.0001 15 40.3732 15 40.8335C15 41.2937 15.3731 41.6668 15.8333 41.6668H20C21.8409 41.6668 23.3333 43.1592 23.3333 45.0001H10.8333C7.15143 45.0001 4.16667 42.0154 4.16667 38.3335C4.16667 34.6516 7.15143 31.6668 10.8333 31.6668C11.296 31.6714 11.757 31.7231 12.2092 31.821C12.2676 31.9024 12.331 31.98 12.3992 32.0535L17.1125 36.7676C17.1864 36.8358 17.2643 36.8995 17.3458 36.9585C17.444 37.4103 17.4956 37.8711 17.5 38.3335C17.5007 38.8958 17.4293 39.4559 17.2875 40.0001H15.8333ZM19.47 35.5893C19.3137 35.7458 19.1016 35.8337 18.8804 35.8337C18.6592 35.8337 18.4471 35.7458 18.2908 35.5893L13.5775 30.8751C13.2617 30.5481 13.2662 30.0284 13.5877 29.7069C13.9091 29.3855 14.4289 29.381 14.7558 29.6968L15.9333 30.8743L16.6408 31.5818L19.4692 34.4101C19.7945 34.7355 19.7945 35.263 19.4692 35.5885L19.47 35.5893ZM46.0775 1.91095C46.2867 1.69432 46.5966 1.60744 46.8879 1.68371C47.1793 1.75997 47.4068 1.98751 47.4831 2.27886C47.5593 2.57022 47.4725 2.88006 47.2558 3.08929L18.8808 31.4643L18.5533 31.1376L17.7025 30.286L46.0775 1.91095Z" fill="#0181F5"/>
<path d="M35 35H33.3333C32.8731 35 32.5 35.3731 32.5 35.8333C32.5 36.2936 32.8731 36.6667 33.3333 36.6667H35C35.4602 36.6667 35.8333 36.2936 35.8333 35.8333C35.8333 35.3731 35.4602 35 35 35Z" fill="#0181F5"/>
<path d="M40.8333 35H38.3333C37.8731 35 37.5 35.3731 37.5 35.8333C37.5 36.2936 37.8731 36.6667 38.3333 36.6667H40.8333C41.2936 36.6667 41.6667 36.2936 41.6667 35.8333C41.6667 35.3731 41.2936 35 40.8333 35Z" fill="#0181F5"/>
<path d="M46.6665 23.3335C48.0472 23.3335 49.1665 22.2142 49.1665 20.8335C49.1665 19.4528 48.0472 18.3335 46.6665 18.3335C45.2858 18.3335 44.1665 19.4528 44.1665 20.8335C44.1665 22.2142 45.2858 23.3335 46.6665 23.3335ZM46.6665 20.0002C47.1267 20.0002 47.4998 20.3733 47.4998 20.8335C47.4998 21.2937 47.1267 21.6668 46.6665 21.6668C46.2063 21.6668 45.8332 21.2937 45.8332 20.8335C45.8332 20.3733 46.2063 20.0002 46.6665 20.0002Z" fill="#0181F5"/>
<path d="M42.5 13.3335C41.1193 13.3335 40 14.4528 40 15.8335C40 17.2142 41.1193 18.3335 42.5 18.3335C43.8807 18.3335 45 17.2142 45 15.8335C45 14.4528 43.8807 13.3335 42.5 13.3335ZM42.5 16.6668C42.0398 16.6668 41.6667 16.2937 41.6667 15.8335C41.6667 15.3733 42.0398 15.0002 42.5 15.0002C42.9602 15.0002 43.3333 15.3733 43.3333 15.8335C43.3333 16.2937 42.9602 16.6668 42.5 16.6668Z" fill="#0181F5"/>
<path d="M22.4925 7.52059e-08C22.0416 -0.000189592 21.6723 0.358394 21.6592 0.809167V0.826667V0.833334C21.6592 1.14 21.5834 8.33333 14.9842 8.33333C14.524 8.33333 14.1509 8.70643 14.1509 9.16667C14.1509 9.62691 14.524 10 14.9842 10C21.5575 10 21.6584 17.195 21.6592 17.5C21.653 17.9602 22.0211 18.3384 22.4813 18.3446C22.9415 18.3508 23.3197 17.9827 23.3259 17.5225V17.505V17.5C23.3259 17.1933 23.4017 10 30 10C30.4603 10 30.8334 9.62691 30.8334 9.16667C30.8334 8.70643 30.4603 8.33333 30 8.33333C23.4417 8.33333 23.3275 1.16667 23.3259 0.833334C23.3259 0.373096 22.9528 7.52059e-08 22.4925 7.52059e-08ZM26.2017 9.16667C24.4953 10.0669 23.1763 11.5592 22.4925 13.3633C21.8088 11.5592 20.4898 10.0669 18.7834 9.16667C20.4898 8.26649 21.8088 6.77413 22.4925 4.97C23.1763 6.77413 24.4953 8.26649 26.2017 9.16667Z" fill="#0181F5"/>
<path d="M5 25.0042V25.0092C5.00253 25.4695 5.37768 25.8405 5.83792 25.838C6.29815 25.8354 6.6692 25.4603 6.66667 25.0001C6.66667 24.7959 6.73667 20.0001 10.8333 20.0001C11.2936 20.0001 11.6667 19.627 11.6667 19.1667C11.6667 18.7065 11.2936 18.3334 10.8333 18.3334C6.73667 18.3334 6.66667 13.5359 6.66667 13.3334V13.3284C6.66529 12.8682 6.29107 12.4962 5.83083 12.4976C5.3706 12.4989 4.99862 12.8732 5 13.3334C5 13.5376 4.93 18.3334 0.833333 18.3334C0.373096 18.3334 0 18.7065 0 19.1667C0 19.627 0.373096 20.0001 0.833333 20.0001C4.93 20.0001 5 24.7976 5 25.0001V25.0042ZM3.88 19.1667C4.72398 18.6041 5.39916 17.8226 5.83333 16.9059C6.26751 17.8226 6.94268 18.6041 7.78667 19.1667C6.94285 19.7296 6.26772 20.511 5.83333 21.4276C5.39895 20.511 4.72382 19.7296 3.88 19.1667Z" fill="#0181F5"/>
<path d="M8.99417 6.83925L10.2442 8.08926C10.5712 8.40507 11.0909 8.40055 11.4124 8.0791C11.7338 7.75766 11.7383 7.2379 11.4225 6.91092L10.1725 5.66092C9.96328 5.44429 9.65344 5.35741 9.36208 5.43367C9.07073 5.50994 8.84319 5.73747 8.76693 6.02883C8.69066 6.32019 8.77754 6.63003 8.99417 6.83925Z" fill="#0181F5"/>
<path d="M6.49418 4.33926C6.82116 4.65507 7.34092 4.65056 7.66236 4.32911C7.98381 4.00767 7.98832 3.48791 7.67251 3.16093L6.42251 1.91093C6.09553 1.59512 5.57578 1.59964 5.25433 1.92108C4.93289 2.24252 4.92837 2.76228 5.24418 3.08926L6.49418 4.33926Z" fill="#0181F5"/>
<path d="M5.24399 8.08926C5.56941 8.41458 6.09691 8.41458 6.42232 8.08926L7.67232 6.83926C7.98813 6.51228 7.98362 5.99252 7.66217 5.67108C7.34073 5.34963 6.82097 5.34512 6.49399 5.66093L5.24399 6.91093C4.91867 7.23635 4.91867 7.76385 5.24399 8.08926Z" fill="#0181F5"/>
<path d="M9.58318 4.58342C9.80418 4.58338 10.0161 4.49555 10.1723 4.33926L11.4223 3.08926C11.639 2.88003 11.7259 2.57019 11.6496 2.27883C11.5733 1.98747 11.3458 1.75994 11.0544 1.68367C10.7631 1.60741 10.4532 1.69429 10.244 1.91092L8.99401 3.16092C8.75576 3.39925 8.68449 3.75762 8.81345 4.06897C8.9424 4.38032 9.24618 4.58335 9.58318 4.58342Z" fill="#0181F5"/>
</g>
<defs>
<clipPath id="clip0_1285_818">
<rect width="50" height="50" fill="white"/>
</clipPath>
</defs>
</svg>
