<svg width="50" height="51" viewBox="0 0 50 51" fill="none" xmlns="http://www.w3.org/2000/svg">
<path d="M6.1123 48.8574C7.36238 48.8574 8.37938 47.8404 8.37938 46.5903V41.6358H24.8631V46.5903C24.8631 47.8404 25.8801 48.8574 27.1301 48.8574C28.3802 48.8574 29.3972 47.8404 29.3972 46.5903V37.104H30.8417C31.383 38.5513 32.3709 39.4294 33.5121 39.4294C35.2581 39.4294 36.6261 37.3176 36.6261 34.6214C36.6261 31.9213 35.2581 29.8061 33.5121 29.8061C32.3715 29.8061 31.3835 30.6869 30.8416 32.1387H29.3972V10.1711C29.3972 9.57748 29.8798 9.09492 30.4733 9.09492H32.6169C33.2516 10.7232 34.5603 11.7843 36.0203 11.7843C38.1306 11.7843 39.8476 9.5874 39.8476 6.88698C39.8476 4.18274 38.1306 1.98242 36.0203 1.98242C34.5824 1.98242 33.3135 2.97939 32.6597 4.56039H30.4733C27.38 4.56039 24.8631 7.07733 24.8631 10.1711V15.2366H8.37938V10.1711C8.37938 9.57748 8.86232 9.09492 9.45551 9.09492H11.6021C12.2368 10.7232 13.5451 11.7843 15.0051 11.7843C17.1158 11.7843 18.8328 9.5874 18.8328 6.88698C18.8328 4.18274 17.1158 1.98242 15.0051 1.98242C13.5676 1.98242 12.2987 2.97939 11.6449 4.56039H9.45551C6.36179 4.56039 3.84485 7.07733 3.84485 10.1711V46.5903C3.84485 47.8404 4.86185 48.8574 6.1123 48.8574ZM24.8631 29.3899H8.37938V27.4902H24.8631V29.3899ZM11.874 35.0127C11.6921 35.1905 11.4586 35.2882 11.2164 35.2882H8.37938V33.448H11.2164C11.7237 33.448 12.1365 33.8607 12.1365 34.3681C12.1365 34.6099 12.0384 34.8438 11.874 35.0127ZM9.82467 31.8855H8.37938V30.9524H10.2887C10.1122 31.2299 9.95409 31.5382 9.82467 31.8855ZM11.5264 31.9168C11.8068 31.4201 12.1581 31.1122 12.4962 31.1122C13.2286 31.1122 14.048 32.5034 14.048 34.365C14.048 35.206 13.8694 35.9945 13.5651 36.6115H12.2559C12.5162 36.4898 12.7623 36.3292 12.9791 36.1171C13.4434 35.6414 13.699 35.02 13.699 34.3681C13.699 33.1051 12.748 32.0714 11.5264 31.9168ZM14.7127 30.9524H24.8631V36.6115H15.2422C15.4726 35.9233 15.6105 35.1576 15.6105 34.365C15.6105 33.0187 15.2702 31.8182 14.7127 30.9524ZM24.8631 25.9277H8.37938V20.2613H24.8631V25.9277ZM8.37938 40.0733V38.174H24.8631V40.0733H8.37938ZM29.3972 33.7012H32.2342C32.7416 33.7012 33.1543 34.114 33.1543 34.6214C33.1543 34.8636 33.0567 35.097 32.8919 35.266C32.7099 35.4438 32.4764 35.5415 32.2342 35.5415H29.3972V33.7012ZM33.5121 31.3686C34.2446 31.3686 35.0636 32.7598 35.0636 34.6214C35.0636 36.4787 34.2446 37.8669 33.5121 37.8669C33.175 37.8669 32.8252 37.5636 32.5456 37.0733C33.0823 37.0049 33.5872 36.7712 33.9966 36.3708C34.4612 35.8955 34.7168 35.274 34.7168 34.6214C34.7168 33.3583 33.7657 32.3244 32.544 32.17C32.8241 31.6751 33.1747 31.3686 33.5121 31.3686ZM36.0203 3.54492C37.2479 3.54492 38.2851 5.07538 38.2851 6.88698C38.2851 8.69476 37.2479 10.2218 36.0203 10.2218C35.3753 10.2218 34.7697 9.79106 34.3482 9.09492H35.2432C36.4933 9.09492 37.5103 8.07793 37.5103 6.82747C37.5103 5.57739 36.4933 4.56039 35.2432 4.56039H34.4219C34.842 3.93202 35.4177 3.54492 36.0203 3.54492ZM26.4256 10.1711C26.4256 7.93907 28.2414 6.12289 30.4733 6.12289H35.2432C35.6384 6.12289 35.9478 6.43227 35.9478 6.82747C35.9478 7.21619 35.6316 7.53242 35.2432 7.53242H30.4733C29.0184 7.53242 27.8347 8.71613 27.8347 10.1711V32.92V36.3227V46.5903C27.8347 46.9787 27.5185 47.2949 27.1301 47.2949C26.7418 47.2949 26.4256 46.9787 26.4256 46.5903V40.8546V37.3927V30.1711V26.7089V19.4801V16.0178V10.1711ZM24.8631 16.7991V18.6988H8.37938V16.7991H24.8631ZM15.0051 3.54492C16.2331 3.54492 17.2703 5.07538 17.2703 6.88698C17.2703 8.69476 16.2331 10.2218 15.0051 10.2218C14.3603 10.2218 13.7549 9.79106 13.3334 9.09492H14.2327C15.4827 9.09492 16.4997 8.07793 16.4997 6.82747C16.4997 5.57739 15.4827 4.56039 14.2327 4.56039H13.4071C13.8271 3.93202 14.4028 3.54492 15.0051 3.54492ZM5.40735 10.1711C5.40735 7.93907 7.22353 6.12289 9.45551 6.12289H14.2327C14.621 6.12289 14.9372 6.43913 14.9372 6.82747C14.9372 7.21619 14.621 7.53242 14.2327 7.53242H9.45551C8.00058 7.53242 6.81688 8.71613 6.81688 10.1711V16.0178V19.4801V26.7089V30.1711V32.6667V36.0694V37.3927V40.8546V46.5903C6.81688 46.9787 6.50064 47.2949 6.1123 47.2949C5.72359 47.2949 5.40735 46.9787 5.40735 46.5903V10.1711Z" fill="white"/>
<path d="M35.0636 24.7559C35.0636 26.1559 36.2027 27.2949 37.6027 27.2949C39.0027 27.2949 40.1417 26.1559 40.1417 24.7559C40.1417 23.3559 39.0027 22.2168 37.6027 22.2168C36.2027 22.2168 35.0636 23.3559 35.0636 24.7559ZM38.5792 24.7559C38.5792 25.2945 38.1413 25.7324 37.6027 25.7324C37.064 25.7324 36.6261 25.2945 36.6261 24.7559C36.6261 24.2172 37.064 23.7793 37.6027 23.7793C38.1413 23.7793 38.5792 24.2172 38.5792 24.7559Z" fill="white"/>
<path d="M44.1483 18.745C44.1483 16.7957 42.5625 15.21 40.6132 15.21C38.6643 15.21 37.0785 16.7957 37.0785 18.745C37.0785 20.6944 38.6643 22.2801 40.6132 22.2801C42.5625 22.2801 44.1483 20.6944 44.1483 18.745ZM38.641 18.745C38.641 17.6575 39.5256 16.7725 40.6132 16.7725C41.7008 16.7725 42.5858 17.6575 42.5858 18.745C42.5858 19.8326 41.7008 20.7176 40.6132 20.7176C39.5256 20.7176 38.641 19.8326 38.641 18.745Z" fill="white"/>
<path d="M44.0644 15.2733C46.0137 15.2733 47.5995 13.6875 47.5995 11.7382C47.5995 9.78889 46.0137 8.20312 44.0644 8.20312C42.1151 8.20312 40.5293 9.78889 40.5293 11.7382C40.5293 13.6875 42.1151 15.2733 44.0644 15.2733ZM44.0644 9.76562C45.1519 9.76562 46.037 10.6506 46.037 11.7382C46.037 12.8258 45.1519 13.7108 44.0644 13.7108C42.9768 13.7108 42.0918 12.8258 42.0918 11.7382C42.0918 10.6506 42.9768 9.76562 44.0644 9.76562Z" fill="white"/>
</svg>
