<svg width="50" height="51" viewBox="0 0 50 51" fill="none" xmlns="http://www.w3.org/2000/svg">
<g clip-path="url(#clip0_1210_1210)">
<path d="M7.46587 24.1391C7.4317 24.2133 7.3967 24.2833 7.36253 24.3591C6.6898 25.8692 5.58877 27.1487 4.19587 28.0391L1.89337 29.5033C1.30816 29.8765 0.923757 30.495 0.848118 31.185C0.772478 31.875 1.01376 32.5621 1.5042 33.0533L11.5434 43.0933C11.9722 43.5211 12.5535 43.7609 13.1592 43.7599C13.2451 43.7624 13.3311 43.7601 13.4167 43.7533C14.1075 43.679 14.7265 43.2932 15.0975 42.7058C16.1618 41.0723 17.7453 39.8449 19.5925 39.2216C20.2899 38.9734 20.9576 38.6486 21.5834 38.2533L23.6142 40.2833C24.4834 41.156 25.8607 41.2606 26.8517 40.5291L36.4942 50.1758C36.8212 50.4916 37.3409 50.4871 37.6624 50.1656C37.9838 49.8442 37.9883 49.3244 37.6725 48.9974L28.0534 39.3783L31.4584 35.9733L39.2025 43.7174C39.5295 44.0332 40.0493 44.0287 40.3707 43.7073C40.6922 43.3858 40.6967 42.8661 40.3809 42.5391L32.6367 34.7949L35.625 31.8066L38.7859 34.9674C39.1128 35.2832 39.6326 35.2787 39.954 34.9573C40.2755 34.6358 40.28 34.1161 39.9642 33.7891L36.8034 30.6283L39.7917 27.6399L46.2859 34.1341C46.6128 34.4499 47.1326 34.4454 47.454 34.1239C47.7755 33.8025 47.78 33.2827 47.4642 32.9558L40.9434 26.4349C41.6748 25.4439 41.5703 24.0666 40.6975 23.1974L35.7659 18.2658C35.8143 18.0603 35.8397 17.8501 35.8417 17.6391C35.8444 16.8924 35.5478 16.1757 35.0184 15.6491C34.7354 15.3701 34.3937 15.1578 34.0184 15.0274L35.0184 14.0274C36.1161 12.9278 36.1161 11.147 35.0184 10.0474C33.9054 8.98244 32.1513 8.98244 31.0384 10.0474L30.5159 10.5699C30.2354 9.81581 29.6424 9.21986 28.8898 8.93554C28.1371 8.65121 27.2982 8.70629 26.5892 9.08659L18.66 1.15909C17.6721 0.206084 16.1071 0.206084 15.1192 1.15909L1.57253 14.7016C1.09897 15.169 0.832397 15.8066 0.832397 16.472C0.832397 17.1374 1.09897 17.775 1.57253 18.2424L7.46587 24.1391ZM39.7625 24.9658C39.7629 25.1869 39.6754 25.3992 39.5192 25.5558L25.9692 39.1058C25.6386 39.4198 25.1198 39.4198 24.7892 39.1058L22.9467 37.2633C23.1809 37.0641 23.3275 36.9233 23.345 36.9058L30.345 29.9016C30.8974 29.3485 31.195 28.5906 31.1666 27.8094C31.1381 27.0281 30.7862 26.2939 30.195 25.7824C29.9455 25.5689 29.6588 25.4031 29.3492 25.2933L34.8909 19.7524L39.515 24.3766C39.6731 24.5319 39.7623 24.7442 39.7625 24.9658ZM28.7042 10.7574C29.1504 11.2066 29.1504 11.9316 28.7042 12.3808L22.1667 18.9199C21.9501 19.1292 21.8632 19.439 21.9395 19.7303C22.0157 20.0217 22.2433 20.2492 22.5346 20.3255C22.826 20.4018 23.1358 20.3149 23.345 20.0983L29.8817 13.5616L32.215 11.2283C32.6688 10.7935 33.3846 10.7935 33.8384 11.2283C34.285 11.6772 34.285 12.4026 33.8384 12.8516L24.9684 21.7191C24.7517 21.9283 24.6649 22.2382 24.7411 22.5295C24.8174 22.8209 25.0449 23.0484 25.3363 23.1247C25.6276 23.2009 25.9375 23.1141 26.1467 22.8974L32.2167 16.8274C32.6703 16.3923 33.3864 16.3923 33.84 16.8274C34.2867 17.2764 34.2867 18.0018 33.84 18.4508L26.84 25.4549C26.784 25.5164 26.7376 25.5861 26.7025 25.6616C26.5569 25.7626 26.4202 25.8761 26.2942 26.0008L22.6334 29.6566C22.3075 29.982 22.3071 30.5099 22.6325 30.8358C22.9579 31.1616 23.4859 31.162 23.8117 30.8366L27.4684 27.1799C27.8999 26.7224 28.6067 26.6631 29.1084 27.0424C29.3495 27.2513 29.4932 27.5509 29.5051 27.8697C29.5169 28.1885 29.3959 28.4979 29.1709 28.7241L22.1709 35.7241C21.2668 36.5638 20.2049 37.2153 19.0467 37.6408C16.8434 38.3877 14.9562 39.8556 13.69 41.8074C13.5885 41.9666 13.4202 42.0712 13.2325 42.0917C13.0448 42.1123 12.8578 42.0467 12.7242 41.9133L2.68253 31.8749C2.54881 31.7413 2.48297 31.5541 2.50354 31.3662C2.52412 31.1783 2.62889 31.0098 2.78837 30.9083L5.08837 29.4449C6.75681 28.3803 8.07628 26.8496 8.88337 25.0424C9.54773 23.3996 10.4911 21.8839 11.6717 20.5624L20.9317 11.3033C21.3626 10.8451 22.0697 10.7858 22.5709 11.1658C22.812 11.3746 22.9557 11.6742 22.9676 11.993C22.9794 12.3118 22.8584 12.6213 22.6334 12.8474L19.365 16.1158C19.1484 16.325 19.0615 16.6348 19.1378 16.9262C19.214 17.2175 19.4416 17.4451 19.7329 17.5213C20.0243 17.5976 20.3341 17.5107 20.5434 17.2941L23.8117 14.0258L27.0834 10.7574C27.5368 10.3243 28.2507 10.3243 28.7042 10.7574ZM2.75003 15.8841L16.3017 2.32992C16.6293 2.01058 17.1522 2.01243 17.4775 2.33409L25.3109 10.1674L24.4375 11.0399C24.2769 10.6026 24.0096 10.2122 23.66 9.90409C22.4998 8.94573 20.7975 9.04119 19.7517 10.1233L10.4934 19.3841C9.59959 20.3335 8.84435 21.4043 8.25003 22.5649L2.7442 17.0649C2.58503 16.9093 2.49579 16.6958 2.49689 16.4733C2.49799 16.2507 2.58933 16.0381 2.75003 15.8841Z" fill="white"/>
<path d="M46.4942 42.2592L47.7442 43.5092C48.0712 43.825 48.5909 43.8205 48.9124 43.499C49.2338 43.1776 49.2383 42.6578 48.9225 42.3308L47.6725 41.0809C47.3455 40.765 46.8258 40.7696 46.5043 41.091C46.1829 41.4124 46.1784 41.9322 46.4942 42.2592Z" fill="white"/>
<path d="M43.9942 39.7592C44.3212 40.075 44.8409 40.0705 45.1624 39.749C45.4838 39.4276 45.4883 38.9078 45.1725 38.5808L43.9225 37.3309C43.5955 37.015 43.0758 37.0196 42.7543 37.341C42.4329 37.6624 42.4284 38.1822 42.7442 38.5092L43.9942 39.7592Z" fill="white"/>
<path d="M42.7442 43.5092C43.0696 43.8345 43.5972 43.8345 43.9226 43.5092L45.1726 42.2592C45.4884 41.9322 45.4839 41.4124 45.1624 41.091C44.841 40.7696 44.3212 40.765 43.9942 41.0809L42.7442 42.3309C42.4189 42.6563 42.4189 43.1838 42.7442 43.5092Z" fill="white"/>
<path d="M46.4942 39.7592C46.8196 40.0845 47.3472 40.0845 47.6726 39.7592L48.9226 38.5092C49.2384 38.1822 49.2339 37.6624 48.9124 37.341C48.591 37.0196 48.0712 37.015 47.7442 37.3309L46.4942 38.5809C46.1689 38.9063 46.1689 39.4338 46.4942 39.7592Z" fill="white"/>
<path d="M43.3333 14.8023C43.7936 14.8023 44.1667 14.4292 44.1667 13.969V12.3023C44.1667 11.8421 43.7936 11.469 43.3333 11.469C42.8731 11.469 42.5 11.8421 42.5 12.3023V13.969C42.5 14.4292 42.8731 14.8023 43.3333 14.8023Z" fill="white"/>
<path d="M44.1667 18.969V17.3023C44.1667 16.8421 43.7936 16.469 43.3333 16.469C42.8731 16.469 42.5 16.8421 42.5 17.3023V18.969C42.5 19.4292 42.8731 19.8023 43.3333 19.8023C43.7936 19.8023 44.1667 19.4292 44.1667 18.969Z" fill="white"/>
<path d="M45.0001 16.4692H46.6667C47.127 16.4692 47.5001 16.0961 47.5001 15.6358C47.5001 15.1756 47.127 14.8025 46.6667 14.8025H45.0001C44.5398 14.8025 44.1667 15.1756 44.1667 15.6358C44.1667 16.0961 44.5398 16.4692 45.0001 16.4692Z" fill="white"/>
<path d="M40.0001 16.4692H41.6667C42.127 16.4692 42.5001 16.0961 42.5001 15.6358C42.5001 15.1756 42.127 14.8025 41.6667 14.8025H40.0001C39.5398 14.8025 39.1667 15.1756 39.1667 15.6358C39.1667 16.0961 39.5398 16.4692 40.0001 16.4692Z" fill="white"/>
</g>
<defs>
<clipPath id="clip0_1210_1210">
<rect width="50" height="50" fill="white" transform="translate(0 0.419922)"/>
</clipPath>
</defs>
</svg>
