<svg width="50" height="50" viewBox="0 0 50 50" fill="none" xmlns="http://www.w3.org/2000/svg">
<path d="M18.75 35.9375C15.3506 35.9375 12.0276 34.9295 9.20115 33.0409C6.37467 31.1523 4.17171 28.468 2.87083 25.3274C1.56995 22.1868 1.22958 18.7309 1.89276 15.3969C2.55594 12.0628 4.1929 9.00033 6.59661 6.59661C9.00033 4.1929 12.0628 2.55594 15.3969 1.89276C18.7309 1.22958 22.1868 1.56995 25.3274 2.87083C28.468 4.17171 31.1523 6.37467 33.0409 9.20115C34.9295 12.0276 35.9375 15.3506 35.9375 18.75C35.9323 23.3068 34.1199 27.6755 30.8977 30.8977C27.6755 34.1199 23.3068 35.9323 18.75 35.9375ZM18.75 3.12501C15.6597 3.12501 12.6387 4.0414 10.0692 5.7583C7.49971 7.47519 5.49701 9.91548 4.31439 12.7706C3.13177 15.6257 2.82234 18.7673 3.42524 21.7983C4.02813 24.8292 5.51627 27.6134 7.70146 29.7986C9.88666 31.9837 12.6708 33.4719 15.7017 34.0748C18.7327 34.6777 21.8743 34.3682 24.7294 33.1856C27.5845 32.003 30.0248 30.0003 31.7417 27.4308C33.4586 24.8613 34.375 21.8403 34.375 18.75C34.3703 14.6075 32.7225 10.6359 29.7933 7.70672C26.8641 4.77749 22.8926 3.12976 18.75 3.12501Z" fill="#0181F5"/>
<path d="M39.0624 39.8437C38.8552 39.8436 38.6566 39.7613 38.5101 39.6148L29.9163 31.021C29.774 30.8737 29.6953 30.6763 29.6971 30.4715C29.6988 30.2666 29.781 30.0707 29.9258 29.9258C30.0707 29.781 30.2666 29.6988 30.4715 29.6971C30.6763 29.6953 30.8737 29.774 31.021 29.9163L39.6148 38.5101C39.724 38.6193 39.7984 38.7585 39.8285 38.9101C39.8586 39.0616 39.8432 39.2186 39.784 39.3614C39.7249 39.5041 39.6248 39.6261 39.4964 39.712C39.3679 39.7978 39.2169 39.8436 39.0624 39.8437Z" fill="#0181F5"/>
<path d="M45.2734 48.3969C44.8631 48.3977 44.4566 48.3173 44.0775 48.1604C43.6983 48.0036 43.3539 47.7733 43.064 47.4828L37.1875 41.607C37.041 41.4605 36.9587 41.2618 36.9587 41.0547C36.9587 40.8475 37.041 40.6488 37.1875 40.5023L40.5023 37.1875C40.6488 37.041 40.8475 36.9587 41.0547 36.9587C41.2618 36.9587 41.4605 37.041 41.607 37.1875L47.4828 43.0633C48.0686 43.6493 48.3978 44.444 48.3978 45.2726C48.3978 46.1013 48.0686 46.896 47.4828 47.482C47.193 47.7726 46.8486 48.003 46.4694 48.16C46.0903 48.317 45.6838 48.3975 45.2734 48.3969ZM38.8453 41.0547L44.1687 46.3781C44.3129 46.5273 44.4853 46.6464 44.6759 46.7283C44.8665 46.8102 45.0716 46.8533 45.279 46.8551C45.4865 46.8569 45.6923 46.8173 45.8843 46.7388C46.0763 46.6602 46.2508 46.5442 46.3975 46.3975C46.5442 46.2508 46.6602 46.0763 46.7388 45.8843C46.8173 45.6923 46.8569 45.4865 46.8551 45.279C46.8533 45.0716 46.8102 44.8665 46.7283 44.6759C46.6464 44.4853 46.5273 44.3129 46.3781 44.1687L41.0547 38.8453L38.8453 41.0547Z" fill="#0181F5"/>
<path d="M18.75 28.9062C16.8859 28.904 15.0988 28.1625 13.7807 26.8443C12.4625 25.5262 11.721 23.7391 11.7188 21.875C11.7188 18.6516 16.2852 8.59375 18.75 8.59375C21.2148 8.59375 25.7812 18.6516 25.7812 21.875C25.779 23.7391 25.0375 25.5262 23.7193 26.8443C22.4012 28.1625 20.6141 28.904 18.75 28.9062ZM18.75 10.1836C17.3852 10.9461 13.2812 18.7773 13.2812 21.875C13.2812 23.3254 13.8574 24.7164 14.883 25.742C15.9086 26.7676 17.2996 27.3438 18.75 27.3438C20.2004 27.3438 21.5914 26.7676 22.617 25.742C23.6426 24.7164 24.2188 23.3254 24.2188 21.875C24.2188 18.7766 20.1148 10.9461 18.75 10.1836Z" fill="#0181F5"/>
<path d="M18.75 25.7812C18.5428 25.7812 18.3441 25.6989 18.1976 25.5524C18.0511 25.4059 17.9688 25.2072 17.9688 25C17.9688 24.7928 18.0511 24.5941 18.1976 24.4476C18.3441 24.3011 18.5428 24.2188 18.75 24.2188C19.3716 24.2188 19.9677 23.9718 20.4073 23.5323C20.8468 23.0927 21.0938 22.4966 21.0938 21.875C21.0938 21.6678 21.1761 21.4691 21.3226 21.3226C21.4691 21.1761 21.6678 21.0938 21.875 21.0938C22.0822 21.0938 22.2809 21.1761 22.4274 21.3226C22.5739 21.4691 22.6562 21.6678 22.6562 21.875C22.655 22.9106 22.2431 23.9035 21.5108 24.6358C20.7785 25.3681 19.7856 25.78 18.75 25.7812Z" fill="#0181F5"/>
</svg>
