<svg width="1042" height="932" viewBox="0 0 1042 932" fill="none" xmlns="http://www.w3.org/2000/svg">
<path d="M1036.96 542.927C1062.06 643.21 991.376 780.993 870.161 853.466C705.491 951.928 497.786 938.948 391.865 914.757C261.283 884.936 230.064 823.885 208.772 725.912C187.92 629.989 49.8599 646.13 7.89518 546.707C-26.3123 465.674 54.1183 426.003 181.882 403.273C327.988 377.292 361.756 397.673 491.119 415.813C594.691 430.343 1002.66 405.893 1036.96 542.927Z" fill="#ECF1F5"/>
<path d="M83.6382 489.695C82.2787 433.394 269.38 377.262 526.847 377.262C784.313 377.262 969.975 427.083 968.155 488.815C965.606 575.018 757.562 611.929 525.897 610.199C289.913 608.449 85.3376 560.067 83.6382 489.695Z" fill="#A6B8D0"/>
<path d="M115.727 488.765C115.727 543.437 299.549 559.747 527.486 559.747C755.423 559.747 941.155 543.447 941.155 488.765C941.155 434.084 756.373 389.772 528.446 389.772C300.519 389.772 115.727 434.084 115.727 488.765Z" fill="white"/>
<path d="M528.436 587.758C751.555 587.758 932.429 552.544 932.429 509.106C932.429 465.667 751.555 430.454 528.436 430.454C305.317 430.454 124.443 465.667 124.443 509.106C124.443 552.544 305.317 587.758 528.436 587.758Z" fill="#0181F5"/>
<path d="M219.629 489.435C220.238 490.295 221.128 490.905 222.208 491.205C223.597 491.585 225.117 491.385 226.496 490.645C227.876 489.905 228.935 488.725 229.485 487.305C230.025 485.915 230.005 484.475 229.435 483.245C229.425 483.235 229.425 483.225 229.415 483.205C229.045 482.745 229.765 482.215 230.035 482.635C230.075 482.705 230.115 482.785 230.145 482.865C230.824 484.335 230.854 486.035 230.225 487.665C229.605 489.265 228.405 490.605 226.866 491.435C226.296 491.745 225.706 491.965 225.107 492.105C224.077 492.345 223.027 492.335 222.038 492.065C220.788 491.725 219.748 491.015 219.029 490.015C218.729 489.475 219.179 489.045 219.629 489.435Z" fill="white"/>
<path d="M180.052 496.885C180.052 498.025 180.432 499.125 181.152 500.055C182.082 501.245 183.451 502.005 185.021 502.185C186.59 502.375 188.159 501.965 189.439 501.045C190.698 500.135 191.518 498.835 191.768 497.385C191.768 497.375 191.768 497.355 191.778 497.345C191.748 496.705 192.648 496.675 192.628 497.215C192.618 497.305 192.608 497.395 192.588 497.485C192.298 499.215 191.318 500.755 189.849 501.825C188.399 502.875 186.63 503.335 184.871 503.125C184.221 503.045 183.601 502.885 183.021 502.635C182.032 502.215 181.182 501.565 180.512 500.715C179.682 499.645 179.243 498.365 179.223 497.035C179.293 496.365 179.912 496.265 180.052 496.885Z" fill="white"/>
<path d="M127.043 428.114C126.983 429.934 128.352 431.464 130.112 431.534C131.871 431.594 133.341 430.174 133.411 428.354C133.511 425.573 133.551 422.783 133.601 420.093C133.81 407.183 134.01 394.983 140.048 389.002C143.357 385.732 148.445 384.242 155.593 384.472C160.211 384.622 164.199 385.302 167.588 386.562C166.109 393.223 165.989 400.983 165.859 408.983C165.819 411.643 165.769 414.393 165.679 417.113C165.619 418.933 166.988 420.463 168.748 420.533C170.507 420.603 171.977 419.173 172.047 417.353C172.146 414.573 172.186 411.783 172.236 409.093C172.346 402.153 172.456 395.423 173.476 389.752C178.474 393.583 181.333 399.543 182.243 407.803C183.092 435.134 183.092 482.165 182.243 496.195C182.133 498.016 183.462 499.576 185.222 499.696C185.292 499.696 185.352 499.706 185.422 499.706C187.091 499.706 188.491 498.365 188.6 496.615C188.74 494.315 188.85 491.155 188.95 487.345L221.179 477.495C221.089 480.625 220.989 483.245 220.869 485.215C220.759 487.035 222.088 488.595 223.848 488.715C223.918 488.715 223.978 488.725 224.048 488.725C225.717 488.725 227.116 487.385 227.226 485.635C228.086 471.435 228.086 423.933 227.226 396.483L227.206 396.223C226.117 386.042 222.348 378.402 216.02 373.512C210.642 369.352 203.585 367.192 194.428 366.902C185.482 366.622 178.904 368.692 174.286 373.252C172.256 375.252 170.737 377.622 169.587 380.272C165.629 378.842 161.061 378.062 155.802 377.892C146.866 377.612 140.278 379.682 135.66 384.242C127.683 392.123 127.473 405.663 127.233 419.993C127.183 422.653 127.133 425.403 127.043 428.114ZM189.17 443.064L221.438 433.194C221.468 437.914 221.478 442.634 221.478 447.214L189.22 457.074C189.22 452.484 189.2 447.774 189.17 443.064ZM189.05 480.885C189.13 475.695 189.18 469.785 189.21 463.505L221.468 453.644C221.438 459.974 221.389 465.895 221.299 471.025L189.05 480.885ZM175.345 383.072C176.185 381.102 177.265 379.392 178.664 378.012C181.973 374.742 187.061 373.252 194.208 373.482C210.682 374.002 219.149 381.422 220.839 396.813C221.109 405.403 221.289 415.943 221.389 426.793L189.12 436.664C189.02 426.073 188.84 415.843 188.58 407.463L188.56 407.203C187.471 397.023 183.712 389.382 177.375 384.492C176.725 383.982 176.055 383.512 175.345 383.072Z" fill="#4C545E"/>
<path d="M651.02 718.372C650.82 704.341 651.39 690.091 648.571 679.701C646.042 670.39 636.965 667.85 627.079 668.25C626.979 666.88 626.899 665.53 626.849 664.22C620.791 664.22 614.324 664.22 614.324 664.22C605.437 684.701 593.551 710.322 590.932 718.972C588.663 726.472 590.283 764.673 592.282 770.433C593.071 772.713 594.441 774.203 598.21 775.823C601.978 777.443 641.304 775.553 643.733 775.823C646.152 776.093 651.27 772.593 651.54 769.893C651.78 767.343 650.95 725.442 651.02 718.372ZM627.629 673.801C632.777 673.62 640.964 673.541 642.813 684.641C643.863 690.941 643.753 705.981 642.723 713.692C634.406 705.641 629.488 688.891 627.629 673.801Z" fill="#FF4400"/>
<path d="M622.871 665.65H618.153C614.964 665.65 612.365 663.04 612.365 659.86C612.365 656.67 614.974 654.07 618.153 654.07H622.871C626.06 654.07 628.659 656.68 628.659 659.86C628.659 663.04 626.06 665.65 622.871 665.65Z" fill="#2E3238"/>
<path d="M575.766 800.634C577.096 805.874 605.136 807.024 607.415 801.474C609.984 795.214 609.824 718.861 609.784 715.701C609.724 711.231 607.695 702.871 592.77 703.151C580.125 703.391 576.786 709.051 576.036 715.561C575.297 722.061 573.917 793.353 575.766 800.634Z" fill="#16C98A"/>
<path d="M596.299 704.271H589.512C586.163 704.271 583.424 701.531 583.424 698.181C583.424 694.831 586.163 692.091 589.512 692.091H596.299C599.648 692.091 602.387 694.831 602.387 698.181C602.387 701.531 599.648 704.271 596.299 704.271Z" fill="#2E3238"/>
<path d="M599.858 692.091H599.668V704.271H599.858V692.091Z" fill="#A6B8D0"/>
<path d="M597.228 704.271H597.038C597.018 700.681 596.998 694.671 597.018 692.091H597.198C597.188 694.471 597.208 699.951 597.228 704.271Z" fill="#A6B8D0"/>
<path d="M593.809 692.091H593.619V704.271H593.809V692.091Z" fill="#A6B8D0"/>
<path d="M588.422 692.091H588.232V704.271H588.422V692.091Z" fill="#A6B8D0"/>
<path d="M585.723 692.091H585.533V704.271H585.723V692.091Z" fill="#A6B8D0"/>
<path d="M343.789 329.66H369.5V374.859H343.789V428.566H285.23V374.859H187.406L183.932 339.054L285.23 176.003V175.481H343.789V329.66ZM239.714 329.66H285.24V251.788L281.588 257.696L239.714 329.66Z" fill="#10131C"/>
<path d="M570.888 325.14C570.888 359.323 563.212 385.688 547.869 404.233C532.516 422.779 510.885 432.042 482.966 432.042C454.814 432.042 433.034 422.714 417.636 404.056C402.227 385.399 394.523 359.1 394.523 325.14V278.907C394.523 244.724 402.2 218.359 417.542 199.814C432.895 181.278 454.582 172.005 482.612 172.005C510.643 172.005 532.367 181.334 547.766 199.991C563.174 218.648 570.878 245.013 570.878 279.084V325.14H570.888ZM512.329 271.424C512.329 253.232 509.954 239.645 505.203 230.661C500.452 221.677 492.925 217.185 482.612 217.185C472.533 217.185 465.211 221.36 460.637 229.701C456.063 238.042 453.603 250.679 453.249 267.593V332.26C453.249 351.15 455.625 364.971 460.376 373.713C465.127 382.463 472.654 386.834 482.966 386.834C492.925 386.834 500.284 382.575 505.035 374.057C509.786 365.539 512.218 352.185 512.329 333.993V271.424Z" fill="#10131C"/>
<path d="M755.934 329.66H781.654V374.859H755.934V428.566H697.375V374.859H599.561L596.086 339.054L697.385 176.003V175.481H755.943V329.66H755.934ZM651.859 329.66H697.385V251.788L693.733 257.696L651.859 329.66Z" fill="#10131C"/>
<path d="M473.543 766.583C474.363 773.403 480.091 778.043 486.089 779.133C491.277 780.073 534.101 779.403 540.099 779.133C546.097 778.863 557.693 773.953 558.102 764.673C558.222 761.943 559.742 698.361 559.192 691.811C558.642 685.261 555.643 650.6 555.643 650.6C555.643 650.6 538.18 650.6 534.641 650.6C534.371 654.69 527.004 656.6 523.455 657.97C519.906 659.33 495.875 656.73 486.768 660.02C476.542 663.7 473.813 674.07 472.993 679.53C472.184 684.991 472.734 759.763 473.543 766.583ZM485.689 675.57C490.867 668.75 502.743 665.9 504.512 670.25C506.011 673.93 485.829 696.041 483.23 694.671C479.881 692.911 480.611 682.26 485.689 675.57Z" fill="#156CBA"/>
<path d="M537.86 653.95H552.045C555.274 653.95 557.913 651.31 557.913 648.08C557.913 644.85 555.274 642.21 552.045 642.21H537.86C534.631 642.21 531.992 644.85 531.992 648.08C531.992 651.31 534.631 653.95 537.86 653.95Z" fill="#2E3238"/>
<path d="M546.277 705.691C545.957 703.351 544.537 701.521 542.058 701.471H494.805C491.926 701.521 490.587 703.531 490.687 705.481L490.817 760.323C490.847 762.673 492.656 764.073 495.405 764.233L541.078 764.753C543.787 764.483 544.827 762.703 545.097 760.593L546.277 705.691Z" fill="white"/>
<path d="M884.535 121.055C883.555 130.375 885.675 143.785 889.113 150.986C882.906 160.796 876.688 166.026 864.922 167.996C853.157 169.956 846.939 158.346 846.119 156.386C853.317 153.276 862.953 135.785 863.283 123.845C869.491 123.995 884.535 121.055 884.535 121.055Z" fill="#E69880"/>
<path opacity="0.2" d="M884.315 124.375C884.345 123.225 884.415 122.115 884.525 121.055C884.525 121.055 870.52 123.935 863.263 124.175C863.133 127.335 862.363 130.865 861.184 134.405C862.413 134.815 863.763 135.075 865.242 135.155C872.759 135.545 879.837 133.655 884.275 126.135C884.285 125.545 884.295 124.955 884.315 124.375Z" fill="black"/>
<path d="M791.021 240.928C785.133 252.209 779.265 270.349 767.969 281.649C757.503 292.12 725.425 311.7 711.9 318.61C707.631 320.79 705.672 321.391 702.713 322.101C697.855 321.351 692.527 317.22 687.219 316.55C680.921 315.75 667.586 325.321 667.086 327.621C666.596 329.921 675.443 350.481 676.653 355.571C680.941 356.472 689.118 352.951 692.367 350.981C696.525 348.461 699.834 343.571 707.991 340.591C707.991 340.591 741.489 328.731 757.183 323.341C767.169 319.91 785.623 310.83 796.739 301.1C806.715 290.63 814.392 277.289 817.741 267.169C814.222 263.739 791.021 240.928 791.021 240.928Z" fill="#E69880"/>
<path d="M821.179 174.076C820.359 174.196 818.48 175.056 818.15 175.506C805.075 193.487 783.832 241.318 781.533 244.768C789.22 255.809 809.483 271.829 818.72 273.549C821.249 270.849 838.592 225.718 838.592 225.718L821.179 174.076Z" fill="#0181F5"/>
<path opacity="0.33" d="M814.44 206.547C812.541 223.208 812.83 255.939 807.482 268.289C811.831 271.059 815.829 273.009 818.728 273.549C819.548 272.679 821.927 267.349 824.756 260.539C824.756 260.539 814.8 203.357 814.44 206.547Z" fill="black"/>
<path d="M921.471 284.349C911.664 281.649 874.148 276.259 858.454 275.759C842.759 275.269 823.956 280.089 819.298 279.849C819.168 278.719 818.758 276.629 818.238 273.229C814.809 250.988 810.641 188.677 818.238 175.436C837.441 157.286 847.168 157.446 853.625 148.946C854.905 155.566 860.213 158.196 864.581 159.006C872.998 160.556 885.744 156.146 888.113 147.966C891.382 152.296 910.595 163.096 925.549 170.946C933.176 174.946 943.523 185.517 943.293 194.827C943.023 205.657 938.344 226.028 935.445 235.788C930.057 253.929 925.399 271.589 921.471 284.349Z" fill="#0181F5"/>
<path d="M849.138 685.911C848.648 699.161 846.439 756.313 845.459 757.543C836.142 759.263 818.729 757.053 818.239 754.843C817.989 742.822 814.07 677.821 814.07 677.821C824.606 679.531 849.138 685.911 849.138 685.911Z" fill="#E69880"/>
<path d="M926.133 690.321C928.342 698.411 938.138 755.323 938.388 756.303C950.404 755.563 966.348 757.773 965.368 752.623C962.919 740.602 958.751 683.451 957.521 682.961C950.654 684.191 926.133 690.321 926.133 690.321Z" fill="#E69880"/>
<path d="M820.897 277.669C813.24 317.13 806.302 430.754 805.442 488.165C804.703 537.477 813.54 683.941 813.54 692.771C821.697 693.531 848.917 695.001 848.917 695.001C853.335 664.83 873.867 488.165 879.016 446.214C884.164 404.263 881.955 279.879 881.955 279.879L820.897 277.669Z" fill="#010F34"/>
<path d="M841.171 678.601L839.951 678.5C840.051 677.21 850.257 549.897 850.737 545.047C851.057 541.867 850.097 540.287 849.248 538.887C848.848 538.237 848.478 537.616 848.298 536.916C847.938 535.486 849.188 534.376 850.517 533.206C851.507 532.336 852.637 531.336 853.246 530.116C853.896 528.816 852.726 527.366 851.487 525.826C850.397 524.466 849.258 523.066 849.258 521.556C849.258 519.726 850.127 518.966 851.237 517.996C852.197 517.166 853.386 516.126 854.706 513.936C855.416 511.576 856.415 496.645 857.555 479.375C858.724 461.714 860.054 441.694 861.523 428.263L862.743 428.393C861.283 441.794 859.954 461.794 858.784 479.445C857.575 497.675 856.615 512.076 855.855 514.376C855.845 514.416 855.825 514.456 855.795 514.496C854.356 516.896 853.016 518.056 852.047 518.906C851.007 519.806 850.487 520.256 850.487 521.536C850.487 522.616 851.477 523.846 852.437 525.036C853.796 526.726 855.346 528.636 854.346 530.636C853.626 532.076 852.407 533.156 851.327 534.096C850.247 535.046 849.308 535.876 849.488 536.586C849.618 537.107 849.928 537.617 850.297 538.217C851.147 539.627 852.317 541.547 851.957 545.137C851.467 550.007 841.271 677.31 841.171 678.601Z" fill="white"/>
<path d="M808.832 693.59C813.41 694.9 850.187 697.68 855.015 697.68C856.734 688.85 858.194 679.69 858.933 673.15C854.275 672.41 815.609 668.16 808.002 666.93C808.672 677.56 808.832 693.59 808.832 693.59Z" fill="#A6B8D0"/>
<path d="M840.089 272.229C833.471 294.31 836.78 333.671 840.029 357.882C842.878 379.152 880.184 531.986 887.851 557.337C894.469 579.208 924.318 687.261 926.527 694.621C933.145 694.621 951.908 691.681 958.896 689.471C956.686 660.77 954.067 483.735 953.328 455.034C952.588 426.333 951.618 367.512 946.71 348.321C940.142 322.641 927.127 301.28 920.509 288.76C908.724 284.349 854.064 269.289 840.089 272.229Z" fill="#010F34"/>
<path d="M949.032 677.33C948.972 675.87 943.134 531.526 942.414 523.536C941.984 518.786 940.445 517.986 939.325 517.406C938.575 517.016 937.716 516.566 937.696 515.186C937.676 513.386 939.105 512.256 940.365 511.256C941.544 510.326 942.564 509.526 942.434 508.376C942.344 507.536 940.725 505.986 939.295 504.626C937.406 502.816 935.616 501.115 935.566 499.665C935.487 497.505 936.776 495.935 938.136 494.275C939.695 492.375 941.464 490.225 941.664 486.655C941.904 482.285 940.705 386.252 929.919 348.491C926.39 336.151 922.321 327.271 918.373 318.7C913.974 309.12 909.816 300.08 906.367 286.659L907.557 286.349C910.976 299.67 915.114 308.66 919.492 318.19C923.451 326.811 927.549 335.721 931.098 348.161C936.646 367.602 939.595 402.883 941.084 429.053C942.714 457.694 943.074 483.415 942.894 486.725C942.674 490.695 940.685 493.115 939.095 495.055C937.776 496.655 936.736 497.925 936.796 499.625C936.836 500.575 938.675 502.336 940.145 503.746C941.954 505.476 943.514 506.966 943.654 508.246C943.853 510.076 942.404 511.216 941.125 512.226C939.985 513.126 938.905 513.976 938.915 515.176C938.925 515.796 939.135 515.936 939.885 516.326C941.174 516.996 943.134 518.016 943.624 523.436C944.353 531.456 950.191 675.83 950.251 677.29L949.032 677.33Z" fill="white"/>
<path d="M914.84 676.83C917.059 687.49 921.707 702.83 921.707 702.83L963.882 698.09V672.17C950.967 673.48 928.085 676.09 914.84 676.83Z" fill="#A6B8D0"/>
<path d="M925.349 334.431C919.101 333.971 913.303 331.811 908.115 328.021C903.777 324.851 899.848 320.53 896.439 315.18C889.112 303.68 884.544 291.54 883.924 281.859L885.143 281.779C885.743 291.12 890.351 303.36 897.469 314.52C904.846 326.091 914.263 332.381 925.439 333.211L925.349 334.431Z" fill="white"/>
<path d="M841.168 334.721C838.939 334.721 836.68 333.351 836.42 330.181C836.34 328.161 834.471 281.059 839.709 273.289C841.698 270.339 843.637 268.809 845.457 268.739C847.016 268.679 847.866 269.729 847.896 269.769C847.986 269.889 848.036 270.029 848.026 270.179C848.006 270.549 846.236 307.11 846.886 328.731C846.996 332.421 844.177 334.561 841.458 334.711C841.368 334.721 841.268 334.721 841.168 334.721ZM845.587 269.959C845.557 269.959 845.517 269.959 845.477 269.959C844.507 270.009 842.907 270.749 840.728 273.969C836.57 280.139 837.09 316.58 837.649 330.101C837.859 332.731 839.799 333.571 841.398 333.481C843.527 333.361 845.746 331.671 845.666 328.761C845.047 308.08 846.636 273.789 846.796 270.379C846.596 270.219 846.186 269.959 845.587 269.959Z" fill="#A6B8D0"/>
<path d="M817.998 273.309C818.318 277.559 819.138 281.979 819.637 285.409C824.546 282.959 832.883 280.909 845.298 280.829C870.719 280.669 916.572 290.479 922.95 293.259C922.62 288.109 922.46 282.959 922.46 282.139C916.572 279.519 876.607 269.379 849.227 267.749C830.124 266.609 821.107 271.179 817.998 273.309Z" fill="#010F34"/>
<path d="M975.083 544.817C977.093 549.237 998.325 549.317 1000.6 545.737C1003.44 541.277 1013.19 464.594 1012.65 457.424C1012.13 450.434 1006.02 445.284 1002.73 443.364C996.765 444.184 981.931 442.404 980.641 442.614C976.663 445.574 971.065 447.674 969.715 456.404C968.536 464.064 972.374 538.877 975.083 544.817Z" fill="#0181F5"/>
<path d="M998.734 443.713L984.159 443.193C980.3 443.053 977.251 439.783 977.391 435.913C977.531 432.053 980.8 429.003 984.669 429.143L999.243 429.663C1003.1 429.803 1006.15 433.073 1006.01 436.943C1005.87 440.803 1002.59 443.853 998.734 443.713Z" fill="#2E3238"/>
<path d="M937.534 443.614C938.534 438.584 952.539 436.724 954.378 440.214C957.947 449.314 981.528 505.876 982.778 509.756C984.747 515.906 982.238 528.656 973.421 533.196C968.453 535.757 956.188 537.077 951.459 536.357C944.622 535.317 936.915 524.946 935.985 518.606C934.475 508.226 937.534 443.614 937.534 443.614Z" fill="#16C98A"/>
<path d="M948.119 422.093L951.128 437.483C951.328 438.513 950.938 439.513 950.209 440.103C950.159 440.143 950.099 440.183 950.049 440.223C949.789 440.403 949.489 440.533 949.159 440.593L942.082 441.973C941.712 442.043 941.342 442.023 940.992 441.933C940.932 441.923 940.882 441.903 940.822 441.883C939.962 441.593 939.273 440.823 939.073 439.833L936.064 424.443C935.864 423.413 936.254 422.413 936.984 421.823C937.034 421.783 937.083 421.743 937.133 421.713C937.403 421.523 937.703 421.393 938.043 421.333L945.121 419.953C945.201 419.933 945.281 419.923 945.37 419.923C945.43 419.913 945.48 419.913 945.54 419.913C946.75 419.883 947.86 420.793 948.119 422.093Z" fill="#2E3238"/>
<path d="M956.12 403.063C954.36 407.313 951.831 412.763 950.032 417.423C949.092 422.883 952.521 431.613 953.89 432.693C957.139 433.083 956.589 424.813 957.629 422.263C959.118 418.603 960.528 416.213 960.698 413.703C960.998 409.023 959.968 405.443 956.12 403.063Z" fill="#E69880"/>
<path d="M930.976 477.135L927.297 477.005C927.507 471.185 926.527 456.074 932.905 442.274C936.414 434.694 941.192 428.654 947.12 424.323C954.237 419.123 963.074 416.343 973.4 416.033C982.337 415.773 990.474 417.123 997.581 420.033C1003.91 422.633 1009.48 426.483 1014.13 431.484C1025.89 444.154 1029.95 462.604 1028.74 474.385L1025.08 474.005C1026.21 463.024 1022.42 445.814 1011.44 433.984C1002.2 424.043 989.434 419.233 973.51 419.693C955.936 420.203 943.401 428.313 936.254 443.804C930.176 456.934 931.175 471.515 930.976 477.135Z" fill="#2E3238"/>
<path d="M927.688 473.625C928.977 485.835 939.383 567.317 940.663 572.848C943.102 581.788 959.206 583.198 975.59 583.828C993.503 584.528 1014.42 580.258 1016.22 571.268C1018.01 557.357 1028.17 471.635 1028.17 470.785C1019.7 473.625 927.688 473.625 927.688 473.625Z" fill="#FF4400"/>
<path opacity="0.33" d="M928.797 483.085C936.654 486.325 957.157 488.265 976.949 487.625C997.142 486.975 1019.22 484.175 1027.01 481.065C1027.73 474.875 1028.18 470.965 1028.18 470.785C1019.7 473.625 927.688 473.625 927.688 473.625C927.877 475.425 928.267 478.735 928.797 483.085Z" fill="black"/>
<path d="M924.799 462.314C925.169 468.034 925.768 475.374 926.008 477.164C926.038 477.394 926.148 477.614 926.328 477.764C931.077 481.814 954.468 484.414 976.95 483.684C1000.21 482.934 1025.98 479.334 1029.52 475.694C1029.68 475.534 1029.77 475.324 1029.79 475.094C1030.08 471.684 1030.25 463.284 1030.32 459.794C1030.33 459.474 1030.19 459.204 1029.97 459.024C1029.7 458.804 1029.32 458.724 1028.96 458.874C1021.74 461.874 1002.3 465.624 977.34 466.514C952.219 467.414 932.516 463.024 926.028 461.284C925.689 461.194 925.359 461.294 925.129 461.504C924.909 461.714 924.779 461.994 924.799 462.314Z" fill="#FF4400"/>
<path d="M983.958 395.863C983.418 391.812 983.658 389.472 983.548 387.312C983.508 386.422 982.968 384.502 982.688 383.522C982.468 382.772 982.528 381.292 982.528 381.292C982.348 365.732 981.069 313.77 977.39 283.599C976.28 274.539 972.732 262.749 969.793 253.179C969.793 253.179 940.853 264.219 933.496 270.589C936.925 276.719 944.022 282.929 947.311 294.55C950.89 307.18 964.635 370.372 966.164 385.082C966.194 385.372 966.214 385.692 966.224 386.002C965.294 390.442 961.486 392.002 960.026 394.603C959.197 396.073 957.717 399.223 956.128 403.043C958.557 413.053 956.618 426.443 955.598 429.754C955.498 431.434 956.248 433.854 959.517 433.924C964.675 434.034 963.775 431.394 965.394 431.034C966.724 430.744 968.073 431.904 970.772 431.204C973.821 430.404 972.482 428.153 974.101 427.473C975.011 426.913 976.36 428.283 979.169 427.133C981.659 426.113 980.719 424.163 982.008 423.753C983.088 422.943 983.738 424.033 985.147 423.333C986.367 422.723 987.077 421.713 987.376 420.753C988.716 416.483 984.497 399.923 983.958 395.863Z" fill="#E69880"/>
<path opacity="0.33" d="M935.456 235.778C938.025 227.128 928.748 246.498 929.808 235.208C926.849 229.158 936.425 223.748 933.726 221.148C925.719 223.948 924.7 198.107 916.722 215.097C913.324 222.338 910.365 228.228 910.395 234.188C910.425 239.958 911.724 245.768 913.364 251.978C915.813 260.319 917.742 268.709 923.23 278.449C926.779 266.409 930.847 251.268 935.456 235.778Z" fill="black"/>
<path d="M913.861 243.258C911.632 238.438 909.083 232.098 906.754 228.048C908.343 219.218 912.302 212.237 915.911 203.147C922.848 185.717 927.516 182.047 935.343 178.776C948.119 189.737 968.381 245.508 971.49 254.339C962.174 260.549 942.641 272.819 935.034 280.179C928.046 270.609 918.889 253.069 913.861 243.258Z" fill="#0181F5"/>
<path d="M899.181 156.136C897.782 155.266 896.462 154.436 895.263 153.636C878.719 186.657 866.633 201.787 854.317 216.447C853.908 216.937 853.118 216.807 852.888 216.207C848.79 205.627 841.492 170.586 843.282 157.076C841.872 157.896 840.353 158.766 838.713 159.756C836.724 173.816 845.071 211.477 849.699 221.048C849.089 227.918 848.899 238.798 848.899 238.798H853.638C853.638 238.798 854.947 228.568 855.637 221.418C865.843 212.167 892.424 172.796 899.181 156.136Z" fill="#010F34"/>
<path d="M841.763 231.518C846.261 231.738 858.377 232.248 862.735 232.538C863.575 232.598 864.204 233.338 864.115 234.168C863.755 237.658 862.965 244.728 862.625 247.758C862.535 248.558 861.835 249.138 861.036 249.068L840.643 247.498C839.823 247.438 839.214 246.728 839.274 245.908L840.203 232.898C840.263 232.088 840.953 231.478 841.763 231.518Z" fill="white"/>
<path d="M844.822 234.218C847.941 234.368 856.327 234.728 859.346 234.918C859.926 234.958 860.366 235.468 860.306 236.048C860.056 238.468 859.506 243.368 859.276 245.458C859.216 246.008 858.727 246.408 858.177 246.368L844.052 245.278C843.482 245.238 843.062 244.738 843.102 244.178L843.752 235.168C843.782 234.618 844.262 234.188 844.822 234.218Z" fill="#FF4400"/>
<path d="M847.667 741.832C851.745 752.623 847.417 767.183 847.417 767.183L774.344 772.253C774.344 772.253 765.647 758.323 771.565 755.083C778.432 751.323 803.603 737.662 808.021 732.512C812.44 727.362 819.257 730.342 821.916 733.982C825.025 738.232 826.005 743.302 826.085 746.242C829.833 747.243 843.738 743.432 847.667 741.832Z" fill="#0181F5"/>
<path d="M752.283 767.843C756.042 757.373 768.627 753.973 772.386 754.273C778.594 754.763 787.1 761.793 787.26 772.263C785.791 773.083 766.988 773.733 763.559 773.403C760.13 773.073 754.083 770.943 752.283 767.843Z" fill="white"/>
<path d="M753.872 764.163C756.001 768.293 761.969 769.843 767.237 769.923C775.204 770.043 841.41 766.123 848.647 762.933C852.326 764.523 852.076 775.073 848.897 776.013C842.36 776.833 767.657 778.633 763.888 778.793C760.13 778.953 751.633 777.483 750.483 772.253C749.344 767.023 752.243 764.163 753.872 764.163Z" fill="#A6B8D0"/>
<path d="M809.653 747.592C809.553 747.652 809.443 747.682 809.343 747.682C809.133 747.682 808.933 747.572 808.813 747.382C807.134 744.582 802.915 741.092 799.727 738.802C800.106 738.562 800.476 738.322 800.836 738.082C804.075 740.452 808.133 743.872 809.863 746.752C810.033 747.042 809.943 747.422 809.653 747.592Z" fill="white"/>
<path d="M805.234 750.672C805.134 750.742 805.014 750.772 804.904 750.772C804.704 750.772 804.504 750.672 804.384 750.492C803.315 748.842 798.537 744.182 795.088 741.702C795.468 741.472 795.848 741.242 796.217 741.012C799.796 743.662 804.295 748.092 805.414 749.832C805.604 750.112 805.524 750.492 805.234 750.672Z" fill="white"/>
<path d="M797.406 754.903C797.306 754.973 797.187 755.003 797.077 755.003C796.877 755.003 796.677 754.903 796.557 754.723C794.567 751.663 790.919 748.083 788.26 745.753C788.63 745.533 789.009 745.323 789.379 745.103C792.068 747.483 795.577 750.972 797.586 754.052C797.766 754.342 797.686 754.723 797.406 754.903Z" fill="white"/>
<path d="M889.924 112.554C894.912 111.904 898.421 108.434 900.71 104.624C902.179 102.174 902.999 98.5739 902.099 95.7939C901.2 93.0139 896.951 87.2939 894.662 87.1239C892.373 86.9539 889.924 110.014 889.924 112.554Z" fill="#2E3238"/>
<path d="M893.762 98.1641C895.851 96.5741 900.249 97.0441 899.889 100.864C899.28 107.364 894.251 112.024 891.062 109.814C891.682 106.504 893.762 98.1641 893.762 98.1641Z" fill="#E69880"/>
<path d="M856.866 93.344C856.076 91.104 852.788 89.124 850.938 93.604C848.969 98.394 851.728 105.594 855.547 104.404C856.596 100.194 856.866 93.344 856.866 93.344Z" fill="#E69880"/>
<path d="M856.167 96.634C856.087 96.634 856.017 96.574 856.007 96.494C855.627 94.324 854.617 93.364 852.988 93.634C852.898 93.644 852.818 93.584 852.798 93.494C852.788 93.404 852.848 93.324 852.938 93.304C854.747 93.004 855.927 94.084 856.337 96.434C856.357 96.524 856.297 96.604 856.207 96.624C856.187 96.634 856.177 96.634 856.167 96.634Z" fill="#2E3238"/>
<path d="M892.782 102.004C892.752 102.004 892.722 101.994 892.692 101.974C892.612 101.924 892.593 101.824 892.642 101.744C893.172 100.934 894.822 100.154 896.031 100.144C896.691 100.134 897.201 100.354 897.481 100.774C897.531 100.844 897.511 100.954 897.441 101.004C897.361 101.054 897.261 101.034 897.211 100.964C896.991 100.634 896.591 100.474 896.041 100.474C894.832 100.484 893.342 101.274 892.922 101.924C892.892 101.974 892.842 102.004 892.782 102.004Z" fill="#2E3238"/>
<path d="M859.195 79.8837C856.546 86.5438 854.467 107.534 854.657 112.635C854.906 119.015 858.045 129.225 868.631 130.175C878.198 131.035 887.145 128.095 890.573 113.615C894.002 99.1442 897.321 86.8738 895.602 79.6436C894.192 73.6735 869.741 53.3929 859.195 79.8837Z" fill="#E69880"/>
<path d="M869.492 110.994C868.223 110.994 866.823 110.764 865.904 109.934C864.514 108.684 867.193 103.064 870.052 97.4141L870.432 96.6641C870.482 96.5541 870.622 96.5141 870.722 96.5641C870.832 96.6141 870.872 96.7541 870.822 96.8541L870.442 97.6041C868.652 101.134 864.944 108.464 866.193 109.604C868.043 111.284 872.321 110.214 872.371 110.204C872.491 110.174 872.611 110.244 872.641 110.364C872.671 110.484 872.601 110.604 872.481 110.634C872.381 110.664 871.032 110.994 869.492 110.994Z" fill="#2E3238"/>
<path d="M862.544 113.605C862.524 113.445 862.594 113.315 862.704 113.245C862.834 113.165 863.004 113.155 863.144 113.265C864.464 114.345 866.153 115.025 868.242 115.395C870.282 115.755 873.221 115.555 874.91 115.195C875.07 115.155 875.22 115.235 875.29 115.355C875.36 115.475 875.37 115.635 875.26 115.765C873.42 118.015 870.542 120.155 867.193 119.555C863.684 118.935 862.844 115.715 862.544 113.605Z" fill="white"/>
<path d="M877.279 98.8441C877.279 97.7241 878.189 96.8141 879.309 96.8141C880.428 96.8141 881.338 97.7241 881.338 98.8441C881.338 99.9641 880.428 100.874 879.309 100.874C878.189 100.874 877.279 99.9641 877.279 98.8441Z" fill="#2E3238"/>
<path d="M862.154 95.9641C862.154 94.8441 863.064 93.9341 864.184 93.9341C865.303 93.9341 866.213 94.8441 866.213 95.9641C866.213 97.0841 865.303 97.994 864.184 97.994C863.064 97.994 862.154 97.0841 862.154 95.9641Z" fill="#2E3238"/>
<path d="M888.246 94.2339C886.976 94.2639 885.247 93.3739 883.217 93.0039C879.709 92.3639 877.37 92.5339 877.579 91.1239C878.099 87.7239 887.716 90.6339 888.615 91.8639C889.515 93.0939 889.755 94.2039 888.246 94.2339Z" fill="#2E3238"/>
<path d="M870.23 89.0838C870.77 87.6038 866.622 85.8538 863.933 85.7338C860.414 85.5738 858.445 85.8138 858.705 87.7738C858.864 89.0038 861.543 88.6238 863.853 89.1638C866.302 89.7338 869.571 90.8838 870.23 89.0838Z" fill="#2E3238"/>
<path opacity="0.3" d="M863.184 104.134C863.184 105.854 861.795 107.244 860.076 107.244C858.356 107.244 856.967 105.854 856.967 104.134C856.967 102.414 858.356 101.024 860.076 101.024C861.795 101.024 863.184 102.414 863.184 104.134Z" fill="#FF4400"/>
<path opacity="0.3" d="M884.937 107.974C884.937 109.694 883.547 111.084 881.828 111.084C880.108 111.084 878.719 109.694 878.719 107.974C878.719 106.254 880.108 104.864 881.828 104.864C883.547 104.864 884.937 106.254 884.937 107.974Z" fill="#FF4400"/>
<path d="M902.59 97.6631C906.428 92.7531 909.537 71.9932 893.193 63.4832C891.474 70.1832 890.664 85.8031 890.574 86.1331C892.953 87.0431 899.971 93.5831 902.59 97.6631Z" fill="#010F34"/>
<path d="M857.555 90.963C856.166 92.103 849.708 89.733 852.817 76.003C855.056 66.113 866.472 57.113 874.969 58.103C869.161 64.553 858.535 87.693 857.555 90.963Z" fill="#010F34"/>
<path d="M893.683 87.363C897.691 85.973 899.241 74.773 898.011 70.033C896.861 65.593 892.583 59.933 885.256 57.853C876.919 55.483 866.283 57.113 860.565 69.053C855.297 80.073 859.335 83.853 859.825 84.833C864.323 72.323 869.471 73.883 877.079 75.183C883.466 76.283 891.393 81.073 893.683 87.363Z" fill="#010F34"/>
<path d="M896.122 65.463C895.882 64.993 895.492 64.963 895.612 65.363C896.702 66.923 897.451 68.553 897.841 70.073C898.991 74.523 897.611 85.493 893.793 87.123C891.423 80.913 883.496 76.093 877.129 74.993C876.779 74.933 876.429 74.873 876.089 74.813C874.08 74.463 872.231 74.133 870.511 74.133C866.293 74.133 862.864 76.093 859.805 84.403C859.785 84.373 859.765 84.343 859.745 84.313C858.745 82.833 856.076 78.893 860.755 69.123C863.634 63.103 867.582 59.963 871.511 58.423C871.581 58.233 871.391 58.183 870.981 58.253C866.453 60.163 862.904 63.763 860.415 68.963C855.647 78.923 858.406 82.993 859.435 84.523C859.545 84.683 859.635 84.813 859.675 84.903L859.865 85.283L860.015 84.883C864.253 73.103 868.932 73.923 876.019 75.173C876.359 75.233 876.709 75.293 877.059 75.353C883.386 76.443 891.264 81.253 893.513 87.413L893.573 87.583L893.743 87.523C898.001 86.043 899.381 74.563 898.191 69.973C897.821 68.523 897.121 66.973 896.122 65.463Z" fill="white"/>
<path d="M896.871 90.3934C897.121 93.4234 893.613 96.4434 889.764 95.7134C885.925 94.9734 883.316 81.7434 874.06 79.8534C862.444 77.4834 860.575 95.7934 855.346 92.5234C852.647 89.4134 855.346 82.1434 858.125 78.9534C860.904 75.7634 866.872 70.6934 877.248 72.2534C887.915 73.8334 894.822 80.4934 896.871 90.3934Z" fill="#010F34"/>
<path d="M885.704 68.843C885.244 70.933 882.675 70.603 879.456 69.903C876.238 69.203 873.549 68.343 874.038 66.303C874.468 64.533 877.357 63.653 880.576 64.353C883.795 65.053 886.094 67.063 885.704 68.843Z" fill="#FF4400"/>
<path d="M929.98 755.083C929 760.973 929.16 768.003 930.14 770.783C934.218 772.503 949.103 775.203 953.191 779.773C954.991 772.413 948.123 764.073 943.715 761.293C939.297 758.513 929.98 755.083 929.98 755.083Z" fill="#A6B8D0"/>
<path d="M935.449 740.282C935.629 741.282 935.919 742.252 936.249 743.552C936.679 745.252 936.999 746.533 937.599 748.093C938.468 750.343 939.878 753.613 941.587 753.453C940.937 747.563 943.876 735.802 953.683 733.992C963.409 732.192 965.488 741.232 968.317 747.733C971.586 755.253 982.782 765.723 987.031 769.813C980.653 773.083 960.55 789.764 959.731 790.094C952.043 784.374 950.084 772.273 943.057 767.363C937.609 763.563 931.911 760.903 929.622 759.263C926.683 755.813 930.791 742.242 935.449 740.282Z" fill="#0181F5"/>
<path d="M953.684 785.503C954.503 776.343 959.731 767.513 972.157 764.573C983.403 761.903 991.94 769.313 994.879 774.873C996.998 778.883 998.477 784.853 995.039 787.953C992.03 790.683 979.504 795.553 971.657 793.843C964.84 792.343 956.303 787.793 953.684 785.503Z" fill="white"/>
<path d="M945.215 769.593C945.905 774.133 945.855 779.603 951.882 788.563C956.171 794.943 969.676 798.443 973.824 798.863C982.831 799.783 995.517 796.283 997.976 790.893C1000.11 786.193 998.835 779.733 995.766 776.543C996.136 783.783 994.777 786.413 987.919 788.803C979.352 791.793 971.365 791.253 964.868 788.683C958.93 786.333 946.564 773.273 945.215 769.593Z" fill="#A6B8D0"/>
<path d="M974.305 756.643C972.846 755.883 971.056 755.303 967.668 755.813C962.43 756.603 958.621 760.503 956.962 763.593C956.852 763.803 956.642 763.913 956.422 763.913C956.322 763.913 956.222 763.893 956.132 763.843C955.832 763.683 955.722 763.313 955.882 763.013C957.681 759.673 961.8 755.463 967.488 754.603C969.767 754.253 971.436 754.383 972.756 754.733C973.246 755.363 973.765 756.003 974.305 756.643Z" fill="white"/>
<path d="M970.598 751.773C969.059 751.353 967.219 751.143 964.91 751.463C959.562 752.193 956.323 756.513 954.774 758.583C954.654 758.743 954.474 758.833 954.284 758.833C954.154 758.833 954.024 758.793 953.914 758.713C953.644 758.513 953.584 758.123 953.794 757.853C955.454 755.643 958.892 751.053 964.75 750.253C966.649 749.993 968.269 750.063 969.678 750.313C969.948 750.783 970.268 751.273 970.598 751.773Z" fill="white"/>
<path d="M967.798 746.492C966.379 745.292 964.339 744.472 961.16 744.902C957.172 745.442 954.663 749.252 953.013 751.762C952.574 752.432 952.194 753.012 951.854 753.402C951.734 753.542 951.564 753.622 951.394 753.622C951.254 753.622 951.114 753.572 950.994 753.472C950.734 753.252 950.704 752.862 950.924 752.602C951.204 752.272 951.564 751.722 951.984 751.092C953.653 748.552 956.442 744.312 960.991 743.692C963.57 743.342 965.499 743.742 966.978 744.492C967.258 745.162 967.528 745.832 967.798 746.492Z" fill="white"/>
<path d="M662.893 193.128L649.295 194.917L724.898 769.993L738.496 768.204L662.893 193.128Z" fill="#4C545E"/>
<path d="M736.629 772.483L727.783 773.643C726.283 773.843 724.824 773.253 723.704 772.163C722.655 771.143 721.905 769.683 721.685 768.003L709.899 678.381C709.679 676.711 709.649 675.391 710.209 674.05C710.729 672.81 711.469 671.84 712.248 671.72L725.493 669.94C726.623 670.04 727.353 670.44 728.063 671.58C728.862 672.88 729.062 674.071 729.292 675.831L741.078 765.453C741.298 767.103 740.958 768.683 740.238 769.933C739.428 771.313 738.159 772.283 736.629 772.483Z" fill="#2E3238"/>
<path d="M705.382 535.697L696.755 536.827C695.296 537.017 693.906 536.747 692.877 536.147C691.917 535.587 691.257 534.757 691.127 533.766L684.17 480.855C684.04 479.865 684.46 478.895 685.239 478.115C686.079 477.265 687.349 476.635 688.818 476.445L697.445 475.315C698.835 475.135 700.154 475.375 701.174 475.915C702.223 476.465 702.943 477.335 703.073 478.375L710.03 531.286C710.16 532.256 709.751 533.216 708.991 533.996C708.151 534.867 706.872 535.507 705.382 535.697Z" fill="#2E3238"/>
<path d="M688.29 4.79145L687.566 4.9433L703.853 82.6543L704.577 82.5024L688.29 4.79145Z" fill="#6B7685"/>
<path d="M675.346 1.99946L674.143 2.25162L697.57 114.151L698.773 113.899L675.346 1.99946Z" fill="#6B7685"/>
<path d="M661.603 1.77789L660.879 1.93085L692.488 151.611L693.212 151.458L661.603 1.77789Z" fill="#6B7685"/>
<path d="M648.354 4.6303L647.631 4.78503L682.166 166.358L682.889 166.204L648.354 4.6303Z" fill="#6B7685"/>
<path d="M632.538 5.62301L631.336 5.88046L666.46 170.038L667.663 169.781L632.538 5.62301Z" fill="#6B7685"/>
<path d="M622.935 8.29114L621.732 8.54858L656.858 172.706L658.06 172.449L622.935 8.29114Z" fill="#6B7685"/>
<path d="M605.266 9.78271L604.543 9.93759L639.667 174.095L640.391 173.94L605.266 9.78271Z" fill="#6B7685"/>
<path d="M590.876 13.4803L589.674 13.7366L623.681 173.406L624.883 173.15L590.876 13.4803Z" fill="#6B7685"/>
<path d="M581.669 18.326L580.947 18.4875L614.671 169.376L615.393 169.214L581.669 18.326Z" fill="#6B7685"/>
<path d="M703.882 15.0073L568.785 41.6351L568.928 42.3611L704.025 15.7333L703.882 15.0073Z" fill="#6B7685"/>
<path d="M707.939 35.7514L572.842 62.3929L573.08 63.5997L708.177 36.9581L707.939 35.7514Z" fill="#6B7685"/>
<path d="M706.171 63.1707L582.365 88.1362L582.608 89.342L706.414 64.3765L706.171 63.1707Z" fill="#6B7685"/>
<path d="M703.767 84.9362L589.961 107.692L590.106 108.418L703.912 85.6619L703.767 84.9362Z" fill="#6B7685"/>
<path d="M701.636 101.378L595.012 122.517L595.156 123.243L701.78 102.104L701.636 101.378Z" fill="#6B7685"/>
<path d="M697.269 129.099L602.727 147.503L602.961 148.71L697.504 130.307L697.269 129.099Z" fill="#6B7685"/>
<path d="M694.853 142.816L608.98 160.132L609.127 160.858L694.999 143.541L694.853 142.816Z" fill="#6B7685"/>
<path d="M708.94 14.8818C697.584 -2.94872 672.264 -2.06869 633.858 3.70148C599.62 8.84162 576.029 10.5917 566.712 27.4121C560.244 39.0825 576.488 78.4236 589.844 113.575C600.25 140.975 606.927 166.316 612.625 170.756C621.612 177.756 629.579 179.266 639.406 178.596C646.193 186.347 649.692 206.447 651.021 214.807C652.721 217.718 664.676 215.817 665.886 212.517C663.997 199.777 663.927 183.087 668.915 174.336C680.89 172.316 686.708 170.246 691.716 161.856C694.725 156.836 698.814 131.645 703.492 102.004C709.17 66.0832 715.178 24.6821 708.94 14.8818ZM697.064 100.014C692.956 126.865 689.367 149.686 686.698 154.236C680.71 164.446 673.423 164.296 653.24 167.576C637.596 170.116 627.92 171.366 616.284 162.136C611.206 158.106 605.208 135.125 595.891 110.274C583.936 78.3936 569.391 42.7026 575.119 32.1423C583.376 16.9218 604.378 15.3818 634.857 10.7917C669.045 5.64153 692.246 4.50149 701.733 21.082C708.34 32.6023 702.043 67.4733 697.064 100.014Z" fill="#0181F5"/>
<path d="M670.044 357.821C673.153 357.911 682.03 352.621 683.409 350.901C684.409 349.651 684.309 346.331 681.13 346.731C677.951 347.131 668.645 350.601 667.405 352.161C666.026 353.891 666.486 357.711 670.044 357.821Z" fill="#E69880"/>
<path d="M683.797 347.671C683.528 347.191 683.118 346.861 682.598 346.681C682.358 346.601 682.228 346.871 682.408 347.001C682.878 347.141 683.238 347.431 683.478 347.851C683.997 348.791 683.787 350.131 683.258 350.791C682.028 352.331 674.591 356.831 670.972 357.541C670.712 357.571 670.692 357.971 671.002 357.911C674.721 357.201 682.208 352.691 683.548 351.021C684.147 350.261 684.417 348.771 683.797 347.671Z" fill="#2E3238"/>
<path d="M666.394 352.261C668.414 352.411 682.588 345.521 683.968 344.531C686.137 342.981 685.427 339.541 682.418 339.371C678.7 339.171 665.775 343.731 663.615 345.481C661.246 347.411 662.696 351.991 666.394 352.261Z" fill="#E69880"/>
<path d="M685.298 341.311C684.978 340.191 684.049 339.431 682.829 339.231C682.579 339.231 682.469 339.501 682.719 339.581C683.829 339.741 684.648 340.401 684.938 341.411C685.258 342.521 684.838 343.681 683.859 344.381C682.499 345.351 669.894 351.481 666.845 352.041C666.605 352.121 666.555 352.301 666.765 352.421C669.804 351.941 682.649 345.701 684.079 344.681C685.188 343.891 685.668 342.571 685.298 341.311Z" fill="#2E3238"/>
<path d="M683.718 333.831C684.378 336.061 683.618 337.081 681.629 338.111C679.639 339.141 664.085 345.651 662.516 345.531C660.526 345.381 658.637 340.861 660.027 338.831C661.816 336.231 667.174 333.851 671.283 332.991C674.761 332.271 682.688 330.311 683.718 333.831Z" fill="#E69880"/>
<path d="M683.897 333.781C683.517 332.481 682.278 331.891 680.678 331.691C680.498 331.801 680.309 331.901 680.109 332.001C681.818 332.111 683.167 332.621 683.537 333.891C684.197 336.111 683.377 337.011 681.538 337.961C679.589 338.971 668.083 343.771 663.915 345.051C663.495 345.171 663.045 345.351 663.265 345.591C666.384 344.951 679.949 339.201 681.708 338.291C683.647 337.281 684.617 336.231 683.897 333.781Z" fill="#2E3238"/>
<path d="M663.275 336.151C660.686 335.231 661.226 329.491 663.965 327.741C666.294 326.251 678.2 325.041 680.619 325.171C683.158 325.321 683.508 330.381 681.699 331.251C680.219 331.991 665.744 337.031 663.275 336.151Z" fill="#E69880"/>
<path d="M682.917 327.561C682.657 326.241 681.988 325.361 681.098 325.091C680.988 325.171 680.948 325.381 681.028 325.451C681.768 325.701 682.328 326.481 682.557 327.631C682.827 328.981 682.548 330.651 681.628 331.101C679.809 331.981 665.674 336.811 663.335 335.981C663.275 335.961 663.215 335.931 663.155 335.901C662.945 335.891 662.845 336.011 662.805 336.131C662.935 336.211 663.065 336.271 663.205 336.321C663.414 336.401 663.704 336.431 664.064 336.431C668.073 336.431 680.448 332.071 681.778 331.431C682.907 330.891 683.207 329.031 682.917 327.561Z" fill="#2E3238"/>
<path d="M694.393 330.84C690.985 329.89 684.587 325.33 682.758 323.1C679.569 324.13 669.682 325.77 666.573 324.2C663.465 322.63 661.945 320.15 662.285 318.19C666.434 317.9 680.318 313.84 684.177 313.89C688.156 314.57 697.012 320.88 699.442 321.73C699.432 326.86 694.393 330.84 694.393 330.84Z" fill="#E69880"/>
<path d="M689.097 330.241C689.087 330.241 689.067 330.241 689.057 330.241C687.187 329.841 684.948 327.811 683.149 326.181C681.999 325.141 681.01 324.241 680.42 324.031C679.88 324.111 679.33 324.201 678.8 324.301C677.661 324.501 676.591 324.681 675.692 324.681C675.592 324.681 675.512 324.601 675.512 324.501C675.512 324.401 675.592 324.321 675.692 324.321C676.561 324.321 677.611 324.141 678.731 323.941C679.28 323.851 679.84 323.751 680.4 323.671L680.44 323.661L680.48 323.671C681.14 323.881 682.129 324.771 683.389 325.911C685.158 327.511 687.357 329.501 689.137 329.881C689.237 329.901 689.297 330.001 689.277 330.101C689.257 330.181 689.177 330.241 689.097 330.241Z" fill="#2E3238"/>
<path d="M956 430.233C955.99 430.233 955.98 430.233 955.97 430.233C955.87 430.213 955.8 430.123 955.82 430.023C956.62 425.313 957.35 416.643 956.72 413.223C956.7 413.123 956.77 413.023 956.87 413.013C956.97 412.993 957.07 413.063 957.08 413.163C957.72 416.623 956.98 425.353 956.18 430.093C956.17 430.173 956.09 430.233 956 430.233Z" fill="#2E3238"/>
<path d="M891.281 150.846C890.312 153.386 888.612 155.746 886.293 157.736C881.175 162.126 873.718 164.186 865.851 163.416C860.563 162.896 853.915 160.386 851.116 151.706C850.856 151.946 850.586 152.186 850.316 152.416C853.345 161.266 860.253 163.846 865.761 164.396C866.88 164.506 867.99 164.566 869.1 164.566C875.977 164.566 882.355 162.426 886.943 158.496C889.312 156.466 891.072 154.056 892.111 151.466C891.821 151.246 891.551 151.046 891.281 150.846Z" fill="white"/>
<path d="M986.488 465.975C992.296 466.715 997.694 471.895 999.813 477.995C1005.5 494.375 991.526 515.146 994.885 520.886C998.924 521.806 1002.12 515.736 1008.44 514.606C1014.75 513.476 1030.24 518.766 1032.64 515.966C1034.56 513.476 1030.94 509.966 1030.02 504.416C1028.62 495.985 1033.84 492.495 1032.47 481.575C1031.62 474.835 1026.8 461.674 1015.93 461.344C1006.66 463.345 986.488 465.975 986.488 465.975Z" fill="white"/>
<path d="M1009.49 493.785C1009.5 496.265 1009.3 498.645 1008.89 500.966C1008.86 501.126 1008.83 501.296 1008.8 501.466C1008.63 502.406 1008.41 503.336 1008.17 504.266C1007.92 505.206 1007.62 506.206 1007.3 507.256C1007.01 508.206 1006.72 509.186 1006.44 510.176C1006.39 510.346 1006.35 510.516 1006.3 510.696C1005.87 512.326 1005.51 513.976 1005.37 515.586C1005.2 515.666 1005.03 515.756 1004.86 515.846C1004.98 514.176 1005.33 512.466 1005.77 510.776C1005.81 510.606 1005.86 510.426 1005.9 510.256C1006.19 509.196 1006.51 508.146 1006.82 507.116C1007.14 506.066 1007.44 505.076 1007.69 504.136C1007.92 503.256 1008.12 502.365 1008.29 501.475C1008.32 501.315 1008.35 501.145 1008.38 500.985C1008.79 498.675 1008.99 496.335 1008.99 493.875C1008.99 493.705 1008.99 493.545 1008.99 493.375C1008.95 490.315 1008.59 487.085 1007.91 483.565C1007.88 483.405 1007.85 483.245 1007.82 483.085C1007.71 482.545 1007.59 481.995 1007.47 481.435C1006.76 478.255 1005.97 475.815 1004.95 473.725C1004.88 473.575 1004.81 473.435 1004.73 473.285C1004.6 473.035 1004.47 472.785 1004.33 472.545C1003.79 471.585 1002.64 470.235 1001.73 469.155C1001.48 468.855 1001.24 468.585 1001.05 468.345C999.544 466.515 997.815 465.344 996.625 464.554C996.865 464.524 997.105 464.484 997.355 464.444C998.534 465.234 1000.06 466.365 1001.43 468.025C1001.62 468.265 1001.86 468.535 1002.11 468.825C1003.04 469.925 1004.2 471.285 1004.77 472.285C1004.92 472.545 1005.06 472.815 1005.2 473.085C1005.28 473.225 1005.35 473.375 1005.42 473.525C1006.45 475.645 1007.25 478.105 1007.96 481.315C1008.08 481.865 1008.2 482.405 1008.3 482.935C1008.33 483.095 1008.36 483.255 1008.4 483.415C1009.09 486.945 1009.45 490.185 1009.5 493.255C1009.49 493.455 1009.49 493.625 1009.49 493.785Z" fill="#A6B8D0"/>
<path d="M1018.14 492.195C1018.14 492.355 1018.13 492.525 1018.12 492.685C1018.01 495.305 1017.67 497.935 1017.27 500.606C1017.24 500.766 1017.22 500.936 1017.19 501.106C1017.05 501.996 1016.91 502.886 1016.77 503.776L1016.66 504.456C1016.38 506.176 1016.18 507.966 1016.08 509.696C1016.07 509.856 1016.07 510.026 1016.06 510.186C1015.99 511.916 1016.04 513.556 1016.24 514.956C1016.07 514.936 1015.9 514.906 1015.73 514.886C1015.52 513.396 1015.5 511.746 1015.56 510.176C1015.57 510.016 1015.57 509.846 1015.58 509.686C1015.7 507.476 1015.98 505.466 1016.16 504.376L1016.27 503.696C1016.41 502.836 1016.55 501.986 1016.68 501.136C1016.71 500.966 1016.73 500.806 1016.76 500.636C1017.17 497.965 1017.51 495.335 1017.62 492.725C1017.63 492.565 1017.63 492.395 1017.64 492.225C1017.76 488.685 1017.45 485.175 1016.32 481.605C1016.27 481.445 1016.22 481.285 1016.17 481.135C1016.05 480.785 1015.93 480.435 1015.79 480.085C1014.59 476.945 1013.38 473.895 1011.84 471.105C1011.81 471.055 1011.78 470.995 1011.75 470.945C1011.7 470.855 1011.64 470.765 1011.58 470.675C1010.81 469.485 1009.26 468.005 1007.97 466.865C1007.3 466.275 1005.96 464.795 1004.37 463.395L1004.96 463.294C1007.34 465.435 1011.16 469.265 1012.05 470.515C1012.1 470.585 1012.14 470.655 1012.17 470.705C1012.22 470.785 1012.26 470.865 1012.3 470.945C1013.84 473.735 1015.04 476.775 1016.24 479.905C1016.38 480.285 1016.52 480.665 1016.65 481.045C1016.7 481.205 1016.75 481.365 1016.8 481.515C1017.94 485.125 1018.25 488.655 1018.14 492.195Z" fill="#A6B8D0"/>
<path d="M1012.06 462.104C1012.54 462.524 1013.11 462.964 1013.71 463.414C1014.05 463.674 1014.35 463.895 1014.56 464.075C1016.29 465.515 1017.71 466.765 1019.04 468.175C1019.17 468.315 1019.29 468.445 1019.42 468.575C1019.55 468.715 1019.67 468.855 1019.8 468.995C1022.11 471.685 1023.66 474.655 1024.38 477.855C1024.55 478.605 1024.67 479.355 1024.76 480.095C1024.78 480.255 1024.79 480.425 1024.81 480.585C1025.16 484.385 1024.52 488.165 1023.83 491.855C1023.8 492.025 1023.77 492.185 1023.74 492.355C1023.72 492.485 1023.69 492.605 1023.67 492.735C1023.21 495.145 1022.75 497.595 1022.54 500.066C1022.53 500.236 1022.51 500.396 1022.5 500.566C1022.34 502.876 1022.41 505.196 1022.95 507.516C1023.13 508.306 1023.34 509.086 1023.57 509.856C1023.62 510.016 1023.67 510.186 1023.72 510.346C1024.43 512.576 1025.33 514.656 1026.43 516.566C1026.63 516.586 1026.84 516.616 1027.04 516.636C1025.91 514.716 1024.97 512.616 1024.25 510.356C1024.2 510.196 1024.14 510.026 1024.1 509.866C1023.85 509.066 1023.63 508.246 1023.44 507.416C1022.91 505.126 1022.84 502.806 1023.01 500.506C1023.02 500.336 1023.03 500.176 1023.05 500.006C1023.26 497.595 1023.71 495.195 1024.16 492.835C1024.19 492.665 1024.22 492.505 1024.26 492.335C1024.29 492.165 1024.32 492.005 1024.35 491.835C1025.04 488.145 1025.66 484.365 1025.32 480.545C1025.31 480.385 1025.29 480.225 1025.27 480.055C1025.19 479.285 1025.06 478.515 1024.88 477.745C1024.16 474.555 1022.64 471.585 1020.38 468.895C1020.26 468.755 1020.14 468.605 1020.01 468.465C1019.82 468.255 1019.63 468.045 1019.43 467.835C1018.08 466.405 1016.64 465.145 1014.9 463.695C1014.67 463.505 1014.38 463.285 1014.03 463.014C1013.64 462.724 1013.16 462.354 1012.7 461.974L1012.06 462.104Z" fill="#A6B8D0"/>
<path d="M1027.26 468.035C1026.81 468.065 1026.36 468.095 1025.91 468.135C1024.11 468.285 1022.24 468.535 1020.34 468.895C1020.16 468.925 1019.97 468.965 1019.79 469.005C1017.33 469.495 1014.82 470.145 1012.31 470.965C1012.15 471.015 1011.99 471.065 1011.84 471.125C1010.41 471.595 1008.98 472.125 1007.55 472.695C1007.11 472.875 1006.67 473.045 1006.23 473.225C1005.96 473.335 1005.68 473.445 1005.4 473.555L1004.94 473.735C1002.98 474.525 1001.01 475.345 999.104 476.275C999.035 476.125 998.965 475.975 998.895 475.835C1000.8 474.905 1002.77 474.085 1004.72 473.295L1005.18 473.115C1005.47 472.995 1005.76 472.885 1006.04 472.765C1006.48 472.585 1006.92 472.415 1007.36 472.235C1008.76 471.675 1010.17 471.155 1011.57 470.685C1011.73 470.635 1011.88 470.575 1012.04 470.525C1014.51 469.725 1016.98 469.065 1019.41 468.575C1019.6 468.535 1019.78 468.495 1019.97 468.465C1021.98 468.075 1023.95 467.805 1025.86 467.645C1026.21 467.615 1026.55 467.595 1026.9 467.565C1027.03 467.725 1027.15 467.875 1027.26 468.035Z" fill="#A6B8D0"/>
<path d="M1030.06 498.445C1030.03 498.625 1030 498.805 1029.97 498.995C1029.15 499.265 1028.33 499.515 1027.54 499.695C1026.05 500.025 1024.53 500.295 1022.99 500.505C1022.83 500.525 1022.66 500.556 1022.49 500.576C1020.73 500.806 1018.96 500.975 1017.18 501.105C1017.01 501.115 1016.84 501.125 1016.68 501.135C1014.28 501.295 1011.89 501.385 1009.55 501.445C1009.3 501.455 1009.04 501.456 1008.79 501.466C1008.63 501.466 1008.46 501.475 1008.29 501.485C1006.6 501.545 1004.83 501.646 1002.81 501.786C1002.3 501.816 1001.75 501.836 1001.17 501.846C1000.34 501.866 999.475 501.885 998.625 501.975C998.675 501.805 998.725 501.636 998.765 501.466C999.565 501.386 1000.38 501.366 1001.15 501.346C1001.73 501.336 1002.27 501.316 1002.77 501.286C1004.84 501.136 1006.65 501.035 1008.37 500.985C1008.54 500.975 1008.7 500.976 1008.87 500.966C1009.09 500.966 1009.31 500.955 1009.53 500.945C1011.89 500.885 1014.32 500.795 1016.74 500.635C1016.91 500.625 1017.08 500.615 1017.25 500.605C1019.01 500.475 1020.77 500.306 1022.52 500.076C1022.69 500.056 1022.85 500.035 1023.02 500.005C1024.51 499.795 1025.99 499.536 1027.43 499.216C1028.29 499.026 1029.18 498.745 1030.06 498.445Z" fill="#A6B8D0"/>
<path d="M1031.83 510.016C1031.37 510.046 1030.92 510.076 1030.48 510.096C1029.98 510.126 1029.51 510.146 1029.1 510.186C1027.49 510.316 1025.86 510.356 1024.24 510.356C1024.07 510.356 1023.89 510.356 1023.72 510.356C1022.22 510.346 1020.72 510.306 1019.25 510.266C1018.19 510.236 1017.13 510.206 1016.05 510.186C1015.89 510.186 1015.73 510.176 1015.56 510.176C1012.87 510.146 1010.15 510.196 1007.49 510.536C1007.11 510.586 1006.71 510.636 1006.29 510.696C1006.12 510.716 1005.94 510.746 1005.76 510.776C1002.66 511.236 998.865 511.976 995.246 513.166C995.296 512.976 995.346 512.786 995.396 512.596C999.035 511.426 1002.82 510.706 1005.89 510.256C1006.07 510.236 1006.25 510.206 1006.42 510.186C1006.76 510.136 1007.1 510.096 1007.42 510.056C1010.12 509.716 1012.86 509.656 1015.57 509.696C1015.73 509.696 1015.89 509.696 1016.06 509.706C1017.13 509.726 1018.19 509.756 1019.25 509.786C1020.67 509.826 1022.11 509.866 1023.55 509.876C1023.72 509.876 1023.89 509.876 1024.07 509.876C1025.73 509.886 1027.4 509.846 1029.04 509.716C1029.46 509.686 1029.93 509.656 1030.43 509.626C1030.8 509.606 1031.2 509.586 1031.61 509.556C1031.7 509.706 1031.76 509.866 1031.83 510.016Z" fill="#A6B8D0"/>
<path d="M1032.21 480.005C1031 480.085 1029.8 480.175 1028.61 480.275C1028.02 480.325 1027.42 480.375 1026.84 480.415C1026.33 480.455 1025.81 480.495 1025.29 480.545C1025.13 480.555 1024.96 480.575 1024.8 480.585C1022.16 480.815 1019.47 481.105 1016.81 481.525C1016.65 481.555 1016.48 481.575 1016.32 481.605C1013.96 481.995 1011.62 482.495 1009.36 483.155C1009.05 483.245 1008.72 483.335 1008.38 483.435C1008.23 483.475 1008.07 483.525 1007.91 483.565C1007.89 483.565 1007.87 483.575 1007.85 483.585C1005.81 484.155 1003.34 484.855 1001.16 485.785C1001.16 485.615 1001.15 485.435 1001.14 485.265C1003.3 484.355 1005.71 483.685 1007.71 483.115C1007.74 483.105 1007.78 483.095 1007.81 483.085C1007.97 483.045 1008.13 482.995 1008.28 482.955C1008.61 482.865 1008.92 482.775 1009.22 482.685C1011.48 482.025 1013.81 481.525 1016.16 481.125C1016.32 481.095 1016.49 481.075 1016.65 481.045C1019.36 480.615 1022.08 480.325 1024.75 480.085C1024.91 480.075 1025.08 480.055 1025.24 480.045C1025.76 480.005 1026.28 479.965 1026.8 479.915C1027.38 479.865 1027.97 479.825 1028.57 479.775C1029.74 479.675 1030.92 479.585 1032.11 479.505C1032.15 479.685 1032.18 479.845 1032.21 480.005Z" fill="#A6B8D0"/>
<path d="M1031.97 491.185C1031.93 491.355 1031.89 491.525 1031.85 491.685C1031.7 491.695 1031.57 491.715 1031.45 491.725C1029.05 492.025 1026.62 492.195 1024.23 492.335C1024.06 492.345 1023.89 492.355 1023.72 492.365C1023.32 492.385 1022.92 492.405 1022.52 492.435C1021.07 492.515 1019.6 492.595 1018.12 492.695C1017.96 492.705 1017.79 492.715 1017.63 492.735C1016.13 492.845 1014.63 492.995 1013.14 493.195C1011.92 493.355 1010.71 493.565 1009.49 493.795C1009.33 493.825 1009.16 493.855 1009 493.895C1006.94 494.295 1004.9 494.775 1002.9 495.245L1002.39 495.365C1001.74 495.515 1000.98 495.635 1000.18 495.765C1000.22 495.595 1000.25 495.425 1000.28 495.245C1001.01 495.125 1001.69 495.015 1002.28 494.875L1002.79 494.755C1004.83 494.285 1006.9 493.795 1009 493.385C1009.16 493.355 1009.33 493.325 1009.49 493.285C1010.68 493.055 1011.88 492.855 1013.07 492.695C1014.59 492.495 1016.12 492.345 1017.65 492.225C1017.81 492.215 1017.98 492.205 1018.14 492.195C1019.6 492.085 1021.06 492.015 1022.49 491.935C1022.93 491.915 1023.38 491.885 1023.81 491.865C1023.98 491.855 1024.15 491.845 1024.32 491.835C1026.66 491.705 1029.03 491.535 1031.38 491.235C1031.55 491.215 1031.75 491.205 1031.97 491.185Z" fill="#A6B8D0"/>
</svg>
