<svg width="50" height="50" viewBox="0 0 50 50" fill="none" xmlns="http://www.w3.org/2000/svg">
<path d="M25.0001 46.875C28.7681 46.875 32.4721 45.9018 35.7534 44.0495C39.0346 42.1973 41.7818 39.5289 43.7287 36.303C45.6756 33.077 46.7563 29.4028 46.8659 25.6365C46.9755 21.8701 46.1104 18.1393 44.3544 14.8056C44.2564 14.6242 44.0906 14.4889 43.8933 14.4291C43.6959 14.3694 43.4829 14.3902 43.3008 14.4868C43.1186 14.5835 42.9821 14.7482 42.9209 14.9451C42.8598 15.1421 42.8789 15.3552 42.9742 15.538C44.5123 18.4547 45.315 21.7027 45.3126 25C44.1993 51.9431 5.8007 51.9433 4.68763 24.9998C4.49949 9.93608 21.2503 -0.160668 34.4622 7.02618C34.6453 7.12329 34.8594 7.1437 35.0576 7.08292C35.2557 7.02214 35.4215 6.88515 35.5186 6.70209C35.6157 6.51903 35.6361 6.30489 35.5754 6.10678C35.5146 5.90867 35.3776 5.74282 35.1945 5.64571C32.0523 3.98812 28.5528 3.12282 25.0001 3.125C-4.01584 4.32388 -4.0155 45.6767 25.0001 46.875Z" fill="#0181F5"/>
<path d="M25.0001 18.75C25.6766 18.7496 26.3484 18.8619 26.988 19.0822C27.1838 19.1497 27.3985 19.1366 27.5847 19.0458C27.7709 18.955 27.9134 18.794 27.9809 18.5982C28.3241 17.2161 25.8909 17.2713 25.0002 17.1874C14.6371 17.6157 14.6375 32.3846 25.0002 32.8125C27.0715 32.8102 29.0573 31.9863 30.5219 30.5217C31.9865 29.0571 32.8103 27.0713 32.8126 25C32.7328 24.0931 32.7856 21.6852 31.4097 22.0271C31.3126 22.0605 31.2231 22.1127 31.1463 22.1806C31.0694 22.2486 31.0067 22.3311 30.9617 22.4233C30.9168 22.5155 30.8904 22.6157 30.8842 22.7181C30.878 22.8205 30.892 22.9232 30.9255 23.0202C31.1429 23.6575 31.2526 24.3266 31.2501 25C30.9368 33.2786 19.0633 33.2789 18.7501 24.9999C18.752 23.3429 19.4111 21.7543 20.5828 20.5826C21.7545 19.411 23.3431 18.7519 25.0001 18.75Z" fill="#0181F5"/>
<path d="M32.4801 13.0741C32.5298 12.9844 32.5614 12.8858 32.5731 12.7838C32.5847 12.6819 32.5762 12.5787 32.5479 12.48C32.5196 12.3814 32.4722 12.2893 32.4083 12.209C32.3445 12.1287 32.2654 12.0618 32.1757 12.0121C29.9793 10.7963 27.5103 10.1578 24.9998 10.1562C5.31045 10.97 5.31071 39.0304 24.9999 39.8438C27.5821 39.8453 30.1199 39.1728 32.3625 37.8928C34.605 36.6128 36.4746 34.7696 37.7865 32.5455C39.0983 30.3214 39.8069 27.7935 39.8422 25.2116C39.8775 22.6297 39.2383 20.0833 37.9877 17.8241C37.9382 17.734 37.8714 17.6545 37.7911 17.5903C37.7108 17.526 37.6186 17.4782 37.5198 17.4497C37.421 17.4212 37.3175 17.4124 37.2153 17.424C37.1131 17.4355 37.0142 17.4672 36.9242 17.517C36.8343 17.5669 36.7551 17.634 36.6911 17.7146C36.6272 17.7952 36.5798 17.8876 36.5517 17.9865C36.5235 18.0854 36.5152 18.1889 36.5271 18.2911C36.5391 18.3932 36.5711 18.492 36.6213 18.5817C41.5733 27.1699 34.921 38.4532 24.9996 38.2811C21.4785 38.2772 18.1026 36.8767 15.6128 34.3868C13.123 31.897 11.7225 28.5212 11.7186 25C11.5484 15.0789 22.8288 8.42584 31.4182 13.3787C31.5079 13.4287 31.6065 13.4604 31.7085 13.4721C31.8105 13.4838 31.9137 13.4752 32.0124 13.4469C32.1111 13.4186 32.2032 13.3711 32.2834 13.3072C32.3637 13.2432 32.4305 13.164 32.4801 13.0741Z" fill="#0181F5"/>
<path d="M34.003 10.8582L34.2899 14.6053L24.4475 24.4477C24.306 24.5952 24.2279 24.7923 24.23 24.9967C24.2321 25.2011 24.3143 25.3966 24.4588 25.5411C24.6034 25.6857 24.7989 25.7678 25.0033 25.7699C25.2077 25.772 25.4048 25.6939 25.5523 25.5524L35.3946 15.71L39.1417 15.9969C39.254 16.0055 39.3669 15.9898 39.4725 15.9506C39.5781 15.9115 39.674 15.85 39.7536 15.7704L45.4398 10.0846C45.5433 9.97805 45.6145 9.84439 45.6451 9.69909C45.6758 9.55378 45.6647 9.40276 45.6132 9.26349C45.5616 9.12421 45.4717 9.00239 45.3538 8.91209C45.2359 8.8218 45.0948 8.76674 44.9469 8.75327L41.5099 8.49004L41.2467 5.05296C41.2331 4.9051 41.178 4.76409 41.0877 4.64623C40.9974 4.52837 40.8756 4.43847 40.7363 4.38693C40.5971 4.33539 40.4461 4.32431 40.3008 4.35496C40.1555 4.38562 40.0219 4.45676 39.9153 4.56017L34.2296 10.2463C34.1499 10.3259 34.0883 10.4218 34.0492 10.5274C34.0101 10.633 33.9943 10.7459 34.003 10.8582ZM39.8185 6.86647C40.1311 10.5048 39.5158 9.8643 43.1335 10.1814L38.9029 14.4116L35.8241 14.1758L35.5884 11.097L39.8185 6.86647Z" fill="#0181F5"/>
</svg>
