<svg width="50" height="50" viewBox="0 0 50 50" fill="none" xmlns="http://www.w3.org/2000/svg">
<path d="M44.8552 33.0892V16.1754H9.20986C7.62304 23.7052 8.55908 31.0695 11.3459 37.1419H43.1394L44.8552 33.0892Z" fill="#F2F2FB"/>
<path d="M11.8511 16.1754H5.14478V33.0892L7.05679 37.1419H13.9872C11.2007 31.0703 10.2642 23.7061 11.8511 16.1754Z" fill="#D9D9FB"/>
<path d="M49.2676 15.44C49.2676 13.4094 47.6213 11.7631 45.5907 11.7631C44.6663 11.7631 24.9286 11.7631 13.0847 11.7631C7.30179 11.7631 5.88001 19.1169 11.3575 19.1169H45.5907C47.6224 19.117 49.2676 17.4704 49.2676 15.44Z" fill="#5C547E"/>
<path d="M13.0848 11.7632C8.45547 11.7632 5.03203 11.7632 4.40937 11.7632C2.37773 11.7632 0.732422 13.4097 0.732422 15.4401C0.732422 17.4708 2.37871 19.1171 4.40937 19.1171H11.3576C11.6848 16.5066 12.2734 14.0685 13.0848 11.7632Z" fill="#453B5E"/>
<path d="M32.844 16.1754H23.0389C19.7706 16.1754 19.7706 20.5877 23.0389 20.5877H32.844C36.3739 20.5877 36.3739 16.1754 32.844 16.1754Z" fill="#D9D9FB"/>
<path d="M32.844 16.1754H37.5014V20.5877H32.844V16.1754Z" fill="#B8C6FB"/>
<path d="M18.3816 16.1754H23.039V20.5877H18.3816V16.1754Z" fill="#B8C6FB"/>
<path d="M23.0389 25C19.7706 25 19.7706 29.4123 23.0389 29.4123H32.844C36.3738 29.4123 36.3738 25 32.844 25H23.0389Z" fill="#D9D9FB"/>
<path d="M32.844 25H37.5014V29.4123H32.844V25Z" fill="#B8C6FB"/>
<path d="M18.3816 25H23.039V29.4123H18.3816V25Z" fill="#B8C6FB"/>
<path d="M39.7077 36.4409C39.7077 36.2734 39.7077 34.6506 39.7077 32.2925C39.7077 28.5298 35.2954 27.6311 35.2954 31.4683V36.4409H39.7077Z" fill="#B8C6FB"/>
<path d="M5.14478 11.7632H9.55708V10.6602C9.55708 10.1798 9.66021 9.72387 9.84429 9.31196C10.3905 6.90971 6.14165 6.59926 5.2645 9.31196C5.18735 9.75004 5.14478 10.1999 5.14478 10.6602V11.7632Z" fill="#B8C6FB"/>
<path d="M24.2646 11.7633H28.677V10.6603C28.677 10.1799 28.7801 9.72392 28.9642 9.31201C28.9642 6.74638 25.5394 6.79541 24.3844 9.31201C24.3072 9.75009 24.2646 10.2 24.2646 10.6603V11.7633Z" fill="#B8C6FB"/>
<path d="M20.5878 36.442C20.5878 36.2424 20.5878 33.9995 20.5878 30.9106C20.5934 26.8577 16.1811 26.8517 16.1755 30.9046V36.441L20.5878 36.442Z" fill="#B8C6FB"/>
<path d="M20.5876 30.9106C20.5876 23.6835 20.5876 11.8239 20.5876 10.6601C20.5876 6.42639 17.1534 2.9386 12.8662 2.9386C9.06206 2.9386 5.90249 5.69075 5.2644 9.31194H9.84419C10.3604 8.15657 11.5189 7.3509 12.8662 7.3509C14.7068 7.3509 16.1753 8.84719 16.1753 10.6601V30.9045C16.786 30.7434 17.5063 30.6379 18.3805 30.6379C19.1733 30.6379 19.9021 30.7292 20.5876 30.9106Z" fill="#D9D9FB"/>
<path d="M38.237 32.5989C38.9173 32.5989 39.2992 32.4965 39.7078 32.2925C39.7078 25.3172 39.7078 11.9041 39.7078 10.6601C39.7078 6.42639 36.2735 2.9386 31.9863 2.9386C28.1822 2.9386 25.0226 5.69075 24.3845 9.31194H28.9643C29.4805 8.15657 30.639 7.3509 31.9863 7.3509C33.8269 7.3509 35.2955 8.84719 35.2955 10.6601V31.4683C35.626 31.6345 35.915 31.8055 36.177 31.9607C36.8944 32.3857 37.2545 32.5989 38.237 32.5989Z" fill="#D9D9FB"/>
<path d="M44.8554 38.482V33.0892C41.5459 33.0892 41.5453 35.0503 38.2369 35.0503C34.929 35.0503 34.9263 33.0892 31.6175 33.0892C28.3083 33.0892 28.3083 35.0503 24.999 35.0503C21.6898 35.0503 21.6882 33.0892 18.3805 33.0892C15.5777 33.0892 15.1496 34.4953 13.0739 34.926C7.645 37.8447 10.2188 42.6002 17.2563 42.6002H41.4725L44.8554 38.482Z" fill="#60DAFD"/>
<path d="M11.7632 35.0503C8.45405 35.0503 8.45405 33.0892 5.14478 33.0892V38.482L8.45396 42.6002H17.2563C15.5229 40.3344 14.1092 37.7445 13.0739 34.926C12.6987 35.004 12.2701 35.0503 11.7632 35.0503Z" fill="#00C8FB"/>
<path d="M44.8554 40.0018V38.4819C41.5462 38.4819 41.5462 40.443 38.2369 40.443C34.9268 40.443 34.9268 38.4819 31.6175 38.4819C28.3082 38.4819 28.3083 40.443 24.999 40.443C21.6898 40.443 21.6898 38.4819 18.3806 38.4819C16.7794 38.4819 15.9532 38.9414 15.1517 39.4154C11.4444 43.1394 13.5035 47.0613 21.6088 47.0613H37.7956C41.6942 47.0614 44.8554 43.9003 44.8554 40.0018Z" fill="#00C8FB"/>
<path d="M15.1518 39.4155C14.2973 39.9209 13.4708 40.443 11.7632 40.443C8.45405 40.443 8.45405 38.4819 5.14478 38.4819V40.0018C5.14478 43.9003 8.30591 47.0614 12.2044 47.0614H21.6088C19.0382 45.0129 16.8539 42.4111 15.1518 39.4155Z" fill="#10ACFB"/>
<path d="M45.5907 11.0307H40.4401V10.6601C40.4401 5.99856 36.6478 2.20618 31.9862 2.20618C27.3247 2.20618 23.5323 5.99856 23.5323 10.6601V11.0307H21.3203V10.6601C21.3203 5.99856 17.5279 2.20618 12.8664 2.20618C8.20488 2.20618 4.4125 5.99856 4.4125 10.6601V11.0307H4.40957C1.97803 11.0307 0 13.0087 0 15.4401C0 17.8713 1.97803 19.8493 4.40928 19.8493H4.41221V23.2841C4.41221 23.6887 4.74004 24.0165 5.14463 24.0165C5.54922 24.0165 5.87705 23.6887 5.87705 23.2841V19.8493H15.443V33.0215C14.2489 33.6289 13.6522 34.3177 11.7631 34.3177C10.3092 34.3177 9.62246 33.9108 8.82725 33.4395C8.0915 33.0034 7.26973 32.5186 5.87705 32.3903V26.7158C5.87705 26.3113 5.54922 25.9834 5.14463 25.9834C4.74004 25.9834 4.41221 26.3113 4.41221 26.7158V40.0018C4.41221 44.2984 7.90771 47.7939 12.2043 47.7939H30.2702C30.6748 47.7939 31.0026 47.466 31.0026 47.0615C31.0026 46.6569 30.6748 46.329 30.2702 46.329H12.2044C8.71553 46.329 5.87715 43.4907 5.87715 40.0018V39.2541C6.85576 39.3672 7.43223 39.7084 8.08057 40.0927C8.93711 40.6002 9.90781 41.1755 11.7632 41.1755C13.6187 41.1755 14.5894 40.6001 15.4458 40.0925C16.2408 39.6214 16.9273 39.2145 18.3807 39.2145C19.8346 39.2145 20.5213 39.6214 21.3164 40.0926C22.1729 40.6002 23.1437 41.1755 24.999 41.1755C26.8544 41.1755 27.8251 40.6002 28.6816 40.0926C29.4769 39.6214 30.1636 39.2145 31.6174 39.2145C33.0712 39.2145 33.758 39.6214 34.5532 40.0926C35.4099 40.6001 36.3809 41.1755 38.2368 41.1755C40.0921 41.1755 41.0628 40.6002 41.9193 40.0927C42.5676 39.7084 43.1441 39.3672 44.1228 39.2541V40.0018C44.1228 43.4907 41.2844 46.329 37.7955 46.329H33.7019C33.2973 46.329 32.9694 46.6569 32.9694 47.0615C32.9694 47.466 33.2973 47.7939 33.7019 47.7939H37.7955C42.0921 47.7939 45.5876 44.2984 45.5876 40.0018V19.8494H45.5905C48.0218 19.8494 49.9998 17.8714 49.9998 15.4402C50 13.0087 48.022 11.0307 45.5907 11.0307ZM24.9971 10.6601C24.9971 6.80627 28.1323 3.67102 31.9861 3.67102C35.8399 3.67102 38.9752 6.80627 38.9752 10.6601V34.2776C38.7519 34.3036 38.5078 34.3178 38.2368 34.3178C37.2293 34.3178 36.5902 34.1221 36.0277 33.845C36.0277 32.7656 36.0277 26.0758 36.0277 25V20.5877C36.0277 19.5577 36.0277 11.7674 36.0277 10.6601C36.0277 8.43157 34.2146 6.61838 31.986 6.61838C29.7574 6.61838 27.9443 8.43147 27.9443 10.6601V11.0307H24.9971V10.6601ZM31.6175 32.3568C29.7622 32.3568 28.7915 32.9321 27.935 33.4396C27.1397 33.9109 26.4529 34.3178 24.9991 34.3178C23.1151 34.3178 22.5234 33.6351 21.3202 33.0227V30.1448H34.563V33.0252C33.8519 32.6628 32.9699 32.3568 31.6175 32.3568ZM34.563 11.0307H29.4094V10.6601C29.4094 9.23918 30.5653 8.08323 31.9862 8.08323C33.4071 8.08323 34.5631 9.23918 34.5631 10.6601V11.0307H34.563ZM34.563 24.2676H21.3201V21.3201H34.5629L34.563 24.2676ZM21.3201 25.7324H34.5629V28.6799H21.3201V25.7324ZM34.563 19.8553H21.3201V16.9078H34.5629L34.563 19.8553ZM34.563 12.4955V15.4431H21.3201V12.4955H34.563ZM4.40928 18.3846C2.78564 18.3846 1.46484 17.0637 1.46484 15.4401C1.46484 13.8164 2.78564 12.4955 4.40928 12.4955H15.443V18.3846H4.40928ZM15.4431 11.0307H10.2896V10.6601C10.2896 9.23918 11.4455 8.08323 12.8663 8.08323C14.2872 8.08323 15.4432 9.23918 15.4432 10.6601V11.0307H15.4431ZM16.9079 10.6601C16.9079 8.43157 15.0948 6.61838 12.8662 6.61838C10.6377 6.61838 8.82461 8.43147 8.82461 10.6601V11.0307H5.87715V10.6601C5.87715 6.80627 9.0124 3.67102 12.8662 3.67102C16.72 3.67102 19.8553 6.80627 19.8553 10.6601V16.1755V20.5878V25V32.5001C18.9444 32.3084 17.8196 32.3082 16.9078 32.4996L16.9079 10.6601ZM41.1727 38.8325C40.3774 39.3037 39.6907 39.7107 38.2369 39.7107C36.7823 39.7107 36.0954 39.3036 35.3 38.8323C34.4435 38.3249 33.4727 37.7496 31.6175 37.7496C29.7622 37.7496 28.7915 38.3249 27.935 38.8324C27.1397 39.3037 26.4529 39.7107 24.9991 39.7107C23.5453 39.7107 22.8584 39.3037 22.0633 38.8324C21.2067 38.3249 20.236 37.7496 18.3808 37.7496C16.526 37.7496 15.5554 38.3249 14.6991 38.8324C13.9039 39.3036 13.2173 39.7107 11.7634 39.7107C10.3095 39.7107 9.62275 39.3037 8.82754 38.8324C8.0918 38.3964 7.27002 37.9115 5.87734 37.7832V33.8614C6.85596 33.9744 7.43242 34.3156 8.08076 34.6999C8.9373 35.2074 9.90801 35.7827 11.7634 35.7827C13.6193 35.7827 14.5896 35.2073 15.4459 34.6997C16.2406 34.2286 16.9269 33.8217 18.3809 33.8217C19.8341 33.8217 20.5208 34.2286 21.3159 34.6997C22.1726 35.2073 23.1437 35.7827 24.9993 35.7827C26.8547 35.7827 27.8254 35.2074 28.6819 34.6998C29.4771 34.2286 30.1639 33.8217 31.6177 33.8217C34.6003 33.8217 34.7521 35.7827 38.2371 35.7827C41.4357 35.7827 41.873 34.1212 44.123 33.8614V37.7832C42.7302 37.9115 41.9084 38.3964 41.1727 38.8325ZM44.1229 32.3904C42.2708 32.5611 41.4372 33.3581 40.44 33.848V19.8494H44.1229V32.3904ZM45.5907 18.3846H40.4401V12.4955H45.5907C47.2144 12.4955 48.5352 13.8164 48.5352 15.4401C48.5352 17.0637 47.2144 18.3846 45.5907 18.3846Z" fill="black"/>
</svg>
