<svg width="50" height="50" viewBox="0 0 50 50" fill="none" xmlns="http://www.w3.org/2000/svg">
<g clip-path="url(#clip0_32_184)">
<path d="M29.3692 27.6084C29.088 27.7063 28.8804 27.9468 28.8246 28.2393C28.7688 28.5318 28.8733 28.8319 29.0988 29.0264C29.3242 29.221 29.6363 29.2805 29.9175 29.1825C36.8388 26.7838 41.0163 19.7379 39.8001 12.5144C38.5838 5.29086 32.3294 0.00146484 25.0042 0.00146484C17.679 0.00146484 11.4245 5.29086 10.2083 12.5144C8.992 19.7379 13.1695 26.7838 20.0908 29.1825C20.5257 29.3337 21.0009 29.1037 21.1521 28.6688C21.3033 28.2339 21.0732 27.7587 20.6383 27.6075C19.1975 27.1047 17.8541 26.3577 16.6667 25.3992V24.4917C16.6633 21.8921 18.2639 19.5599 20.6908 18.6284C23.2725 20.4574 26.7275 20.4574 29.3092 18.6284C31.7361 19.5599 33.3367 21.8921 33.3333 24.4917V25.4025C32.148 26.3594 30.8071 27.1055 29.3692 27.6084ZM19.1667 12.5C19.1667 9.27836 21.7783 6.66669 25 6.66669C28.2216 6.66669 30.8333 9.27836 30.8333 12.5C30.8333 15.7217 28.2216 18.3334 25 18.3334C21.7799 18.3297 19.1703 15.7202 19.1667 12.5ZM30.6667 17.3942C33.2867 14.3682 33.0688 9.81802 30.1716 7.05624C27.2743 4.29446 22.719 4.29446 19.8218 7.05624C16.9245 9.81802 16.7066 14.3682 19.3267 17.3942C16.8729 18.6488 15.2452 21.0861 15.0267 23.8334C10.2762 18.4795 10.6004 10.3299 15.7612 5.37038C20.922 0.410813 29.078 0.410813 34.2388 5.37038C39.3996 10.3299 39.7238 18.4795 34.9733 23.8334C34.754 21.0845 33.1235 18.6465 30.6667 17.3942Z" fill="#0181F5"/>
<path d="M17.8333 49.6759C18.3429 50.0519 19.0224 50.104 19.5833 49.8101L25.0058 46.9926L30.4275 49.8109C30.9897 50.1032 31.6691 50.0514 32.1805 49.6771C32.6919 49.3029 32.9468 48.6711 32.8383 48.0467L31.8083 42.1034L36.1667 37.9026C36.6245 37.4612 36.7913 36.7977 36.5965 36.1922C36.4017 35.5868 35.8793 35.145 35.25 35.0534L29.2 34.1842L26.5 28.7567C26.2197 28.1884 25.6395 27.8299 25.0058 27.8334C24.374 27.8311 23.7958 28.1882 23.515 28.7542L20.8 34.1842L14.7633 35.0526C14.1336 35.1439 13.6109 35.5859 13.416 36.1916C13.2212 36.7974 13.3883 37.4612 13.8467 37.9026L18.2067 42.1034L17.1758 48.0467C17.0657 48.6708 17.3209 49.3031 17.8333 49.6759ZM15 36.7026L21.4683 35.7717C21.7386 35.7329 21.9727 35.5642 22.095 35.3201L25.005 29.5001L27.9025 35.3184C28.0245 35.5634 28.2591 35.7328 28.53 35.7717L35.0117 36.7026L30.3333 41.2101C30.1343 41.402 30.0435 41.6802 30.0908 41.9526L31.1967 48.3334L25.3908 45.3159C25.15 45.1908 24.8633 45.1908 24.6225 45.3159L18.8158 48.3334L19.9217 41.9542C19.969 41.6818 19.8782 41.4037 19.6792 41.2117L15 36.7026Z" fill="#0181F5"/>
<path d="M3.91666 36.8517L3.10249 41.5592C3.02391 41.9981 3.14353 42.4492 3.42924 42.7916C3.71495 43.1339 4.13746 43.3322 4.58333 43.3334C4.82677 43.333 5.06655 43.2741 5.28249 43.1617L9.58333 40.9234L13.8817 43.1667C14.1457 43.3042 14.4631 43.2905 14.7143 43.1305C14.9655 42.9706 15.1122 42.6888 15.0993 42.3914C15.0864 42.0939 14.9157 41.8259 14.6517 41.6884L9.96833 39.2467C9.72705 39.121 9.43961 39.121 9.19833 39.2467L4.80083 41.5375L5.63416 36.7042C5.68151 36.4318 5.59066 36.1536 5.39166 35.9617L1.85249 32.545L6.74999 31.8417C7.02043 31.8027 7.25459 31.6336 7.37666 31.3892L9.58333 26.9775L11.7817 31.3884C11.9039 31.6336 12.1388 31.8031 12.41 31.8417L17.6425 32.5917C18.0981 32.6568 18.5203 32.3402 18.5854 31.8846C18.6505 31.429 18.334 31.0068 17.8783 30.9417L13.0783 30.2542L10.9308 25.9442C10.6764 25.4314 10.1524 25.1081 9.57999 25.1109H9.57499C9.00884 25.1097 8.49148 25.4311 8.24166 25.9392L6.08333 30.2542L1.29749 30.9409C0.724546 31.0172 0.246464 31.416 0.0685435 31.966C-0.109377 32.5159 0.0445247 33.1192 0.46416 33.5167L3.91666 36.8517Z" fill="#0181F5"/>
<path d="M49.925 31.9634C49.751 31.4163 49.2773 31.0185 48.7083 30.9417L43.9167 30.2542L41.7633 25.94C41.5143 25.4306 40.997 25.1073 40.43 25.1067H40.425C39.8523 25.1037 39.3278 25.427 39.0733 25.94L36.9266 30.2492L32.1258 30.9367C31.8311 30.9788 31.5812 31.175 31.4703 31.4513C31.3594 31.7276 31.4044 32.0421 31.5882 32.2763C31.7721 32.5105 32.0669 32.6288 32.3616 32.5867L37.595 31.8367C37.8662 31.7981 38.1011 31.6286 38.2233 31.3834L40.4166 26.9775L42.6192 31.3892C42.7412 31.6337 42.9754 31.8027 43.2458 31.8417L48.1408 32.5442L44.6017 35.9609C44.4026 36.1528 44.3118 36.431 44.3591 36.7034L45.1967 41.5367L40.7991 39.2434C40.5579 39.1177 40.2704 39.1177 40.0292 39.2434L35.3458 41.685C35.0817 41.8226 34.9111 42.0906 34.8982 42.388C34.8853 42.6855 35.032 42.9673 35.2832 43.1272C35.5343 43.2871 35.8517 43.3009 36.1158 43.1634L40.4166 40.9234L44.7167 43.1667C45.2256 43.4312 45.8406 43.3837 46.3029 43.0443C46.7653 42.7048 46.9948 42.1324 46.895 41.5675L46.0833 36.8517L49.5383 33.5184C49.9565 33.1181 50.1069 32.5129 49.925 31.9634Z" fill="#0181F5"/>
<path d="M20.4167 39.2825C20.4568 39.2823 20.4969 39.2793 20.5367 39.2734L23.6708 38.8225C23.9411 38.7837 24.1752 38.615 24.2975 38.3709L25.7475 35.4717C25.9546 35.0598 25.7886 34.558 25.3767 34.3509C24.9647 34.1438 24.4629 34.3098 24.2558 34.7217L23.0058 37.2309L20.3017 37.62C19.8685 37.6818 19.5568 38.0679 19.588 38.5043C19.6191 38.9408 19.9825 39.2788 20.42 39.2784L20.4167 39.2825Z" fill="#0181F5"/>
</g>
<defs>
<clipPath id="clip0_32_184">
<rect width="50" height="50" fill="white"/>
</clipPath>
</defs>
</svg>
