<svg width="50" height="50" viewBox="0 0 50 50" fill="none" xmlns="http://www.w3.org/2000/svg">
<path d="M46.8843 34.417C48.299 33.0022 48.7721 31.0213 48.1496 29.1181C48.0652 28.86 47.8528 28.6644 47.5888 28.6012C47.3244 28.5381 47.0467 28.6166 46.8546 28.8085L44.0308 31.6325L42.6755 31.2692L42.3122 29.9138L45.1361 27.09C45.3281 26.8979 45.4066 26.6201 45.3435 26.3558C45.2804 26.0917 45.0847 25.8793 44.8266 25.795C42.9235 25.1725 40.9425 25.6455 39.5274 27.0604C38.7492 27.8386 38.2562 28.8455 38.0826 29.9057C35.5416 27.5123 32.4282 25.8478 29.0619 25.0563C31.9661 23.6491 34.131 20.925 34.741 17.6091H34.8872C36.083 17.6091 37.0559 16.6364 37.0559 15.4406C37.0559 14.4283 36.3587 13.5758 35.4192 13.338C35.4194 13.3133 35.4195 13.2887 35.4195 13.2641C35.4195 8.71001 32.6218 4.6894 28.4032 3.09048C28.3399 2.71645 28.1845 2.3729 27.9406 2.07554C27.1768 1.14399 25.6963 0.858643 24.5888 0.783252C24.5533 0.780908 24.518 0.780908 24.4825 0.783252C23.375 0.858643 21.8945 1.14409 21.1307 2.07554C20.8867 2.373 20.7313 2.71645 20.6681 3.09048C16.4496 4.6894 13.6518 8.71011 13.6518 13.2641C13.6518 13.2887 13.6519 13.3133 13.652 13.338C12.7126 13.5758 12.0154 14.4283 12.0154 15.4406C12.0154 16.6363 12.9883 17.6091 14.1841 17.6091H14.3303C14.9399 20.9229 17.1025 23.6458 20.004 25.0537C18.0444 25.5136 16.1643 26.2725 14.4217 27.3129L14.353 27.1345C14.237 26.833 13.9472 26.6339 13.6239 26.6339H10.9401C10.6169 26.6339 10.3271 26.833 10.211 27.1345L9.72226 28.4043C9.04658 28.5977 8.39639 28.8673 7.78096 29.2092L6.53662 28.6565C6.24121 28.5254 5.8957 28.5896 5.66709 28.818L3.76924 30.7159C3.54072 30.9445 3.47656 31.2901 3.60771 31.5854L4.16035 32.8296C3.81836 33.4452 3.54873 34.0955 3.35537 34.7711L2.08574 35.2598C1.78418 35.3758 1.58516 35.6657 1.58516 35.9889V38.6727C1.58516 38.9959 1.78418 39.2857 2.08574 39.4018L3.35517 39.8905C3.54863 40.5666 3.81826 41.2169 4.16016 41.8325L3.60771 43.0763C3.47656 43.3716 3.54072 43.7172 3.76934 43.9459L5.66719 45.8436C5.8958 46.0721 6.24131 46.1362 6.53662 46.0051L7.78096 45.4524C8.39639 45.7943 9.04658 46.0639 9.72226 46.2573L10.211 47.5271C10.327 47.8287 10.6169 48.0277 10.9401 48.0277H13.6239C13.9472 48.0277 14.2369 47.8287 14.353 47.5271L14.8417 46.2577C15.5178 46.0642 16.1682 45.7946 16.7836 45.4527L18.0275 46.0051C18.323 46.1364 18.6686 46.0721 18.8971 45.8435L20.7948 43.9457C21.0233 43.7171 21.0875 43.3715 20.9563 43.0762L20.9372 43.0332H24.8163C24.653 43.8831 24.7024 44.7766 24.9841 45.6375C25.0685 45.8957 25.2809 46.0913 25.5449 46.1544C25.8093 46.2176 26.087 46.1391 26.2791 45.9471L29.1029 43.1233L30.4583 43.4865L30.8216 44.8419L27.9978 47.6657C27.8057 47.8578 27.7271 48.1356 27.7902 48.3998C27.8533 48.6639 28.0491 48.8763 28.3072 48.9607C28.844 49.1363 29.3935 49.2218 29.9371 49.2218C31.2923 49.2218 32.6114 48.6901 33.6061 47.6954C34.8452 46.4561 35.361 44.708 35.0369 43.0333H43.4092C43.6309 43.0333 43.8421 42.9391 43.9902 42.7743C44.1384 42.6094 44.2096 42.3893 44.1859 42.1689C43.9508 39.9715 43.357 37.8608 42.4204 35.8774C44.0282 36.1134 45.7143 35.5868 46.8843 34.417ZM20.7764 4.73394L21.3479 9.1355C21.4035 9.56333 21.7944 9.86509 22.2233 9.80962C22.6512 9.75405 22.953 9.36216 22.8975 8.93423L22.2069 3.61616C22.1683 3.3187 22.2572 3.16606 22.339 3.06636C22.6445 2.6938 23.4636 2.42573 24.5357 2.34595C25.6079 2.42573 26.427 2.6938 26.7325 3.06636C26.8143 3.16606 26.9031 3.3186 26.8645 3.61616L26.174 8.93423C26.1186 9.36216 26.4203 9.75405 26.8481 9.80962C26.8823 9.81401 26.9162 9.81616 26.9497 9.81616C27.3364 9.81616 27.6724 9.52915 27.7235 9.1354L28.2951 4.73394C31.657 6.20962 33.8572 9.5269 33.8572 13.2642C33.8572 13.2668 33.8571 13.2695 33.8571 13.2721H30.5555V8.31655C30.5555 7.88511 30.2057 7.5353 29.7742 7.5353C29.3428 7.5353 28.993 7.88511 28.993 8.31655V13.2721H20.0787V8.31655C20.0787 7.88511 19.7289 7.5353 19.2975 7.5353C18.866 7.5353 18.5162 7.88511 18.5162 8.31655V13.2721H15.2146C15.2146 13.2695 15.2146 13.2668 15.2146 13.2642C15.2143 9.527 17.4144 6.20962 20.7764 4.73394ZM13.5779 15.4407C13.5779 15.1065 13.8498 14.8346 14.1841 14.8346H14.4637H34.6074H34.8871C35.2214 14.8346 35.4933 15.1065 35.4933 15.4407C35.4933 15.7749 35.2214 16.0467 34.8871 16.0467H14.9935C14.9932 16.0467 14.9928 16.0467 14.9925 16.0467H14.1841C13.8498 16.0467 13.5779 15.7749 13.5779 15.4407ZM15.9246 17.6092H33.1467C32.2739 21.6109 28.7163 24.5303 24.5356 24.5303C20.355 24.5303 16.7974 21.6109 15.9246 17.6092ZM18.1715 44.3594L17.0519 43.8622C16.8166 43.7576 16.5446 43.7759 16.3251 43.911C15.6276 44.3406 14.8707 44.6543 14.0755 44.8437C13.8249 44.9033 13.6197 45.0826 13.5272 45.323L13.0875 46.4652H11.4766L11.0367 45.3226C10.9442 45.0823 10.7391 44.9029 10.4886 44.8433C9.69365 44.6541 8.93691 44.3404 8.23945 43.9108C8.01992 43.7754 7.74805 43.7577 7.51269 43.862L6.39258 44.3594L5.25342 43.2204L5.75068 42.1008C5.85518 41.8654 5.83701 41.5935 5.70185 41.3741C5.27226 40.6765 4.95849 39.9196 4.76914 39.1244C4.70957 38.8738 4.53027 38.6686 4.28984 38.5761L3.14766 38.1364V36.5254L4.29004 36.0857C4.53037 35.9932 4.70977 35.788 4.76934 35.5375C4.95859 34.7426 5.27226 33.9859 5.70195 33.2882C5.83711 33.0688 5.85527 32.7969 5.75078 32.5615L5.25342 31.4416L6.39258 30.3024L7.5126 30.7999C7.74795 30.9043 8.01982 30.8863 8.23935 30.751C8.93691 30.3215 9.69365 30.0078 10.4885 29.8185C10.739 29.7589 10.9441 29.5795 11.0366 29.3392L11.4765 28.1966H13.0874L13.5272 29.3392C13.6197 29.5795 13.8249 29.7589 14.0754 29.8185C14.8703 30.0078 15.6271 30.3214 16.3245 30.751C16.544 30.8863 16.816 30.9042 17.0513 30.7999L18.1713 30.3024L19.3104 31.4415L18.8132 32.561C18.7087 32.7964 18.7269 33.0683 18.8619 33.2876C19.2916 33.9855 19.6055 34.7424 19.7947 35.5375C19.8543 35.7881 20.0336 35.9933 20.274 36.0858L21.4162 36.5254V38.1364L20.2736 38.5762C20.0333 38.6687 19.8539 38.8739 19.7943 39.1244C19.6051 39.9193 19.2914 40.676 18.8618 41.3735C18.7267 41.5929 18.7085 41.8648 18.813 42.1002L19.3104 43.2203L18.1715 44.3594ZM26.2494 40.3386C25.9067 40.6814 25.6192 41.0627 25.3893 41.4707H20.5929C20.846 40.9637 21.0524 40.4356 21.2084 39.8906L22.4782 39.4018C22.7798 39.2858 22.9788 38.9959 22.9788 38.6727V35.9889C22.9788 35.6657 22.7798 35.3759 22.4782 35.2598L21.2088 34.7712C21.0154 34.0953 20.7457 33.4449 20.4037 32.8292L20.9562 31.5853C21.0874 31.29 21.0232 30.9444 20.7946 30.7158L18.8968 28.818C18.6683 28.5895 18.3228 28.5255 18.0273 28.6565L16.783 29.2092C16.3276 28.9563 15.8532 28.7431 15.3635 28.5708C18.1404 26.9467 21.2896 26.0927 24.5355 26.0927C29.7617 26.0927 34.7154 28.3325 38.1745 32.2456L31.395 39.025C29.58 38.4906 27.6085 38.9796 26.2494 40.3386ZM33.2973 42.6392C33.8529 44.0001 33.5404 45.551 32.5011 46.5905C31.8769 47.2147 31.0705 47.5783 30.2265 47.6465L32.2453 45.6278C32.4427 45.4304 32.5197 45.1427 32.4475 44.8731L31.8508 42.6462C31.7785 42.3766 31.568 42.1661 31.2983 42.0938L29.0716 41.4972C29.0047 41.4792 28.9368 41.4707 28.8694 41.4707C28.6649 41.4707 28.4654 41.551 28.317 41.6995L26.2982 43.7183C26.3666 42.8743 26.7303 42.0677 27.3543 41.4435C28.3937 40.4042 29.9442 40.0919 31.3057 40.6474C31.5968 40.7663 31.9309 40.699 32.1534 40.4766L39.6656 32.9644C39.888 32.7419 39.9554 32.4079 39.8364 32.1166C39.2893 30.7765 39.6093 29.1886 40.6324 28.1654C41.2693 27.5286 42.07 27.1644 42.9148 27.1016L40.8885 29.1279C40.6911 29.3252 40.6141 29.6129 40.6863 29.8826L41.283 32.1093C41.3553 32.379 41.5658 32.5895 41.8354 32.6618L44.062 33.2584C44.3316 33.3308 44.6193 33.2536 44.8168 33.0563L46.8431 31.0299C46.7803 31.8747 46.4162 32.6754 45.7794 33.3121C44.7561 34.3354 43.1683 34.6556 41.8282 34.1082C41.5369 33.9894 41.2029 34.0568 40.9804 34.2791L33.4681 41.7914C33.2457 42.0139 33.1783 42.348 33.2973 42.6392ZM35.9985 41.4707L40.9813 36.4878C41.7342 38.0685 42.25 39.7375 42.5191 41.4707H35.9985ZM12.282 31.8691C9.27041 31.8691 6.82021 34.3193 6.82021 37.3309C6.82021 40.3426 9.27041 42.7928 12.282 42.7928C15.2937 42.7928 17.7438 40.3426 17.7438 37.3309C17.7437 34.3193 15.2936 31.8691 12.282 31.8691ZM12.282 41.2302C10.1319 41.2302 8.38271 39.481 8.38271 37.3308C8.38271 35.1807 10.1319 33.4315 12.282 33.4315C14.4321 33.4315 16.1813 35.1807 16.1813 37.3308C16.1813 39.481 14.432 41.2302 12.282 41.2302Z" fill="#0181F5"/>
</svg>
