<svg width="50" height="50" viewBox="0 0 50 50" fill="none" xmlns="http://www.w3.org/2000/svg">
<g clip-path="url(#clip0_344_2116)">
<path d="M0.732422 24.8535H49.2676V39.502H0.732422V24.8535Z" fill="#2ACCF4"/>
<path d="M46.3379 24.8535H49.2676V39.502H46.3379V24.8535Z" fill="#22B3EB"/>
<path d="M0.732422 21.9238H49.2676V24.8535H0.732422V21.9238Z" fill="#8AEEFF"/>
<path d="M46.3379 21.9238H49.2676V24.8535H46.3379V21.9238Z" fill="#63E5FF"/>
<path d="M11.6211 39.0625H8.69141V13.8672C8.69141 13.0582 9.34727 12.4023 10.1562 12.4023C10.9652 12.4023 11.6211 13.0582 11.6211 13.8672V39.0625Z" fill="#F1F1F1"/>
<path d="M22.9492 39.0625H20.0195V13.8672C20.0195 13.0582 20.6754 12.4023 21.4844 12.4023C22.2934 12.4023 22.9492 13.0582 22.9492 13.8672V39.0625Z" fill="#F1F1F1"/>
<path d="M49.2676 33.7402C47.245 33.7402 47.245 35.4337 45.2224 35.4337C43.1997 35.4337 43.1998 33.7402 41.1771 33.7402C39.1548 33.7402 39.1548 35.4337 37.1325 35.4337C35.1102 35.4337 35.1102 33.7402 33.0878 33.7402C31.0655 33.7402 31.0655 35.4337 29.0432 35.4337C27.0209 35.4337 27.0209 33.7402 24.9986 33.7402C22.9767 33.7402 22.9767 35.4337 20.9546 35.4337C18.9323 35.4337 18.9323 33.7402 16.9102 33.7402C14.8879 33.7402 14.8879 35.4337 12.8655 35.4337C10.8433 35.4337 10.8433 33.7402 8.821 33.7402C6.79883 33.7402 6.79883 35.4337 4.77666 35.4337C2.75449 35.4337 2.75449 33.7402 0.732422 33.7402V43.7988C0.732422 46.8191 3.18086 49.2676 6.20117 49.2676H43.7988C46.8191 49.2676 49.2676 46.8191 49.2676 43.7988V33.7402Z" fill="#B9F5FF"/>
<path d="M26.1135 35.4337C26.7681 35.4337 27.2104 35.2559 27.5784 35.0158C26.8095 34.5144 26.3664 33.7402 24.9987 33.7402C24.3441 33.7402 23.9019 33.9181 23.5339 34.1581C24.3027 34.6596 24.7459 35.4337 26.1135 35.4337Z" fill="#8AEEFF"/>
<path d="M34.2029 35.4337C34.8575 35.4337 35.2998 35.2559 35.6678 35.0159C34.8988 34.5145 34.4557 33.7402 33.0879 33.7402C32.4333 33.7402 31.9911 33.9181 31.623 34.1581C32.392 34.6595 32.8352 35.4337 34.2029 35.4337Z" fill="#8AEEFF"/>
<path d="M18.025 35.4337C18.6796 35.4337 19.1218 35.2559 19.4897 35.0158C18.721 34.5144 18.2777 33.7402 16.9102 33.7402C16.2556 33.7402 15.8133 33.9181 15.4453 34.1581C16.2143 34.6596 16.6574 35.4337 18.025 35.4337Z" fill="#8AEEFF"/>
<path d="M42.2927 35.4337C42.9473 35.4337 43.3896 35.256 43.7575 35.016C42.9884 34.5146 42.5452 33.7402 41.1771 33.7402C40.5226 33.7402 40.0804 33.9181 39.7124 34.158C40.4815 34.6595 40.9247 35.4337 42.2927 35.4337Z" fill="#8AEEFF"/>
<path d="M46.3379 35.2091V43.7988C46.3379 46.8191 43.8895 49.2676 40.8691 49.2676H43.7988C46.8191 49.2676 49.2676 46.8191 49.2676 43.7988V33.7402C47.7063 33.7402 47.3495 34.7488 46.3379 35.2091Z" fill="#8AEEFF"/>
<path d="M1.84697 35.4337C2.50156 35.4337 2.94385 35.2559 3.31182 35.0158C2.54307 34.5144 2.0999 33.7402 0.732422 33.7402V35.2095C1.03105 35.3452 1.38623 35.4337 1.84697 35.4337Z" fill="#8AEEFF"/>
<path d="M9.93589 35.4337C10.5905 35.4337 11.0328 35.2559 11.4007 35.0158C10.6319 34.5144 10.1887 33.7402 8.82104 33.7402C8.16646 33.7402 7.72427 33.9181 7.3562 34.1581C8.12505 34.6596 8.56821 35.4337 9.93589 35.4337Z" fill="#8AEEFF"/>
<path d="M11.6211 15.0879H20.0195V18.0176H11.6211V15.0879Z" fill="#D0D0D0"/>
<path d="M11.6211 21.9238H20.0195V24.8535H11.6211V21.9238Z" fill="#D0D0D0"/>
<path d="M11.6211 28.7598H20.0195V31.6895H11.6211V28.7598Z" fill="#D0D0D0"/>
<path d="M38.8672 13.5742C41.456 13.5742 43.5547 11.4756 43.5547 8.88672C43.5547 6.29788 41.456 4.19922 38.8672 4.19922C36.2784 4.19922 34.1797 6.29788 34.1797 8.88672C34.1797 11.4756 36.2784 13.5742 38.8672 13.5742Z" fill="#FFD54F"/>
<path d="M38.8672 4.19922C38.3555 4.19922 37.8634 4.28232 37.4023 4.43398C39.2735 5.04922 40.625 6.80967 40.625 8.88672C40.625 10.9638 39.2735 12.7242 37.4023 13.3395C37.8634 13.491 38.3555 13.5742 38.8672 13.5742C41.4561 13.5742 43.5547 11.4756 43.5547 8.88672C43.5547 6.29785 41.4561 4.19922 38.8672 4.19922Z" fill="#FFC128"/>
<path d="M49.2676 21.1914H46.9727C46.5682 21.1914 46.2402 21.5193 46.2402 21.9238C46.2402 22.3283 46.5682 22.6562 46.9727 22.6562H48.5352V24.1211H23.6816V22.6562H43.5547C43.9592 22.6562 44.2871 22.3283 44.2871 21.9238C44.2871 21.5193 43.9592 21.1914 43.5547 21.1914H23.6816V13.8672C23.6816 13.2796 23.4525 12.7277 23.0384 12.315C22.6238 11.899 22.072 11.6699 21.4844 11.6699C20.2728 11.6699 19.2871 12.6556 19.2871 13.8672V14.3555H12.3535V13.8672C12.3535 13.2796 12.1244 12.7277 11.7103 12.315C11.2957 11.899 10.7438 11.6699 10.1562 11.6699C8.94463 11.6699 7.95898 12.6556 7.95898 13.8672V15.6225C7.95898 16.027 8.28691 16.3549 8.69141 16.3549C9.0959 16.3549 9.42383 16.027 9.42383 15.6225V13.8672C9.42383 13.4633 9.75234 13.1348 10.1562 13.1348C10.3516 13.1348 10.535 13.2108 10.6744 13.3509C10.8126 13.4885 10.8887 13.6719 10.8887 13.8672V33.6853C10.5172 33.4111 10.06 33.1563 9.42383 33.0549V18.7074C9.42383 18.3029 9.0959 17.975 8.69141 17.975C8.28691 17.975 7.95898 18.3029 7.95898 18.7074V21.1914H0.732422C0.32793 21.1914 0 21.5193 0 21.9238V43.7988C0 47.2182 2.78184 50 6.20117 50H43.7988C47.2182 50 50 47.2182 50 43.7988V21.9238C50 21.5193 49.6721 21.1914 49.2676 21.1914ZM20.752 13.8672C20.752 13.4634 21.0805 13.1348 21.4844 13.1348C21.6797 13.1348 21.8631 13.2108 22.0025 13.3509C22.1407 13.4885 22.2168 13.6719 22.2168 13.8672V34.2614C21.8735 34.5263 21.5393 34.7014 20.9546 34.7014C20.8831 34.7014 20.8164 34.698 20.752 34.6929V13.8672ZM19.2871 24.1211H12.3535V22.6562H19.2871V24.1211ZM19.2871 25.5859V28.0273H12.3535V25.5859H19.2871ZM12.3535 29.4922H19.2871V30.957H12.3535V29.4922ZM19.2871 21.1914H12.3535V18.75H19.2871V21.1914ZM12.3535 32.4219H19.2871V33.9292C18.7642 33.4961 18.0983 33.0078 16.9102 33.0078C15.6328 33.0078 14.9591 33.5721 14.4176 34.0254C13.949 34.4178 13.6105 34.7013 12.8655 34.7013C12.6699 34.7013 12.5028 34.6812 12.3535 34.6453V32.4219ZM19.2871 15.8203V17.2852H12.3535V15.8203H19.2871ZM1.46484 25.5859H7.95898V33.1058C7.21113 33.2869 6.73281 33.687 6.32861 34.0255C5.86016 34.4179 5.52158 34.7013 4.77666 34.7013C4.03184 34.7013 3.69326 34.4178 3.2248 34.0255C2.79795 33.668 2.2873 33.2427 1.46484 33.0783V25.5859ZM1.46484 22.6562H7.95898V24.1211H1.46484V22.6562ZM48.5352 43.7988C48.5352 46.4104 46.4104 48.5352 43.7988 48.5352H6.20117C3.58955 48.5352 1.46484 46.4104 1.46484 43.7988V34.5973C1.76855 34.7165 2.00293 34.9129 2.28428 35.1484C2.82559 35.6019 3.49941 36.1661 4.77666 36.1661C6.05391 36.1661 6.72773 35.6019 7.26904 35.1485C7.7375 34.7562 8.07607 34.4727 8.821 34.4727C9.56592 34.4727 9.90449 34.7562 10.373 35.1485C10.6237 35.3585 10.9038 35.5916 11.258 35.782C11.2696 35.7887 11.2814 35.7948 11.2935 35.8009C11.6981 36.0121 12.1993 36.1662 12.8656 36.1662C14.143 36.1662 14.8167 35.602 15.3581 35.1486C15.8267 34.7563 16.1652 34.4728 16.9103 34.4728C17.6552 34.4728 17.9937 34.7563 18.4623 35.1486C18.8065 35.4369 19.205 35.7693 19.7772 35.9737C19.7887 35.9777 19.7999 35.9818 19.8115 35.9853C20.132 36.0955 20.5054 36.1662 20.9547 36.1662C22.2319 36.1662 22.9057 35.602 23.447 35.1485C23.9154 34.7562 24.2539 34.4728 24.9987 34.4728C25.7437 34.4728 26.0822 34.7563 26.5508 35.1486C27.0922 35.6021 27.766 36.1662 29.0433 36.1662C29.2407 36.1662 29.4327 36.1524 29.614 36.1254C30.0141 36.0655 30.2898 35.6927 30.23 35.2927C30.1701 34.8927 29.797 34.6171 29.3973 34.6767C29.2874 34.6931 29.1684 34.7014 29.0433 34.7014C28.2983 34.7014 27.9598 34.4179 27.4912 34.0255C26.9498 33.5721 26.276 33.0079 24.9987 33.0079C24.4656 33.0079 24.0388 33.1069 23.6817 33.2545V25.5859H48.5352V33.0782C47.7125 33.2426 47.2018 33.6679 46.7748 34.0254C46.3062 34.4178 45.9676 34.7013 45.2225 34.7013C44.4773 34.7013 44.1387 34.4178 43.6701 34.0254C43.1286 33.572 42.4548 33.0078 41.1773 33.0078C39.9 33.0078 39.2263 33.5721 38.6849 34.0254C38.2163 34.4178 37.8777 34.7013 37.1327 34.7013C36.3877 34.7013 36.0491 34.4178 35.5805 34.0254C35.0391 33.572 34.3652 33.0078 33.0879 33.0078C32.6897 33.0078 32.3317 33.0612 31.9936 33.1712C31.6089 33.2963 31.3984 33.7095 31.5235 34.0942C31.6486 34.4789 32.0618 34.6895 32.4466 34.5643C32.6361 34.5026 32.8459 34.4727 33.0879 34.4727C33.8329 34.4727 34.1715 34.7562 34.64 35.1485C35.1814 35.602 35.8553 36.1661 37.1326 36.1661C38.41 36.1661 39.0837 35.6019 39.6252 35.1485C40.0938 34.7562 40.4322 34.4727 41.1772 34.4727C41.9224 34.4727 42.261 34.7562 42.7296 35.1485C43.2711 35.6019 43.9449 36.1661 45.2224 36.1661C46.4998 36.1661 47.1736 35.6019 47.7151 35.1485C47.9966 34.9128 48.2312 34.7164 48.5351 34.5972V43.7988H48.5352Z" fill="black"/>
<path d="M38.8672 3.4668C35.8786 3.4668 33.4473 5.89814 33.4473 8.88672C33.4473 11.8753 35.8786 14.3066 38.8672 14.3066C41.8558 14.3066 44.2871 11.8753 44.2871 8.88672C44.2871 5.89814 41.8558 3.4668 38.8672 3.4668ZM38.8672 12.8418C36.6863 12.8418 34.9121 11.0676 34.9121 8.88672C34.9121 6.70586 36.6863 4.93164 38.8672 4.93164C41.048 4.93164 42.8223 6.70586 42.8223 8.88672C42.8223 11.0676 41.048 12.8418 38.8672 12.8418Z" fill="black"/>
<path d="M38.8672 2.83203C39.2717 2.83203 39.5996 2.5041 39.5996 2.09961V0.732422C39.5996 0.32793 39.2717 0 38.8672 0C38.4627 0 38.1348 0.32793 38.1348 0.732422V2.09961C38.1348 2.5041 38.4627 2.83203 38.8672 2.83203Z" fill="black"/>
<path d="M38.1836 15.5762V16.9434C38.1836 17.3479 38.5115 17.6758 38.916 17.6758C39.3205 17.6758 39.6484 17.3479 39.6484 16.9434V15.5762C39.6484 15.1717 39.3205 14.8438 38.916 14.8438C38.5115 14.8438 38.1836 15.1717 38.1836 15.5762Z" fill="black"/>
<path d="M34.8639 3.36853C34.9995 3.60349 35.2457 3.73484 35.4988 3.73484C35.623 3.73484 35.7491 3.7032 35.8644 3.6366C36.2147 3.43435 36.3347 2.98641 36.1324 2.63611L35.4488 1.45213C35.2466 1.10183 34.7984 0.981815 34.4483 1.18406C34.0981 1.38631 33.978 1.83426 34.1803 2.18455L34.8639 3.36853Z" fill="black"/>
<path d="M41.9125 14.0147C41.5622 14.2169 41.4421 14.6649 41.6444 15.0152L42.328 16.1992C42.4636 16.4341 42.7098 16.5655 42.9629 16.5655C43.0872 16.5655 43.2132 16.5338 43.3285 16.4672C43.6788 16.265 43.7988 15.817 43.5965 15.4667L42.9129 14.2828C42.7107 13.9324 42.2626 13.8123 41.9125 14.0147Z" fill="black"/>
<path d="M31.4815 5.41948L32.6655 6.10307C32.7809 6.16967 32.9068 6.20131 33.0311 6.20131C33.2842 6.20131 33.5304 6.06997 33.666 5.835C33.8683 5.48471 33.7482 5.03676 33.398 4.83452L32.214 4.15092C31.8637 3.94858 31.4157 4.0686 31.2135 4.41899C31.0112 4.76928 31.1313 5.21723 31.4815 5.41948Z" fill="black"/>
<path d="M44.361 12.799L45.545 13.4826C45.6603 13.5492 45.7863 13.5808 45.9105 13.5808C46.1636 13.5808 46.4098 13.4495 46.5455 13.2145C46.7477 12.8642 46.6277 12.4163 46.2774 12.214L45.0934 11.5304C44.7431 11.3281 44.2952 11.4481 44.0929 11.7985C43.8906 12.1488 44.0106 12.5967 44.361 12.799Z" fill="black"/>
<path d="M30.7617 9.57031H32.1289C32.5334 9.57031 32.8613 9.24238 32.8613 8.83789C32.8613 8.4334 32.5334 8.10547 32.1289 8.10547H30.7617C30.3572 8.10547 30.0293 8.4334 30.0293 8.83789C30.0293 9.24238 30.3572 9.57031 30.7617 9.57031Z" fill="black"/>
<path d="M44.873 8.78906C44.873 9.19355 45.201 9.52148 45.6055 9.52148H46.9727C47.3771 9.52148 47.7051 9.19355 47.7051 8.78906C47.7051 8.38457 47.3771 8.05664 46.9727 8.05664H45.6055C45.201 8.05664 44.873 8.38457 44.873 8.78906Z" fill="black"/>
<path d="M32.6655 11.5728L31.4815 12.2564C31.1313 12.4587 31.0112 12.9066 31.2135 13.2569C31.3491 13.4919 31.5953 13.6232 31.8484 13.6232C31.9727 13.6232 32.0987 13.5915 32.214 13.525L33.398 12.8414C33.7482 12.6391 33.8683 12.1912 33.666 11.8409C33.4638 11.4906 33.0156 11.3707 32.6655 11.5728Z" fill="black"/>
<path d="M44.679 6.15899C44.8032 6.15899 44.9293 6.12725 45.0445 6.06075L46.2285 5.37715C46.5788 5.17491 46.6988 4.72696 46.4966 4.37667C46.2943 4.02628 45.8462 3.90645 45.4961 4.1086L44.3121 4.79219C43.9618 4.99444 43.8418 5.44239 44.044 5.79268C44.1797 6.02764 44.4259 6.15899 44.679 6.15899Z" fill="black"/>
<path d="M34.8639 14.3072L34.1803 15.4912C33.978 15.8415 34.0981 16.2894 34.4483 16.4917C34.5637 16.5583 34.6897 16.5899 34.8139 16.5899C35.067 16.5899 35.3132 16.4586 35.4488 16.2236L36.1324 15.0396C36.3347 14.6893 36.2147 14.2414 35.8644 14.0391C35.514 13.8367 35.0661 13.9568 34.8639 14.3072Z" fill="black"/>
<path d="M41.8278 3.61225C41.9431 3.67885 42.0691 3.71049 42.1933 3.71049C42.4465 3.71049 42.6926 3.57915 42.8283 3.34418L43.5119 2.1602C43.7141 1.80991 43.5941 1.36196 43.2438 1.15971C42.8935 0.957368 42.4456 1.07739 42.2433 1.42778L41.5597 2.61176C41.3574 2.96206 41.4774 3.41 41.8278 3.61225Z" fill="black"/>
<path d="M11.7188 38.7207H8.78906C8.38457 38.7207 8.05664 39.0486 8.05664 39.4531C8.05664 39.8576 8.38457 40.1855 8.78906 40.1855H11.7188C12.1232 40.1855 12.4512 39.8576 12.4512 39.4531C12.4512 39.0486 12.1232 38.7207 11.7188 38.7207Z" fill="black"/>
<path d="M41.2109 43.0176H37.3047C36.9002 43.0176 36.5723 43.3455 36.5723 43.75C36.5723 44.1545 36.9002 44.4824 37.3047 44.4824H41.2109C41.6154 44.4824 41.9434 44.1545 41.9434 43.75C41.9434 43.3455 41.6154 43.0176 41.2109 43.0176Z" fill="black"/>
<path d="M32.8125 40.1855H24.6094C24.2049 40.1855 23.877 40.5135 23.877 40.918C23.877 41.3225 24.2049 41.6504 24.6094 41.6504H32.8125C33.217 41.6504 33.5449 41.3225 33.5449 40.918C33.5449 40.5135 33.217 40.1855 32.8125 40.1855Z" fill="black"/>
<path d="M19.5312 42.334H14.0625C13.658 42.334 13.3301 42.6619 13.3301 43.0664C13.3301 43.4709 13.658 43.7988 14.0625 43.7988H19.5312C19.9357 43.7988 20.2637 43.4709 20.2637 43.0664C20.2637 42.6619 19.9357 42.334 19.5312 42.334Z" fill="black"/>
</g>
<defs>
<clipPath id="clip0_344_2116">
<rect width="50" height="50" fill="white"/>
</clipPath>
</defs>
</svg>
