<svg width="50" height="50" viewBox="0 0 50 50" fill="none" xmlns="http://www.w3.org/2000/svg">
<g clip-path="url(#clip0_32_198)">
<path d="M46.6667 22.5833V21.6667C46.6667 15.9203 44.3839 10.4093 40.3206 6.34602C36.2574 2.28273 30.7464 0 25 0C19.2536 0 13.7426 2.28273 9.67935 6.34602C5.61606 10.4093 3.33333 15.9203 3.33333 21.6667V22.5833C2.39284 22.7767 1.54779 23.2885 0.940598 24.0323C0.333408 24.7761 0.0012121 25.7065 0 26.6667L0 33.3333C0.00132321 34.438 0.440735 35.497 1.22185 36.2782C2.00296 37.0593 3.062 37.4987 4.16667 37.5H7.5C8.08341 37.4991 8.64812 37.2941 9.09632 36.9206C9.54452 36.5471 9.84799 36.0287 9.95417 35.455C11.0031 37.6607 12.5229 39.6097 14.4064 41.1646C16.2899 42.7196 18.4914 43.8427 20.8558 44.455C20.4239 44.9323 20.1401 45.5248 20.039 46.1606C19.9379 46.7963 20.0239 47.4477 20.2865 48.0354C20.549 48.6231 20.9769 49.1217 21.5179 49.4706C22.0589 49.8194 22.6896 50.0033 23.3333 50H27.5C27.8496 49.9989 28.1951 49.9241 28.5138 49.7805C28.8326 49.6369 29.1175 49.4278 29.35 49.1667H34.1667C37.349 49.1614 40.4095 47.9432 42.7249 45.76C45.0403 43.5769 46.4362 40.5932 46.6283 37.4167C47.5761 37.2315 48.4303 36.7232 49.0451 35.9786C49.66 35.2339 49.9975 34.299 50 33.3333V26.6667C49.9988 25.7065 49.6666 24.7761 49.0594 24.0323C48.4522 23.2885 47.6072 22.7767 46.6667 22.5833ZM25 1.66667C30.3024 1.67284 35.3859 3.78196 39.1353 7.53135C42.8847 11.2807 44.9938 16.3642 45 21.6667V22.5H43.3333V21.6667C43.3333 16.8044 41.4018 12.1412 37.9636 8.70304C34.5255 5.26488 29.8623 3.33333 25 3.33333C20.1377 3.33333 15.4745 5.26488 12.0364 8.70304C8.59821 12.1412 6.66667 16.8044 6.66667 21.6667V22.5H5V21.6667C5.00618 16.3642 7.11529 11.2807 10.8647 7.53135C14.6141 3.78196 19.6976 1.67284 25 1.66667ZM41.6325 37.3333C41.4647 39.1984 40.6059 40.9333 39.2246 42.1976C37.8432 43.4619 36.0392 44.1642 34.1667 44.1667H30.1767C32.3253 43.4574 34.3077 42.3196 36.0041 40.8223C37.7004 39.3249 39.0754 37.499 40.0458 35.455C40.1261 35.8783 40.3143 36.2736 40.5923 36.6027C40.8703 36.9318 41.2286 37.1835 41.6325 37.3333ZM25 11.6667C21.488 11.6715 18.0671 12.7842 15.2243 14.8463C12.3815 16.9084 10.2617 19.8148 9.16667 23.1517C8.92436 22.932 8.64121 22.7621 8.33333 22.6517V21.6667C8.33333 17.2464 10.0893 13.0072 13.2149 9.88155C16.3405 6.75595 20.5797 5 25 5C29.4203 5 33.6595 6.75595 36.7851 9.88155C39.9107 13.0072 41.6667 17.2464 41.6667 21.6667V22.6533C41.3588 22.7637 41.0756 22.9336 40.8333 23.1533C39.7386 19.8161 37.6189 16.9094 34.7761 14.847C31.9332 12.7846 28.5122 11.6716 25 11.6667ZM8.33333 35C8.33333 35.221 8.24554 35.433 8.08926 35.5893C7.93297 35.7455 7.72101 35.8333 7.5 35.8333H4.16667C3.50363 35.8333 2.86774 35.5699 2.3989 35.1011C1.93006 34.6323 1.66667 33.9964 1.66667 33.3333V26.6667C1.66667 26.0036 1.93006 25.3677 2.3989 24.8989C2.86774 24.4301 3.50363 24.1667 4.16667 24.1667H7.5C7.72101 24.1667 7.93297 24.2545 8.08926 24.4107C8.24554 24.567 8.33333 24.779 8.33333 25V35ZM10 28.3333C10 25.3666 10.8797 22.4665 12.528 19.9998C14.1762 17.533 16.5189 15.6105 19.2597 14.4751C22.0006 13.3398 25.0166 13.0428 27.9264 13.6216C30.8361 14.2003 33.5088 15.6289 35.6066 17.7267C37.7044 19.8245 39.133 22.4973 39.7118 25.407C40.2906 28.3167 39.9935 31.3327 38.8582 34.0736C37.7229 36.8145 35.8003 39.1572 33.3336 40.8054C30.8668 42.4536 27.9667 43.3333 25 43.3333C21.0232 43.3287 17.2106 41.7469 14.3985 38.9348C11.5865 36.1228 10.0046 32.3102 10 28.3333ZM28.3333 47.5C28.3333 47.721 28.2455 47.933 28.0893 48.0893C27.933 48.2455 27.721 48.3333 27.5 48.3333H23.3333C22.8913 48.3333 22.4674 48.1577 22.1548 47.8452C21.8423 47.5326 21.6667 47.1087 21.6667 46.6667C21.6667 46.2246 21.8423 45.8007 22.1548 45.4882C22.4674 45.1756 22.8913 45 23.3333 45H27.5C27.721 45 27.933 45.0878 28.0893 45.2441C28.2455 45.4004 28.3333 45.6123 28.3333 45.8333V47.5ZM34.1667 47.5H30V45.8333H34.1667C36.4522 45.8303 38.6544 44.9743 40.342 43.433C42.0296 41.8917 43.0812 39.7759 43.2908 37.5H44.9575C44.746 40.2184 43.5179 42.7573 41.518 44.6106C39.5181 46.464 36.8933 47.4956 34.1667 47.5ZM48.3333 33.3333C48.3333 33.9964 48.0699 34.6323 47.6011 35.1011C47.1323 35.5699 46.4964 35.8333 45.8333 35.8333H42.5C42.279 35.8333 42.067 35.7455 41.9107 35.5893C41.7545 35.433 41.6667 35.221 41.6667 35V25C41.6667 24.779 41.7545 24.567 41.9107 24.4107C42.067 24.2545 42.279 24.1667 42.5 24.1667H45.8333C46.4964 24.1667 47.1323 24.4301 47.6011 24.8989C48.0699 25.3677 48.3333 26.0036 48.3333 26.6667V33.3333Z" fill="#0181F5"/>
<path d="M15.49 29.9166C16.3858 29.265 17.5 28.455 17.5 26.8183C17.5184 26.1356 17.2657 25.4734 16.7973 24.9765C16.3288 24.4796 15.6826 24.1884 15 24.1666C14.4787 24.1987 13.9765 24.3742 13.5487 24.6737C13.1209 24.9733 12.7842 25.3853 12.5758 25.8641C12.4855 26.0642 12.4778 26.2918 12.5543 26.4975C12.6308 26.7033 12.7854 26.8705 12.9845 26.9629C13.1836 27.0553 13.4111 27.0655 13.6176 26.9911C13.8242 26.9167 13.993 26.7639 14.0875 26.5658C14.0875 26.5583 14.455 25.8333 15 25.8333C15.2407 25.8545 15.4633 25.9699 15.6193 26.1544C15.7754 26.3388 15.8523 26.5774 15.8333 26.8183C15.8333 27.5683 15.355 27.9533 14.51 28.5683C13.6142 29.2191 12.5 30.03 12.5 31.6666C12.5 31.8876 12.5878 32.0996 12.7441 32.2559C12.9004 32.4122 13.1123 32.5 13.3333 32.5H16.6667C16.8877 32.5 17.0996 32.4122 17.2559 32.2559C17.4122 32.0996 17.5 31.8876 17.5 31.6666C17.5 31.4456 17.4122 31.2337 17.2559 31.0774C17.0996 30.9211 16.8877 30.8333 16.6667 30.8333H14.4375C14.7427 30.479 15.0971 30.1703 15.49 29.9166Z" fill="#0181F5"/>
<path d="M24.1667 29.1666H23.3334V28.3333C23.3334 28.1123 23.2456 27.9003 23.0893 27.744C22.933 27.5878 22.721 27.5 22.5 27.5C22.279 27.5 22.067 27.5878 21.9108 27.744C21.7545 27.9003 21.6667 28.1123 21.6667 28.3333V29.1666H20.8334V25C20.8334 24.7789 20.7456 24.567 20.5893 24.4107C20.433 24.2544 20.221 24.1666 20 24.1666C19.779 24.1666 19.567 24.2544 19.4108 24.4107C19.2545 24.567 19.1667 24.7789 19.1667 25V30C19.1667 30.221 19.2545 30.4329 19.4108 30.5892C19.567 30.7455 19.779 30.8333 20 30.8333H21.6667V31.6666C21.6667 31.8876 21.7545 32.0996 21.9108 32.2559C22.067 32.4122 22.279 32.5 22.5 32.5C22.721 32.5 22.933 32.4122 23.0893 32.2559C23.2456 32.0996 23.3334 31.8876 23.3334 31.6666V30.8333H24.1667C24.3877 30.8333 24.5997 30.7455 24.7559 30.5892C24.9122 30.4329 25 30.221 25 30C25 29.7789 24.9122 29.567 24.7559 29.4107C24.5997 29.2544 24.3877 29.1666 24.1667 29.1666Z" fill="#0181F5"/>
<path d="M26.5 33.3166C26.5548 33.3281 26.6107 33.3337 26.6667 33.3333C26.8586 33.3331 27.0447 33.2667 27.1933 33.1453C27.342 33.0238 27.4441 32.8547 27.4825 32.6666L29.1492 24.3333C29.1842 24.1201 29.1351 23.9016 29.0122 23.724C28.8893 23.5463 28.7022 23.4233 28.4903 23.3809C28.2785 23.3386 28.0584 23.3801 27.8766 23.4969C27.6948 23.6136 27.5655 23.7964 27.5158 24.0066L25.8492 32.34C25.8069 32.5557 25.8516 32.7794 25.9735 32.9623C26.0954 33.1452 26.2846 33.2726 26.5 33.3166Z" fill="#0181F5"/>
<path d="M31.6666 25.8333H34.3333L30.9641 31.225C30.847 31.4129 30.8093 31.6396 30.8593 31.8552C30.9093 32.0709 31.043 32.2579 31.2308 32.375C31.4187 32.4921 31.6454 32.5298 31.861 32.4798C32.0767 32.4298 32.2637 32.2962 32.3808 32.1083L36.5475 25.4417C36.6267 25.315 36.6703 25.1693 36.6739 25.02C36.6775 24.8706 36.6409 24.7231 36.5679 24.5927C36.4949 24.4624 36.3882 24.3541 36.2589 24.2791C36.1297 24.2041 35.9827 24.1653 35.8333 24.1667H31.6666C31.4456 24.1667 31.2337 24.2545 31.0774 24.4107C30.9211 24.567 30.8333 24.779 30.8333 25C30.8333 25.221 30.9211 25.433 31.0774 25.5892C31.2337 25.7455 31.4456 25.8333 31.6666 25.8333Z" fill="#0181F5"/>
</g>
<defs>
<clipPath id="clip0_32_198">
<rect width="50" height="50" fill="white"/>
</clipPath>
</defs>
</svg>
