<svg width="50" height="50" viewBox="0 0 50 50" fill="none" xmlns="http://www.w3.org/2000/svg">
<g clip-path="url(#clip0_344_2084)">
<path d="M33.3759 3.34421L30.9865 3.09802L28.3567 4.74246L34.7962 7.91355C35.1808 8.1029 35.6406 8.05027 35.9724 7.77878C36.465 7.37576 36.5109 6.63894 36.0722 6.17791L33.3759 3.34421Z" fill="#FFCEBF"/>
<path d="M26.0762 34.6548C25.4033 34.4063 25.2038 33.5507 25.6975 33.0303L29.6274 28.8883L24.7687 24.2783L21.0454 28.2026C20.3551 28.9302 19.2057 28.9603 18.4783 28.2701C18.2379 28.0421 18.0646 27.7526 17.9769 27.4332L14.9154 16.2721C14.7875 15.8062 14.9788 15.3115 15.3867 15.0527L30.9881 5.15291C31.2055 5.01492 31.4529 4.93143 31.7094 4.90926L39.2696 4.25643C39.7875 4.2117 40.2396 3.85516 40.3648 3.35057C40.5369 2.65682 40.0671 1.97068 39.3616 1.87732L30.9444 0.763751C30.1965 0.664825 29.4367 0.807208 28.7754 1.17029L9.54243 11.7305C8.65259 12.219 8.14575 13.1965 8.25913 14.2053L9.87769 28.6049C9.92319 29.0095 9.78765 29.4137 9.50737 29.7091L2.90015 36.6728L23.4842 46.0173L41.3959 42.9777L43.9961 41.2701L26.0762 34.6548Z" fill="#FFCEBF"/>
<path d="M38.5737 2.24084C38.4486 2.74543 37.9965 3.10198 37.4785 3.1467L29.9183 3.79954C29.6618 3.8217 29.4144 3.9053 29.197 4.04319L13.5958 13.9429C13.1879 14.2017 12.9967 14.6965 13.1245 15.1623L16.7757 28.6352C16.8633 28.9546 17.0367 29.2441 17.277 29.4721C18.0046 30.1623 19.1539 30.1322 19.8441 29.4046L20.7424 28.4579C20.0519 28.924 19.1075 28.8671 18.4782 28.27C18.2379 28.042 18.0645 27.7526 17.9768 27.4331L14.9153 16.2721C14.7875 15.8062 14.9787 15.3114 15.3866 15.0527L30.988 5.15295C31.2053 5.01497 31.4527 4.93147 31.7092 4.9093L39.2694 4.25647C39.7874 4.21174 40.2394 3.8552 40.3646 3.35061C40.5367 2.65686 40.067 1.97073 39.3614 1.87737L38.5949 1.776C38.6173 1.9261 38.6129 2.08303 38.5737 2.24084Z" fill="#FFB09E"/>
<path d="M25.6974 33.0302L29.6273 28.8882L28.5796 27.8942L23.3315 33.0302C22.8378 33.5506 23.0373 34.4063 23.7102 34.6547L42.623 42.1717L43.9961 41.27L26.0761 34.6548C25.4031 34.4064 25.2037 33.5506 25.6974 33.0302Z" fill="#FFB09E"/>
<path d="M37.0317 26.5593L34.0757 29.675L36.298 31.7835C36.8699 32.3261 37.7732 32.3024 38.3158 31.7305L39.3071 30.6857C39.8497 30.1138 39.826 29.2105 39.2541 28.6679L37.0317 26.5593Z" fill="#FFCEBF"/>
<path d="M26.7056 16.7621L23.7496 19.8777L21.5272 17.7691C20.9553 17.2265 20.9316 16.3232 21.4742 15.7514L22.4655 14.7065C23.0081 14.1347 23.9114 14.1109 24.4833 14.6535L26.7056 16.7621Z" fill="#FFCEBF"/>
<path d="M40.9371 24.2231L28.8338 12.7394C28.8338 12.7394 24.7522 17.0411 22.7943 19.1047C21.6287 20.3332 22.5645 25.6706 23.3867 27.1511C24.0635 28.3698 25.5788 29.8074 26.8313 30.4194C28.3529 31.1626 33.7321 31.8169 34.8977 30.5884C37.302 28.0543 40.9371 24.2231 40.9371 24.2231Z" fill="#FFCEBF"/>
<path d="M28.8335 12.7394L29.4164 12.1251C32.3791 9.00252 37.3122 8.87293 40.4348 11.8356L41.2302 12.5903C44.3527 15.553 44.4823 20.4861 41.5196 23.6087L40.9367 24.223L28.8335 12.7394Z" fill="#DFF6FD"/>
<path d="M41.2304 12.5904L40.4398 11.8403C42.9544 14.835 42.8755 19.3046 40.1199 22.2089C39.9141 22.4258 39.7074 22.6437 39.5012 22.8609L40.937 24.2231L41.5199 23.6088C44.4826 20.4862 44.353 15.5531 41.2304 12.5904Z" fill="#C8EFFE"/>
<path d="M33.4975 29.1885C32.3318 30.417 26.9527 29.7627 25.4311 29.0195C24.9825 28.8003 24.5005 28.4742 24.0352 28.0913C24.8055 29.038 25.8921 29.9608 26.831 30.4195C28.3525 31.1627 33.7317 31.817 34.8974 30.5885C37.3017 28.0544 40.9368 24.2232 40.9368 24.2232L39.5011 22.861C37.5042 24.9656 35.4931 27.0853 33.4975 29.1885Z" fill="#FFB09E"/>
<path d="M27.5813 17.4504C26.8847 18.1847 26.9151 19.3448 27.6494 20.0413L28.3542 20.71C29.0885 21.4067 30.2484 21.3762 30.9451 20.6419C31.6418 19.9077 31.6113 18.7476 30.877 18.051L30.1723 17.3824C29.4381 16.6857 28.278 16.7162 27.5813 17.4504Z" fill="#62DBFB"/>
<path d="M32.9344 22.5294C32.2377 23.2637 32.2682 24.4238 33.0024 25.1203L33.7072 25.789C34.4415 26.4857 35.6015 26.4552 36.2981 25.7209C36.9948 24.9866 36.9643 23.8266 36.2301 23.1299L35.5253 22.4613C34.7911 21.7647 33.631 21.7951 32.9344 22.5294Z" fill="#62DBFB"/>
<path d="M45.2226 35.2429C43.2 35.2429 43.2 34.0643 41.1774 34.0643C39.155 34.0643 39.155 35.2429 37.1328 35.2429C35.1104 35.2429 35.1104 34.0643 33.088 34.0643C31.0658 34.0643 31.0658 35.2429 29.0434 35.2429C27.0211 35.2429 27.0211 34.0643 24.9989 34.0643C22.9769 34.0643 22.9769 35.2429 20.9548 35.2429C18.9326 35.2429 18.9326 34.0643 16.9104 34.0643C14.8881 34.0643 14.8881 35.2429 12.8658 35.2429C10.8435 35.2429 10.8435 34.0643 8.82124 34.0643C6.79907 34.0643 6.79907 35.2429 4.7769 35.2429C2.75474 35.2429 2.75474 34.0643 0.732666 34.0643V47.3349C2.75483 47.3349 2.75483 48.5136 4.7769 48.5136C6.79907 48.5136 6.79907 47.3349 8.82124 47.3349C10.8435 47.3349 10.8435 48.5136 12.8658 48.5136C14.888 48.5136 14.888 47.3349 16.9104 47.3349C18.9327 47.3349 18.9327 48.5136 20.9548 48.5136C22.9768 48.5136 22.9768 47.3349 24.9989 47.3349C27.0211 47.3349 27.0211 48.5136 29.0434 48.5136C31.0657 48.5136 31.0657 47.3349 33.088 47.3349C35.1104 47.3349 35.1104 48.5136 37.1328 48.5136C39.1551 48.5136 39.1551 47.3349 41.1774 47.3349C43.2 47.3349 43.2 48.5136 45.2226 48.5136C47.2452 48.5136 47.2452 47.3349 49.2678 47.3349V34.0643C47.2453 34.0643 47.2453 35.2429 45.2226 35.2429Z" fill="#62DBFB"/>
<path d="M47.3147 34.6133V47.8839C47.7982 47.6033 48.3028 47.3349 49.2678 47.3349V34.0643C48.3028 34.0643 47.7982 34.3327 47.3147 34.6133Z" fill="#01C0FA"/>
<path d="M29.159 26.9295C29.2599 26.977 29.3662 26.9995 29.4708 26.9995C29.7455 26.9995 30.0089 26.8441 30.1338 26.5791C30.3063 26.2132 30.1494 25.7767 29.7835 25.6044C29.0129 25.2414 28.4426 24.7002 28.0397 23.9499C27.8483 23.5935 27.4043 23.4597 27.0479 23.6512C26.6916 23.8425 26.5578 24.2866 26.7492 24.643C27.2983 25.6654 28.109 26.4347 29.159 26.9295Z" fill="black"/>
<path d="M49.2678 33.3319C48.0587 33.3319 47.4031 33.7138 46.8765 34.0207C46.4069 34.2943 46.0361 34.5104 45.2226 34.5104C44.409 34.5104 44.0383 34.2943 43.5687 34.0206C43.18 33.7942 42.7394 33.5374 42.0726 33.4106C41.675 33.3351 41.2918 33.5959 41.2162 33.9933C41.1407 34.3907 41.4016 34.7741 41.7989 34.8496C42.2189 34.9294 42.4892 35.0869 42.8312 35.2863C43.3579 35.5932 44.0134 35.9751 45.2225 35.9751C46.4315 35.9751 47.0871 35.5932 47.6138 35.2863C47.9141 35.1113 48.174 34.9598 48.5353 34.8734V37.8084C47.7728 37.9234 47.2852 38.206 46.8764 38.4442C46.4068 38.7178 46.036 38.9339 45.2225 38.9339C44.4089 38.9339 44.0382 38.7178 43.5686 38.4442C43.0418 38.1372 42.3863 37.7553 41.1772 37.7553C39.9683 37.7553 39.3128 38.1373 38.7861 38.4443C38.3167 38.7178 37.9459 38.9339 37.1326 38.9339C36.3192 38.9339 35.9484 38.7178 35.479 38.4442C34.9523 38.1372 34.2969 37.7553 33.0879 37.7553C31.8789 37.7553 31.2234 38.1373 30.6968 38.4443C30.2273 38.7178 29.8565 38.9339 29.0433 38.9339C28.23 38.9339 27.8592 38.7178 27.3897 38.4443C26.8631 38.1373 26.2077 37.7553 24.9987 37.7553C23.7898 37.7553 23.1345 38.1373 22.6079 38.4443C22.1386 38.7178 21.7679 38.9339 20.9547 38.9339C20.1414 38.9339 19.7706 38.7178 19.3013 38.4443C18.7746 38.1373 18.1192 37.7553 16.9103 37.7553C15.7013 37.7553 15.0458 38.1373 14.5191 38.4443C14.0497 38.7178 13.6789 38.9339 12.8656 38.9339C12.0523 38.9339 11.6815 38.7178 11.2121 38.4443C10.6854 38.1373 10.0301 37.7553 8.82109 37.7553C7.61211 37.7553 6.95674 38.1373 6.43008 38.4443C5.96074 38.7178 5.58994 38.9339 4.77676 38.9339C3.96357 38.9339 3.59277 38.7178 3.12344 38.4443C2.71475 38.2061 2.22725 37.9235 1.46494 37.8085V34.8736C1.82588 34.96 2.08564 35.1115 2.38584 35.2865C3.10107 35.7033 3.72412 35.9753 4.77676 35.9753C5.98564 35.9753 6.64111 35.5933 7.16768 35.2865C7.63711 35.0129 8.00781 34.7968 8.82109 34.7968C9.63437 34.7968 10.0052 35.0129 10.4746 35.2865C11.0013 35.5934 11.6566 35.9753 12.8656 35.9753C14.0746 35.9753 14.73 35.5933 15.2566 35.2865C15.7261 35.0129 16.0969 34.7968 16.9102 34.7968C17.7234 34.7968 18.0942 35.0129 18.5637 35.2865C19.0903 35.5934 19.7457 35.9753 20.9547 35.9753C22.1636 35.9753 22.8189 35.5933 23.3455 35.2864C23.8148 35.0128 24.1855 34.7967 24.9987 34.7967C25.742 34.7967 26.0983 34.9636 26.6522 35.2864C27.1789 35.5933 27.8343 35.9752 29.0433 35.9752C30.2522 35.9752 30.9077 35.5932 31.4344 35.2864C31.9038 35.0128 32.2746 34.7967 33.0879 34.7967C33.9013 34.7967 34.272 35.0128 34.7415 35.2864C35.2682 35.5933 35.9236 35.9752 37.1327 35.9752C38.0964 35.9752 38.6918 35.7326 39.1028 35.5213C39.4626 35.3364 39.6043 34.8948 39.4193 34.5351C39.2345 34.1753 38.7928 34.0335 38.4331 34.2186C38.1383 34.3701 37.7767 34.5104 37.1328 34.5104C36.3194 34.5104 35.9486 34.2943 35.4792 34.0207C34.9525 33.7138 34.2971 33.3319 33.0881 33.3319C31.8791 33.3319 31.2236 33.7139 30.697 34.0207C30.2275 34.2943 29.8567 34.5104 29.0435 34.5104C28.2302 34.5104 27.8594 34.2944 27.39 34.0207C27.0848 33.8429 26.7355 33.6402 26.2609 33.5009L28.0858 31.5772C28.9384 31.7681 29.9572 31.9133 30.9531 31.9743C31.3192 31.9966 31.6649 32.0078 31.9908 32.0078C33.2871 32.0078 34.2641 31.8302 34.9123 31.4783L35.7936 32.3144C36.2103 32.7104 36.745 32.9069 37.2793 32.9068C37.8512 32.9068 38.4226 32.6815 38.8472 32.2348L39.8383 31.19C40.2355 30.7713 40.4459 30.2232 40.4307 29.6464C40.4154 29.0699 40.1767 28.5338 39.7586 28.1371L38.9561 27.3751L42.0513 24.1129C45.2872 20.7024 45.1451 15.2951 41.7346 12.059L40.9391 11.3043C39.287 9.73685 37.1244 8.90628 34.8466 8.96624C32.5699 9.02601 30.4528 9.96888 28.8853 11.621L25.7897 14.8836L24.988 14.1224C24.1246 13.3032 22.7548 13.3387 21.934 14.2024L20.9424 15.2477C20.1232 16.1125 20.16 17.4822 21.0237 18.3003L21.9057 19.137C21.5081 19.9701 21.4104 21.3028 21.6175 23.1167C21.7307 24.1079 21.9291 25.1178 22.1646 25.9592L20.5142 27.6985C20.3148 27.9084 20.0458 28.0283 19.7564 28.036C19.4658 28.0426 19.1921 27.938 18.9817 27.7383C18.8393 27.6034 18.736 27.4307 18.6834 27.2395L15.6218 16.0782C15.5789 15.9221 15.6422 15.7589 15.7796 15.6718L30.248 6.48988L34.4729 8.57083C34.7283 8.69661 35.0042 8.75823 35.2788 8.75814C35.6933 8.75814 36.1043 8.61771 36.4358 8.34583C36.8281 8.02503 37.0712 7.55111 37.1028 7.04564C37.1344 6.54046 36.9523 6.04027 36.6034 5.67357L36.2065 5.25638L39.3333 4.98616C40.1772 4.91292 40.8773 4.32679 41.0757 3.52718C41.2074 2.99495 41.1062 2.43011 40.7979 1.97747C40.4895 1.52484 40.0013 1.22376 39.4578 1.1515L31.0412 0.0379226C30.132 -0.0829759 29.227 0.0864577 28.4231 0.528157L23.3147 3.33284C22.9602 3.52757 22.8306 3.97279 23.0252 4.32738C23.2199 4.68197 23.6652 4.81175 24.0197 4.61693L29.1283 1.81214C29.6565 1.52191 30.251 1.41068 30.8485 1.49007L39.265 2.60325C39.5365 2.63939 39.7207 2.90345 39.6536 3.17445C39.6068 3.36292 39.423 3.50765 39.2067 3.5264L31.6481 4.17952C31.277 4.21058 30.9132 4.33294 30.5951 4.53411L14.9947 14.4344C14.3102 14.8683 13.9944 15.6847 14.2089 16.4655L17.2706 27.6272C17.3943 28.0767 17.6375 28.4827 17.9735 28.801C18.4507 29.2538 19.0706 29.5009 19.7259 29.5009C19.7486 29.5009 19.7717 29.5006 19.7945 29.5C20.4749 29.4822 21.1077 29.2003 21.5764 28.7066L22.7349 27.4857C22.7386 27.4925 22.7424 27.4999 22.7461 27.5067C23.4987 28.8619 25.1166 30.397 26.5095 31.0774C26.5164 31.0808 26.5239 31.0841 26.5311 31.0875L25.1667 32.5257C24.9472 32.7565 24.8017 33.0391 24.7346 33.3389C23.6924 33.39 23.0946 33.7371 22.6079 34.0208C22.1386 34.2944 21.7679 34.5105 20.9547 34.5105C20.1414 34.5105 19.7706 34.2945 19.3013 34.0208C18.7746 33.7139 18.1192 33.332 16.9103 33.332C15.7013 33.332 15.0458 33.714 14.5191 34.0208C14.0497 34.2944 13.6789 34.5105 12.8656 34.5105C12.0523 34.5105 11.6815 34.2944 11.2121 34.0208C10.6854 33.7139 10.0301 33.332 8.82109 33.332C7.61221 33.332 6.95674 33.714 6.43018 34.0208C6.42705 34.0227 6.42402 34.0243 6.4209 34.0262L10.0387 30.2129C10.4688 29.7588 10.6752 29.1426 10.6049 28.523L8.98672 14.1236C8.90625 13.4069 9.2626 12.7197 9.89453 12.3727L21.0322 6.25745C21.3867 6.06273 21.5164 5.61751 21.3217 5.26292C21.1271 4.90843 20.6818 4.77874 20.3271 4.97347L9.18965 11.0887C8.03506 11.7224 7.38398 12.9779 7.53096 14.2871L9.14922 28.6873C9.1708 28.8771 9.10723 29.066 8.97549 29.2051L4.02051 34.4278C3.67178 34.3405 3.4168 34.1918 3.12334 34.0207C2.59668 33.7138 1.94131 33.3319 0.732422 33.3319C0.32793 33.3319 0 33.6598 0 34.0643V47.3349C0 47.7394 0.32793 48.0673 0.732422 48.0673C1.54561 48.0673 1.91641 48.2834 2.38574 48.557C2.9124 48.8639 3.56777 49.2459 4.77666 49.2459C5.98564 49.2459 6.64102 48.8639 7.16768 48.557C7.63701 48.2834 8.00781 48.0673 8.821 48.0673C9.63428 48.0673 10.0051 48.2834 10.4745 48.557C11.0012 48.8639 11.6565 49.2459 12.8655 49.2459C14.0745 49.2459 14.73 48.8639 15.2565 48.557C15.726 48.2834 16.0968 48.0673 16.9101 48.0673C17.7233 48.0673 18.0941 48.2834 18.5636 48.557C19.0902 48.8639 19.7456 49.2459 20.9546 49.2459C22.1635 49.2459 22.8188 48.8639 23.3454 48.557C23.8147 48.2834 24.1854 48.0673 24.9986 48.0673C25.8119 48.0673 26.1827 48.2834 26.6521 48.557C27.1788 48.8639 27.8342 49.2459 29.0432 49.2459C30.2521 49.2459 30.9076 48.8639 31.4343 48.557C31.9037 48.2834 32.2745 48.0673 33.0878 48.0673C33.9012 48.0673 34.2719 48.2834 34.7414 48.557C35.2681 48.8639 35.9235 49.2459 37.1326 49.2459C38.3416 49.2459 38.9971 48.8639 39.5237 48.557C39.9932 48.2834 40.364 48.0673 41.1772 48.0673C41.9907 48.0673 42.3615 48.2834 42.8312 48.5571C43.3579 48.864 44.0134 49.2459 45.2225 49.2459C46.4315 49.2459 47.0871 48.8639 47.6138 48.5571C48.0833 48.2834 48.4541 48.0673 49.2677 48.0673C49.6722 48.0673 50.0001 47.7394 50.0001 47.3349V34.0643C50.0002 33.6598 49.6723 33.3319 49.2678 33.3319ZM35.5418 6.68284C35.6362 6.78216 35.6441 6.89534 35.6405 6.95394C35.6368 7.01273 35.6147 7.12445 35.5074 7.21224C35.3986 7.3014 35.2464 7.31868 35.1197 7.25638L31.8269 5.6345L34.3382 5.41751L35.5418 6.68284ZM38.75 29.1995C38.8845 29.3272 38.9613 29.4995 38.9661 29.685C38.971 29.8705 38.9033 30.0469 38.7754 30.1817L37.7847 31.226C37.5204 31.5041 37.0798 31.5159 36.8021 31.252L35.9996 30.4907L37.9476 28.4376L38.75 29.1995ZM34.9975 25.5594C34.7032 25.5658 34.4244 25.4599 34.2112 25.2576L33.5064 24.589C33.0665 24.1715 33.0482 23.4739 33.4658 23.0336C33.6681 22.8203 33.9413 22.6987 34.2351 22.691C34.245 22.6907 34.2549 22.6906 34.2647 22.6906C34.5476 22.6906 34.8151 22.7971 35.0211 22.9926L35.7259 23.6613C36.166 24.0789 36.1843 24.7767 35.7667 25.2169C35.5645 25.43 35.2912 25.5516 34.9975 25.5594ZM37.5328 24.392C37.5148 23.7071 37.2312 23.0701 36.7341 22.5985L36.0293 21.9298C35.5322 21.4582 34.8818 21.2097 34.1964 21.2265C33.7631 21.2379 33.3492 21.356 32.9841 21.5668L31.9039 20.5418C32.0953 20.166 32.1914 19.7464 32.18 19.313C32.1619 18.6282 31.8782 17.9912 31.3812 17.5197L30.6765 16.851C30.1794 16.3793 29.5277 16.1287 28.8435 16.1476C28.4101 16.1589 27.9961 16.277 27.6309 16.4878L26.9233 15.8166L28.8607 13.7747L39.9014 24.2501L37.9642 26.2918L37.2567 25.6206C37.448 25.2451 37.5441 24.8254 37.5328 24.392ZM28.1127 17.9545C28.3149 17.7413 28.5882 17.6197 28.882 17.6119C28.892 17.6117 28.9019 17.6116 28.9117 17.6116C29.1945 17.6116 29.4623 17.7182 29.6683 17.9137L30.373 18.5824C30.5863 18.7847 30.708 19.0578 30.7157 19.3516C30.7234 19.6453 30.6163 19.9245 30.4141 20.1377C29.9965 20.5779 29.2985 20.5962 28.8584 20.1786L28.1537 19.51C27.7135 19.0924 27.6951 18.3947 28.1127 17.9545ZM29.9478 12.6292C31.246 11.261 32.9994 10.4801 34.885 10.4306C36.7719 10.3809 38.5625 11.0688 39.9308 12.367L40.7263 13.1217C43.5509 15.8017 43.6685 20.28 40.9886 23.1047L40.9098 23.1877L29.8689 12.7121L29.9478 12.6292ZM22.0053 16.2553L22.996 15.211C23.2603 14.9328 23.7016 14.9211 23.9793 15.1848L24.7812 15.9462L22.8339 17.9987L22.0312 17.2371C21.8967 17.1097 21.8198 16.9375 21.8149 16.7521C21.8101 16.5664 21.8777 16.3899 22.0053 16.2553ZM24.0268 26.7955C23.5651 25.9643 23.1921 23.9971 23.0726 22.9503C22.8252 20.7837 23.1151 19.8305 23.3254 19.6088L23.385 19.546C23.3875 19.5434 23.3903 19.5412 23.3929 19.5385C23.3955 19.5358 23.3977 19.5327 23.4002 19.53L25.9151 16.8794L26.6236 17.5515C26.1243 18.5368 26.3039 19.7743 27.1454 20.5728L27.8502 21.2414C28.3456 21.7115 28.9809 21.9446 29.6151 21.9446C30.0583 21.9446 30.5007 21.8299 30.8947 21.6035L31.977 22.6304C31.4775 23.6159 31.657 24.8533 32.4983 25.6516L33.2031 26.3202C34.0587 27.132 35.3066 27.2273 36.2486 26.6834L36.9561 27.3546L34.4359 30.0108C34.435 30.0118 34.4338 30.0127 34.4328 30.0137C34.4318 30.0147 34.4311 30.0159 34.43 30.0169L34.3661 30.0842C34.1558 30.3059 33.2189 30.6455 31.0426 30.5121C29.2955 30.4052 27.7345 30.0454 27.1526 29.7613C26.0336 29.2147 24.6314 27.8842 24.0268 26.7955ZM2.38594 39.7099C2.9126 40.0168 3.56797 40.3989 4.77685 40.3989C5.98584 40.3989 6.64121 40.0168 7.16787 39.7099C7.63721 39.4364 8.00801 39.2202 8.82119 39.2202C9.63447 39.2202 10.0053 39.4364 10.4747 39.7099C11.0014 40.0168 11.6567 40.3989 12.8657 40.3989C14.0747 40.3989 14.7302 40.0168 15.2567 39.7099C15.7262 39.4364 16.097 39.2202 16.9103 39.2202C17.7235 39.2202 18.0943 39.4364 18.5638 39.7099C19.0904 40.0168 19.7458 40.3989 20.9548 40.3989C22.1637 40.3989 22.819 40.0168 23.3456 39.7099C23.8149 39.4364 24.1856 39.2202 24.9988 39.2202C25.8121 39.2202 26.1829 39.4364 26.6523 39.7099C27.179 40.0168 27.8344 40.3989 29.0434 40.3989C30.2523 40.3989 30.9078 40.0168 31.4344 39.7099C31.9038 39.4364 32.2746 39.2202 33.0879 39.2202C33.9013 39.2202 34.272 39.4364 34.7415 39.7099C35.2682 40.0168 35.9236 40.3989 37.1327 40.3989C38.3417 40.3989 38.9972 40.0168 39.5238 39.7099C39.9933 39.4364 40.3641 39.2202 41.1773 39.2202C41.9908 39.2202 42.3616 39.4364 42.8312 39.71C43.358 40.0169 44.0135 40.3989 45.2226 40.3989C46.4316 40.3989 47.0872 40.0168 47.6139 39.71C47.9141 39.5351 48.1744 39.384 48.5354 39.2975V42.2321C47.7729 42.347 47.2853 42.6296 46.8765 42.8678C46.4069 43.1413 46.0361 43.3575 45.2226 43.3575C44.409 43.3575 44.0383 43.1413 43.5687 42.8678C43.0419 42.5609 42.3864 42.1789 41.1773 42.1789C39.9684 42.1789 39.3129 42.561 38.7862 42.8678C38.3168 43.1413 37.946 43.3575 37.1327 43.3575C36.3193 43.3575 35.9485 43.1413 35.4791 42.8678C34.9524 42.5609 34.297 42.1789 33.088 42.1789C31.879 42.1789 31.2235 42.561 30.6969 42.8678C30.2274 43.1413 29.8566 43.3575 29.0434 43.3575C28.2301 43.3575 27.8593 43.1413 27.3898 42.8678C26.8632 42.5609 26.2078 42.1789 24.9988 42.1789C23.7899 42.1789 23.1346 42.561 22.608 42.8679C22.1387 43.1414 21.768 43.3576 20.9548 43.3576C20.1415 43.3576 19.7707 43.1414 19.3014 42.8679C18.7747 42.561 18.1193 42.179 16.9104 42.179C15.7014 42.179 15.0459 42.5611 14.5192 42.8679C14.0498 43.1414 13.679 43.3576 12.8657 43.3576C12.0524 43.3576 11.6816 43.1414 11.2122 42.8679C10.6855 42.561 10.0302 42.179 8.82119 42.179C7.61231 42.179 6.95684 42.5611 6.43027 42.8679C5.96084 43.1414 5.59014 43.3576 4.77685 43.3576C3.96367 43.3576 3.59287 43.1414 3.12354 42.8679C2.71484 42.6297 2.22734 42.3471 1.46504 42.2322V39.2976C1.82568 39.384 2.08594 39.5351 2.38594 39.7099ZM46.8765 47.2914C46.4069 47.5651 46.0361 47.7812 45.2226 47.7812C44.409 47.7812 44.0383 47.5651 43.5687 47.2914C43.0419 46.9845 42.3864 46.6026 41.1773 46.6026C39.9684 46.6026 39.3129 46.9846 38.7862 47.2915C38.3168 47.5651 37.946 47.7812 37.1327 47.7812C36.3193 47.7812 35.9485 47.5651 35.4791 47.2915C34.9524 46.9846 34.297 46.6026 33.088 46.6026C31.879 46.6026 31.2235 46.9846 30.6969 47.2915C30.2274 47.5651 29.8566 47.7812 29.0434 47.7812C28.2301 47.7812 27.8593 47.5651 27.3899 47.2915C26.8633 46.9846 26.2079 46.6026 24.9989 46.6026C23.79 46.6026 23.1347 46.9846 22.6081 47.2915C22.1388 47.5651 21.7681 47.7812 20.9549 47.7812C20.1416 47.7812 19.7708 47.5651 19.3015 47.2915C18.7748 46.9846 18.1194 46.6026 16.9104 46.6026C15.7015 46.6026 15.046 46.9846 14.5193 47.2915C14.0499 47.5651 13.6791 47.7812 12.8658 47.7812C12.0525 47.7812 11.6817 47.5651 11.2123 47.2915C10.6856 46.9846 10.0303 46.6026 8.82129 46.6026C7.6123 46.6026 6.95693 46.9846 6.43027 47.2915C5.96094 47.5651 5.59014 47.7812 4.77695 47.7812C3.96377 47.7812 3.59297 47.5651 3.12363 47.2915C2.71465 47.0533 2.22822 46.7697 1.46514 46.6547V43.7212C1.82578 43.8077 2.08604 43.9587 2.38604 44.1336C2.9127 44.4406 3.56807 44.8225 4.77695 44.8225C5.98584 44.8225 6.64131 44.4405 7.16787 44.1336C7.6373 43.8601 8.00801 43.644 8.82129 43.644C9.63457 43.644 10.0054 43.8601 10.4748 44.1336C11.0015 44.4406 11.6568 44.8225 12.8658 44.8225C14.0748 44.8225 14.7302 44.4406 15.2568 44.1336C15.7263 43.8601 16.0971 43.644 16.9104 43.644C17.7236 43.644 18.0944 43.8601 18.5639 44.1336C19.0905 44.4406 19.7459 44.8225 20.9549 44.8225C22.1638 44.8225 22.8191 44.4405 23.3457 44.1335C23.815 43.86 24.1857 43.6439 24.9989 43.6439C25.8122 43.6439 26.183 43.86 26.6524 44.1335C27.1791 44.4405 27.8345 44.8224 29.0435 44.8224C30.2524 44.8224 30.9078 44.4405 31.4345 44.1335C31.9039 43.86 32.2747 43.6439 33.088 43.6439C33.9014 43.6439 34.2721 43.86 34.7416 44.1335C35.2683 44.4405 35.9237 44.8224 37.1328 44.8224C38.3418 44.8224 38.9973 44.4404 39.5239 44.1335C39.9934 43.86 40.3642 43.6439 41.1774 43.6439C41.9909 43.6439 42.3617 43.86 42.8313 44.1335C43.3581 44.4405 44.0136 44.8224 45.2227 44.8224C46.4317 44.8224 47.0873 44.4405 47.614 44.1335C47.9142 43.9586 48.1745 43.8075 48.5354 43.7211V46.6547C47.7721 46.7695 47.2854 47.0531 46.8765 47.2914Z" fill="black"/>
</g>
<defs>
<clipPath id="clip0_344_2084">
<rect width="50" height="50" fill="white"/>
</clipPath>
</defs>
</svg>
