<svg width="50" height="51" viewBox="0 0 50 51" fill="none" xmlns="http://www.w3.org/2000/svg">
<g clip-path="url(#clip0_1234_873)">
<path d="M49.9662 5.20442C50.21 4.06976 49.0976 3.11303 48.0124 3.52709L0.94259 21.4957C0.665855 21.6013 0.427654 21.7884 0.259419 22.0322C0.091183 22.276 0.000818022 22.5651 0.000246865 22.8613C-0.000324292 23.1575 0.0889253 23.447 0.256219 23.6914C0.423514 23.9359 0.660991 24.1239 0.937317 24.2306L14.1601 29.3375V45.4226C14.1601 45.7522 14.2713 46.0722 14.4756 46.3308C14.6799 46.5894 14.9655 46.7716 15.2862 46.8478C15.6069 46.924 15.9439 46.8899 16.2428 46.7509C16.5416 46.6119 16.7849 46.3761 16.9332 46.0818L22.402 35.2295L35.7479 45.134C36.5597 45.7365 37.7266 45.3533 38.022 44.3851C50.4827 3.53032 49.9441 5.30705 49.9662 5.20442ZM38.3471 10.3526L15.4174 26.6824L5.55143 22.8721L38.3471 10.3526ZM17.0898 29.088L37.0767 14.854C19.8782 32.9974 20.7765 32.0424 20.7015 32.1434C20.5901 32.2933 20.8953 31.709 17.0898 39.2607V29.088ZM35.8257 41.5435L24.0782 32.8252L45.3193 10.4171L35.8257 41.5435Z" fill="#0181F5"/>
</g>
<defs>
<clipPath id="clip0_1234_873">
<rect width="50" height="50" fill="white" transform="translate(0 0.157227)"/>
</clipPath>
</defs>
</svg>
