<svg width="70" height="70" viewBox="0 0 70 70" fill="none" xmlns="http://www.w3.org/2000/svg">
<path d="M25.5792 63.3867C25.0062 63.3867 24.4812 63.7576 24.2901 64.298C24.0968 64.8441 24.2779 65.4684 24.7321 65.8273C25.1818 66.1826 25.8257 66.2167 26.31 65.9099C26.7816 65.611 27.0277 65.0399 26.9214 64.4918C26.7982 63.8574 26.2248 63.3867 25.5792 63.3867Z" fill="#32B4B4"/>
<path d="M50.656 49.8046C55.1392 45.3177 55.1392 38.0171 50.656 33.5303C48.4837 31.3563 45.5957 30.1592 42.5239 30.1592C39.4518 30.1592 36.5638 31.3563 34.3919 33.5301C29.9087 38.017 29.9087 45.3177 34.3919 49.8044C36.5639 51.9783 39.452 53.1756 42.5239 53.1756C45.5957 53.1756 48.4837 51.9783 50.656 49.8046ZM36.3262 35.4629C37.9816 33.806 40.1825 32.8937 42.5238 32.8937C44.8649 32.8937 47.066 33.8062 48.7215 35.4631C52.1398 38.8841 52.1398 44.4507 48.7215 47.8717C47.0659 49.5286 44.8647 50.4411 42.5238 50.4411C40.1826 50.4411 37.9815 49.5286 36.3262 47.8717C32.9078 44.4506 32.9079 38.884 36.3262 35.4629Z" fill="#32B4B4"/>
<path d="M68.4702 60.2253L61.8566 53.6062C61.6001 53.3495 61.2521 53.2053 60.8894 53.2053C60.5266 53.2053 60.1787 53.3495 59.9222 53.6062L58.1535 55.3763L56.2048 53.4253C62.2908 46.3432 61.9811 35.6179 55.2755 28.9068C52.6575 26.2867 49.3764 24.5714 45.8107 23.918C38.6702 11.6846 26.9683 1.59185 26.4687 1.16377C25.9568 0.725291 25.2019 0.725428 24.69 1.16377C24.4391 1.37856 18.4758 6.51105 12.4161 13.9011C8.84046 18.2618 5.98689 22.4978 3.93438 26.4914C1.32377 31.5711 0 36.2918 0 40.5222C0 52.1537 7.8421 62.3366 19.0705 65.2849C19.1869 65.3154 19.3037 65.33 19.4187 65.33C20.0251 65.33 20.5789 64.9237 20.7401 64.3096C20.932 63.5793 20.4954 62.8318 19.765 62.64C9.73778 60.0071 2.73449 50.9119 2.73449 40.5222C2.73449 25.6486 21.2652 7.95076 25.5802 4.03252C28.2937 6.49246 36.6259 14.3906 42.4325 23.621C37.6497 23.6447 33.1568 25.5197 29.7724 28.9069C22.742 35.943 22.742 47.3918 29.7724 54.4279C32.2396 56.8971 35.2958 58.5627 38.6241 59.2932C36.4346 60.8176 33.9835 61.9573 31.4158 62.6343C30.6857 62.8269 30.25 63.5747 30.4424 64.305C30.6042 64.9183 31.1577 65.324 31.7635 65.324C31.8789 65.324 31.9962 65.3094 32.1131 65.2785C35.937 64.2703 39.5291 62.347 42.5079 59.7138H42.5242C46.8822 59.7138 51.0043 58.1771 54.2725 55.3599L56.2209 57.3106L54.4505 59.0824C53.9171 59.6163 53.9171 60.4814 54.4505 61.0153L61.0597 67.6298C62.0492 68.6201 63.365 69.1655 64.7651 69.1655C66.165 69.1655 67.4809 68.6201 68.4703 67.6298C70.51 65.5884 70.51 62.2667 68.4702 60.2253ZM31.7068 30.8395C34.5962 27.9478 38.4377 26.3551 42.5239 26.3551C46.61 26.3551 50.4516 27.9478 53.341 30.8395C59.3067 36.8099 59.3067 46.5244 53.341 52.4949C50.4516 55.3867 46.61 56.9793 42.5239 56.9793C38.4377 56.9793 34.5962 55.3867 31.7068 52.4949C25.7411 46.5245 25.7411 36.81 31.7068 30.8395ZM66.5358 65.697C66.0629 66.1703 65.434 66.431 64.765 66.431C64.0958 66.431 63.467 66.1703 62.9941 65.697L57.3505 60.0489L60.8895 56.5069L66.536 62.158C67.5107 63.1338 67.5107 64.7213 66.5358 65.697Z" fill="#32B4B4"/>
<path d="M43.5603 44.78L46.4288 40.8169C46.8715 40.2052 46.7345 39.3504 46.1229 38.9077C45.5113 38.4651 44.6565 38.6017 44.2137 39.2136L42.2636 41.9077L41.3375 41.0237C40.7913 40.5023 39.926 40.5222 39.4044 41.0686C38.8829 41.6149 38.9032 42.4803 39.4492 43.0017L41.5085 44.9673C41.764 45.2113 42.1025 45.3457 42.4524 45.3457C42.4938 45.3457 42.5353 45.3437 42.5768 45.3399C42.9702 45.3041 43.3287 45.1 43.5603 44.78Z" fill="#32B4B4"/>
</svg>
