<svg width="70" height="70" viewBox="0 0 70 70" fill="none" xmlns="http://www.w3.org/2000/svg">
<g clip-path="url(#clip0_344_1444)">
<path d="M69.548 44.7137C69.08 44.3961 68.4416 44.5187 68.1223 44.9858C68.0363 45.1117 65.9706 48.0688 62.1772 48.0688C58.3836 48.0688 56.3181 45.1117 56.2342 44.9892C55.8563 44.3905 54.9058 44.3912 54.5283 44.99C54.5077 45.0208 52.4185 48.0689 48.591 48.0689C45.3829 48.0689 43.4109 45.9544 42.8278 45.2275V29.307H68.9725C69.54 29.307 70 28.8471 70 28.2796C70 27.712 69.54 27.2521 68.9725 27.2521H60.7103V19.764C60.7103 12.9708 55.2492 7.39126 48.5366 7.32632C45.2342 7.2931 42.1199 8.55939 39.7684 10.8881C38.63 12.0156 37.7416 13.3251 37.1254 14.7496C35.2262 10.4248 30.9553 7.37431 26.0024 7.32632C25.9616 7.32591 25.9209 7.32577 25.8801 7.32577C22.6228 7.32577 19.5565 8.5881 17.234 10.8881C14.8822 13.2174 13.5868 16.3186 13.5868 19.6203V27.2523H1.10519C0.53767 27.2523 0.0777484 27.7122 0.0777484 28.2797C0.0777484 28.8472 0.53767 29.3071 1.10519 29.3071H13.5868V33.3644C13.5868 33.9319 14.0467 34.3918 14.6142 34.3918C15.1818 34.3918 15.6417 33.9319 15.6417 33.3644V19.6203C15.6417 16.8711 16.7207 14.2884 18.6801 12.348C20.6389 10.4082 23.2301 9.34839 25.9827 9.38107C31.573 9.43507 36.1212 14.0929 36.1212 19.764V27.2521H33.5242V19.6203C33.5242 15.4778 30.1552 12.0497 26.0143 11.9787C25.9705 11.978 25.9273 11.9776 25.8837 11.9776C23.9007 11.9776 22.0218 12.7532 20.5805 14.1701C19.0922 15.6331 18.2386 17.6624 18.2386 19.7376V47.3127C16.869 46.6249 15.9911 45.6538 15.6415 45.2157V37.4739C15.6415 36.9064 15.1816 36.4465 14.6141 36.4465C14.0466 36.4465 13.5867 36.9064 13.5867 37.4739V45.2261C13.0015 45.9558 11.0297 48.0688 7.82287 48.0688C4.02933 48.0688 1.96378 45.1117 1.87984 44.9892C1.5632 44.5183 0.924858 44.3934 0.453998 44.7099C-0.0168609 45.0264 -0.141959 45.6647 0.174682 46.1357C0.284057 46.2985 2.91234 50.1237 7.82273 50.1237C11.1799 50.1237 13.4702 48.3359 14.6182 47.1528C15.7662 48.3359 18.0567 50.1237 21.4137 50.1237C24.77 50.1237 27.0577 48.3369 28.2048 47.1533C29.3531 48.3366 31.6432 50.1237 34.9995 50.1237C38.3567 50.1237 40.647 48.3359 41.795 47.1528C42.943 48.3359 45.2335 50.1237 48.5905 50.1237C51.9468 50.1237 54.2345 48.3369 55.3816 47.1533C56.5299 48.3366 58.8201 50.1237 62.1764 50.1237C67.0869 50.1237 69.715 46.2985 69.8244 46.1357C70.1408 45.6661 70.0162 45.0313 69.548 44.7137ZM20.2935 36.4466H36.1212V39.3232H20.2935V36.4466ZM36.1212 34.3917H20.2935V29.307H36.1212V34.3917ZM22.0211 15.6355C23.0979 14.5771 24.5031 14.0082 25.979 14.0333C29.0065 14.0853 31.4695 16.5916 31.4695 19.6205V27.2524H20.2937V19.7378C20.2935 18.2098 20.9233 16.7147 22.0211 15.6355ZM29.0571 44.9892C28.6796 44.3938 27.7338 44.3934 27.3535 44.9867C27.2677 45.1125 25.2068 48.0688 21.4141 48.0688C21.0216 48.0688 20.6487 48.0357 20.2935 47.9788V41.3779H36.1212V47.9787C35.7659 48.0356 35.3927 48.0688 35 48.0688C31.2066 48.0688 29.1409 45.1117 29.0571 44.9892ZM38.1759 47.3123V19.6203C38.1759 16.8711 39.2549 14.2884 41.2144 12.348C43.1731 10.4082 45.7646 9.34839 48.5168 9.38107C54.1072 9.43507 58.6554 14.0929 58.6554 19.764V27.2521H56.0585V24.9682C56.0585 24.4007 55.5985 23.9408 55.031 23.9408C54.4635 23.9408 54.0036 24.4007 54.0036 24.9682V27.2521H42.8277V19.7375C42.8277 18.2097 43.4574 16.7145 44.5552 15.6353C45.632 14.5768 47.0346 14.0079 48.5131 14.0331C51.5406 14.085 54.0036 16.5913 54.0036 19.6202V20.8586C54.0036 21.4261 54.4635 21.886 55.031 21.886C55.5985 21.886 56.0585 21.4261 56.0585 20.8586V19.6202C56.0585 15.4776 52.6894 12.0495 48.5485 11.9786C48.5048 11.9779 48.4616 11.9775 48.4179 11.9775C46.435 11.9775 44.5562 12.7531 43.1148 14.1699C41.6266 15.6329 40.7729 17.6623 40.7729 19.7375V45.2144C40.4224 45.6542 39.5445 46.6249 38.1759 47.3123Z" fill="#0181F5"/>
<path d="M28.2096 60.6192C24.4161 60.6192 22.3505 57.6621 22.2666 57.5396C21.8894 56.9445 20.9442 56.9439 20.5636 57.5363C20.4776 57.6622 18.4119 60.6193 14.6185 60.6193C10.8251 60.6193 8.75944 57.6622 8.67549 57.5397C8.35885 57.0687 7.72051 56.9438 7.24965 57.2604C6.77879 57.5769 6.6537 58.2153 6.97034 58.6861C7.07971 58.8489 9.70786 62.6741 14.6184 62.6741C17.9755 62.6741 20.2658 60.8863 21.4139 59.7032C22.5619 60.8863 24.8523 62.6741 28.2095 62.6741C28.777 62.6741 29.2369 62.2141 29.2369 61.6466C29.2369 61.0791 28.7771 60.6192 28.2096 60.6192Z" fill="#0181F5"/>
<path d="M62.7516 57.2634C62.2831 56.9463 61.6451 57.0697 61.326 57.537C61.2402 57.6627 59.1794 60.619 55.3866 60.619C51.593 60.619 49.5275 57.6619 49.4435 57.5394C49.0659 56.9411 48.116 56.9413 47.7384 57.5394C47.7176 57.5702 45.6235 60.619 41.7954 60.619C38.0018 60.619 35.9363 57.6619 35.8523 57.5394C35.4748 56.944 34.529 56.9436 34.1488 57.537C34.1406 57.5489 33.3115 58.7483 31.7821 59.6409C31.2921 59.9271 31.1266 60.5563 31.4128 61.0463C31.6989 61.5361 32.3279 61.7014 32.8181 61.4157C33.7619 60.8647 34.4917 60.2243 34.9991 59.702C36.1468 60.8852 38.4374 62.6739 41.7954 62.6739C45.1525 62.6739 47.4428 60.8862 48.5908 59.703C49.7388 60.8862 52.0293 62.6739 55.3863 62.6739C60.2975 62.6739 62.9207 58.848 63.03 58.6851C63.3455 58.215 63.2203 57.5804 62.7516 57.2634Z" fill="#0181F5"/>
</g>
<defs>
<clipPath id="clip0_344_1444">
<rect width="70" height="70" fill="white"/>
</clipPath>
</defs>
</svg>
