<svg width="70" height="70" viewBox="0 0 70 70" fill="none" xmlns="http://www.w3.org/2000/svg">
<path d="M10.4521 33.2068C10.4043 33.3107 10.3553 33.4087 10.3075 33.5148C9.36565 35.629 7.8242 37.4203 5.87414 38.6668L2.65064 40.7167C1.83135 41.2393 1.29319 42.1051 1.18729 43.0711C1.0814 44.0371 1.41919 44.999 2.10581 45.6867L16.1606 59.7427C16.761 60.3416 17.5748 60.6774 18.4228 60.676C18.5431 60.6794 18.6634 60.6763 18.7833 60.6667C19.7504 60.5627 20.6171 60.0226 21.1365 59.2002C22.6265 56.9133 24.8433 55.195 27.4295 54.3223C28.4058 53.9748 29.3405 53.5202 30.2166 52.9667L33.0598 55.8087C34.2767 57.0305 36.2049 57.1769 37.5923 56.1528L51.0918 69.6582C51.5496 70.1003 52.2772 70.094 52.7273 69.644C53.1773 69.1939 53.1836 68.4663 52.7415 68.0085L39.2746 54.5417L44.0416 49.7747L54.8835 60.6165C55.3412 61.0586 56.0689 61.0523 56.5189 60.6023C56.969 60.1523 56.9753 59.4246 56.5331 58.9668L45.6913 48.125L49.875 43.9413L54.3001 48.3665C54.7579 48.8086 55.4856 48.8023 55.9356 48.3523C56.3856 47.9023 56.3919 47.1746 55.9498 46.7168L51.5246 42.2917L55.7083 38.108L64.8001 47.1998C65.2579 47.642 65.9856 47.6357 66.4356 47.1856C66.8856 46.7356 66.8919 46.0079 66.4498 45.5502L57.3206 36.421C58.3447 35.0336 58.1983 33.1054 56.9765 31.8885L50.0721 24.9842C50.1399 24.6966 50.1755 24.4023 50.1783 24.1068C50.182 23.0614 49.7669 22.058 49.0256 21.3208C48.6294 20.9303 48.1512 20.633 47.6256 20.4505L49.0256 19.0505C50.5625 17.5111 50.5625 15.0179 49.0256 13.4785C47.4675 11.9875 45.0117 11.9875 43.4536 13.4785L42.7221 14.21C42.3294 13.1543 41.4993 12.3199 40.4456 11.9219C39.3919 11.5238 38.2175 11.6009 37.2248 12.1333L26.124 1.03484C24.7409 -0.299373 22.5499 -0.299373 21.1668 1.03484L2.20147 19.9943C1.53848 20.6487 1.16528 21.5414 1.16528 22.4729C1.16528 23.4044 1.53848 24.2971 2.20147 24.9515L10.4521 33.2068ZM55.6675 34.3642C55.668 34.6738 55.5455 34.971 55.3268 35.1902L36.3568 54.1602C35.8939 54.5999 35.1677 54.5999 34.7048 54.1602L32.1253 51.5807C32.4531 51.3018 32.6585 51.1047 32.683 51.0802L42.483 41.2743C43.2563 40.4999 43.673 39.4389 43.6331 38.3452C43.5933 37.2515 43.1006 36.2236 42.273 35.5075C41.9236 35.2085 41.5222 34.9764 41.0888 34.8227L48.8471 27.0655L55.321 33.5393C55.5423 33.7568 55.6671 34.0539 55.6675 34.3642ZM40.1858 14.4725C40.8105 15.1013 40.8105 16.1164 40.1858 16.7452L31.0333 25.9C30.73 26.1929 30.6084 26.6267 30.7152 27.0346C30.8219 27.4425 31.1405 27.761 31.5484 27.8678C31.9563 27.9746 32.3901 27.853 32.683 27.5497L41.8343 18.3983L45.101 15.1317C45.7363 14.5231 46.7383 14.5231 47.3736 15.1317C47.9989 15.7602 47.9989 16.7758 47.3736 17.4043L34.9556 29.8188C34.6524 30.1118 34.5307 30.5455 34.6375 30.9534C34.7443 31.3613 35.0628 31.6799 35.4707 31.7867C35.8786 31.8934 36.3124 31.7718 36.6053 31.4685L45.1033 22.9705C45.7384 22.3613 46.7409 22.3613 47.376 22.9705C48.0013 23.599 48.0013 24.6146 47.376 25.2432L37.576 35.049C37.4975 35.1351 37.4326 35.2327 37.3835 35.3383C37.1795 35.4798 36.9883 35.6386 36.8118 35.8132L31.6866 40.9313C31.2305 41.3869 31.2299 42.126 31.6855 42.5822C32.141 43.0384 32.8801 43.0389 33.3363 42.5833L38.4556 37.464C39.0598 36.8234 40.0493 36.7405 40.7516 37.2715C41.0893 37.5639 41.2904 37.9833 41.307 38.4297C41.3236 38.876 41.1542 39.3092 40.8391 39.6258L31.0391 49.4258C29.7735 50.6014 28.2867 51.5135 26.6653 52.1092C23.5806 53.1549 20.9386 55.21 19.166 57.9425C19.0238 58.1654 18.7882 58.3117 18.5254 58.3405C18.2626 58.3693 18.0009 58.2774 17.8138 58.0907L3.75547 44.037C3.56826 43.8499 3.47608 43.5879 3.50489 43.3248C3.5337 43.0617 3.68037 42.8258 3.90364 42.6837L7.12364 40.635C9.45946 39.1445 11.3067 37.0015 12.4366 34.4715C13.3668 32.1715 14.6874 30.0496 16.3403 28.1995L29.3043 15.2367C29.9075 14.5952 30.8975 14.5122 31.5991 15.0442C31.9368 15.3366 32.1379 15.756 32.1545 16.2023C32.1711 16.6487 32.0017 17.0819 31.6866 17.3985L27.111 21.9742C26.8077 22.2671 26.6861 22.7009 26.7928 23.1088C26.8996 23.5167 27.2181 23.8352 27.626 23.942C28.0339 24.0488 28.4677 23.9271 28.7606 23.6238L33.3363 19.0482L37.9166 14.4725C38.5515 13.8661 39.5509 13.8661 40.1858 14.4725ZM3.84997 21.6498L22.8223 2.674C23.2809 2.22692 24.0131 2.22952 24.4685 2.67984L35.4351 13.6465L34.2125 14.868C33.9875 14.2557 33.6134 13.7091 33.124 13.2778C31.4996 11.9361 29.1165 12.0698 27.6523 13.5847L14.6906 26.5498C13.4393 27.879 12.382 29.3782 11.55 31.003L3.84181 23.303C3.61897 23.0852 3.49403 22.7863 3.49557 22.4747C3.49711 22.1631 3.62499 21.8654 3.84997 21.6498Z" fill="#0181F5"/>
<path d="M65.0919 58.5748L66.8419 60.3248C67.2997 60.767 68.0273 60.7606 68.4774 60.3106C68.9274 59.8606 68.9337 59.1329 68.4916 58.6752L66.7416 56.9252C66.2838 56.483 65.5561 56.4893 65.1061 56.9394C64.6561 57.3894 64.6498 58.117 65.0919 58.5748Z" fill="#0181F5"/>
<path d="M61.5919 55.0748C62.0497 55.517 62.7773 55.5106 63.2274 55.0606C63.6774 54.6106 63.6837 53.8829 63.2416 53.4252L61.4916 51.6752C61.0338 51.233 60.3061 51.2393 59.8561 51.6894C59.4061 52.1394 59.3998 52.867 59.8419 53.3248L61.5919 55.0748Z" fill="#0181F5"/>
<path d="M59.8418 60.3248C60.2974 60.7803 61.0359 60.7803 61.4915 60.3248L63.2415 58.5748C63.6836 58.117 63.6773 57.3894 63.2273 56.9394C62.7773 56.4893 62.0496 56.483 61.5918 56.9252L59.8418 58.6752C59.3864 59.1307 59.3864 59.8692 59.8418 60.3248Z" fill="#0181F5"/>
<path d="M65.0918 55.0748C65.5474 55.5303 66.2859 55.5303 66.7415 55.0748L68.4915 53.3248C68.9336 52.867 68.9273 52.1394 68.4773 51.6894C68.0273 51.2393 67.2996 51.233 66.8418 51.6752L65.0918 53.4252C64.6364 53.8807 64.6364 54.6192 65.0918 55.0748Z" fill="#0181F5"/>
<path d="M60.6667 20.1354C61.311 20.1354 61.8333 19.6131 61.8333 18.9688V16.6354C61.8333 15.9911 61.311 15.4688 60.6667 15.4688C60.0223 15.4688 59.5 15.9911 59.5 16.6354V18.9688C59.5 19.6131 60.0223 20.1354 60.6667 20.1354Z" fill="#0181F5"/>
<path d="M61.8333 25.9688V23.6354C61.8333 22.9911 61.311 22.4688 60.6667 22.4688C60.0223 22.4688 59.5 22.9911 59.5 23.6354V25.9688C59.5 26.6131 60.0223 27.1354 60.6667 27.1354C61.311 27.1354 61.8333 26.6131 61.8333 25.9688Z" fill="#0181F5"/>
<path d="M62.9999 22.4691H65.3333C65.9776 22.4691 66.4999 21.9467 66.4999 21.3024C66.4999 20.6581 65.9776 20.1357 65.3333 20.1357H62.9999C62.3556 20.1357 61.8333 20.6581 61.8333 21.3024C61.8333 21.9467 62.3556 22.4691 62.9999 22.4691Z" fill="#0181F5"/>
<path d="M55.9999 22.4691H58.3333C58.9776 22.4691 59.4999 21.9467 59.4999 21.3024C59.4999 20.6581 58.9776 20.1357 58.3333 20.1357H55.9999C55.3556 20.1357 54.8333 20.6581 54.8333 21.3024C54.8333 21.9467 55.3556 22.4691 55.9999 22.4691Z" fill="#0181F5"/>
</svg>
