<svg width="70" height="70" viewBox="0 0 70 70" fill="none" xmlns="http://www.w3.org/2000/svg">
<g clip-path="url(#clip0_344_1489)">
<path d="M1.09368 69.9999H44.204C44.4941 69.9999 44.7723 69.8846 44.9774 69.6795C45.1825 69.4744 45.2977 69.1962 45.2977 68.9061V58.4462C45.3145 56.8573 44.8228 55.3047 43.8944 54.0152C42.966 52.7257 41.6495 51.7669 40.1374 51.2788L29.0905 47.5964V44.1082C29.0905 44.0705 29.0886 44.033 29.0849 43.9962C30.4831 42.8943 31.5787 41.4554 32.2688 39.8144C33.0679 39.8123 33.8498 39.5829 34.5233 39.153C35.1969 38.723 35.7342 38.1104 36.0725 37.3865C36.4108 36.6626 36.5362 35.8574 36.434 35.065C36.3318 34.2725 36.0063 33.5254 35.4954 32.9111C35.6584 32.1575 35.9315 30.7666 36.0495 29.9664C36.0855 29.7211 36.1212 29.491 36.1549 29.2734C36.4723 27.2288 36.6635 25.9947 35.4339 23.6794C34.0978 21.1659 32.0556 19.0981 29.5589 17.731C27.0621 16.3638 24.2199 15.757 21.3826 15.9853C18.5452 16.2136 15.8366 17.2671 13.5906 19.0159C11.3445 20.7646 9.65921 23.1323 8.74227 25.8271C8.72281 25.8843 8.70813 25.943 8.69839 26.0027C8.33376 28.2279 8.6437 30.5509 9.61755 32.9131C9.10765 33.5271 8.78275 34.2734 8.6807 35.0649C8.57864 35.8565 8.70364 36.6608 9.04113 37.384C9.37862 38.1072 9.91469 38.7197 10.5869 39.15C11.2591 39.5802 12.0397 39.8106 12.8378 39.8143C13.5477 41.4937 14.6791 42.9616 16.1225 44.0757C16.1498 44.097 16.1787 44.1167 16.2066 44.1376V47.5966L5.15969 51.2788C3.64768 51.767 2.33138 52.7259 1.40308 54.0154C0.474775 55.3048 -0.0168812 56.8574 -7.11476e-05 58.4462V68.9061C-7.11476e-05 69.1962 0.115163 69.4744 0.320281 69.6795C0.525399 69.8846 0.803598 69.9999 1.09368 69.9999ZM25.3364 55.4351L24.8964 57.9492H20.401L20.0078 55.7006C19.9878 55.5866 19.9497 55.4766 19.8951 55.3746L22.6489 53.4196L25.3574 55.3431C25.3495 55.3729 25.342 55.4035 25.3364 55.4351ZM20.6991 60.1367H24.5999L25.9416 67.8124H19.3559L20.6991 60.1367ZM43.1109 58.4462V67.8124H37.8799V63.0264C37.8799 62.7363 37.7647 62.4581 37.5596 62.253C37.3544 62.0479 37.0762 61.9326 36.7862 61.9326C36.4961 61.9326 36.2179 62.0479 36.0128 62.253C35.8076 62.4581 35.6924 62.7363 35.6924 63.0264V67.8124H28.1622L26.7771 59.8933L27.3284 56.7421L30.4592 58.9654C30.6229 59.0816 30.8153 59.1506 31.0155 59.1647C31.2157 59.1788 31.416 59.1376 31.5943 59.0455C31.7726 58.9534 31.9222 58.8141 32.0266 58.6427C32.131 58.4713 32.1862 58.2744 32.1863 58.0737V50.9339L39.446 53.3538C40.5201 53.7008 41.455 54.3821 42.1143 55.2983C42.7735 56.2145 43.1225 57.3175 43.1102 58.4462H43.1109ZM29.9996 50.2046V55.9554L24.5389 52.0775L28.0781 49.5641L29.9996 50.2046ZM32.9472 37.5035C33.1661 36.2384 33.152 34.944 32.9055 33.6841C33.303 33.8183 33.6489 34.0728 33.8953 34.4123C34.1418 34.7518 34.2766 35.1595 34.2812 35.579C34.2858 35.9985 34.1599 36.409 33.9209 36.7538C33.6819 37.0986 33.3416 37.3605 32.9472 37.5035ZM10.843 26.4454C11.6367 24.1679 13.0774 22.1714 14.9886 20.7002C16.8998 19.2291 19.1985 18.3472 21.6032 18.1626C24.0079 17.9779 26.4143 18.4986 28.5277 19.6607C30.641 20.8228 32.3696 22.576 33.5018 24.7056C34.3904 26.3782 34.2902 27.0234 33.9933 28.9382C33.9587 29.161 33.9222 29.3966 33.8851 29.6479C33.8105 30.155 33.668 30.9208 33.5353 31.5872C33.1215 31.4548 32.6896 31.3875 32.2552 31.3877H32.2162C30.9796 27.307 29.5827 25.1944 27.8338 24.752C27.067 24.5577 25.872 24.6098 24.5374 25.9596C24.4742 26.0233 24.4191 26.0945 24.3733 26.1716C22.3731 29.5515 18.8009 31.1657 13.7583 30.9705C13.5859 30.9638 13.4144 30.9981 13.2578 31.0705C13.1012 31.143 12.9641 31.2515 12.8575 31.3872C12.3818 31.3872 11.9096 31.4682 11.4611 31.6266C10.7974 29.8371 10.5893 28.0977 10.843 26.4454ZM10.8334 35.6013C10.8341 35.1929 10.958 34.7942 11.1891 34.4574C11.4201 34.1207 11.7475 33.8615 12.1282 33.7139C11.9116 34.9652 11.917 36.2449 12.144 37.4944C11.7593 37.349 11.428 37.0901 11.1939 36.752C10.9598 36.4139 10.8341 36.0126 10.8334 35.6014V35.6013ZM14.4936 33.1745H14.5806C19.9584 33.1745 23.8582 31.2378 26.1817 27.41C26.5098 27.0956 26.9424 26.782 27.2975 26.8726C27.6323 26.9572 28.8334 27.6041 30.2269 32.3708C30.2384 32.41 30.2521 32.4485 30.268 32.4861C30.98 34.1873 31.1097 36.0762 30.6368 37.8588C30.1638 39.6413 29.1149 41.2175 27.6531 42.342C26.1914 43.4664 24.3989 44.0761 22.5547 44.076C20.7104 44.076 18.918 43.4662 17.4563 42.3417C16.1025 41.285 15.0966 39.8468 14.5685 38.2126C14.0404 36.5785 14.0143 34.8236 14.4936 33.1745ZM22.5546 46.2606C24.0544 46.2604 25.537 45.9406 26.9036 45.3227V47.7147L22.6489 50.7362L18.3941 47.7147V45.4083C19.7089 45.9712 21.1243 46.2611 22.5546 46.2606ZM17.2206 49.5641L20.7598 52.0775L15.2988 55.9554V50.2046L17.2206 49.5641ZM2.18743 58.4462C2.17517 57.3176 2.52414 56.2146 3.18336 55.2984C3.84257 54.3823 4.77748 53.7009 5.85149 53.3539L13.1113 50.934V58.0739C13.1113 58.2746 13.1665 58.4714 13.2709 58.6428C13.3753 58.8142 13.5249 58.9536 13.7032 59.0457C13.8816 59.1377 14.0818 59.179 14.282 59.1648C14.4822 59.1507 14.6747 59.0818 14.8383 58.9656L17.9691 56.7424L18.5203 59.8935L17.1353 67.8124H9.6051V63.0264C9.6051 62.7363 9.48987 62.4581 9.28475 62.253C9.07964 62.0479 8.80144 61.9326 8.51135 61.9326C8.22127 61.9326 7.94307 62.0479 7.73796 62.253C7.53284 62.4581 7.4176 62.7363 7.4176 63.0264V67.8124H2.18743V58.4462ZM69.9999 24.2182C69.9999 24.5083 69.8847 24.7865 69.6796 24.9916C69.4745 25.1967 69.1963 25.312 68.9062 25.312H40.1016C39.8115 25.312 39.5333 25.1967 39.3282 24.9916C39.1231 24.7865 39.0078 24.5083 39.0078 24.2182C39.0078 23.9281 39.1231 23.6499 39.3282 23.4448C39.5333 23.2397 39.8115 23.1245 40.1016 23.1245H44.2528V16.3159C44.2528 16.0258 44.368 15.7476 44.5731 15.5425C44.7783 15.3374 45.0564 15.2221 45.3465 15.2221C45.6366 15.2221 45.9148 15.3374 46.1199 15.5425C46.3251 15.7476 46.4403 16.0258 46.4403 16.3159V23.1245H50.3577V10.7615C50.3577 10.4715 50.4729 10.1933 50.678 9.98814C50.8832 9.78302 51.1614 9.66778 51.4514 9.66778C51.7415 9.66778 52.0197 9.78302 52.2248 9.98814C52.4299 10.1933 52.5452 10.4715 52.5452 10.7615V23.1245H56.4626V13.2385C56.4626 12.9484 56.5778 12.6702 56.7829 12.4651C56.9881 12.26 57.2663 12.1447 57.5563 12.1447C57.8464 12.1447 58.1246 12.26 58.3297 12.4651C58.5349 12.6702 58.6501 12.9484 58.6501 13.2385V23.1245H62.5676V7.60894C62.5676 7.31886 62.6829 7.04066 62.888 6.83554C63.0931 6.63042 63.3713 6.51519 63.6614 6.51519C63.9515 6.51519 64.2297 6.63042 64.4348 6.83554C64.6399 7.04066 64.7551 7.31886 64.7551 7.60894V23.1245H68.9062C69.1963 23.1245 69.4745 23.2397 69.6796 23.4448C69.8847 23.6499 69.9999 23.9281 69.9999 24.2182ZM62.9198 0.289561C63.1335 0.0959052 63.4151 -0.00548847 63.7033 0.0074498C63.9914 0.0203881 64.2627 0.146611 64.4583 0.358645C64.6538 0.570678 64.7576 0.851358 64.7472 1.13959C64.7368 1.42782 64.613 1.70028 64.4027 1.89765L58.2978 7.52718C58.1453 7.66778 57.956 7.76212 57.7519 7.79921C57.5478 7.83629 57.3374 7.81459 57.1452 7.73663L51.6782 5.51851L46.0826 10.6092C45.8678 10.8027 45.5851 10.9033 45.2963 10.8889C45.0076 10.8746 44.7362 10.7465 44.5417 10.5326C44.3471 10.3188 44.2451 10.0366 44.258 9.74777C44.2709 9.45894 44.3976 9.18696 44.6104 8.9913L50.7153 3.43683C50.8678 3.29796 51.0564 3.20502 51.2594 3.16873C51.4624 3.13244 51.6716 3.15429 51.8627 3.23175L57.3249 5.44782L62.9198 0.289561ZM39.864 34.494C39.6211 34.548 39.4039 34.6832 39.2482 34.8773C39.0925 35.0714 39.0077 35.3128 39.0077 35.5616V38.3221C39.0077 38.5709 39.0925 38.8123 39.2482 39.0064C39.4039 39.2005 39.6211 39.3357 39.864 39.3898L40.7027 39.5764C40.8412 40.0035 41.0134 40.4188 41.2178 40.8186L40.7563 41.5439C40.6227 41.7539 40.5647 42.0031 40.5919 42.2505C40.6191 42.4979 40.7298 42.7286 40.9058 42.9045L42.8577 44.856C43.0336 45.032 43.2643 45.1426 43.5116 45.1698C43.7589 45.197 44.0081 45.139 44.2181 45.0055L44.9433 44.5442C45.3431 44.7486 45.7586 44.9208 46.1857 45.0592L46.3722 45.8978C46.4262 46.1407 46.5614 46.3579 46.7555 46.5136C46.9496 46.6693 47.191 46.7541 47.4398 46.7541H50.1999C50.4487 46.7541 50.6901 46.6693 50.8842 46.5136C51.0783 46.3579 51.2135 46.1407 51.2675 45.8978L51.454 45.0592C51.8812 44.9208 52.2967 44.7486 52.6965 44.5442L53.4211 45.0055C53.6311 45.139 53.8803 45.197 54.1276 45.1698C54.3749 45.1426 54.6055 45.032 54.7815 44.856L56.7334 42.9045C56.9094 42.7286 57.0201 42.4979 57.0473 42.2505C57.0745 42.0031 57.0165 41.7539 56.8829 41.5439L56.4214 40.8186C56.6258 40.4188 56.798 40.0034 56.9366 39.5764L57.7752 39.3898C58.0181 39.3357 58.2353 39.2005 58.391 39.0064C58.5466 38.8123 58.6315 38.5709 58.6315 38.3221V35.5614C58.6315 35.3125 58.5466 35.0712 58.391 34.8771C58.2353 34.683 58.0181 34.5477 57.7752 34.4937L56.9365 34.3072C56.798 33.8801 56.6258 33.4648 56.4214 33.065L56.8829 32.3396C57.0164 32.1296 57.0744 31.8804 57.0472 31.633C57.02 31.3857 56.9093 31.155 56.7333 30.9791L54.7816 29.0274C54.6057 28.8515 54.375 28.7408 54.1276 28.7137C53.8803 28.6865 53.6311 28.7446 53.4211 28.8781L52.6965 29.3394C52.2967 29.1351 51.8812 28.9628 51.454 28.8243L51.2675 27.9856C51.2135 27.7428 51.0783 27.5256 50.8842 27.37C50.6901 27.2143 50.4487 27.1295 50.1999 27.1295H47.4398C47.191 27.1295 46.9497 27.2143 46.7556 27.37C46.5615 27.5256 46.4262 27.7428 46.3722 27.9856L46.1857 28.8243C45.7586 28.9627 45.3431 29.135 44.9433 29.3394L44.2181 28.8781C44.0081 28.7446 43.7589 28.6865 43.5116 28.7137C43.2642 28.7408 43.0335 28.8515 42.8576 29.0274L40.9062 30.9791C40.7302 31.155 40.6195 31.3857 40.5923 31.633C40.5651 31.8804 40.6231 32.1296 40.7566 32.3396L41.218 33.065C41.0136 33.4648 40.8414 33.8802 40.7029 34.3074L39.864 34.494ZM41.1952 36.4388L41.8163 36.3009C42.0171 36.2562 42.2012 36.1558 42.3475 36.0112C42.4938 35.8666 42.5964 35.6837 42.6435 35.4834C42.7997 34.8198 43.0626 34.186 43.4219 33.6067C43.5303 33.4318 43.5871 33.2299 43.5859 33.0242C43.5846 32.8184 43.5254 32.6172 43.415 32.4436L43.0732 31.9059L43.7841 31.195L44.3218 31.5368C44.4953 31.647 44.6963 31.7061 44.9019 31.7074C45.1074 31.7086 45.3091 31.6519 45.4839 31.5437C46.0633 31.1844 46.6973 30.9215 47.3609 30.7654C47.5612 30.7184 47.7441 30.6158 47.8887 30.4695C48.0333 30.3232 48.1337 30.1392 48.1784 29.9384L48.3163 29.3173H49.322L49.4601 29.9384C49.5048 30.1392 49.6052 30.3233 49.7498 30.4696C49.8944 30.6159 50.0773 30.7185 50.2776 30.7655C50.9413 30.9216 51.5752 31.1844 52.1546 31.5439C52.3294 31.652 52.5311 31.7087 52.7367 31.7074C52.9422 31.7062 53.1432 31.647 53.3167 31.5368L53.8544 31.195L54.5653 31.9059L54.2235 32.4436C54.1131 32.6172 54.0539 32.8184 54.0526 33.0242C54.0514 33.2299 54.1082 33.4318 54.2166 33.6067C54.576 34.1861 54.8389 34.82 54.995 35.4837C55.0421 35.6839 55.1447 35.8668 55.291 36.0113C55.4373 36.1558 55.6214 36.2562 55.8222 36.3009L56.4433 36.4388V37.4447L55.8222 37.5827C55.6214 37.6274 55.4373 37.7278 55.291 37.8724C55.1447 38.0169 55.0421 38.1998 54.995 38.4001C54.8389 39.0637 54.5759 39.6976 54.2166 40.2769C54.1082 40.4518 54.0514 40.6537 54.0526 40.8595C54.0539 41.0652 54.1131 41.2664 54.2235 41.44L54.5653 41.9776L53.8544 42.6885L53.3167 42.3467C53.1432 42.2365 52.9422 42.1774 52.7366 42.1762C52.5311 42.175 52.3294 42.2317 52.1546 42.3399C51.5751 42.6992 50.9412 42.962 50.2776 43.1181C50.0773 43.1652 49.8945 43.2677 49.7499 43.414C49.6053 43.5603 49.5049 43.7445 49.4603 43.9452L49.3222 44.5663H48.3165L48.1785 43.9452C48.1339 43.7444 48.0334 43.5602 47.8888 43.4139C47.7442 43.2676 47.5612 43.165 47.3609 43.1179C46.6973 42.9619 46.0634 42.6991 45.4841 42.3397C45.3093 42.2316 45.1076 42.1749 44.902 42.1761C44.6965 42.1773 44.4954 42.2365 44.322 42.3467L43.7842 42.6885L43.0733 41.9776L43.4151 41.44C43.5255 41.2664 43.5848 41.0652 43.586 40.8595C43.5872 40.6537 43.5304 40.4518 43.4221 40.2769C43.0627 39.6975 42.7998 39.0635 42.6436 38.3998C42.5965 38.1996 42.4939 38.0168 42.3476 37.8723C42.2013 37.7277 42.0172 37.6274 41.8165 37.5827L41.1953 37.4447L41.1952 36.4388ZM48.8199 41.576C49.7365 41.576 50.6326 41.3042 51.3948 40.7949C52.157 40.2857 52.751 39.5618 53.1018 38.7149C53.4526 37.868 53.5444 36.9361 53.3656 36.0371C53.1867 35.138 52.7453 34.3122 52.0971 33.664C51.449 33.0158 50.6231 32.5744 49.7241 32.3955C48.825 32.2167 47.8931 32.3085 47.0462 32.6593C46.1993 33.0101 45.4755 33.6041 44.9662 34.3663C44.4569 35.1285 44.1851 36.0246 44.1851 36.9413C44.1864 38.1701 44.6752 39.3482 45.5441 40.2171C46.413 41.086 47.5911 41.5747 48.8199 41.576ZM48.8199 34.494C49.3039 34.494 49.777 34.6375 50.1795 34.9064C50.582 35.1753 50.8956 35.5576 51.0808 36.0047C51.2661 36.4519 51.3145 36.944 51.2201 37.4187C51.1257 37.8934 50.8926 38.3295 50.5503 38.6717C50.2081 39.014 49.772 39.2471 49.2973 39.3415C48.8226 39.4359 48.3305 39.3875 47.8833 39.2022C47.4362 39.017 47.054 38.7033 46.785 38.3009C46.5161 37.8984 46.3726 37.4253 46.3726 36.9413C46.3733 36.2924 46.6313 35.6703 47.0901 35.2115C47.549 34.7527 48.171 34.4947 48.8199 34.494Z" fill="#0181F5"/>
</g>
<defs>
<clipPath id="clip0_344_1489">
<rect width="70" height="70" fill="white"/>
</clipPath>
</defs>
</svg>
