<svg width="164" height="164" viewBox="0 0 164 164" fill="none" xmlns="http://www.w3.org/2000/svg">
<path d="M123.131 15.9035C132.751 15.9141 141.974 19.7405 148.777 26.5432C155.58 33.3458 159.406 42.5692 159.417 52.1896C159.417 52.2495 159.417 52.3115 159.417 52.3714C159.417 52.4911 159.432 52.6706 159.446 52.9077C160.19 66.0853 158.036 101.664 122.038 147.254C121.714 147.664 121.255 147.945 120.744 148.05C120.232 148.154 119.7 148.075 119.241 147.825C118.782 147.576 118.427 147.172 118.236 146.685C118.046 146.199 118.034 145.661 118.202 145.167C118.304 144.865 128.141 115.396 121.42 88.4314C111.952 87.9871 103.034 83.8562 96.5729 76.9219C90.1117 69.9876 86.62 60.8004 86.8447 51.3251C87.0694 41.8498 90.9925 32.8384 97.7751 26.2181C104.558 19.5979 113.662 15.8942 123.139 15.8991L123.131 15.9035ZM154.984 52.0633C154.96 45.7686 153.071 39.6223 149.556 34.4003C146.041 29.1784 141.057 25.1149 135.235 22.723C129.412 20.3311 123.011 19.718 116.841 20.961C110.67 22.2041 105.006 25.2476 100.563 29.7073C96.1208 34.167 93.0993 39.843 91.8802 46.0186C90.6612 52.1942 91.2992 58.5925 93.7137 64.4058C96.1283 70.2191 100.211 75.1866 105.447 78.6813C110.682 82.176 116.836 84.0411 123.131 84.0411C123.616 84.0412 124.088 84.2007 124.474 84.4949C124.86 84.7892 125.138 85.202 125.267 85.67C130.364 104.22 127.864 123.678 125.331 135.486C153.885 95.4879 155.678 64.9573 155.011 53.1559C154.981 52.7925 154.972 52.4277 154.984 52.0633Z" fill="#F5F7FA"/>
<path d="M40.7185 15.9035C50.339 15.9141 59.5623 19.7405 66.365 26.5432C73.1677 33.3458 76.9941 42.5692 77.0046 52.1896C77.0046 52.2495 77.0046 52.3115 77.0046 52.3714C77.0046 52.4911 77.0201 52.6706 77.0334 52.9077C77.7781 66.0853 75.6239 101.664 39.6259 147.254C39.3017 147.664 38.8434 147.945 38.3317 148.05C37.82 148.154 37.2878 148.075 36.8291 147.825C36.3703 147.576 36.0145 147.172 35.8243 146.685C35.6342 146.199 35.6219 145.661 35.7897 145.167C35.8916 144.865 45.7294 115.396 39.0076 88.4314C29.54 87.9871 20.6221 83.8562 14.1608 76.9219C7.69958 69.9876 4.20794 60.8004 4.4326 51.3251C4.65727 41.8498 8.58041 32.8384 15.363 26.2181C22.1457 19.5979 31.2494 15.8942 40.7274 15.8991L40.7185 15.9035ZM72.5722 52.0633C72.5477 45.7686 70.6587 39.6223 67.1437 34.4003C63.6287 29.1784 58.6453 25.1149 52.8227 22.723C47 20.3311 40.5993 19.718 34.4285 20.961C28.2576 22.2041 22.5935 25.2476 18.1511 29.7073C13.7087 34.167 10.6872 39.843 9.46814 46.0186C8.24908 52.1942 8.88708 58.5925 11.3016 64.4058C13.7161 70.2191 17.7989 75.1866 23.0345 78.6813C28.2701 82.176 34.4238 84.0411 40.7185 84.0411C41.2039 84.0412 41.6758 84.2007 42.0617 84.4949C42.4477 84.7892 42.7263 85.202 42.855 85.67C47.9523 104.22 45.4524 123.678 42.9192 135.486C71.473 95.4879 73.2681 64.9573 72.601 53.1559C72.5702 52.7926 72.5606 52.4278 72.5722 52.0633Z" fill="#F5F7FA"/>
</svg>
