<svg width="46" height="46" viewBox="0 0 46 46" fill="none" xmlns="http://www.w3.org/2000/svg">
<g clip-path="url(#clip0_344_1644)">
<path d="M43.7002 12.2671H40.6337C39.3635 12.2671 38.3337 13.2968 38.3337 14.567H34.5005C26.883 14.5759 20.71 20.7489 20.7011 28.3664V32.1996C20.7011 34.74 18.6417 36.7994 16.1013 36.7994C13.5609 36.7994 11.5015 34.74 11.5015 32.1996V31.433C12.7716 31.433 13.8014 30.4033 13.8014 29.1331V26.0666C13.8014 24.7965 12.7716 23.7667 11.5015 23.7667H2.30186C1.0317 23.7667 0.00195312 24.7965 0.00195312 26.0666V29.1331C0.00195312 30.4033 1.0317 31.433 2.30186 31.433V32.1996C2.30186 39.8209 8.48007 45.9991 16.1013 45.9991C23.7225 45.9991 29.9007 39.8209 29.9007 32.1996V28.3664C29.9032 25.8271 31.9612 23.7691 34.5005 23.7666H38.3337C38.3337 25.0368 39.3635 26.0665 40.6337 26.0665H43.7002C44.9703 26.0665 46.0001 25.0368 46.0001 23.7666V14.567C46.0001 13.2967 44.9703 12.2671 43.7002 12.2671ZM1.53525 29.133V26.0665C1.53525 25.6431 1.87853 25.2999 2.30186 25.2999H11.5015C11.9249 25.2999 12.2681 25.6432 12.2681 26.0665V29.133C12.2681 29.5564 11.9248 29.8996 11.5015 29.8996H2.30186C1.87844 29.8996 1.53525 29.5564 1.53525 29.133ZM9.96818 31.4329V32.1995C9.96863 33.0669 10.1545 33.9243 10.5132 34.7141C10.4228 34.7954 10.3484 34.8904 10.2664 34.9786C8.90807 34.2169 7.22042 34.374 6.02609 35.3734C5.45578 35.1875 4.83418 35.2447 4.30727 35.5314C3.99669 34.4479 3.83776 33.3267 3.83498 32.1995V31.4329H9.96818ZM28.3674 32.1995C28.361 38.0185 24.2672 43.0322 18.567 44.202C12.8669 45.3717 7.12924 42.3755 4.83176 37.0293C5.04836 36.8075 5.37798 36.7396 5.66457 36.8577C5.95125 36.9757 6.1374 37.256 6.13498 37.5661C6.13498 37.9895 6.47825 38.3327 6.90158 38.3327C7.32491 38.3327 7.66819 37.9895 7.66819 37.5661C7.6672 37.1335 7.54304 36.7101 7.31017 36.3456C7.98137 35.9824 8.78633 35.9647 9.47289 36.298C9.43687 36.4024 9.38781 36.5005 9.36023 36.6085C9.30947 36.8056 9.33921 37.0147 9.44271 37.1898C9.5462 37.3649 9.7151 37.4918 9.91221 37.5422C9.97492 37.5581 10.0392 37.566 10.1038 37.5661C10.4536 37.5659 10.7589 37.3291 10.8459 36.9903C10.9384 36.6473 11.1092 36.3306 11.345 36.0649C12.9826 38.0764 15.7084 38.8403 18.1528 37.9726C20.5972 37.1049 22.2313 34.7933 22.2342 32.1995V30.6662C22.2342 30.2428 22.5775 29.8996 23.0008 29.8996C23.4242 29.8996 23.7674 30.2429 23.7674 30.6662C23.7674 31.0897 24.1106 31.4328 24.534 31.4328C24.9575 31.4328 25.3006 31.0896 25.3006 30.6662C25.2997 30.2313 25.1743 29.8058 24.9396 29.4397C25.2822 29.2406 25.6711 29.1348 26.0673 29.133C27.3375 29.133 28.3673 30.1628 28.3673 31.4329V32.1995H28.3674ZM34.5005 22.2333C31.1149 22.2371 28.3713 24.9808 28.3674 28.3664V28.3864C26.9722 27.3059 25.013 27.3423 23.6587 28.4738C23.1943 28.3199 22.6909 28.3318 22.2343 28.5075V28.3664C22.2423 21.5954 27.7294 16.1083 34.5005 16.1003H38.3337V22.2334L34.5005 22.2333ZM44.4668 23.7666C44.4668 24.19 44.1235 24.5332 43.7002 24.5332H40.6337C40.2102 24.5332 39.867 24.19 39.867 23.7666V14.567C39.867 14.1436 40.2102 13.8004 40.6337 13.8004H43.7002C44.1236 13.8004 44.4668 14.1437 44.4668 14.567V23.7666Z" fill="white"/>
<path fill-rule="evenodd" clip-rule="evenodd" d="M15.3347 40.6328C14.7939 40.6377 14.2747 40.4214 13.8972 40.034C13.2477 39.4273 12.3903 39.0928 11.5015 39.0995C11.0781 39.0995 10.7349 39.4427 10.7349 39.8661C10.7349 40.2895 11.0781 40.6327 11.5015 40.6327C12.0422 40.6277 12.5615 40.8441 12.9389 41.2315C13.5885 41.8381 14.4459 42.1726 15.3347 42.166C15.7581 42.166 16.1013 41.8227 16.1013 41.3994C16.1013 40.976 15.758 40.6328 15.3347 40.6328Z" fill="white"/>
<path fill-rule="evenodd" clip-rule="evenodd" d="M22.2343 38.3328C21.4304 38.3417 20.6713 38.7043 20.159 39.3241C19.7834 39.6997 19.5994 39.8661 19.1677 39.8661C18.7443 39.8661 18.4011 40.2093 18.4011 40.6327C18.4011 41.0561 18.7444 41.3993 19.1677 41.3993C19.9716 41.3903 20.7308 41.0277 21.243 40.408C21.621 40.0324 21.8035 39.866 22.2343 39.866C22.6577 39.866 23.0009 39.5227 23.0009 39.0994C23.0009 38.676 22.6577 38.3328 22.2343 38.3328Z" fill="white"/>
<path fill-rule="evenodd" clip-rule="evenodd" d="M24.7588 33.191C24.2226 33.767 23.9972 34.5664 24.1539 35.3376C24.2014 35.8635 24.1991 36.0506 23.9921 36.2576C23.7929 36.4501 23.7129 36.7351 23.7831 37.0031C23.8532 37.2712 24.0626 37.4806 24.3305 37.5506C24.5985 37.6207 24.8836 37.5408 25.0761 37.3416C25.6127 36.7658 25.8381 35.9662 25.681 35.195C25.6335 34.6691 25.6358 34.4821 25.8428 34.2751C26.1334 33.9743 26.1292 33.4961 25.8335 33.2004C25.5377 32.9046 25.0596 32.9005 24.7588 33.191Z" fill="white"/>
<path d="M6.90159 0.000976562C5.63143 0.000976562 4.60169 1.03072 4.60169 2.30088V14.173C3.01152 14.718 1.85276 16.0974 1.59034 17.7578C0.514053 18.1044 -0.148876 19.1837 0.0286475 20.3003C0.206171 21.417 1.17114 22.2376 2.30178 22.2333H11.5014C12.632 22.2376 13.597 21.417 13.7745 20.3003C13.9521 19.1837 13.289 18.1043 12.2128 17.7578C11.9504 16.0974 10.7918 14.718 9.2015 14.173V2.30088C9.2015 1.03072 8.17175 0.000976562 6.90159 0.000976562ZM6.13499 2.30088C6.13499 1.87747 6.47827 1.53428 6.90159 1.53428C7.32492 1.53428 7.6682 1.87756 7.6682 2.30088V13.8357C7.42437 13.8127 7.16914 13.8004 6.90159 13.8004C6.63405 13.8004 6.37872 13.8127 6.13499 13.8357V2.30088ZM11.5014 20.7001H2.30178C1.87836 20.7001 1.53518 20.3568 1.53518 19.9335C1.53518 19.5102 1.87845 19.1669 2.30178 19.1669H11.5014C11.9248 19.1669 12.268 19.5102 12.268 19.9335C12.268 20.3568 11.9248 20.7001 11.5014 20.7001ZM10.609 17.6336H3.19416C3.45946 16.7137 4.29048 15.3337 6.90159 15.3337C9.5127 15.3337 10.3445 16.7137 10.609 17.6336Z" fill="white"/>
</g>
<defs>
<clipPath id="clip0_344_1644">
<rect width="46" height="46" fill="white"/>
</clipPath>
</defs>
</svg>
