<svg width="55" height="55" viewBox="0 0 55 55" fill="none" xmlns="http://www.w3.org/2000/svg">
<g clip-path="url(#clip0_561_4701)">
<path d="M45.6421 37.6142V33.0302C45.6421 32.5844 45.2806 32.2229 44.8348 32.2229C44.389 32.2229 44.0276 32.5844 44.0276 33.0302V37.6142C39.6008 38.023 36.1225 41.7561 36.1225 46.2878C36.1225 49.2134 37.5736 51.8048 39.792 53.3856H32.0173C29.9758 53.3856 28.0572 52.4846 26.7535 50.9138C25.4496 49.3429 24.9175 47.2912 25.2936 45.2847L26.8183 37.1496H35.3255C36.9576 37.1496 38.2854 35.8218 38.2854 34.1897V23.5106C39.3771 23.2525 40.5118 23.1158 41.6736 23.1158C42.9716 23.1158 44.0277 24.1719 44.0277 25.4698V29.8013C44.0277 30.2471 44.3891 30.6086 44.8349 30.6086C45.2808 30.6086 45.6422 30.2471 45.6422 29.8013V25.4697C45.6422 23.8528 44.6697 22.4597 43.2793 21.8418V17.5599C43.2793 17.1141 42.9178 16.7527 42.472 16.7527H42.4597V5.90423C42.4596 2.64859 39.811 0 36.5555 0C34.2294 0 32.1134 1.37231 31.1645 3.49637L26.5755 13.7703C26.3936 14.1773 26.5762 14.6547 26.9833 14.8366C27.3904 15.0187 27.8677 14.8358 28.0495 14.4288L32.6386 4.15486C33.3279 2.61164 34.8654 1.61455 36.5554 1.61455C38.9208 1.61455 40.8452 3.53891 40.8452 5.90423V16.7528H39.2306V5.90423C39.2306 4.42911 38.0305 3.22899 36.5554 3.22899C35.5015 3.22899 34.5428 3.85075 34.1127 4.81325L15.678 46.0842H13.9098L26.7323 17.3776C26.9142 16.9706 26.7316 16.4932 26.3244 16.3114C25.9172 16.1292 25.44 16.3121 25.2582 16.7191L12.1416 46.0842H11.7064C10.6678 46.0842 9.82283 46.9292 9.82283 47.9677V49.6549H7.08336C4.44637 49.6549 2.14184 51.4375 1.47905 53.9898C1.41621 54.2316 1.46906 54.4889 1.62181 54.6865C1.77468 54.8841 2.01047 54.9999 2.26033 54.9999H14.9552C15.401 54.9999 15.7625 54.6385 15.7625 54.1926C15.7625 53.7467 15.401 53.3853 14.9552 53.3853H3.45056C4.17846 52.1014 5.55335 51.2692 7.08336 51.2692H20.77C21.9249 51.2692 22.9343 52.05 23.2246 53.1679L23.2811 53.3853H18.1843C17.7385 53.3853 17.3771 53.7468 17.3771 54.1926C17.3771 54.6384 17.7385 54.9999 18.1843 54.9999H24.3247C24.5745 54.9999 24.8103 54.8842 24.9632 54.6865C25.1161 54.4889 25.1688 54.2316 25.106 53.9897L24.7871 52.7622C24.3121 50.9326 22.6602 49.6548 20.7699 49.6548H18.9915V47.9676C18.9915 47.0399 18.3168 46.2686 17.4327 46.1141L35.5868 5.47164C35.7573 5.08997 36.1375 4.84344 36.5554 4.84344C37.1403 4.84344 37.6161 5.31932 37.6161 5.90423V16.7528H37.4781C37.0323 16.7528 36.6708 17.1141 36.6708 17.56V22.2852C31.0873 24.0828 26.7376 28.8154 25.6095 34.8341L23.7067 44.9873C23.2419 47.4674 23.8996 50.0034 25.511 51.9449C27.1227 53.8865 29.494 55 32.0173 55H44.8348C49.6389 55 53.5472 51.0917 53.5472 46.2877C53.5472 41.756 50.0689 38.023 45.6421 37.6142ZM11.4372 49.655V47.9678C11.4372 47.8195 11.5579 47.6987 11.7063 47.6987H17.108C17.2563 47.6987 17.3771 47.8195 17.3771 47.9678V49.655H11.4372ZM38.2854 18.3672H41.6647V21.5013C40.5099 21.502 39.3792 21.6245 38.2854 21.8561V18.3672ZM36.6709 23.9912V34.1896C36.6709 34.9314 36.0674 35.5349 35.3254 35.5349H27.1208L27.1964 35.1315C28.1796 29.8863 31.8778 25.7251 36.6709 23.9912ZM44.8348 53.3856C40.921 53.3856 37.737 50.2015 37.737 46.2878C37.737 42.3741 40.9211 39.19 44.8348 39.19C48.7485 39.19 51.9326 42.3741 51.9326 46.2878C51.9326 50.2015 48.7485 53.3856 44.8348 53.3856Z" fill="#0181F5"/>
<path d="M44.8348 42.6619C42.8355 42.6619 41.209 44.2884 41.209 46.2877C41.209 48.287 42.8356 49.9135 44.8348 49.9135C46.834 49.9135 48.4606 48.2869 48.4606 46.2877C48.4606 44.2884 46.834 42.6619 44.8348 42.6619ZM44.8348 48.299C43.7258 48.299 42.8234 47.3967 42.8234 46.2877C42.8234 45.1787 43.7258 44.2763 44.8348 44.2763C45.9438 44.2763 46.8462 45.1787 46.8462 46.2877C46.8462 47.3968 45.9438 48.299 44.8348 48.299Z" fill="#0181F5"/>
</g>
<defs>
<clipPath id="clip0_561_4701">
<rect width="55" height="55" fill="white"/>
</clipPath>
</defs>
</svg>
