<svg width="55" height="55" viewBox="0 0 55 55" fill="none" xmlns="http://www.w3.org/2000/svg">
<g clip-path="url(#clip0_42_499)">
<path d="M8.2124 26.0911C8.17482 26.1727 8.13632 26.2497 8.09874 26.3331C7.35874 27.9942 6.1476 29.4017 4.6154 30.3811L2.08265 31.9917C1.43893 32.4023 1.01608 33.0826 0.932881 33.8416C0.849677 34.6006 1.11509 35.3564 1.65457 35.8967L12.6977 46.9407C13.1693 47.4113 13.8088 47.6751 14.4751 47.674C14.5696 47.6767 14.6641 47.6742 14.7583 47.6667C15.5182 47.5849 16.1991 47.1606 16.6072 46.5144C17.778 44.7176 19.5198 43.3675 21.5517 42.6818C22.3188 42.4088 23.0533 42.0516 23.7417 41.6167L25.9756 43.8497C26.9317 44.8097 28.4467 44.9247 29.5368 44.1201L40.1436 54.7314C40.5033 55.0788 41.075 55.0738 41.4286 54.7203C41.7822 54.3667 41.7871 53.7949 41.4397 53.4353L30.8587 42.8542L34.6042 39.1087L43.1227 47.6273C43.4824 47.9746 44.0542 47.9697 44.4077 47.6161C44.7613 47.2625 44.7663 46.6908 44.4189 46.3311L35.9003 37.8125L39.1875 34.5253L42.6644 38.0023C43.0241 38.3496 43.5958 38.3447 43.9494 37.9911C44.303 37.6375 44.308 37.0658 43.9606 36.7061L40.4837 33.2292L43.7708 29.942L50.9144 37.0856C51.2741 37.433 51.8458 37.428 52.1994 37.0744C52.553 36.7208 52.558 36.1491 52.2106 35.7894L45.0377 28.6165C45.8423 27.5264 45.7272 26.0114 44.7672 25.0553L39.3424 19.6304C39.3956 19.4044 39.4236 19.1732 39.4258 18.9411C39.4288 18.1197 39.1026 17.3313 38.5202 16.7521C38.2089 16.4452 37.8331 16.2116 37.4202 16.0683L38.5202 14.9683C39.7277 13.7587 39.7277 11.7998 38.5202 10.5903C37.2959 9.41877 35.3664 9.41877 34.1422 10.5903L33.5674 11.165C33.2589 10.3355 32.6066 9.67994 31.7787 9.36717C30.9508 9.05441 30.028 9.115 29.2481 9.53334L20.526 0.813086C19.4393 -0.235221 17.7178 -0.235221 16.6311 0.813086L1.72974 15.7098C1.20882 16.224 0.915588 16.9254 0.915588 17.6573C0.915588 18.3892 1.20882 19.0906 1.72974 19.6048L8.2124 26.0911ZM43.7387 27.0004C43.7392 27.2437 43.6429 27.4772 43.4711 27.6494L28.5661 42.5544C28.2024 42.8999 27.6318 42.8999 27.2681 42.5544L25.2413 40.5277C25.4989 40.3086 25.6602 40.1537 25.6795 40.1344L33.3795 32.4298C33.9871 31.8214 34.3145 30.9877 34.2832 30.1284C34.2519 29.269 33.8648 28.4614 33.2145 27.8988C32.94 27.6638 32.6246 27.4814 32.2841 27.3607L38.3799 21.2658L43.4665 26.3523C43.6404 26.5232 43.7384 26.7567 43.7387 27.0004ZM31.5746 11.3713C32.0654 11.8653 32.0654 12.6629 31.5746 13.1569L24.3833 20.35C24.145 20.5802 24.0495 20.921 24.1334 21.2415C24.2172 21.562 24.4675 21.8123 24.788 21.8961C25.1085 21.98 25.4493 21.8845 25.6795 21.6462L32.8698 14.4558L35.4365 11.8892C35.9357 11.411 36.723 11.411 37.2222 11.8892C37.7135 12.383 37.7135 13.181 37.2222 13.6748L27.4652 23.4291C27.2269 23.6592 27.1313 24.0001 27.2152 24.3206C27.2991 24.641 27.5494 24.8913 27.8699 24.9752C28.1903 25.0591 28.5312 24.9635 28.7613 24.7253L35.4383 18.0483C35.9373 17.5696 36.725 17.5696 37.224 18.0483C37.7153 18.5421 37.7153 19.3401 37.224 19.8339L29.524 27.5385C29.4623 27.6062 29.4113 27.6828 29.3727 27.7658C29.2125 27.877 29.0622 28.0018 28.9236 28.1389L24.8967 32.1603C24.5382 32.5183 24.5378 33.099 24.8957 33.4574C25.2537 33.8159 25.8344 33.8163 26.1928 33.4583L30.2152 29.436C30.6898 28.9327 31.4673 28.8675 32.0192 29.2848C32.2845 29.5145 32.4425 29.844 32.4555 30.1947C32.4686 30.5454 32.3354 30.8858 32.0879 31.1346L24.3879 38.8346C23.3935 39.7582 22.2253 40.4749 20.9513 40.9429C18.5276 41.7645 16.4517 43.3793 15.059 45.5263C14.9472 45.7014 14.7622 45.8164 14.5557 45.839C14.3492 45.8616 14.1436 45.7894 13.9966 45.6427L2.95074 34.6005C2.80364 34.4535 2.73122 34.2476 2.75385 34.0409C2.77648 33.8342 2.89173 33.6489 3.06715 33.5372L5.59715 31.9275C7.43244 30.7564 8.88386 29.0726 9.77166 27.0848C10.5025 25.2776 11.5401 23.6104 12.8388 22.1568L23.0248 11.9717C23.4988 11.4677 24.2766 11.4024 24.8279 11.8204C25.0932 12.0501 25.2512 12.3797 25.2643 12.7304C25.2773 13.0811 25.1442 13.4215 24.8967 13.6703L21.3015 17.2654C21.0632 17.4956 20.9676 17.8364 21.0515 18.1569C21.1354 18.4774 21.3857 18.7277 21.7062 18.8116C22.0267 18.8954 22.3675 18.7999 22.5977 18.5616L26.1928 14.9664L29.7917 11.3713C30.2905 10.8948 31.0758 10.8948 31.5746 11.3713ZM3.02499 17.0106L17.9318 2.101C18.2921 1.74973 18.8674 1.75176 19.2252 2.10559L27.8419 10.7223L26.8812 11.682C26.7045 11.2009 26.4105 10.7715 26.026 10.4326C24.7497 9.37839 22.8772 9.48339 21.7268 10.6737L11.5427 20.8606C10.5595 21.9049 9.72874 23.0829 9.07499 24.3595L3.01857 18.3095C2.84348 18.1384 2.74532 17.9035 2.74653 17.6587C2.74774 17.4139 2.84822 17.18 3.02499 17.0106Z" fill="#0181F5"/>
<path d="M51.1436 46.023L52.5186 47.398C52.8782 47.7454 53.45 47.7404 53.8036 47.3868C54.1571 47.0332 54.1621 46.4615 53.8147 46.1018L52.4397 44.7268C52.08 44.3794 51.5083 44.3844 51.1547 44.738C50.8011 45.0916 50.7962 45.6633 51.1436 46.023Z" fill="#0181F5"/>
<path d="M48.3936 43.273C48.7532 43.6204 49.325 43.6154 49.6786 43.2618C50.0321 42.9082 50.0371 42.3365 49.6897 41.9768L48.3147 40.6018C47.955 40.2544 47.3833 40.2594 47.0297 40.613C46.6761 40.9666 46.6712 41.5383 47.0186 41.898L48.3936 43.273Z" fill="#0181F5"/>
<path d="M47.0186 47.398C47.3765 47.7558 47.9568 47.7558 48.3147 47.398L49.6897 46.023C50.0371 45.6633 50.0322 45.0916 49.6786 44.738C49.325 44.3844 48.7533 44.3794 48.3936 44.7268L47.0186 46.1018C46.6607 46.4598 46.6607 47.04 47.0186 47.398Z" fill="#0181F5"/>
<path d="M51.1436 43.273C51.5015 43.6308 52.0818 43.6308 52.4397 43.273L53.8147 41.898C54.1621 41.5383 54.1572 40.9666 53.8036 40.613C53.45 40.2594 52.8783 40.2544 52.5186 40.6018L51.1436 41.9768C50.7857 42.3348 50.7857 42.915 51.1436 43.273Z" fill="#0181F5"/>
<path d="M47.6667 15.8207C48.1729 15.8207 48.5833 15.4103 48.5833 14.9041V13.0707C48.5833 12.5645 48.1729 12.1541 47.6667 12.1541C47.1604 12.1541 46.75 12.5645 46.75 13.0707V14.9041C46.75 15.4103 47.1604 15.8207 47.6667 15.8207Z" fill="#0181F5"/>
<path d="M48.5833 20.4041V18.5707C48.5833 18.0645 48.1729 17.6541 47.6667 17.6541C47.1604 17.6541 46.75 18.0645 46.75 18.5707V20.4041C46.75 20.9103 47.1604 21.3207 47.6667 21.3207C48.1729 21.3207 48.5833 20.9103 48.5833 20.4041Z" fill="#0181F5"/>
<path d="M49.5 17.6541H51.3333C51.8396 17.6541 52.25 17.2437 52.25 16.7375C52.25 16.2312 51.8396 15.8208 51.3333 15.8208H49.5C48.9937 15.8208 48.5833 16.2312 48.5833 16.7375C48.5833 17.2437 48.9937 17.6541 49.5 17.6541Z" fill="#0181F5"/>
<path d="M44 17.6541H45.8333C46.3396 17.6541 46.75 17.2437 46.75 16.7375C46.75 16.2312 46.3396 15.8208 45.8333 15.8208H44C43.4937 15.8208 43.0833 16.2312 43.0833 16.7375C43.0833 17.2437 43.4937 17.6541 44 17.6541Z" fill="#0181F5"/>
</g>
<defs>
<clipPath id="clip0_42_499">
<rect width="55" height="55" fill="white"/>
</clipPath>
</defs>
</svg>
