<svg width="45" height="53" viewBox="0 0 45 53" fill="none" xmlns="http://www.w3.org/2000/svg">
<path d="M44.2832 4.97435C43.6841 4.13327 42.7903 3.57538 41.7662 3.40328C40.7423 3.23107 39.715 3.46627 38.874 4.06532L20.991 16.8028L18.9888 9.26102L18.886 8.9075C18.2051 6.56414 17.4332 3.90811 14.5484 3.82495L10.6348 3.71211L10.991 8.45056L12.538 8.3342L12.3109 5.31245L14.5036 5.37565C16.1773 5.42384 16.6698 6.8406 17.3962 9.34035L17.4916 9.66811L19.641 17.7643L18.183 18.8028L19.0831 20.0664L39.7738 5.32911C40.2773 4.97042 40.8936 4.82986 41.5089 4.93329C42.1243 5.03671 42.6607 5.37089 43.0194 5.87448C43.3781 6.37807 43.5186 6.99419 43.4152 7.60958C43.3118 8.22498 42.9776 8.76136 42.474 9.12005L29.9013 18.0751L30.8013 19.3388L33.2611 17.5869C33.7625 17.2346 34.3738 17.0972 34.984 17.1997C35.5993 17.3032 36.1357 17.6373 36.4944 18.1409C37.2389 19.1861 36.9943 20.6421 35.9491 21.3865L32.3025 23.9839L33.2025 25.2475L35.5173 23.5988C36.0209 23.2402 36.6369 23.0997 37.2524 23.203C37.8678 23.3064 38.4042 23.6407 38.7629 24.1442C39.5073 25.1893 39.2627 26.6453 38.2175 27.3897L35.2709 29.4885L36.1709 30.7522L37.8539 29.5535C38.3574 29.1949 38.9737 29.0545 39.589 29.1576C40.2044 29.2611 40.7407 29.5953 41.0994 30.0988C41.8439 31.144 41.5993 32.6 40.5542 33.3444L36.4474 36.2695L37.3474 37.5332L41.4542 34.6081C43.1961 33.3674 43.6038 30.9407 42.3631 29.1988C41.8094 28.4213 41.0038 27.8858 40.0762 27.6733C40.9592 26.3701 40.9921 24.5998 40.0266 23.2442C39.4786 22.4748 38.6835 21.9432 37.7679 21.7263C38.6889 20.4181 38.7378 18.6163 37.7582 17.2409C37.2656 16.5492 36.5734 16.049 35.7736 15.7975L43.3742 10.3837C44.2153 9.78467 44.7732 8.89075 44.9453 7.86681C45.1174 6.84256 44.8822 5.81542 44.2832 4.97435Z" fill="#0181F5"/>
<path d="M28.6612 41.8153L19.9123 44.238L16.8377 46.4125L6.94242 32.4212L10.0894 30.1919L13.2315 17.554L12.6546 9.8811L11.1076 9.99736L11.6657 17.4216L8.72262 29.2588L0.982286 34.7421C0.476111 35.0999 0.139556 35.6351 0.0342668 36.249C-0.0710227 36.8628 0.0681913 37.4796 0.426155 37.9857L10.3191 51.973C10.677 52.4791 11.2122 52.8158 11.8261 52.921C11.9598 52.944 12.0935 52.9554 12.2264 52.9553C12.7033 52.9553 13.167 52.8091 13.5628 52.5292L18.6293 48.9458L17.7335 47.6791L20.587 45.6608L29.3386 43.2374L33.5567 40.2329L32.6567 38.9695L28.6612 41.8153ZM12.667 51.2627C12.4993 51.3813 12.2938 51.4273 12.0884 51.3921C11.883 51.3569 11.7045 51.2451 11.5859 51.0773L1.69294 37.09C1.57431 36.9222 1.52839 36.7167 1.56355 36.5113C1.59872 36.3059 1.71052 36.1275 1.8788 36.0084L5.67656 33.3182L16.467 48.5751L12.667 51.2627Z" fill="#0181F5"/>
<path d="M33.9336 38.093L35.198 37.1932L36.0978 38.4576L34.8334 39.3574L33.9336 38.093Z" fill="#0181F5"/>
<path d="M20.1836 1.07898L21.6094 0.467717L23.937 5.89683L22.5112 6.5081L20.1836 1.07898Z" fill="#0181F5"/>
<path d="M25.5547 0H27.1061V5.43H25.5547V0Z" fill="#0181F5"/>
<path d="M28.7246 5.9054L31.0522 0.476276L32.478 1.08754L30.1504 6.51666L28.7246 5.9054Z" fill="#0181F5"/>
<path d="M26.1211 26.2399L27.3871 25.3431L28.2838 26.6091L27.0178 27.5058L26.1211 26.2399Z" fill="#0181F5"/>
<path d="M27.8867 28.8015L29.1526 27.9064L30.0478 29.1724L28.7819 30.0675L27.8867 28.8015Z" fill="#0181F5"/>
</svg>
