<svg width="55" height="55" viewBox="0 0 55 55" fill="none" xmlns="http://www.w3.org/2000/svg">
<path d="M20.625 39.5313C16.8857 39.5313 13.2304 38.4224 10.1213 36.345C7.01214 34.2675 4.58888 31.3148 3.15791 27.8601C1.72694 24.4055 1.35253 20.604 2.08204 16.9366C2.81154 13.2691 4.61219 9.90036 7.25627 7.25627C9.90036 4.61219 13.2691 2.81154 16.9366 2.08204C20.604 1.35253 24.4055 1.72694 27.8601 3.15791C31.3148 4.58888 34.2675 7.01214 36.345 10.1213C38.4224 13.2304 39.5313 16.8857 39.5313 20.625C39.5256 25.6375 37.5318 30.4431 33.9875 33.9875C30.4431 37.5318 25.6375 39.5256 20.625 39.5313ZM20.625 3.43751C17.2256 3.43751 13.9026 4.44554 11.0761 6.33413C8.24968 8.22271 6.04671 10.907 4.74583 14.0476C3.44495 17.1882 3.10458 20.6441 3.76776 23.9781C4.43095 27.3122 6.0679 30.3747 8.47161 32.7784C10.8753 35.1821 13.9378 36.8191 17.2719 37.4823C20.6059 38.1454 24.0618 37.8051 27.2024 36.5042C30.343 35.2033 33.0273 33.0003 34.9159 30.1739C36.8045 27.3474 37.8125 24.0244 37.8125 20.625C37.8073 16.0682 35.9948 11.6995 32.7726 8.47739C29.5505 5.25524 25.1818 3.44274 20.625 3.43751Z" fill="#0181F5"/>
<path d="M42.9688 43.8281C42.7408 43.828 42.5223 43.7374 42.3612 43.5763L32.908 34.1231C32.7515 33.9611 32.6649 33.744 32.6668 33.5187C32.6688 33.2933 32.7592 33.0778 32.9185 32.9185C33.0778 32.7591 33.2934 32.6687 33.5187 32.6668C33.744 32.6648 33.9611 32.7514 34.1232 32.908L43.5763 42.3611C43.6965 42.4813 43.7783 42.6344 43.8114 42.8011C43.8446 42.9678 43.8276 43.1405 43.7625 43.2975C43.6975 43.4545 43.5874 43.5887 43.4461 43.6832C43.3048 43.7776 43.1387 43.828 42.9688 43.8281Z" fill="#0181F5"/>
<path d="M49.8008 53.2365C49.3494 53.2373 48.9023 53.149 48.4853 52.9764C48.0682 52.8039 47.6893 52.5505 47.3705 52.231L40.9063 45.7676C40.7452 45.6065 40.6547 45.3879 40.6547 45.1601C40.6547 44.9322 40.7452 44.7136 40.9063 44.5525L44.5526 40.9062C44.7138 40.745 44.9323 40.6545 45.1602 40.6545C45.3881 40.6545 45.6066 40.745 45.7678 40.9062L52.2311 47.3695C52.8756 48.0141 53.2376 48.8883 53.2376 49.7998C53.2376 50.7113 52.8756 51.5855 52.2311 52.2301C51.9123 52.5498 51.5335 52.8032 51.1164 52.9759C50.6993 53.1487 50.2522 53.2372 49.8008 53.2365ZM42.7299 45.1601L48.5857 51.0158C48.7442 51.18 48.9339 51.3109 49.1436 51.401C49.3532 51.4911 49.5788 51.5385 49.807 51.5405C50.0352 51.5425 50.2615 51.499 50.4728 51.4126C50.684 51.3261 50.8759 51.1985 51.0373 51.0371C51.1986 50.8758 51.3263 50.6839 51.4127 50.4726C51.4991 50.2614 51.5426 50.0351 51.5406 49.8069C51.5386 49.5787 51.4912 49.3531 51.4011 49.1434C51.3111 48.9337 51.1801 48.7441 51.016 48.5855L45.1602 42.7297L42.7299 45.1601Z" fill="#0181F5"/>
<path d="M20.625 31.7969C18.5745 31.7944 16.6087 30.9787 15.1587 29.5288C13.7088 28.0788 12.8931 26.113 12.8906 24.0625C12.8906 20.5167 17.9137 9.45312 20.625 9.45312C23.3363 9.45312 28.3594 20.5167 28.3594 24.0625C28.3569 26.113 27.5412 28.0788 26.0913 29.5288C24.6413 30.9787 22.6755 31.7944 20.625 31.7969ZM20.625 11.202C19.1237 12.0407 14.6094 20.6551 14.6094 24.0625C14.6094 25.6579 15.2432 27.188 16.3713 28.3162C17.4995 29.4443 19.0296 30.0781 20.625 30.0781C22.2204 30.0781 23.7505 29.4443 24.8787 28.3162C26.0068 27.188 26.6406 25.6579 26.6406 24.0625C26.6406 20.6542 22.1263 12.0407 20.625 11.202Z" fill="#0181F5"/>
<path d="M20.625 28.3594C20.3971 28.3594 20.1785 28.2688 20.0173 28.1077C19.8562 27.9465 19.7656 27.7279 19.7656 27.5C19.7656 27.2721 19.8562 27.0535 20.0173 26.8923C20.1785 26.7312 20.3971 26.6406 20.625 26.6406C21.3088 26.6406 21.9645 26.369 22.448 25.8855C22.9315 25.402 23.2031 24.7463 23.2031 24.0625C23.2031 23.8346 23.2937 23.616 23.4548 23.4548C23.616 23.2937 23.8346 23.2031 24.0625 23.2031C24.2904 23.2031 24.509 23.2937 24.6702 23.4548C24.8313 23.616 24.9219 23.8346 24.9219 24.0625C24.9205 25.2017 24.4674 26.2938 23.6618 27.0993C22.8563 27.9049 21.7642 28.358 20.625 28.3594Z" fill="#0181F5"/>
</svg>
