<svg width="46" height="46" viewBox="0 0 46 46" fill="none" xmlns="http://www.w3.org/2000/svg">
<path d="M5.62341 44.5625C6.77348 44.5625 7.70912 43.6269 7.70912 42.4768V37.9186H22.8741V42.4768C22.8741 43.6269 23.8098 44.5625 24.9598 44.5625C26.1099 44.5625 27.0455 43.6269 27.0455 42.4768V33.7493H28.3745C28.8724 35.0809 29.7813 35.8887 30.8313 35.8887C32.4376 35.8887 33.6961 33.9458 33.6961 31.4653C33.6961 28.9813 32.4376 27.0352 30.8313 27.0352C29.7819 27.0352 28.8729 27.8456 28.3744 29.1813H27.0455V8.97104C27.0455 8.42496 27.4895 7.981 28.0356 7.981H30.0076C30.5916 9.47904 31.7955 10.4552 33.1388 10.4552C35.0802 10.4552 36.6599 8.43408 36.6599 5.94969C36.6599 3.46179 35.0802 1.4375 33.1388 1.4375C31.8159 1.4375 30.6485 2.35471 30.047 3.80923H28.0356C25.1897 3.80923 22.8741 6.12482 22.8741 8.97104V13.6313H7.70912V8.97104C7.70912 8.42496 8.15343 7.981 8.69916 7.981H10.674C11.2579 9.47904 12.4616 10.4552 13.8048 10.4552C15.7466 10.4552 17.3263 8.43408 17.3263 5.94969C17.3263 3.46179 15.7466 1.4375 13.8048 1.4375C12.4823 1.4375 11.3149 2.35471 10.7134 3.80923H8.69916C5.85294 3.80923 3.53735 6.12482 3.53735 8.97104V42.4768C3.53735 43.6269 4.47299 44.5625 5.62341 44.5625ZM22.8741 26.6524H7.70912V24.9046H22.8741V26.6524ZM10.9242 31.8254C10.7568 31.9889 10.542 32.0788 10.3192 32.0788H7.70912V30.3858H10.3192C10.7859 30.3858 11.1656 30.7655 11.1656 31.2323C11.1656 31.4548 11.0755 31.6699 10.9242 31.8254ZM9.03879 28.9483H7.70912V28.0899H9.46572C9.30328 28.3452 9.15785 28.6288 9.03879 28.9483ZM10.6044 28.9771C10.8624 28.5202 11.1855 28.2369 11.4966 28.2369C12.1704 28.2369 12.9243 29.5168 12.9243 31.2295C12.9243 32.0032 12.76 32.7286 12.48 33.2962H11.2755C11.515 33.1843 11.7414 33.0366 11.9409 32.8414C12.368 32.4038 12.6031 31.8321 12.6031 31.2323C12.6031 30.0704 11.7283 29.1193 10.6044 28.9771ZM13.5358 28.0899H22.8741V33.2962H14.0229C14.2349 32.6631 14.3618 31.9587 14.3618 31.2295C14.3618 29.9909 14.0487 28.8864 13.5358 28.0899ZM22.8741 23.4671H7.70912V18.2541H22.8741V23.4671ZM7.70912 36.4811V34.7337H22.8741V36.4811H7.70912ZM27.0455 30.6188H29.6556C30.1223 30.6188 30.5021 30.9986 30.5021 31.4653C30.5021 31.6882 30.4122 31.903 30.2606 32.0584C30.0932 32.222 29.8784 32.3118 29.6556 32.3118H27.0455V30.6188ZM30.8313 28.4727C31.5051 28.4727 32.2586 29.7527 32.2586 31.4653C32.2586 33.1741 31.5051 34.4512 30.8313 34.4512C30.5211 34.4512 30.1992 34.1722 29.9421 33.7211C30.4358 33.6582 30.9003 33.4432 31.277 33.0748C31.7044 32.6375 31.9396 32.0658 31.9396 31.4653C31.9396 30.3033 31.0645 29.3521 29.9405 29.2101C30.1982 28.7548 30.5208 28.4727 30.8313 28.4727ZM33.1388 2.875C34.2681 2.875 35.2224 4.28302 35.2224 5.94969C35.2224 7.61285 34.2681 9.01772 33.1388 9.01772C32.5453 9.01772 31.9882 8.62145 31.6004 7.981H32.4239C33.5739 7.981 34.5096 7.04536 34.5096 5.89494C34.5096 4.74487 33.5739 3.80923 32.4239 3.80923H31.6682C32.0547 3.23113 32.5843 2.875 33.1388 2.875ZM24.3116 8.97104C24.3116 6.91762 25.9821 5.24673 28.0356 5.24673H32.4239C32.7875 5.24673 33.0721 5.53136 33.0721 5.89494C33.0721 6.25256 32.7811 6.5435 32.4239 6.5435H28.0356C26.697 6.5435 25.608 7.63251 25.608 8.97104V29.9001V33.0306V42.4768C25.608 42.8341 25.3171 43.125 24.9598 43.125C24.6026 43.125 24.3116 42.8341 24.3116 42.4768V37.1999V34.015V27.3711V24.1859V17.5353V14.3501V8.97104ZM22.8741 15.0688V16.8166H7.70912V15.0688H22.8741ZM13.8048 2.875C14.9345 2.875 15.8888 4.28302 15.8888 5.94969C15.8888 7.61285 14.9345 9.01772 13.8048 9.01772C13.2116 9.01772 12.6546 8.62145 12.2668 7.981H13.0941C14.2442 7.981 15.1798 7.04536 15.1798 5.89494C15.1798 4.74487 14.2442 3.80923 13.0941 3.80923H12.3346C12.7211 3.23113 13.2507 2.875 13.8048 2.875ZM4.97485 8.97104C4.97485 6.91762 6.64574 5.24673 8.69916 5.24673H13.0941C13.4514 5.24673 13.7423 5.53767 13.7423 5.89494C13.7423 6.25256 13.4514 6.5435 13.0941 6.5435H8.69916C7.36063 6.5435 6.27162 7.63251 6.27162 8.97104V14.3501V17.5353V24.1859V27.3711V29.667V32.7975V34.015V37.1999V42.4768C6.27162 42.8341 5.98068 43.125 5.62341 43.125C5.26579 43.125 4.97485 42.8341 4.97485 42.4768V8.97104Z" fill="white"/>
<path d="M32.2585 22.3889C32.2585 23.6769 33.3065 24.7249 34.5945 24.7249C35.8825 24.7249 36.9304 23.6769 36.9304 22.3889C36.9304 21.1009 35.8825 20.053 34.5945 20.053C33.3065 20.053 32.2585 21.1009 32.2585 22.3889ZM35.4929 22.3889C35.4929 22.8845 35.09 23.2874 34.5945 23.2874C34.0989 23.2874 33.696 22.8845 33.696 22.3889C33.696 21.8934 34.0989 21.4905 34.5945 21.4905C35.09 21.4905 35.4929 21.8934 35.4929 22.3889Z" fill="white"/>
<path d="M40.6165 16.859C40.6165 15.0656 39.1576 13.6067 37.3642 13.6067C35.5712 13.6067 34.1123 15.0656 34.1123 16.859C34.1123 18.6523 35.5712 20.1112 37.3642 20.1112C39.1576 20.1112 40.6165 18.6523 40.6165 16.859ZM35.5498 16.859C35.5498 15.8584 36.3637 15.0442 37.3642 15.0442C38.3648 15.0442 39.179 15.8584 39.179 16.859C39.179 17.8595 38.3648 18.6737 37.3642 18.6737C36.3637 18.6737 35.5498 17.8595 35.5498 16.859Z" fill="white"/>
<path d="M40.5391 13.6649C42.3325 13.6649 43.7914 12.206 43.7914 10.4127C43.7914 8.61931 42.3325 7.1604 40.5391 7.1604C38.7458 7.1604 37.2869 8.61931 37.2869 10.4127C37.2869 12.206 38.7458 13.6649 40.5391 13.6649ZM40.5391 8.5979C41.5397 8.5979 42.3539 9.41211 42.3539 10.4127C42.3539 11.4132 41.5397 12.2274 40.5391 12.2274C39.5386 12.2274 38.7244 11.4132 38.7244 10.4127C38.7244 9.41211 39.5386 8.5979 40.5391 8.5979Z" fill="white"/>
</svg>
