<svg width="55" height="55" viewBox="0 0 55 55" fill="none" xmlns="http://www.w3.org/2000/svg">
<g clip-path="url(#clip0_561_4825)">
<path d="M17.5276 31.3693C16.4537 30.2957 14.713 30.2957 13.6391 31.3693C13.1888 31.823 12.9127 32.4208 12.859 33.0578C12.5461 33.0221 12.2316 33.0029 11.9167 33C7.96737 32.9948 4.45991 35.5228 3.21591 39.2711C1.9719 43.0193 3.2718 47.1428 6.4405 49.5H2.75C1.23122 49.5 0 50.7312 0 52.25C0 53.7688 1.23122 55 2.75 55H52.25C53.7688 55 55 53.7688 55 52.25C55 50.7312 53.7688 49.5 52.25 49.5H48.7667L51.1977 36.5393C52.505 36.1524 53.3296 34.864 53.1335 33.5148C52.9374 32.1656 51.78 31.1653 50.4167 31.1667C50.4148 29.4951 49.2846 28.0356 47.6667 27.6155C47.6667 27.577 47.6667 27.5385 47.6667 27.5C47.6646 25.5066 46.3743 23.7432 44.475 23.1379C42.5757 22.5327 40.503 23.2244 39.3479 24.849C39.07 24.7835 38.7855 24.7503 38.5 24.75C36.7927 24.7513 35.3114 25.9287 34.925 27.5917C33.2621 27.9781 32.0846 29.4594 32.0833 31.1667C30.7193 31.1635 29.5602 32.1632 29.3631 33.513C29.1659 34.8627 29.9907 36.1522 31.2987 36.5393L33.7333 49.5H27.5C27.497 46.4637 25.0363 44.003 22 44H20.8908C21.0892 43.0886 21.1348 42.1506 21.0256 41.2243C22.0855 41.129 22.9943 40.4283 23.3561 39.4275C23.7179 38.4266 23.4672 37.3068 22.7132 36.5558L22.0651 35.9077L53.2776 4.69517C53.9818 4.00247 54.2604 2.98527 54.0075 2.0304C53.7545 1.07552 53.0088 0.329676 52.054 0.0764882C51.0992 -0.176699 50.082 0.101673 49.3891 0.805747L18.1766 32.0183L17.5276 31.3693ZM35.75 29.3333C36.2563 29.3333 36.6667 28.9229 36.6667 28.4167C36.6663 27.7775 36.9989 27.1843 37.5443 26.8512C38.0898 26.518 38.7693 26.4929 39.3378 26.785C39.5607 26.8992 39.8205 26.9173 40.057 26.8351C40.2935 26.7528 40.4861 26.5774 40.59 26.3496C41.1334 25.1817 42.4145 24.5475 43.6727 24.8235C44.9309 25.0996 45.8288 26.2119 45.8333 27.5C45.8319 27.7372 45.8011 27.9734 45.7417 28.2031C45.6676 28.499 45.7456 28.8123 45.9496 29.039C46.1537 29.2657 46.4572 29.376 46.7592 29.3333C47.7681 29.3384 48.5833 30.1577 48.5833 31.1667H33.9167C33.9167 30.1541 34.7375 29.3333 35.75 29.3333ZM32.0833 33H50.4167C50.9229 33 51.3333 33.4104 51.3333 33.9167C51.3333 34.4229 50.9229 34.8333 50.4167 34.8333H32.0833C31.5771 34.8333 31.1667 34.4229 31.1667 33.9167C31.1667 33.4104 31.5771 33 32.0833 33ZM33.1833 36.6667H49.3167L46.9058 49.5H35.5942L33.1833 36.6667ZM34.8333 51.3333H52.25C52.7563 51.3333 53.1667 51.7437 53.1667 52.25C53.1667 52.7563 52.7563 53.1667 52.25 53.1667H2.75C2.24374 53.1667 1.83333 52.7563 1.83333 52.25C1.83333 51.7437 2.24374 51.3333 2.75 51.3333H34.8333ZM17.4167 44C16.9104 44 16.5 44.4104 16.5 44.9167C16.5 45.4229 16.9104 45.8333 17.4167 45.8333H22C24.025 45.8333 25.6667 47.475 25.6667 49.5H11.9167C7.86658 49.5 4.58333 46.2168 4.58333 42.1667C4.58333 38.1166 7.86658 34.8333 11.9167 34.8333C12.4256 34.8384 12.9327 34.8952 13.4301 35.0029C13.4943 35.0925 13.5641 35.1779 13.6391 35.2587L18.8237 40.4443C18.9051 40.5193 18.9908 40.5894 19.0804 40.6542C19.1884 41.1512 19.2452 41.658 19.25 42.1667C19.2508 42.7853 19.1723 43.4014 19.0163 44H17.4167ZM21.417 39.1481C21.2451 39.3202 21.0118 39.4169 20.7685 39.4169C20.5252 39.4169 20.2919 39.3202 20.1199 39.1481L14.9352 33.9625C14.5879 33.6028 14.5928 33.0311 14.9464 32.6775C15.3 32.3239 15.8717 32.3189 16.2314 32.6663L17.5267 33.9616L18.3049 34.7398L21.4161 37.851C21.7739 38.209 21.7739 38.7892 21.4161 39.1472L21.417 39.1481ZM50.6852 2.10191C50.9154 1.86362 51.2562 1.76805 51.5767 1.85194C51.8972 1.93583 52.1475 2.18612 52.2314 2.50662C52.3153 2.82711 52.2197 3.16793 51.9814 3.39808L20.7689 34.6106L20.4087 34.2513L19.4727 33.3144L50.6852 2.10191Z" fill="#0181F5"/>
<path d="M38.5 38.5H36.6667C36.1604 38.5 35.75 38.9104 35.75 39.4167C35.75 39.9229 36.1604 40.3333 36.6667 40.3333H38.5C39.0063 40.3333 39.4167 39.9229 39.4167 39.4167C39.4167 38.9104 39.0063 38.5 38.5 38.5Z" fill="#0181F5"/>
<path d="M44.9167 38.5H42.1667C41.6604 38.5 41.25 38.9104 41.25 39.4167C41.25 39.9229 41.6604 40.3333 42.1667 40.3333H44.9167C45.4229 40.3333 45.8333 39.9229 45.8333 39.4167C45.8333 38.9104 45.4229 38.5 44.9167 38.5Z" fill="#0181F5"/>
<path d="M51.333 25.6667C52.8518 25.6667 54.083 24.4355 54.083 22.9167C54.083 21.3979 52.8518 20.1667 51.333 20.1667C49.8142 20.1667 48.583 21.3979 48.583 22.9167C48.583 24.4355 49.8142 25.6667 51.333 25.6667ZM51.333 22C51.8393 22 52.2497 22.4104 52.2497 22.9167C52.2497 23.4229 51.8393 23.8334 51.333 23.8334C50.8267 23.8334 50.4163 23.4229 50.4163 22.9167C50.4163 22.4104 50.8267 22 51.333 22Z" fill="#0181F5"/>
<path d="M46.75 14.6667C45.2312 14.6667 44 15.8979 44 17.4167C44 18.9355 45.2312 20.1667 46.75 20.1667C48.2688 20.1667 49.5 18.9355 49.5 17.4167C49.5 15.8979 48.2688 14.6667 46.75 14.6667ZM46.75 18.3334C46.2437 18.3334 45.8333 17.9229 45.8333 17.4167C45.8333 16.9104 46.2437 16.5 46.75 16.5C47.2563 16.5 47.6667 16.9104 47.6667 17.4167C47.6667 17.9229 47.2563 18.3334 46.75 18.3334Z" fill="#0181F5"/>
<path d="M24.7422 8.27265e-08C24.2462 -0.000208551 23.84 0.394233 23.8256 0.890084V0.909334V0.916667C23.8256 1.254 23.7422 9.16667 16.4831 9.16667C15.9768 9.16667 15.5664 9.57707 15.5664 10.0833C15.5664 10.5896 15.9768 11 16.4831 11C23.7137 11 23.8247 18.9145 23.8256 19.25C23.8187 19.7563 24.2236 20.1722 24.7299 20.179C25.2361 20.1859 25.6521 19.781 25.6589 19.2748V19.2555V19.25C25.6589 18.9127 25.7423 11 33.0005 11C33.5068 11 33.9172 10.5896 33.9172 10.0833C33.9172 9.57707 33.5068 9.16667 33.0005 9.16667C25.7863 9.16667 25.6607 1.28333 25.6589 0.916667C25.6589 0.410406 25.2485 8.27265e-08 24.7422 8.27265e-08ZM28.8223 10.0833C26.9452 11.0735 25.4943 12.7151 24.7422 14.6997C23.9902 12.7151 22.5393 11.0735 20.6622 10.0833C22.5393 9.09313 23.9902 7.45154 24.7422 5.467C25.4943 7.45154 26.9452 9.09313 28.8223 10.0833Z" fill="#0181F5"/>
<path d="M5.5 27.5046V27.5101C5.50279 28.0164 5.91545 28.4245 6.42171 28.4217C6.92797 28.4189 7.33612 28.0063 7.33333 27.5C7.33333 27.2754 7.41034 22 11.9167 22C12.4229 22 12.8333 21.5896 12.8333 21.0833C12.8333 20.5771 12.4229 20.1667 11.9167 20.1667C7.41034 20.1667 7.33333 14.8894 7.33333 14.6667V14.6612C7.33182 14.1549 6.92018 13.7457 6.41392 13.7473C5.90766 13.7488 5.49848 14.1604 5.5 14.6667C5.5 14.8913 5.423 20.1667 0.916667 20.1667C0.410406 20.1667 0 20.5771 0 21.0833C0 21.5896 0.410406 22 0.916667 22C5.423 22 5.5 27.2773 5.5 27.5V27.5046ZM4.268 21.0833C5.19638 20.4644 5.93908 19.6048 6.41667 18.5964C6.89426 19.6048 7.63695 20.4644 8.56534 21.0833C7.63714 21.7025 6.89449 22.562 6.41667 23.5703C5.93885 22.562 5.1962 21.7025 4.268 21.0833Z" fill="#0181F5"/>
<path d="M9.89315 7.52306L11.2682 8.89806C11.6278 9.24545 12.1996 9.24048 12.5532 8.88689C12.9067 8.5333 12.9117 7.96157 12.5643 7.60189L11.1893 6.22689C10.9592 5.9886 10.6183 5.89303 10.2979 5.97692C9.97736 6.06081 9.72707 6.3111 9.64318 6.63159C9.55929 6.95209 9.65486 7.29291 9.89315 7.52306Z" fill="#0181F5"/>
<path d="M7.14404 4.77309C7.50372 5.12048 8.07545 5.11551 8.42904 4.76192C8.78263 4.40834 8.7876 3.83661 8.44021 3.47692L7.0652 2.10192C6.70552 1.75453 6.13379 1.7595 5.7802 2.11309C5.42661 2.46668 5.42165 3.03841 5.76904 3.39809L7.14404 4.77309Z" fill="#0181F5"/>
<path d="M5.76839 8.89809C6.12635 9.25594 6.7066 9.25594 7.06455 8.89809L8.43955 7.52309C8.78695 7.16341 8.78198 6.59168 8.42839 6.23809C8.0748 5.8845 7.50307 5.87953 7.14339 6.22692L5.76839 7.60192C5.41054 7.95988 5.41054 8.54013 5.76839 8.89809Z" fill="#0181F5"/>
<path d="M10.5415 5.04164C10.7846 5.04159 11.0177 4.94498 11.1896 4.77306L12.5646 3.39806C12.8029 3.16791 12.8984 2.82709 12.8146 2.50659C12.7307 2.1861 12.4804 1.93581 12.1599 1.85192C11.8394 1.76803 11.4986 1.8636 11.2684 2.10189L9.89341 3.47689C9.63133 3.73905 9.55294 4.13326 9.69479 4.47574C9.83664 4.81823 10.1708 5.04156 10.5415 5.04164Z" fill="#0181F5"/>
</g>
<defs>
<clipPath id="clip0_561_4825">
<rect width="55" height="55" fill="white"/>
</clipPath>
</defs>
</svg>
