<svg width="46" height="46" viewBox="0 0 46 46" fill="none" xmlns="http://www.w3.org/2000/svg">
<path d="M17.25 33.0625C14.1226 33.0625 11.0654 32.1351 8.46505 30.3976C5.8647 28.6601 3.83797 26.1905 2.64116 23.3012C1.44435 20.4118 1.13121 17.2325 1.74134 14.1651C2.35147 11.0978 3.85746 8.2803 6.06888 6.06888C8.2803 3.85746 11.0978 2.35147 14.1651 1.74134C17.2325 1.13121 20.4118 1.44435 23.3012 2.64116C26.1905 3.83797 28.6601 5.8647 30.3976 8.46505C32.1351 11.0654 33.0625 14.1226 33.0625 17.25C33.0578 21.4423 31.3903 25.4615 28.4259 28.4259C25.4615 31.3903 21.4423 33.0578 17.25 33.0625ZM17.25 2.87501C14.4069 2.87501 11.6276 3.71809 9.26369 5.29763C6.89973 6.87718 5.05725 9.12224 3.96924 11.7489C2.88123 14.3756 2.59656 17.266 3.15122 20.0544C3.70588 22.8429 5.07497 25.4043 7.08535 27.4147C9.09573 29.4251 11.6571 30.7941 14.4456 31.3488C17.2341 31.9035 20.1244 31.6188 22.7511 30.5308C25.3778 29.4428 27.6228 27.6003 29.2024 25.2363C30.7819 22.8724 31.625 20.0931 31.625 17.25C31.6206 13.4389 30.1047 9.78507 27.4098 7.09018C24.715 4.39529 21.0612 2.87938 17.25 2.87501Z" fill="white"/>
<path d="M35.9375 36.6562C35.7469 36.6562 35.5641 36.5804 35.4293 36.4456L27.5231 28.5394C27.3921 28.4038 27.3197 28.2222 27.3213 28.0338C27.323 27.8453 27.3985 27.6651 27.5318 27.5318C27.6651 27.3985 27.8453 27.323 28.0338 27.3213C28.2222 27.3197 28.4038 27.3921 28.5394 27.5231L36.4456 35.4293C36.5461 35.5298 36.6145 35.6579 36.6423 35.7973C36.67 35.9367 36.6557 36.0812 36.6014 36.2125C36.547 36.3438 36.4549 36.456 36.3367 36.535C36.2185 36.614 36.0796 36.6562 35.9375 36.6562Z" fill="white"/>
<path d="M41.6515 44.525C41.2739 44.5258 40.9 44.4518 40.5512 44.3075C40.2023 44.1632 39.8855 43.9513 39.6188 43.6841L34.2124 38.2784C34.0776 38.1436 34.002 37.9608 34.002 37.7702C34.002 37.5796 34.0776 37.3968 34.2124 37.262L37.262 34.2124C37.3968 34.0776 37.5796 34.002 37.7702 34.002C37.9608 34.002 38.1436 34.0776 38.2784 34.2124L43.6841 39.6181C44.2231 40.1573 44.5258 40.8884 44.5258 41.6507C44.5258 42.4131 44.2231 43.1442 43.6841 43.6834C43.4175 43.9507 43.1006 44.1627 42.7518 44.3071C42.403 44.4516 42.029 44.5256 41.6515 44.525ZM35.7376 37.7702L40.6351 42.6678C40.7677 42.8051 40.9264 42.9146 41.1017 42.9899C41.2771 43.0653 41.4658 43.1049 41.6566 43.1066C41.8475 43.1082 42.0368 43.0719 42.2135 42.9996C42.3901 42.9273 42.5506 42.8206 42.6856 42.6856C42.8206 42.5506 42.9273 42.3901 42.9996 42.2135C43.0719 42.0368 43.1082 41.8475 43.1066 41.6566C43.1049 41.4658 43.0653 41.2771 42.9899 41.1017C42.9146 40.9264 42.8051 40.7677 42.6678 40.6351L37.7702 35.7376L35.7376 37.7702Z" fill="white"/>
<path d="M17.25 26.5938C15.535 26.5917 13.8909 25.9095 12.6782 24.6968C11.4655 23.4841 10.7833 21.84 10.7812 20.125C10.7812 17.1594 14.9823 7.90625 17.25 7.90625C19.5177 7.90625 23.7188 17.1594 23.7188 20.125C23.7167 21.84 23.0345 23.4841 21.8218 24.6968C20.6091 25.9095 18.965 26.5917 17.25 26.5938ZM17.25 9.36891C15.9943 10.0704 12.2188 17.2752 12.2188 20.125C12.2188 21.4594 12.7488 22.7391 13.6924 23.6826C14.6359 24.6262 15.9156 25.1562 17.25 25.1562C18.5844 25.1562 19.8641 24.6262 20.8076 23.6826C21.7512 22.7391 22.2812 21.4594 22.2812 20.125C22.2812 17.2744 18.5057 10.0704 17.25 9.36891Z" fill="white"/>
<path d="M17.25 23.7188C17.0594 23.7188 16.8766 23.643 16.7418 23.5082C16.607 23.3734 16.5312 23.1906 16.5312 23C16.5312 22.8094 16.607 22.6266 16.7418 22.4918C16.8766 22.357 17.0594 22.2812 17.25 22.2812C17.8219 22.2812 18.3703 22.0541 18.7747 21.6497C19.1791 21.2453 19.4062 20.6969 19.4062 20.125C19.4062 19.9344 19.482 19.7516 19.6168 19.6168C19.7516 19.482 19.9344 19.4062 20.125 19.4062C20.3156 19.4062 20.4984 19.482 20.6332 19.6168C20.768 19.7516 20.8438 19.9344 20.8438 20.125C20.8426 21.0778 20.4636 21.9912 19.7899 22.6649C19.1162 23.3386 18.2028 23.7176 17.25 23.7188Z" fill="white"/>
</svg>
