<svg width="55" height="55" viewBox="0 0 55 55" fill="none" xmlns="http://www.w3.org/2000/svg">
<path d="M17.5276 31.3693C16.4537 30.2958 14.713 30.2958 13.6391 31.3693C13.1888 31.8231 12.9127 32.4208 12.859 33.0578C12.5461 33.0222 12.2316 33.0029 11.9167 33.0001C7.96737 32.9949 4.45991 35.5229 3.21591 39.2711C1.9719 43.0194 3.2718 47.1429 6.4405 49.5001H2.75C1.23122 49.5001 0 50.7313 0 52.2501C0 53.7689 1.23122 55.0001 2.75 55.0001H52.25C53.7688 55.0001 55 53.7689 55 52.2501C55 50.7313 53.7688 49.5001 52.25 49.5001H48.7667L51.1977 36.5393C52.505 36.1524 53.3296 34.864 53.1335 33.5148C52.9374 32.1657 51.78 31.1654 50.4167 31.1667C50.4148 29.4952 49.2846 28.0356 47.6667 27.6156C47.6667 27.5771 47.6667 27.5386 47.6667 27.5001C47.6646 25.5067 46.3743 23.7432 44.475 23.138C42.5757 22.5327 40.503 23.2245 39.3479 24.8491C39.07 24.7836 38.7855 24.7504 38.5 24.7501C36.7927 24.7513 35.3114 25.9288 34.925 27.5917C33.2621 27.9782 32.0846 29.4595 32.0833 31.1667C30.7193 31.1636 29.5602 32.1633 29.3631 33.513C29.1659 34.8628 29.9907 36.1522 31.2987 36.5393L33.7333 49.5001H27.5C27.497 46.4638 25.0363 44.0031 22 44.0001H20.8908C21.0892 43.0887 21.1348 42.1507 21.0256 41.2244C22.0855 41.1291 22.9943 40.4284 23.3561 39.4275C23.7179 38.4267 23.4672 37.3069 22.7132 36.5558L22.0651 35.9077L53.2776 4.69523C53.9818 4.00253 54.2604 2.98534 54.0075 2.03046C53.7545 1.07558 53.0088 0.329737 52.054 0.0765493C51.0992 -0.176638 50.082 0.101734 49.3891 0.805808L18.1766 32.0183L17.5276 31.3693ZM35.75 29.3334C36.2563 29.3334 36.6667 28.923 36.6667 28.4167C36.6663 27.7776 36.9989 27.1844 37.5443 26.8512C38.0898 26.518 38.7693 26.493 39.3378 26.7851C39.5607 26.8993 39.8205 26.9174 40.057 26.8351C40.2935 26.7529 40.4861 26.5775 40.59 26.3496C41.1334 25.1818 42.4145 24.5475 43.6727 24.8236C44.9309 25.0996 45.8288 26.212 45.8333 27.5001C45.8319 27.7373 45.8011 27.9735 45.7417 28.2031C45.6676 28.499 45.7456 28.8124 45.9496 29.0391C46.1537 29.2657 46.4572 29.3761 46.7592 29.3334C47.7681 29.3384 48.5833 30.1578 48.5833 31.1667H33.9167C33.9167 30.1542 34.7375 29.3334 35.75 29.3334ZM32.0833 33.0001H50.4167C50.9229 33.0001 51.3333 33.4105 51.3333 33.9167C51.3333 34.423 50.9229 34.8334 50.4167 34.8334H32.0833C31.5771 34.8334 31.1667 34.423 31.1667 33.9167C31.1667 33.4105 31.5771 33.0001 32.0833 33.0001ZM33.1833 36.6667H49.3167L46.9058 49.5001H35.5942L33.1833 36.6667ZM34.8333 51.3334H52.25C52.7563 51.3334 53.1667 51.7438 53.1667 52.2501C53.1667 52.7563 52.7563 53.1667 52.25 53.1667H2.75C2.24374 53.1667 1.83333 52.7563 1.83333 52.2501C1.83333 51.7438 2.24374 51.3334 2.75 51.3334H34.8333ZM17.4167 44.0001C16.9104 44.0001 16.5 44.4105 16.5 44.9167C16.5 45.423 16.9104 45.8334 17.4167 45.8334H22C24.025 45.8334 25.6667 47.475 25.6667 49.5001H11.9167C7.86658 49.5001 4.58333 46.2168 4.58333 42.1667C4.58333 38.1166 7.86658 34.8334 11.9167 34.8334C12.4256 34.8385 12.9327 34.8953 13.4301 35.003C13.4943 35.0925 13.5641 35.178 13.6391 35.2587L18.8237 40.4443C18.9051 40.5193 18.9908 40.5894 19.0804 40.6542C19.1884 41.1513 19.2452 41.6581 19.25 42.1667C19.2508 42.7853 19.1723 43.4015 19.0163 44.0001H17.4167ZM21.417 39.1482C21.2451 39.3203 21.0118 39.417 20.7685 39.417C20.5252 39.417 20.2919 39.3203 20.1199 39.1482L14.9352 33.9626C14.5879 33.6029 14.5928 33.0312 14.9464 32.6776C15.3 32.324 15.8717 32.319 16.2314 32.6664L17.5267 33.9616L18.3049 34.7399L21.4161 37.8511C21.7739 38.209 21.7739 38.7893 21.4161 39.1472L21.417 39.1482ZM50.6852 2.10198C50.9154 1.86368 51.2562 1.76811 51.5767 1.852C51.8972 1.93589 52.1475 2.18618 52.2314 2.50668C52.3153 2.82717 52.2197 3.16799 51.9814 3.39814L20.7689 34.6106L20.4087 34.2513L19.4727 33.3145L50.6852 2.10198Z" fill="white"/>
<path d="M38.5 38.5H36.6667C36.1604 38.5 35.75 38.9104 35.75 39.4167C35.75 39.9229 36.1604 40.3333 36.6667 40.3333H38.5C39.0063 40.3333 39.4167 39.9229 39.4167 39.4167C39.4167 38.9104 39.0063 38.5 38.5 38.5Z" fill="white"/>
<path d="M44.9167 38.5H42.1667C41.6604 38.5 41.25 38.9104 41.25 39.4167C41.25 39.9229 41.6604 40.3333 42.1667 40.3333H44.9167C45.4229 40.3333 45.8333 39.9229 45.8333 39.4167C45.8333 38.9104 45.4229 38.5 44.9167 38.5Z" fill="white"/>
<path d="M51.3333 25.6667C52.852 25.6667 54.0833 24.4355 54.0833 22.9167C54.0833 21.398 52.852 20.1667 51.3333 20.1667C49.8145 20.1667 48.5833 21.398 48.5833 22.9167C48.5833 24.4355 49.8145 25.6667 51.3333 25.6667ZM51.3333 22.0001C51.8395 22.0001 52.2499 22.4105 52.2499 22.9167C52.2499 23.423 51.8395 23.8334 51.3333 23.8334C50.827 23.8334 50.4166 23.423 50.4166 22.9167C50.4166 22.4105 50.827 22.0001 51.3333 22.0001Z" fill="white"/>
<path d="M46.75 14.6667C45.2312 14.6667 44 15.898 44 17.4167C44 18.9355 45.2312 20.1667 46.75 20.1667C48.2688 20.1667 49.5 18.9355 49.5 17.4167C49.5 15.898 48.2688 14.6667 46.75 14.6667ZM46.75 18.3334C46.2437 18.3334 45.8333 17.923 45.8333 17.4167C45.8333 16.9105 46.2437 16.5001 46.75 16.5001C47.2563 16.5001 47.6667 16.9105 47.6667 17.4167C47.6667 17.923 47.2563 18.3334 46.75 18.3334Z" fill="white"/>
<path d="M24.7418 8.27265e-08C24.2457 -0.000208551 23.8395 0.394233 23.8251 0.890084V0.909334V0.916667C23.8251 1.254 23.7417 9.16667 16.4826 9.16667C15.9763 9.16667 15.5659 9.57707 15.5659 10.0833C15.5659 10.5896 15.9763 11 16.4826 11C23.7133 11 23.8242 18.9145 23.8251 19.25C23.8182 19.7563 24.2231 20.1722 24.7294 20.179C25.2356 20.1859 25.6516 19.781 25.6584 19.2748V19.2555V19.25C25.6584 18.9127 25.7418 11 33 11C33.5063 11 33.9167 10.5896 33.9167 10.0833C33.9167 9.57707 33.5063 9.16667 33 9.16667C25.7858 9.16667 25.6603 1.28333 25.6584 0.916667C25.6584 0.410406 25.248 8.27265e-08 24.7418 8.27265e-08ZM28.8218 10.0833C26.9447 11.0735 25.4938 12.7151 24.7418 14.6997C23.9897 12.7151 22.5388 11.0735 20.6617 10.0833C22.5388 9.09313 23.9897 7.45154 24.7418 5.467C25.4938 7.45154 26.9447 9.09313 28.8218 10.0833Z" fill="white"/>
<path d="M5.5 27.5047V27.5102C5.50279 28.0164 5.91545 28.4246 6.42171 28.4218C6.92797 28.419 7.33612 28.0063 7.33333 27.5001C7.33333 27.2755 7.41034 22.0001 11.9167 22.0001C12.4229 22.0001 12.8333 21.5897 12.8333 21.0834C12.8333 20.5771 12.4229 20.1667 11.9167 20.1667C7.41034 20.1667 7.33333 14.8895 7.33333 14.6667V14.6612C7.33182 14.155 6.92018 13.7458 6.41392 13.7473C5.90766 13.7488 5.49848 14.1605 5.5 14.6667C5.5 14.8913 5.423 20.1667 0.916667 20.1667C0.410406 20.1667 0 20.5771 0 21.0834C0 21.5897 0.410406 22.0001 0.916667 22.0001C5.423 22.0001 5.5 27.2773 5.5 27.5001V27.5047ZM4.268 21.0834C5.19638 20.4645 5.93908 19.6049 6.41667 18.5965C6.89426 19.6049 7.63695 20.4645 8.56534 21.0834C7.63714 21.7025 6.89449 22.5621 6.41667 23.5703C5.93885 22.5621 5.1962 21.7025 4.268 21.0834Z" fill="white"/>
<path d="M9.89364 7.52306L11.2686 8.89806C11.6283 9.24545 12.2001 9.24048 12.5536 8.88689C12.9072 8.5333 12.9122 7.96157 12.5648 7.60189L11.1898 6.22689C10.9597 5.9886 10.6188 5.89303 10.2983 5.97692C9.97785 6.06081 9.72756 6.3111 9.64367 6.63159C9.55978 6.95209 9.65535 7.29291 9.89364 7.52306Z" fill="white"/>
<path d="M7.14355 4.77321C7.50323 5.1206 8.07496 5.11564 8.42855 4.76205C8.78214 4.40846 8.78711 3.83673 8.43972 3.47705L7.06472 2.10205C6.70504 1.75465 6.13331 1.75962 5.77972 2.11321C5.42613 2.4668 5.42116 3.03853 5.76855 3.39821L7.14355 4.77321Z" fill="white"/>
<path d="M5.76863 8.89821C6.12659 9.25606 6.70684 9.25606 7.0648 8.89821L8.4398 7.52321C8.78719 7.16353 8.78222 6.5918 8.42863 6.23821C8.07504 5.88462 7.50331 5.87965 7.14363 6.22705L5.76863 7.60205C5.41078 7.96 5.41078 8.54025 5.76863 8.89821Z" fill="white"/>
<path d="M10.5417 5.04164C10.7848 5.04159 11.018 4.94498 11.1898 4.77306L12.5648 3.39806C12.8031 3.16791 12.8987 2.82709 12.8148 2.50659C12.7309 2.1861 12.4806 1.93581 12.1601 1.85192C11.8396 1.76803 11.4988 1.8636 11.2687 2.10189L9.89366 3.47689C9.63158 3.73905 9.55319 4.13326 9.69504 4.47574C9.83689 4.81823 10.171 5.04156 10.5417 5.04164Z" fill="white"/>
</svg>
