<svg width="55" height="55" viewBox="0 0 55 55" fill="none" xmlns="http://www.w3.org/2000/svg">
<path d="M41.4873 8.55205C40.9675 8.03222 40.9675 7.18931 41.4873 6.66934C42.0071 6.14938 42.8501 6.14951 43.37 6.66934L45.2967 8.59598C45.8165 9.11581 45.8165 9.95872 45.2967 10.4787C45.0367 10.7387 44.696 10.8686 44.3554 10.8686C44.0147 10.8686 43.6739 10.7387 43.4141 10.4787L41.4873 8.55205ZM43.414 20.584L41.4873 22.5107C40.9675 23.0305 40.9675 23.8734 41.4873 24.3933C41.7473 24.6532 42.088 24.7832 42.4286 24.7832C42.7693 24.7832 43.11 24.6531 43.3699 24.3933L45.2965 22.4666C45.8164 21.9468 45.8164 21.1039 45.2965 20.584C44.7767 20.0642 43.9338 20.0642 43.414 20.584ZM50.5075 8.94195C51.2427 8.94195 51.8387 8.34598 51.8387 7.61076V2.90712C51.8387 2.1719 51.2427 1.57593 50.5075 1.57593C49.7723 1.57593 49.1763 2.1719 49.1763 2.90712V7.61063C49.1763 8.34598 49.7723 8.94195 50.5075 8.94195ZM37.7251 16.7482H42.4286C43.1638 16.7482 43.7598 16.1522 43.7598 15.417C43.7598 14.6818 43.1638 14.0858 42.4286 14.0858H37.7251C36.9899 14.0858 36.3939 14.6818 36.3939 15.417C36.3939 16.1522 36.9899 16.7482 37.7251 16.7482ZM54.735 36.3889C54.735 37.1241 54.139 37.7201 53.4038 37.7201H47.014C46.2788 37.7201 45.6828 37.1241 45.6828 36.3889C45.6828 35.6537 46.2788 35.0577 47.014 35.0577H48.8777V20.02C46.8813 19.4419 45.4177 17.5972 45.4177 15.417C45.4177 12.7751 47.567 10.6258 50.2089 10.6258C52.8508 10.6258 55 12.7751 55 15.417C55 17.597 53.5362 19.4417 51.5401 20.02V35.0577H53.4038C54.139 35.0577 54.735 35.6537 54.735 36.3889ZM50.2089 17.5457C51.3826 17.5457 52.3376 16.5907 52.3376 15.417C52.3376 14.2432 51.3826 13.2882 50.2089 13.2882C49.0351 13.2882 48.0801 14.2432 48.0801 15.417C48.0801 16.5907 49.0351 17.5457 50.2089 17.5457ZM26.7864 41.2074C25.544 41.297 24.4538 41.8694 23.716 42.8194C23.7155 42.82 23.715 42.8208 23.7144 42.8215C23.3727 43.262 22.8852 43.3845 22.5364 43.4096C21.8617 43.4585 21.1279 43.1866 20.6234 42.7004C19.5461 41.6619 18.0446 41.1033 16.6088 41.2076C15.3657 41.2973 14.2748 41.8705 13.537 42.8216C13.0864 43.4026 13.1921 44.2388 13.7731 44.6893C14.354 45.1399 15.1901 45.0342 15.6407 44.4533C15.917 44.0972 16.307 43.8986 16.8002 43.8629C17.4854 43.8134 18.2416 44.1025 18.7756 44.6173C19.7385 45.5453 21.0645 46.0776 22.381 46.0775C22.4966 46.0775 22.6125 46.0733 22.7277 46.0651C23.9844 45.9744 25.0818 45.402 25.8177 44.4534C25.8178 44.4531 25.8181 44.4529 25.8184 44.4525C26.0946 44.0969 26.4846 43.8984 26.9776 43.8629C27.6623 43.8131 28.4193 44.1025 28.9531 44.6171C29.4823 45.1274 30.325 45.1121 30.8354 44.5825C31.3456 44.0533 31.3302 43.2105 30.8008 42.7002C29.7238 41.6619 28.2225 41.1031 26.7864 41.2074ZM32.9277 40.327C34.1835 40.2363 35.2801 39.6647 36.016 38.7174C36.0165 38.7166 36.0172 38.7158 36.0177 38.715C36.2939 38.3589 36.6841 38.1603 37.1774 38.1246C37.8621 38.0749 38.6191 38.3643 39.1529 38.8789C39.6822 39.3891 40.525 39.3737 41.0352 38.8444C41.5455 38.315 41.53 37.4724 41.0006 36.9621C39.9234 35.9238 38.423 35.3644 36.9858 35.4693C35.7425 35.559 34.6515 36.1323 33.9138 37.0834C33.9138 37.0834 33.9134 37.0838 33.9132 37.0841C33.5715 37.5239 33.0844 37.6462 32.7359 37.6714C32.0603 37.7205 31.3274 37.4483 30.8229 36.9621C29.7455 35.9237 28.2445 35.3654 26.8082 35.4693C25.5652 35.559 24.4743 36.1323 23.7365 37.0834C23.7361 37.0838 23.7358 37.0843 23.7355 37.0847C23.3936 37.5241 22.9066 37.6464 22.5581 37.6714C21.8823 37.7205 21.1496 37.4483 20.645 36.962C20.1158 36.452 19.2729 36.4674 18.7626 36.9969C18.2524 37.5263 18.2681 38.3689 18.7975 38.8792C19.845 39.8886 21.3227 40.4293 22.7496 40.327C24.0063 40.2363 25.1039 39.664 25.8401 38.7154C25.8406 38.7148 25.8411 38.714 25.8417 38.7133C26.1178 38.3584 26.5074 38.1603 26.9998 38.1248C27.6847 38.0755 28.4412 38.3644 28.9752 38.8792C29.9381 39.8071 31.2641 40.3395 32.5806 40.3395C32.6966 40.3395 32.8125 40.3354 32.9277 40.327ZM52.8063 39.3559H50.5075C49.7723 39.3559 49.1763 39.9518 49.1763 40.6871C49.1763 46.2423 44.3989 50.7618 38.5267 50.7618H15.8894C10.0172 50.7618 5.23984 46.2423 5.23984 40.6871C5.23984 35.1319 10.0172 30.6123 15.8894 30.6123H44.6195C45.3547 30.6123 45.9507 30.0163 45.9507 29.2811C45.9507 28.5459 45.3547 27.9499 44.6195 27.9499H15.8894C9.0191 27.9499 3.34769 32.956 2.64961 39.3559H1.33119C0.595975 39.3559 0 39.9518 0 40.6871C0 41.4223 0.595975 42.0183 1.33119 42.0183H2.64961C3.34769 48.418 9.0191 53.4242 15.8894 53.4242H38.5267C45.397 53.4242 51.0685 48.418 51.7665 42.0183H52.8063C53.5415 42.0183 54.1375 41.4223 54.1375 40.6871C54.1375 39.9518 53.5415 39.3559 52.8063 39.3559Z" fill="#0181F5"/>
</svg>
