<svg width="40" height="40" viewBox="0 0 40 40" fill="none" xmlns="http://www.w3.org/2000/svg">
<g clip-path="url(#clip0_511_2035)">
<path d="M12.7473 22.814C11.9663 22.0332 10.7003 22.0332 9.91933 22.814C9.59188 23.144 9.39103 23.5787 9.352 24.042C9.12444 24.0161 8.89569 24.0021 8.66667 24C5.79445 23.9962 3.24357 25.8348 2.33884 28.5608C1.43411 31.2868 2.37949 34.2857 4.684 36H2C0.895431 36 0 36.8954 0 38C0 39.1046 0.895431 40 2 40H38C39.1046 40 40 39.1046 40 38C40 36.8954 39.1046 36 38 36H35.4667L37.2347 26.574C38.1854 26.2926 38.7852 25.3556 38.6426 24.3744C38.4999 23.3932 37.6582 22.6657 36.6667 22.6667C36.6653 21.451 35.8433 20.3895 34.6667 20.084C34.6667 20.056 34.6667 20.028 34.6667 20C34.6651 18.5503 33.7267 17.2678 32.3454 16.8276C30.9642 16.3874 29.4567 16.8905 28.6167 18.072C28.4146 18.0244 28.2076 18.0002 28 18C26.7584 18.0009 25.681 18.8573 25.4 20.0667C24.1906 20.3477 23.3343 21.425 23.3333 22.6667C22.3413 22.6644 21.4983 23.3914 21.355 24.3731C21.2116 25.3547 21.8114 26.2925 22.7627 26.574L24.5333 36H20C19.9978 33.7918 18.2082 32.0022 16 32H15.1933C15.3376 31.3372 15.3707 30.655 15.2913 29.9813C16.0622 29.912 16.7231 29.4024 16.9863 28.6745C17.2494 27.9466 17.067 27.1322 16.5187 26.586L16.0473 26.1147L38.7473 3.41467C39.2595 2.91089 39.4621 2.17111 39.2782 1.47665C39.0942 0.782197 38.5519 0.239764 37.8575 0.0556278C37.1631 -0.128508 36.4232 0.073944 35.9193 0.585998L13.2193 23.286L12.7473 22.814ZM26 21.3333C26.3682 21.3333 26.6667 21.0349 26.6667 20.6667C26.6664 20.2018 26.9083 19.7704 27.305 19.5281C27.7016 19.2858 28.1959 19.2676 28.6093 19.48C28.7714 19.5631 28.9604 19.5762 29.1324 19.5164C29.3044 19.4566 29.4444 19.329 29.52 19.1633C29.9152 18.314 30.8469 17.8527 31.762 18.0535C32.677 18.2542 33.3301 19.0632 33.3333 20C33.3323 20.1725 33.3099 20.3443 33.2667 20.5113C33.2128 20.7265 33.2695 20.9544 33.4179 21.1193C33.5663 21.2841 33.787 21.3644 34.0067 21.3333C34.7404 21.337 35.3333 21.9329 35.3333 22.6667H24.6667C24.6667 21.9303 25.2636 21.3333 26 21.3333ZM23.3333 24H36.6667C37.0349 24 37.3333 24.2985 37.3333 24.6667C37.3333 25.0349 37.0349 25.3333 36.6667 25.3333H23.3333C22.9651 25.3333 22.6667 25.0349 22.6667 24.6667C22.6667 24.2985 22.9651 24 23.3333 24ZM24.1333 26.6667H35.8667L34.1133 36H25.8867L24.1333 26.6667ZM25.3333 37.3333H38C38.3682 37.3333 38.6667 37.6318 38.6667 38C38.6667 38.3682 38.3682 38.6667 38 38.6667H2C1.63181 38.6667 1.33333 38.3682 1.33333 38C1.33333 37.6318 1.63181 37.3333 2 37.3333H25.3333ZM12.6667 32C12.2985 32 12 32.2985 12 32.6667C12 33.0349 12.2985 33.3333 12.6667 33.3333H16C17.4728 33.3333 18.6667 34.5272 18.6667 36H8.66667C5.72115 36 3.33333 33.6122 3.33333 30.6667C3.33333 27.7212 5.72115 25.3333 8.66667 25.3333C9.03679 25.337 9.40557 25.3784 9.76733 25.4567C9.81404 25.5218 9.86481 25.5839 9.91933 25.6427L13.69 29.414C13.7491 29.4686 13.8115 29.5195 13.8767 29.5667C13.9552 29.9282 13.9965 30.2968 14 30.6667C14.0006 31.1166 13.9435 31.5647 13.83 32H12.6667ZM15.576 28.4713C15.451 28.5965 15.2813 28.6669 15.1043 28.6669C14.9274 28.6669 14.7577 28.5965 14.6327 28.4713L10.862 24.7C10.6094 24.4384 10.613 24.0226 10.8701 23.7655C11.1273 23.5083 11.5431 23.5047 11.8047 23.7573L12.7467 24.6993L13.3127 25.2653L15.5753 27.528C15.8356 27.7883 15.8356 28.2103 15.5753 28.4707L15.576 28.4713ZM36.862 1.52867C37.0294 1.35536 37.2773 1.28586 37.5103 1.34687C37.7434 1.40788 37.9255 1.58991 37.9865 1.82299C38.0475 2.05608 37.978 2.30395 37.8047 2.47133L15.1047 25.1713L14.8427 24.91L14.162 24.2287L36.862 1.52867Z" fill="white"/>
<path d="M28 28H26.6667C26.2985 28 26 28.2985 26 28.6667C26 29.0349 26.2985 29.3333 26.6667 29.3333H28C28.3682 29.3333 28.6667 29.0349 28.6667 28.6667C28.6667 28.2985 28.3682 28 28 28Z" fill="white"/>
<path d="M32.6667 28H30.6667C30.2985 28 30 28.2985 30 28.6667C30 29.0349 30.2985 29.3333 30.6667 29.3333H32.6667C33.0349 29.3333 33.3333 29.0349 33.3333 28.6667C33.3333 28.2985 33.0349 28 32.6667 28Z" fill="white"/>
<path d="M37.3335 18.6666C38.4381 18.6666 39.3335 17.7712 39.3335 16.6666C39.3335 15.5621 38.4381 14.6666 37.3335 14.6666C36.2289 14.6666 35.3335 15.5621 35.3335 16.6666C35.3335 17.7712 36.2289 18.6666 37.3335 18.6666ZM37.3335 16C37.7017 16 38.0002 16.2984 38.0002 16.6666C38.0002 17.0348 37.7017 17.3333 37.3335 17.3333C36.9653 17.3333 36.6668 17.0348 36.6668 16.6666C36.6668 16.2984 36.9653 16 37.3335 16Z" fill="white"/>
<path d="M34 10.6666C32.8954 10.6666 32 11.5621 32 12.6666C32 13.7712 32.8954 14.6666 34 14.6666C35.1046 14.6666 36 13.7712 36 12.6666C36 11.5621 35.1046 10.6666 34 10.6666ZM34 13.3333C33.6318 13.3333 33.3333 13.0348 33.3333 12.6666C33.3333 12.2984 33.6318 12 34 12C34.3682 12 34.6667 12.2984 34.6667 12.6666C34.6667 13.0348 34.3682 13.3333 34 13.3333Z" fill="white"/>
<path d="M17.9941 6.01647e-08C17.6334 -0.000151673 17.3379 0.286715 17.3275 0.647334V0.661334V0.666667C17.3275 0.912 17.2668 6.66667 11.9875 6.66667C11.6193 6.66667 11.3208 6.96515 11.3208 7.33333C11.3208 7.70152 11.6193 8 11.9875 8C17.2461 8 17.3268 13.756 17.3275 14C17.3225 14.3682 17.6169 14.6707 17.9851 14.6757C18.3533 14.6806 18.6558 14.3862 18.6608 14.018V14.004V14C18.6608 13.7547 18.7215 8 24.0001 8C24.3683 8 24.6668 7.70152 24.6668 7.33333C24.6668 6.96515 24.3683 6.66667 24.0001 6.66667C18.7535 6.66667 18.6621 0.933334 18.6608 0.666667C18.6608 0.298477 18.3623 6.01647e-08 17.9941 6.01647e-08ZM20.9615 7.33333C19.5963 8.05348 18.5411 9.24737 17.9941 10.6907C17.4472 9.24737 16.392 8.05348 15.0268 7.33333C16.392 6.61319 17.4472 5.4193 17.9941 3.976C18.5411 5.4193 19.5963 6.61319 20.9615 7.33333Z" fill="white"/>
<path d="M4 20.0034V20.0074C4.00203 20.3756 4.30214 20.6724 4.67033 20.6704C5.03852 20.6684 5.33536 20.3682 5.33333 20.0001C5.33333 19.8367 5.38933 16.0001 8.66667 16.0001C9.03486 16.0001 9.33333 15.7016 9.33333 15.3334C9.33333 14.9652 9.03486 14.6667 8.66667 14.6667C5.38933 14.6667 5.33333 10.8287 5.33333 10.6667V10.6627C5.33223 10.2945 5.03286 9.99695 4.66467 9.99805C4.29648 9.99915 3.9989 10.2985 4 10.6667C4 10.8301 3.944 14.6667 0.666667 14.6667C0.298477 14.6667 0 14.9652 0 15.3334C0 15.7016 0.298477 16.0001 0.666667 16.0001C3.944 16.0001 4 19.8381 4 20.0001V20.0034ZM3.104 15.3334C3.77919 14.8833 4.31933 14.2581 4.66667 13.5247C5.014 14.2581 5.55415 14.8833 6.22933 15.3334C5.55428 15.7837 5.01417 16.4088 4.66667 17.1421C4.31916 16.4088 3.77905 15.7837 3.104 15.3334Z" fill="white"/>
<path d="M7.19524 5.47128L8.19524 6.47128C8.45683 6.72393 8.87263 6.72032 9.12979 6.46316C9.38694 6.206 9.39056 5.7902 9.13791 5.52862L8.13791 4.52862C7.97052 4.35531 7.72266 4.28581 7.48957 4.34682C7.25648 4.40783 7.07445 4.58986 7.01344 4.82294C6.95243 5.05603 7.02194 5.3039 7.19524 5.47128Z" fill="white"/>
<path d="M5.19544 3.47136C5.45703 3.72401 5.87283 3.7204 6.12999 3.46324C6.38714 3.20608 6.39076 2.79028 6.13811 2.52869L5.13811 1.52869C4.87652 1.27605 4.46072 1.27966 4.20356 1.53682C3.94641 1.79397 3.94279 2.20977 4.19544 2.47136L5.19544 3.47136Z" fill="white"/>
<path d="M4.19519 6.47136C4.45552 6.73162 4.87752 6.73162 5.13786 6.47136L6.13786 5.47136C6.39051 5.20977 6.38689 4.79397 6.12974 4.53681C5.87258 4.27966 5.45678 4.27605 5.19519 4.52869L4.19519 5.52869C3.93494 5.78903 3.93494 6.21103 4.19519 6.47136Z" fill="white"/>
<path d="M7.66654 3.66662C7.84334 3.66658 8.01288 3.59632 8.13788 3.47128L9.13788 2.47128C9.31118 2.3039 9.38069 2.05603 9.31968 1.82294C9.25867 1.58986 9.07664 1.40783 8.84355 1.34682C8.61046 1.28581 8.36259 1.35531 8.19521 1.52862L7.19521 2.52862C7.00461 2.71928 6.9476 3.00597 7.05076 3.25505C7.15392 3.50413 7.39695 3.66656 7.66654 3.66662Z" fill="white"/>
</g>
<defs>
<clipPath id="clip0_511_2035">
<rect width="40" height="40" fill="white"/>
</clipPath>
</defs>
</svg>
