<svg width="55" height="55" viewBox="0 0 55 55" fill="none" xmlns="http://www.w3.org/2000/svg">
<g clip-path="url(#clip0_511_1939)">
<path d="M52.2503 14.6671H48.5838C47.0652 14.6671 45.8339 15.8983 45.8339 17.417H41.2508C32.1428 17.4276 24.7621 24.8084 24.7514 33.9163V38.4995C24.7514 41.5369 22.2891 43.9993 19.2517 43.9993C16.2142 43.9993 13.7519 41.5369 13.7519 38.4995V37.5829C15.2705 37.5829 16.5018 36.3517 16.5018 34.833V31.1665C16.5018 29.6479 15.2705 28.4167 13.7519 28.4167H2.75233C1.23366 28.4167 0.00244141 29.6479 0.00244141 31.1665V34.833C0.00244141 36.3517 1.23366 37.5829 2.75233 37.5829V38.4995C2.75233 47.6118 10.1393 54.9988 19.2517 54.9988C28.364 54.9988 35.751 47.6118 35.751 38.4995V33.9163C35.754 30.8802 38.2146 28.4196 41.2508 28.4165H45.8339C45.8339 29.9352 47.0652 31.1664 48.5838 31.1664H52.2503C53.769 31.1664 55.0002 29.9352 55.0002 28.4165V17.417C55.0002 15.8982 53.769 14.6671 52.2503 14.6671ZM1.83574 34.8329V31.1664C1.83574 30.6602 2.24618 30.2498 2.75233 30.2498H13.7519C14.2581 30.2498 14.6685 30.6603 14.6685 31.1664V34.8329C14.6685 35.3392 14.258 35.7495 13.7519 35.7495H2.75233C2.24607 35.7495 1.83574 35.3392 1.83574 34.8329ZM11.9186 37.5828V38.4994C11.9191 39.5365 12.1414 40.5616 12.5703 41.5059C12.4621 41.6031 12.3732 41.7168 12.2751 41.8221C10.6511 40.9115 8.63322 41.0993 7.20521 42.2942C6.52333 42.072 5.78011 42.1403 5.1501 42.4831C4.77876 41.1876 4.58874 39.8471 4.58541 38.4994V37.5828H11.9186ZM33.9177 38.4994C33.9101 45.4568 29.0153 51.4515 22.1998 52.8502C15.3844 54.2487 8.52419 50.6664 5.7772 44.2742C6.03619 44.0089 6.4303 43.9277 6.77297 44.0689C7.11573 44.21 7.3383 44.5452 7.3354 44.9159C7.3354 45.4221 7.74584 45.8325 8.252 45.8325C8.75815 45.8325 9.16859 45.4221 9.16859 44.9159C9.16741 44.3987 9.01896 43.8925 8.74053 43.4566C9.54305 43.0224 10.5055 43.0013 11.3264 43.3998C11.2833 43.5245 11.2247 43.6418 11.1917 43.771C11.131 44.0066 11.1666 44.2566 11.2903 44.466C11.414 44.6754 11.616 44.827 11.8517 44.8874C11.9266 44.9063 12.0036 44.9158 12.0808 44.9159C12.499 44.9157 12.864 44.6325 12.9681 44.2274C13.0786 43.8174 13.2829 43.4387 13.5648 43.121C15.5228 45.5261 18.7819 46.4394 21.7045 45.4019C24.6271 44.3645 26.5811 41.6006 26.5845 38.4994V36.6661C26.5845 36.1598 26.995 35.7495 27.5011 35.7495C28.0073 35.7495 28.4177 36.16 28.4177 36.6661C28.4177 37.1724 28.828 37.5827 29.3343 37.5827C29.8405 37.5827 30.2509 37.1723 30.2509 36.6661C30.2497 36.1461 30.0999 35.6373 29.8192 35.1995C30.2289 34.9615 30.6938 34.8351 31.1676 34.8329C32.6863 34.8329 33.9175 36.0641 33.9175 37.5828V38.4994H33.9177ZM41.2508 26.5833C37.2027 26.5878 33.9223 29.8683 33.9177 33.9163V33.9402C32.2495 32.6483 29.9069 32.6918 28.2877 34.0447C27.7325 33.8607 27.1305 33.875 26.5846 34.085V33.9163C26.5942 25.8205 33.1548 19.2599 41.2506 19.2503H45.8338V26.5834L41.2508 26.5833ZM53.1669 28.4165C53.1669 28.9228 52.7565 29.3331 52.2503 29.3331H48.5838C48.0776 29.3331 47.6672 28.9228 47.6672 28.4165V17.417C47.6672 16.9107 48.0776 16.5004 48.5838 16.5004H52.2503C52.7566 16.5004 53.1669 16.9108 53.1669 17.417V28.4165Z" fill="#0181F5"/>
<path fill-rule="evenodd" clip-rule="evenodd" d="M18.3347 48.5824C17.6882 48.5883 17.0673 48.3297 16.6161 47.8665C15.8394 47.1411 14.8142 46.7412 13.7516 46.7491C13.2453 46.7491 12.835 47.1595 12.835 47.6657C12.835 48.172 13.2454 48.5823 13.7516 48.5823C14.3981 48.5764 15.019 48.8351 15.4702 49.2983C16.2469 50.0237 17.2721 50.4236 18.3347 50.4156C18.841 50.4156 19.2513 50.0052 19.2513 49.499C19.2513 48.9929 18.8409 48.5824 18.3347 48.5824Z" fill="#0181F5"/>
<path fill-rule="evenodd" clip-rule="evenodd" d="M26.5842 45.8325C25.623 45.8433 24.7153 46.2768 24.1028 47.0178C23.6537 47.4669 23.4337 47.6658 22.9176 47.6658C22.4113 47.6658 22.001 48.0761 22.001 48.5824C22.001 49.0887 22.4114 49.499 22.9176 49.499C23.8787 49.4883 24.7864 49.0547 25.3989 48.3138C25.8508 47.8646 26.069 47.6657 26.5842 47.6657C27.0904 47.6657 27.5008 47.2553 27.5008 46.7491C27.5008 46.243 27.0903 45.8325 26.5842 45.8325Z" fill="#0181F5"/>
<path fill-rule="evenodd" clip-rule="evenodd" d="M29.6028 39.6847C28.9616 40.3733 28.6922 41.3291 28.8796 42.2512C28.9364 42.88 28.9336 43.1037 28.6861 43.3512C28.4479 43.5814 28.3523 43.9221 28.4361 44.2426C28.52 44.5632 28.7703 44.8134 29.0908 44.8972C29.4112 44.981 29.752 44.8855 29.9822 44.6473C30.6238 43.9588 30.8932 43.0028 30.7054 42.0807C30.6486 41.4519 30.6514 41.2283 30.8989 40.9808C31.2463 40.6212 31.2414 40.0494 30.8877 39.6959C30.5341 39.3422 29.9624 39.3373 29.6028 39.6847Z" fill="#0181F5"/>
<path d="M8.2519 0.000854492C6.73323 0.000854492 5.50202 1.23207 5.50202 2.75074V16.9456C3.60073 17.5973 2.21526 19.2465 1.90149 21.2318C0.614629 21.6462 -0.178004 22.9367 0.0342525 24.2718C0.246509 25.6069 1.40028 26.5881 2.75213 26.583H13.7517C15.1035 26.5881 16.2573 25.6069 16.4696 24.2718C16.6818 22.9367 15.8891 21.6461 14.6023 21.2318C14.2886 19.2465 12.9032 17.5973 11.0018 16.9456V2.75074C11.0018 1.23207 9.77057 0.000854492 8.2519 0.000854492ZM7.33531 2.75074C7.33531 2.24448 7.74575 1.83415 8.2519 1.83415C8.75805 1.83415 9.1685 2.24459 9.1685 2.75074V16.5424C8.87696 16.5149 8.57179 16.5002 8.2519 16.5002C7.93201 16.5002 7.62673 16.5149 7.33531 16.5424V2.75074ZM13.7517 24.7498H2.75213C2.24587 24.7498 1.83554 24.3394 1.83554 23.8332C1.83554 23.3271 2.24598 22.9167 2.75213 22.9167H13.7517C14.2579 22.9167 14.6683 23.3271 14.6683 23.8332C14.6683 24.3394 14.2579 24.7498 13.7517 24.7498ZM12.6847 21.0834H3.81911C4.13631 19.9834 5.12992 18.3335 8.2519 18.3335C11.3739 18.3335 12.3685 19.9834 12.6847 21.0834Z" fill="#0181F5"/>
</g>
<defs>
<clipPath id="clip0_511_1939">
<rect width="55" height="55" fill="white"/>
</clipPath>
</defs>
</svg>
