<svg width="46" height="46" viewBox="0 0 46 46" fill="none" xmlns="http://www.w3.org/2000/svg">
<g clip-path="url(#clip0_344_1675)">
<path d="M6.86866 21.8216C6.83723 21.8899 6.80503 21.9543 6.77359 22.024C6.15468 23.4133 5.14173 24.5905 3.86026 25.4096L1.74196 26.7567C1.20357 27.1001 0.84992 27.6691 0.780332 28.3039C0.710743 28.9387 0.932723 29.5708 1.38393 30.0227L10.62 39.2595C11.0145 39.6531 11.5493 39.8737 12.1065 39.8728C12.1855 39.875 12.2646 39.873 12.3434 39.8667C12.979 39.7983 13.5485 39.4434 13.8898 38.903C14.869 37.4002 16.3257 36.271 18.0252 35.6975C18.6668 35.4692 19.281 35.1704 19.8568 34.8067L21.7251 36.6743C22.5248 37.4772 23.7919 37.5734 24.7036 36.9004L33.5747 45.7754C33.8755 46.0659 34.3537 46.0618 34.6495 45.766C34.9452 45.4703 34.9493 44.9921 34.6588 44.6913L25.8092 35.8417L28.9418 32.7091L36.0664 39.8337C36.3672 40.1243 36.8454 40.1201 37.1411 39.8244C37.4369 39.5286 37.441 39.0505 37.1505 38.7496L30.0258 31.625L32.7751 28.8757L35.6831 31.7837C35.9839 32.0742 36.4621 32.0701 36.7578 31.7744C37.0535 31.4786 37.0577 31.0005 36.7671 30.6996L33.8592 27.7917L36.6084 25.0424L42.5831 31.017C42.8839 31.3076 43.3621 31.3034 43.6578 31.0077C43.9535 30.712 43.9577 30.2338 43.6671 29.933L37.668 23.9338C38.3409 23.0221 38.2447 21.755 37.4418 20.9553L32.9047 16.4182C32.9492 16.2292 32.9726 16.0358 32.9744 15.8416C32.9769 15.1546 32.7041 14.4953 32.217 14.0108C31.9566 13.7542 31.6423 13.5588 31.297 13.4389L32.217 12.5189C33.2269 11.5073 33.2269 9.86893 32.217 8.8573C31.1931 7.87751 29.5793 7.87751 28.5554 8.8573L28.0747 9.338C27.8166 8.64422 27.2711 8.09595 26.5786 7.83436C25.8862 7.57278 25.1144 7.62346 24.4621 7.97334L17.1673 0.680035C16.2584 -0.196731 14.8186 -0.196731 13.9097 0.680035L1.44679 13.1391C1.01111 13.5691 0.765869 14.1558 0.765869 14.7679C0.765869 15.3801 1.01111 15.9667 1.44679 16.3967L6.86866 21.8216ZM36.5816 22.5822C36.582 22.7856 36.5014 22.9809 36.3577 23.125L23.8917 35.591C23.5875 35.8799 23.1103 35.8799 22.8061 35.591L21.111 33.8959C21.3265 33.7126 21.4614 33.5831 21.4775 33.567L27.9175 27.1231C28.4257 26.6143 28.6995 25.917 28.6733 25.1983C28.6471 24.4796 28.3234 23.8041 27.7795 23.3335C27.5499 23.137 27.2861 22.9845 27.0013 22.8835L32.0997 17.7859L36.3539 22.0401C36.4993 22.183 36.5813 22.3783 36.5816 22.5822ZM26.4079 9.5105C26.8184 9.92371 26.8184 10.5908 26.4079 11.004L20.3934 17.02C20.1941 17.2125 20.1142 17.4975 20.1844 17.7656C20.2545 18.0336 20.4639 18.243 20.7319 18.3131C21 18.3833 21.285 18.3034 21.4775 18.1041L27.4912 12.0903L29.6379 9.94367C30.0554 9.54373 30.7139 9.54373 31.1314 9.94367C31.5423 10.3567 31.5423 11.0241 31.1314 11.4371L22.971 19.5952C22.7717 19.7877 22.6917 20.0728 22.7619 20.3408C22.8321 20.6089 23.0414 20.8182 23.3094 20.8884C23.5775 20.9585 23.8625 20.8786 24.055 20.6793L29.6394 15.0949C30.0568 14.6946 30.7156 14.6946 31.1329 15.0949C31.5438 15.5079 31.5438 16.1753 31.1329 16.5884L24.6929 23.0322C24.6413 23.0888 24.5987 23.1529 24.5664 23.2223C24.4324 23.3153 24.3067 23.4197 24.1907 23.5344L20.8228 26.8977C20.523 27.1971 20.5226 27.6828 20.822 27.9826C21.1214 28.2824 21.607 28.2827 21.9068 27.9833L25.271 24.6192C25.668 24.1982 26.3182 24.1437 26.7798 24.4927C27.0016 24.6848 27.1338 24.9605 27.1447 25.2538C27.1556 25.5471 27.0443 25.8318 26.8373 26.0398L20.3973 32.4798C19.5656 33.2523 18.5885 33.8517 17.523 34.2432C15.496 34.9304 13.7597 36.2809 12.5949 38.0765C12.5014 38.223 12.3466 38.3191 12.1739 38.3381C12.0012 38.357 11.8293 38.2966 11.7063 38.1739L2.46799 28.9386C2.34497 28.8156 2.28439 28.6435 2.30332 28.4706C2.32226 28.2977 2.41864 28.1427 2.56536 28.0493L4.68136 26.703C6.21633 25.7235 7.43025 24.3153 8.17276 22.6527C8.78398 21.1413 9.65184 19.7469 10.738 18.5311L19.2572 10.0127C19.6536 9.59114 20.3042 9.53657 20.7653 9.88617C20.9871 10.0783 21.1193 10.3539 21.1302 10.6472C21.1411 10.9406 21.0298 11.2252 20.8228 11.4333L17.8159 14.4402C17.6166 14.6327 17.5367 14.9177 17.6068 15.1858C17.677 15.4538 17.8863 15.6631 18.1544 15.7333C18.4224 15.8035 18.7075 15.7235 18.9 15.5242L21.9068 12.5174L24.9168 9.5105C25.334 9.11203 25.9907 9.11203 26.4079 9.5105ZM2.53009 14.227L14.9976 1.7572C15.299 1.46341 15.7801 1.46511 16.0794 1.76104L23.2861 8.9677L22.4826 9.7704C22.3348 9.36802 22.0889 9.00886 21.7673 8.72544C20.6999 7.84374 19.1338 7.93156 18.1716 8.92707L9.65396 17.447C8.83168 18.3205 8.13687 19.3057 7.59009 20.3734L2.52473 15.3134C2.37829 15.1703 2.29619 14.9739 2.2972 14.7691C2.29821 14.5643 2.38225 14.3687 2.53009 14.227Z" fill="white"/>
<path d="M42.7748 38.4922L43.9248 39.6422C44.2256 39.9327 44.7038 39.9285 44.9995 39.6328C45.2952 39.3371 45.2994 38.8589 45.0089 38.5581L43.8589 37.4081C43.558 37.1175 43.0799 37.1217 42.7841 37.4174C42.4884 37.7132 42.4842 38.1913 42.7748 38.4922Z" fill="white"/>
<path d="M40.4748 36.192C40.7757 36.4825 41.2538 36.4784 41.5496 36.1826C41.8453 35.8869 41.8494 35.4087 41.5589 35.1079L40.4089 33.9579C40.1081 33.6673 39.6299 33.6715 39.3342 33.9672C39.0384 34.263 39.0343 34.7411 39.3248 35.042L40.4748 36.192Z" fill="white"/>
<path d="M39.3248 39.6422C39.6242 39.9414 40.1095 39.9414 40.4089 39.6422L41.5589 38.4922C41.8494 38.1913 41.8453 37.7132 41.5495 37.4174C41.2538 37.1217 40.7756 37.1175 40.4748 37.4081L39.3248 38.5581C39.0255 38.8575 39.0255 39.3428 39.3248 39.6422Z" fill="white"/>
<path d="M42.7748 36.192C43.0741 36.4913 43.5594 36.4913 43.8588 36.192L45.0088 35.042C45.2994 34.7411 45.2952 34.263 44.9995 33.9672C44.7038 33.6715 44.2256 33.6673 43.9248 33.9579L42.7748 35.1079C42.4755 35.4073 42.4755 35.8926 42.7748 36.192Z" fill="white"/>
<path d="M39.8668 13.232C40.2902 13.232 40.6334 12.8887 40.6334 12.4653V10.9319C40.6334 10.5085 40.2902 10.1653 39.8668 10.1653C39.4433 10.1653 39.1001 10.5085 39.1001 10.9319V12.4653C39.1001 12.8887 39.4433 13.232 39.8668 13.232Z" fill="white"/>
<path d="M40.6334 17.0651V15.5318C40.6334 15.1084 40.2902 14.7651 39.8668 14.7651C39.4433 14.7651 39.1001 15.1084 39.1001 15.5318V17.0651C39.1001 17.4886 39.4433 17.8318 39.8668 17.8318C40.2902 17.8318 40.6334 17.4886 40.6334 17.0651Z" fill="white"/>
<path d="M41.4002 14.7653H42.9335C43.357 14.7653 43.7002 14.422 43.7002 13.9986C43.7002 13.5752 43.357 13.2319 42.9335 13.2319H41.4002C40.9768 13.2319 40.6335 13.5752 40.6335 13.9986C40.6335 14.422 40.9768 14.7653 41.4002 14.7653Z" fill="white"/>
<path d="M36.8001 14.7653H38.3334C38.7569 14.7653 39.1001 14.422 39.1001 13.9986C39.1001 13.5752 38.7569 13.2319 38.3334 13.2319H36.8001C36.3767 13.2319 36.0334 13.5752 36.0334 13.9986C36.0334 14.422 36.3767 14.7653 36.8001 14.7653Z" fill="white"/>
</g>
<defs>
<clipPath id="clip0_344_1675">
<rect width="46" height="46" fill="white"/>
</clipPath>
</defs>
</svg>
