<svg width="40" height="40" viewBox="0 0 40 40" fill="none" xmlns="http://www.w3.org/2000/svg">
<g clip-path="url(#clip0_511_1939)">
<path d="M37.9999 10.667H35.3334C34.2289 10.667 33.3335 11.5624 33.3335 12.6669H30.0002C23.3763 12.6746 18.0085 18.0425 18.0007 24.6664V27.9996C18.0007 30.2087 16.2099 31.9995 14.0009 31.9995C11.7918 31.9995 10.0011 30.2087 10.0011 27.9996V27.333C11.1055 27.333 12.001 26.4376 12.001 25.3331V22.6666C12.001 21.5621 11.1055 20.6667 10.0011 20.6667H2.00138C0.896897 20.6667 0.00146484 21.5621 0.00146484 22.6666V25.3331C0.00146484 26.4376 0.896897 27.333 2.00138 27.333V27.9996C2.00138 34.6268 7.37374 39.9991 14.0009 39.9991C20.628 39.9991 26.0004 34.6268 26.0004 27.9996V24.6664C26.0026 22.4583 27.7921 20.6688 30.0002 20.6666H33.3335C33.3335 21.7711 34.2289 22.6665 35.3334 22.6665H37.9999C39.1044 22.6665 39.9998 21.7711 39.9998 20.6666V12.6669C39.9998 11.5623 39.1044 10.667 37.9999 10.667ZM1.33477 25.333V22.6665C1.33477 22.2983 1.63327 21.9999 2.00138 21.9999H10.0011C10.3692 21.9999 10.6677 22.2984 10.6677 22.6665V25.333C10.6677 25.7012 10.3692 25.9996 10.0011 25.9996H2.00138C1.63319 25.9996 1.33477 25.7012 1.33477 25.333ZM8.66775 27.3329V27.9996C8.66814 28.7538 8.82977 29.4993 9.14172 30.1861C9.06305 30.2568 8.99836 30.3395 8.92704 30.4161C7.74591 29.7538 6.27839 29.8904 5.23984 30.7594C4.74393 30.5978 4.2034 30.6475 3.74522 30.8968C3.47515 29.9546 3.33695 28.9797 3.33453 27.9996V27.3329H8.66775ZM24.6671 27.9996C24.6615 33.0595 21.1017 37.4193 16.145 38.4365C11.1884 39.4536 6.1991 36.8483 4.20129 32.1994C4.38964 32.0065 4.67627 31.9474 4.92548 32.0501C5.17477 32.1528 5.33664 32.3965 5.33453 32.6661C5.33453 33.0343 5.63303 33.3327 6.00114 33.3327C6.36925 33.3327 6.66775 33.0343 6.66775 32.6661C6.66689 32.2899 6.55893 31.9218 6.35644 31.6048C6.94009 31.289 7.64006 31.2736 8.23706 31.5635C8.20574 31.6542 8.16308 31.7395 8.1391 31.8335C8.09496 32.0048 8.12082 32.1867 8.21082 32.3389C8.30081 32.4912 8.44768 32.6015 8.61908 32.6454C8.67361 32.6591 8.72954 32.666 8.78571 32.6661C9.08984 32.6659 9.3553 32.46 9.431 32.1654C9.51139 31.8672 9.65998 31.5918 9.86497 31.3608C11.289 33.1099 13.6593 33.7741 15.7848 33.0196C17.9103 32.2651 19.3314 30.255 19.3339 27.9996V26.6663C19.3339 26.2981 19.6324 25.9996 20.0005 25.9996C20.3686 25.9996 20.6671 26.2981 20.6671 26.6663C20.6671 27.0344 20.9655 27.3329 21.3337 27.3329C21.7019 27.3329 22.0003 27.0344 22.0003 26.6663C21.9995 26.2881 21.8905 25.918 21.6864 25.5997C21.9843 25.4265 22.3224 25.3346 22.667 25.333C23.7715 25.333 24.6669 26.2285 24.6669 27.3329V27.9996H24.6671ZM30.0002 19.3333C27.0562 19.3366 24.6705 21.7224 24.6671 24.6664V24.6838C23.4539 23.7442 21.7502 23.7758 20.5726 24.7598C20.1688 24.6259 19.731 24.6363 19.334 24.7891V24.6664C19.3409 18.7785 24.1123 14.0072 30.0002 14.0002H33.3334V19.3334L30.0002 19.3333ZM38.6665 20.6666C38.6665 21.0348 38.368 21.3332 37.9999 21.3332H35.3334C34.9652 21.3332 34.6668 21.0348 34.6668 20.6666V12.6669C34.6668 12.2987 34.9652 12.0003 35.3334 12.0003H37.9999C38.3681 12.0003 38.6665 12.2988 38.6665 12.6669V20.6666Z" fill="white"/>
<path fill-rule="evenodd" clip-rule="evenodd" d="M13.3343 35.3327C12.8641 35.337 12.4126 35.1488 12.0844 34.812C11.5195 34.2844 10.7739 33.9936 10.0011 33.9994C9.6329 33.9994 9.33447 34.2978 9.33447 34.666C9.33447 35.0342 9.63298 35.3326 10.0011 35.3326C10.4713 35.3283 10.9228 35.5164 11.251 35.8533C11.8159 36.3808 12.5615 36.6717 13.3343 36.6659C13.7025 36.6659 14.0009 36.3674 14.0009 35.9993C14.0009 35.6312 13.7024 35.3327 13.3343 35.3327Z" fill="white"/>
<path fill-rule="evenodd" clip-rule="evenodd" d="M19.3342 33.3328C18.6352 33.3406 17.975 33.6559 17.5296 34.1948C17.203 34.5214 17.043 34.6661 16.6676 34.6661C16.2994 34.6661 16.001 34.9645 16.001 35.3327C16.001 35.7009 16.2995 35.9993 16.6676 35.9993C17.3666 35.9915 18.0268 35.6762 18.4722 35.1373C18.8009 34.8107 18.9595 34.666 19.3342 34.666C19.7024 34.666 20.0008 34.3675 20.0008 33.9994C20.0008 33.6313 19.7023 33.3328 19.3342 33.3328Z" fill="white"/>
<path fill-rule="evenodd" clip-rule="evenodd" d="M21.5294 28.8616C21.0631 29.3624 20.8672 30.0576 21.0034 30.7281C21.0447 31.1855 21.0427 31.3481 20.8627 31.5281C20.6894 31.6955 20.6199 31.9433 20.6809 32.1765C20.7419 32.4096 20.924 32.5916 21.157 32.6525C21.39 32.7135 21.6379 32.644 21.8053 32.4707C22.272 31.9701 22.4679 31.2748 22.3313 30.6042C22.29 30.1468 22.292 29.9842 22.472 29.8042C22.7247 29.5427 22.7211 29.1268 22.4639 28.8697C22.2067 28.6125 21.791 28.6089 21.5294 28.8616Z" fill="white"/>
<path d="M6.00138 0.000854492C4.8969 0.000854492 4.00147 0.896287 4.00147 2.00077V12.3243C2.61871 12.7983 1.6111 13.9977 1.3829 15.4415C0.447003 15.7429 -0.129458 16.6815 0.0249109 17.6525C0.17928 18.6235 1.01839 19.337 2.00155 19.3333H10.0012C10.9844 19.337 11.8235 18.6235 11.9779 17.6525C12.1322 16.6815 11.5557 15.7429 10.6199 15.4415C10.3917 13.9977 9.38414 12.7983 8.0013 12.3243V2.00077C8.0013 0.896287 7.10587 0.000854492 6.00138 0.000854492ZM5.33477 2.00077C5.33477 1.63258 5.63327 1.33416 6.00138 1.33416C6.36949 1.33416 6.668 1.63266 6.668 2.00077V12.0311C6.45598 12.0111 6.23403 12.0004 6.00138 12.0004C5.76874 12.0004 5.54672 12.0111 5.33477 12.0311V2.00077ZM10.0012 18.0001H2.00155C1.63336 18.0001 1.33494 17.7016 1.33494 17.3335C1.33494 16.9654 1.63344 16.6669 2.00155 16.6669H10.0012C10.3694 16.6669 10.6678 16.9654 10.6678 17.3335C10.6678 17.7016 10.3694 18.0001 10.0012 18.0001ZM9.22524 15.3336H2.77753C3.00823 14.5336 3.73085 13.3337 6.00138 13.3337C8.27192 13.3337 8.99525 14.5336 9.22524 15.3336Z" fill="white"/>
</g>
<defs>
<clipPath id="clip0_511_1939">
<rect width="40" height="40" fill="white"/>
</clipPath>
</defs>
</svg>
