<svg width="40" height="40" viewBox="0 0 40 40" fill="none" xmlns="http://www.w3.org/2000/svg">
<path d="M15 28.75C12.2805 28.75 9.62209 27.9436 7.36092 26.4327C5.09974 24.9218 3.33737 22.7744 2.29666 20.2619C1.25596 17.7494 0.983662 14.9848 1.51421 12.3175C2.04476 9.65028 3.35432 7.20026 5.27729 5.27729C7.20026 3.35432 9.65028 2.04476 12.3175 1.51421C14.9848 0.983662 17.7494 1.25596 20.2619 2.29666C22.7744 3.33737 24.9218 5.09974 26.4327 7.36092C27.9436 9.62209 28.75 12.2805 28.75 15C28.7459 18.6455 27.2959 22.1404 24.7182 24.7182C22.1404 27.2959 18.6455 28.7459 15 28.75ZM15 2.50001C12.5277 2.50001 10.111 3.23312 8.05538 4.60664C5.99976 5.98015 4.39761 7.93239 3.45151 10.2165C2.50542 12.5005 2.25788 15.0139 2.74019 17.4386C3.22251 19.8634 4.41302 22.0907 6.16117 23.8388C7.90933 25.587 10.1366 26.7775 12.5614 27.2598C14.9861 27.7421 17.4995 27.4946 19.7836 26.5485C22.0676 25.6024 24.0199 24.0002 25.3934 21.9446C26.7669 19.889 27.5 17.4723 27.5 15C27.4962 11.686 26.178 8.50875 23.8346 6.16537C21.4913 3.82199 18.314 2.50381 15 2.50001Z" fill="white"/>
<path d="M31.2501 31.875C31.0844 31.875 30.9254 31.8091 30.8083 31.6919L23.9333 24.8169C23.8194 24.699 23.7564 24.5411 23.7578 24.3773C23.7593 24.2134 23.825 24.0566 23.9409 23.9407C24.0568 23.8249 24.2135 23.7591 24.3774 23.7577C24.5413 23.7563 24.6991 23.8193 24.817 23.9331L31.692 30.8081C31.7794 30.8955 31.8389 31.0069 31.863 31.1281C31.8871 31.2493 31.8747 31.375 31.8274 31.4892C31.7801 31.6034 31.7001 31.701 31.5973 31.7696C31.4945 31.8383 31.3737 31.875 31.2501 31.875Z" fill="white"/>
<path d="M36.2186 38.7175C35.8904 38.7181 35.5652 38.6539 35.2619 38.5284C34.9585 38.4029 34.683 38.2186 34.4511 37.9863L29.7499 33.2856C29.6327 33.1684 29.5669 33.0095 29.5669 32.8438C29.5669 32.678 29.6327 32.5191 29.7499 32.4019L32.4018 29.75C32.519 29.6328 32.6779 29.567 32.8436 29.567C33.0094 29.567 33.1683 29.6328 33.2855 29.75L37.9861 34.4506C38.4548 34.9195 38.7181 35.5552 38.7181 36.2181C38.7181 36.881 38.4548 37.5168 37.9861 37.9856C37.7543 38.2181 37.4788 38.4024 37.1755 38.528C36.8721 38.6536 36.5469 38.718 36.2186 38.7175ZM31.0761 32.8438L35.3349 37.1025C35.4502 37.2219 35.5881 37.3171 35.7406 37.3826C35.8931 37.4481 36.0572 37.4826 36.2231 37.4841C36.3891 37.4855 36.5537 37.4539 36.7073 37.391C36.8609 37.3282 37.0005 37.2354 37.1179 37.118C37.2352 37.0006 37.3281 36.8611 37.3909 36.7074C37.4538 36.5538 37.4854 36.3892 37.4839 36.2233C37.4825 36.0573 37.448 35.8933 37.3825 35.7408C37.317 35.5882 37.2218 35.4503 37.1024 35.335L32.8436 31.0763L31.0761 32.8438Z" fill="white"/>
<path d="M15 23.125C13.5087 23.1232 12.079 22.53 11.0245 21.4755C9.97004 20.421 9.37682 18.9913 9.375 17.5C9.375 14.9213 13.0281 6.875 15 6.875C16.9719 6.875 20.625 14.9213 20.625 17.5C20.6232 18.9913 20.03 20.421 18.9755 21.4755C17.921 22.53 16.4913 23.1232 15 23.125ZM15 8.14687C13.9081 8.75687 10.625 15.0219 10.625 17.5C10.625 18.6603 11.0859 19.7731 11.9064 20.5936C12.7269 21.4141 13.8397 21.875 15 21.875C16.1603 21.875 17.2731 21.4141 18.0936 20.5936C18.9141 19.7731 19.375 18.6603 19.375 17.5C19.375 15.0212 16.0919 8.75687 15 8.14687Z" fill="white"/>
<path d="M15 20.625C14.8342 20.625 14.6753 20.5592 14.5581 20.4419C14.4408 20.3247 14.375 20.1658 14.375 20C14.375 19.8342 14.4408 19.6753 14.5581 19.5581C14.6753 19.4408 14.8342 19.375 15 19.375C15.4973 19.375 15.9742 19.1775 16.3258 18.8258C16.6775 18.4742 16.875 17.9973 16.875 17.5C16.875 17.3342 16.9408 17.1753 17.0581 17.0581C17.1753 16.9408 17.3342 16.875 17.5 16.875C17.6658 16.875 17.8247 16.9408 17.9419 17.0581C18.0592 17.1753 18.125 17.3342 18.125 17.5C18.124 18.3285 17.7944 19.1228 17.2086 19.7086C16.6228 20.2944 15.8285 20.624 15 20.625Z" fill="white"/>
</svg>
