<svg width="55" height="55" viewBox="0 0 55 55" fill="none" xmlns="http://www.w3.org/2000/svg">
<path d="M6.72351 53.2812C8.09859 53.2812 9.21729 52.1626 9.21729 50.7875V45.3375H27.3493V50.7875C27.3493 52.1626 28.468 53.2812 29.8431 53.2812C31.2182 53.2812 32.3369 52.1626 32.3369 50.7875V40.3524H33.9259C34.5212 41.9446 35.6079 42.9104 36.8633 42.9104C38.7839 42.9104 40.2887 40.5874 40.2887 37.6216C40.2887 34.6515 38.7839 32.3248 36.8633 32.3248C35.6087 32.3248 34.5219 33.2936 33.9257 34.8907H32.3369V10.7262C32.3369 10.0733 32.8677 9.5425 33.5207 9.5425H35.8785C36.5767 11.3336 38.0163 12.5008 39.6223 12.5008C41.9436 12.5008 43.8323 10.0842 43.8323 7.11376C43.8323 4.1391 41.9436 1.71875 39.6223 1.71875C38.0407 1.71875 36.6448 2.81542 35.9256 4.55452H33.5207C30.118 4.55452 27.3493 7.32315 27.3493 10.7262V16.2983H9.21729V10.7262C9.21729 10.0733 9.74853 9.5425 10.401 9.5425H12.7623C13.4604 11.3336 14.8996 12.5008 16.5056 12.5008C18.8274 12.5008 20.716 10.0842 20.716 7.11376C20.716 4.1391 18.8274 1.71875 16.5056 1.71875C14.9243 1.71875 13.5285 2.81542 12.8094 4.55452H10.401C6.99794 4.55452 4.22931 7.32315 4.22931 10.7262V50.7875C4.22931 52.1626 5.34801 53.2812 6.72351 53.2812ZM27.3493 31.867H9.21729V29.7773H27.3493V31.867ZM13.0614 38.0521C12.8612 38.2476 12.6044 38.3551 12.338 38.3551H9.21729V36.3308H12.338C12.8961 36.3308 13.3501 36.7849 13.3501 37.3429C13.3501 37.609 13.2423 37.8662 13.0614 38.0521ZM10.8071 34.6121H9.21729V33.5857H11.3176C11.1233 33.891 10.9495 34.2301 10.8071 34.6121ZM12.679 34.6465C12.9875 34.1002 13.3739 33.7615 13.7458 33.7615C14.5515 33.7615 15.4528 35.2919 15.4528 37.3396C15.4528 38.2646 15.2564 39.132 14.9216 39.8107H13.4815C13.7678 39.6769 14.0385 39.5003 14.277 39.2669C14.7877 38.7436 15.0688 38.0601 15.0688 37.3429C15.0688 35.9537 14.0228 34.8166 12.679 34.6465ZM16.1839 33.5857H27.3493V39.8107H16.7664C17.0198 39.0537 17.1715 38.2114 17.1715 37.3396C17.1715 35.8587 16.7972 34.5381 16.1839 33.5857ZM27.3493 28.0585H9.21729V21.8255H27.3493V28.0585ZM9.21729 43.6187V41.5295H27.3493V43.6187H9.21729ZM32.3369 36.6095H35.4576C36.0157 36.6095 36.4697 37.0635 36.4697 37.6216C36.4697 37.888 36.3623 38.1448 36.181 38.3307C35.9809 38.5263 35.7241 38.6337 35.4576 38.6337H32.3369V36.6095ZM36.8633 34.0435C37.669 34.0435 38.5699 35.5738 38.5699 37.6216C38.5699 39.6647 37.669 41.1917 36.8633 41.1917C36.4924 41.1917 36.1076 40.8581 35.8002 40.3188C36.3905 40.2434 36.9459 39.9864 37.3962 39.5459C37.9073 39.0231 38.1885 38.3395 38.1885 37.6216C38.1885 36.2322 37.1423 35.095 35.7983 34.9251C36.1064 34.3807 36.4921 34.0435 36.8633 34.0435ZM39.6223 3.4375C40.9726 3.4375 42.1136 5.121 42.1136 7.11376C42.1136 9.10233 40.9726 10.7821 39.6223 10.7821C38.9128 10.7821 38.2466 10.3083 37.783 9.5425H38.7675C40.1426 9.5425 41.2613 8.42381 41.2613 7.0483C41.2613 5.67322 40.1426 4.55452 38.7675 4.55452H37.8641C38.3262 3.86331 38.9594 3.4375 39.6223 3.4375ZM29.0681 10.7262C29.0681 8.27106 31.0655 6.27327 33.5207 6.27327H38.7675C39.2023 6.27327 39.5426 6.61358 39.5426 7.0483C39.5426 7.47589 39.1947 7.82375 38.7675 7.82375H33.5207C31.9202 7.82375 30.6182 9.12582 30.6182 10.7262V35.7501V39.4931V50.7875C30.6182 51.2146 30.2703 51.5625 29.8431 51.5625C29.416 51.5625 29.0681 51.2146 29.0681 50.7875V44.4781V40.6701V32.7263V28.9179V20.9661V17.1577V10.7262ZM27.3493 18.0171V20.1068H9.21729V18.0171H27.3493ZM16.5056 3.4375C17.8564 3.4375 18.9973 5.121 18.9973 7.11376C18.9973 9.10233 17.8564 10.7821 16.5056 10.7821C15.7964 10.7821 15.1303 10.3083 14.6667 9.5425H15.6559C17.031 9.5425 18.1497 8.42381 18.1497 7.0483C18.1497 5.67322 17.031 4.55452 15.6559 4.55452H14.7477C15.2098 3.86331 15.843 3.4375 16.5056 3.4375ZM5.94806 10.7262C5.94806 8.27106 7.94585 6.27327 10.401 6.27327H15.6559C16.0831 6.27327 16.4309 6.62113 16.4309 7.0483C16.4309 7.47589 16.0831 7.82375 15.6559 7.82375H10.401C8.80061 7.82375 7.49854 9.12582 7.49854 10.7262V17.1577V20.9661V28.9179V32.7263V35.4715V39.2144V40.6701V44.4781V50.7875C7.49854 51.2146 7.15068 51.5625 6.72351 51.5625C6.29592 51.5625 5.94806 51.2146 5.94806 50.7875V10.7262Z" fill="#0181F5"/>
<path d="M38.5699 26.7695C38.5699 28.3095 39.8229 29.5625 41.3629 29.5625C42.9029 29.5625 44.1559 28.3095 44.1559 26.7695C44.1559 25.2295 42.9029 23.9766 41.3629 23.9766C39.8229 23.9766 38.5699 25.2295 38.5699 26.7695ZM42.4371 26.7695C42.4371 27.362 41.9554 27.8438 41.3629 27.8438C40.7704 27.8438 40.2887 27.362 40.2887 26.7695C40.2887 26.177 40.7704 25.6953 41.3629 25.6953C41.9554 25.6953 42.4371 26.177 42.4371 26.7695Z" fill="#0181F5"/>
<path d="M48.5631 20.1576C48.5631 18.0134 46.8187 16.269 44.6745 16.269C42.5307 16.269 40.7863 18.0134 40.7863 20.1576C40.7863 22.3019 42.5307 24.0462 44.6745 24.0462C46.8187 24.0462 48.5631 22.3019 48.5631 20.1576ZM42.5051 20.1576C42.5051 18.9613 43.4782 17.9878 44.6745 17.9878C45.8708 17.9878 46.8443 18.9613 46.8443 20.1576C46.8443 21.354 45.8708 22.3275 44.6745 22.3275C43.4782 22.3275 42.5051 21.354 42.5051 20.1576Z" fill="#0181F5"/>
<path d="M48.4708 16.3387C50.615 16.3387 52.3594 14.5944 52.3594 12.4501C52.3594 10.3059 50.615 8.56152 48.4708 8.56152C46.3265 8.56152 44.5822 10.3059 44.5822 12.4501C44.5822 14.5944 46.3265 16.3387 48.4708 16.3387ZM48.4708 10.2803C49.6671 10.2803 50.6406 11.2538 50.6406 12.4501C50.6406 13.6464 49.6671 14.6199 48.4708 14.6199C47.2744 14.6199 46.3009 13.6464 46.3009 12.4501C46.3009 11.2538 47.2744 10.2803 48.4708 10.2803Z" fill="#0181F5"/>
</svg>
