<svg width="50" height="50" viewBox="0 0 50 50" fill="none" xmlns="http://www.w3.org/2000/svg">
<path d="M50 20.9677H48.1878L45.4869 22.3889C45.1829 22.2211 44.8667 22.079 44.5257 21.9935L41.1282 21.1434V20.7571C42.6313 19.7081 43.5484 17.975 43.5484 16.129V14.7193C43.5484 11.5864 41.0936 8.96469 38.0765 8.87333C37.9233 8.86939 37.7725 8.87491 37.6209 8.88239L38.5018 6.82019L34.2313 2.55088L31.7139 4.18937C30.7574 3.65069 29.7458 3.23132 28.6952 2.93717L28.0734 0H21.9274L21.3056 2.93796C20.255 3.23211 19.2426 3.65148 18.2869 4.19016L15.7695 2.55166L11.5026 6.81861L12.3685 8.88239C12.3354 8.88081 12.3039 8.87491 12.2708 8.87412C10.7264 8.82923 9.27183 9.39272 8.1669 10.4654C7.06039 11.5372 6.45161 12.9757 6.45161 14.5161V16.129C6.45161 17.975 7.36793 19.7073 8.87097 20.7563V21.1434L6.6548 21.6974L2.6379 19.3548H0V36.0655L7.93378 38.7097H9.47896L9.67191 38.034L12.1039 39.4937C12.1436 40.816 13.2041 41.88 14.5252 41.9264C14.5717 43.242 15.6289 44.2993 16.9445 44.3458C16.991 45.6614 18.0483 46.7187 19.3639 46.7651C19.4119 48.1115 20.5145 49.1936 21.8718 49.1936C22.3759 49.1936 22.8701 49.0364 23.2855 48.7565L23.9998 49.3873C24.4475 49.7815 25.024 50 25.6226 50H25.7718C27.1138 50 28.2057 48.9151 28.2227 47.5775C29.5501 47.5606 30.6251 46.4856 30.642 45.1581C31.9702 45.1412 33.046 44.0646 33.0614 42.7364C34.4018 42.7049 35.4839 41.6098 35.4839 40.2619C35.4839 40.1808 35.4799 40.1009 35.4717 40.0202L50 32.7566V20.9677ZM41.9355 14.7193V16.129C41.9355 17.5604 41.1621 18.8977 39.917 19.6187L39.5138 19.8518L39.5169 22.4038L43.546 23.4103L34.6774 28.0781V25.9057C34.6774 24.8216 34.2395 23.8289 33.5225 23.0953L36.2903 22.4038V19.8498L35.8879 19.6171C34.6436 18.8977 33.871 17.5604 33.871 16.129V14.5161C33.871 13.4163 34.3057 12.3878 35.096 11.6219C35.8855 10.8564 36.933 10.4437 38.0281 10.4862C40.1824 10.5508 41.9355 12.45 41.9355 14.7193ZM26.216 27.4442L22.5653 26.2774C20.9016 25.7442 19.1009 25.6647 17.3978 26.0419L16.9355 26.1443V25.9057C16.9355 24.7937 17.6896 23.8281 18.7677 23.558L23.3871 22.4038V19.8498L22.9847 19.6171C21.7403 18.8977 20.9677 17.5604 20.9677 16.129V14.5161C20.9677 13.4163 21.4025 12.3878 22.1928 11.6219C22.9823 10.8564 24.0364 10.4437 25.1248 10.4862C27.2792 10.5508 29.0323 12.45 29.0323 14.7193V16.129C29.0323 17.5604 28.2589 18.8977 27.0138 19.6187L26.6105 19.8518L26.6137 22.4038L31.2323 23.558C32.3104 23.8281 33.0645 24.7937 33.0645 25.9057V28.9275L32.8653 29.0323H32.3711L27.4131 27.6155C27.0224 27.5048 26.62 27.4595 26.216 27.4442ZM17.1162 12.07C18.6307 9.13558 21.6789 7.25806 25 7.25806C28.2896 7.25806 31.3248 9.11038 32.8507 12.005C32.4668 12.7749 32.2581 13.6274 32.2581 14.5161V16.129C32.2581 17.975 33.1744 19.7073 34.6774 20.7563V21.1434L31.4516 21.951L28.225 21.1434V20.7571C29.7281 19.7081 30.6452 17.975 30.6452 16.129V14.7193C30.6452 11.5864 28.1904 8.96469 25.1733 8.87333C23.6297 8.82805 22.1743 9.39193 21.0693 10.4646C19.9636 11.5372 19.3548 12.9757 19.3548 14.5161V16.129C19.3548 17.975 20.2712 19.7073 21.7742 20.7563V21.1434L18.5484 21.951L15.3218 21.1434V20.7571C16.8248 19.7081 17.7419 17.975 17.7419 16.129V14.7193C17.7419 13.7703 17.5135 12.8694 17.1162 12.07ZM13.4073 7.1927L15.9837 4.61623L18.2515 6.0921L18.6854 5.8259C19.7726 5.15964 20.9477 4.67175 22.1774 4.3776L22.6736 4.25868L23.2347 1.6129H26.7661L27.3256 4.25789L27.8218 4.37642C29.0516 4.67096 30.2266 5.15885 31.3138 5.82512L31.7477 6.09131L34.0155 4.61544L36.5888 7.18955L35.6741 9.33129C35.0515 9.59906 34.4742 9.9759 33.9718 10.463C33.9387 10.4953 33.9103 10.5299 33.8781 10.563C31.9781 7.54276 28.6192 5.64516 25 5.64516C21.3548 5.64516 17.9865 7.56048 16.0912 10.6115C15.584 10.0806 14.9808 9.65064 14.3122 9.35019L13.4073 7.1927ZM10.4839 22.4038V19.8498L10.0814 19.6171C8.8371 18.8977 8.06452 17.5604 8.06452 16.129V14.5161C8.06452 13.4163 8.49924 12.3878 9.28955 11.6219C10.0791 10.8564 11.1289 10.4437 12.2216 10.4862C14.3759 10.5508 16.129 12.45 16.129 14.7193V16.129C16.129 17.5604 15.3557 18.8977 14.1105 19.6187L13.7073 19.8518L13.7105 22.4038L16.4775 23.0953C15.7605 23.8289 15.3226 24.8216 15.3226 25.9057V26.503L12.8071 27.0622L12.8725 26.8338L12.9032 25.3434L8.65006 22.8622L10.4839 22.4038ZM1.6129 20.9677H2.20081L8.00072 24.3507L5.07419 36.0564L1.6129 34.9023V20.9677ZM8.19525 37.0968L6.60794 36.5679L9.451 25.1969L11.2903 26.2695V26.4999L8.26298 37.0968H8.19525ZM13.7097 39.4185C13.7097 39.1806 13.8058 38.9475 13.9743 38.779L15.3919 37.3614C15.5604 37.1929 15.7935 37.0968 16.0314 37.0968C16.5299 37.0968 16.9355 37.5024 16.9355 38.0009C16.9355 38.2387 16.8394 38.4718 16.6709 38.6404L15.2533 40.058C15.0847 40.2265 14.8516 40.3226 14.6138 40.3226C14.1153 40.3226 13.7097 39.917 13.7097 39.4185ZM16.129 41.8378C16.129 41.6 16.2251 41.3669 16.3937 41.1983L17.8112 39.7807C17.9798 39.6122 18.2129 39.5161 18.4507 39.5161C18.9493 39.5161 19.3548 39.9217 19.3548 40.4202C19.3548 40.6581 19.2588 40.8912 19.0902 41.0597L17.6726 42.4773C17.5041 42.6459 17.271 42.7419 17.0331 42.7419C16.5346 42.7419 16.129 42.3363 16.129 41.8378ZM18.5484 44.2572C18.5484 44.0193 18.6445 43.7862 18.813 43.6177L20.2306 42.2001C20.3991 42.0316 20.6322 41.9355 20.8701 41.9355C21.3686 41.9355 21.7742 42.3411 21.7742 42.8396C21.7742 43.0774 21.6781 43.3105 21.5096 43.4791L20.092 44.8967C19.9235 45.0652 19.6903 45.1613 19.4525 45.1613C18.954 45.1613 18.5484 44.7557 18.5484 44.2572ZM21.8718 47.5806C21.3733 47.5806 20.9677 47.1751 20.9677 46.6765C20.9677 46.4387 21.0638 46.2056 21.2324 46.037L22.65 44.6195C22.8185 44.4509 23.0516 44.3548 23.2894 44.3548C23.788 44.3548 24.1935 44.7604 24.1935 45.2589C24.1935 45.4968 24.0975 45.7299 23.9289 45.8984L22.5113 47.316C22.3428 47.4846 22.1097 47.5806 21.8718 47.5806ZM25.7718 48.3871H25.6226C25.417 48.3871 25.2201 48.3123 25.0669 48.1764L24.4637 47.6444L25.0693 47.0388C25.2855 46.8226 25.4532 46.5655 25.5773 46.2895L26.3105 46.8998C26.5023 47.0597 26.6129 47.2952 26.6129 47.546C26.6129 48.0099 26.2357 48.3871 25.7718 48.3871ZM33.0039 41.129H32.8645C32.6621 41.129 32.4644 41.0574 32.3097 40.9274L27.9364 37.283L26.9031 38.5226L31.15 42.0611C31.341 42.221 31.4516 42.4564 31.4516 42.7073C31.4516 43.1712 31.0744 43.5484 30.6105 43.5484H30.4345C30.2388 43.5484 30.0474 43.4791 29.8966 43.3531L25.5162 39.7032L24.483 40.9428L28.7298 44.4816C28.9216 44.6403 29.0323 44.8758 29.0323 45.1266C29.0323 45.5905 28.655 45.9677 28.1912 45.9677C27.8816 45.9677 27.58 45.8579 27.3426 45.6606L25.5426 44.1603C25.1461 43.3499 24.3314 42.7849 23.3773 42.751C23.3308 41.4354 22.2735 40.3781 20.9579 40.3316C20.9114 39.016 19.8541 37.9587 18.5385 37.9123C18.4913 36.566 17.3887 35.4839 16.0314 35.4839C15.3687 35.4839 14.7201 35.7524 14.2515 36.221L12.8339 37.6386C12.7493 37.7233 12.6792 37.8194 12.6079 37.9146L10.1307 36.4281L12.3023 28.8275L17.7467 27.617C19.1749 27.2977 20.6807 27.367 22.0735 27.8127L23.2615 28.1927L19.2339 30.2065C18.3137 30.6676 17.7419 31.5934 17.7419 32.6227V32.7822C17.7419 34.2718 18.954 35.4839 20.4436 35.4839C20.9331 35.4839 21.4147 35.3508 21.8333 35.0984L24.8362 33.2976C25.4395 32.9361 26.2491 33.0153 26.77 33.4839L33.5839 39.6161C33.7662 39.7815 33.871 40.0162 33.871 40.2619C33.871 40.7404 33.4823 41.129 33.0039 41.129ZM48.3871 31.7595L34.8007 38.5533C34.7566 38.5065 34.7105 38.462 34.6621 38.4187L27.8494 32.2864C27.2524 31.7477 26.4806 31.4516 25.6765 31.4516C25.0886 31.4516 24.5113 31.6115 24.0057 31.9147L21.0016 33.7162C20.8331 33.8178 20.6405 33.871 20.4436 33.871C19.8427 33.871 19.3548 33.3831 19.3548 32.7822V32.6227C19.3548 32.2073 19.5856 31.8348 19.9565 31.6493L24.455 29.4C25.2248 29.0145 26.1388 28.9283 26.9685 29.1669L32.0364 30.6144L33.2638 30.6452L48.3871 22.6854V31.7595Z" fill="#0181F5"/>
</svg>
