<svg width="140" height="140" viewBox="0 0 140 140" fill="none" xmlns="http://www.w3.org/2000/svg">
<path d="M105.112 13.5762C113.324 13.5852 121.198 16.8517 127.005 22.6588C132.812 28.466 136.079 36.3396 136.088 44.5522C136.088 44.6032 136.088 44.6562 136.088 44.7073C136.088 44.8095 136.101 44.9627 136.112 45.1651C136.748 56.4143 134.909 86.7868 104.179 125.705C103.902 126.054 103.511 126.295 103.074 126.384C102.637 126.473 102.183 126.405 101.791 126.192C101.4 125.979 101.096 125.635 100.934 125.219C100.771 124.804 100.761 124.345 100.904 123.923C100.991 123.665 109.389 98.5089 103.651 75.4903C95.5691 75.111 87.9562 71.5846 82.4405 65.665C76.9248 59.7455 73.9442 51.9028 74.1359 43.8141C74.3277 35.7254 77.6767 28.0328 83.4668 22.3814C89.2569 16.7299 97.0283 13.5682 105.119 13.5724L105.112 13.5762ZM132.304 44.4443C132.283 39.0708 130.67 33.8239 127.67 29.3661C124.669 24.9084 120.415 21.4396 115.445 19.3977C110.474 17.3558 105.01 16.8324 99.7421 17.8936C94.4744 18.9547 89.6391 21.5529 85.8468 25.3599C82.0545 29.167 79.4752 34.0123 78.4346 39.2842C77.3939 44.556 77.9385 50.018 79.9997 54.9806C82.0609 59.9431 85.5462 64.1837 90.0156 67.167C94.485 70.1502 99.7381 71.7424 105.112 71.7424C105.526 71.7425 105.929 71.8786 106.258 72.1299C106.588 72.3811 106.826 72.7335 106.936 73.133C111.287 88.9681 109.153 105.579 106.99 115.659C131.366 81.5141 132.896 55.4514 132.327 45.377C132.301 45.0668 132.293 44.7554 132.304 44.4443Z" fill="#32B4B4"/>
<path d="M34.7597 13.5762C42.9722 13.5852 50.8459 16.8517 56.653 22.6588C62.4602 28.466 65.7266 36.3396 65.7356 44.5522C65.7356 44.6032 65.7356 44.6562 65.7356 44.7073C65.7356 44.8095 65.7489 44.9627 65.7602 45.1651C66.3959 56.4143 64.557 86.7868 33.827 125.705C33.5502 126.054 33.1589 126.295 32.7221 126.384C32.2853 126.473 31.831 126.405 31.4394 126.192C31.0478 125.979 30.744 125.635 30.5817 125.219C30.4194 124.804 30.4089 124.345 30.5521 123.923C30.6391 123.665 39.0372 98.5089 33.2991 75.4903C25.2171 75.111 17.6042 71.5846 12.0885 65.665C6.57277 59.7455 3.5921 51.9028 3.78389 43.8141C3.97568 35.7254 7.3247 28.0328 13.1147 22.3814C18.9048 16.7299 26.6763 13.5682 34.7672 13.5724L34.7597 13.5762ZM61.9518 44.4443C61.9309 39.0708 60.3183 33.8239 57.3177 29.3661C54.3171 24.9084 50.063 21.4396 45.0925 19.3977C40.1219 17.3558 34.6579 16.8324 29.3901 17.8936C24.1223 18.9547 19.2871 21.5529 15.4948 25.3599C11.7025 29.167 9.12317 34.0123 8.08252 39.2842C7.04186 44.556 7.58649 50.018 9.64768 54.9806C11.7089 59.9431 15.1942 64.1837 19.6636 67.167C24.133 70.1502 29.3861 71.7424 34.7597 71.7424C35.174 71.7425 35.5768 71.8786 35.9063 72.1299C36.2358 72.3811 36.4737 72.7335 36.5835 73.133C40.9348 88.9681 38.8008 105.579 36.6383 115.659C61.0135 81.5141 62.5459 55.4514 61.9764 45.377C61.9501 45.0669 61.9419 44.7554 61.9518 44.4443Z" fill="#32B4B4"/>
</svg>
