<svg width="140" height="140" viewBox="0 0 140 140" fill="none" xmlns="http://www.w3.org/2000/svg">
<path d="M105.112 13.5762C113.325 13.5852 121.198 16.8517 127.006 22.6588C132.813 28.466 136.079 36.3396 136.088 44.5522C136.088 44.6032 136.088 44.6562 136.088 44.7073C136.088 44.8095 136.101 44.9627 136.113 45.1651C136.748 56.4143 134.91 86.7868 104.18 125.705C103.903 126.054 103.511 126.295 103.075 126.384C102.638 126.473 102.184 126.405 101.792 126.192C101.4 125.979 101.097 125.635 100.934 125.219C100.772 124.804 100.761 124.345 100.905 123.923C100.992 123.665 109.39 98.5089 103.652 75.4903C95.5696 75.111 87.9567 71.5846 82.441 65.665C76.9253 59.7455 73.9446 51.9028 74.1364 43.8141C74.3282 35.7254 77.6772 28.0328 83.4673 22.3814C89.2573 16.7299 97.0288 13.5682 105.12 13.5724L105.112 13.5762ZM132.304 44.4443C132.283 39.0708 130.671 33.8239 127.67 29.3661C124.67 24.9084 120.416 21.4396 115.445 19.3977C110.474 17.3558 105.01 16.8324 99.7426 17.8936C94.4749 18.9547 89.6396 21.5529 85.8473 25.3599C82.055 29.167 79.4757 34.0123 78.435 39.2842C77.3944 44.556 77.939 50.018 80.0002 54.9806C82.0614 59.9431 85.5467 64.1837 90.0161 67.167C94.4855 70.1502 99.7386 71.7424 105.112 71.7424C105.527 71.7425 105.929 71.8786 106.259 72.1299C106.588 72.3811 106.826 72.7335 106.936 73.133C111.287 88.9681 109.153 105.579 106.991 115.659C131.366 81.5141 132.897 55.4514 132.327 45.377C132.301 45.0668 132.294 44.7554 132.304 44.4443Z" fill="#0181F5"/>
<path d="M34.7606 13.5762C42.9732 13.5852 50.8468 16.8517 56.654 22.6588C62.4612 28.466 65.7276 36.3396 65.7366 44.5522C65.7366 44.6032 65.7366 44.6562 65.7366 44.7073C65.7366 44.8095 65.7498 44.9627 65.7612 45.1651C66.3969 56.4143 64.5579 86.7868 33.8279 125.705C33.5512 126.054 33.1599 126.295 32.7231 126.384C32.2863 126.473 31.832 126.405 31.4404 126.192C31.0488 125.979 30.745 125.635 30.5827 125.219C30.4203 124.804 30.4099 124.345 30.5531 123.923C30.6401 123.665 39.0382 98.5089 33.3001 75.4903C25.218 75.111 17.6051 71.5846 12.0894 65.665C6.57374 59.7455 3.59308 51.9028 3.78486 43.8141C3.97665 35.7254 7.32567 28.0328 13.1157 22.3814C18.9058 16.7299 26.6772 13.5682 34.7682 13.5724L34.7606 13.5762ZM61.9528 44.4443C61.9319 39.0708 60.3193 33.8239 57.3187 29.3661C54.3181 24.9084 50.064 21.4396 45.0934 19.3977C40.1229 17.3558 34.6588 16.8324 29.3911 17.8936C24.1233 18.9547 19.288 21.5529 15.4957 25.3599C11.7034 29.167 9.12415 34.0123 8.08349 39.2842C7.04283 44.556 7.58747 50.018 9.64865 54.9806C11.7098 59.9431 15.1952 64.1837 19.6646 67.167C24.134 70.1502 29.3871 71.7424 34.7606 71.7424C35.175 71.7425 35.5778 71.8786 35.9073 72.1299C36.2367 72.3811 36.4746 72.7335 36.5844 73.133C40.9358 88.9681 38.8017 105.579 36.6393 115.659C61.0144 81.5141 62.5469 55.4514 61.9774 45.377C61.9511 45.0669 61.9429 44.7554 61.9528 44.4443Z" fill="#0181F5"/>
</svg>
