<svg width="50" height="50" viewBox="0 0 50 50" fill="none" xmlns="http://www.w3.org/2000/svg">
<path d="M37.5399 4.84869C40.4729 4.85191 43.2849 6.01848 45.3589 8.09247C47.4329 10.1665 48.5995 12.9785 48.6027 15.9115C48.6027 15.9298 48.6027 15.9487 48.6027 15.9669C48.6027 16.0034 48.6074 16.0581 48.6115 16.1304C48.8385 20.148 48.1818 30.9953 37.2068 44.8946C37.1079 45.0195 36.9682 45.1054 36.8122 45.1372C36.6562 45.1691 36.4939 45.1448 36.3541 45.0687C36.2142 44.9926 36.1057 44.8695 36.0477 44.7212C35.9898 44.5729 35.986 44.4089 36.0372 44.2581C36.0683 44.1663 39.0676 35.1818 37.0183 26.9608C34.1318 26.8254 31.4129 25.5659 29.443 23.4518C27.4731 21.3377 26.4086 18.5368 26.4771 15.6479C26.5456 12.7591 27.7417 10.0118 29.8095 7.99338C31.8774 5.975 34.6529 4.84583 37.5426 4.84734L37.5399 4.84869ZM47.2514 15.873C47.2439 13.9539 46.668 12.08 45.5963 10.4879C44.5247 8.89589 43.0053 7.65703 41.2302 6.92779C39.455 6.19855 37.5035 6.01162 35.6222 6.3906C33.7408 6.76958 32.0139 7.69748 30.6595 9.05715C29.3052 10.4168 28.384 12.1473 28.0123 14.0301C27.6407 15.9129 27.8352 17.8636 28.5713 19.636C29.3074 21.4083 30.5522 22.9228 32.1484 23.9882C33.7446 25.0537 35.6207 25.6223 37.5399 25.6223C37.6878 25.6224 37.8317 25.671 37.9494 25.7607C38.067 25.8504 38.152 25.9763 38.1912 26.119C39.7453 31.7744 38.9831 37.7068 38.2108 41.3068C46.9162 29.1122 47.4628 19.8041 47.2595 16.2061C47.2503 16.0953 47.2476 15.9841 47.2514 15.873Z" fill="#D8DDE1"/>
<path d="M12.4142 4.84869C15.3473 4.85191 18.1593 6.01848 20.2333 8.09247C22.3072 10.1665 23.4738 12.9785 23.477 15.9115C23.477 15.9298 23.477 15.9487 23.477 15.9669C23.477 16.0034 23.4818 16.0581 23.4858 16.1304C23.7129 20.148 23.0561 30.9953 12.0811 44.8946C11.9823 45.0195 11.8425 45.1054 11.6865 45.1372C11.5305 45.1691 11.3682 45.1448 11.2284 45.0687C11.0885 44.9926 10.98 44.8695 10.9221 44.7212C10.8641 44.5729 10.8603 44.4089 10.9115 44.2581C10.9426 44.1663 13.9419 35.1818 11.8926 26.9608C9.00613 26.8254 6.28724 25.5659 4.31734 23.4518C2.34745 21.3377 1.28293 18.5368 1.35142 15.6479C1.41992 12.7591 2.616 10.0118 4.68387 7.99338C6.75175 5.975 9.52727 4.84583 12.4169 4.84734L12.4142 4.84869ZM22.1257 15.873C22.1182 13.9539 21.5423 12.08 20.4706 10.4879C19.399 8.89589 17.8797 7.65703 16.1045 6.92779C14.3293 6.19855 12.3778 6.01162 10.4965 6.3906C8.61515 6.76958 6.88828 7.69748 5.53388 9.05715C4.17949 10.4168 3.25831 12.1473 2.88665 14.0301C2.51498 15.9129 2.7095 17.8636 3.44563 19.636C4.18177 21.4083 5.42653 22.9228 7.02274 23.9882C8.61896 25.0537 10.4951 25.6223 12.4142 25.6223C12.5622 25.6224 12.706 25.671 12.8237 25.7607C12.9414 25.8504 13.0263 25.9763 13.0656 26.119C14.6196 31.7744 13.8574 37.7068 13.0851 41.3068C21.7906 29.1122 22.3379 19.8041 22.1345 16.2061C22.1251 16.0953 22.1221 15.9841 22.1257 15.873Z" fill="#D8DDE1"/>
</svg>
