<svg width="50" height="50" viewBox="0 0 50 50" fill="none" xmlns="http://www.w3.org/2000/svg">
<g clip-path="url(#clip0_1355_952)">
<path d="M7.46599 23.7192C7.43182 23.7933 7.39682 23.8633 7.36266 23.9392C6.68993 25.4493 5.58889 26.7288 4.19599 27.6192L1.89349 29.0833C1.30828 29.4566 0.923879 30.0751 0.84824 30.7651C0.7726 31.4551 1.01388 32.1421 1.50432 32.6333L11.5435 42.6733C11.9723 43.1012 12.5536 43.341 13.1593 43.34C13.2452 43.3424 13.3312 43.3402 13.4168 43.3333C14.1076 43.259 14.7266 42.8733 15.0977 42.2858C16.162 40.6524 17.7454 39.425 19.5927 38.8017C20.29 38.5535 20.9577 38.2287 21.5835 37.8333L23.6143 39.8633C24.4835 40.7361 25.8608 40.8406 26.8518 40.1092L36.4943 49.7558C36.8213 50.0717 37.3411 50.0671 37.6625 49.7457C37.984 49.4242 37.9885 48.9045 37.6727 48.5775L28.0535 38.9583L31.4585 35.5533L39.2027 43.2975C39.5296 43.6133 40.0494 43.6088 40.3708 43.2874C40.6923 42.9659 40.6968 42.4462 40.381 42.1192L32.6368 34.375L35.6252 31.3867L38.786 34.5475C39.113 34.8633 39.6327 34.8588 39.9542 34.5374C40.2756 34.2159 40.2801 33.6962 39.9643 33.3692L36.8035 30.2083L39.7918 27.22L46.286 33.7142C46.613 34.03 47.1327 34.0255 47.4542 33.704C47.7756 33.3826 47.7801 32.8628 47.4643 32.5358L40.9435 26.015C41.675 25.024 41.5704 23.6467 40.6977 22.7775L35.766 17.8458C35.8144 17.6404 35.8398 17.4302 35.8418 17.2192C35.8445 16.4724 35.548 15.7557 35.0185 15.2292C34.7355 14.9502 34.3939 14.7379 34.0185 14.6075L35.0185 13.6075C36.1162 12.5079 36.1162 10.7271 35.0185 9.6275C33.9056 8.56251 32.1514 8.56251 31.0385 9.6275L30.516 10.15C30.2355 9.39589 29.6426 8.79994 28.8899 8.51561C28.1372 8.23128 27.2984 8.28636 26.5893 8.66667L18.6602 0.739169C17.6723 -0.213838 16.1072 -0.213838 15.1193 0.739169L1.57266 14.2817C1.09909 14.7491 0.83252 15.3867 0.83252 16.0521C0.83252 16.7175 1.09909 17.3551 1.57266 17.8225L7.46599 23.7192ZM39.7627 24.5458C39.7631 24.767 39.6755 24.9793 39.5193 25.1358L25.9693 38.6858C25.6387 38.9999 25.12 38.9999 24.7893 38.6858L22.9468 36.8433C23.181 36.6442 23.3277 36.5033 23.3452 36.4858L30.3452 29.4817C30.8976 28.9285 31.1951 28.1707 31.1667 27.3894C31.1382 26.6082 30.7863 25.874 30.1952 25.3625C29.9456 25.1489 29.6589 24.9831 29.3493 24.8733L34.891 19.3325L39.5152 23.9567C39.6732 24.112 39.7624 24.3242 39.7627 24.5458ZM28.7043 10.3375C29.1505 10.7866 29.1505 11.5117 28.7043 11.9608L22.1668 18.5C21.9502 18.7092 21.8633 19.0191 21.9396 19.3104C22.0158 19.6018 22.2434 19.8293 22.5347 19.9056C22.8261 19.9818 23.1359 19.895 23.3452 19.6783L29.8818 13.1417L32.2152 10.8083C32.669 10.3736 33.3847 10.3736 33.8385 10.8083C34.2851 11.2573 34.2851 11.9827 33.8385 12.4317L24.9685 21.2992C24.7519 21.5084 24.665 21.8182 24.7412 22.1096C24.8175 22.4009 25.045 22.6285 25.3364 22.7048C25.6278 22.781 25.9376 22.6941 26.1468 22.4775L32.2168 16.4075C32.6705 15.9724 33.3865 15.9724 33.8402 16.4075C34.2868 16.8564 34.2868 17.5819 33.8402 18.0308L26.8402 25.035C26.7841 25.0965 26.7377 25.1662 26.7027 25.2417C26.557 25.3427 26.4204 25.4562 26.2943 25.5808L22.6335 29.2367C22.3076 29.5621 22.3073 30.09 22.6327 30.4158C22.958 30.7417 23.486 30.7421 23.8118 30.4167L27.4685 26.76C27.9 26.3024 28.6068 26.2432 29.1085 26.6225C29.3497 26.8313 29.4933 27.1309 29.5052 27.4498C29.517 27.7686 29.396 28.078 29.171 28.3042L22.171 35.3042C21.267 36.1439 20.205 36.7954 19.0468 37.2208C16.8435 37.9678 14.9563 39.4357 13.6902 41.3875C13.5886 41.5467 13.4203 41.6512 13.2326 41.6718C13.0449 41.6924 12.858 41.6267 12.7243 41.4933L2.68266 31.455C2.54893 31.3214 2.48309 31.1342 2.50367 30.9463C2.52424 30.7583 2.62901 30.5899 2.78849 30.4883L5.08849 29.025C6.75693 27.9604 8.07641 26.4297 8.88349 24.6225C9.54785 22.9797 10.4912 21.464 11.6718 20.1425L20.9318 10.8833C21.3627 10.4252 22.0698 10.3658 22.571 10.7458C22.8122 10.9547 22.9558 11.2543 22.9677 11.5731C22.9795 11.8919 22.8585 12.2013 22.6335 12.4275L19.3652 15.6958C19.1485 15.9051 19.0616 16.2149 19.1379 16.5063C19.2142 16.7976 19.4417 17.0252 19.7331 17.1014C20.0244 17.1777 20.3343 17.0908 20.5435 16.8742L23.8118 13.6058L27.0835 10.3375C27.537 9.90438 28.2508 9.90438 28.7043 10.3375ZM2.75016 15.4642L16.3018 1.91C16.6294 1.59066 17.1524 1.59251 17.4777 1.91417L25.311 9.7475L24.4377 10.62C24.277 10.1826 24.0097 9.79224 23.6602 9.48417C22.4999 8.52581 20.7977 8.62126 19.7518 9.70334L10.4935 18.9642C9.59971 19.9136 8.84447 20.9844 8.25016 22.145L2.74432 16.645C2.58515 16.4894 2.49591 16.2759 2.49701 16.0534C2.49811 15.8308 2.58946 15.6182 2.75016 15.4642Z" fill="#0181F5"/>
<path d="M46.4942 41.8393L47.7442 43.0893C48.0712 43.4051 48.5909 43.4006 48.9124 43.0791C49.2338 42.7577 49.2383 42.2379 48.9225 41.9109L47.6725 40.6609C47.3455 40.3451 46.8258 40.3496 46.5043 40.6711C46.1829 40.9925 46.1784 41.5123 46.4942 41.8393Z" fill="#0181F5"/>
<path d="M43.9942 39.3393C44.3212 39.6551 44.8409 39.6506 45.1624 39.3291C45.4838 39.0077 45.4883 38.4879 45.1725 38.1609L43.9225 36.9109C43.5955 36.5951 43.0758 36.5996 42.7543 36.9211C42.4329 37.2425 42.4284 37.7623 42.7442 38.0893L43.9942 39.3393Z" fill="#0181F5"/>
<path d="M42.7445 43.0893C43.0699 43.4146 43.5974 43.4146 43.9228 43.0893L45.1728 41.8393C45.4886 41.5123 45.4841 40.9925 45.1627 40.6711C44.8412 40.3496 44.3215 40.3451 43.9945 40.6609L42.7445 41.9109C42.4192 42.2363 42.4192 42.7638 42.7445 43.0893Z" fill="#0181F5"/>
<path d="M46.4945 39.3393C46.8199 39.6646 47.3474 39.6646 47.6728 39.3393L48.9228 38.0893C49.2386 37.7623 49.2341 37.2425 48.9127 36.9211C48.5912 36.5996 48.0715 36.5951 47.7445 36.9109L46.4945 38.1609C46.1692 38.4863 46.1692 39.0138 46.4945 39.3393Z" fill="#0181F5"/>
<path d="M43.3333 14.3824C43.7936 14.3824 44.1667 14.0093 44.1667 13.5491V11.8824C44.1667 11.4222 43.7936 11.0491 43.3333 11.0491C42.8731 11.0491 42.5 11.4222 42.5 11.8824V13.5491C42.5 14.0093 42.8731 14.3824 43.3333 14.3824Z" fill="#0181F5"/>
<path d="M44.1667 18.5491V16.8824C44.1667 16.4222 43.7936 16.0491 43.3333 16.0491C42.8731 16.0491 42.5 16.4222 42.5 16.8824V18.5491C42.5 19.0093 42.8731 19.3824 43.3333 19.3824C43.7936 19.3824 44.1667 19.0093 44.1667 18.5491Z" fill="#0181F5"/>
<path d="M45.0003 16.0492H46.667C47.1272 16.0492 47.5003 15.6761 47.5003 15.2159C47.5003 14.7557 47.1272 14.3826 46.667 14.3826H45.0003C44.5401 14.3826 44.167 14.7557 44.167 15.2159C44.167 15.6761 44.5401 16.0492 45.0003 16.0492Z" fill="#0181F5"/>
<path d="M40.0003 16.0492H41.667C42.1272 16.0492 42.5003 15.6761 42.5003 15.2159C42.5003 14.7557 42.1272 14.3826 41.667 14.3826H40.0003C39.5401 14.3826 39.167 14.7557 39.167 15.2159C39.167 15.6761 39.5401 16.0492 40.0003 16.0492Z" fill="#0181F5"/>
</g>
<defs>
<clipPath id="clip0_1355_952">
<rect width="50" height="50" fill="white"/>
</clipPath>
</defs>
</svg>
