<svg width="50" height="50" viewBox="0 0 50 50" fill="none" xmlns="http://www.w3.org/2000/svg">
<g clip-path="url(#clip0_1498_1954)">
<path d="M47.5 4.16669H2.5C1.11992 4.1682 0.00151559 5.2866 0 6.66669V36.6667C0.00151559 38.0468 1.11992 39.1652 2.5 39.1667H28.3333V44.1667C28.3327 44.7803 28.67 45.3444 29.2108 45.6343C29.7516 45.9242 30.4081 45.8928 30.9188 45.5526L34.1642 43.3943L37.4129 45.5517C37.9236 45.8922 38.5802 45.9239 39.1214 45.6342C39.6625 45.3445 40.0002 44.7805 40 44.1667V39.1667H47.5C48.8801 39.1652 49.9985 38.0468 50 36.6667V6.66669C49.9985 5.2866 48.8801 4.1682 47.5 4.16669ZM45 19.2659C44.8261 19.1699 44.6509 19.0784 44.48 18.9909C44.0441 18.8124 43.6465 18.5517 43.3089 18.2231C43.1001 17.7814 42.9764 17.3043 42.9443 16.8169C42.9326 15.8401 42.535 14.9076 41.8384 14.2229C40.9959 13.7541 39.9977 13.6524 39.078 13.9417C38.6161 14.0597 38.1355 14.0857 37.6636 14.0182C37.2631 13.7905 36.9082 13.4907 36.6167 13.1339C36.0363 12.329 35.1502 11.7984 34.1667 11.6667C33.1831 11.7981 32.297 12.3285 31.7167 13.1334C31.4254 13.4902 31.0706 13.7902 30.6702 14.0179C30.1982 14.0854 29.7177 14.0594 29.2557 13.9414C28.3357 13.6518 27.3371 13.7537 26.4945 14.223C25.7985 14.9076 25.4013 15.8396 25.3894 16.8158C25.3573 17.3035 25.2336 17.7809 25.0248 18.2229C24.6871 18.5513 24.2896 18.812 23.8538 18.9907C22.9288 19.313 22.1737 19.9962 21.7607 20.8844C21.5952 21.8285 21.8055 22.7999 22.3466 23.5911C22.6098 24.0225 22.7872 24.5007 22.8691 24.9994C22.7872 25.4981 22.6098 25.9764 22.3466 26.4078C21.8051 27.199 21.5948 28.1707 21.7607 29.1149C22.1739 30.0027 22.9285 30.6857 23.8529 31.0086C24.2889 31.1872 24.6864 31.4478 25.024 31.7764C25.2328 32.2181 25.3565 32.6952 25.3886 33.1827C25.4366 33.5032 25.4886 33.8379 25.5666 34.1642L8.24167 34.1386C7.90061 32.5141 6.62655 31.2478 5 30.9167L5.0285 12.4076C6.65259 12.0665 7.91862 10.7928 8.25 9.16669L41.7583 9.19477C42.0994 10.8193 43.3735 12.0856 45 12.4167V19.2659ZM27.4911 34.4409C27.4827 34.4349 27.4764 34.4243 27.4686 34.417L27.4603 34.4078C27.2056 33.9575 27.061 33.4534 27.0381 32.9366C26.9874 32.1871 26.7632 31.4596 26.383 30.8116C25.9039 30.248 25.297 29.807 24.613 29.5254C24.0685 29.2471 23.4517 28.9314 23.3499 28.6107C23.2555 28.3141 23.5778 27.6724 23.8366 27.1564C24.2337 26.5016 24.4732 25.7633 24.5362 25C24.473 24.2366 24.2334 23.4984 23.8362 22.8434C23.5774 22.3279 23.2551 21.6858 23.3495 21.3892C23.4513 21.0689 24.0681 20.7532 24.6133 20.4749C25.2972 20.1935 25.9038 19.7526 26.3826 19.1891C26.7634 18.5407 26.9879 17.8125 27.0385 17.0622C27.1256 16.4779 27.2346 15.7504 27.491 15.5591C27.7335 15.3784 28.426 15.4932 28.9835 15.5859C29.7097 15.7695 30.4695 15.7741 31.1978 15.5994C31.868 15.306 32.4582 14.8565 32.919 14.2884C33.3284 13.8628 33.8371 13.3334 34.1667 13.3334C34.4963 13.3334 35.0057 13.8631 35.415 14.2888C35.8759 14.8568 36.4661 15.3062 37.1362 15.5994C37.8643 15.7743 38.6239 15.7697 39.3498 15.5859C39.9072 15.4943 40.6014 15.3789 40.8423 15.5591C41.0994 15.7508 41.2089 16.4787 41.2956 17.0634C41.3462 17.813 41.5705 18.5405 41.9507 19.1884C42.4298 19.752 43.0366 20.193 43.7207 20.4746C44.2652 20.7529 44.882 21.0687 44.9837 21.3894C45.0782 21.6859 44.7558 22.3277 44.4971 22.8436C44.0998 23.4985 43.8602 24.2367 43.7972 25C43.8603 25.7634 44.1 26.5017 44.4972 27.1566C44.7555 27.6721 45.0782 28.3143 44.9838 28.6109C44.8821 28.9311 44.2653 29.2469 43.72 29.5252C43.0362 29.8066 42.4295 30.2474 41.9507 30.8109C41.57 31.4594 41.3454 32.1876 41.2948 32.9379C41.2077 33.5222 41.0987 34.2497 40.8423 34.4409C40.5991 34.6208 39.9065 34.5069 39.3498 34.4141C38.6236 34.2313 37.8639 34.2267 37.1355 34.4007C36.4653 34.694 35.8752 35.1435 35.4143 35.7117C35.0049 36.1373 34.4963 36.6667 34.1667 36.6667C33.8371 36.6667 33.3277 36.1369 32.9183 35.7113C32.4575 35.1432 31.8672 34.6938 31.1971 34.4007C30.9081 34.3084 30.6061 34.2636 30.3027 34.268C29.8598 34.281 29.4186 34.3298 28.9836 34.4141C28.425 34.5052 27.7311 34.6204 27.4911 34.4409ZM35.1017 42.0167C34.5463 41.6277 33.808 41.6233 33.2479 42.0057L30 44.1667V35.9534C30.223 35.92 30.4504 35.9296 30.6697 35.9819C31.0702 36.2096 31.4252 36.5094 31.7167 36.8661C32.2971 37.671 33.1831 38.2016 34.1667 38.3334C35.1502 38.202 36.0363 37.6715 36.6167 36.8667C36.9079 36.5098 37.2628 36.2099 37.6632 35.9821C37.8827 35.9299 38.1101 35.9202 38.3333 35.9534L38.3356 44.1643L35.1017 42.0167ZM48.3333 36.6667C48.3329 37.1268 47.9601 37.4996 47.5 37.5H40V36.1829C40.642 36.2824 41.2981 36.1375 41.8384 35.7768C42.5344 35.0922 42.9316 34.1602 42.9435 33.184C42.9756 32.6963 43.0993 32.2189 43.3081 31.7769C43.6458 31.4485 44.0433 31.1878 44.4792 31.0091C45.4041 30.6867 46.1592 30.0036 46.5723 29.1154C46.7377 28.1713 46.5274 27.1999 45.9863 26.4087C45.7231 25.9772 45.5457 25.4991 45.4638 25.0004C45.5457 24.5016 45.7231 24.0234 45.9863 23.592C46.3632 22.9627 46.5944 22.2571 46.663 21.5268C46.663 21.5204 46.6667 21.515 46.6667 21.5087V12.4167C46.6663 11.6158 46.098 10.9277 45.3117 10.7761C44.3461 10.5758 43.5916 9.82145 43.3911 8.85594C43.2394 8.06927 42.5512 7.50065 41.75 7.50002H8.25C7.44878 7.50033 6.7603 8.06876 6.60833 8.85544C6.40819 9.82071 5.65429 10.5752 4.68917 10.776C3.90242 10.9273 3.33366 11.6155 3.33333 12.4167V30.9167C3.33366 31.7175 3.90197 32.4056 4.68833 32.5573C5.65391 32.7576 6.40844 33.512 6.60892 34.4775C6.76067 35.2642 7.44887 35.8327 8.25 35.8334H26.5868C27.1118 36.1464 27.7284 36.2697 28.3333 36.1825V37.5H2.5C2.03993 37.4996 1.66708 37.1268 1.66667 36.6667V6.66669C1.66708 6.20662 2.03993 5.83377 2.5 5.83335H47.5C47.9601 5.83377 48.3329 6.20662 48.3333 6.66669V36.6667Z" fill="#0181F5"/>
<path d="M34.1663 33.3334C38.7687 33.3334 42.4997 29.6024 42.4997 25C42.4997 20.3976 38.7687 16.6667 34.1663 16.6667C29.564 16.6667 25.833 20.3976 25.833 25C25.8382 29.6002 29.5661 33.3281 34.1663 33.3334ZM34.1663 18.3334C37.8482 18.3334 40.833 21.3181 40.833 25C40.833 28.6819 37.8482 31.6667 34.1663 31.6667C30.4844 31.6667 27.4997 28.6819 27.4997 25C27.5039 21.3199 30.4862 18.3376 34.1663 18.3334Z" fill="#0181F5"/>
<path d="M20 21.6667C20 21.2065 19.6269 20.8334 19.1667 20.8334H10.8333C10.3731 20.8334 10 21.2065 10 21.6667C10 22.1269 10.3731 22.5 10.8333 22.5H19.1667C19.6269 22.5 20 22.1269 20 21.6667Z" fill="#0181F5"/>
<path d="M20.8333 17.5H10.8333C10.3731 17.5 10 17.8731 10 18.3333C10 18.7936 10.3731 19.1667 10.8333 19.1667H20.8333C21.2936 19.1667 21.6667 18.7936 21.6667 18.3333C21.6667 17.8731 21.2936 17.5 20.8333 17.5Z" fill="#0181F5"/>
<path d="M20.0003 24.1667H15.0003C14.5401 24.1667 14.167 24.5398 14.167 25C14.167 25.4603 14.5401 25.8334 15.0003 25.8334H20.0003C20.4606 25.8334 20.8337 25.4603 20.8337 25C20.8337 24.5398 20.4606 24.1667 20.0003 24.1667Z" fill="#0181F5"/>
</g>
<defs>
<clipPath id="clip0_1498_1954">
<rect width="50" height="50" fill="white"/>
</clipPath>
</defs>
</svg>
