<svg width="50" height="50" viewBox="0 0 50 50" fill="none" xmlns="http://www.w3.org/2000/svg">
<path d="M48.8262 21.8281L46.5166 21.0781C46.4561 21.0586 46.4404 21.0332 46.4268 20.9814C46.0957 19.7295 45.6123 18.5273 44.9912 17.3994L46.4814 15.9092C46.9268 15.4639 46.9883 14.7666 46.6279 14.2549C45.998 13.3506 45.2803 12.4941 44.4941 11.708C37.167 4.38086 25.2441 4.38086 17.917 11.708C15.5605 14.0645 13.9629 16.8965 13.1221 19.8975H6.24512C5.81445 19.8975 5.46484 20.2471 5.46484 20.6777C5.46484 21.1084 5.81445 21.458 6.24512 21.458H12.7559C11.6318 27.3682 13.3516 33.7188 17.918 38.2842C18.7041 39.0703 19.5615 39.7891 20.4629 40.416C20.6865 40.5732 20.9463 40.6504 21.2041 40.6504C21.5361 40.6504 21.8662 40.5225 22.1201 40.2734L23.6123 38.7812C24.7471 39.4062 25.9502 39.8896 27.1982 40.2168C27.2441 40.2285 27.2695 40.2451 27.2891 40.3057L28.0391 42.6133C28.2666 43.3154 28.915 43.7871 29.6533 43.7871H32.7588C33.4971 43.7871 34.1465 43.3154 34.373 42.6133L35.123 40.3047C35.1406 40.252 35.1631 40.2295 35.2178 40.2158C36.585 39.8584 37.9014 39.3135 39.1367 38.5938C39.1777 38.5693 39.207 38.5635 39.2627 38.5918L41.4258 39.6943C42.0908 40.0322 42.8633 39.9102 43.3975 39.3818L45.5957 37.1836C46.1221 36.6523 46.2432 35.8799 45.9053 35.2139L44.8037 33.0518C44.7754 32.9951 44.7812 32.9658 44.8076 32.9219C45.5244 31.6904 46.0693 30.373 46.4277 29.0049C46.4414 28.9531 46.4639 28.9297 46.5166 28.9121L48.8242 28.1621C49.5264 27.9346 49.998 27.2861 49.998 26.5479V23.4424C50 22.7041 49.5283 22.0547 48.8262 21.8281ZM36.3789 30.168C34.7178 31.8291 32.4219 32.5693 30.1572 32.2354L38.4463 23.9453C38.7812 26.2109 38.04 28.5068 36.3789 30.168ZM38.3213 21.8633C38.3154 21.8691 38.3096 21.875 38.3037 21.8809L28.0986 32.0869C28.0762 32.1064 28.0547 32.1279 28.0352 32.1504L23.3818 36.8037C22.5977 36.2803 21.8623 35.6797 21.1924 35.0098C15.6709 29.4883 15.6709 20.5029 21.1924 14.9814C26.7139 9.45996 35.6992 9.45996 41.2207 14.9814C41.8906 15.6514 42.4912 16.3857 43.0137 17.1699L38.3213 21.8633ZM21.1768 39.0088C20.415 38.4629 19.6904 37.8486 19.0225 37.1797C12.3037 30.4609 12.3037 19.5293 19.0225 12.8105C22.3818 9.45117 26.7939 7.77148 31.207 7.77148C35.6201 7.77148 40.0322 9.45117 43.3916 12.8105C44.0596 13.4785 44.6728 14.2012 45.2197 14.9639L44.1387 16.0449C43.6006 15.2725 42.9941 14.5459 42.3252 13.877C36.1943 7.74609 26.2197 7.74609 20.0889 13.877C13.958 20.0078 13.958 29.9824 20.0889 36.1133C20.7578 36.7822 21.4854 37.3897 22.2588 37.9277L21.1768 39.0088ZM48.4385 26.5479C48.4385 26.6133 48.4072 26.6572 48.3438 26.6777L46.0352 27.4277C45.4727 27.6104 45.0645 28.043 44.917 28.6123C44.5947 29.8418 44.1045 31.0283 43.4609 32.1338C43.1611 32.6416 43.1436 33.2354 43.4131 33.7627L44.5146 35.9238C44.5449 35.9834 44.5352 36.0381 44.4902 36.084L42.2979 38.2764C42.249 38.3252 42.1943 38.334 42.1357 38.3047L39.9736 37.2031C39.4463 36.9346 38.8525 36.9521 38.3486 37.249C37.2393 37.8945 36.0527 38.3857 34.8252 38.707C34.2539 38.8555 33.8213 39.2627 33.6387 39.8252L32.8877 42.1348C32.8672 42.1973 32.8242 42.2285 32.7588 42.2285H29.6533C29.5879 42.2285 29.5439 42.1973 29.5234 42.1338L28.7734 39.8252C28.5908 39.2607 28.1572 38.8535 27.5898 38.707C26.6152 38.4512 25.6689 38.0879 24.7656 37.6279L28.8437 33.5498C29.6338 33.7686 30.4346 33.8779 31.2295 33.8779C33.5381 33.8779 35.7842 32.9717 37.4834 31.2734C39.7666 28.9902 40.6162 25.7187 39.7607 22.6328L43.8379 18.5547C44.2959 19.4531 44.6592 20.3994 44.917 21.376C45.0635 21.9482 45.4717 22.3809 46.0352 22.5635L48.3447 23.3135C48.4072 23.334 48.4385 23.377 48.4385 23.4424V26.5479ZM36.5469 18.4785L31.9902 23.0908C31.4853 22.8848 30.915 22.8867 30.4111 23.0967L23.8877 16.5732C23.583 16.2686 23.0889 16.2686 22.7842 16.5732C22.4795 16.8779 22.4795 17.3721 22.7842 17.6768L29.3076 24.2002C28.9961 24.9492 29.1426 25.8457 29.751 26.4541C30.1533 26.8545 30.6807 27.0537 31.208 27.0537C31.7354 27.0537 32.2637 26.8535 32.6641 26.4521C33.2734 25.8428 33.4189 24.9404 33.1006 24.1885L37.6582 19.5752C37.9609 19.2686 37.958 18.7744 37.6514 18.4717C37.3447 18.1689 36.8506 18.1719 36.5469 18.4785ZM31.5596 25.3486C31.3652 25.543 31.0479 25.542 30.8535 25.3486C30.6602 25.1553 30.6602 24.8389 30.8535 24.6426C31.0498 24.4492 31.3662 24.4492 31.5586 24.6406C31.7529 24.8369 31.7539 25.1543 31.5596 25.3486ZM8.25195 12.8184H0.78125C0.349609 12.8184 0.000976562 12.4687 0.000976562 12.0381C0.000976562 11.6074 0.350586 11.2578 0.78125 11.2578H8.25195C8.68262 11.2578 9.03223 11.6074 9.03223 12.0381C9.03223 12.4687 8.68359 12.8184 8.25195 12.8184ZM9.12109 30.0967H1.65332C1.22168 30.0967 0.873047 29.7471 0.873047 29.3164C0.873047 28.8857 1.22266 28.5361 1.65332 28.5361H9.12109C9.55273 28.5361 9.90137 28.8857 9.90137 29.3164C9.90137 29.7471 9.55273 30.0967 9.12109 30.0967ZM12.8721 37.9561C12.8721 38.3867 12.5225 38.7363 12.0918 38.7363H4.62012C4.18848 38.7363 3.83984 38.3867 3.83984 37.9561C3.83984 37.5254 4.18945 37.1758 4.62012 37.1758H12.0918C12.5234 37.1758 12.8721 37.5254 12.8721 37.9561Z" fill="#0181F5"/>
</svg>
