<svg width="50" height="50" viewBox="0 0 50 50" fill="none" xmlns="http://www.w3.org/2000/svg">
<g clip-path="url(#clip0_1498_1939)">
<path d="M24.1667 25.8333H20.8333C20.3731 25.8333 20 26.2064 20 26.6666C20 27.1269 20.3731 27.5 20.8333 27.5H24.1667C24.6269 27.5 25 27.1269 25 26.6666C25 26.2064 24.6269 25.8333 24.1667 25.8333Z" fill="#0181F5"/>
<path d="M23.3335 28.3333H21.6668C21.2066 28.3333 20.8335 28.7064 20.8335 29.1666C20.8335 29.6269 21.2066 30 21.6668 30H23.3335C23.7937 30 24.1668 29.6269 24.1668 29.1666C24.1668 28.7064 23.7937 28.3333 23.3335 28.3333Z" fill="#0181F5"/>
<path d="M19.9998 19.1666C19.9998 18.7064 19.6267 18.3333 19.1665 18.3333H17.4998C17.0396 18.3333 16.6665 18.7064 16.6665 19.1666C16.6665 19.6269 17.0396 20 17.4998 20C17.4998 20.4602 17.8729 20.8333 18.3332 20.8333C18.7934 20.8333 19.1665 20.4602 19.1665 20C19.6267 20 19.9998 19.6269 19.9998 19.1666Z" fill="#0181F5"/>
<path d="M27.5 18.3333H25.8333C25.3731 18.3333 25 18.7064 25 19.1666C25 19.6269 25.3731 20 25.8333 20C25.8333 20.4602 26.2064 20.8333 26.6667 20.8333C27.1269 20.8333 27.5 20.4602 27.5 20C27.9602 20 28.3333 19.6269 28.3333 19.1666C28.3333 18.7064 27.9602 18.3333 27.5 18.3333Z" fill="#0181F5"/>
<path d="M21.6668 24.1667H23.3335C23.7937 24.1667 24.1668 23.7936 24.1668 23.3333C24.1668 22.8731 23.7937 22.5 23.3335 22.5H21.6668C21.2066 22.5 20.8335 22.8731 20.8335 23.3333C20.8335 23.7936 21.2066 24.1667 21.6668 24.1667Z" fill="#0181F5"/>
<path d="M20.0002 17.5C20.4604 17.5 20.8335 17.1269 20.8335 16.6666C20.8335 16.2064 20.4604 15.8333 20.0002 15.8333H16.6668C16.2066 15.8333 15.8335 16.2064 15.8335 16.6666C15.8335 17.1269 16.2066 17.5 16.6668 17.5H20.0002Z" fill="#0181F5"/>
<path d="M24.9998 17.5H28.3332C28.7934 17.5 29.1665 17.1269 29.1665 16.6666C29.1665 16.2064 28.7934 15.8333 28.3332 15.8333H24.9998C24.5396 15.8333 24.1665 16.2064 24.1665 16.6666C24.1665 17.1269 24.5396 17.5 24.9998 17.5Z" fill="#0181F5"/>
<path d="M47.6242 24.4808C47.1287 24.1177 46.4705 24.0658 45.9242 24.3467C45.3573 24.6305 44.9995 25.2102 45 25.8442V27.5108C45.0006 27.7579 44.8916 27.9925 44.7024 28.1513C44.5132 28.3101 44.2632 28.3768 44.02 28.3333C43.6018 28.2253 43.3157 27.8399 43.3333 27.4083V25.8442C43.3348 25.2093 42.9768 24.6284 42.4092 24.3442C41.863 24.0625 41.2044 24.1145 40.7092 24.4783C39.1928 25.5915 38.3075 27.3685 38.3322 29.2495C38.3568 31.1304 39.2884 32.8836 40.8333 33.9567V40.5683C38.0233 38.4167 31.5 36.4642 29.7925 35.9767C29.0715 34.0975 28.8143 32.0722 29.0425 30.0725L31.0792 28.29C31.9827 27.4984 32.5005 26.3554 32.5 25.1542V24.0833C34.4392 23.6912 35.8334 21.9868 35.8334 20.0083C35.8334 18.0299 34.4392 16.3255 32.5 15.9333V14.85C32.7671 14.9474 33.049 14.9982 33.3333 15C34.4094 15 35.3648 14.3114 35.705 13.2906C36.0453 12.2697 35.6942 11.1456 34.8333 10.5C34.6187 10.3475 34.3962 10.2065 34.1667 10.0775V7.5C34.1616 3.35996 30.8067 0.0050508 26.6667 0H18.3333C14.1931 0.00459261 10.8379 3.35977 10.8333 7.5V10.0775C10.6041 10.2069 10.3816 10.3479 10.1667 10.5C9.1819 11.2398 8.88518 12.588 9.46834 13.6729C10.0515 14.7578 11.3397 15.2541 12.5 14.8408V15.9333C10.5608 16.3255 9.16663 18.0299 9.16663 20.0083C9.16663 21.9868 10.5608 23.6912 12.5 24.0833V25.1542C12.4999 26.3556 13.0184 27.4987 13.9225 28.29L15.96 30.0725C16.1874 32.0722 15.9302 34.0973 15.21 35.9767C13.3675 36.5025 5.92583 38.7325 3.58083 41.0775C1.43 43.225 0 45.4217 0 49.1667C0 49.6269 0.373096 50 0.833333 50H44.1667C46.0076 50 47.5 48.5076 47.5 46.6667V33.9567C49.044 32.8834 49.9748 31.1308 49.9994 29.2507C50.0241 27.3705 49.1395 25.5941 47.6242 24.4808ZM40.8333 42.8867V46.6667C40.8368 47.2535 40.9967 47.8289 41.2967 48.3333H36.6667V44.5C36.6249 43.1258 36.8654 41.7576 37.3733 40.48C38.4168 40.9191 39.3854 41.5182 40.2442 42.2558C40.4567 42.4683 40.6442 42.6767 40.8333 42.8867ZM15.5508 37.6117C16.3583 38.4308 18.4342 40 22.5 40C26.5658 40 28.6417 38.4308 29.4483 37.6108C29.8483 37.7258 30.3183 37.8658 30.8333 38.0275V42.5C30.8333 43.4205 30.0871 44.1667 29.1667 44.1667H15.8333C14.9129 44.1667 14.1667 43.4205 14.1667 42.5V38.0267C14.6808 37.8658 15.1508 37.7258 15.5508 37.6117ZM15.8333 45.8333H29.1667C31.0076 45.8333 32.5 44.341 32.5 42.5V38.5683C33.5833 38.935 34.7442 39.3583 35.8483 39.8117C35.2469 41.2997 34.9581 42.8956 35 44.5V48.3333H10V44.5C10.0415 42.8956 9.75272 41.2998 9.15167 39.8117C10.255 39.3583 11.4167 38.9358 12.5 38.5683V42.5C12.5 44.341 13.9924 45.8333 15.8333 45.8333ZM12.5 7.5C12.5037 4.27986 15.1132 1.67034 18.3333 1.66667H26.6667C29.8868 1.67034 32.4963 4.27986 32.5 7.5V9.26833C29.3151 8.02787 25.9171 7.42698 22.5 7.5C19.0829 7.42681 15.6848 8.0277 12.5 9.26833V7.5ZM11 12.9883C10.8682 12.8133 10.8117 12.593 10.843 12.3762C10.8743 12.1593 10.9908 11.964 11.1667 11.8333C11.4278 11.6483 11.7012 11.4812 11.985 11.3333L12.0042 11.3233C13.4567 10.5508 16.84 9.16667 22.5 9.16667C28.16 9.16667 31.5425 10.5508 32.995 11.3258L33.015 11.3358C33.2987 11.484 33.5721 11.651 33.8333 11.8358C34.1999 12.1143 34.2714 12.6372 33.9929 13.0037C33.7145 13.3703 33.1916 13.4418 32.825 13.1633C32.69 13.0658 29.4417 10.8333 22.5 10.8333C15.5042 10.8333 12.3008 13.0708 12.1667 13.1667C11.7944 13.436 11.2748 13.3566 11 12.9883ZM14.1667 25.155V23.3333C14.1667 22.8731 13.7936 22.5 13.3333 22.5C12.116 22.5102 11.0705 21.637 10.8636 20.4373C10.6568 19.2376 11.3495 18.0647 12.5 17.6667V19.1667C12.5 19.6269 12.8731 20 13.3333 20C13.7936 20 14.1667 19.6269 14.1667 19.1667V13.9892C16.8121 12.9237 19.6493 12.4167 22.5 12.5C25.3506 12.4169 28.1876 12.9233 30.8333 13.9875V19.1667C30.8333 19.6269 31.2064 20 31.6667 20C32.1269 20 32.5 19.6269 32.5 19.1667V17.6667C33.6505 18.0647 34.3432 19.2376 34.1364 20.4373C33.9295 21.637 32.884 22.5102 31.6667 22.5C31.2064 22.5 30.8333 22.8731 30.8333 23.3333V25.1542C30.8333 25.8752 30.5219 26.5611 29.9792 27.0358L25.3958 31.0483C24.9402 31.4469 24.3554 31.6666 23.75 31.6667H21.25C20.6446 31.6666 20.0598 31.4469 19.6042 31.0483L15.0208 27.0358C14.4781 26.5611 14.1667 25.8752 14.1667 25.1542V25.155ZM18.5083 32.3033C19.2675 32.9671 20.2416 33.3331 21.25 33.3333H23.75C24.7594 33.3335 25.7345 32.9672 26.4942 32.3025L27.2992 31.5975C27.2966 33.2777 27.6022 34.9442 28.2008 36.5142C27.5892 37.1083 25.9225 38.3333 22.5 38.3333C19.0775 38.3333 17.4042 37.105 16.8008 36.5133C17.3993 34.9433 17.7049 33.2769 17.7025 31.5967L18.5083 32.3033ZM4.75583 42.2558C5.61443 41.5184 6.58272 40.9192 7.62583 40.48C8.1341 41.7575 8.3749 43.1257 8.33333 44.5V48.3333H1.69583C1.8875 45.6533 3.02167 43.99 4.75583 42.2558ZM46.25 32.7767C45.9919 32.9257 45.833 33.2012 45.8333 33.4992V46.6667C45.8333 47.5871 45.0871 48.3333 44.1667 48.3333C43.2462 48.3333 42.5 47.5871 42.5 46.6667V33.5C42.5003 33.202 42.3414 32.9265 42.0833 32.7775C40.8715 32.0796 40.0916 30.8194 40.0077 29.4235C39.9238 28.0276 40.5472 26.683 41.6667 25.845V27.4083C41.6514 28.6517 42.524 29.7295 43.7433 29.9733C44.4694 30.0966 45.213 29.894 45.7761 29.4195C46.3393 28.9449 46.6651 28.2465 46.6667 27.51L46.6383 25.8242C47.77 26.656 48.4051 28.003 48.327 29.4053C48.2488 30.8076 47.4671 32.0757 46.25 32.7767Z" fill="#0181F5"/>
</g>
<defs>
<clipPath id="clip0_1498_1939">
<rect width="50" height="50" fill="white"/>
</clipPath>
</defs>
</svg>
