<svg width="40" height="40" viewBox="0 0 40 40" fill="none" xmlns="http://www.w3.org/2000/svg">
<g clip-path="url(#clip0_1345_2818)">
<path d="M39.7418 25.5512C39.4743 25.3697 39.1096 25.4398 38.9271 25.7066C38.8779 25.7786 37.6975 27.4684 35.5299 27.4684C33.3622 27.4684 32.1818 25.7786 32.1339 25.7086C31.9179 25.3665 31.3748 25.3669 31.1591 25.7091C31.1473 25.7266 29.9535 27.4684 27.7664 27.4684C25.9332 27.4684 24.8063 26.2602 24.4731 25.8448V16.7473H39.4129C39.7372 16.7473 40 16.4845 40 16.1602C40 15.8359 39.7372 15.5731 39.4129 15.5731H34.6917V11.2942C34.6917 7.41234 31.5711 4.22406 27.7353 4.18695C25.8482 4.16796 24.0686 4.89156 22.7249 6.22226C22.0743 6.86656 21.5667 7.61484 21.2146 8.42882C20.1293 5.9575 17.6888 4.21437 14.8586 4.18695C14.8353 4.18673 14.812 4.18662 14.7887 4.18664C12.9274 4.18664 11.1752 4.90796 9.84809 6.22226C8.50418 7.55328 7.76395 9.32539 7.76395 11.2121V15.5732H0.631606C0.307309 15.5732 0.0444969 15.836 0.0444969 16.1603C0.0444969 16.4846 0.307309 16.7474 0.631606 16.7474H7.76395V19.0659C7.76395 19.3902 8.02676 19.653 8.35106 19.653C8.67535 19.653 8.93817 19.3902 8.93817 19.0659V11.2121C8.93817 9.64109 9.55473 8.16531 10.6744 7.05648C11.7937 5.94804 13.2744 5.34242 14.8473 5.36109C18.0418 5.39195 20.6407 8.05359 20.6407 11.2942V15.5731H19.1568V11.2121C19.1568 8.84492 17.2316 6.88601 14.8654 6.84546C14.8404 6.84507 14.8157 6.84484 14.7907 6.84484C13.6576 6.84484 12.5839 7.28804 11.7604 8.09765C10.9099 8.93367 10.4222 10.0933 10.4222 11.2791V27.0363C9.6395 26.6433 9.13786 26.0884 8.93809 25.838V21.4141C8.93809 21.0898 8.67528 20.827 8.35098 20.827C8.02668 20.827 7.76387 21.0898 7.76387 21.4141V25.844C7.4295 26.2609 6.30278 27.4684 4.47028 27.4684C2.30254 27.4684 1.12223 25.7786 1.07426 25.7086C0.986628 25.5812 0.852266 25.4935 0.700357 25.4646C0.548448 25.4356 0.391261 25.4678 0.262933 25.5541C0.134606 25.6404 0.0455022 25.7738 0.0149744 25.9254C-0.0155534 26.077 0.01496 26.2345 0.0998875 26.3637C0.162388 26.4568 1.66426 28.6426 4.4702 28.6426C6.38856 28.6426 7.69731 27.621 8.35332 26.9449C9.00934 27.621 10.3182 28.6426 12.2365 28.6426C14.1543 28.6426 15.4616 27.6216 16.1171 26.9452C16.7732 27.6214 18.0819 28.6426 19.9998 28.6426C21.9182 28.6426 23.2269 27.621 23.8829 26.9449C24.5389 27.621 25.8478 28.6426 27.7661 28.6426C29.6839 28.6426 30.9912 27.6216 31.6467 26.9452C32.3029 27.6214 33.6115 28.6426 35.5294 28.6426C38.3354 28.6426 39.8372 26.4568 39.8997 26.3637C40.0805 26.0954 40.0093 25.7327 39.7418 25.5512ZM11.5964 20.8271H20.6407V22.4709H11.5964V20.8271ZM20.6407 19.6529H11.5964V16.7473H20.6407V19.6529ZM12.5836 8.93507C13.1989 8.33023 14.0018 8.00515 14.8452 8.01953C16.5752 8.04921 17.9826 9.4814 17.9826 11.2122V15.5733H11.5964V11.2792C11.5964 10.4061 11.9562 9.55171 12.5836 8.93507ZM16.6041 25.7086C16.3884 25.3684 15.8479 25.3681 15.6307 25.7072C15.5816 25.7791 14.4039 27.4684 12.2367 27.4684C12.0124 27.4684 11.7993 27.4494 11.5964 27.4169V23.645H20.6407V27.4169C20.4289 27.451 20.2146 27.4682 20 27.4684C17.8324 27.4684 16.652 25.7786 16.6041 25.7086ZM21.8149 27.0361V11.2121C21.8149 9.64109 22.4314 8.16531 23.5511 7.05648C24.6704 5.94804 26.1513 5.34242 27.7239 5.36109C30.9185 5.39195 33.5175 8.05359 33.5175 11.2942V15.5731H32.0335V14.268C32.0335 13.9437 31.7707 13.6809 31.4464 13.6809C31.1221 13.6809 30.8593 13.9437 30.8593 14.268V15.5731H24.473V11.2791C24.473 10.406 24.8329 9.55164 25.4602 8.93492C26.0755 8.33007 26.877 8.005 27.7218 8.01937C29.4518 8.04906 30.8593 9.48125 30.8593 11.212V11.9197C30.8593 12.244 31.1221 12.5068 31.4464 12.5068C31.7707 12.5068 32.0335 12.244 32.0335 11.9197V11.212C32.0335 8.84484 30.1083 6.88593 27.7421 6.84539C27.7171 6.845 27.6924 6.84476 27.6675 6.84476C26.5343 6.84476 25.4607 7.28796 24.6371 8.09757C23.7867 8.93359 23.2989 10.0932 23.2989 11.2791V25.8373C23.0986 26.0886 22.5969 26.6433 21.8149 27.0361ZM16.1198 34.64C13.9521 34.64 12.7718 32.9502 12.7238 32.8802C12.5082 32.5402 11.9682 32.5398 11.7507 32.8784C11.7015 32.9503 10.5211 34.6401 8.35348 34.6401C6.18582 34.6401 5.00543 32.9503 4.95747 32.8803C4.91445 32.8163 4.85925 32.7614 4.79503 32.7188C4.7308 32.6761 4.6588 32.6466 4.58314 32.6317C4.50748 32.6169 4.42964 32.6171 4.35407 32.6324C4.2785 32.6477 4.20668 32.6777 4.1427 32.7207C4.07872 32.7637 4.02384 32.8189 3.98119 32.8831C3.93854 32.9473 3.90896 33.0193 3.89414 33.095C3.87932 33.1706 3.87954 33.2485 3.89481 33.324C3.91007 33.3996 3.94007 33.4714 3.98309 33.5354C4.04559 33.6284 5.54739 35.8142 8.3534 35.8142C10.2718 35.8142 11.5805 34.7927 12.2365 34.1166C12.8925 34.7927 14.2014 35.8142 16.1197 35.8142C16.444 35.8142 16.7068 35.5514 16.7068 35.2271C16.7068 34.9028 16.4441 34.64 16.1198 34.64ZM35.8581 32.7225C35.5904 32.5413 35.2258 32.6118 35.0435 32.8788C34.9944 32.9507 33.8168 34.64 31.6495 34.64C29.4818 34.64 28.3014 32.9502 28.2535 32.8802C28.0377 32.5384 27.4949 32.5384 27.2791 32.8802C27.2672 32.8978 26.0706 34.64 23.8831 34.64C21.7154 34.64 20.535 32.9502 20.4871 32.8802C20.2714 32.54 19.7309 32.5398 19.5136 32.8788C19.5089 32.8856 19.0352 33.571 18.1612 34.0811C18.0946 34.12 18.0363 34.1716 17.9897 34.233C17.9431 34.2944 17.909 34.3643 17.8894 34.4389C17.8698 34.5135 17.865 34.5912 17.8755 34.6676C17.8859 34.744 17.9113 34.8176 17.9502 34.8842C17.989 34.9508 18.0406 35.009 18.102 35.0557C18.1634 35.1023 18.2334 35.1364 18.308 35.156C18.3826 35.1756 18.4603 35.1803 18.5367 35.1699C18.6131 35.1595 18.6867 35.1341 18.7532 35.0952C19.2925 34.7804 19.7096 34.4144 19.9995 34.116C20.6554 34.7921 21.9643 35.8142 23.8831 35.8142C25.8014 35.8142 27.1102 34.7927 27.7662 34.1166C28.4222 34.7927 29.7311 35.8142 31.6493 35.8142C34.4557 35.8142 35.9547 33.628 36.0172 33.5349C36.1975 33.2662 36.1259 32.9037 35.8581 32.7225Z" fill="white"/>
</g>
<defs>
<clipPath id="clip0_1345_2818">
<rect width="40" height="40" fill="white"/>
</clipPath>
</defs>
</svg>
