<svg width="41" height="30" viewBox="0 0 41 30" fill="none" xmlns="http://www.w3.org/2000/svg">
<path d="M23.1819 5.45454C24.6881 5.45454 25.9091 4.2335 25.9091 2.72727C25.9091 1.22104 24.6881 0 23.1819 0C21.6756 0 20.4546 1.22104 20.4546 2.72727C20.4546 4.2335 21.6756 5.45454 23.1819 5.45454Z" fill="#0181F5"/>
<path d="M17.7273 9.20459C17.7273 8.93335 17.835 8.67321 18.0268 8.48141C18.2186 8.28961 18.4788 8.18186 18.75 8.18186C19.0212 8.18186 19.2814 8.28961 19.4732 8.48141C19.665 8.67321 19.7727 8.93335 19.7727 9.20459V10.2273L20.0455 10.4544L20.1818 10.2273L21.8182 7.50004L21.5891 7.15913C21.2403 6.63519 20.7676 6.20547 20.2128 5.90812C19.6581 5.61076 19.0385 5.45498 18.4091 5.45459C17.5445 5.45456 16.6884 5.62482 15.8896 5.95566C15.0908 6.2865 14.365 6.77143 13.7536 7.38277L13.6364 7.50004L15.7575 9.62118L15.3716 10.2273H13.6364C12.7325 10.2284 11.8661 10.5879 11.227 11.227C10.5879 11.8661 10.2284 12.7326 10.2273 13.6364V22.5C10.2273 23.0425 10.0118 23.5628 9.62817 23.9464C9.24457 24.33 8.72431 24.5455 8.18182 24.5455V18.4091H6.81818C6.81818 17.6858 6.53084 16.9921 6.01938 16.4807C5.50792 15.9692 4.81423 15.6819 4.09091 15.6819C3.36759 15.6819 2.6739 15.9692 2.16244 16.4807C1.65097 16.9921 1.36364 17.6858 1.36364 18.4091H0V26.591H8.18182V25.9091C9.08563 25.908 9.95212 25.5485 10.5912 24.9094C11.2303 24.2703 11.5898 23.4039 11.5909 22.5V13.6364C11.5909 13.0939 11.8064 12.5736 12.19 12.1901C12.5736 11.8065 13.0939 11.591 13.6364 11.591H14.5043L14.1634 12.1296C13.6985 12.8592 13.533 13.7402 13.7016 14.5888C13.8701 15.4374 14.3597 16.1882 15.0682 16.6848L15.6757 17.1103L15 26.591L13.6364 27.2728V28.6364L18.4091 30L19.0909 28.6364L17.0455 27.2728L19.1536 19.5437L20.4545 20.4546L23.1818 27.9546L22.5 28.6364V30H27.2727V28.6364L25.2273 27.9546L23.1818 19.091L17.7273 14.3182L18.8959 12.3703L17.7273 11.591V9.20459ZM2.72727 24.5455H1.36364V20.4546H2.72727V24.5455Z" fill="#010F34"/>
<path d="M26.1771 15.5602L26.591 14.318L25.2274 13.6361H23.8637L20.0455 10.4541L18.9546 12.2725L18.896 12.37L23.8637 15.6816L24.5455 16.3634H25.0746L33.2564 27.9543H32.0455V29.9998H38.8637V27.9543H34.9255L26.1771 15.5602Z" fill="#010F34"/>
<path d="M2.04528 30.0002C2.79839 30.0002 3.40891 29.3897 3.40891 28.6366C3.40891 27.8835 2.79839 27.2729 2.04528 27.2729C1.29216 27.2729 0.681641 27.8835 0.681641 28.6366C0.681641 29.3897 1.29216 30.0002 2.04528 30.0002Z" fill="#010F34"/>
<path d="M6.13659 30.0002C6.8897 30.0002 7.50022 29.3897 7.50022 28.6366C7.50022 27.8835 6.8897 27.2729 6.13659 27.2729C5.38347 27.2729 4.77295 27.8835 4.77295 28.6366C4.77295 29.3897 5.38347 30.0002 6.13659 30.0002Z" fill="#010F34"/>
<path d="M39.5453 25.9089C40.2984 25.9089 40.9089 25.2984 40.9089 24.5453C40.9089 23.7922 40.2984 23.1816 39.5453 23.1816C38.7922 23.1816 38.1816 23.7922 38.1816 24.5453C38.1816 25.2984 38.7922 25.9089 39.5453 25.9089Z" fill="#0181F5"/>
<path d="M38.8638 19.7729H40.2274V21.1366H38.8638V19.7729Z" fill="#0181F5"/>
<path d="M34.7729 23.8638H36.1366V25.2274H34.7729V23.8638Z" fill="#0181F5"/>
<path d="M34.7729 20.4546H36.1366V21.8182H34.7729V20.4546Z" fill="#0181F5"/>
<path d="M32.0454 21.8184H33.409V23.182H32.0454V21.8184Z" fill="#0181F5"/>
</svg>
