<svg width="31" height="30" viewBox="0 0 31 30" fill="none" xmlns="http://www.w3.org/2000/svg">
<path d="M17.8476 9.22805H16.2689L13.3835 8.43689L11.8443 4.6889C11.6046 4.10511 10.937 3.82631 10.3532 4.06584C9.76962 4.3056 9.49082 4.97321 9.73035 5.557L11.4829 9.82447C11.6174 10.152 11.8962 10.3986 12.2377 10.4923L13.5369 10.8485L14.9883 10.4266L12.3475 12.034L8.53706 10.7135C7.94064 10.5068 7.2898 10.8226 7.08333 11.419C6.87664 12.0152 7.19265 12.666 7.78884 12.8725L12.108 14.3694C12.429 14.4805 12.7843 14.4433 13.076 14.2658L16.1766 12.3787L13.5537 15.0503C13.5482 15.0558 13.5424 15.0609 13.5369 15.0661V18.5275L12.2906 21.9255C12.2047 22.1598 12.1865 22.4133 12.2382 22.6574L13.5656 28.9475C13.7174 29.6647 14.422 30.1231 15.1392 29.9711C15.8564 29.8193 16.3148 29.1147 16.1628 28.3975L14.9146 22.4811L16.293 18.7232H16.7408V28.6726C16.7408 29.4059 17.3352 30.0002 18.0685 30.0002C18.8015 30.0002 19.3959 29.4059 19.3959 28.6726V18.7232H19.3964V10.7769C19.3961 9.92138 18.7028 9.22805 17.8476 9.22805Z" fill="#010F34"/>
<path d="M5.87526 26.1273C5.87526 25.9089 5.61046 25.3597 5.4357 25.021C5.37254 24.8986 5.19777 24.8986 5.13462 25.021C4.95962 25.3597 4.69482 25.9089 4.69482 26.1273C4.69482 26.4531 4.95893 26.7175 5.28504 26.7175C5.61092 26.7175 5.87526 26.4531 5.87526 26.1273Z" fill="#0181F5"/>
<path d="M7.37853 29.2331C7.37853 28.8096 6.4413 28.4663 5.28521 28.4663C4.12912 28.4663 3.19189 28.8096 3.19189 29.2331C3.19189 29.6568 4.12912 30.0002 5.28521 30.0002C6.4413 30.0002 7.37853 29.6568 7.37853 29.2331Z" fill="#0181F5"/>
<path d="M8.46605 19.7108H8.44262V14.0661L7.48817 13.7352C7.17033 13.6252 6.89704 13.4447 6.67886 13.2178V19.7108H6.6435C6.31876 19.7108 6.05557 19.974 6.05557 20.2988C6.05557 20.6173 6.30935 20.8761 6.62558 20.8858C6.45127 21.5237 5.8668 21.9943 5.17415 21.9943C4.4799 21.9943 3.89428 21.5217 3.72158 20.8812C4.01003 20.8437 4.23302 20.5975 4.23302 20.2988C4.23302 19.9823 3.98293 19.7249 3.66945 19.712V17.0085C3.66945 15.7752 2.69134 14.7663 1.4698 14.7165V14.6368C1.4698 14.3123 1.20661 14.0489 0.88188 14.0489C0.557146 14.0489 0.29396 14.3123 0.29396 14.6368V14.7142H0V16.478H0.29396C0.29396 16.8027 0.557146 17.0659 0.88188 17.0659C1.20363 17.0659 1.46452 16.8073 1.46934 16.4867C1.71714 16.5315 1.90569 16.748 1.90569 17.0085V19.7108H1.88134C1.55661 19.7108 1.29342 19.974 1.29342 20.2988C1.29342 20.6235 1.55661 20.8867 1.88134 20.8867H1.93072C2.12731 22.5021 3.50639 23.7581 5.17415 23.7581C6.84192 23.7581 8.221 22.5021 8.41759 20.8867H8.46605C8.79078 20.8867 9.05397 20.6235 9.05397 20.2988C9.05397 19.974 8.79078 19.7108 8.46605 19.7108Z" fill="#010F34"/>
<path d="M6.64358 4.96425H6.67895V10.3575C7.12885 9.89106 7.7836 9.65452 8.44271 9.74546V4.96425H8.46614C8.79087 4.96425 9.05406 4.70106 9.05406 4.37633C9.05406 4.05159 8.79087 3.78841 8.46614 3.78841H8.44271V3.66416C8.44271 2.97703 8.97207 2.41162 9.64427 2.35329C9.66701 2.65735 9.92032 2.89688 10.2299 2.89688C10.5413 2.89688 10.7955 2.65437 10.8157 2.348H30.1016V0.584245H10.8176C10.8157 0.261349 10.5535 0 10.2299 0C9.90539 0 9.64243 0.262956 9.64198 0.587231C7.99764 0.649008 6.67895 2.00513 6.67895 3.66416V3.78841H6.64358C6.31885 3.78841 6.05566 4.05159 6.05566 4.37633C6.05566 4.70106 6.31885 4.96425 6.64358 4.96425Z" fill="#010F34"/>
<path d="M18.7474 6.216C18.7474 7.48209 17.7209 8.50866 16.4548 8.50866C15.1884 8.50866 14.1621 7.48209 14.1621 6.216C14.1621 4.94967 15.1884 3.92334 16.4548 3.92334C17.7209 3.92334 18.7474 4.94967 18.7474 6.216Z" fill="#010F34"/>
<path d="M29.4093 24.9369H27.1469V24.0114C27.1469 23.3511 26.61 22.814 25.9497 22.814H24.0778C23.4175 22.814 22.8804 23.3511 22.8804 24.0114V24.9369H20.6183C20.3326 24.9369 20.1011 25.1682 20.1011 25.4539V26.4053C20.1011 26.6908 20.3326 26.9223 20.6183 26.9223H20.8433L21.1079 29.2707C21.1547 29.686 21.5059 29.9999 21.9239 29.9999H28.1034C28.5214 29.9999 28.8726 29.686 28.9194 29.2707L29.184 26.9223H29.4093C29.695 26.9223 29.9262 26.6908 29.9262 26.4053V25.4539C29.9265 25.1682 29.695 24.9369 29.4093 24.9369ZM25.7419 27.8152C25.7419 27.9528 25.6303 28.0641 25.4929 28.0641H24.5348C24.3973 28.0641 24.2859 27.9525 24.2859 27.8152V26.0296C24.2859 25.892 24.3973 25.7807 24.5348 25.7807H25.4929C25.6305 25.7807 25.7419 25.8923 25.7419 26.0296V27.8152ZM26.2063 24.9369H23.8213V24.0114C23.8213 23.8699 23.9363 23.7546 24.0778 23.7546H25.9497C26.0912 23.7546 26.2065 23.8699 26.2065 24.0114V24.9369H26.2063Z" fill="#0181F5"/>
</svg>
