<svg width="23" height="30" viewBox="0 0 23 30" fill="none" xmlns="http://www.w3.org/2000/svg">
<path fill-rule="evenodd" clip-rule="evenodd" d="M6.06392 22.3025H14.8975C15.3603 22.3025 15.3602 23.0057 14.8972 23.0057H6.06393C5.60121 23.0057 5.60121 22.3025 6.06392 22.3025ZM8.91991 24.2658C8.45713 24.2658 8.45713 23.5627 8.91991 23.5627H17.7532C18.2159 23.5627 18.2159 24.2658 17.7532 24.2658H8.91991ZM7.3852 23.5627C7.84784 23.5627 7.84811 24.2658 7.3852 24.2658H6.06412C5.60134 24.2658 5.60134 23.5627 6.06412 23.5627H7.3852ZM4.53369 22.5354V26.5691C5.29876 26.7131 5.90792 27.3169 6.05802 28.081H17.759C17.9091 27.3169 18.5184 26.7129 19.2834 26.5691V22.5354C18.5108 22.3911 17.8999 21.7805 17.7556 21.0078H6.06128C5.91692 21.7805 5.30638 22.3911 4.53369 22.5354ZM14.8974 24.8229C15.3603 24.8229 15.3601 25.5261 14.8972 25.5261H6.06391C5.6012 25.5261 5.6012 24.8229 6.06391 24.8229H14.8974ZM8.91991 26.0832H17.7532C18.2159 26.0832 18.2159 26.7864 17.7532 26.7864H8.91991C8.45713 26.7864 8.45713 26.0832 8.91991 26.0832ZM7.38519 26.0832C7.84784 26.0832 7.84811 26.7864 7.38519 26.7864H6.06412C5.60134 26.7864 5.60134 26.0832 6.06412 26.0832H7.38519ZM16.4318 23.0057C15.969 23.0057 15.9692 22.3025 16.4318 22.3025H17.753C18.2157 22.3025 18.2157 23.0057 17.753 23.0057H16.4318ZM16.4318 24.8229H17.753C18.2157 24.8229 18.2157 25.5261 17.753 25.5261H16.4318C15.969 25.5261 15.9692 24.8229 16.4318 24.8229Z" fill="#0181F5"/>
<path fill-rule="evenodd" clip-rule="evenodd" d="M1.69922 18.6197H22.1173V16.6788L1.69922 16.6787V18.6197Z" fill="#0181F5"/>
<path fill-rule="evenodd" clip-rule="evenodd" d="M5.87707 11.8811C6.24656 12.0975 6.65494 12.0956 7.02374 11.8753C7.05136 11.8504 7.08291 11.83 7.11689 11.8143C7.45455 11.5739 7.75193 11.1431 7.94481 10.5216C8.0482 10.1883 8.45776 10.3555 8.45776 9.96519C8.45776 9.85557 8.40281 9.75522 8.31388 9.69542C7.05655 9.69515 6.14904 9.38635 5.61 8.77637C5.56875 8.79734 5.52335 8.82391 5.47304 8.8581C5.15954 9.08565 4.93635 9.38898 4.77178 9.55528C4.72306 9.60345 4.66914 9.64933 4.63004 9.66615C4.33931 9.79093 4.3836 10.2149 4.68672 10.2826C4.80977 10.3099 4.9086 10.4013 4.94597 10.5216C5.14334 11.1575 5.45013 11.5939 5.79755 11.8309C5.82606 11.8443 5.85292 11.8611 5.87707 11.8811Z" fill="#0181F5"/>
<path fill-rule="evenodd" clip-rule="evenodd" d="M7.03479 12.6533C6.84945 12.7233 6.65228 12.7623 6.4448 12.7623C6.24604 12.7623 6.0567 12.7265 5.87828 12.662C5.86714 12.7078 5.85579 12.752 5.84375 12.7944C5.97289 12.9398 6.1522 13.1645 6.45802 13.5113C6.76364 13.1646 6.94288 12.94 7.07174 12.7948C7.0588 12.7497 7.04669 12.7024 7.03479 12.6533Z" fill="#0181F5"/>
<path fill-rule="evenodd" clip-rule="evenodd" d="M6.07936 8.24597C6.31999 8.54044 6.69785 8.74038 7.14998 8.85858C7.53192 8.95139 7.91609 8.97326 8.1862 8.98675C8.39866 8.5257 8.65666 7.82651 8.01775 7.75461C7.23185 7.66623 6.26351 6.99818 5.79609 7.39474C5.79506 7.46152 5.79817 7.52595 5.80523 7.58817C5.81589 7.6135 5.82184 7.64042 5.8217 7.66844C5.82987 7.71011 5.83949 7.75038 5.85049 7.78942C5.908 7.94472 5.99209 8.07379 6.04184 8.19531L6.07936 8.24597Z" fill="#0181F5"/>
<path fill-rule="evenodd" clip-rule="evenodd" d="M5.23653 8.17687C5.14553 7.95513 5.10324 7.74025 5.09155 7.55713C4.91044 7.55713 4.46164 7.56474 4.45264 8.44276C4.46461 8.51231 4.49291 8.63114 4.54046 8.75585C4.73437 8.55404 4.98234 8.32684 5.23653 8.17687Z" fill="#0181F5"/>
<path fill-rule="evenodd" clip-rule="evenodd" d="M16.4816 7.66874L16.5816 7.9567C16.6154 8.02439 16.6501 8.08695 16.6786 8.14695C16.7894 8.30509 16.9188 8.43229 17.0596 8.53506C17.3634 8.74129 17.7619 8.87278 18.2079 8.9395C18.4481 8.96843 18.6712 8.9741 18.8484 8.98068C19.0604 8.51969 19.3134 7.82632 18.6772 7.75469C17.8913 7.66631 16.9229 6.99806 16.4552 7.39482C16.454 7.48306 16.46 7.56714 16.4727 7.64735L16.4816 7.66874Z" fill="#0181F5"/>
<path fill-rule="evenodd" clip-rule="evenodd" d="M15.8955 8.17707C15.8044 7.95512 15.7621 7.73996 15.7504 7.5567C15.571 7.54909 15.1209 7.56003 15.1118 8.44296C15.1238 8.51258 15.1522 8.6314 15.1997 8.75584C15.3936 8.5541 15.6416 8.32697 15.8955 8.17707Z" fill="#0181F5"/>
<path fill-rule="evenodd" clip-rule="evenodd" d="M16.2691 8.77637C16.2266 8.79796 16.1796 8.82543 16.1274 8.86121C15.8132 9.09035 15.592 9.39403 15.4277 9.55881C15.379 9.60691 15.3286 9.64905 15.289 9.66608C14.9991 9.79051 15.0422 10.2146 15.3459 10.2826C15.4686 10.3098 15.5675 10.4012 15.6048 10.5215C15.8022 11.1572 16.108 11.593 16.4543 11.83C16.4842 11.8439 16.5124 11.8613 16.5376 11.8823C16.9072 12.0978 17.3152 12.0947 17.6834 11.8747C17.7108 11.8501 17.7423 11.8299 17.7759 11.8143C18.1143 11.5737 18.4119 11.1424 18.604 10.5213C18.707 10.188 19.1164 10.3554 19.1164 9.96491C19.1164 9.82657 19.0094 9.70228 18.9741 9.69529L18.9337 9.69487L18.8465 9.69397L18.7999 9.69307C17.6322 9.66601 16.7829 9.35811 16.2691 8.77637Z" fill="#0181F5"/>
<path fill-rule="evenodd" clip-rule="evenodd" d="M17.1041 12.7622C16.9054 12.7622 16.7162 12.7265 16.5378 12.662C16.5267 12.7078 16.5154 12.752 16.5034 12.7943C16.6326 12.9396 16.8119 13.1644 17.1176 13.5112C17.4231 13.1647 17.6023 12.9402 17.7311 12.795C17.7182 12.7499 17.706 12.7025 17.6941 12.6533C17.5088 12.7233 17.3116 12.7622 17.1041 12.7622Z" fill="#0181F5"/>
<path fill-rule="evenodd" clip-rule="evenodd" d="M1.67741 29.2969V18.8544H0.878772C0.684718 18.8544 0.527205 18.6968 0.527205 18.5029V15.8587C0.527205 15.6646 0.684719 15.5071 0.878772 15.5071H1.09373C1.25255 13.5819 2.70194 12.0696 4.46115 12.0696C4.54905 12.0696 4.62462 12.0682 4.69078 12.067C4.71348 11.9779 4.74054 11.8889 4.76621 11.8057C4.36115 11.4528 4.05069 10.949 3.86273 10.4322C3.50438 10.2674 3.26091 9.90216 3.26091 9.49661C3.26091 9.23307 3.36113 8.98629 3.53248 8.80005C3.36583 8.47748 3.28098 8.07719 3.28098 8.00058C3.28098 6.6375 4.2599 6.27479 4.86691 6.3894C5.36159 5.9489 6.1666 6.09458 6.79596 6.34787C7.6883 6.70698 8.20513 6.5204 8.52258 7.14056C8.71926 7.52479 8.62078 8.28211 8.3942 8.77071C8.87158 9.24837 8.76743 10.1202 8.08914 10.4323C7.90471 10.94 7.60186 11.4353 7.20718 11.7871C7.23479 11.8763 7.26407 11.972 7.28822 12.0675C7.34767 12.0685 7.41473 12.0696 7.49141 12.0696C9.26185 12.0696 10.7036 13.6025 10.8633 15.5071H11.7532C11.912 13.5819 13.3617 12.0696 15.1206 12.0696C15.2086 12.0696 15.2842 12.0682 15.3505 12.067C15.3732 11.978 15.4002 11.8893 15.4259 11.8062C15.0207 11.4532 14.7101 10.9492 14.5223 10.4322C14.1638 10.2674 13.9202 9.90216 13.9202 9.49661C13.9202 9.23307 14.0205 8.98629 14.1919 8.80005C14.0248 8.47651 13.9399 8.07491 13.9399 8.00058C13.9399 6.63965 14.9197 6.27355 15.5264 6.38912C16.021 5.94869 16.8261 6.09472 17.4553 6.34787C18.348 6.70691 18.8647 6.5204 19.1819 7.14056C19.3782 7.52451 19.28 8.28045 19.054 8.76912C19.5305 9.24484 19.4317 10.1184 18.7498 10.4319C18.5647 10.9399 18.2613 11.4356 17.8662 11.7875C17.8937 11.8765 17.9229 11.9722 17.9471 12.0675C18.0066 12.0685 18.0738 12.0696 18.1507 12.0696C19.9217 12.0696 21.3642 13.6043 21.5229 15.5071H22.0002C22.1942 15.5071 22.3518 15.6647 22.3518 15.8587V18.5029C22.3518 18.6971 22.1944 18.8544 22.0002 18.8544H21.2018V29.2969H22.532C22.9947 29.2969 22.9947 30 22.5322 30H0.347086C-0.115695 30 -0.115695 29.2969 0.347086 29.2969L1.67741 29.2969ZM16.297 15.5069V13.7154C16.1095 13.5275 15.862 13.2135 15.4735 12.7727H15.1208C13.7463 12.7727 12.6108 13.9702 12.4589 15.5069L16.297 15.5069ZM17.0002 13.7158V15.5069H20.8123C20.6604 13.9702 19.5247 12.7727 18.1507 12.7727H17.8242C17.4353 13.2138 17.1878 13.5281 17.0002 13.7158ZM5.63779 15.5069V13.7157C5.45017 13.5278 5.20262 13.2137 4.81382 12.7727H4.46108C3.08706 12.7727 1.95125 13.9702 1.79949 15.5069L5.63779 15.5069ZM6.34092 13.7156V15.5069H10.1528C10.0009 13.9702 8.86521 12.7727 7.49139 12.7727H7.16467C6.77594 13.2137 6.52847 13.5278 6.34092 13.7156ZM11.0869 7.49848C10.9531 7.49848 10.8303 7.42208 10.7715 7.30221L10.0149 5.76487H7.98699C7.61854 5.76487 7.31901 5.46534 7.31901 5.09689V0.667908C7.31901 0.299456 7.61854 0 7.98699 0H14.6899C15.0583 0 15.3578 0.299454 15.3578 0.667908V5.09689C15.3578 5.46534 15.058 5.76487 14.6899 5.76487H12.6554L11.3603 7.36796C11.2932 7.45114 11.1923 7.49848 11.0869 7.49848ZM8.02187 5.06174H10.2333C10.3674 5.06174 10.4897 5.13793 10.5487 5.25801L11.1591 6.49797L12.2141 5.19233C12.2807 5.10984 12.3816 5.06167 12.4875 5.06167L14.6544 5.06174V0.703068H8.02187L8.02187 5.06174ZM13.9081 4.43875C13.5218 4.43875 12.9758 4.53314 12.9758 4.08718C12.9758 3.64121 13.5221 3.73561 13.9081 3.73561C14.371 3.73561 14.371 4.43875 13.9081 4.43875ZM12.2279 4.43875H8.76846C8.30561 4.43875 8.30561 3.73561 8.76846 3.73561H12.2279C12.6908 3.73561 12.6906 4.43875 12.2279 4.43875ZM13.9084 3.23387H10.4487C9.98586 3.23387 9.98586 2.53074 10.4487 2.53074H13.9084C14.3712 2.53074 14.3712 3.23387 13.9084 3.23387ZM9.34924 3.23387C8.96293 3.23387 8.4169 3.32827 8.4169 2.8823C8.4169 2.43634 8.96293 2.53074 9.34924 2.53074C9.81202 2.53074 9.81209 3.23387 9.34924 3.23387ZM13.9081 2.02906C13.5218 2.02906 12.9758 2.12346 12.9758 1.67749C12.9758 1.23153 13.5221 1.32593 13.9081 1.32593C14.371 1.32593 14.371 2.02906 13.9081 2.02906ZM12.2279 2.02906H8.76846C8.30561 2.02906 8.30561 1.32593 8.76846 1.32593H12.2279C12.6908 1.32593 12.6906 2.02906 12.2279 2.02906ZM14.7312 8.28695C14.9251 8.08521 15.1731 7.85808 15.427 7.70818C15.3359 7.48623 15.2936 7.27107 15.2819 7.08781C15.1025 7.0802 14.6524 7.09114 14.6433 7.97407C14.6553 8.04369 14.6836 8.16252 14.7312 8.28695ZM16.1126 7.48789C16.1464 7.55558 16.1811 7.61814 16.2096 7.67814C16.3204 7.83628 16.4498 7.96348 16.5905 8.06625C16.8944 8.27248 17.2929 8.40397 17.7389 8.47069C17.9791 8.49962 18.2022 8.50529 18.3794 8.51187C18.5914 8.05089 18.8444 7.35751 18.2082 7.28588C17.4223 7.1975 16.4539 6.52925 15.9862 6.92601C15.985 7.01425 15.991 7.09833 16.0037 7.17854L16.0122 7.19944L16.1126 7.48789ZM15.8004 8.30785C15.7579 8.32944 15.7109 8.35691 15.6587 8.39269C15.3445 8.62183 15.1232 8.92551 14.9589 9.09029C14.9103 9.13839 14.8598 9.18054 14.8203 9.19756C14.5303 9.32199 14.5735 9.74609 14.8771 9.81405C14.9999 9.84132 15.0987 9.93267 15.1361 10.053C15.3335 10.6887 15.6393 11.1245 15.9855 11.3615C16.0155 11.3753 16.0437 11.3928 16.0689 11.4138C16.4384 11.6293 16.8465 11.6262 17.2147 11.4061C17.2421 11.3816 17.2735 11.3614 17.3072 11.3458C17.6456 11.1052 17.9432 10.6739 18.1352 10.0528C18.2383 9.71951 18.6476 9.88692 18.6476 9.49639C18.6476 9.35805 18.5406 9.23376 18.5054 9.22677L18.465 9.22635L18.3777 9.22545L18.3312 9.22455C17.1634 9.19749 16.3142 8.88959 15.8004 8.30785ZM17.2254 12.1848C17.0401 12.2548 16.8429 12.2937 16.6355 12.2937C16.4368 12.2937 16.2476 12.258 16.0691 12.1936C16.0581 12.2393 16.0467 12.2835 16.0347 12.3258C16.164 12.4711 16.3432 12.6959 16.649 13.0427C16.9544 12.6962 17.1337 12.4717 17.2625 12.3265C17.2495 12.2814 17.2373 12.234 17.2254 12.1848ZM4.07166 8.28716C4.26558 8.08535 4.51354 7.85815 4.76774 7.70818C4.67673 7.48644 4.63444 7.27156 4.62275 7.08844C4.44164 7.08844 3.99284 7.09605 3.98384 7.97407C3.99581 8.04362 4.02412 8.16245 4.07166 8.28716ZM5.38145 7.3207C5.43897 7.47599 5.52305 7.60506 5.57281 7.72659C5.58492 7.74389 5.59745 7.76078 5.61032 7.77725C5.85095 8.07172 6.22881 8.27166 6.68094 8.38986C7.06288 8.48267 7.44705 8.50454 7.71716 8.51803C7.92962 8.05698 8.18762 7.35779 7.54871 7.28589C6.76281 7.19751 5.79448 6.52946 5.32705 6.92602C5.32602 6.9928 5.32913 7.05723 5.33619 7.11945C5.34685 7.14477 5.3528 7.1717 5.3528 7.19972C5.36097 7.24139 5.37045 7.28166 5.38145 7.3207ZM5.14103 8.30799C5.09979 8.32896 5.05439 8.35553 5.00407 8.38972C4.69057 8.61727 4.46738 8.9206 4.30281 9.0869C4.25409 9.13507 4.20018 9.18095 4.16108 9.19777C3.87034 9.32255 3.91463 9.74651 4.21775 9.81419C4.3408 9.84153 4.43963 9.93288 4.477 10.0532C4.67438 10.6892 4.98117 11.1255 5.32858 11.3625C5.35709 11.376 5.38395 11.3927 5.4081 11.4127C5.77759 11.6291 6.18598 11.6272 6.55477 11.4069C6.58239 11.3821 6.61395 11.3616 6.64793 11.3459C6.98558 11.1055 7.28296 10.6748 7.47584 10.0532C7.57923 9.71993 7.98879 9.88713 7.98879 9.49681C7.98879 9.38719 7.93384 9.28684 7.84519 9.22698C6.58785 9.2267 5.68007 8.91797 5.14103 8.30799ZM6.56626 12.1848C6.38093 12.2547 6.18376 12.2937 5.97628 12.2937C5.77752 12.2937 5.58817 12.258 5.40976 12.1935C5.39862 12.2392 5.38727 12.2835 5.37523 12.3258C5.50436 12.4712 5.68368 12.6959 5.9895 13.0427C6.29511 12.6961 6.47436 12.4714 6.60322 12.3263C6.59028 12.2812 6.57817 12.2338 6.56626 12.1848ZM17.2842 26.3177H8.45087C7.98809 26.3177 7.98809 25.6145 8.45087 25.6145H17.2842C17.7469 25.6145 17.7469 26.3177 17.2842 26.3177ZM6.91616 26.3177H5.59509C5.1323 26.3177 5.1323 25.6145 5.59509 25.6145H6.91616C7.3788 25.6145 7.37908 26.3177 6.91616 26.3177ZM17.2839 25.0574H15.9628C15.4999 25.0574 15.5001 24.3542 15.9628 24.3542H17.2839C17.7466 24.3542 17.7466 25.0574 17.2839 25.0574ZM14.4282 25.0574H5.59486C5.13215 25.0574 5.13215 24.3542 5.59486 24.3542H14.4284C14.8912 24.3542 14.8911 25.0574 14.4282 25.0574ZM17.2842 23.7971H8.45085C7.98807 23.7971 7.98807 23.094 8.45085 23.094H17.2842C17.7469 23.094 17.7469 23.7971 17.2842 23.7971ZM6.91614 23.7971H5.59507C5.13229 23.7971 5.13229 23.094 5.59507 23.094H6.91614C7.37878 23.094 7.37906 23.7971 6.91614 23.7971ZM17.2839 22.537H15.9628C15.4999 22.537 15.5001 21.8338 15.9628 21.8338H17.2839C17.7466 21.8338 17.7466 22.537 17.2839 22.537ZM14.4282 22.537H5.59485C5.13214 22.537 5.13214 21.8338 5.59485 21.8338H14.4284C14.8912 21.8338 14.8911 22.537 14.4282 22.537ZM1.23031 18.1512H21.6484V16.2103L1.23031 16.2101V18.1512ZM17.6061 28.3157H5.27313C5.08025 28.3157 4.9235 28.1601 4.92156 27.9672C4.91519 27.3076 4.37304 26.7709 3.71309 26.7709C3.51903 26.7709 3.36152 26.6132 3.36152 26.4193V21.7472C3.36152 21.5532 3.51903 21.3957 3.71309 21.3957C4.37926 21.3957 4.92156 20.8537 4.92156 20.1875C4.92156 19.9934 5.07907 19.8359 5.27313 19.8359L17.6059 19.836C17.8 19.836 17.9575 19.9937 17.9575 20.1876C17.9575 20.8537 18.4997 21.3958 19.166 21.3958C19.36 21.3958 19.5175 21.5535 19.5175 21.7473V26.4194C19.5175 26.6135 19.3599 26.771 19.166 26.771C18.506 26.771 17.9641 27.3077 17.9575 27.9673C17.9558 28.1602 17.7991 28.3157 17.6061 28.3157ZM5.58898 27.6123H17.29C17.4401 26.8482 18.0493 26.2442 18.8144 26.1004V22.0667C18.0417 21.9224 17.4309 21.3118 17.2865 20.5391H5.59223C5.44787 21.3118 4.83733 21.9224 4.06465 22.0667V26.1004C4.82972 26.2444 5.43887 26.8481 5.58898 27.6123ZM2.38051 29.2967H20.4987V18.8544H2.38051V29.2967Z" fill="#010F34"/>
</svg>
