<svg width="20" height="20" viewBox="0 0 20 20" fill="none" xmlns="http://www.w3.org/2000/svg">
<rect x="0.5" y="0.5" width="19" height="19" rx="4.5" fill="#0181F5" stroke="#FFFBFB"/>
<path d="M7.39175 6C8.78046 6 9.78293 7.14648 9.78289 8.84403C9.774 11.3105 7.91984 13.0543 5.24496 13.3892C4.9968 13.4203 4.90111 13.0765 5.12963 12.9749C6.15601 12.5185 6.67438 11.9394 6.74134 11.3662C6.79136 10.9379 6.55855 10.5627 6.26622 10.4925C5.50835 10.3104 5.00058 9.3666 5.00058 8.39117C5.00058 7.07057 6.07114 6 7.39175 6Z" fill="white"/>
<path d="M12.609 6C13.9977 6 15.0002 7.14648 15.0002 8.84403C14.9913 11.3105 13.1371 13.0543 10.4622 13.3892C10.2141 13.4203 10.1184 13.0765 10.3469 12.9749C11.3733 12.5185 11.8917 11.9394 11.9586 11.3662C12.0086 10.9379 11.7758 10.5627 11.4835 10.4925C10.7256 10.3104 10.2179 9.3666 10.2179 8.39117C10.2179 7.07057 11.2884 6 12.609 6Z" fill="white"/>
</svg>
