<svg width="60" height="60" viewBox="0 0 60 60" fill="none" xmlns="http://www.w3.org/2000/svg">
<path d="M33.75 29.0625C47.7297 29.0625 59.0625 24.0257 59.0625 17.8125C59.0625 11.5993 47.7297 6.5625 33.75 6.5625C19.7703 6.5625 8.4375 11.5993 8.4375 17.8125C8.4375 24.0257 19.7703 29.0625 33.75 29.0625Z" fill="#EE7231"/>
<path d="M33.75 33.75C48.2475 33.75 60 28.2935 60 21.5625C60 14.8315 48.2475 9.375 33.75 9.375C19.2525 9.375 7.5 14.8315 7.5 21.5625C7.5 28.2935 19.2525 33.75 33.75 33.75Z" fill="#B7DBF9"/>
<path d="M33.75 5.625C19.0312 5.625 7.5 10.9781 7.5 17.8125V33.75C7.5 40.5844 19.0312 45.9375 33.75 45.9375C48.4688 45.9375 60 40.5844 60 33.75V17.8125C60 10.9781 48.4688 5.625 33.75 5.625ZM33.75 7.5C46.9594 7.5 58.125 12.1875 58.125 17.8125C58.125 23.4375 46.9594 28.125 33.75 28.125C20.5406 28.125 9.375 23.4375 9.375 17.8125C9.375 12.1875 20.5406 7.5 33.75 7.5Z" fill="#F8CF6D"/>
<path d="M46.875 3.75C46.6264 3.75 46.3879 3.84877 46.2121 4.02459C46.0363 4.2004 45.9375 4.43886 45.9375 4.6875V8.4375H40.3125V4.6875C40.3125 4.43886 40.2137 4.2004 40.0379 4.02459C39.8621 3.84877 39.6236 3.75 39.375 3.75C39.1264 3.75 38.8879 3.84877 38.7121 4.02459C38.5363 4.2004 38.4375 4.43886 38.4375 4.6875V15.9375C38.4375 16.1861 38.5363 16.4246 38.7121 16.6004C38.8879 16.7762 39.1264 16.875 39.375 16.875C39.6236 16.875 39.8621 16.7762 40.0379 16.6004C40.2137 16.4246 40.3125 16.1861 40.3125 15.9375V14.0625H45.9375V15.9375C45.9375 16.1861 46.0363 16.4246 46.2121 16.6004C46.3879 16.7762 46.6264 16.875 46.875 16.875C47.1236 16.875 47.3621 16.7762 47.5379 16.6004C47.7137 16.4246 47.8125 16.1861 47.8125 15.9375V4.6875C47.8125 4.43886 47.7137 4.2004 47.5379 4.02459C47.3621 3.84877 47.1236 3.75 46.875 3.75ZM40.3125 12.1875V10.3125H45.9375V12.1875H40.3125Z" fill="#2F79F0"/>
<path d="M28.125 15.0001C27.978 15.0018 27.8328 14.9664 27.7032 14.8969C27.2509 14.6751 26.7538 14.5598 26.25 14.5598C25.7463 14.5598 25.2492 14.6751 24.7969 14.8969C24.5784 14.9879 24.3335 14.9929 24.1115 14.9108C23.8895 14.8288 23.7067 14.6657 23.5999 14.4545C23.4931 14.2433 23.4701 13.9994 23.5357 13.772C23.6012 13.5445 23.7503 13.3502 23.9532 13.2282C24.6666 12.8724 25.4529 12.6873 26.25 12.6873C27.0472 12.6873 27.8335 12.8724 28.5469 13.2282C28.7338 13.3239 28.8831 13.4796 28.9709 13.6702C29.0588 13.8609 29.0801 14.0755 29.0315 14.2797C28.9829 14.4839 28.8671 14.6659 28.7028 14.7965C28.5384 14.9272 28.335 14.9988 28.125 15.0001ZM38.4375 24.3751C38.2905 24.3768 38.1453 24.3413 38.0157 24.2719C37.5634 24.0501 37.0663 23.9348 36.5625 23.9348C36.0588 23.9348 35.5617 24.0501 35.1094 24.2719C34.8909 24.3629 34.646 24.3679 34.424 24.2858C34.202 24.2038 34.0192 24.0407 33.9124 23.8295C33.8056 23.6183 33.7826 23.3744 33.8482 23.147C33.9137 22.9195 34.0628 22.7252 34.2657 22.6032C34.9791 22.2474 35.7654 22.0623 36.5625 22.0623C37.3597 22.0623 38.146 22.2474 38.8594 22.6032C39.0463 22.6989 39.1956 22.8546 39.2834 23.0452C39.3713 23.2359 39.3926 23.4505 39.344 23.6547C39.2954 23.8589 39.1796 24.0409 39.0153 24.1715C38.8509 24.3022 38.6475 24.3738 38.4375 24.3751Z" fill="#88B8F9"/>
<path d="M13.125 15C16.2316 15 18.75 12.4816 18.75 9.375C18.75 6.2684 16.2316 3.75 13.125 3.75C10.0184 3.75 7.5 6.2684 7.5 9.375C7.5 12.4816 10.0184 15 13.125 15Z" fill="#88B8F9"/>
<path d="M32.5782 20.8406C32.3736 20.3888 31.9982 20.0364 31.5344 19.8607C31.0705 19.6849 30.5559 19.7002 30.1032 19.9031L24.2063 22.5C24.2063 22.5 20.7376 17.8125 20.6438 17.7375C20.1477 17.2297 19.4779 16.9283 18.7688 16.8938H16.8751C16.7813 17.0906 15.5438 19.4906 13.1251 19.4906C10.7063 19.4906 9.37509 16.875 9.37509 16.875H7.50009C7.03474 16.8901 6.58043 17.0205 6.17791 17.2545C5.77539 17.4885 5.43725 17.8187 5.19384 18.2156L0.825088 25.1344C0.557866 25.5609 0.449018 26.0678 0.517562 26.5665C0.586106 27.0651 0.827684 27.5239 1.20009 27.8625L6.76884 32.9625C6.56259 38.55 6.56259 34.6875 6.56259 54.375C6.53524 54.8723 6.70655 55.3601 7.03884 55.731C7.37113 56.102 7.83718 56.3258 8.33446 56.3531C8.83174 56.3805 9.31952 56.2092 9.69049 55.8769C10.0615 55.5446 10.2852 55.0785 10.3126 54.5813C10.3126 54.5813 12.1876 37.5562 12.1876 37.5H14.0626C14.0626 37.5562 15.9376 54.5813 15.9376 54.5813C15.9649 55.0785 16.1887 55.5446 16.5597 55.8769C16.9307 56.2092 17.4184 56.3805 17.9157 56.3531C18.413 56.3258 18.879 56.102 19.2113 55.731C19.5436 55.3601 19.7149 54.8723 19.6876 54.375C19.6876 33.8531 19.8188 40.3125 19.0782 24.15L21.8907 26.9625C22.2182 27.3018 22.6491 27.5227 23.1157 27.5906C23.5823 27.6585 24.0583 27.5695 24.4688 27.3375L31.7813 23.2313C32.1874 23.003 32.4939 22.6317 32.6413 22.1898C32.7886 21.7478 32.7661 21.2669 32.5782 20.8406ZM7.02196 27.4687L5.82196 26.1656L7.15321 24.6L7.02196 27.4687Z" fill="#2F79F0"/>
<path d="M16.875 16.875C16.9142 18.9724 16.1876 21.0122 14.8313 22.6125C14.3272 22.2686 13.735 22.0766 13.125 22.0594C12.5151 22.0766 11.9229 22.2686 11.4188 22.6125C10.0625 21.0122 9.33588 18.9724 9.37504 16.875H16.875Z" fill="#FFFEFF"/>
<path d="M15 17.8125L14.0625 18.75L14.8312 22.6125C14.6266 22.8685 14.367 23.0752 14.0716 23.2172C13.7763 23.3592 13.4527 23.433 13.125 23.433C12.7973 23.433 12.4737 23.3592 12.1784 23.2172C11.883 23.0752 11.6234 22.8685 11.4188 22.6125L12.1875 18.75L11.25 17.8125V16.875H15V17.8125Z" fill="#EE7231"/>
<path d="M15 25.3125H17.8125V27.1875H15V25.3125Z" fill="#FFFEFF"/>
</svg>
