<svg width="60" height="60" viewBox="0 0 60 60" fill="none" xmlns="http://www.w3.org/2000/svg">
<path d="M1.875 42.1875H58.125V58.125H1.875V42.1875Z" fill="#57A4FF"/>
<path d="M19.6877 6.56261C20.3214 6.55815 20.946 6.71438 21.503 7.01672C22.06 7.31906 22.5313 7.75763 22.8728 8.29148C23.2144 8.82534 23.4151 9.43705 23.4562 10.0695C23.4972 10.7019 23.3774 11.3345 23.1077 11.908C22.8381 12.4816 22.4275 12.9774 21.9142 13.3492C21.401 13.7211 20.8019 13.9568 20.1729 14.0343C19.5439 14.1119 18.9055 14.0288 18.3173 13.7927C17.7292 13.5566 17.2104 13.1754 16.8095 12.6845C15.7865 13.571 14.4788 14.0601 13.1252 14.0626C11.9063 14.0644 10.7205 13.6659 9.75016 12.9282C9.46364 13.3136 9.08322 13.6192 8.64515 13.8159C8.20708 14.0125 7.72594 14.0938 7.24758 14.0519C6.76921 14.0099 6.30955 13.8462 5.91237 13.5763C5.5152 13.3064 5.19375 12.9393 4.97864 12.51C4.76353 12.0807 4.66192 11.6034 4.68351 11.1237C4.70509 10.644 4.84914 10.1778 5.10193 9.76951C5.35473 9.36123 5.70784 9.02448 6.12765 8.79134C6.54745 8.55819 7.01996 8.43642 7.50016 8.43761C7.50008 7.09195 7.98241 5.79085 8.85962 4.77041C9.73684 3.74998 10.9508 3.07783 12.2812 2.87594C13.6117 2.67405 14.9704 2.9558 16.1108 3.67006C17.2513 4.38432 18.0979 5.48376 18.497 6.76886C18.8805 6.63743 19.2824 6.56781 19.6877 6.56261Z" fill="#2488FF"/>
<path d="M54.375 14.7562V34.6875H24.375V14.7562L39.375 8.4375L54.375 14.7562Z" fill="#E0E0E2"/>
<path d="M39.375 8.4375L24.375 14.7562V15.6937L39.375 9.375L54.375 15.6937V14.7562L39.375 8.4375Z" fill="#898890"/>
<path d="M45 16.875H50.625V21.5625H45V16.875Z" fill="#2488FF"/>
<path d="M22.5 34.6875H56.25V38.4375H22.5V34.6875Z" fill="#57565C"/>
<path d="M28.125 16.875H33.75V21.5625H28.125V16.875Z" fill="#2488FF"/>
<path d="M33.75 16.875C33.75 17.4906 33.6288 18.1001 33.3932 18.6688C33.1576 19.2375 32.8123 19.7543 32.3771 20.1896C31.9418 20.6248 31.425 20.9701 30.8563 21.2057C30.2876 21.4413 29.6781 21.5625 29.0625 21.5625H28.125V16.875H33.75ZM50.625 16.875C50.625 17.4906 50.5038 18.1001 50.2682 18.6688C50.0326 19.2375 49.6873 19.7543 49.2521 20.1896C48.8168 20.6248 48.3 20.9701 47.7313 21.2057C47.1626 21.4413 46.5531 21.5625 45.9375 21.5625H45V16.875H50.625Z" fill="#57A4FF"/>
<path d="M57.1875 12.1875V15.9375L39.375 8.4375L21.5625 15.9375V12.1875L39.375 4.6875L57.1875 12.1875Z" fill="#FF9811"/>
<path d="M50.625 2.8125V9.375L50.6062 9.4125L45.9375 7.45312V2.8125H50.625Z" fill="#D8D7DA"/>
<path d="M39.375 23.4375C40.6182 23.4375 41.8105 23.9314 42.6896 24.8104C43.5686 25.6895 44.0625 26.8818 44.0625 28.125V34.6875H34.6875V28.125C34.6875 26.8818 35.1814 25.6895 36.0604 24.8104C36.9395 23.9314 38.1318 23.4375 39.375 23.4375Z" fill="#C0AB91"/>
<path d="M58.125 58.125H1.875V54.1875C5.8875 54.1875 5.8875 56.4375 9.90937 56.4375C13.9312 56.4375 13.9219 54.1875 17.9437 54.1875C21.9656 54.1875 21.9562 56.4375 25.9781 56.4375C30 56.4375 29.9906 54.1875 34.0125 54.1875C38.0344 54.1875 38.025 56.4375 42.0469 56.4375C46.0687 56.4375 46.0687 54.1875 50.0812 54.1875C54.0938 54.1875 54.1031 56.4375 58.125 56.4375V58.125Z" fill="#004FAC"/>
<path d="M50.0812 51.375C54.1031 51.375 54.1031 53.625 58.125 53.625V56.4375C54.1031 56.4375 54.1031 54.1875 50.0812 54.1875C46.0594 54.1875 46.0687 56.4375 42.0469 56.4375C38.025 56.4375 38.025 54.1875 34.0125 54.1875C30 54.1875 29.9906 56.4375 25.9781 56.4375C21.9656 56.4375 21.9562 54.1875 17.9437 54.1875C13.9312 54.1875 13.9219 56.4375 9.90937 56.4375C5.89687 56.4375 5.8875 54.1875 1.875 54.1875V51.375C5.8875 51.375 5.8875 53.625 9.90937 53.625C13.9312 53.625 13.9219 51.375 17.9437 51.375C21.9656 51.375 21.9562 53.625 25.9781 53.625C30 53.625 29.9906 51.375 34.0125 51.375C38.0344 51.375 38.025 53.625 42.0469 53.625C46.0687 53.625 46.0687 51.375 50.0812 51.375Z" fill="#006DF0"/>
<path d="M15 48.197C15.9274 47.7927 16.9324 47.5975 17.9437 47.6251C21.9562 47.6251 21.9562 49.8751 25.9781 49.8751C30 49.8751 29.9906 47.6251 34.0125 47.6251C38.0344 47.6251 38.025 49.8751 42.0469 49.8751C46.0687 49.8751 46.0687 47.6251 50.0812 47.6251C54.0938 47.6251 54.1031 49.8751 58.125 49.8751V53.6251C54.1031 53.6251 54.1031 51.3751 50.0812 51.3751C46.0594 51.3751 46.0687 53.6251 42.0469 53.6251C38.025 53.6251 38.025 51.3751 34.0125 51.3751C30 51.3751 29.9906 53.6251 25.9781 53.6251C21.9656 53.6251 21.9562 51.3751 17.9437 51.3751C13.9312 51.3751 13.9219 53.6251 9.90937 53.6251C5.89687 53.6251 5.8875 51.3751 1.875 51.3751V47.6251C3.19345 47.5876 4.49498 47.9292 5.625 48.6095C6.8925 49.4544 8.38619 49.8957 9.90937 49.8751C12.6094 49.8751 13.4906 48.8626 15 48.197Z" fill="#2488FF"/>
<path d="M2.8125 38.4375H57.1875V42.1875H2.8125V38.4375Z" fill="#009698"/>
<path d="M36.5625 29.0625H38.4375V30.9375H36.5625V29.0625Z" fill="#787680"/>
<path d="M17.3438 30.9375C16.4735 30.9375 15.6389 31.2832 15.0236 31.8986C14.4082 32.5139 14.0625 33.3485 14.0625 34.2188V40.3125H6.5625V34.2188C6.5625 33.8458 6.71066 33.4881 6.97438 33.2244C7.2381 32.9607 7.59579 32.8125 7.96875 32.8125C8.34171 32.8125 8.6994 32.9607 8.96312 33.2244C9.22684 33.4881 9.375 33.8458 9.375 34.2188V35.625H11.25V34.2188C11.25 33.3485 10.9043 32.5139 10.2889 31.8986C9.67359 31.2832 8.83899 30.9375 7.96875 30.9375C7.09851 30.9375 6.26391 31.2832 5.64856 31.8986C5.0332 32.5139 4.6875 33.3485 4.6875 34.2188V49.6875H6.5625V46.875H14.0625V49.6875H15.9375V34.2188C15.9375 33.8458 16.0857 33.4881 16.3494 33.2244C16.6131 32.9607 16.9708 32.8125 17.3438 32.8125C17.7167 32.8125 18.0744 32.9607 18.3381 33.2244C18.6018 33.4881 18.75 33.8458 18.75 34.2188V35.625H20.625V34.2188C20.625 33.3485 20.2793 32.5139 19.6639 31.8986C19.0486 31.2832 18.214 30.9375 17.3438 30.9375ZM6.5625 45V42.1875H14.0625V45H6.5625Z" fill="#E0E0E2"/>
</svg>
