<svg width="40" height="40" viewBox="0 0 40 40" fill="none" xmlns="http://www.w3.org/2000/svg">
<path d="M17.7929 21.2066L22.8728 13.1197V20.878H23.1369V12.6993L23.1478 12.6819H39.9999V11.8057H22.0734L16.6431 19.5934C17.0659 19.9955 17.5462 20.7792 17.7929 21.2066ZM2.41357 40.0003H40V37.5274H7.54059L15.9181 24.1912C15.7752 23.275 15.4054 22.4482 15.07 21.8496L2.41357 40.0003Z" fill="#127782"/>
<path d="M31.9197 16.9311C32.377 17.46 34.1854 17.46 34.6427 16.9311C34.8713 17.1955 35.4404 17.3324 36.0042 17.3324C36.0319 17.3324 36.0585 17.3185 36.0781 17.2938C36.0977 17.2691 36.1088 17.2356 36.1088 17.2007C36.1088 17.1657 36.0977 17.1322 36.0781 17.1075C36.0585 17.0828 36.0319 17.069 36.0042 17.069C35.1909 17.069 34.7472 16.8033 34.7472 16.6669C34.7472 16.6319 34.7362 16.5984 34.7166 16.5737C34.697 16.549 34.6704 16.5352 34.6427 16.5352C34.615 16.5352 34.5884 16.549 34.5688 16.5737C34.5492 16.5984 34.5381 16.6319 34.5381 16.6669C34.5381 16.8033 34.0945 17.069 33.2812 17.069C32.468 17.069 32.0242 16.8033 32.0242 16.6669C32.0242 16.6319 32.0132 16.5984 31.9936 16.5737C31.974 16.549 31.9474 16.5352 31.9197 16.5352C31.892 16.5352 31.8654 16.549 31.8458 16.5737C31.8262 16.5984 31.8151 16.6319 31.8151 16.6669C31.8151 16.8033 31.3715 17.069 30.5582 17.069C29.745 17.069 29.3012 16.8033 29.3012 16.6669C29.3012 16.6319 29.2902 16.5984 29.2706 16.5737C29.251 16.549 29.2244 16.5352 29.1967 16.5352C29.169 16.5352 29.1424 16.549 29.1228 16.5737C29.1032 16.5984 29.0922 16.6319 29.0922 16.6669C29.0922 16.8033 28.6485 17.069 27.8353 17.069C27.8075 17.069 27.7809 17.0828 27.7613 17.1075C27.7417 17.1322 27.7307 17.1657 27.7307 17.2007C27.7307 17.2356 27.7417 17.2691 27.7613 17.2938C27.7809 17.3185 27.8075 17.3324 27.8353 17.3324C28.3991 17.3324 28.9681 17.1955 29.1967 16.9311C29.6539 17.46 31.4623 17.46 31.9197 16.9311ZM27.8949 23.5225C27.8949 23.4316 27.8363 23.3578 27.7642 23.3578C26.9646 23.3578 26.5334 23.0959 26.5334 22.9887C26.5334 22.945 26.5196 22.9031 26.4951 22.8723C26.4706 22.8414 26.4374 22.824 26.4027 22.824C26.3681 22.824 26.3348 22.8414 26.3103 22.8723C26.2858 22.9031 26.2721 22.945 26.2721 22.9887C26.2721 23.0958 25.8407 23.3578 25.0412 23.3578C24.2417 23.3578 23.8104 23.0959 23.8104 22.9887C23.8104 22.945 23.7967 22.9031 23.7722 22.8723C23.7476 22.8414 23.7144 22.824 23.6797 22.824C23.6451 22.824 23.6119 22.8414 23.5873 22.8723C23.5628 22.9031 23.5491 22.945 23.5491 22.9887C23.5491 23.0958 23.1177 23.3578 22.3182 23.3578C21.5187 23.3578 21.0874 23.0959 21.0874 22.9887C21.0874 22.945 21.0737 22.9031 21.0492 22.8723C21.0247 22.8414 20.9914 22.824 20.9568 22.824C20.9221 22.824 20.8889 22.8414 20.8644 22.8723C20.8399 22.9031 20.8261 22.945 20.8261 22.9887C20.8261 23.0958 20.3947 23.3578 19.5952 23.3578C19.5606 23.3578 19.5273 23.3752 19.5028 23.4061C19.4783 23.4369 19.4645 23.4788 19.4645 23.5225C19.4645 23.5661 19.4783 23.608 19.5028 23.6389C19.5273 23.6698 19.5606 23.6871 19.5952 23.6871C20.1353 23.6871 20.7062 23.5637 20.9568 23.2988C21.2072 23.5638 21.7782 23.6871 22.3182 23.6871C22.8582 23.6871 23.4292 23.5637 23.6797 23.2988C23.9302 23.5638 24.5012 23.6871 25.0412 23.6871C25.5811 23.6871 26.1521 23.5637 26.4027 23.2988C26.6532 23.5638 27.2242 23.6871 27.7642 23.6871C27.8363 23.6871 27.8949 23.6135 27.8949 23.5225ZM29.3933 32.5706C29.8168 32.5706 30.4605 32.4838 30.7548 32.1959C31.0491 32.4838 31.6928 32.5706 32.1163 32.5706C32.5398 32.5706 33.1835 32.4838 33.4778 32.1959C33.7721 32.4838 34.4158 32.5706 34.8393 32.5706C35.2628 32.5706 35.9065 32.4838 36.2008 32.1959C36.495 32.4838 37.1388 32.5706 37.5623 32.5706C37.6039 32.5706 37.6438 32.5498 37.6732 32.5127C37.7026 32.4757 37.7191 32.4254 37.7191 32.373C37.7191 32.3206 37.7026 32.2704 37.6732 32.2333C37.6438 32.1963 37.6039 32.1755 37.5623 32.1755C36.7859 32.1755 36.3854 31.9301 36.3576 31.8392C36.3576 31.7302 36.2877 31.6382 36.2011 31.6382C36.1208 31.6382 36.0549 31.7113 36.0457 31.8089C36.0447 31.8172 36.0441 31.8259 36.0439 31.8346C36.0101 31.9337 35.6098 32.1755 34.8392 32.1755C34.0628 32.1755 33.6623 31.9301 33.6345 31.8392C33.6345 31.7302 33.5646 31.6382 33.478 31.6382C33.3977 31.6382 33.3318 31.7113 33.3226 31.8089C33.3216 31.8172 33.321 31.8259 33.3209 31.8346C33.287 31.9337 32.8867 32.1755 32.1161 32.1755C31.3397 32.1755 30.9392 31.9301 30.9114 31.8392C30.9114 31.7302 30.8416 31.6382 30.7549 31.6382C30.6746 31.6382 30.6087 31.7113 30.5995 31.8089C30.5985 31.8172 30.5979 31.8259 30.5978 31.8346C30.5639 31.9337 30.1636 32.1755 29.393 32.1755C29.3724 32.1755 29.3521 32.1806 29.333 32.1906C29.314 32.2005 29.2967 32.2151 29.2822 32.2335C29.2676 32.2518 29.2561 32.2736 29.2483 32.2976C29.2404 32.3216 29.2364 32.3473 29.2364 32.3732C29.2364 32.3992 29.2405 32.4249 29.2484 32.4488C29.2563 32.4728 29.2678 32.4945 29.2824 32.5129C29.297 32.5312 29.3143 32.5457 29.3333 32.5556C29.3524 32.5655 29.3728 32.5706 29.3933 32.5706ZM39.2791 23.6871C39.3137 23.6871 39.347 23.6698 39.3715 23.6389C39.396 23.608 39.4098 23.5661 39.4098 23.5225C39.4098 23.4788 39.396 23.4369 39.3715 23.4061C39.347 23.3752 39.3137 23.3578 39.2791 23.3578C38.4796 23.3578 38.0483 23.0959 38.0483 22.9887C38.0483 22.945 38.0345 22.9031 38.01 22.8723C37.9855 22.8414 37.9523 22.824 37.9176 22.824C37.883 22.824 37.8497 22.8414 37.8252 22.8723C37.8007 22.9031 37.787 22.945 37.787 22.9887C37.787 23.0958 37.3556 23.3578 36.5561 23.3578C35.7566 23.3578 35.3253 23.0959 35.3253 22.9887C35.3253 22.945 35.3116 22.9031 35.2871 22.8723C35.2626 22.8414 35.2293 22.824 35.1947 22.824C35.16 22.824 35.1268 22.8414 35.1023 22.8723C35.0777 22.9031 35.064 22.945 35.064 22.9887C35.064 23.0958 34.6326 23.3578 33.8331 23.3578C33.0336 23.3578 32.6023 23.0959 32.6023 22.9887C32.6023 22.945 32.5886 22.9031 32.5641 22.8723C32.5396 22.8414 32.5063 22.824 32.4717 22.824C32.437 22.824 32.4038 22.8414 32.3793 22.8723C32.3548 22.9031 32.341 22.945 32.341 22.9887C32.341 23.0958 31.9097 23.3578 31.1101 23.3578C31.0755 23.3578 31.0422 23.3752 31.0177 23.4061C30.9932 23.4369 30.9794 23.4788 30.9794 23.5225C30.9794 23.5661 30.9932 23.608 31.0177 23.6389C31.0422 23.6698 31.0755 23.6871 31.1101 23.6871C31.6502 23.6871 32.2211 23.5637 32.4717 23.2988C32.7221 23.5638 33.2932 23.6871 33.8331 23.6871C34.3731 23.6871 34.9441 23.5637 35.1947 23.2988C35.4451 23.5638 36.0161 23.6871 36.5561 23.6871C37.0961 23.6871 37.6671 23.5637 37.9176 23.2988C38.1681 23.5638 38.739 23.6871 39.2791 23.6871ZM13.1836 17.3428C13.8229 17.7727 14.849 18.5598 15.9087 19.7723C17.4986 21.5916 19.4906 24.7679 19.9533 29.5696L19.9541 29.5771L20.0574 29.5613L20.0579 29.5611L20.1617 29.5453C19.8538 26.3383 18.8754 23.8442 17.7816 21.9851C17.2662 21.1106 16.684 20.3018 16.0433 19.5703C16.0073 19.5291 15.9713 19.489 15.9353 19.4489C14.8685 18.2553 13.8455 17.4838 13.2189 17.0688L13.1836 17.3428Z" fill="#127782"/>
<path d="M14.6809 19.5115C14.2156 18.8177 13.704 18.1754 13.1518 17.5914L13.1128 17.8946C13.6218 18.4443 14.0948 19.0449 14.5272 19.6903C14.6668 19.899 14.8021 20.1123 14.9328 20.3299C15.5824 21.4097 16.2571 22.8218 16.7607 24.5825C17.1831 26.0597 17.4851 27.7817 17.55 29.7586L17.7588 29.7478L17.7587 29.7449C17.5972 24.8366 15.996 21.4709 14.6809 19.5115ZM0.957382 15.2308L3.43564 18.0651L5.03773 19.8974L4.05849 27.2307C3.93879 28.1273 4.41864 28.9764 5.13046 29.1272C5.20385 29.1428 5.27671 29.1503 5.34874 29.1503C5.97515 29.1503 6.52849 28.5809 6.63596 27.7769L7.73364 19.5563C7.76996 19.2842 7.75142 19.0049 7.67972 18.7442C7.60802 18.4835 7.48547 18.2497 7.32332 18.0642L4.97668 15.3804L3.58043 13.7835C3.79557 13.0775 4.08003 12.3815 4.39345 11.7156L3.67587 7.67336C3.54635 6.94345 3.91235 6.2167 4.49171 6.05339C4.56918 6.03153 4.64863 6.02046 4.72766 6.02046C5.22695 6.02046 5.66853 6.46668 5.77757 7.08134L6.05063 8.61965L6.07018 8.58475C6.13358 8.48808 6.19237 8.38676 6.24623 8.2813L9.07188 12.0841L11.6687 12.4953L6.40346 5.40949C6.34437 5.32992 6.2758 5.26242 6.20023 5.20943C6.19521 5.20429 6.19103 5.1981 6.18591 5.1931C5.46018 4.48123 4.08097 4.37916 2.97952 5.87348C1.47476 7.93953 0.778721 9.44254 0.0849853 12.2555C-0.209298 13.8736 0.304208 14.7131 0.957382 15.2308Z" fill="#127782"/>
<path d="M8.89808 12.3613L8.86933 12.5854L10.3959 13.2689C10.5294 13.3281 10.6522 13.4201 10.7572 13.5395C10.8622 13.6589 10.9474 13.8034 11.0078 13.9646C11.0689 14.1253 11.1041 14.2997 11.1114 14.4777C11.1186 14.6557 11.0977 14.8337 11.05 15.0015C10.9753 15.2653 10.8377 15.4936 10.6561 15.6551C10.4745 15.8167 10.2577 15.9036 10.0354 15.9041C9.91255 15.9041 9.79118 15.8776 9.67482 15.8254L8.51964 15.3082L8.32666 16.8104L12.5002 17.8531L12.4803 18.0082L12.8452 18.0826L13.5045 12.9494L13.1395 12.875L13.1197 13.03L8.89808 12.3613Z" fill="#127782"/>
<path d="M9.75492 15.5404C9.84482 15.5808 9.93955 15.6015 10.035 15.6015C10.2077 15.6014 10.3762 15.534 10.5173 15.4085C10.6584 15.2829 10.7652 15.1055 10.823 14.9004C10.8973 14.6371 10.8855 14.3474 10.7902 14.0951C10.695 13.8427 10.5241 13.6484 10.3151 13.5548L6.36611 11.7867L5.54264 7.14738C5.49305 6.87617 5.36032 6.64069 5.17341 6.49233C4.98651 6.34398 4.7606 6.29481 4.54502 6.35554C4.32943 6.41628 4.14167 6.58199 4.02272 6.81651C3.90378 7.05103 3.8633 7.3353 3.91012 7.60729L4.83448 12.8145C4.86536 12.9884 4.93074 13.1496 5.02451 13.283C5.11829 13.4164 5.23739 13.5177 5.37067 13.5773L9.75492 15.5404ZM24.6445 30.1705L24.6617 29.8683C23.9709 29.8068 23.4974 30.0644 23.0394 30.3142C22.7348 30.4803 22.4471 30.6372 22.1002 30.7014C21.9665 30.7262 21.8199 30.7569 21.6646 30.7893C20.8079 30.9683 19.6344 31.2136 18.9493 30.7823C18.4817 30.4878 18.0548 30.437 17.5028 30.3973L17.4891 30.6998C18.0121 30.7372 18.4153 30.7847 18.8418 31.0532C19.1618 31.2549 19.565 31.325 19.9911 31.325C20.5701 31.325 21.1915 31.1952 21.7038 31.0881C21.8577 31.056 22.0027 31.0256 22.135 31.0011C22.5132 30.931 22.8293 30.7586 23.1347 30.5921C23.5863 30.346 24.0126 30.1134 24.6445 30.1705ZM16.4141 29.4681L16.3592 29.1734C15.7842 29.3433 15.1002 29.624 15.1066 29.996C15.1104 30.2186 15.3048 30.3598 15.757 30.4678C16.0571 30.5394 16.3597 30.5933 16.6638 30.6294L16.6866 30.3279C16.3899 30.2927 16.0946 30.2401 15.8017 30.1703C15.4739 30.0919 15.3782 30.0142 15.3526 29.9853C15.4245 29.8542 15.9055 29.6186 16.4141 29.4681ZM27.6425 29.4833L27.6059 29.2911C26.6118 29.5917 25.7698 29.3142 24.5636 28.6967C24.1549 28.4876 23.6423 28.4081 23.0415 28.4609L23.0524 28.6579C23.6297 28.6075 24.1183 28.6821 24.5047 28.88C25.397 29.3366 26.0964 29.6113 26.8056 29.6113C27.0793 29.6113 27.3544 29.5703 27.6425 29.4833ZM21.3912 29.0811C21.3959 29.079 21.8681 28.8702 22.4869 28.7423L22.4615 28.5474C21.8281 28.6784 21.3585 28.8861 21.3388 28.895L21.3912 29.0811ZM17.9735 32.0664C18.1567 32.2895 18.4932 32.3681 18.9101 32.3681C19.4175 32.3681 20.044 32.2517 20.659 32.1375C21.2913 32.0199 21.8884 31.9093 22.1516 31.9808C22.3577 32.0368 22.6438 32.0108 22.9751 31.9807C23.2717 31.9537 23.6079 31.9225 23.9633 31.9418L23.9734 31.639C23.6044 31.6199 23.2609 31.6509 22.9579 31.6785C22.6449 31.7071 22.3747 31.7316 22.2025 31.6847C21.8966 31.6015 21.3068 31.7111 20.624 31.8379C19.6605 32.0168 18.4616 32.2397 18.1407 31.8486C17.5171 31.0893 16.2257 31.1299 16.1718 31.1324L16.1791 31.4352C16.1916 31.4349 17.4231 31.3962 17.9735 32.0664ZM24.793 27.8981C25.3198 27.8981 25.6711 27.7449 25.697 27.7332L25.6162 27.4479C25.6056 27.4525 24.5412 27.9164 23.3335 27.1555C22.0247 26.3311 20.513 27.347 20.4492 27.3908L20.5641 27.6569C20.5785 27.6469 22.0283 26.6721 23.226 27.4263C23.8111 27.7951 24.361 27.8981 24.793 27.8981Z" fill="#127782"/>
<path d="M19.7752 30.1845C19.8013 30.1867 20.0776 30.2091 20.4481 30.2091C20.9497 30.2091 21.6239 30.168 22.0826 29.9802L22.0341 29.7924C21.2653 30.1071 19.8002 29.9886 19.7856 29.9874L19.7752 30.1845ZM12.5751 3.85737C12.7355 3.37678 11.938 2.49555 10.7937 1.88905C10.7546 1.86837 10.7158 1.84967 10.6769 1.83004C10.4407 1.1087 9.98747 0.534441 9.41625 0.232731C8.21905 -0.401954 6.83983 0.306485 6.33605 1.8149C5.83226 3.32357 6.39459 5.06089 7.59201 5.69557C8.69042 6.27784 9.94095 5.72955 10.5293 4.47059C10.3282 4.348 10.1323 4.21247 9.9422 4.06454C8.90484 3.25878 8.23201 2.25729 8.41328 1.80107C8.41987 2.29891 9.17142 3.07729 10.2125 3.62913C10.9983 4.04558 11.7431 4.22417 12.1848 4.13975C12.3864 4.10116 12.5248 4.00791 12.5751 3.85737Z" fill="#127782"/>
</svg>
