<svg width="40" height="40" viewBox="0 0 40 40" fill="none" xmlns="http://www.w3.org/2000/svg">
<g clip-path="url(#clip0_1351_3457)">
<path d="M6.25 8.125C6.25 7.62772 6.44754 7.15081 6.79917 6.79917C7.15081 6.44754 7.62772 6.25 8.125 6.25C8.62228 6.25 9.09919 6.44754 9.45083 6.79917C9.80246 7.15081 10 7.62772 10 8.125V15C10 15.1658 10.0658 15.3247 10.1831 15.4419C10.3003 15.5592 10.4592 15.625 10.625 15.625C10.7908 15.625 10.9497 15.5592 11.0669 15.4419C11.1842 15.3247 11.25 15.1658 11.25 15V8.125C11.25 7.2962 10.9208 6.50134 10.3347 5.91529C9.74866 5.32924 8.9538 5 8.125 5C7.2962 5 6.50134 5.32924 5.91529 5.91529C5.32924 6.50134 5 7.2962 5 8.125V18.75C5 18.9158 5.06585 19.0747 5.18306 19.1919C5.30027 19.3092 5.45924 19.375 5.625 19.375H21.25V21.25C21.25 21.4158 21.3158 21.5747 21.4331 21.6919C21.5503 21.8092 21.7092 21.875 21.875 21.875C22.0408 21.875 22.1997 21.8092 22.3169 21.6919C22.4342 21.5747 22.5 21.4158 22.5 21.25V8.125C22.5 6.30164 23.2243 4.55295 24.5136 3.26364C25.803 1.97433 27.5516 1.25 29.375 1.25C31.1984 1.25 32.947 1.97433 34.2364 3.26364C35.5257 4.55295 36.25 6.30164 36.25 8.125V18.75C36.25 18.9158 36.3158 19.0747 36.4331 19.1919C36.5503 19.3092 36.7092 19.375 36.875 19.375C37.0408 19.375 37.1997 19.3092 37.3169 19.1919C37.4342 19.0747 37.5 18.9158 37.5 18.75V8.125C37.5 5.97012 36.644 3.90349 35.1202 2.37976C33.5965 0.856024 31.5299 0 29.375 0C27.2201 0 25.1535 0.856024 23.6298 2.37976C22.106 3.90349 21.25 5.97012 21.25 8.125V18.125H6.25V8.125Z" fill="#32B4B4"/>
<path d="M15 8.125V15C15 15.1658 15.0658 15.3247 15.1831 15.4419C15.3003 15.5592 15.4592 15.625 15.625 15.625C15.7908 15.625 15.9497 15.5592 16.0669 15.4419C16.1842 15.3247 16.25 15.1658 16.25 15V8.125C16.25 5.97012 15.394 3.90349 13.8702 2.37976C12.3465 0.856024 10.2799 0 8.125 0C5.97012 0 3.90349 0.856024 2.37976 2.37976C0.856024 3.90349 0 5.97012 0 8.125L0 39.375C0 39.5408 0.065848 39.6997 0.183058 39.8169C0.300269 39.9342 0.45924 40 0.625 40C0.79076 40 0.949732 39.9342 1.06694 39.8169C1.18415 39.6997 1.25 39.5408 1.25 39.375V8.125C1.25 6.30164 1.97433 4.55295 3.26364 3.26364C4.55295 1.97433 6.30164 1.25 8.125 1.25C9.94836 1.25 11.697 1.97433 12.9864 3.26364C14.2757 4.55295 15 6.30164 15 8.125ZM31.875 19.375C32.0408 19.375 32.1997 19.3092 32.3169 19.1919C32.4342 19.0747 32.5 18.9158 32.5 18.75V8.125C32.5 7.2962 32.1708 6.50134 31.5847 5.91529C30.9987 5.32924 30.2038 5 29.375 5C28.5462 5 27.7513 5.32924 27.1653 5.91529C26.5792 6.50134 26.25 7.2962 26.25 8.125V21.25C26.25 21.4158 26.3158 21.5747 26.4331 21.6919C26.5503 21.8092 26.7092 21.875 26.875 21.875C27.0408 21.875 27.1997 21.8092 27.3169 21.6919C27.4342 21.5747 27.5 21.4158 27.5 21.25V8.125C27.5 7.62772 27.6975 7.15081 28.0492 6.79917C28.4008 6.44754 28.8777 6.25 29.375 6.25C29.8723 6.25 30.3492 6.44754 30.7008 6.79917C31.0525 7.15081 31.25 7.62772 31.25 8.125V18.75C31.25 18.9158 31.3158 19.0747 31.4331 19.1919C31.5503 19.3092 31.7092 19.375 31.875 19.375Z" fill="#32B4B4"/>
<path d="M21.875 24.375C22.0408 24.375 22.1997 24.3092 22.3169 24.1919C22.4342 24.0747 22.5 23.9158 22.5 23.75C22.5 23.5842 22.4342 23.4253 22.3169 23.3081C22.1997 23.1908 22.0408 23.125 21.875 23.125H5.625C5.45924 23.125 5.30027 23.1908 5.18306 23.3081C5.06585 23.4253 5 23.5842 5 23.75V31.875C5 32.0408 5.06585 32.1997 5.18306 32.3169C5.30027 32.4342 5.45924 32.5 5.625 32.5C5.79076 32.5 5.94973 32.4342 6.06694 32.3169C6.18415 32.1997 6.25 32.0408 6.25 31.875V30H19.375C19.5408 30 19.6997 29.9342 19.8169 29.8169C19.9342 29.6997 20 29.5408 20 29.375C20 29.2092 19.9342 29.0503 19.8169 28.9331C19.6997 28.8158 19.5408 28.75 19.375 28.75H6.25V24.375H21.875ZM21.875 33.75H5.625C5.45924 33.75 5.30027 33.8158 5.18306 33.9331C5.06585 34.0503 5 34.2092 5 34.375V39.375C5 39.5408 5.06585 39.6997 5.18306 39.8169C5.30027 39.9342 5.45924 40 5.625 40C5.79076 40 5.94973 39.9342 6.06694 39.8169C6.18415 39.6997 6.25 39.5408 6.25 39.375V35H21.875C22.0408 35 22.1997 34.9342 22.3169 34.8169C22.4342 34.6997 22.5 34.5408 22.5 34.375C22.5 34.2092 22.4342 34.0503 22.3169 33.9331C22.1997 33.8158 22.0408 33.75 21.875 33.75ZM30.625 27.5C30.0069 27.5 29.4027 27.6833 28.8888 28.0267C28.3749 28.37 27.9744 28.8581 27.7379 29.4291C27.5014 30.0001 27.4395 30.6285 27.56 31.2347C27.6806 31.8408 27.9783 32.3977 28.4153 32.8347C28.8523 33.2717 29.4092 33.5694 30.0153 33.69C30.6215 33.8105 31.2499 33.7486 31.8209 33.5121C32.3919 33.2756 32.88 32.8751 33.2233 32.3612C33.5667 31.8473 33.75 31.2431 33.75 30.625C33.749 29.7965 33.4194 29.0022 32.8336 28.4164C32.2478 27.8306 31.4535 27.501 30.625 27.5ZM30.625 32.5C30.2542 32.5 29.8916 32.39 29.5833 32.184C29.275 31.978 29.0346 31.6851 28.8927 31.3425C28.7508 30.9999 28.7137 30.6229 28.786 30.2592C28.8584 29.8955 29.037 29.5614 29.2992 29.2992C29.5614 29.037 29.8955 28.8584 30.2592 28.786C30.6229 28.7137 30.9999 28.7508 31.3425 28.8927C31.6851 29.0346 31.978 29.275 32.184 29.5833C32.39 29.8916 32.5 30.2542 32.5 30.625C32.5 31.1223 32.3025 31.5992 31.9508 31.9508C31.5992 32.3025 31.1223 32.5 30.625 32.5Z" fill="#32B4B4"/>
<path d="M39.4638 28.7563L38.3388 28.595C38.1238 28.5643 37.9206 28.4781 37.7491 28.345C37.5776 28.2119 37.4438 28.0364 37.3607 27.8359C37.2776 27.6353 37.2482 27.4165 37.2754 27.2012C37.3026 26.9858 37.3854 26.7812 37.5156 26.6075L38.1981 25.6963C38.2883 25.576 38.3321 25.4273 38.3215 25.2774C38.311 25.1275 38.2467 24.9864 38.1406 24.88L36.3725 23.1119C36.2661 23.0058 36.125 22.9415 35.9751 22.931C35.8252 22.9204 35.6765 22.9642 35.5563 23.0544L34.645 23.7369C34.4713 23.8671 34.2667 23.9499 34.0514 23.9771C33.836 24.0043 33.6172 23.9749 33.4166 23.8918C33.2161 23.8087 33.0406 23.6749 32.9075 23.5034C32.7744 23.3319 32.6882 23.1287 32.6575 22.9138L32.4963 21.7888C32.4754 21.639 32.4009 21.5019 32.2867 21.4028C32.1725 21.3038 32.0262 21.2495 31.875 21.25H29.375C29.2246 21.25 29.0792 21.3042 28.9656 21.4027C28.8519 21.5012 28.7776 21.6374 28.7563 21.7863L28.595 22.9113C28.5643 23.1262 28.4781 23.3294 28.345 23.5009C28.2119 23.6724 28.0364 23.8062 27.8359 23.8893C27.6353 23.9724 27.4165 24.0018 27.2012 23.9746C26.9858 23.9474 26.7812 23.8646 26.6075 23.7344L25.6963 23.0519C25.576 22.9617 25.4273 22.9179 25.2774 22.9285C25.1275 22.939 24.9864 23.0033 24.88 23.1094L23.1119 24.8775C23.0058 24.9839 22.9415 25.125 22.931 25.2749C22.9204 25.4248 22.9642 25.5735 23.0544 25.6938L23.7369 26.605C23.8671 26.7787 23.9499 26.9833 23.9771 27.1987C24.0043 27.414 23.9749 27.6328 23.8918 27.8334C23.8087 28.0339 23.6749 28.2094 23.5034 28.3425C23.3319 28.4756 23.1287 28.5618 22.9138 28.5925L21.7888 28.7538C21.639 28.7746 21.5019 28.8491 21.4028 28.9633C21.3038 29.0775 21.2495 29.2238 21.25 29.375V31.875C21.25 32.0254 21.3042 32.1708 21.4027 32.2844C21.5012 32.3981 21.6374 32.4724 21.7863 32.4938L22.9113 32.655C23.1262 32.6857 23.3294 32.7719 23.5009 32.905C23.6724 33.0381 23.8062 33.2136 23.8893 33.4141C23.9724 33.6147 24.0018 33.8335 23.9746 34.0489C23.9474 34.2642 23.8646 34.4688 23.7344 34.6425L23.0519 35.5538C22.9617 35.674 22.9179 35.8227 22.9285 35.9726C22.939 36.1225 23.0033 36.2636 23.1094 36.37L24.8775 38.1381C24.9839 38.2442 25.125 38.3085 25.2749 38.319C25.4248 38.3296 25.5735 38.2858 25.6938 38.1956L26.605 37.5131C26.7787 37.3829 26.9833 37.3001 27.1987 37.2729C27.414 37.2457 27.6328 37.2751 27.8334 37.3582C28.0339 37.4413 28.2094 37.5751 28.3425 37.7466C28.4756 37.9181 28.5618 38.1213 28.5925 38.3363L28.7538 39.4613C28.7746 39.611 28.8491 39.7481 28.9633 39.8472C29.0775 39.9462 29.2238 40.0005 29.375 40H31.875C32.0254 40 32.1708 39.9458 32.2844 39.8473C32.3981 39.7488 32.4724 39.6126 32.4938 39.4638L32.655 38.3388C32.6857 38.1238 32.7719 37.9206 32.905 37.7491C33.0381 37.5776 33.2136 37.4438 33.4141 37.3607C33.6147 37.2776 33.8335 37.2482 34.0489 37.2754C34.2642 37.3026 34.4688 37.3854 34.6425 37.5156L35.5538 38.1981C35.674 38.2883 35.8227 38.3321 35.9726 38.3215C36.1225 38.311 36.2636 38.2467 36.37 38.1406L38.1381 36.3725C38.2442 36.2661 38.3085 36.125 38.319 35.9751C38.3296 35.8252 38.2858 35.6765 38.1956 35.5563L37.5131 34.645C37.3829 34.4713 37.3001 34.2667 37.2729 34.0514C37.2457 33.836 37.2751 33.6172 37.3582 33.4166C37.4413 33.2161 37.5751 33.0406 37.7466 32.9075C37.9181 32.7744 38.1213 32.6882 38.3363 32.6575L39.4613 32.4963C39.611 32.4754 39.7481 32.4009 39.8472 32.2867C39.9462 32.1725 40.0005 32.0262 40 31.875V29.375C40 29.2246 39.9458 29.0792 39.8473 28.9656C39.7488 28.8519 39.6126 28.7776 39.4638 28.7563ZM38.75 31.3331L38.1594 31.4175C37.7297 31.479 37.3234 31.6513 36.9805 31.9175C36.6376 32.1837 36.3699 32.5345 36.2038 32.9356C36.0376 33.3366 35.9788 33.774 36.033 34.2047C36.0873 34.6354 36.2527 35.0445 36.5131 35.3919L36.8706 35.87L35.8706 36.87L35.3925 36.5125C35.0452 36.2521 34.636 36.0867 34.2053 36.0324C33.7747 35.9782 33.3373 36.037 32.9362 36.2031C32.5352 36.3692 32.1843 36.6369 31.9181 36.9798C31.6519 37.3227 31.4796 37.729 31.4181 38.1588L31.3331 38.75H29.9169L29.8325 38.1594C29.771 37.7297 29.5987 37.3234 29.3325 36.9805C29.0663 36.6376 28.7155 36.3699 28.3144 36.2038C27.9134 36.0376 27.476 35.9788 27.0453 36.033C26.6146 36.0873 26.2055 36.2527 25.8581 36.5131L25.38 36.8706L24.38 35.8706L24.7375 35.3925C24.9979 35.0452 25.1633 34.636 25.2176 34.2053C25.2718 33.7747 25.213 33.3373 25.0469 32.9362C24.8808 32.5352 24.6131 32.1843 24.2702 31.9181C23.9273 31.6519 23.521 31.4796 23.0913 31.4181L22.5 31.3331V29.9169L23.0906 29.8325C23.5203 29.771 23.9266 29.5987 24.2696 29.3325C24.6125 29.0663 24.8801 28.7155 25.0463 28.3144C25.2124 27.9134 25.2712 27.476 25.217 27.0453C25.1627 26.6146 24.9973 26.2055 24.7369 25.8581L24.3794 25.38L25.3794 24.38L25.8575 24.7375C26.2048 24.9979 26.614 25.1633 27.0447 25.2176C27.4754 25.2718 27.9127 25.213 28.3138 25.0469C28.7148 24.8808 29.0657 24.6131 29.3319 24.2702C29.5981 23.9273 29.7704 23.521 29.8319 23.0913L29.9169 22.5H31.3331L31.4175 23.0906C31.479 23.5203 31.6513 23.9266 31.9175 24.2696C32.1837 24.6125 32.5345 24.8801 32.9356 25.0463C33.3366 25.2124 33.774 25.2712 34.2047 25.217C34.6354 25.1627 35.0445 24.9973 35.3919 24.7369L35.87 24.3794L36.87 25.3794L36.5125 25.8575C36.2521 26.2048 36.0867 26.614 36.0324 27.0447C35.9782 27.4754 36.037 27.9127 36.2031 28.3138C36.3692 28.7148 36.6369 29.0657 36.9798 29.3319C37.3227 29.5981 37.729 29.7704 38.1588 29.8319L38.7494 29.9163L38.75 31.3331Z" fill="#32B4B4"/>
</g>
<defs>
<clipPath id="clip0_1351_3457">
<rect width="40" height="40" fill="white"/>
</clipPath>
</defs>
</svg>
