<svg width="60" height="60" viewBox="0 0 60 60" fill="none" xmlns="http://www.w3.org/2000/svg">
<g clip-path="url(#clip0_1393_2730)">
<path d="M50.8915 16.0408H9.17747L5.37451 35.3767H54.6945L50.8915 16.0408Z" fill="#60B8FE"/>
<path d="M9.17747 16.0408L5.37451 35.3767H10.5307L14.3337 16.0408H9.17747Z" fill="#23A8FE"/>
<mask id="mask0_1393_2730" style="mask-type:luminance" maskUnits="userSpaceOnUse" x="0" y="0" width="60" height="60">
<path d="M0 0.000175476H59.9998V60H0V0.000175476Z" fill="white"/>
</mask>
<g mask="url(#mask0_1393_2730)">
<path d="M6.05302 35.2007C5.99657 35.2007 5.94081 35.1882 5.88976 35.1641C5.8387 35.14 5.79363 35.1049 5.75777 35.0613C5.72191 35.0177 5.69616 34.9667 5.68237 34.912C5.66858 34.8572 5.6671 34.8001 5.67803 34.7447L9.26149 16.5248C9.2786 16.4379 9.32536 16.3596 9.39378 16.3034C9.4622 16.2471 9.54803 16.2164 9.63661 16.2164H29.1716C30.5085 14.803 32.0657 13.6158 33.7826 12.7008H7.87657C7.46925 12.7008 7.07457 12.8422 6.75998 13.101C6.44539 13.3597 6.23043 13.7196 6.15181 14.1193L1.72647 36.6192C1.51284 37.7047 2.34499 38.7163 3.45123 38.7163H52.6148L54.8716 35.2007H6.05302Z" fill="#6C7ED6"/>
<path d="M5.71084 36.6195L5.99127 35.1938C5.78267 35.1597 5.6356 34.9601 5.67803 34.745L9.26149 16.5251C9.2786 16.4381 9.32536 16.3599 9.39378 16.3036C9.4622 16.2474 9.54803 16.2166 9.63661 16.2166H9.72368L10.1362 14.1196C10.2148 13.7199 10.4297 13.3599 10.7443 13.1012C11.0588 12.8425 11.4535 12.701 11.8608 12.701H7.87646C7.46915 12.701 7.07449 12.8425 6.75992 13.1012C6.44535 13.3599 6.2304 13.7199 6.15181 14.1196L1.72647 36.6195C1.51284 37.705 2.34499 38.7166 3.45123 38.7166H7.4356C6.32935 38.7166 5.49721 37.705 5.71084 36.6195Z" fill="#4F67D2"/>
<path d="M51.8633 21.941L54.2868 34.7317L54.6366 34.1493C55.1364 33.317 56.2161 33.0474 57.0486 33.5474C57.5118 33.8257 57.8001 34.2838 57.879 34.7788L55.4462 21.941H51.8633Z" fill="#6C7ED6"/>
<path d="M51.9327 45.0109C51.7765 45.271 51.5556 45.4863 51.2915 45.6357C51.0275 45.7851 50.7292 45.8637 50.4258 45.8637H48.668V51.1604C48.668 52.1312 49.4549 52.9182 50.4258 52.9182C51.3966 52.9182 52.1836 52.1312 52.1836 51.1604V44.5932L51.9327 45.0109Z" fill="#BC7C63"/>
<path d="M30.915 45.8638V51.1604C30.915 52.1312 31.7021 52.9182 32.6728 52.9182C33.6436 52.9182 34.4307 52.1312 34.4307 51.1604V45.8638H30.915Z" fill="#BC7C63"/>
<path d="M51.9327 45.0109C51.7765 45.271 51.5556 45.4863 51.2915 45.6357C51.0275 45.7851 50.7292 45.8637 50.4258 45.8637H48.668V51.1604C48.668 52.1312 49.4549 52.9182 50.4258 52.9182C51.3966 52.9182 52.1836 52.1312 52.1836 51.1604V44.5932L51.9327 45.0109Z" fill="#BC7C63"/>
<path d="M30.915 45.8638V51.1604C30.915 52.1312 31.7021 52.9182 32.6728 52.9182C33.6436 52.9182 34.4307 52.1312 34.4307 51.1604V45.8638H30.915Z" fill="#AB6B51"/>
<path d="M41.73 10.5684C42.3232 10.5684 42.9093 10.5973 43.4878 10.6536V8.83962C43.4878 7.86873 42.7008 7.08182 41.73 7.08182C40.7592 7.08182 39.9722 7.86873 39.9722 8.83962V10.6536C40.5505 10.5973 41.1368 10.5684 41.73 10.5684Z" fill="#BC7C63"/>
<path d="M42.3159 8.83517C42.3159 8.31228 42.5145 7.83674 42.8384 7.47603C42.5255 7.22063 42.1339 7.08135 41.73 7.08182C40.7592 7.08182 39.9722 7.86885 39.9722 8.83962V10.6536C40.5505 10.5973 41.1368 10.5685 41.73 10.5685C41.9261 10.5685 42.1213 10.5728 42.3159 10.579V8.83517Z" fill="#AB6B51"/>
<path d="M39.9722 42.8169H43.4878V21.9409H39.9722V42.8169Z" fill="#BC7C63"/>
<path d="M39.9722 42.8169H42.2893V21.9409H39.9722V42.8169Z" fill="#AB6B51"/>
<path d="M58.3962 21.634C55.7583 15.0134 49.2908 10.3339 41.7295 10.3339C34.1682 10.3339 27.7006 15.0134 25.0629 21.634C24.9594 21.8935 25.1533 22.1753 25.4326 22.1753H31.652C33.188 15.393 37.1201 10.5683 41.7295 10.5683C46.3389 10.5683 50.2712 15.393 51.8069 22.1753H58.0264C58.3057 22.1753 58.4996 21.8935 58.3962 21.634Z" fill="#DFEBFA"/>
<path d="M39.8461 10.8422C40.0909 10.6641 40.3495 10.5057 40.6193 10.3683C33.5399 10.8009 27.571 15.3401 25.0634 21.6341C24.9599 21.8936 25.1538 22.1753 25.4331 22.1753H31.6525C32.9742 16.3387 36.0707 11.9521 39.8461 10.8422Z" fill="#B1DBFC"/>
<path d="M41.73 10.5684C43.5569 10.5684 45.1154 15.3931 45.7241 22.1753H51.8598C50.3622 15.2699 46.3923 10.334 41.73 10.334C37.0676 10.334 33.0977 15.2699 31.6001 22.1753H37.7358C38.3446 15.3931 39.903 10.5684 41.73 10.5684Z" fill="#FF656F"/>
<path d="M40.4453 10.4604C36.3488 11.2717 32.9579 15.9139 31.6001 22.1753H34.3998C35.4252 16.4126 37.6738 11.995 40.4453 10.4604Z" fill="#FF4756"/>
<path d="M41.7298 10.334C39.8818 10.334 38.3085 15.2699 37.7148 22.1753H45.7446C45.1511 15.2699 43.5777 10.334 41.7298 10.334Z" fill="#DFEBFA"/>
<path d="M50.4258 46.0981H30.831C29.8603 46.0981 29.0732 45.3111 29.0732 44.3403C29.0732 43.3696 29.8603 42.5825 30.831 42.5825H49.4311L54.6366 33.9149C55.1363 33.0826 56.2159 32.813 57.0485 33.3129C57.8808 33.8128 58.1502 34.8927 57.6504 35.7249L51.9327 45.2454C51.7765 45.5055 51.5556 45.7207 51.2915 45.8702C51.0275 46.0196 50.7292 46.0981 50.4258 46.0981Z" fill="#DFEBFA"/>
<path d="M37.7695 44.3403C37.7695 43.3696 38.5565 42.5825 39.5273 42.5825H30.831C29.8604 42.5825 29.0732 43.3696 29.0732 44.3403C29.0732 45.3111 29.8604 46.0981 30.831 46.0981H39.5273C38.5565 46.0981 37.7695 45.3111 37.7695 44.3403Z" fill="#B1DBFC"/>
</g>
</g>
<defs>
<clipPath id="clip0_1393_2730">
<rect width="60" height="60" fill="white"/>
</clipPath>
</defs>
</svg>
