<svg width="60" height="60" viewBox="0 0 60 60" fill="none" xmlns="http://www.w3.org/2000/svg">
<path d="M4.45898 42.2961V47.9064C5.35992 47.9064 5.67984 48.1642 6.65016 49.0548C7.83047 50.1379 9.61383 51.7736 12.8866 51.7736C16.1595 51.7736 17.9428 50.1369 19.1229 49.0548C20.0934 48.1642 20.4131 47.9064 21.3141 47.9064C22.215 47.9064 22.5349 48.1642 23.5055 49.0548C24.6858 50.1379 26.4691 51.7736 29.7422 51.7736C33.0152 51.7736 34.7986 50.1369 35.9789 49.0548C36.9495 48.1642 37.2694 47.9064 38.1705 47.9064C39.0717 47.9064 39.3916 48.1642 40.3624 49.0548C41.5425 50.1379 43.3263 51.7736 46.5991 51.7736C49.872 51.7736 51.6558 50.1369 52.8359 49.0548C53.8066 48.1642 54.1263 47.9064 55.0277 47.9064V42.2961H4.45898Z" fill="#4E87BB"/>
<path d="M52.2161 41.7846V25.2595H7.271V42.0424L52.2161 41.7846Z" fill="#FED557"/>
<path d="M45.2841 8.97266C43.4215 8.97477 41.6358 9.71562 40.3187 11.0327C39.0017 12.3497 38.2608 14.1354 38.2587 15.998V23.498H22.2725V15.998C22.2725 14.9895 22.6731 14.0223 23.3863 13.3091C24.0994 12.596 25.0666 12.1953 26.0752 12.1953C27.0837 12.1953 28.051 12.596 28.7641 13.3091C29.4773 14.0223 29.8779 14.9895 29.8779 15.998H33.1006C33.1006 14.1348 32.3604 12.3479 31.0429 11.0303C29.7254 9.71283 27.9384 8.97266 26.0752 8.97266C24.2119 8.97266 22.425 9.71283 21.1075 11.0303C19.79 12.3479 19.0498 14.1348 19.0498 15.998V35.8496H22.2725V26.7188H38.2587V35.8484H41.4814V15.9969C41.4814 14.9883 41.882 14.0211 42.5952 13.3079C43.3083 12.5948 44.2756 12.1941 45.2841 12.1941C46.2927 12.1941 47.2599 12.5948 47.973 13.3079C48.6862 14.0211 49.0868 14.9883 49.0868 15.9969H52.3095C52.3071 14.1345 51.5661 12.3491 50.2491 11.0323C48.932 9.71545 47.1465 8.97476 45.2841 8.97266Z" fill="#4E87BB"/>
<path d="M48.8093 36.9609C47.8385 37.8516 47.5188 38.1094 46.6174 38.1094C45.716 38.1094 45.3961 37.8516 44.4255 36.9609C43.2454 35.8779 41.4619 34.2422 38.1888 34.2422C34.9158 34.2422 33.1324 35.8788 31.9521 36.9609C30.9815 37.8516 30.6616 38.1094 29.7604 38.1094C28.8593 38.1094 28.5396 37.8516 27.5688 36.9609C26.3887 35.8779 24.6051 34.2422 21.3323 34.2422C18.0595 34.2422 16.2762 35.8788 15.0961 36.9609C14.1255 37.8516 13.8058 38.1094 12.9049 38.1094C12.004 38.1094 11.684 37.8516 10.7133 36.9609C9.53318 35.8779 7.74959 34.2422 4.47701 34.2422L4.44092 38.7558C8.57271 38.7937 8.97771 42.6211 13.1465 42.6211C17.3362 42.6211 17.3362 38.7539 21.5259 38.7539C25.7156 38.7539 25.7156 42.6211 29.9055 42.6211C34.0954 42.6211 34.0954 38.7539 38.2854 38.7539C42.4753 38.7539 42.4755 42.6211 46.6654 42.6211C50.8554 42.6211 50.8556 38.7539 55.0458 38.7539V34.2422C51.7736 34.2422 49.9894 35.8788 48.8093 36.9609Z" fill="#8DB9E2"/>
<path d="M46.6654 42.6211C42.4753 42.6211 42.4753 38.7539 38.2854 38.7539C34.0954 38.7539 34.0954 42.6211 29.9055 42.6211C25.7156 42.6211 25.7156 38.7539 21.5259 38.7539C17.3362 38.7539 17.3362 42.6211 13.1465 42.6211C8.97748 42.6211 8.57248 38.7935 4.44092 38.7558L4.47654 43.2656C5.37748 43.2656 5.6974 43.5234 6.66771 44.4141C7.84803 45.4971 9.63139 47.1328 12.9042 47.1328C16.177 47.1328 17.9604 45.4962 19.1404 44.4141C20.111 43.5234 20.4307 43.2656 21.3316 43.2656C22.2326 43.2656 22.5525 43.5234 23.523 44.4141C24.7033 45.4971 26.4867 47.1328 29.7597 47.1328C33.0328 47.1328 34.8162 45.4962 35.9965 44.4141C36.967 43.5234 37.2869 43.2656 38.1881 43.2656C39.0893 43.2656 39.4092 43.5234 40.38 44.4141C41.5601 45.4971 43.3439 47.1328 46.6167 47.1328C49.8895 47.1328 51.6733 45.4962 52.8534 44.4141C53.8242 43.5234 54.1439 43.2656 55.0453 43.2656V38.7539C50.8556 38.7539 50.8556 42.6211 46.6654 42.6211Z" fill="#6AA2DE"/>
</svg>
