<svg width="50" height="50" viewBox="0 0 50 50" fill="none" xmlns="http://www.w3.org/2000/svg">
<g clip-path="url(#clip0_511_1886)">
<path d="M47.4438 16.9148L44.5312 16.1867L42.9688 15.7961L41.4062 15.4055L39.8438 15.0148V13.093C42.725 12.6555 45.4055 11.4398 47.6289 9.53438L48.3539 8.91406C48.9039 8.44219 49.2188 7.75625 49.2188 7.03125C49.2188 6.30625 48.9039 5.62031 48.3531 5.14766L47.6289 4.52813C44.8102 2.1125 41.2133 0.78125 37.5 0.78125C33.7867 0.78125 30.1898 2.1125 27.3711 4.52813L26.6461 5.14844C26.0961 5.62031 25.7812 6.30625 25.7812 7.03125C25.7812 7.75625 26.0961 8.44219 26.6469 8.91484L27.3703 9.53438C28.6766 10.6539 30.143 11.5297 31.7117 12.1578L25.5102 19.8188C25.1156 19.6383 24.6805 19.5312 24.2188 19.5312C23.5391 19.5312 22.9141 19.7547 22.4008 20.125L19.4953 17.7047C20.0102 16.8711 20.3125 15.893 20.3125 14.8438C20.3125 11.8281 17.8586 9.375 14.8438 9.375C11.8289 9.375 9.375 11.8281 9.375 14.8438C9.375 16.3305 9.97266 17.6781 10.9391 18.6648L6.38281 24.6219C5.86797 24.3719 5.29766 24.2188 4.6875 24.2188C2.53359 24.2188 0.78125 25.9711 0.78125 28.125C0.78125 30.2789 2.53359 32.0312 4.6875 32.0312C6.84141 32.0312 8.59375 30.2789 8.59375 28.125C8.59375 27.1461 8.21875 26.2609 7.62187 25.5742L12.1789 19.6148C12.968 20.0578 13.8766 20.3125 14.8438 20.3125C16.2477 20.3125 17.5258 19.7758 18.4953 18.9031L21.4023 21.3258C21.2102 21.7305 21.0938 22.1789 21.0938 22.6562C21.0938 24.3797 22.4953 25.7812 24.2188 25.7812C25.9422 25.7812 27.3438 24.3797 27.3438 22.6562C27.3438 21.9609 27.1078 21.325 26.7227 20.8055L33.2883 12.6945C33.8992 12.8656 34.5234 12.9969 35.1562 13.093V18.1477C34.432 17.557 33.5203 17.1875 32.5141 17.1875C31.3867 17.1875 30.4688 18.1047 30.4688 19.2328C30.4688 19.5484 30.5438 19.8648 30.6844 20.1477L31.618 22.0156C31.8883 22.5555 32.0312 23.1594 32.0312 23.7633V27.2625C32.0312 28.4992 32.457 29.7133 33.2289 30.6789L34.9703 32.8555L33.5938 34.9195V47.6562H26.5625V35.0992C27.4578 34.8812 28.125 34.0727 28.125 33.1109C28.125 32.7953 28.05 32.4781 27.9094 32.1961L26.0484 28.4734C25.6992 27.7773 24.9977 27.3438 24.2188 27.3438C23.4398 27.3438 22.7383 27.7773 22.3891 28.4742L20.5281 32.1961C20.3875 32.4781 20.3125 32.7953 20.3125 33.1109C20.3125 34.0719 20.9797 34.8812 21.875 35.0992V47.6562H17.1875V29.6305C18.0828 29.4125 18.75 28.6039 18.75 27.6422C18.75 27.3266 18.675 27.0094 18.5344 26.7273L16.6734 23.0055C16.3242 22.3086 15.6234 21.875 14.8438 21.875C14.0641 21.875 13.3633 22.3086 13.0141 23.0055L11.1531 26.7273C11.0125 27.0094 10.9375 27.3266 10.9375 27.6422C10.9375 28.6031 11.6047 29.4125 12.5 29.6305V47.6562H7.03125V41.3492C7.92656 41.1312 8.59375 40.3227 8.59375 39.3609C8.59375 39.0453 8.51875 38.7281 8.37813 38.4461L6.51719 34.7234C6.16797 34.0273 5.46641 33.5938 4.6875 33.5938C3.90859 33.5938 3.20703 34.0273 2.85781 34.7242L0.996875 38.4461C0.85625 38.7281 0.78125 39.0453 0.78125 39.3609C0.78125 40.3219 1.44844 41.1312 2.34375 41.3492V47.6562H0.78125V49.2188H49.2188V47.6562H47.6562V34.9195L46.2797 32.8547L48.0211 30.6781C48.793 29.7125 49.2188 28.4992 49.2188 27.2625V19.1891C49.2188 18.1117 48.4883 17.1766 47.4438 16.9148ZM4.6875 30.4688C3.39531 30.4688 2.34375 29.4172 2.34375 28.125C2.34375 26.8328 3.39531 25.7812 4.6875 25.7812C5.97969 25.7812 7.03125 26.8328 7.03125 28.125C7.03125 29.4172 5.97969 30.4688 4.6875 30.4688ZM14.8438 18.75C12.6898 18.75 10.9375 16.9977 10.9375 14.8438C10.9375 12.6898 12.6898 10.9375 14.8438 10.9375C16.9977 10.9375 18.75 12.6898 18.75 14.8438C18.75 16.9977 16.9977 18.75 14.8438 18.75ZM24.2188 24.2188C23.357 24.2188 22.6562 23.518 22.6562 22.6562C22.6562 21.7945 23.357 21.0938 24.2188 21.0938C25.0805 21.0938 25.7812 21.7945 25.7812 22.6562C25.7812 23.518 25.0805 24.2188 24.2188 24.2188ZM35.1562 8.59375V10.1539C34.1922 9.42812 33.5938 8.27969 33.5938 7.03125C33.5938 4.87734 35.3461 3.125 37.5 3.125C39.6539 3.125 41.4062 4.87734 41.4062 7.03125C41.4062 8.27969 40.8078 9.42891 39.8438 10.1539V8.59375C39.8438 7.30156 38.7922 6.25 37.5 6.25C36.2078 6.25 35.1562 7.30156 35.1562 8.59375ZM47.3359 6.33437C47.5398 6.50937 47.6562 6.76328 47.6562 7.03125C47.6562 7.29922 47.5398 7.55312 47.3367 7.72734L46.6117 8.34766C44.9523 9.77109 43.0086 10.768 40.9141 11.2922C42.1828 10.2727 42.9688 8.71953 42.9688 7.03125C42.9688 5.31641 42.1734 3.78437 40.9344 2.78125C43.0133 3.30781 44.9625 4.30078 46.6133 5.71562L47.3359 6.33437ZM27.6641 7.72813C27.4602 7.55313 27.3438 7.29922 27.3438 7.03125C27.3438 6.76328 27.4602 6.50938 27.6633 6.33516L28.3875 5.71484C30.0375 4.3 31.9867 3.30781 34.0664 2.78125C32.8266 3.78437 32.0312 5.31562 32.0312 7.03125C32.0312 8.71953 32.8172 10.2727 34.0859 11.2922C31.9914 10.768 30.0477 9.77109 28.3875 8.34688L27.6641 7.72813ZM22.3578 33.5938C22.0914 33.5938 21.875 33.3773 21.875 33.1109C21.875 33.0359 21.8922 32.9617 21.9258 32.8953L23.7867 29.1742C23.9516 28.843 24.4859 28.8438 24.65 29.1734L26.5109 32.8953C26.5453 32.9609 26.5625 33.0359 26.5625 33.1109C26.5625 33.3773 26.3461 33.5938 26.0797 33.5938H25V47.6562H23.4375V33.5938H22.3578ZM12.9828 28.125C12.7164 28.125 12.5 27.9086 12.5 27.6422C12.5 27.5672 12.5172 27.493 12.5508 27.4266L14.4117 23.7055C14.5766 23.375 15.1109 23.3758 15.275 23.7055L17.1359 27.4273C17.1703 27.4922 17.1875 27.5672 17.1875 27.6422C17.1875 27.9086 16.9711 28.125 16.7047 28.125H15.625V47.6562H14.0625V28.125H12.9828ZM2.82656 39.8438C2.56016 39.8438 2.34375 39.6273 2.34375 39.3609C2.34375 39.2859 2.36094 39.2117 2.39453 39.1453L4.25547 35.4242C4.42031 35.093 4.95469 35.0938 5.11875 35.4234L6.97969 39.1453C7.01406 39.2109 7.03125 39.2859 7.03125 39.3609C7.03125 39.6273 6.81484 39.8438 6.54844 39.8438H5.46875V47.6562H3.90625V39.8438H2.82656ZM35.1562 47.6562V35.393L36.3555 33.5938H44.8945L46.0938 35.393V47.6562H35.1562ZM47.6562 27.2625C47.6562 28.1461 47.3523 29.0125 46.8 29.7023L44.9367 32.0312H36.3133L34.45 29.7023C33.8977 29.0125 33.5938 28.1453 33.5938 27.2625V23.7633C33.5938 22.918 33.3938 22.0727 33.0164 21.3172L32.0828 19.4492C32.0484 19.382 32.0312 19.307 32.0312 19.2328C32.0312 18.9664 32.2477 18.75 32.5141 18.75C33.9703 18.75 35.1562 19.9352 35.1562 21.3922V22.6562V25H36.7188V22.6562V21.3922V8.59375C36.7188 8.16328 37.0687 7.8125 37.5 7.8125C37.9313 7.8125 38.2812 8.16328 38.2812 8.59375V14.6242V25H39.8438V16.6258L41.4062 17.0164V25H42.9688V17.407L44.5312 17.7977V25H46.0938V18.1883L47.0641 18.4312C47.4125 18.518 47.6562 18.8297 47.6562 19.1891V27.2625Z" fill="#0181F5"/>
<path d="M14.8438 12.5C13.5516 12.5 12.5 13.5516 12.5 14.8438C12.5 16.1359 13.5516 17.1875 14.8438 17.1875C16.1359 17.1875 17.1875 16.1359 17.1875 14.8438C17.1875 13.5516 16.1359 12.5 14.8438 12.5ZM14.8438 15.625C14.4125 15.625 14.0625 15.2742 14.0625 14.8438C14.0625 14.4133 14.4125 14.0625 14.8438 14.0625C15.275 14.0625 15.625 14.4133 15.625 14.8438C15.625 15.2742 15.275 15.625 14.8438 15.625Z" fill="#0181F5"/>
</g>
<defs>
<clipPath id="clip0_511_1886">
<rect width="50" height="50" fill="white"/>
</clipPath>
</defs>
</svg>
