<svg width="60" height="60" viewBox="0 0 60 60" fill="none" xmlns="http://www.w3.org/2000/svg">
<path d="M10 25.4648H23C23.553 25.4648 24 25.0168 24 24.4648C24 23.9128 23.553 23.4648 23 23.4648H10C9.447 23.4648 9 23.9128 9 24.4648C9 25.0168 9.447 25.4648 10 25.4648Z" fill="#0181F5"/>
<path d="M36 29.4648H10C9.447 29.4648 9 29.9128 9 30.4648C9 31.0168 9.447 31.4648 10 31.4648H36C36.553 31.4648 37 31.0168 37 30.4648C37 29.9128 36.553 29.4648 36 29.4648Z" fill="#0181F5"/>
<path d="M36 35.4648H10C9.447 35.4648 9 35.9128 9 36.4648C9 37.0168 9.447 37.4648 10 37.4648H36C36.553 37.4648 37 37.0168 37 36.4648C37 35.9128 36.553 35.4648 36 35.4648Z" fill="#0181F5"/>
<path d="M54.072 2.53484L19.93 2.46484C16.66 2.46484 14 5.12484 14 8.39484V13.5188L5.93 13.5358C2.66 13.5358 0 16.1958 0 19.4658V40.6068C0 43.8768 2.66 46.5358 5.93 46.5358H12V56.5358C12 56.9488 12.254 57.3198 12.64 57.4688C12.757 57.5138 12.879 57.5358 13 57.5358C13.276 57.5358 13.547 57.4208 13.74 57.2088L23.444 46.5338L40.07 46.4658C43.34 46.4658 46 43.8058 46 40.5368V40.4238L51.26 46.2098C51.453 46.4218 51.724 46.5368 52 46.5368C52.121 46.5368 52.243 46.5148 52.36 46.4698C52.746 46.3208 53 45.9498 53 45.5368V35.5368H54.07C57.34 35.5368 60 32.8768 60 29.6078V8.46484C60 5.19584 57.341 2.53584 54.072 2.53484ZM44 40.5358C44 42.7028 42.237 44.4648 40.066 44.4648L22.996 44.5348C22.716 44.5358 22.448 44.6548 22.26 44.8618L14 53.9488V45.5348C14 44.9828 13.553 44.5348 13 44.5348H5.93C3.763 44.5348 2 42.7718 2 40.6058V19.4648C2 17.2978 3.763 15.5348 5.932 15.5348L15 15.5158C15.001 15.5158 15.001 15.5158 15.002 15.5158L40.07 15.4638C42.237 15.4638 44 17.2268 44 19.3938V37.8348V40.5358ZM58 29.6058C58 31.7728 56.237 33.5348 54.07 33.5348H52C51.447 33.5348 51 33.9828 51 34.5348V42.9488L46 37.4488V19.3948C46 16.1248 43.34 13.4648 40.068 13.4648L16 13.5138V8.39384C16 6.22684 17.763 4.46384 19.928 4.46384L54.069 4.53384C54.07 4.53384 54.07 4.53384 54.071 4.53384C56.238 4.53384 58.001 6.29684 58.001 8.46384L58 29.6058Z" fill="#0181F5"/>
</svg>
