<svg width="60" height="60" viewBox="0 0 60 60" fill="none" xmlns="http://www.w3.org/2000/svg">
<g clip-path="url(#clip0_511_468)">
<path d="M42.0575 34.6889C39.316 34.6535 36.5923 33.9599 34.1811 32.6833C34.1746 32.6799 34.1614 32.6752 34.1478 32.6815C32.9107 33.2659 30.5255 34.2055 28.4506 33.9312C27.9368 33.8634 27.4988 33.5218 27.3075 33.0399C27.1167 32.5594 27.2007 32.0121 27.5269 31.6117C27.9917 31.0409 28.6724 30.0972 29.276 28.8433C29.2801 28.8349 29.2766 28.8174 29.2638 28.8028C26.497 25.6606 24.9616 21.6232 24.9405 17.4341C24.9204 13.4326 26.3014 9.51821 28.8294 6.4124C29.1358 6.03591 29.6895 5.97907 30.0661 6.28546C30.4426 6.59198 30.4995 7.14569 30.1931 7.52218C27.9217 10.3129 26.6806 13.8299 26.6987 17.4252C26.7177 21.1895 28.0973 24.8174 30.5834 27.6407C31.0636 28.1861 31.1723 28.9573 30.8604 29.6057C30.3354 30.6962 29.7568 31.5799 29.2788 32.2225C30.8512 32.208 32.6399 31.4493 33.3969 31.0918C33.905 30.8517 34.5058 30.8656 35.0039 31.1294C37.2006 32.2925 39.5814 32.8986 42.0804 32.9308C46.1856 32.9848 50.1072 31.3977 53.1189 28.4645C56.1309 25.5311 57.8185 21.6546 57.8711 17.5493C57.9249 13.3455 56.3291 9.38389 53.3779 6.39471C50.4258 3.40482 46.4864 1.7582 42.2854 1.7582C38.9163 1.7582 35.7073 2.82051 33.005 4.83014C32.6156 5.11989 32.0647 5.03901 31.775 4.64939C31.4852 4.25978 31.5662 3.70911 31.9557 3.41936C34.9636 1.18233 38.5355 0 42.2854 0C46.9603 0 51.344 1.8324 54.6288 5.15951C57.913 8.48603 59.6888 12.8941 59.6289 17.5718C59.5704 22.147 57.6939 26.4628 54.3453 29.7241C51.0514 32.932 46.7749 34.6904 42.2798 34.6903C42.206 34.6903 42.1315 34.6898 42.0575 34.6889Z" fill="white"/>
<path d="M36.8687 17.3375C36.8687 19.0506 35.4749 20.4444 33.7617 20.4444C32.0485 20.4444 30.6547 19.0506 30.6547 17.3375C30.6547 15.6243 32.0485 14.2305 33.7617 14.2305C35.4749 14.2305 36.8687 15.6243 36.8687 17.3375ZM32.413 17.3375C32.413 18.0812 33.0181 18.6862 33.7618 18.6862C34.5055 18.6862 35.1106 18.0812 35.1106 17.3375C35.1106 16.5937 34.5055 15.9887 33.7618 15.9887C33.0181 15.9887 32.413 16.5937 32.413 17.3375Z" fill="white"/>
<path d="M45.3921 17.3375C45.3921 19.0506 43.9983 20.4444 42.2851 20.4444C40.5719 20.4444 39.1781 19.0506 39.1781 17.3375C39.1781 15.6243 40.5719 14.2305 42.2851 14.2305C43.9983 14.2305 45.3921 15.6243 45.3921 17.3375ZM40.9363 17.3375C40.9363 18.0812 41.5414 18.6862 42.2851 18.6862C43.0288 18.6862 43.6339 18.0812 43.6339 17.3375C43.6339 16.5937 43.0288 15.9887 42.2851 15.9887C41.5414 15.9887 40.9363 16.5937 40.9363 17.3375Z" fill="white"/>
<path d="M53.916 17.3375C53.916 19.0506 52.5222 20.4444 50.809 20.4444C49.0958 20.4444 47.7021 19.0506 47.7021 17.3375C47.7021 15.6243 49.0958 14.2305 50.809 14.2305C52.5222 14.2305 53.916 15.6243 53.916 17.3375ZM49.4603 17.3375C49.4603 18.0812 50.0653 18.6862 50.809 18.6862C51.5528 18.6862 52.1578 18.0812 52.1578 17.3375C52.1578 16.5937 51.5528 15.9887 50.809 15.9887C50.0653 15.9887 49.4603 16.5937 49.4603 17.3375Z" fill="white"/>
<path d="M1.15588 19.6926C1.63774 19.6419 2.07155 19.9915 2.12265 20.4743C2.32063 22.3457 2.74846 24.3853 3.39419 26.5359C5.92237 34.9561 9.85817 42.0407 15.0923 47.5934C16.5543 49.1444 18.1756 50.6318 19.8386 51.9521C20.4189 52.4129 21.0103 52.8595 21.612 53.2918C22.8538 54.1841 24.1391 55.0158 25.4605 55.7851C28.856 57.7622 32.6684 58.6196 35.6591 58.0783C36.1467 57.9901 36.6162 57.8805 37.0697 57.751C35.1081 56.2853 33.3786 54.7948 31.4808 53.0823C29.3197 51.1311 27.4279 49.3232 25.6972 47.5555C25.6949 47.553 25.6929 47.5503 25.6906 47.5478C25.688 47.5451 25.6852 47.5428 25.6826 47.5401L24.6615 46.4458C18.2779 40.3233 13.5241 32.971 10.5302 24.5876C10.5302 24.5876 9.97878 23.0142 9.97761 23.0107C8.38268 18.3968 6.91751 13.5012 5.6148 8.4387C4.53069 9.56606 3.66014 10.9041 3.01992 12.4333C2.60757 13.4183 2.31594 14.5114 2.15278 15.6825C2.08585 16.1634 1.64196 16.4989 1.1608 16.432C0.679874 16.3649 0.344406 15.9209 0.411335 15.44C0.59536 14.1191 0.927311 12.8791 1.39804 11.7546C1.51443 11.4763 1.63868 11.2014 1.77078 10.9302C2.95159 8.50634 4.71788 6.70898 6.85855 5.12918C8.97262 3.56907 11.7712 2.37056 14.3544 3.50307C15.1976 3.87288 15.9176 4.46294 16.4916 5.25319C16.8488 5.73939 17.1458 6.30295 17.3735 6.92618C17.4251 7.06625 19.1572 12.5495 19.8077 15.2553C20.3147 17.366 19.8958 18.9079 18.49 20.1074C18.0836 20.4544 17.5994 20.7685 17.0097 21.0675C15.7658 21.6985 14.4674 22.2325 13.17 22.7553L12.6364 22.9705C12.6306 22.9728 11.9214 23.2416 11.9214 23.2416L12.1875 24.001C15.09 32.1279 19.702 39.2581 25.8957 45.1934C25.9075 45.2047 25.919 45.2163 25.9303 45.2283L26.3624 45.6915C26.3624 45.6915 27.2811 44.787 27.2813 44.7871C27.357 44.7059 29.1963 42.7301 30.1851 41.9527C32.5362 40.1042 34.5257 40.0608 36.8373 41.808C38.8437 43.3244 41.4403 45.3599 43.7297 47.6608C46.3274 50.2713 46.2926 53.0118 43.6262 55.8061C42.7002 56.7765 41.6505 57.584 40.4868 58.229C40.488 58.2301 40.489 58.2314 40.4901 58.2324C40.1001 58.4492 39.6977 58.6469 39.2837 58.8252C39.2667 58.8326 39.2492 58.8382 39.232 58.8444C38.2189 59.2765 37.1312 59.5987 35.9721 59.8084C35.2634 59.9366 34.5245 59.9997 33.7646 59.9997C30.8354 59.9997 27.5947 59.0622 24.5756 57.3045C23.195 56.5006 21.8524 55.631 20.5555 54.6978C19.9024 54.2277 19.2609 53.7415 18.6323 53.2392C14.388 49.8483 10.719 45.6007 7.85428 40.972C7.25579 40.005 6.69059 39.0173 6.15902 38.0119C4.31104 34.5171 2.84645 30.8259 1.71006 27.0413C1.03292 24.7863 0.583405 22.6389 0.373943 20.659C0.323074 20.1765 0.672955 19.7437 1.15588 19.6926ZM11.9858 21.3333C13.1289 20.8873 14.24 20.4335 15.3484 19.918C16.0426 19.5952 16.7623 19.2704 17.3487 18.77C18.2299 18.0181 18.4471 17.1187 18.0983 15.6662C17.4834 13.1093 15.8174 7.81618 15.7201 7.5242C15.5491 7.05828 15.3319 6.6444 15.0718 6.2903C14.6809 5.75205 14.202 5.3561 13.6483 5.11324C11.3821 4.11973 8.854 5.75709 7.11584 7.08782C7.10704 7.09462 7.09814 7.1013 7.08934 7.1081C8.35725 12.1289 9.7869 16.9896 11.3457 21.5794C11.5553 21.4999 11.7729 21.4164 11.9858 21.3333ZM39.6924 56.661C39.6927 56.6632 39.6931 56.6653 39.6934 56.6675C40.6742 56.1158 41.558 55.4271 42.3543 54.5925C44.3684 52.4817 44.4058 50.8328 42.4836 48.9011C40.2845 46.691 37.8596 44.7844 35.7775 43.2108C34.1202 41.9583 32.9834 41.9896 31.272 43.3351C30.3905 44.0282 27.5805 46.9604 27.5805 46.9604C29.1148 48.5013 30.7835 50.0839 32.6589 51.7771C34.8087 53.717 36.734 55.3634 39.0323 57.0084C39.2572 56.9003 39.4762 56.7829 39.6924 56.661Z" fill="white"/>
</g>
<defs>
<clipPath id="clip0_511_468">
<rect width="60" height="60" fill="white" transform="matrix(-1 0 0 1 60 0)"/>
</clipPath>
</defs>
</svg>
