<svg width="155" height="40" viewBox="0 0 155 40" fill="none" xmlns="http://www.w3.org/2000/svg">
<path d="M5.43449 25.2115V19.1542H14.2927C15.452 19.1542 16.5027 18.9177 17.4447 18.4447C18.3866 17.9718 19.1294 17.2988 19.6728 16.4256C20.2163 15.5161 20.488 14.4247 20.488 13.1514C20.488 11.9145 20.2163 10.8413 19.6728 9.93179C19.1294 9.02226 18.3866 8.33109 17.4447 7.85812C16.5027 7.38517 15.452 7.14871 14.2927 7.14871H5.43449V1.09141H15.0535C17.481 1.09141 19.6547 1.58254 21.5749 2.5648C23.5313 3.54707 25.0711 4.9477 26.1942 6.76671C27.3174 8.54937 27.8789 10.6776 27.8789 13.1514C27.8789 15.6253 27.3174 17.7717 26.1942 19.5907C25.0711 21.3734 23.5313 22.7558 21.5749 23.7381C19.6547 24.7203 17.481 25.2115 15.0535 25.2115H5.43449ZM0 39.4543V1.09141H7.3909V39.4543H0ZM84.8433 39.4543V0H91.9625V39.4543H84.8433ZM109.248 40C106.856 40 104.7 39.3997 102.781 38.1992C100.861 36.9986 99.3568 35.3615 98.2699 33.2879C97.183 31.2142 96.6396 28.8858 96.6396 26.3029C96.6396 23.6835 97.183 21.337 98.2699 19.2633C99.3568 17.1896 100.861 15.5525 102.781 14.352C104.7 13.1514 106.856 12.5512 109.248 12.5512C111.132 12.5512 112.817 12.9332 114.302 13.6971C115.787 14.4611 116.965 15.5344 117.834 16.9168C118.74 18.2629 119.229 19.7908 119.301 21.5007V30.9959C119.229 32.7422 118.74 34.2883 117.834 35.6344C116.965 36.9805 115.787 38.0536 114.302 38.854C112.817 39.618 111.132 40 109.248 40ZM110.552 33.397C112.545 33.397 114.156 32.7422 115.389 31.4325C116.621 30.0864 117.236 28.3584 117.236 26.2483C117.236 24.8659 116.947 23.6471 116.367 22.5921C115.823 21.5007 115.045 20.664 114.03 20.0819C113.052 19.4634 111.893 19.1542 110.552 19.1542C109.248 19.1542 108.089 19.4634 107.074 20.0819C106.096 20.664 105.317 21.5007 104.737 22.5921C104.194 23.6471 103.922 24.8659 103.922 26.2483C103.922 27.6671 104.194 28.9222 104.737 30.0136C105.317 31.0686 106.096 31.9054 107.074 32.5239C108.089 33.106 109.248 33.397 110.552 33.397ZM116.856 39.4543V32.3602L117.997 25.9209L116.856 19.5907V13.0969H123.921V39.4543H116.856ZM146.631 39.4543L139.729 28.7585L138.262 27.6671L128.045 13.0969H136.468L142.827 22.7558L144.185 23.7926L155 39.4543H146.631ZM127.502 39.4543L138.207 24.3929L142.283 29.2497L135.545 39.4543H127.502ZM144.457 27.6126L140.273 22.8104L146.522 13.0969H154.511L144.457 27.6126Z" fill="white"/>
<path d="M63.8475 32.8492C61.9792 31.9237 60.3437 30.7261 58.9761 29.3494C57.5054 27.8625 56.3379 26.1672 55.5316 24.3615C55.5304 24.3529 55.5304 24.3455 55.5292 24.3369C55.528 24.3406 55.5268 24.3431 55.5244 24.3467C55.5231 24.3431 55.5219 24.3406 55.5196 24.3369C55.5183 24.3455 55.5183 24.3529 55.5171 24.3615C54.712 26.1672 53.5433 27.8625 52.0726 29.3494C50.705 30.7261 49.0695 31.9237 47.2012 32.8492C41.1391 35.8611 34.351 35.182 29.8638 31.6331C32.0316 36.2558 36.6897 39.4541 42.0861 39.4541C49.0465 39.4541 54.7788 34.1364 55.5244 27.2962C56.27 34.1351 62.0035 39.4541 68.9627 39.4541C74.359 39.4541 79.0172 36.257 81.1852 31.6331C76.699 35.1832 69.9096 35.8623 63.8475 32.8492Z" fill="#32B4B4"/>
<path d="M42.0874 11.8789C34.5147 11.8789 28.3545 18.1075 28.3545 25.7641C28.3545 26.5401 28.4211 27.3221 28.5534 28.0895L28.6042 28.3874L28.8601 28.2317C28.9352 28.1864 29.025 28.1337 29.1183 28.0945L29.2541 28.0503C30.4786 27.7108 32.0208 27.9461 33.626 28.2391L33.9425 28.2967L33.8612 27.9828C33.6709 27.2511 33.5751 26.5045 33.5751 25.7641C33.5751 21.0176 37.3942 17.1575 42.0874 17.1575C44.4879 17.1575 46.7891 18.1921 48.4004 19.9965L48.5398 20.1534L48.6925 20.0088C49.5474 19.1973 50.5839 18.7976 51.8631 18.7866H51.8958L51.9127 18.7804C51.9188 18.7804 51.9249 18.7804 51.9309 18.7804C52.017 18.7804 52.1176 18.7854 52.2256 18.7988L52.3953 18.8111C52.5019 18.8173 52.6111 18.8221 52.7068 18.8344C53.0633 18.8859 53.398 18.9655 53.6998 19.0722L54.2224 19.2548L53.9447 18.7719C51.4944 14.5194 46.9516 11.8789 42.0874 11.8789Z" fill="white"/>
<path d="M68.9641 11.8789C64.0987 11.8789 59.5558 14.5206 57.108 18.7719L56.8303 19.2548L57.3529 19.0722C57.6548 18.9655 57.9894 18.8859 58.341 18.8356C58.4417 18.8234 58.5508 18.8173 58.6623 18.8123L58.8368 18.7988C58.9254 18.7878 59.0151 18.7817 59.0987 18.7817C59.1133 18.7817 59.1278 18.7817 59.14 18.7817L59.1897 18.7878C60.4688 18.7988 61.5053 19.1985 62.3601 20.01L62.5128 20.1547L62.6535 19.9977C64.2648 18.1933 66.566 17.1587 68.9665 17.1587C73.6609 17.1587 77.4788 21.0201 77.4788 25.7653C77.4788 26.507 77.383 27.2535 77.1927 27.9841L77.1114 28.2979L77.4279 28.2403C79.0331 27.9474 80.5753 27.712 81.7917 28.0491L81.9352 28.0957C82.0286 28.1349 82.1186 28.1876 82.1942 28.2329L82.4498 28.3886L82.5007 28.0908C82.6323 27.3246 82.6994 26.5413 82.6994 25.7653C82.6969 18.1075 76.5368 11.8789 68.9641 11.8789Z" fill="white"/>
<path d="M81.5308 29.0406C78.4339 28.1813 71.6323 31.9509 67.2277 28.467C62.8388 24.9966 63.3832 19.8456 59.1798 19.81C59.1591 19.81 59.1361 19.8076 59.1155 19.8076C59.01 19.8076 58.9166 19.8198 58.8172 19.8272C58.0607 19.8272 57.4315 20.0638 56.9331 20.374C56.8895 20.3984 56.8483 20.423 56.8095 20.4475C56.7973 20.4549 56.7828 20.4647 56.767 20.4732C56.7282 20.4978 56.6992 20.5198 56.6676 20.5418C56.6398 20.5627 56.6094 20.5897 56.5767 20.6216C55.8759 21.1646 55.5195 21.7861 55.5195 21.7861C55.1848 21.2381 54.8212 20.8778 54.4732 20.6228C54.4405 20.5909 54.4102 20.5639 54.381 20.5418C54.3495 20.5198 54.3204 20.4978 54.2816 20.4732C54.2659 20.4634 54.2513 20.4549 54.2392 20.4475C54.0464 20.3273 53.7857 20.1925 53.4681 20.0773C53.462 20.0748 53.456 20.0724 53.4512 20.0699V20.0712C53.1953 19.9805 52.9031 19.9007 52.5709 19.8542C52.4642 19.8395 52.3454 19.8358 52.2315 19.8272C52.132 19.8198 52.0387 19.8076 51.9332 19.8076C51.9126 19.8076 51.8896 19.81 51.869 19.81C47.6655 19.8468 48.2099 24.9966 43.821 28.467C39.4163 31.9496 32.6147 28.1801 29.5183 29.0406C29.1582 29.1927 29.1012 29.4145 29.134 29.6438C29.3315 30.3278 29.5656 30.9959 29.8626 31.6272V31.6333C34.3497 35.1822 41.138 35.8612 47.2 32.8494C49.0683 31.9238 50.7039 30.7262 52.0714 29.3496C53.5457 27.8589 54.7169 26.1587 55.5219 24.3469C56.3281 26.1575 57.4981 27.8589 58.9724 29.3496C60.34 30.7262 61.9756 31.9238 63.8438 32.8494C69.9058 35.8612 76.6941 35.1822 81.181 31.6333V31.6272C81.4773 30.9947 81.7125 30.3265 81.9095 29.6438C81.9477 29.4145 81.8891 29.1927 81.5308 29.0406Z" fill="#64FFFF"/>
<path d="M36.1225 29.7407C36.4995 29.7407 36.8051 29.4317 36.8051 29.0505C36.8051 28.6694 36.4995 28.3604 36.1225 28.3604C35.7455 28.3604 35.4399 28.6694 35.4399 29.0505C35.4399 29.4317 35.7455 29.7407 36.1225 29.7407Z" fill="#32B4B4"/>
<path d="M37.7615 28.0157C38.2142 28.0157 38.5811 27.6447 38.5811 27.187C38.5811 26.7294 38.2142 26.3584 37.7615 26.3584C37.3088 26.3584 36.9419 26.7294 36.9419 27.187C36.9419 27.6447 37.3088 28.0157 37.7615 28.0157Z" fill="#32B4B4"/>
<path d="M35.1656 27.6701C35.4295 27.6701 35.6434 27.4538 35.6434 27.187C35.6434 26.9203 35.4295 26.7041 35.1656 26.7041C34.9018 26.7041 34.688 26.9203 34.688 27.187C34.688 27.4538 34.9018 27.6701 35.1656 27.6701Z" fill="#32B4B4"/>
<path d="M75.2503 29.7407C75.6272 29.7407 75.9328 29.4317 75.9328 29.0505C75.9328 28.6694 75.6272 28.3604 75.2503 28.3604C74.8732 28.3604 74.5676 28.6694 74.5676 29.0505C74.5676 29.4317 74.8732 29.7407 75.2503 29.7407Z" fill="#32B4B4"/>
<path d="M73.6111 28.0157C74.0637 28.0157 74.4307 27.6447 74.4307 27.187C74.4307 26.7294 74.0637 26.3584 73.6111 26.3584C73.1584 26.3584 72.7915 26.7294 72.7915 27.187C72.7915 27.6447 73.1584 28.0157 73.6111 28.0157Z" fill="#32B4B4"/>
<path d="M76.2058 27.6701C76.4695 27.6701 76.6834 27.4538 76.6834 27.187C76.6834 26.9203 76.4695 26.7041 76.2058 26.7041C75.9419 26.7041 75.728 26.9203 75.728 27.187C75.728 27.4538 75.9419 27.6701 76.2058 27.6701Z" fill="#32B4B4"/>
<path d="M38.1268 12.1689C38.443 12.1689 38.7461 12.0491 38.9696 11.836C39.1931 11.6227 39.3186 11.3336 39.3186 11.0321C39.3186 10.1275 39.6953 9.26 40.3658 8.62034C41.0363 7.98076 41.9457 7.62142 42.894 7.62142C43.8422 7.62142 44.7515 7.98076 45.4221 8.62034C46.0926 9.26 46.4693 10.1275 46.4693 11.0321V38.3172C46.4693 38.6187 46.5949 38.9078 46.8183 39.1211C47.0418 39.3343 47.345 39.4541 47.661 39.4541C47.9771 39.4541 48.2802 39.3343 48.5037 39.1211C48.7272 38.9078 48.8528 38.6187 48.8528 38.3172V32.6328H63.1541V38.3172C63.1541 38.6187 63.2797 38.9078 63.5032 39.1211C63.7266 39.3343 64.0298 39.4541 64.3458 39.4541C64.662 39.4541 64.965 39.3343 65.1886 39.1211C65.4121 38.9078 65.5376 38.6187 65.5376 38.3172V11.0321C65.5376 9.5245 64.9098 8.07864 63.7923 7.01258C62.6748 5.94655 61.1592 5.34766 59.5788 5.34766C57.9984 5.34766 56.4827 5.94655 55.3652 7.01258C54.2477 8.07864 53.6199 9.5245 53.6199 11.0321C53.6199 11.3336 53.7454 11.6227 53.9689 11.836C54.1924 12.0491 54.4956 12.1689 54.8117 12.1689C55.1278 12.1689 55.4309 12.0491 55.6544 11.836C55.8779 11.6227 56.0035 11.3336 56.0035 11.0321C56.0035 10.1275 56.3802 9.26 57.0506 8.62034C57.7211 7.98076 58.6305 7.62142 59.5788 7.62142C60.527 7.62142 61.4364 7.98076 62.1069 8.62034C62.7774 9.26 63.1541 10.1275 63.1541 11.0321V21.264H48.8528V11.0321C48.8528 9.5245 48.225 8.07864 47.1075 7.01258C45.99 5.94655 44.4743 5.34766 42.894 5.34766C41.3136 5.34766 39.7979 5.94655 38.6804 7.01258C37.5629 8.07864 36.9351 9.5245 36.9351 11.0321C36.9351 11.3336 37.0606 11.6227 37.2841 11.836C37.5076 12.0491 37.8108 12.1689 38.1268 12.1689ZM63.1541 23.5377V30.359H48.8528V23.5377H63.1541Z" fill="white"/>
</svg>
