<svg width="155" height="40" viewBox="0 0 155 40" fill="none" xmlns="http://www.w3.org/2000/svg">
<path d="M5.43449 25.2115V19.1542H14.2927C15.452 19.1542 16.5027 18.9177 17.4447 18.4447C18.3866 17.9718 19.1294 17.2988 19.6728 16.4256C20.2163 15.5161 20.488 14.4247 20.488 13.1514C20.488 11.9145 20.2163 10.8413 19.6728 9.93179C19.1294 9.02226 18.3866 8.33109 17.4447 7.85812C16.5027 7.38517 15.452 7.14871 14.2927 7.14871H5.43449V1.09141H15.0535C17.481 1.09141 19.6547 1.58254 21.5749 2.5648C23.5313 3.54707 25.0711 4.9477 26.1942 6.76671C27.3174 8.54937 27.8789 10.6776 27.8789 13.1514C27.8789 15.6253 27.3174 17.7717 26.1942 19.5907C25.0711 21.3734 23.5313 22.7558 21.5749 23.7381C19.6547 24.7203 17.481 25.2115 15.0535 25.2115H5.43449ZM0 39.4543V1.09141H7.3909V39.4543H0ZM84.8433 39.4543V0H91.9625V39.4543H84.8433ZM109.248 40C106.856 40 104.7 39.3997 102.781 38.1992C100.861 36.9986 99.3568 35.3615 98.2699 33.2879C97.183 31.2142 96.6396 28.8858 96.6396 26.3029C96.6396 23.6835 97.183 21.337 98.2699 19.2633C99.3568 17.1896 100.861 15.5525 102.781 14.352C104.7 13.1514 106.856 12.5512 109.248 12.5512C111.132 12.5512 112.817 12.9332 114.302 13.6971C115.787 14.4611 116.965 15.5344 117.834 16.9168C118.74 18.2629 119.229 19.7908 119.301 21.5007V30.9959C119.229 32.7422 118.74 34.2883 117.834 35.6344C116.965 36.9805 115.787 38.0536 114.302 38.854C112.817 39.618 111.132 40 109.248 40ZM110.552 33.397C112.545 33.397 114.156 32.7422 115.389 31.4325C116.621 30.0864 117.236 28.3584 117.236 26.2483C117.236 24.8659 116.947 23.6471 116.367 22.5921C115.823 21.5007 115.045 20.664 114.03 20.0819C113.052 19.4634 111.893 19.1542 110.552 19.1542C109.248 19.1542 108.089 19.4634 107.074 20.0819C106.096 20.664 105.317 21.5007 104.737 22.5921C104.194 23.6471 103.922 24.8659 103.922 26.2483C103.922 27.6671 104.194 28.9222 104.737 30.0136C105.317 31.0686 106.096 31.9054 107.074 32.5239C108.089 33.106 109.248 33.397 110.552 33.397ZM116.856 39.4543V32.3602L117.997 25.9209L116.856 19.5907V13.0969H123.921V39.4543H116.856ZM146.631 39.4543L139.729 28.7585L138.262 27.6671L128.045 13.0969H136.468L142.827 22.7558L144.185 23.7926L155 39.4543H146.631ZM127.502 39.4543L138.207 24.3929L142.283 29.2497L135.545 39.4543H127.502ZM144.457 27.6126L140.273 22.8104L146.522 13.0969H154.511L144.457 27.6126Z" fill="#010F34"/>
<path d="M63.8476 32.8494C61.9793 31.9239 60.3438 30.7263 58.9762 29.3496C57.5055 27.8627 56.338 26.1673 55.5317 24.3617C55.5305 24.353 55.5305 24.3457 55.5293 24.3371C55.5281 24.3408 55.5269 24.3432 55.5245 24.3469C55.5232 24.3432 55.522 24.3408 55.5197 24.3371C55.5184 24.3457 55.5184 24.353 55.5172 24.3617C54.7121 26.1673 53.5434 27.8627 52.0727 29.3496C50.7051 30.7263 49.0696 31.9239 47.2013 32.8494C41.1392 35.8613 34.3511 35.1822 29.8639 31.6333C32.0317 36.256 36.6898 39.4543 42.0862 39.4543C49.0466 39.4543 54.7789 34.1366 55.5245 27.2963C56.2701 34.1353 62.0036 39.4543 68.9628 39.4543C74.3591 39.4543 79.0173 36.2572 81.1853 31.6333C76.6991 35.1834 69.9097 35.8625 63.8476 32.8494Z" fill="url(#paint0_linear_12_435)"/>
<path d="M42.0874 11.8788C34.5147 11.8788 28.3545 18.1074 28.3545 25.764C28.3545 26.54 28.4211 27.322 28.5533 28.0894L28.6042 28.3873L28.86 28.2316C28.9352 28.1863 29.0249 28.1336 29.1183 28.0944L29.254 28.0502C30.4786 27.7107 32.0208 27.946 33.626 28.239L33.9425 28.2966L33.8612 27.9828C33.6708 27.251 33.5751 26.5044 33.5751 25.764C33.5751 21.0175 37.3941 17.1574 42.0874 17.1574C44.4879 17.1574 46.7891 18.192 48.4003 19.9964L48.5398 20.1533L48.6925 20.0087C49.5473 19.1972 50.5839 18.7976 51.863 18.7865H51.8957L51.9127 18.7803C51.9187 18.7803 51.9248 18.7803 51.9309 18.7803C52.017 18.7803 52.1176 18.7853 52.2255 18.7988L52.3953 18.811C52.5019 18.8172 52.611 18.822 52.7068 18.8343C53.0633 18.8858 53.3979 18.9654 53.6998 19.0721L54.2224 19.2548L53.9447 18.7718C51.4944 14.5193 46.9515 11.8788 42.0874 11.8788Z" fill="#010F34"/>
<path d="M68.964 11.8788C64.0986 11.8788 59.5557 14.5205 57.1079 18.7718L56.8303 19.2548L57.3528 19.0721C57.6547 18.9654 57.9893 18.8858 58.341 18.8355C58.4416 18.8233 58.5507 18.8172 58.6622 18.8122L58.8368 18.7987C58.9253 18.7877 59.015 18.7816 59.0986 18.7816C59.1132 18.7816 59.1278 18.7816 59.1399 18.7816L59.1896 18.7878C60.4687 18.7987 61.5053 19.1984 62.36 20.0099L62.5128 20.1546L62.6535 19.9976C64.2647 18.1932 66.5659 17.1586 68.9664 17.1586C73.6609 17.1586 77.4788 21.02 77.4788 25.7652C77.4788 26.5069 77.383 27.2534 77.1926 27.984L77.1113 28.2978L77.4278 28.2403C79.033 27.9473 80.5752 27.7119 81.7916 28.049L81.9351 28.0956C82.0285 28.1348 82.1185 28.1875 82.1941 28.2328L82.4497 28.3885L82.5006 28.0907C82.6323 27.3245 82.6993 26.5412 82.6993 25.7652C82.6968 18.1074 76.5367 11.8788 68.964 11.8788Z" fill="#010F34"/>
<path d="M81.5309 29.0406C78.434 28.1813 71.6324 31.9509 67.2277 28.467C62.8389 24.9966 63.3833 19.8456 59.1799 19.81C59.1592 19.81 59.1361 19.8076 59.1156 19.8076C59.0101 19.8076 58.9167 19.8198 58.8173 19.8272C58.0608 19.8272 57.4316 20.0638 56.9332 20.374C56.8896 20.3984 56.8484 20.423 56.8096 20.4475C56.7974 20.4549 56.7829 20.4647 56.7671 20.4732C56.7283 20.4978 56.6993 20.5198 56.6677 20.5418C56.6398 20.5627 56.6095 20.5897 56.5767 20.6216C55.876 21.1646 55.5196 21.7861 55.5196 21.7861C55.1849 21.2381 54.8212 20.8778 54.4733 20.6228C54.4406 20.5909 54.4103 20.5639 54.3811 20.5418C54.3496 20.5198 54.3205 20.4978 54.2817 20.4732C54.266 20.4634 54.2514 20.4549 54.2392 20.4475C54.0465 20.3273 53.7858 20.1925 53.4682 20.0773C53.4621 20.0748 53.4561 20.0724 53.4512 20.0699V20.0712C53.1954 19.9805 52.9032 19.9007 52.571 19.8542C52.4643 19.8395 52.3455 19.8358 52.2315 19.8272C52.1321 19.8198 52.0388 19.8076 51.9333 19.8076C51.9127 19.8076 51.8897 19.81 51.869 19.81C47.6656 19.8468 48.21 24.9966 43.8211 28.467C39.4164 31.9496 32.6148 28.1801 29.5184 29.0406C29.1582 29.1927 29.1013 29.4145 29.134 29.6438C29.3316 30.3278 29.5657 30.9959 29.8627 31.6272V31.6333C34.3498 35.1822 41.1381 35.8612 47.2001 32.8494C49.0684 31.9238 50.7039 30.7262 52.0715 29.3496C53.5458 27.8589 54.717 26.1587 55.522 24.3469C56.3282 26.1575 57.4982 27.8589 58.9725 29.3496C60.3401 30.7262 61.9757 31.9238 63.8439 32.8494C69.9059 35.8612 76.6942 35.1822 81.181 31.6333V31.6272C81.4774 30.9947 81.7126 30.3265 81.9096 29.6438C81.9478 29.4145 81.8892 29.1927 81.5309 29.0406Z" fill="url(#paint1_linear_12_435)"/>
<path d="M36.1224 29.7408C36.4994 29.7408 36.805 29.4318 36.805 29.0506C36.805 28.6694 36.4994 28.3604 36.1224 28.3604C35.7454 28.3604 35.4398 28.6694 35.4398 29.0506C35.4398 29.4318 35.7454 29.7408 36.1224 29.7408Z" fill="#00C7FF"/>
<path d="M37.7614 28.016C38.2141 28.016 38.581 27.645 38.581 27.1873C38.581 26.7297 38.2141 26.3587 37.7614 26.3587C37.3088 26.3587 36.9418 26.7297 36.9418 27.1873C36.9418 27.645 37.3088 28.016 37.7614 28.016Z" fill="#0076C8"/>
<path d="M35.1657 27.6703C35.4296 27.6703 35.6435 27.454 35.6435 27.1872C35.6435 26.9205 35.4296 26.7043 35.1657 26.7043C34.9019 26.7043 34.6881 26.9205 34.6881 27.1872C34.6881 27.454 34.9019 27.6703 35.1657 27.6703Z" fill="#00C7FF"/>
<path d="M75.2503 29.7408C75.6273 29.7408 75.9329 29.4318 75.9329 29.0506C75.9329 28.6694 75.6273 28.3604 75.2503 28.3604C74.8733 28.3604 74.5677 28.6694 74.5677 29.0506C74.5677 29.4318 74.8733 29.7408 75.2503 29.7408Z" fill="#00C7FF"/>
<path d="M73.6112 28.016C74.0638 28.016 74.4308 27.645 74.4308 27.1873C74.4308 26.7297 74.0638 26.3587 73.6112 26.3587C73.1585 26.3587 72.7916 26.7297 72.7916 27.1873C72.7916 27.645 73.1585 28.016 73.6112 28.016Z" fill="#0076C8"/>
<path d="M76.2057 27.6703C76.4694 27.6703 76.6833 27.454 76.6833 27.1872C76.6833 26.9205 76.4694 26.7043 76.2057 26.7043C75.9418 26.7043 75.728 26.9205 75.728 27.1872C75.728 27.454 75.9418 27.6703 76.2057 27.6703Z" fill="#00C7FF"/>
<path d="M38.1269 12.1691C38.4431 12.1691 38.7462 12.0493 38.9697 11.8362C39.1932 11.6229 39.3187 11.3338 39.3187 11.0323C39.3187 10.1277 39.6954 9.26019 40.366 8.62052C41.0364 7.98094 41.9459 7.6216 42.8941 7.6216C43.8423 7.6216 44.7517 7.98094 45.4222 8.62052C46.0927 9.26019 46.4694 10.1277 46.4694 11.0323V38.3174C46.4694 38.6189 46.595 38.908 46.8185 39.1213C47.042 39.3344 47.3451 39.4542 47.6612 39.4542C47.9772 39.4542 48.2803 39.3344 48.5038 39.1213C48.7273 38.908 48.8529 38.6189 48.8529 38.3174V32.633H63.1542V38.3174C63.1542 38.6189 63.2798 38.908 63.5033 39.1213C63.7268 39.3344 64.0299 39.4542 64.346 39.4542C64.6621 39.4542 64.9652 39.3344 65.1887 39.1213C65.4122 38.908 65.5377 38.6189 65.5377 38.3174V11.0323C65.5377 9.52468 64.91 8.07882 63.7924 7.01276C62.6749 5.94673 61.1593 5.34784 59.5789 5.34784C57.9985 5.34784 56.4829 5.94673 55.3653 7.01276C54.2478 8.07882 53.62 9.52468 53.62 11.0323C53.62 11.3338 53.7456 11.6229 53.9691 11.8362C54.1926 12.0493 54.4957 12.1691 54.8118 12.1691C55.1279 12.1691 55.431 12.0493 55.6545 11.8362C55.878 11.6229 56.0036 11.3338 56.0036 11.0323C56.0036 10.1277 56.3803 9.26019 57.0508 8.62052C57.7212 7.98094 58.6307 7.6216 59.5789 7.6216C60.5271 7.6216 61.4366 7.98094 62.107 8.62052C62.7775 9.26019 63.1542 10.1277 63.1542 11.0323V21.2642H48.8529V11.0323C48.8529 9.52468 48.2252 8.07882 47.1076 7.01276C45.9901 5.94673 44.4744 5.34784 42.8941 5.34784C41.3137 5.34784 39.798 5.94673 38.6805 7.01276C37.563 8.07882 36.9352 9.52468 36.9352 11.0323C36.9352 11.3338 37.0608 11.6229 37.2843 11.8362C37.5078 12.0493 37.8109 12.1691 38.1269 12.1691ZM63.1542 23.5379V30.3592H48.8529V23.5379H63.1542Z" fill="#010F34"/>
<defs>
<linearGradient id="paint0_linear_12_435" x1="29.865" y1="31.8962" x2="81.1861" y2="31.8962" gradientUnits="userSpaceOnUse">
<stop stop-color="#0078ED"/>
<stop offset="0.5" stop-color="#03CAFF"/>
<stop offset="1" stop-color="#0078ED"/>
</linearGradient>
<linearGradient id="paint1_linear_12_435" x1="29.1284" y1="27.2809" x2="81.9223" y2="27.2809" gradientUnits="userSpaceOnUse">
<stop stop-color="#03CAFF"/>
<stop offset="0.5084" stop-color="#0181F5"/>
<stop offset="1" stop-color="#03CAFF"/>
</linearGradient>
</defs>
</svg>
