<svg width="40" height="40" viewBox="0 0 40 40" fill="none" xmlns="http://www.w3.org/2000/svg">
<path d="M4.88965 38.75C5.88971 38.75 6.70331 37.9364 6.70331 36.9363V32.9727H19.8903V36.9363C19.8903 37.9364 20.7039 38.75 21.7039 38.75C22.704 38.75 23.5176 37.9364 23.5176 36.9363V29.3472H24.6732C25.1062 30.5051 25.8965 31.2076 26.8095 31.2076C28.2063 31.2076 29.3007 29.5181 29.3007 27.3611C29.3007 25.2011 28.2063 23.5089 26.8095 23.5089C25.897 23.5089 25.1066 24.2136 24.6731 25.3751H23.5176V7.8009C23.5176 7.32605 23.9036 6.94 24.3785 6.94H26.0933C26.6011 8.24265 27.648 9.09149 28.816 9.09149C30.5043 9.09149 31.8779 7.33398 31.8779 5.17365C31.8779 3.01025 30.5043 1.25 28.816 1.25C27.6658 1.25 26.6506 2.04758 26.1276 3.31238H24.3785C21.9038 3.31238 19.8903 5.32593 19.8903 7.8009V11.8533H6.70331V7.8009C6.70331 7.32605 7.08966 6.94 7.56421 6.94H9.28147C9.78921 8.24265 10.8359 9.09149 12.0039 9.09149C13.6924 9.09149 15.066 7.33398 15.066 5.17365C15.066 3.01025 13.6924 1.25 12.0039 1.25C10.8539 1.25 9.83876 2.04758 9.31573 3.31238H7.56421C5.08923 3.31238 3.07568 5.32593 3.07568 7.8009V36.9363C3.07568 37.9364 3.88928 38.75 4.88965 38.75ZM19.8903 23.176H6.70331V21.6562H19.8903V23.176ZM9.49902 27.6743C9.35345 27.8165 9.16669 27.8946 8.9729 27.8946H6.70331V26.4224H8.9729C9.37878 26.4224 9.70898 26.7526 9.70898 27.1585C9.70898 27.352 9.63055 27.5391 9.49902 27.6743ZM7.85954 25.1724H6.70331V24.426H8.23079C8.08953 24.648 7.96307 24.8946 7.85954 25.1724ZM9.22093 25.1975C9.44527 24.8001 9.72626 24.5538 9.99677 24.5538C10.5827 24.5538 11.2382 25.6668 11.2382 27.1561C11.2382 27.8288 11.0954 28.4597 10.8519 28.9532H9.80454C10.0128 28.8559 10.2096 28.7275 10.3831 28.5577C10.7545 28.1772 10.959 27.6801 10.959 27.1585C10.959 26.1481 10.1982 25.3212 9.22093 25.1975ZM11.77 24.426H19.8903V28.9532H12.1936C12.3779 28.4027 12.4882 27.7901 12.4882 27.1561C12.4882 26.079 12.216 25.1186 11.77 24.426ZM19.8903 20.4062H6.70331V15.8731H19.8903V20.4062ZM6.70331 31.7227V30.2032H19.8903V31.7227H6.70331ZM23.5176 26.6251H25.7872C26.1931 26.6251 26.5233 26.9553 26.5233 27.3611C26.5233 27.5549 26.4451 27.7417 26.3133 27.8769C26.1677 28.0191 25.981 28.0972 25.7872 28.0972H23.5176V26.6251ZM26.8095 24.7589C27.3954 24.7589 28.0507 25.8719 28.0507 27.3611C28.0507 28.847 27.3954 29.9576 26.8095 29.9576C26.5398 29.9576 26.2599 29.715 26.0363 29.3227C26.4656 29.268 26.8696 29.081 27.1971 28.7607C27.5688 28.3804 27.7733 27.8833 27.7733 27.3611C27.7733 26.3507 27.0124 25.5236 26.035 25.4001C26.259 25.0042 26.5395 24.7589 26.8095 24.7589ZM28.816 2.5C29.7981 2.5 30.6279 3.72437 30.6279 5.17365C30.6279 6.61987 29.7981 7.84149 28.816 7.84149C28.3 7.84149 27.8156 7.49691 27.4783 6.94H28.1944C29.1945 6.94 30.0081 6.1264 30.0081 5.12604C30.0081 4.12598 29.1945 3.31238 28.1944 3.31238H27.5373C27.8734 2.80968 28.3339 2.5 28.816 2.5ZM21.1403 7.8009C21.1403 6.01532 22.5929 4.56238 24.3785 4.56238H28.1944C28.5106 4.56238 28.7581 4.80988 28.7581 5.12604C28.7581 5.43701 28.5051 5.69 28.1944 5.69H24.3785C23.2145 5.69 22.2676 6.63696 22.2676 7.8009V26.0001V28.7222V36.9363C22.2676 37.247 22.0146 37.5 21.7039 37.5C21.3932 37.5 21.1403 37.247 21.1403 36.9363V32.3477V29.5782V23.801V21.0312V15.2481V12.4783V7.8009ZM19.8903 13.1033V14.6231H6.70331V13.1033H19.8903ZM12.0039 2.5C12.9863 2.5 13.816 3.72437 13.816 5.17365C13.816 6.61987 12.9863 7.84149 12.0039 7.84149C11.4881 7.84149 11.0037 7.49691 10.6665 6.94H11.3859C12.386 6.94 13.1996 6.1264 13.1996 5.12604C13.1996 4.12598 12.386 3.31238 11.3859 3.31238H10.7254C11.0615 2.80968 11.522 2.5 12.0039 2.5ZM4.32568 7.8009C4.32568 6.01532 5.77863 4.56238 7.56421 4.56238H11.3859C11.6966 4.56238 11.9496 4.81537 11.9496 5.12604C11.9496 5.43701 11.6966 5.69 11.3859 5.69H7.56421C6.40027 5.69 5.45331 6.63696 5.45331 7.8009V12.4783V15.2481V21.0312V23.801V25.7974V28.5196V29.5782V32.3477V36.9363C5.45331 37.247 5.20032 37.5 4.88965 37.5C4.57867 37.5 4.32568 37.247 4.32568 36.9363V7.8009Z" fill="white"/>
<path d="M28.0508 19.4688C28.0508 20.5887 28.962 21.5 30.082 21.5C31.202 21.5 32.1133 20.5887 32.1133 19.4688C32.1133 18.3488 31.202 17.4375 30.082 17.4375C28.962 17.4375 28.0508 18.3488 28.0508 19.4688ZM30.8633 19.4688C30.8633 19.8997 30.5129 20.25 30.082 20.25C29.6511 20.25 29.3008 19.8997 29.3008 19.4688C29.3008 19.0378 29.6511 18.6875 30.082 18.6875C30.5129 18.6875 30.8633 19.0378 30.8633 19.4688Z" fill="white"/>
<path d="M35.3184 14.6601C35.3184 13.1006 34.0498 11.832 32.4904 11.832C30.9312 11.832 29.6626 13.1006 29.6626 14.6601C29.6626 16.2195 30.9312 17.4882 32.4904 17.4882C34.0498 17.4882 35.3184 16.2195 35.3184 14.6601ZM30.9126 14.6601C30.9126 13.79 31.6203 13.082 32.4904 13.082C33.3604 13.082 34.0684 13.79 34.0684 14.6601C34.0684 15.5302 33.3604 16.2382 32.4904 16.2382C31.6203 16.2382 30.9126 15.5302 30.9126 14.6601Z" fill="white"/>
<path d="M35.2514 11.8827C36.8109 11.8827 38.0795 10.6141 38.0795 9.05463C38.0795 7.49518 36.8109 6.22656 35.2514 6.22656C33.692 6.22656 32.4233 7.49518 32.4233 9.05463C32.4233 10.6141 33.692 11.8827 35.2514 11.8827ZM35.2514 7.47656C36.1215 7.47656 36.8295 8.18457 36.8295 9.05463C36.8295 9.92468 36.1215 10.6327 35.2514 10.6327C34.3813 10.6327 33.6733 9.92468 33.6733 9.05463C33.6733 8.18457 34.3813 7.47656 35.2514 7.47656Z" fill="white"/>
</svg>
