<svg width="40" height="40" viewBox="0 0 40 40" fill="none" xmlns="http://www.w3.org/2000/svg">
<path d="M30.1726 6.21966C29.7945 5.8416 29.7945 5.22857 30.1726 4.85042C30.5507 4.47226 31.1637 4.47236 31.5418 4.85042L32.943 6.25161C33.3211 6.62967 33.3211 7.2427 32.943 7.62085C32.7539 7.80993 32.5062 7.90442 32.2585 7.90442C32.0107 7.90442 31.7629 7.80993 31.5739 7.62085L30.1726 6.21966ZM31.5738 14.9702L30.1726 16.3714C29.7945 16.7495 29.7945 17.3625 30.1726 17.7405C30.3617 17.9296 30.6094 18.0241 30.8572 18.0241C31.1049 18.0241 31.3528 17.9295 31.5417 17.7405L32.9429 16.3393C33.321 15.9613 33.321 15.3483 32.9429 14.9702C32.5649 14.5921 31.9518 14.5921 31.5738 14.9702ZM36.7327 6.50323C37.2674 6.50323 37.7009 6.06979 37.7009 5.53509V2.11426C37.7009 1.57955 37.2674 1.14612 36.7327 1.14612C36.198 1.14612 35.7646 1.57955 35.7646 2.11426V5.53499C35.7646 6.06979 36.198 6.50323 36.7327 6.50323ZM27.4364 12.1805H30.8572C31.3919 12.1805 31.8253 11.7471 31.8253 11.2124C31.8253 10.6777 31.3919 10.2442 30.8572 10.2442H27.4364C26.9017 10.2442 26.4683 10.6777 26.4683 11.2124C26.4683 11.7471 26.9017 12.1805 27.4364 12.1805ZM39.8072 26.4646C39.8072 26.9994 39.3738 27.4328 38.8391 27.4328H34.192C33.6573 27.4328 33.2239 26.9994 33.2239 26.4646C33.2239 25.9299 33.6573 25.4965 34.192 25.4965H35.5474V14.56C34.0955 14.1395 33.031 12.798 33.031 11.2124C33.031 9.29099 34.5942 7.72783 36.5156 7.72783C38.4369 7.72783 40 9.29099 40 11.2124C40 12.7978 38.9354 14.1394 37.4837 14.56V25.4965H38.8391C39.3738 25.4965 39.8072 25.9299 39.8072 26.4646ZM36.5156 12.7605C37.3692 12.7605 38.0637 12.066 38.0637 11.2124C38.0637 10.3587 37.3692 9.66411 36.5156 9.66411C35.6619 9.66411 34.9673 10.3587 34.9673 11.2124C34.9673 12.066 35.6619 12.7605 36.5156 12.7605ZM19.481 29.969C18.5775 30.0342 17.7846 30.4505 17.248 31.1414C17.2476 31.1418 17.2472 31.1424 17.2468 31.1429C16.9983 31.4633 16.6438 31.5523 16.3901 31.5706C15.8994 31.6062 15.3658 31.4085 14.9988 31.0548C14.2153 30.2996 13.1233 29.8933 12.0791 29.9691C11.1751 30.0344 10.3817 30.4513 9.84512 31.143C9.51741 31.5655 9.59428 32.1737 10.0168 32.5013C10.4393 32.829 11.0474 32.7521 11.3751 32.3296C11.576 32.0707 11.8596 31.9262 12.2183 31.9003C12.7166 31.8643 13.2666 32.0745 13.6549 32.4489C14.3553 33.1238 15.3197 33.511 16.2771 33.5109C16.3612 33.5109 16.4454 33.5079 16.5293 33.5019C17.4432 33.4359 18.2413 33.0196 18.7765 32.3297C18.7766 32.3296 18.7768 32.3294 18.777 32.3291C18.9779 32.0705 19.2615 31.9261 19.6201 31.9003C20.1181 31.8641 20.6685 32.0745 21.0568 32.4488C21.4417 32.8199 22.0545 32.8088 22.4257 32.4237C22.7968 32.0387 22.7856 31.4258 22.4006 31.0547C21.6173 30.2996 20.5255 29.8931 19.481 29.969ZM23.9474 29.3287C24.8607 29.2628 25.6582 28.847 26.1934 28.1581C26.1938 28.1575 26.1943 28.157 26.1947 28.1564C26.3956 27.8974 26.6793 27.753 27.0381 27.727C27.5361 27.6908 28.0866 27.9013 28.4749 28.2756C28.8598 28.6466 29.4727 28.6354 29.8438 28.2505C30.2149 27.8655 30.2037 27.2526 29.8186 26.8815C29.0352 26.1264 27.944 25.7196 26.8987 25.7959C25.9946 25.8611 25.2011 26.278 24.6646 26.9697C24.6646 26.9697 24.6643 26.97 24.6642 26.9702C24.4156 27.2901 24.0614 27.3791 23.8079 27.3974C23.3166 27.4331 22.7835 27.2351 22.4166 26.8815C21.6331 26.1263 20.5414 25.7202 19.4969 25.7959C18.5929 25.8611 17.7995 26.278 17.2629 26.9697C17.2626 26.97 17.2624 26.9704 17.2621 26.9707C17.0135 27.2903 16.6594 27.3792 16.4059 27.3974C15.9144 27.4331 15.3815 27.2351 15.0145 26.8814C14.6297 26.5105 14.0166 26.5218 13.6456 26.9068C13.2745 27.2918 13.2859 27.9047 13.6709 28.2758C14.4328 29.0099 15.5074 29.4031 16.5451 29.3287C17.4592 29.2628 18.2574 28.8466 18.7928 28.1567C18.7932 28.1562 18.7936 28.1556 18.7939 28.1551C18.9947 27.897 19.2781 27.753 19.6362 27.7271C20.1343 27.6913 20.6845 27.9014 21.0728 28.2758C21.7732 28.9506 22.7376 29.3378 23.695 29.3378C23.7794 29.3378 23.8636 29.3348 23.9474 29.3287ZM38.4046 28.6224H36.7327C36.198 28.6224 35.7646 29.0559 35.7646 29.5906C35.7646 33.6307 32.2901 36.9177 28.0195 36.9177H11.5559C7.28526 36.9177 3.8108 33.6307 3.8108 29.5906C3.8108 25.5504 7.28526 22.2635 11.5559 22.2635H32.4505C32.9852 22.2635 33.4187 21.8301 33.4187 21.2954C33.4187 20.7607 32.9852 20.3272 32.4505 20.3272H11.5559C6.55935 20.3272 2.43468 23.968 1.92699 28.6224H0.968141C0.433437 28.6224 0 29.0559 0 29.5906C0 30.1253 0.433437 30.5587 0.968141 30.5587H1.92699C2.43468 35.2131 6.55935 38.8539 11.5559 38.8539H28.0195C33.016 38.8539 37.1407 35.2131 37.6484 30.5587H38.4046C38.9393 30.5587 39.3727 30.1253 39.3727 29.5906C39.3727 29.0559 38.9393 28.6224 38.4046 28.6224Z" fill="white"/>
</svg>
