<?xml version="1.0" standalone="no"?>
<!DOCTYPE svg PUBLIC "-//W3C//DTD SVG 20010904//EN"
 "http://www.w3.org/TR/2001/REC-SVG-20010904/DTD/svg10.dtd">
<svg version="1.0" xmlns="http://www.w3.org/2000/svg"
 width="160.000000pt" height="160.000000pt" viewBox="0 0 160.000000 160.000000"
 preserveAspectRatio="xMidYMid meet">
<metadata>
Created by potrace 1.14, written by Peter Selinger 2001-2017
</metadata>
<g transform="translate(0.000000,160.000000) scale(0.100000,-0.100000)"
fill="#000000" stroke="none">
<path d="M74 1358 c-3 -5 14 -44 37 -88 44 -85 44 -88 24 -235 -2 -16 -11 -91
-20 -165 -8 -74 -17 -151 -20 -170 -2 -19 -7 -60 -10 -90 -4 -30 -8 -66 -10
-80 -2 -14 -7 -54 -11 -90 -4 -36 -8 -72 -9 -80 -2 -8 -6 -44 -9 -79 -4 -36
-9 -68 -12 -72 -2 -4 2 -6 8 -4 65 14 78 18 78 25 0 3 6 7 13 7 42 0 241 92
201 93 -5 0 -4 4 1 8 6 4 30 40 53 80 45 75 65 91 58 45 -4 -27 -14 -131 -21
-235 -2 -29 0 -46 6 -43 5 4 9 15 9 26 0 16 7 19 53 19 37 0 68 8 108 28 52
27 63 29 193 30 140 1 148 3 152 25 1 7 11 59 23 117 12 59 23 119 26 135 2
17 9 48 14 70 6 22 10 42 11 45 2 21 13 76 17 83 3 4 21 -10 40 -33 19 -22 42
-40 51 -40 12 0 13 -8 7 -47 -4 -27 -8 -55 -8 -64 -1 -9 -7 -15 -14 -12 -12 5
-18 -14 -14 -45 1 -8 -5 -19 -15 -26 -14 -10 -15 -20 -9 -52 9 -44 9 -74 0
-124 l-7 -35 91 2 91 2 63 -47 c69 -52 127 -130 127 -171 0 -20 2 -23 10 -11
5 8 10 25 10 38 0 13 7 30 15 38 37 37 9 134 -57 197 l-49 48 27 132 c14 73
28 149 29 171 2 21 8 50 14 65 11 30 113 543 115 580 l1 25 -190 -1 c-104 0
-194 2 -199 4 -6 4 -479 7 -493 4 -1 -1 25 -38 57 -83 33 -46 60 -87 59 -93 0
-5 -15 -46 -33 -90 l-34 -80 -94 92 -94 93 -29 -58 c-16 -31 -28 -60 -27 -64
1 -5 -2 -8 -7 -8 -5 0 -13 -9 -16 -20 -8 -25 -39 -28 -31 -2 3 9 8 46 11 82 4
36 11 87 16 114 5 27 7 51 5 53 -2 3 0 18 4 34 7 22 5 29 -6 30 -108 4 -377 2
-380 -3z m1092 -67 c-3 -5 4 -19 17 -33 12 -13 23 -27 24 -31 2 -4 10 -18 19
-31 14 -23 14 -33 -7 -135 l-22 -111 -64 0 c-61 0 -63 1 -58 23 3 12 7 34 10
50 3 15 7 39 10 55 3 15 10 47 15 72 6 25 13 56 15 70 12 66 18 80 31 80 9 0
13 -4 10 -9z"/>
</g>
</svg>
